<svg width="179" height="179" viewBox="0 0 179 179" fill="none" xmlns="http://www.w3.org/2000/svg">
<path d="M64.1208 133.821L58.173 142.085L57.1723 141.365L59.8209 137.685L55.4145 134.514L52.7659 138.194L51.7652 137.473L57.713 129.209L58.7137 129.93L56.0535 133.626L60.4598 136.797L63.1201 133.101L64.1208 133.821Z" fill="white"/>
<path d="M55.5339 127.009C55.8829 127.345 56.1364 127.715 56.2945 128.119C56.4503 128.526 56.4913 128.936 56.4174 129.348C56.3413 129.762 56.131 130.148 55.7866 130.506C55.4834 130.822 55.1756 131.018 54.863 131.094C54.5481 131.173 54.2328 131.169 53.9169 131.082C53.601 130.994 53.2912 130.857 52.9875 130.671C52.679 130.485 52.3809 130.286 52.093 130.074C51.7171 129.795 51.4148 129.567 51.1862 129.389C50.953 129.21 50.7621 129.103 50.6137 129.066C50.4629 129.027 50.322 129.075 50.1912 129.212L50.1636 129.24C49.8237 129.594 49.6564 129.962 49.6617 130.344C49.6646 130.723 49.8608 131.101 50.2504 131.475C50.6543 131.863 51.0559 132.079 51.4553 132.122C51.8546 132.166 52.1974 132.132 52.4835 132.021L53.0109 133.079C52.546 133.276 52.1045 133.353 51.6864 133.31C51.2636 133.267 50.8744 133.145 50.5188 132.946C50.1586 132.747 49.8398 132.514 49.5626 132.248C49.3857 132.078 49.2032 131.861 49.0151 131.598C48.8224 131.335 48.6804 131.035 48.5893 130.699C48.4959 130.361 48.5026 129.993 48.6095 129.595C48.7164 129.196 48.98 128.779 49.4002 128.341L52.8862 124.713L53.7322 125.526L53.0157 126.272L53.0588 126.313C53.2309 126.249 53.4494 126.213 53.7141 126.205C53.9789 126.198 54.2683 126.253 54.5824 126.371C54.8965 126.489 55.2137 126.702 55.5339 127.009ZM54.6746 127.645C54.34 127.324 53.9949 127.119 53.6391 127.03C53.281 126.938 52.9435 126.94 52.6266 127.036C52.3073 127.129 52.0375 127.29 51.817 127.52L51.073 128.294C51.1502 128.285 51.2669 128.322 51.4232 128.403C51.5749 128.484 51.7422 128.588 51.9252 128.713C52.1035 128.838 52.2759 128.963 52.4425 129.086C52.6044 129.209 52.7364 129.308 52.8387 129.384C53.0862 129.566 53.3365 129.717 53.5897 129.836C53.8382 129.956 54.0818 130.008 54.3207 129.994C54.5548 129.98 54.7752 129.866 54.9819 129.65C55.2643 129.357 55.3692 129.03 55.2963 128.67C55.2188 128.311 55.0116 127.969 54.6746 127.645Z" fill="white"/>
<path d="M42.8983 124.66L48.8684 119.898L49.6 120.816L43.6298 125.577L42.8983 124.66ZM46.0286 122.748L46.8837 122.066C47.1268 122.212 47.3597 122.363 47.5826 122.52C47.8029 122.679 48.0197 122.858 48.2332 123.057C48.4441 123.257 48.657 123.492 48.8719 123.762C49.4113 124.438 49.6616 125.127 49.6227 125.827C49.5818 126.526 49.196 127.166 48.4653 127.749L46.553 129.274L45.8214 128.357L47.7337 126.832C48.0395 126.588 48.2443 126.329 48.3483 126.055C48.4522 125.782 48.4726 125.507 48.4093 125.231C48.3461 124.955 48.2152 124.693 48.0168 124.444C47.7069 124.055 47.3918 123.732 47.0718 123.474C46.7471 123.216 46.3994 122.974 46.0286 122.748Z" fill="white"/>
<path d="M47.0455 116.887C47.2956 117.301 47.4445 117.724 47.4923 118.156C47.5372 118.59 47.4707 118.996 47.2926 119.374C47.1118 119.754 46.8085 120.073 46.3829 120.33C46.0083 120.556 45.6602 120.665 45.3385 120.658C45.0139 120.653 44.7104 120.567 44.428 120.401C44.1456 120.234 43.8819 120.022 43.6368 119.763C43.3871 119.504 43.1508 119.234 42.9278 118.955C42.6369 118.588 42.4042 118.289 42.2296 118.058C42.0505 117.825 41.8941 117.672 41.7603 117.598C41.6248 117.521 41.4762 117.531 41.3145 117.629L41.2804 117.649C40.8605 117.903 40.6035 118.215 40.5096 118.585C40.414 118.952 40.5057 119.367 40.7849 119.83C41.0744 120.309 41.4063 120.622 41.7807 120.768C42.1552 120.913 42.4949 120.97 42.8001 120.936L43.0351 122.095C42.5351 122.165 42.0888 122.125 41.6962 121.974C41.299 121.823 40.9545 121.605 40.6627 121.321C40.3664 121.035 40.1189 120.728 39.9202 120.398C39.7934 120.188 39.6734 119.932 39.56 119.629C39.4421 119.324 39.3827 118.998 39.3817 118.65C39.3791 118.3 39.481 117.946 39.6876 117.589C39.8941 117.232 40.257 116.897 40.7762 116.583L45.0835 113.983L45.6899 114.988L44.8046 115.522L44.8354 115.573C45.0184 115.555 45.2387 115.577 45.4964 115.639C45.754 115.7 46.0192 115.828 46.292 116.024C46.5648 116.219 46.816 116.507 47.0455 116.887ZM46.0507 117.278C45.8109 116.881 45.5308 116.593 45.2103 116.415C44.888 116.234 44.5615 116.149 44.2308 116.159C43.8983 116.166 43.5958 116.252 43.3234 116.416L42.4041 116.971C42.4808 116.983 42.5842 117.048 42.7141 117.167C42.8395 117.285 42.9743 117.428 43.1185 117.597C43.2582 117.764 43.3925 117.929 43.5214 118.091C43.6458 118.252 43.7476 118.382 43.8269 118.481C44.0185 118.722 44.2211 118.933 44.4348 119.113C44.6439 119.293 44.8656 119.407 45.0999 119.455C45.3297 119.502 45.5722 119.449 45.8276 119.295C46.1766 119.084 46.3626 118.796 46.3855 118.429C46.4038 118.062 46.2922 117.678 46.0507 117.278Z" fill="white"/>
<path d="M39.0021 116.638L38.0042 117.086L35.4632 111.426L36.461 110.978L37.4872 113.264L43.4559 110.584L43.9365 111.655L37.9677 114.334L39.0021 116.638Z" fill="white"/>
<path d="M37.2254 108.27L36.5828 106.179C36.3199 105.324 36.3359 104.603 36.6307 104.016C36.9256 103.43 37.4056 103.034 38.071 102.83C38.5082 102.696 38.9369 102.675 39.3572 102.768C39.7744 102.861 40.1494 103.072 40.4824 103.4C40.8123 103.728 41.0648 104.178 41.24 104.748L42.1805 107.808L34.881 110.051L34.5364 108.93L40.7904 107.008L40.1945 105.069C40.0582 104.626 39.8291 104.297 39.507 104.084C39.1849 103.871 38.8401 103.821 38.4726 103.934C38.0861 104.053 37.8147 104.292 37.6583 104.652C37.502 105.012 37.492 105.414 37.6283 105.858L38.2709 107.949L37.2254 108.27Z" fill="white"/>
<path d="M42.4063 97.6399C42.4293 97.8374 42.4334 98.0155 42.4186 98.174C42.407 98.3322 42.3899 98.4427 42.3672 98.5054L41.3055 98.3291C41.3448 98.0375 41.342 97.7842 41.2968 97.5692C41.2517 97.3543 41.1321 97.173 40.938 97.0255C40.7469 96.8743 40.4504 96.7504 40.0487 96.6539L39.4308 96.5058L32.134 100.201L31.9864 98.9368L37.786 96.1372L37.7768 96.0582L31.4882 94.6703L31.3405 93.4062L40.4074 95.6109C40.8161 95.71 41.1613 95.8515 41.4431 96.0355C41.7282 96.2192 41.9498 96.4452 42.1079 96.7137C42.2657 96.9789 42.3651 97.2877 42.4063 97.6399Z" fill="white"/>
<path d="M38.8958 92.4774L31.2597 92.413L31.286 89.291C31.293 88.469 31.4841 87.8177 31.8594 87.3369C32.2346 86.8562 32.7272 86.6184 33.337 86.6235C33.801 86.6274 34.1595 86.768 34.4123 87.0452C34.6619 87.3225 34.8296 87.6769 34.9155 88.1085C34.9576 87.8271 35.0593 87.5545 35.2207 87.2907C35.382 87.0236 35.6026 86.8034 35.8825 86.6301C36.1591 86.4567 36.4979 86.3718 36.8989 86.3751C37.29 86.3784 37.6388 86.4808 37.9454 86.6823C38.2519 86.8837 38.4931 87.1708 38.6689 87.5435C38.8448 87.9162 38.9305 88.3611 38.9262 88.8781L38.8958 92.4774ZM37.8314 91.3548L37.8523 88.8691C37.8557 88.4647 37.7623 88.1474 37.572 87.9171C37.3817 87.6868 37.1208 87.5702 36.7894 87.5674C36.395 87.5641 36.0842 87.6758 35.8569 87.9026C35.6262 88.1294 35.5092 88.4449 35.5058 88.8493L35.4849 91.335L37.8314 91.3548ZM34.4707 91.3264L34.4876 89.318C34.4903 89.0031 34.4495 88.7326 34.3652 88.5065C34.2776 88.2804 34.1531 88.107 33.9917 87.9863C33.8271 87.8623 33.632 87.7993 33.4067 87.7974C33.0852 87.7947 32.8322 87.9268 32.6476 88.1938C32.4598 88.4606 32.3638 88.8294 32.3599 89.3L32.3429 91.3085L34.4707 91.3264Z" fill="white"/>
<path d="M38.7727 86.9643L37.69 86.8093L37.7294 86.5337C37.7618 86.3073 37.7445 86.1123 37.6776 85.9487C37.6073 85.7847 37.4655 85.6405 37.2523 85.5162C37.0362 85.3882 36.7283 85.2705 36.3285 85.163C35.9259 85.0519 35.4096 84.9395 34.7797 84.8259L31.4528 84.2091L32.1741 79.1696L39.7334 80.2514L39.5672 81.4129L33.0906 80.486L32.6933 83.2617L35.3734 83.7658C35.9897 83.8808 36.528 84.0147 36.9883 84.1676C37.4457 84.3168 37.8214 84.4995 38.1152 84.7156C38.4095 84.9285 38.6171 85.1859 38.7379 85.4878C38.8588 85.7897 38.8892 86.1506 38.8291 86.5706L38.7727 86.9643Z" fill="white"/>
<path d="M40.8486 76.2667C40.644 76.9734 40.3115 77.538 39.8511 77.9602C39.3885 78.3784 38.8354 78.6444 38.1917 78.7583C37.5457 78.8681 36.8471 78.8142 36.0957 78.5967C35.3443 78.3792 34.7218 78.0507 34.2279 77.611C33.7319 77.1672 33.3945 76.6521 33.2157 76.0655C33.0348 75.4748 33.0401 74.8484 33.2318 74.1862C33.3424 73.8042 33.5152 73.4453 33.7504 73.1097C33.9856 72.7741 34.2907 72.4949 34.6657 72.2722C35.0375 72.0486 35.4836 71.9138 36.0042 71.8677C36.5247 71.8217 37.1272 71.8978 37.8117 72.0959L38.2893 72.2342L36.6527 77.8884L35.6784 77.6064L36.9833 73.0983C36.5694 72.9785 36.1762 72.9544 35.8035 73.0259C35.4318 73.0943 35.1082 73.2525 34.8328 73.5006C34.5584 73.7455 34.3622 74.0717 34.2442 74.4792C34.1143 74.9282 34.1133 75.3488 34.2412 75.7412C34.3669 76.1296 34.5811 76.4624 34.8838 76.7398C35.1865 77.0172 35.54 77.2144 35.9444 77.3315L36.5938 77.5194C37.1478 77.6798 37.645 77.7202 38.0856 77.6407C38.5238 77.5571 38.893 77.3724 39.1931 77.0866C39.49 76.7999 39.7044 76.4289 39.8361 75.9736C39.9218 75.6775 39.9579 75.3981 39.9442 75.1354C39.9283 74.8685 39.8613 74.6231 39.7432 74.3992C39.622 74.1743 39.4479 73.9773 39.2208 73.808L39.8416 72.8077C40.1777 73.0292 40.4467 73.3158 40.6486 73.6675C40.8472 74.0183 40.9669 74.4153 41.0078 74.8584C41.0454 75.3006 40.9923 75.77 40.8486 76.2667Z" fill="white"/>
<path d="M41.7782 72.4217L34.7803 69.3651L35.2499 68.2899L38.2933 69.6192L38.6037 68.9085L36.6588 65.0643L37.2638 63.6793L39.4014 67.9765L44.2776 66.6994L43.6727 68.0844L39.7175 69.0911L39.2956 70.057L42.2479 71.3465L41.7782 72.4217Z" fill="white"/>
<path d="M45.6759 64.6021C45.4291 65.0184 45.1268 65.3497 44.7688 65.596C44.408 65.8406 44.0188 65.9739 43.6011 65.996C43.1806 66.0164 42.7565 65.8998 42.3289 65.6463C41.9525 65.4231 41.6914 65.1681 41.5455 64.8813C41.3968 64.5927 41.329 64.2847 41.342 63.9572C41.3551 63.6298 41.4176 63.2969 41.5295 62.9587C41.6403 62.6159 41.7661 62.2802 41.9071 61.9515C42.0924 61.5219 42.2457 61.1755 42.3671 60.9122C42.4874 60.6445 42.5485 60.4341 42.5506 60.2812C42.5543 60.1254 42.4749 59.9994 42.3124 59.903L42.2782 59.8827C41.8562 59.6326 41.4599 59.5536 41.0892 59.646C40.7202 59.7354 40.398 60.0125 40.1224 60.4772C39.8368 60.959 39.7183 61.3993 39.767 61.7981C39.8157 62.1969 39.9268 62.5229 40.1004 62.776L39.1903 63.5311C38.8926 63.1234 38.7171 62.7111 38.6637 62.2942C38.6092 61.8727 38.6384 61.4661 38.7511 61.0744C38.8627 60.6782 39.0166 60.3148 39.2127 59.9841C39.3377 59.7731 39.5071 59.546 39.7207 59.3027C39.9331 59.0549 40.1923 58.8483 40.4984 58.683C40.8062 58.5149 41.1662 58.4374 41.5783 58.4506C41.9905 58.4637 42.4575 58.625 42.9792 58.9343L47.307 61.5003L46.7086 62.5095L45.8191 61.9821L45.7887 62.0334C45.8906 62.1864 45.9756 62.3908 46.0434 62.6468C46.1113 62.9028 46.1236 63.1972 46.0804 63.53C46.0373 63.8627 45.9024 64.2201 45.6759 64.6021ZM44.8606 63.9107C45.0973 63.5115 45.2183 63.1286 45.2238 62.762C45.2309 62.3925 45.1519 62.0643 44.9867 61.7776C44.8232 61.488 44.6046 61.262 44.3309 61.0998L43.4072 60.5521C43.4331 60.6253 43.4244 60.7473 43.381 60.918C43.3364 61.0842 43.2739 61.2707 43.1937 61.4775C43.1124 61.6797 43.0307 61.8759 42.9487 62.0662C42.8656 62.252 42.799 62.4032 42.749 62.52C42.6277 62.8026 42.5379 63.0807 42.4797 63.3544C42.4203 63.6236 42.4247 63.8728 42.493 64.1021C42.5601 64.3269 42.722 64.5153 42.9785 64.6674C43.3292 64.8754 43.6713 64.9028 44.0047 64.7499C44.337 64.5924 44.6223 64.3127 44.8606 63.9107Z" fill="white"/>
<path d="M42.1107 57.3743L41.2456 56.705L45.0421 51.7976L45.9072 52.4668L44.374 54.4487L49.5489 58.452L48.831 59.38L43.6561 55.3767L42.1107 57.3743Z" fill="white"/>
<path d="M53.6566 53.9643C53.1329 54.4812 52.5671 54.8114 51.9591 54.955C51.3512 55.0939 50.7386 55.0559 50.1212 54.8409C49.504 54.6212 48.9206 54.2329 48.3712 53.6762C47.8218 53.1194 47.439 52.5286 47.2228 51.9038C47.0067 51.2742 46.9639 50.6599 47.0944 50.0608C47.225 49.457 47.5356 48.913 48.0263 48.4287C48.3094 48.1494 48.6355 47.9207 49.0047 47.7427C49.3738 47.5646 49.7764 47.47 50.2124 47.4589C50.6461 47.4453 51.1012 47.5456 51.5779 47.7597C52.0546 47.9738 52.5432 48.3345 53.0438 48.8417L53.393 49.1955L49.2032 53.3301L48.4908 52.6082L51.8313 49.3117C51.5287 49.0051 51.1973 48.7919 50.8371 48.6724C50.4794 48.5505 50.1197 48.5305 49.7583 48.6125C49.3992 48.6921 49.0686 48.8809 48.7666 49.1789C48.434 49.5072 48.2277 49.8738 48.1477 50.2787C48.0677 50.6789 48.092 51.074 48.2206 51.4639C48.3493 51.8538 48.5615 52.1986 48.8571 52.4982L49.3321 52.9794C49.7371 53.3899 50.1513 53.6681 50.5745 53.8138C50.9978 53.9549 51.4102 53.9741 51.8116 53.8712C52.2107 53.7661 52.579 53.5471 52.9163 53.2141C53.1357 52.9976 53.3036 52.7714 53.42 52.5355C53.5365 52.2948 53.5979 52.048 53.6042 51.7949C53.6083 51.5395 53.5526 51.2825 53.4371 51.0239L54.4674 50.4542C54.6525 50.8117 54.7473 51.1931 54.7516 51.5986C54.7536 52.0018 54.6642 52.4066 54.4834 52.8132C54.3002 53.2175 54.0247 53.6012 53.6566 53.9643Z" fill="white"/>
<path d="M55.7023 51.5019L55.0495 50.6243L55.2728 50.4581C55.4563 50.3216 55.5825 50.172 55.6514 50.0092C55.7184 49.8437 55.7208 49.6415 55.6588 49.4027C55.5974 49.1591 55.464 48.8577 55.2586 48.4982C55.0539 48.1342 54.7699 47.6886 54.4068 47.1615L52.5006 44.366L56.5853 41.3274L61.1432 47.4544L60.2018 48.1547L56.2967 42.9053L54.047 44.5788L55.5774 46.836C55.93 47.3544 56.2141 47.8308 56.4299 48.2652C56.6463 48.6949 56.7813 49.0902 56.8349 49.451C56.8912 49.8099 56.8547 50.1385 56.7256 50.437C56.5965 50.7354 56.3618 51.0112 56.0214 51.2645L55.7023 51.5019Z" fill="white"/>
<path d="M60.4813 42.0703L62.3905 41.0026C63.1716 40.5658 63.8797 40.4298 64.515 40.5948C65.1503 40.7597 65.6378 41.146 65.9776 41.7534C66.2008 42.1526 66.3113 42.5674 66.309 42.9978C66.3051 43.4254 66.1779 43.8363 65.9276 44.2308C65.6757 44.6223 65.2894 44.9637 64.7687 45.2549L61.9743 46.8177L58.2469 40.1528L59.2709 39.5801L62.4645 45.2904L64.2348 44.3003C64.6398 44.0738 64.9126 43.7807 65.0532 43.421C65.1939 43.0614 65.1704 42.7138 64.9827 42.3782C64.7853 42.0253 64.4942 41.8103 64.1092 41.7331C63.7243 41.656 63.3294 41.7307 62.9244 41.9572L61.0152 43.0249L60.4813 42.0703Z" fill="white"/>
<path d="M70.4746 37.7964L70.8785 38.8128L66.9605 40.3694L66.5566 39.353L70.4746 37.7964ZM65.6038 36.2008L68.4234 43.2976L67.333 43.7308L64.5134 36.634L65.6038 36.2008ZM70.0948 34.4165L72.9143 41.5133L71.8239 41.9465L69.0044 34.8498L70.0948 34.4165Z" fill="white"/>
<path d="M76.9347 40.4786C76.2651 40.6425 75.6385 40.6269 75.0551 40.4318C74.4749 40.236 73.973 39.8863 73.5495 39.3825C73.1291 38.878 72.8252 38.2427 72.6377 37.4764C72.4486 36.7038 72.4236 35.9951 72.5627 35.3502C72.705 34.7046 72.9882 34.161 73.4125 33.7194C73.8399 33.277 74.3885 32.9739 75.0581 32.81C75.7277 32.6461 76.3527 32.6621 76.9329 32.8579C77.5163 33.0529 78.0186 33.4043 78.4397 33.912C78.864 34.419 79.1707 35.0588 79.3598 35.8314C79.5473 36.5977 79.5695 37.302 79.4265 37.9443C79.2866 38.5859 79.003 39.1279 78.5755 39.5703C78.1513 40.012 77.6044 40.3147 76.9347 40.4786ZM76.6842 39.4548C77.1929 39.3303 77.5795 39.0975 77.844 38.7564C78.1086 38.4153 78.2678 38.0129 78.3215 37.5494C78.3753 37.0858 78.3415 36.6061 78.2202 36.1103C78.0988 35.6145 77.9069 35.1719 77.6444 34.7823C77.3818 34.3927 77.0541 34.1061 76.6611 33.9225C76.2681 33.7388 75.8173 33.7093 75.3086 33.8338C74.8 33.9582 74.4137 34.1926 74.15 34.537C73.8862 34.8813 73.7278 35.2869 73.6748 35.7537C73.6219 36.2205 73.6561 36.7018 73.7774 37.1976C73.8987 37.6933 74.0902 38.1344 74.352 38.5208C74.6137 38.9071 74.9407 39.1905 75.3329 39.3709C75.7251 39.5513 76.1755 39.5793 76.6842 39.4548Z" fill="white"/>
<path d="M83.9456 39.1479C83.2136 39.2226 82.5657 39.1254 82.0019 38.8564C81.441 38.5838 80.9874 38.1703 80.641 37.616C80.2976 37.058 80.0862 36.3899 80.0068 35.6117C79.9275 34.8336 79.9993 34.1333 80.2223 33.5108C80.4483 32.8848 80.7999 32.3791 81.277 31.994C81.7571 31.6052 82.34 31.3758 83.0259 31.3059C83.4215 31.2655 83.819 31.2916 84.2182 31.3842C84.6175 31.4767 84.9905 31.6552 85.3373 31.9197C85.6838 32.1809 85.9757 32.5442 86.2131 33.0098C86.4504 33.4753 86.6053 34.0625 86.6776 34.7714L86.728 35.266L80.8721 35.8633L80.7691 34.8543L85.4381 34.3781C85.3944 33.9495 85.2697 33.5757 85.0639 33.2569C84.8614 32.9377 84.5937 32.6968 84.2606 32.5343C83.9308 32.3713 83.5549 32.3114 83.1328 32.3544C82.6679 32.4018 82.2774 32.5583 81.9613 32.8237C81.6482 33.0855 81.4196 33.4087 81.2756 33.7932C81.1316 34.1777 81.0809 34.5793 81.1236 34.9981L81.1922 35.6707C81.2508 36.2444 81.3993 36.7207 81.6378 37.0995C81.8793 37.4747 82.1887 37.7479 82.566 37.9194C82.9429 38.0875 83.3672 38.1475 83.8387 38.0994C84.1453 38.0681 84.4179 37.997 84.6565 37.886C84.898 37.7715 85.1005 37.6175 85.264 37.4243C85.4272 37.2277 85.5448 36.9925 85.6169 36.7187L86.7768 36.9202C86.6971 37.3148 86.5319 37.6714 86.2813 37.9902C86.0303 38.3056 85.7069 38.5652 85.3112 38.7688C84.9152 38.9691 84.46 39.0955 83.9456 39.1479Z" fill="white"/>
<path d="M90.8772 38.4937L91.6195 30.8935L97.5967 31.4772L96.8545 39.0775L95.6867 38.9634L96.3227 32.4518L92.6809 32.0961L92.045 38.6078L90.8772 38.4937Z" fill="white"/>
<path d="M97.208 41.893L99.6654 31.6846L100.767 31.9499L100.484 33.1292L100.619 33.1618C100.734 33.0531 100.889 32.9167 101.086 32.7526C101.286 32.586 101.545 32.4575 101.864 32.3671C102.186 32.2743 102.589 32.286 103.072 32.4024C103.697 32.5529 104.211 32.8418 104.612 33.2692C105.014 33.6965 105.28 34.2292 105.409 34.8672C105.538 35.5051 105.509 36.214 105.321 36.9938C105.132 37.7801 104.834 38.4294 104.428 38.9418C104.022 39.451 103.545 39.8065 102.995 40.0083C102.446 40.2068 101.862 40.2316 101.244 40.0827C100.767 39.9679 100.404 39.797 100.155 39.5701C99.9072 39.3399 99.7303 39.1047 99.6245 38.8645C99.5195 38.621 99.4414 38.4215 99.3902 38.266L99.2935 38.2427L98.3487 42.1676L97.208 41.893ZM99.8932 35.6667C99.7582 36.2273 99.7213 36.7418 99.7825 37.2099C99.8444 37.6748 100.004 38.0661 100.262 38.3838C100.52 38.6983 100.878 38.9106 101.336 39.0207C101.813 39.1355 102.241 39.1057 102.62 38.9311C103.004 38.7541 103.328 38.4707 103.592 38.0809C103.86 37.6887 104.058 37.2283 104.185 36.6999C104.311 36.1779 104.344 35.688 104.283 35.2303C104.227 34.7702 104.067 34.3789 103.804 34.0564C103.545 33.7315 103.173 33.5109 102.69 33.3945C102.226 33.2828 101.808 33.3066 101.435 33.4658C101.064 33.6218 100.747 33.8898 100.485 34.2699C100.224 34.6468 100.027 35.1124 99.8932 35.6667Z" fill="white"/>
<path d="M106.541 39.5357L112.137 35.3999L113.394 35.898L110.581 42.9974L109.49 42.5652L111.666 37.0743L106.088 41.2174L104.813 40.7119L107.626 33.6125L108.717 34.0447L106.541 39.5357Z" fill="white"/>
<path d="M111.425 43.3061L115.115 36.6204L116.142 37.1873L114.538 40.0949L115.217 40.4697L119.224 38.8881L120.547 39.6184L116.071 41.35L116.892 46.3233L115.569 45.5931L114.932 41.5618L114.009 41.0525L112.452 43.8731L111.425 43.3061Z" fill="white"/>
<path d="M116.532 45.9332L117.184 45.0554L117.407 45.2215C117.591 45.358 117.771 45.4357 117.946 45.4549C118.124 45.4714 118.318 45.4155 118.529 45.2873C118.745 45.1585 118.995 44.944 119.28 44.6438C119.57 44.3429 119.915 43.9427 120.315 43.4432L122.444 40.813L126.53 43.8502L121.974 49.9788L121.032 49.2788L124.935 44.028L122.685 42.3552L120.964 44.4705C120.569 44.9575 120.195 45.3667 119.841 45.6984C119.491 46.0293 119.152 46.2724 118.822 46.4276C118.494 46.5847 118.169 46.6445 117.846 46.6067C117.523 46.569 117.191 46.4236 116.851 46.1705L116.532 45.9332Z" fill="white"/>
<path d="M128.354 49.896L127.564 50.6524L124.772 47.7364L125.562 46.98L128.354 49.896ZM128.663 45.3879L123.147 50.6687L122.335 49.8212L127.852 44.5404L128.663 45.3879ZM126.759 54.6716C126.282 54.1736 125.982 53.6232 125.859 53.0204C125.739 52.42 125.791 51.8105 126.015 51.1918C126.242 50.5756 126.64 49.9947 127.21 49.4492C127.785 48.8991 128.386 48.5231 129.014 48.3211C129.644 48.1215 130.257 48.095 130.851 48.2415C131.448 48.3905 131.985 48.714 132.462 49.212C132.938 49.7099 133.237 50.2591 133.358 50.8595C133.48 51.4623 133.427 52.073 133.198 52.6915C132.971 53.3125 132.57 53.898 131.996 54.4481C131.426 54.9936 130.827 55.365 130.199 55.5623C129.574 55.762 128.963 55.7874 128.366 55.6384C127.771 55.4918 127.236 55.1695 126.759 54.6716ZM127.52 53.9427C127.882 54.321 128.277 54.5394 128.705 54.5979C129.133 54.6565 129.561 54.5931 129.989 54.4079C130.417 54.2227 130.816 53.9536 131.184 53.6006C131.553 53.2476 131.841 52.8601 132.047 52.4379C132.253 52.0158 132.337 51.5886 132.3 51.1565C132.262 50.7243 132.062 50.3191 131.7 49.9408C131.338 49.5626 130.942 49.3453 130.512 49.289C130.082 49.2328 129.651 49.2984 129.221 49.4859C128.79 49.6735 128.39 49.9437 128.022 50.2967C127.653 50.6497 127.367 51.0361 127.163 51.4559C126.959 51.8758 126.877 52.3007 126.917 52.7305C126.957 53.1604 127.158 53.5644 127.52 53.9427Z" fill="white"/>
<path d="M139.041 57.6851L132.765 62.0351L132.096 61.0708L138.372 56.7208L139.041 57.6851ZM135.789 59.3822L134.89 60.0053C134.658 59.844 134.435 59.6775 134.223 59.5057C134.014 59.332 133.81 59.139 133.61 58.9265C133.413 58.7122 133.217 58.4634 133.02 58.1801C132.528 57.4691 132.324 56.7653 132.41 56.0687C132.498 55.3748 132.925 54.7616 133.694 54.2292L135.704 52.8358L136.372 53.8002L134.362 55.1935C134.041 55.4163 133.819 55.6607 133.697 55.9268C133.575 56.1929 133.536 56.4657 133.581 56.7453C133.625 57.0249 133.738 57.2955 133.919 57.557C134.203 57.9656 134.495 58.3093 134.797 58.5879C135.104 58.8674 135.434 59.1321 135.789 59.3822Z" fill="white"/>
<path d="M134.71 65.7279C134.378 65.0717 134.235 64.4322 134.283 63.8094C134.336 63.188 134.559 62.616 134.951 62.0934C135.349 61.5723 135.896 61.1348 136.593 60.7809C137.291 60.427 137.97 60.2421 138.631 60.2264C139.297 60.2121 139.895 60.3583 140.426 60.6649C140.961 60.9731 141.385 61.4345 141.697 62.0493C141.877 62.404 141.996 62.7842 142.053 63.19C142.11 63.5958 142.078 64.0081 141.956 64.4268C141.836 64.844 141.602 65.2471 141.253 65.636C140.904 66.025 140.412 66.3806 139.777 66.7031L139.333 66.928L136.67 61.6787L137.574 61.2198L139.698 65.4051C140.082 65.2101 140.386 64.9593 140.61 64.6526C140.835 64.3489 140.963 64.0124 140.995 63.6432C141.028 63.2769 140.949 62.9045 140.757 62.5262C140.546 62.1094 140.259 61.8013 139.898 61.6019C139.541 61.4039 139.157 61.3068 138.747 61.3107C138.336 61.3146 137.943 61.4118 137.568 61.6022L136.965 61.9082C136.45 62.1691 136.059 62.479 135.792 62.8378C135.529 63.198 135.385 63.585 135.361 63.9987C135.339 64.4109 135.436 64.8283 135.65 65.251C135.79 65.5259 135.954 65.7547 136.144 65.9374C136.337 66.1215 136.554 66.2551 136.793 66.3382C137.035 66.4198 137.297 66.4449 137.578 66.4136L137.807 67.5684C137.411 67.636 137.018 67.6101 136.631 67.4909C136.246 67.3701 135.888 67.1617 135.555 66.8658C135.226 66.5683 134.944 66.189 134.71 65.7279Z" fill="white"/>
<path d="M142.476 72.5364L141.441 72.8917L140.072 68.9044L141.106 68.5491L142.476 72.5364ZM144.3 67.7465L137.078 70.2272L136.697 69.1175L143.919 66.6368L144.3 67.7465ZM145.87 72.3168L138.648 74.7975L138.267 73.6878L145.489 71.2071L145.87 72.3168Z" fill="white"/>
<path d="M141.004 76.6398L147.505 79.1193L147.764 80.4466L140.269 81.9093L140.045 80.7578L145.842 79.6264L139.344 77.1664L139.081 75.8197L146.576 74.3569L146.801 75.5085L141.004 76.6398Z" fill="white"/>
<path d="M140.536 86.0212C140.496 85.2865 140.624 84.6439 140.919 84.0935C141.218 83.5462 141.653 83.1128 142.223 82.7932C142.797 82.4767 143.474 82.2973 144.255 82.255C145.036 82.2127 145.732 82.3178 146.343 82.5702C146.958 82.8257 147.446 83.2009 147.808 83.6958C148.174 84.1938 148.375 84.787 148.412 85.4754C148.434 85.8725 148.389 86.2683 148.278 86.6627C148.166 87.0571 147.97 87.4212 147.689 87.755C147.412 88.0887 147.035 88.363 146.559 88.578C146.083 88.7929 145.489 88.9197 144.777 88.9582L144.281 88.985L143.963 83.1073L144.975 83.0525L145.229 87.7388C145.659 87.7155 146.038 87.6087 146.367 87.4183C146.695 87.2313 146.948 86.9753 147.127 86.6503C147.305 86.3286 147.383 85.956 147.36 85.5323C147.335 85.0657 147.197 84.6682 146.947 84.3399C146.7 84.0146 146.388 83.771 146.011 83.6088C145.634 83.4467 145.235 83.377 144.815 83.3997L144.14 83.4363C143.564 83.4674 143.081 83.5931 142.691 83.8134C142.305 84.0368 142.017 84.3328 141.828 84.7015C141.642 85.07 141.562 85.4909 141.588 85.9642C141.605 86.272 141.663 86.5477 141.762 86.7912C141.865 87.0379 142.009 87.2475 142.195 87.4201C142.383 87.5924 142.612 87.7211 142.883 87.806L142.626 88.9551C142.236 88.8567 141.887 88.6748 141.581 88.4092C141.278 88.1435 141.034 87.8082 140.849 87.4033C140.668 86.9982 140.563 86.5375 140.536 86.0212Z" fill="white"/>
<path d="M150.006 102.214L149.559 103.616L140.456 104.348L140.42 104.462L147.423 110.324L146.976 111.726L137.275 108.636L137.625 107.537L144.995 109.885L145.026 109.79L138.621 104.41L138.959 103.349L147.295 102.666L147.325 102.571L139.955 100.223L140.305 99.1237L150.006 102.214Z" fill="white"/>
<path d="M136.898 109.221L143.86 112.358L143.378 113.428L136.416 110.291L136.898 109.221ZM144.775 113.425C144.869 113.216 145.021 113.068 145.232 112.981C145.44 112.897 145.644 112.9 145.844 112.99C146.043 113.08 146.181 113.231 146.256 113.443C146.33 113.658 146.32 113.87 146.226 114.078C146.132 114.287 145.981 114.433 145.772 114.517C145.562 114.604 145.357 114.603 145.158 114.513C144.958 114.423 144.821 114.271 144.747 114.056C144.672 113.844 144.682 113.633 144.775 113.425Z" fill="white"/>
<path d="M139.115 115.415L135.163 113.073L135.762 112.063L142.33 115.958L141.752 116.933L140.726 116.324L140.675 116.41C140.917 116.762 141.047 117.154 141.063 117.588C141.082 118.023 140.945 118.489 140.651 118.985C140.387 119.43 140.065 119.765 139.685 119.99C139.308 120.217 138.88 120.314 138.403 120.282C137.928 120.251 137.411 120.069 136.852 119.738L132.678 117.264L133.277 116.254L137.382 118.688C137.898 118.994 138.38 119.099 138.826 119.001C139.276 118.906 139.64 118.624 139.917 118.157C140.108 117.835 140.209 117.505 140.219 117.169C140.228 116.835 140.142 116.516 139.96 116.212C139.779 115.907 139.497 115.642 139.115 115.415Z" fill="white"/>
<path d="M136.208 125.438L135.412 124.842L137.785 121.675L138.581 122.271L136.208 125.438ZM139.353 124.291L138.65 125.23L132.825 120.866C132.56 120.667 132.332 120.556 132.142 120.534C131.952 120.516 131.789 120.551 131.653 120.64C131.517 120.732 131.397 120.848 131.294 120.986C131.216 121.089 131.158 121.178 131.119 121.252C131.083 121.329 131.053 121.39 131.032 121.435L130.045 120.994C130.069 120.913 130.112 120.806 130.173 120.674C130.232 120.54 130.327 120.386 130.458 120.211C130.657 119.945 130.909 119.728 131.214 119.559C131.517 119.392 131.847 119.313 132.206 119.321C132.563 119.331 132.919 119.47 133.274 119.736L139.353 124.291Z" fill="white"/>
<path d="M129.294 122.097L136.636 129.152L132.406 133.554L131.617 132.796L134.993 129.283L132.512 126.9L129.453 130.083L128.664 129.325L131.723 126.142L128.439 122.986L129.294 122.097Z" fill="white"/>
<path d="M122.757 128.299C123.134 127.995 123.533 127.791 123.955 127.686C124.379 127.584 124.79 127.596 125.189 127.722C125.59 127.85 125.946 128.108 126.257 128.496C126.531 128.837 126.686 129.167 126.722 129.487C126.76 129.809 126.716 130.122 126.589 130.424C126.461 130.726 126.286 131.015 126.063 131.293C125.839 131.575 125.603 131.845 125.355 132.104C125.031 132.441 124.766 132.711 124.56 132.915C124.353 133.124 124.222 133.299 124.167 133.442C124.108 133.586 124.139 133.732 124.257 133.879L124.282 133.91C124.589 134.293 124.933 134.506 125.312 134.549C125.689 134.595 126.088 134.449 126.509 134.11C126.946 133.759 127.211 133.389 127.306 132.998C127.4 132.608 127.41 132.264 127.337 131.966L128.454 131.578C128.589 132.064 128.609 132.512 128.513 132.921C128.416 133.335 128.246 133.705 128.003 134.032C127.759 134.364 127.488 134.651 127.188 134.891C126.997 135.045 126.758 135.198 126.473 135.351C126.187 135.509 125.872 135.611 125.527 135.658C125.18 135.708 124.816 135.654 124.434 135.497C124.053 135.34 123.672 135.025 123.293 134.552L120.141 130.631L121.055 129.896L121.703 130.702L121.75 130.664C121.708 130.485 121.7 130.264 121.726 130.001C121.753 129.737 121.844 129.457 122.002 129.161C122.159 128.864 122.411 128.577 122.757 128.299ZM123.277 129.232C122.916 129.523 122.668 129.839 122.534 130.18C122.398 130.524 122.357 130.859 122.411 131.185C122.462 131.514 122.588 131.802 122.787 132.05L123.46 132.887C123.461 132.81 123.512 132.699 123.613 132.554C123.713 132.414 123.837 132.261 123.984 132.096C124.131 131.935 124.277 131.78 124.42 131.63C124.563 131.486 124.679 131.367 124.767 131.276C124.979 131.054 125.161 130.825 125.312 130.589C125.462 130.358 125.545 130.123 125.562 129.884C125.578 129.65 125.492 129.417 125.305 129.184C125.05 128.866 124.739 128.721 124.374 128.747C124.007 128.778 123.642 128.939 123.277 129.232Z" fill="white"/>
<path d="M119.642 131.016L123.78 137.434L122.827 138.048L122.202 137.079L122.135 137.122C122.223 137.515 122.177 137.909 121.998 138.304C121.819 138.7 121.538 139.021 121.153 139.269C121.081 139.316 120.99 139.373 120.879 139.44C120.769 139.507 120.684 139.556 120.625 139.586L119.978 138.584C120.017 138.57 120.101 138.534 120.232 138.473C120.362 138.417 120.492 138.347 120.623 138.263C120.935 138.061 121.171 137.816 121.332 137.527C121.492 137.243 121.569 136.941 121.564 136.621C121.557 136.305 121.461 136.003 121.274 135.713L118.655 131.652L119.642 131.016Z" fill="white"/>
<path d="M116.318 133.605L119.395 140.594L118.357 141.051L117.876 139.959L117.785 139.999C117.804 140.436 117.696 140.829 117.463 141.179C117.23 141.531 116.887 141.807 116.431 142.007C115.97 142.21 115.541 142.274 115.142 142.2C114.742 142.13 114.373 141.946 114.036 141.649L113.963 141.681C113.943 142.121 113.801 142.526 113.536 142.896C113.273 143.269 112.891 143.566 112.391 143.786C111.766 144.061 111.169 144.09 110.599 143.874C110.031 143.66 109.566 143.143 109.204 142.321L107.145 137.643L108.219 137.17L110.278 141.848C110.505 142.364 110.808 142.67 111.188 142.767C111.567 142.865 111.948 142.829 112.33 142.661C112.822 142.445 113.137 142.128 113.276 141.712C113.417 141.299 113.387 140.867 113.188 140.415L111.185 135.864L112.277 135.384L114.385 140.171C114.559 140.568 114.829 140.831 115.194 140.96C115.56 141.093 115.946 141.069 116.353 140.89C116.632 140.768 116.86 140.578 117.037 140.323C117.211 140.069 117.315 139.777 117.347 139.448C117.378 139.123 117.318 138.789 117.167 138.446L115.244 134.078L116.318 133.605Z" fill="white"/>
<path d="M96.3447 150.369L95.6212 143.086L96.7673 142.957L97.6884 150.217L96.3447 150.369ZM95.8636 140.097C96.1073 140.069 96.3263 140.133 96.5206 140.288C96.7149 140.442 96.8258 140.642 96.8533 140.885C96.8809 141.129 96.8173 141.348 96.6624 141.542C96.5076 141.737 96.3084 141.848 96.0647 141.875C95.8209 141.903 95.6019 141.839 95.4077 141.684C95.2134 141.53 95.1025 141.33 95.0749 141.087C95.0566 140.925 95.0811 140.772 95.1481 140.628C95.2119 140.484 95.3066 140.363 95.4324 140.266C95.5552 140.172 95.6989 140.115 95.8636 140.097Z" fill="white"/>
</svg>
