<svg width="176" height="227" viewBox="0 0 176 227" fill="none" xmlns="http://www.w3.org/2000/svg">
<g opacity="0.6" clip-path="url(#clip0_2003_2)">
<path d="M126.18 218.106C126.707 217.883 127.172 217.535 127.532 217.09C127.891 216.645 128.136 216.119 128.244 215.557L128.538 214.021C128.6 213.705 128.738 213.409 128.941 213.159C129.144 212.91 129.406 212.714 129.703 212.59C130.181 212.388 130.721 212.385 131.202 212.581L133.429 213.489C133.771 213.629 134.137 213.699 134.507 213.697C134.876 213.695 135.242 213.62 135.582 213.477C136.964 212.896 138.058 211.789 138.624 210.402C139.189 209.014 139.181 207.458 138.599 206.077C138.239 205.219 137.672 204.464 136.949 203.878C136.226 203.292 135.37 202.894 134.456 202.718L130.671 201.992C129.343 201.736 128.097 201.162 127.039 200.319L126.454 199.853C125.281 198.917 123.878 198.315 122.392 198.11C120.905 197.904 119.391 198.103 118.008 198.685C116.625 199.267 115.425 200.21 114.533 201.417C113.641 202.623 113.09 204.047 112.938 205.54L112.863 206.284C112.727 207.63 112.266 208.922 111.52 210.05L109.393 213.264C108.879 214.04 108.565 214.931 108.479 215.857C108.392 216.784 108.536 217.717 108.897 218.575C109.478 219.956 110.585 221.05 111.972 221.616C113.36 222.182 114.916 222.173 116.298 221.592C116.638 221.449 116.947 221.24 117.207 220.977C117.467 220.714 117.673 220.403 117.812 220.06L118.72 217.833C118.916 217.352 119.295 216.969 119.774 216.767C120.071 216.642 120.394 216.593 120.715 216.623C121.036 216.653 121.345 216.761 121.614 216.939L122.918 217.802C123.395 218.117 123.942 218.31 124.511 218.362C125.08 218.415 125.654 218.327 126.18 218.106Z" fill="white"/>
<path d="M116.523 190.362L116.613 190.576C117.08 191.686 117.723 192.713 118.517 193.618C118.92 194.078 119.458 194.4 120.055 194.537C120.652 194.674 121.276 194.621 121.84 194.383C122.296 194.191 122.696 193.886 123.001 193.498C123.307 193.109 123.509 192.649 123.588 192.161L123.638 191.849C124.047 189.324 123.737 186.734 122.745 184.377C122.323 183.374 121.636 182.505 120.759 181.862C120.279 181.511 119.716 181.289 119.125 181.22C118.534 181.15 117.935 181.235 117.387 181.466C116.74 181.738 116.192 182.2 115.816 182.792C115.44 183.384 115.253 184.076 115.281 184.777C115.357 186.698 115.778 188.59 116.523 190.362Z" fill="white"/>
<path d="M113.096 191.804L113.186 192.019C113.653 193.128 113.938 194.306 114.03 195.506C114.077 196.116 113.931 196.726 113.612 197.248C113.293 197.771 112.818 198.18 112.253 198.417C111.798 198.609 111.3 198.681 110.809 198.628C110.317 198.575 109.847 198.398 109.443 198.113L109.185 197.931C107.094 196.457 105.459 194.426 104.467 192.068C104.045 191.065 103.903 189.966 104.058 188.89C104.142 188.301 104.377 187.743 104.741 187.272C105.104 186.801 105.583 186.432 106.132 186.202C106.778 185.93 107.491 185.863 108.177 186.008C108.863 186.152 109.488 186.503 109.969 187.012C111.29 188.409 112.349 190.032 113.096 191.804Z" fill="white"/>
<path d="M109.035 202.926L109.126 203.14C109.593 204.249 109.878 205.427 109.97 206.627C110.017 207.238 109.87 207.847 109.551 208.37C109.232 208.892 108.757 209.301 108.193 209.538C107.737 209.73 107.24 209.803 106.748 209.75C106.256 209.696 105.786 209.519 105.382 209.234L105.124 209.052C103.033 207.579 101.398 205.547 100.406 203.189C99.9841 202.186 99.8428 201.088 99.9971 200.011C100.081 199.422 100.317 198.865 100.68 198.394C101.043 197.923 101.523 197.554 102.071 197.323C102.717 197.052 103.431 196.984 104.116 197.129C104.802 197.274 105.427 197.624 105.908 198.133C107.23 199.531 108.289 201.154 109.035 202.926Z" fill="white"/>
<path d="M127.314 195.234L127.404 195.449C127.871 196.558 128.513 197.585 129.307 198.49C129.711 198.951 130.249 199.272 130.846 199.409C131.442 199.547 132.067 199.493 132.631 199.255C133.087 199.063 133.486 198.759 133.792 198.37C134.098 197.981 134.299 197.521 134.378 197.033L134.429 196.721C134.837 194.196 134.528 191.607 133.536 189.249C133.114 188.246 132.427 187.377 131.549 186.734C131.069 186.383 130.506 186.161 129.915 186.092C129.324 186.022 128.726 186.107 128.177 186.338C127.531 186.61 126.983 187.073 126.607 187.664C126.23 188.256 126.043 188.949 126.071 189.649C126.147 191.57 126.568 193.462 127.314 195.234Z" fill="white"/>
</g>
<g opacity="0.6" clip-path="url(#clip1_2003_2)">
<path d="M157.18 170.106C157.707 169.883 158.172 169.535 158.532 169.09C158.891 168.645 159.136 168.119 159.244 167.557L159.538 166.021C159.6 165.705 159.738 165.409 159.941 165.159C160.144 164.91 160.406 164.714 160.703 164.59C161.181 164.388 161.721 164.385 162.202 164.581L164.429 165.489C164.771 165.629 165.137 165.699 165.507 165.697C165.876 165.695 166.242 165.62 166.582 165.477C167.964 164.896 169.058 163.789 169.624 162.402C170.189 161.014 170.181 159.458 169.599 158.077C169.239 157.219 168.672 156.464 167.949 155.878C167.226 155.292 166.37 154.894 165.456 154.718L161.671 153.992C160.343 153.736 159.097 153.162 158.039 152.319L157.454 151.853C156.281 150.917 154.878 150.315 153.392 150.11C151.905 149.904 150.391 150.103 149.008 150.685C147.625 151.267 146.425 152.21 145.533 153.417C144.641 154.623 144.09 156.047 143.938 157.54L143.863 158.284C143.727 159.63 143.266 160.922 142.52 162.05L140.393 165.264C139.879 166.04 139.565 166.931 139.479 167.857C139.392 168.784 139.536 169.717 139.897 170.575C140.478 171.956 141.585 173.05 142.972 173.616C144.36 174.182 145.916 174.173 147.298 173.592C147.638 173.449 147.947 173.24 148.207 172.977C148.467 172.714 148.673 172.403 148.812 172.06L149.72 169.833C149.916 169.352 150.295 168.969 150.774 168.767C151.071 168.642 151.394 168.593 151.715 168.623C152.036 168.653 152.345 168.761 152.614 168.939L153.918 169.802C154.395 170.117 154.942 170.31 155.511 170.362C156.08 170.415 156.654 170.327 157.18 170.106Z" fill="white"/>
<path d="M147.523 142.362L147.613 142.576C148.08 143.686 148.723 144.713 149.517 145.618C149.92 146.078 150.458 146.4 151.055 146.537C151.652 146.674 152.276 146.621 152.84 146.383C153.296 146.191 153.696 145.886 154.001 145.498C154.307 145.109 154.509 144.649 154.588 144.161L154.638 143.849C155.047 141.324 154.737 138.734 153.745 136.377C153.323 135.374 152.636 134.505 151.759 133.862C151.279 133.511 150.716 133.289 150.125 133.22C149.534 133.15 148.935 133.235 148.387 133.466C147.74 133.738 147.192 134.2 146.816 134.792C146.44 135.384 146.253 136.076 146.281 136.777C146.357 138.698 146.778 140.59 147.523 142.362Z" fill="white"/>
<path d="M144.096 143.804L144.186 144.019C144.653 145.128 144.938 146.306 145.03 147.506C145.077 148.116 144.931 148.726 144.612 149.248C144.293 149.771 143.818 150.18 143.253 150.417C142.798 150.609 142.3 150.681 141.809 150.628C141.317 150.575 140.847 150.398 140.443 150.113L140.185 149.931C138.094 148.457 136.459 146.426 135.467 144.068C135.045 143.065 134.903 141.966 135.058 140.89C135.142 140.301 135.377 139.743 135.741 139.272C136.104 138.801 136.583 138.432 137.132 138.202C137.778 137.93 138.491 137.863 139.177 138.008C139.863 138.152 140.488 138.503 140.969 139.012C142.29 140.409 143.349 142.032 144.096 143.804Z" fill="white"/>
<path d="M140.035 154.926L140.126 155.14C140.593 156.249 140.878 157.427 140.97 158.627C141.017 159.238 140.87 159.847 140.551 160.37C140.232 160.892 139.757 161.301 139.193 161.538C138.737 161.73 138.24 161.803 137.748 161.75C137.256 161.696 136.786 161.519 136.382 161.234L136.124 161.052C134.033 159.579 132.398 157.547 131.406 155.189C130.984 154.186 130.843 153.088 130.997 152.011C131.081 151.422 131.317 150.865 131.68 150.394C132.043 149.923 132.523 149.554 133.071 149.323C133.717 149.052 134.431 148.984 135.116 149.129C135.802 149.274 136.427 149.624 136.908 150.133C138.23 151.531 139.289 153.154 140.035 154.926Z" fill="white"/>
<path d="M158.314 147.234L158.404 147.449C158.871 148.558 159.513 149.585 160.307 150.49C160.711 150.951 161.249 151.272 161.846 151.409C162.442 151.547 163.067 151.493 163.631 151.255C164.087 151.063 164.486 150.759 164.792 150.37C165.098 149.981 165.299 149.521 165.378 149.033L165.429 148.721C165.837 146.196 165.528 143.607 164.536 141.249C164.114 140.246 163.427 139.377 162.549 138.734C162.069 138.383 161.506 138.161 160.915 138.092C160.324 138.022 159.726 138.107 159.177 138.338C158.531 138.61 157.983 139.073 157.607 139.664C157.23 140.256 157.043 140.949 157.071 141.649C157.147 143.57 157.568 145.462 158.314 147.234Z" fill="white"/>
</g>
<g opacity="0.6" clip-path="url(#clip2_2003_2)">
<path d="M79.1803 134.106C79.7075 133.883 80.1716 133.535 80.5315 133.09C80.8915 132.645 81.136 132.119 81.2435 131.557L81.5385 130.021C81.6 129.705 81.7384 129.409 81.9414 129.159C82.1444 128.91 82.4058 128.714 82.7025 128.59C83.1814 128.388 83.7206 128.385 84.2017 128.581L86.4286 129.489C86.7708 129.629 87.1371 129.699 87.5067 129.697C87.8763 129.695 88.2418 129.62 88.5824 129.477C89.9638 128.896 91.0578 127.789 91.6236 126.402C92.1894 125.014 92.1807 123.458 91.5994 122.077C91.2386 121.219 90.6716 120.464 89.9488 119.878C89.226 119.292 88.3697 118.894 87.456 118.718L83.6708 117.992C82.3428 117.736 81.0966 117.162 80.0391 116.319L79.4542 115.853C78.2811 114.917 76.8777 114.315 75.3916 114.11C73.9054 113.904 72.3913 114.103 71.0084 114.685C69.6255 115.267 68.4249 116.21 67.5327 117.417C66.6406 118.623 66.0899 120.047 65.9385 121.54L65.8631 122.284C65.7265 123.63 65.2655 124.922 64.5196 126.05L62.3929 129.264C61.8794 130.04 61.5655 130.931 61.479 131.857C61.3925 132.784 61.5361 133.717 61.897 134.575C62.4783 135.956 63.5846 137.05 64.9724 137.616C66.3603 138.182 67.9161 138.173 69.2975 137.592C69.6382 137.449 69.9473 137.24 70.2072 136.977C70.467 136.714 70.6725 136.403 70.812 136.06L71.7198 133.833C71.9159 133.352 72.2951 132.969 72.7739 132.767C73.071 132.642 73.3944 132.593 73.7154 132.623C74.0363 132.653 74.3449 132.761 74.6138 132.939L75.9182 133.802C76.3951 134.117 76.9422 134.31 77.5112 134.362C78.0803 134.415 78.6535 134.327 79.1803 134.106Z" fill="white"/>
<path d="M69.5234 106.362L69.6135 106.576C70.0803 107.686 70.7229 108.713 71.5166 109.618C71.9203 110.078 72.4585 110.4 73.055 110.537C73.6516 110.674 74.2762 110.62 74.8405 110.383C75.2963 110.191 75.6958 109.886 76.0015 109.498C76.3072 109.109 76.509 108.649 76.5879 108.161L76.6383 107.849C77.0468 105.324 76.7372 102.734 75.745 100.377C75.323 99.3739 74.6364 98.5048 73.7585 97.8622C73.2786 97.5105 72.7157 97.2892 72.1248 97.2197C71.5339 97.1502 70.9351 97.235 70.3867 97.4657C69.7403 97.7377 69.1923 98.2004 68.816 98.7922C68.4396 99.3839 68.2528 100.076 68.2805 100.777C68.3567 102.698 68.7777 104.59 69.5234 106.362Z" fill="white"/>
<path d="M66.0962 107.804L66.1863 108.019C66.6532 109.128 66.9382 110.306 67.0304 111.506C67.0772 112.116 66.9308 112.726 66.6119 113.248C66.293 113.771 65.8177 114.18 65.2535 114.417C64.7976 114.609 64.3004 114.681 63.8087 114.628C63.317 114.575 62.847 114.397 62.4427 114.113L62.1846 113.931C60.0936 112.457 58.4587 110.426 57.4666 108.068C57.0448 107.065 56.9035 105.966 57.0578 104.89C57.1419 104.301 57.3772 103.743 57.7407 103.272C58.1041 102.801 58.5834 102.432 59.1318 102.202C59.7779 101.93 60.4913 101.863 61.1769 102.008C61.8625 102.152 62.4877 102.503 62.9689 103.012C64.2902 104.409 65.3495 106.032 66.0962 107.804Z" fill="white"/>
<path d="M62.0355 118.926L62.1256 119.14C62.5925 120.249 62.8775 121.427 62.9697 122.627C63.0166 123.238 62.8701 123.847 62.5512 124.37C62.2323 124.892 61.757 125.301 61.1928 125.538C60.7369 125.73 60.2397 125.803 59.748 125.75C59.2564 125.696 58.7863 125.519 58.382 125.234L58.124 125.052C56.0329 123.579 54.398 121.547 53.406 119.189C52.9841 118.186 52.8428 117.088 52.9971 116.011C53.0813 115.422 53.3165 114.865 53.68 114.394C54.0434 113.923 54.5227 113.554 55.0711 113.323C55.7172 113.052 56.4307 112.984 57.1163 113.129C57.8019 113.274 58.427 113.624 58.9083 114.133C60.2295 115.531 61.2888 117.154 62.0355 118.926Z" fill="white"/>
<path d="M80.3139 111.234L80.404 111.449C80.8709 112.558 81.5135 113.585 82.3071 114.49C82.7108 114.951 83.249 115.272 83.8456 115.409C84.4421 115.547 85.0668 115.493 85.631 115.255C86.0868 115.063 86.4863 114.759 86.792 114.37C87.0977 113.981 87.2995 113.521 87.3784 113.033L87.4288 112.721C87.8373 110.196 87.5278 107.607 86.5355 105.249C86.1135 104.246 85.4269 103.377 84.549 102.734C84.0691 102.383 83.5063 102.161 82.9154 102.092C82.3244 102.022 81.7256 102.107 81.1772 102.338C80.5308 102.61 79.9829 103.073 79.6065 103.664C79.2302 104.256 79.0434 104.949 79.071 105.649C79.1472 107.57 79.5682 109.462 80.3139 111.234Z" fill="white"/>
</g>
<g opacity="0.6" clip-path="url(#clip3_2003_2)">
<path d="M106.18 82.1056C106.707 81.8834 107.172 81.5345 107.532 81.0898C107.891 80.6452 108.136 80.1185 108.244 79.5566L108.538 78.0206C108.6 77.7048 108.738 77.409 108.941 77.1594C109.144 76.9098 109.406 76.7141 109.703 76.5895C110.181 76.3881 110.721 76.3851 111.202 76.5813L113.429 77.4891C113.771 77.6287 114.137 77.6995 114.507 77.6974C114.876 77.6953 115.242 77.6205 115.582 77.4771C116.964 76.8958 118.058 75.7895 118.624 74.4016C119.189 73.0138 119.181 71.458 118.599 70.0765C118.239 69.2189 117.672 68.4636 116.949 67.8778C116.226 67.292 115.37 66.8937 114.456 66.7183L110.671 65.9915C109.343 65.7361 108.097 65.1623 107.039 64.3193L106.454 63.8528C105.281 62.9174 103.878 62.3154 102.392 62.1099C100.905 61.9043 99.3913 62.103 98.0084 62.6848C96.6255 63.2668 95.4249 64.2104 94.5327 65.4167C93.6406 66.623 93.0899 68.0473 92.9385 69.54L92.8631 70.2844C92.7265 71.6298 92.2655 72.922 91.5196 74.05L89.3929 77.2645C88.8794 78.0404 88.5655 78.9311 88.479 79.8575C88.3925 80.7838 88.5361 81.7173 88.897 82.5748C89.4783 83.9563 90.5846 85.0502 91.9724 85.616C93.3603 86.1818 94.9161 86.1731 96.2975 85.5918C96.6382 85.4485 96.9473 85.2395 97.2072 84.9768C97.467 84.714 97.6725 84.4026 97.812 84.0603L98.7198 81.8334C98.9159 81.3524 99.2951 80.9689 99.7739 80.7673C100.071 80.6423 100.394 80.5926 100.715 80.6226C101.036 80.6525 101.345 80.7613 101.614 80.9391L102.918 81.8022C103.395 82.1171 103.942 82.3096 104.511 82.3625C105.08 82.4154 105.654 82.3272 106.18 82.1056Z" fill="white"/>
<path d="M96.5234 54.3623L96.6135 54.5765C97.0803 55.686 97.7229 56.713 98.5166 57.6181C98.9203 58.0783 99.4585 58.3998 100.055 58.5371C100.652 58.6744 101.276 58.6205 101.84 58.383C102.296 58.1911 102.696 57.8865 103.001 57.4977C103.307 57.1089 103.509 56.6487 103.588 56.1605L103.638 55.8489C104.047 53.3236 103.737 50.7344 102.745 48.3765C102.323 47.3739 101.636 46.5048 100.759 45.8622C100.279 45.5105 99.7157 45.2892 99.1248 45.2197C98.5339 45.1502 97.9351 45.235 97.3867 45.4657C96.7403 45.7377 96.1923 46.2004 95.816 46.7922C95.4396 47.3839 95.2528 48.0763 95.2805 48.7771C95.3567 50.6982 95.7777 52.5901 96.5234 54.3623Z" fill="white"/>
<path d="M93.0962 55.8044L93.1863 56.0186C93.6532 57.1281 93.9382 58.3056 94.0304 59.5058C94.0772 60.1161 93.9308 60.7258 93.6119 61.2483C93.293 61.7708 92.8177 62.1797 92.2534 62.4171C91.7976 62.6088 91.3004 62.6815 90.8087 62.6282C90.317 62.5749 89.847 62.3975 89.4427 62.1126L89.1846 61.9307C87.0936 60.4572 85.4587 58.4257 84.4666 56.0678C84.0448 55.065 83.9035 53.9665 84.0578 52.8896C84.1419 52.3006 84.3772 51.7434 84.7407 51.2724C85.1041 50.8013 85.5834 50.4324 86.1318 50.2016C86.7779 49.9304 87.4913 49.8627 88.1769 50.0075C88.8625 50.1523 89.4877 50.5028 89.9689 51.0121C91.2902 52.4091 92.3495 54.0324 93.0962 55.8044Z" fill="white"/>
<path d="M89.0355 66.9257L89.1256 67.1399C89.5925 68.2494 89.8775 69.4269 89.9697 70.6271C90.0166 71.2375 89.8701 71.8471 89.5512 72.3696C89.2323 72.8922 88.757 73.3011 88.1928 73.5384C87.7369 73.7302 87.2397 73.8028 86.748 73.7496C86.2564 73.6963 85.7863 73.5189 85.382 73.2339L85.124 73.0521C83.0329 71.5786 81.398 69.547 80.406 67.1892C79.9841 66.1864 79.8428 65.0878 79.9971 64.011C80.0813 63.422 80.3165 62.8648 80.68 62.3937C81.0434 61.9227 81.5227 61.5538 82.0711 61.323C82.7172 61.0518 83.4307 60.9841 84.1163 61.1289C84.8019 61.2737 85.427 61.6241 85.9083 62.1334C87.2295 63.5305 88.2888 65.1538 89.0355 66.9257Z" fill="white"/>
<path d="M107.314 59.2345L107.404 59.4487C107.871 60.5582 108.513 61.5852 109.307 62.4903C109.711 62.9505 110.249 63.272 110.846 63.4093C111.442 63.5466 112.067 63.4927 112.631 63.2552C113.087 63.0633 113.486 62.7587 113.792 62.3699C114.098 61.9811 114.299 61.521 114.378 61.0327L114.429 60.7211C114.837 58.1958 114.528 55.6066 113.536 53.2488C113.114 52.2461 112.427 51.377 111.549 50.7344C111.069 50.3828 110.506 50.1614 109.915 50.0919C109.324 50.0225 108.726 50.1072 108.177 50.3379C107.531 50.6099 106.983 51.0727 106.607 51.6644C106.23 52.2561 106.043 52.9486 106.071 53.6493C106.147 55.5705 106.568 57.4623 107.314 59.2345Z" fill="white"/>
</g>
<g opacity="0.6" clip-path="url(#clip4_2003_2)">
<path d="M33.1803 43.1056C33.7075 42.8834 34.1716 42.5345 34.5315 42.0898C34.8915 41.6452 35.136 41.1185 35.2435 40.5566L35.5385 39.0206C35.6 38.7048 35.7384 38.409 35.9414 38.1594C36.1444 37.9098 36.4058 37.7141 36.7025 37.5895C37.1814 37.3881 37.7206 37.3851 38.2017 37.5813L40.4286 38.4891C40.7708 38.6287 41.1371 38.6995 41.5067 38.6974C41.8763 38.6953 42.2418 38.6205 42.5824 38.4771C43.9638 37.8958 45.0578 36.7895 45.6236 35.4016C46.1894 34.0138 46.1807 32.458 45.5994 31.0765C45.2386 30.2189 44.6716 29.4636 43.9488 28.8778C43.226 28.292 42.3697 27.8937 41.456 27.7183L37.6708 26.9915C36.3428 26.7361 35.0966 26.1623 34.0391 25.3193L33.4542 24.8528C32.2811 23.9174 30.8777 23.3154 29.3916 23.1099C27.9054 22.9043 26.3913 23.103 25.0084 23.6848C23.6255 24.2668 22.4249 25.2104 21.5327 26.4167C20.6406 27.623 20.0899 29.0473 19.9385 30.54L19.8631 31.2844C19.7265 32.6298 19.2655 33.922 18.5196 35.05L16.3929 38.2645C15.8794 39.0404 15.5655 39.9311 15.479 40.8575C15.3925 41.7838 15.5361 42.7173 15.897 43.5748C16.4783 44.9563 17.5846 46.0502 18.9724 46.616C20.3603 47.1818 21.9161 47.1731 23.2976 46.5918C23.6382 46.4485 23.9473 46.2395 24.2072 45.9768C24.467 45.714 24.6726 45.4026 24.812 45.0603L25.7199 42.8334C25.9159 42.3524 26.2951 41.9689 26.7739 41.7673C27.071 41.6423 27.3944 41.5926 27.7154 41.6226C28.0363 41.6525 28.3449 41.7613 28.6138 41.9391L29.9182 42.8022C30.3951 43.1171 30.9422 43.3096 31.5112 43.3625C32.0803 43.4154 32.6536 43.3272 33.1803 43.1056Z" fill="white"/>
<path d="M23.5234 15.3623L23.6135 15.5765C24.0803 16.686 24.7229 17.713 25.5166 18.6181C25.9203 19.0783 26.4585 19.3998 27.055 19.5371C27.6516 19.6744 28.2762 19.6205 28.8405 19.383C29.2963 19.1911 29.6958 18.8865 30.0015 18.4977C30.3072 18.1089 30.509 17.6487 30.5879 17.1605L30.6383 16.8489C31.0468 14.3236 30.7372 11.7344 29.745 9.37655C29.323 8.37387 28.6364 7.50476 27.7585 6.86219C27.2786 6.51055 26.7157 6.28921 26.1248 6.21973C25.5339 6.15024 24.9351 6.23499 24.3867 6.4657C23.7403 6.73769 23.1923 7.20045 22.816 7.79216C22.4396 8.38387 22.2528 9.07634 22.2805 9.77705C22.3567 11.6982 22.7777 13.5901 23.5234 15.3623Z" fill="white"/>
<path d="M20.0962 16.8044L20.1863 17.0186C20.6532 18.1281 20.9382 19.3056 21.0304 20.5058C21.0772 21.1161 20.9308 21.7258 20.6119 22.2483C20.293 22.7708 19.8177 23.1797 19.2534 23.4171C18.7976 23.6088 18.3004 23.6815 17.8087 23.6282C17.317 23.5749 16.847 23.3975 16.4427 23.1126L16.1846 22.9307C14.0936 21.4572 12.4587 19.4257 11.4666 17.0678C11.0448 16.065 10.9035 14.9665 11.0578 13.8896C11.1419 13.3006 11.3772 12.7434 11.7407 12.2724C12.1041 11.8013 12.5834 11.4324 13.1318 11.2016C13.7779 10.9304 14.4913 10.8627 15.1769 11.0075C15.8625 11.1523 16.4877 11.5028 16.9689 12.0121C18.2902 13.4091 19.3495 15.0324 20.0962 16.8044Z" fill="white"/>
<path d="M16.0355 27.9257L16.1256 28.1399C16.5925 29.2494 16.8775 30.4269 16.9697 31.6271C17.0166 32.2375 16.8701 32.8471 16.5512 33.3696C16.2323 33.8922 15.757 34.3011 15.1928 34.5384C14.7369 34.7302 14.2397 34.8028 13.748 34.7496C13.2563 34.6963 12.7863 34.5189 12.382 34.2339L12.124 34.0521C10.0329 32.5786 8.39805 30.547 7.40597 28.1892C6.98415 27.1864 6.84283 26.0878 6.99713 25.011C7.08127 24.422 7.31653 23.8648 7.67998 23.3937C8.04344 22.9227 8.5227 22.5538 9.07109 22.323C9.71721 22.0518 10.4307 21.9841 11.1163 22.1289C11.8019 22.2737 12.427 22.6241 12.9083 23.1334C14.2295 24.5305 15.2888 26.1538 16.0355 27.9257Z" fill="white"/>
<path d="M34.3139 20.2345L34.404 20.4487C34.8709 21.5582 35.5135 22.5852 36.3071 23.4903C36.7108 23.9505 37.249 24.272 37.8456 24.4093C38.4421 24.5466 39.0668 24.4927 39.631 24.2552C40.0868 24.0633 40.4863 23.7587 40.792 23.3699C41.0977 22.9811 41.2995 22.521 41.3784 22.0327L41.4288 21.7211C41.8373 19.1958 41.5278 16.6066 40.5356 14.2488C40.1135 13.2461 39.4269 12.377 38.5491 11.7344C38.0691 11.3828 37.5063 11.1614 36.9154 11.0919C36.3244 11.0225 35.7256 11.1072 35.1772 11.3379C34.5308 11.6099 33.9829 12.0727 33.6065 12.6644C33.2302 13.2561 33.0434 13.9486 33.071 14.6493C33.1472 16.5705 33.5682 18.4623 34.3139 20.2345Z" fill="white"/>
</g>
<defs>
<clipPath id="clip0_2003_2">
<rect width="39.6613" height="39.6613" fill="white" transform="matrix(-0.921724 0.387847 0.387847 0.921724 129.557 175)"/>
</clipPath>
<clipPath id="clip1_2003_2">
<rect width="39.6613" height="39.6613" fill="white" transform="matrix(-0.921724 0.387847 0.387847 0.921724 160.557 127)"/>
</clipPath>
<clipPath id="clip2_2003_2">
<rect width="39.6613" height="39.6613" fill="white" transform="matrix(-0.921724 0.387847 0.387847 0.921724 82.5569 91)"/>
</clipPath>
<clipPath id="clip3_2003_2">
<rect width="39.6613" height="39.6613" fill="white" transform="matrix(-0.921724 0.387847 0.387847 0.921724 109.557 39)"/>
</clipPath>
<clipPath id="clip4_2003_2">
<rect width="39.6613" height="39.6613" fill="white" transform="matrix(-0.921724 0.387847 0.387847 0.921724 36.5569 0)"/>
</clipPath>
</defs>
</svg>
