<svg width="50" height="50" viewBox="0 0 50 50" fill="none" xmlns="http://www.w3.org/2000/svg">
<g opacity="0.6">
<path d="M25.0001 48.4375C25.7213 48.4371 26.4312 48.2586 27.0668 47.9178C27.7025 47.5771 28.2442 47.0847 28.6438 46.4844L29.7376 44.8438C29.9635 44.5069 30.2689 44.2308 30.6269 44.0401C30.9848 43.8493 31.3843 43.7497 31.7899 43.75C32.4448 43.7501 33.0729 44.0103 33.536 44.4734L35.6798 46.6172C36.0091 46.9467 36.4002 47.208 36.8307 47.3863C37.2611 47.5646 37.7224 47.6563 38.1883 47.6562C40.0778 47.6562 41.8899 46.9057 43.2259 45.5696C44.562 44.2336 45.3126 42.4215 45.3126 40.532C45.3127 39.3591 45.0231 38.2043 44.4697 37.1701C43.9162 36.1359 43.1159 35.2544 42.1399 34.6039L38.0969 31.9086C36.6787 30.9625 35.5111 29.6864 34.6946 28.1898L34.243 27.3617C33.3372 25.7013 32.0009 24.3155 30.3744 23.35C28.748 22.3845 26.8915 21.875 25.0001 21.875C23.1086 21.875 21.2521 22.3845 19.6257 23.35C17.9992 24.3155 16.6629 25.7013 15.7571 27.3617L15.3055 28.1898C14.489 29.6864 13.3215 30.9625 11.9032 31.9086L7.86022 34.6039C6.8842 35.2544 6.08393 36.1359 5.53046 37.1701C4.97699 38.2043 4.68746 39.3591 4.68757 40.532C4.68757 42.4215 5.43815 44.2336 6.7742 45.5696C8.11025 46.9057 9.92233 47.6562 11.8118 47.6562C12.2777 47.6563 12.739 47.5646 13.1695 47.3863C13.5999 47.208 13.991 46.9467 14.3204 46.6172L16.4641 44.4734C16.9272 44.0103 17.5553 43.7501 18.2102 43.75C18.6166 43.75 19.0167 43.8504 19.375 44.0421C19.7333 44.2339 20.0387 44.5111 20.2641 44.8492L21.3579 46.4898C21.758 47.089 22.2997 47.5801 22.935 47.9199C23.5703 48.2596 24.2796 48.4374 25.0001 48.4375Z" fill="white"/>
<path d="M27.3438 11.4781V11.7711C27.3438 13.2886 27.5883 14.7962 28.068 16.2359C28.312 16.9681 28.7803 17.6049 29.4063 18.0561C30.0324 18.5073 30.7846 18.7501 31.5563 18.75C32.1798 18.7499 32.793 18.5912 33.3383 18.2889C33.8836 17.9866 34.3431 17.5506 34.6735 17.0219L34.8844 16.6844C36.5938 13.9498 37.5002 10.7898 37.5001 7.56484C37.4999 6.19338 37.127 4.84776 36.4212 3.67187C36.0354 3.0286 35.4896 2.49621 34.8369 2.12655C34.1843 1.75689 33.447 1.56256 32.6969 1.5625C31.8129 1.5625 30.9499 1.8323 30.2232 2.33585C29.4966 2.8394 28.941 3.55271 28.6305 4.38047C27.7797 6.6501 27.3438 9.05424 27.3438 11.4781Z" fill="white"/>
<path d="M22.6563 11.4781V11.7711C22.6563 13.2886 22.4118 14.7962 21.9321 16.2359C21.6881 16.9681 21.2199 17.6049 20.5938 18.0561C19.9677 18.5073 19.2155 18.7501 18.4438 18.75C17.8203 18.7499 17.2071 18.5912 16.6618 18.2889C16.1165 17.9866 15.657 17.5506 15.3266 17.0219L15.1157 16.6844C13.4063 13.9498 12.5 10.7898 12.5001 7.56484C12.5002 6.19338 12.8731 4.84776 13.579 3.67187C13.9647 3.0286 14.5105 2.49621 15.1632 2.12655C15.8158 1.75689 16.5531 1.56256 17.3032 1.5625C18.1866 1.5633 19.0487 1.83347 19.7746 2.33696C20.5004 2.84046 21.0555 3.55333 21.3657 4.38047C22.2179 6.64986 22.6551 9.054 22.6563 11.4781Z" fill="white"/>
<path d="M12.5001 22.4156V22.7086C12.5001 24.2261 12.2555 25.7337 11.7758 27.1734C11.5318 27.9056 11.0636 28.5424 10.4375 28.9936C9.81148 29.4448 9.05929 29.6876 8.28756 29.6875C7.66407 29.6874 7.05085 29.5287 6.50556 29.2264C5.96026 28.9241 5.5008 28.4881 5.17037 27.9594L4.95944 27.6219C3.25006 24.8873 2.34372 21.7273 2.34381 18.5023C2.34395 17.1309 2.71688 15.7853 3.42272 14.6094C3.80848 13.9661 4.35427 13.4337 5.00693 13.064C5.65959 12.6944 6.39686 12.5001 7.14694 12.5C8.03033 12.5008 8.89247 12.771 9.61833 13.2745C10.3442 13.778 10.8992 14.4908 11.2094 15.318C12.0616 17.5874 12.4988 19.9915 12.5001 22.4156Z" fill="white"/>
<path d="M37.5001 22.4156V22.7086C37.5 24.2261 37.7446 25.7337 38.2243 27.1734C38.4683 27.9056 38.9365 28.5424 39.5626 28.9936C40.1886 29.4448 40.9408 29.6876 41.7126 29.6875C42.3361 29.6874 42.9493 29.5287 43.4946 29.2264C44.0399 28.9241 44.4993 28.4881 44.8297 27.9594L45.0407 27.6219C46.7501 24.8873 47.6564 21.7273 47.6563 18.5023C47.6562 17.1309 47.2832 15.7853 46.5774 14.6094C46.1916 13.9661 45.6458 13.4337 44.9932 13.064C44.3405 12.6944 43.6033 12.5001 42.8532 12.5C41.9691 12.5 41.1061 12.7698 40.3795 13.2733C39.6529 13.7769 39.0972 14.4902 38.7868 15.318C37.9359 17.5876 37.5001 19.9917 37.5001 22.4156Z" fill="white"/>
</g>
</svg>
