<svg width="31" height="31" viewBox="0 0 31 31" fill="none" xmlns="http://www.w3.org/2000/svg">
<g clip-path="url(#clip0_1742_2280)">
<path d="M20.6428 5.12904C20.2393 4.71146 19.5678 4.71146 19.1502 5.12904C18.7467 5.5325 18.7467 6.20401 19.1502 6.60653L26.7183 14.1746H1.7447C1.16255 14.1755 0.699829 14.6383 0.699829 15.2204C0.699829 15.8026 1.16255 16.2803 1.7447 16.2803H26.7183L19.1502 23.8343C18.7467 24.2519 18.7467 24.9243 19.1502 25.3268C19.5678 25.7444 20.2402 25.7444 20.6428 25.3268L30.0024 15.9672C30.42 15.5637 30.42 14.8922 30.0024 14.4897L20.6428 5.12904Z" fill="white"/>
</g>
<defs>
<clipPath id="clip0_1742_2280">
<rect width="29.6158" height="29.6158" fill="white" transform="translate(0.699829 0.420044)"/>
</clipPath>
</defs>
</svg>
