<svg width="33" height="55" viewBox="0 0 33 55" fill="none" xmlns="http://www.w3.org/2000/svg">
<g filter="url(#filter0_f_21_518)">
<ellipse cx="1.18727" cy="1.18631" rx="1.18727" ry="1.18631" transform="matrix(-1 0 0 1 30.3745 3)" fill="#FFB000"/>
</g>
<g filter="url(#filter1_f_21_518)">
<ellipse cx="1.18727" cy="1.18631" rx="1.18727" ry="1.18631" transform="matrix(-1 0 0 1 30.3745 3)" fill="#FFB000"/>
</g>
<g filter="url(#filter2_f_21_518)">
<ellipse cx="0.712363" cy="0.711788" rx="0.712363" ry="0.711788" transform="matrix(-1 0 0 1 29.8977 3.47681)" fill="white"/>
</g>
<g filter="url(#filter3_f_21_518)">
<ellipse cx="1.18727" cy="1.18631" rx="1.18727" ry="1.18631" transform="matrix(-1 0 0 1 30.3745 50)" fill="#FFB000"/>
</g>
<g filter="url(#filter4_f_21_518)">
<ellipse cx="1.18727" cy="1.18631" rx="1.18727" ry="1.18631" transform="matrix(-1 0 0 1 30.3745 50)" fill="#FFB000"/>
</g>
<g filter="url(#filter5_f_21_518)">
<ellipse cx="0.712363" cy="0.711788" rx="0.712363" ry="0.711788" transform="matrix(-1 0 0 1 29.8977 50.4768)" fill="white"/>
</g>
<g filter="url(#filter6_f_21_518)">
<ellipse cx="1.18727" cy="1.18631" rx="1.18727" ry="1.18631" transform="matrix(-1 0 0 1 5.37454 27)" fill="#FFB000"/>
</g>
<g filter="url(#filter7_f_21_518)">
<ellipse cx="1.18727" cy="1.18631" rx="1.18727" ry="1.18631" transform="matrix(-1 0 0 1 5.37454 27)" fill="#FFB000"/>
</g>
<g filter="url(#filter8_f_21_518)">
<ellipse cx="0.712363" cy="0.711788" rx="0.712363" ry="0.711788" transform="matrix(-1 0 0 1 4.89772 27.4768)" fill="white"/>
</g>
<g filter="url(#filter9_f_21_518)">
<ellipse cx="1.18727" cy="1.18631" rx="1.18727" ry="1.18631" transform="matrix(-1 0 0 1 10.3745 5)" fill="#FFB000"/>
</g>
<g filter="url(#filter10_f_21_518)">
<ellipse cx="1.18727" cy="1.18631" rx="1.18727" ry="1.18631" transform="matrix(-1 0 0 1 10.3745 5)" fill="#FFB000"/>
</g>
<g filter="url(#filter11_f_21_518)">
<ellipse cx="0.712363" cy="0.711788" rx="0.712363" ry="0.711788" transform="matrix(-1 0 0 1 9.89774 5.47681)" fill="white"/>
</g>
<g filter="url(#filter12_f_21_518)">
<ellipse cx="1.18727" cy="1.18631" rx="1.18727" ry="1.18631" transform="matrix(-1 0 0 1 10.3745 48)" fill="#FFB000"/>
</g>
<g filter="url(#filter13_f_21_518)">
<ellipse cx="1.18727" cy="1.18631" rx="1.18727" ry="1.18631" transform="matrix(-1 0 0 1 10.3745 48)" fill="#FFB000"/>
</g>
<g filter="url(#filter14_f_21_518)">
<ellipse cx="0.712363" cy="0.711788" rx="0.712363" ry="0.711788" transform="matrix(-1 0 0 1 9.89774 48.4768)" fill="white"/>
</g>
<defs>
<filter id="filter0_f_21_518" x="25.7675" y="0.767533" width="6.83948" height="6.83755" filterUnits="userSpaceOnUse" color-interpolation-filters="sRGB">
<feFlood flood-opacity="0" result="BackgroundImageFix"/>
<feBlend mode="normal" in="SourceGraphic" in2="BackgroundImageFix" result="shape"/>
<feGaussianBlur stdDeviation="1.11623" result="effect1_foregroundBlur_21_518"/>
</filter>
<filter id="filter1_f_21_518" x="25.7675" y="0.767533" width="6.83948" height="6.83755" filterUnits="userSpaceOnUse" color-interpolation-filters="sRGB">
<feFlood flood-opacity="0" result="BackgroundImageFix"/>
<feBlend mode="normal" in="SourceGraphic" in2="BackgroundImageFix" result="shape"/>
<feGaussianBlur stdDeviation="1.11623" result="effect1_foregroundBlur_21_518"/>
</filter>
<filter id="filter2_f_21_518" x="27.7289" y="2.73265" width="2.91302" height="2.9119" filterUnits="userSpaceOnUse" color-interpolation-filters="sRGB">
<feFlood flood-opacity="0" result="BackgroundImageFix"/>
<feBlend mode="normal" in="SourceGraphic" in2="BackgroundImageFix" result="shape"/>
<feGaussianBlur stdDeviation="0.372078" result="effect1_foregroundBlur_21_518"/>
</filter>
<filter id="filter3_f_21_518" x="25.7675" y="47.7675" width="6.83948" height="6.83755" filterUnits="userSpaceOnUse" color-interpolation-filters="sRGB">
<feFlood flood-opacity="0" result="BackgroundImageFix"/>
<feBlend mode="normal" in="SourceGraphic" in2="BackgroundImageFix" result="shape"/>
<feGaussianBlur stdDeviation="1.11623" result="effect1_foregroundBlur_21_518"/>
</filter>
<filter id="filter4_f_21_518" x="25.7675" y="47.7675" width="6.83948" height="6.83755" filterUnits="userSpaceOnUse" color-interpolation-filters="sRGB">
<feFlood flood-opacity="0" result="BackgroundImageFix"/>
<feBlend mode="normal" in="SourceGraphic" in2="BackgroundImageFix" result="shape"/>
<feGaussianBlur stdDeviation="1.11623" result="effect1_foregroundBlur_21_518"/>
</filter>
<filter id="filter5_f_21_518" x="27.7289" y="49.7327" width="2.91302" height="2.9119" filterUnits="userSpaceOnUse" color-interpolation-filters="sRGB">
<feFlood flood-opacity="0" result="BackgroundImageFix"/>
<feBlend mode="normal" in="SourceGraphic" in2="BackgroundImageFix" result="shape"/>
<feGaussianBlur stdDeviation="0.372078" result="effect1_foregroundBlur_21_518"/>
</filter>
<filter id="filter6_f_21_518" x="0.767533" y="24.7675" width="6.83948" height="6.83755" filterUnits="userSpaceOnUse" color-interpolation-filters="sRGB">
<feFlood flood-opacity="0" result="BackgroundImageFix"/>
<feBlend mode="normal" in="SourceGraphic" in2="BackgroundImageFix" result="shape"/>
<feGaussianBlur stdDeviation="1.11623" result="effect1_foregroundBlur_21_518"/>
</filter>
<filter id="filter7_f_21_518" x="0.767533" y="24.7675" width="6.83948" height="6.83755" filterUnits="userSpaceOnUse" color-interpolation-filters="sRGB">
<feFlood flood-opacity="0" result="BackgroundImageFix"/>
<feBlend mode="normal" in="SourceGraphic" in2="BackgroundImageFix" result="shape"/>
<feGaussianBlur stdDeviation="1.11623" result="effect1_foregroundBlur_21_518"/>
</filter>
<filter id="filter8_f_21_518" x="2.72884" y="26.7327" width="2.91304" height="2.9119" filterUnits="userSpaceOnUse" color-interpolation-filters="sRGB">
<feFlood flood-opacity="0" result="BackgroundImageFix"/>
<feBlend mode="normal" in="SourceGraphic" in2="BackgroundImageFix" result="shape"/>
<feGaussianBlur stdDeviation="0.372078" result="effect1_foregroundBlur_21_518"/>
</filter>
<filter id="filter9_f_21_518" x="5.76753" y="2.76753" width="6.83948" height="6.83755" filterUnits="userSpaceOnUse" color-interpolation-filters="sRGB">
<feFlood flood-opacity="0" result="BackgroundImageFix"/>
<feBlend mode="normal" in="SourceGraphic" in2="BackgroundImageFix" result="shape"/>
<feGaussianBlur stdDeviation="1.11623" result="effect1_foregroundBlur_21_518"/>
</filter>
<filter id="filter10_f_21_518" x="5.76753" y="2.76753" width="6.83948" height="6.83755" filterUnits="userSpaceOnUse" color-interpolation-filters="sRGB">
<feFlood flood-opacity="0" result="BackgroundImageFix"/>
<feBlend mode="normal" in="SourceGraphic" in2="BackgroundImageFix" result="shape"/>
<feGaussianBlur stdDeviation="1.11623" result="effect1_foregroundBlur_21_518"/>
</filter>
<filter id="filter11_f_21_518" x="7.72887" y="4.73265" width="2.91302" height="2.9119" filterUnits="userSpaceOnUse" color-interpolation-filters="sRGB">
<feFlood flood-opacity="0" result="BackgroundImageFix"/>
<feBlend mode="normal" in="SourceGraphic" in2="BackgroundImageFix" result="shape"/>
<feGaussianBlur stdDeviation="0.372078" result="effect1_foregroundBlur_21_518"/>
</filter>
<filter id="filter12_f_21_518" x="5.76753" y="45.7675" width="6.83948" height="6.83755" filterUnits="userSpaceOnUse" color-interpolation-filters="sRGB">
<feFlood flood-opacity="0" result="BackgroundImageFix"/>
<feBlend mode="normal" in="SourceGraphic" in2="BackgroundImageFix" result="shape"/>
<feGaussianBlur stdDeviation="1.11623" result="effect1_foregroundBlur_21_518"/>
</filter>
<filter id="filter13_f_21_518" x="5.76753" y="45.7675" width="6.83948" height="6.83755" filterUnits="userSpaceOnUse" color-interpolation-filters="sRGB">
<feFlood flood-opacity="0" result="BackgroundImageFix"/>
<feBlend mode="normal" in="SourceGraphic" in2="BackgroundImageFix" result="shape"/>
<feGaussianBlur stdDeviation="1.11623" result="effect1_foregroundBlur_21_518"/>
</filter>
<filter id="filter14_f_21_518" x="7.72887" y="47.7327" width="2.91302" height="2.9119" filterUnits="userSpaceOnUse" color-interpolation-filters="sRGB">
<feFlood flood-opacity="0" result="BackgroundImageFix"/>
<feBlend mode="normal" in="SourceGraphic" in2="BackgroundImageFix" result="shape"/>
<feGaussianBlur stdDeviation="0.372078" result="effect1_foregroundBlur_21_518"/>
</filter>
</defs>
</svg>
