<svg width="22" height="22" viewBox="0 0 22 22" fill="none" xmlns="http://www.w3.org/2000/svg">
<path d="M13.0909 1.9104H8.8831C8.45276 1.9104 8.10388 2.25927 8.10388 2.68962V19.3052C8.10388 19.7355 8.45276 20.0844 8.8831 20.0844H13.0909C13.5212 20.0844 13.8701 19.7355 13.8701 19.3052V2.68962C13.8701 2.25922 13.5212 1.9104 13.0909 1.9104Z" fill="white"/>
<path d="M21.2208 11.5987H17.013C16.5826 11.5987 16.2338 11.9476 16.2338 12.3779V19.3104C16.2338 19.7408 16.5826 20.0896 17.013 20.0896H21.2208C21.6511 20.0896 22 19.7408 22 19.3104V12.3779C22 11.9475 21.6511 11.5987 21.2208 11.5987Z" fill="white"/>
<path d="M4.98701 8.11819H0.779221C0.348874 8.11819 0 8.46707 0 8.89742V19.3C0 19.7304 0.348874 20.0792 0.779221 20.0792H4.98701C5.41736 20.0792 5.76623 19.7304 5.76623 19.3V8.89742C5.76623 8.46707 5.41736 8.11819 4.98701 8.11819Z" fill="white"/>
</svg>
