<svg width="20" height="20" viewBox="0 0 20 20" fill="none" xmlns="http://www.w3.org/2000/svg">
<path d="M16.5943 3.78786C16.3654 4.01673 16.3654 4.38755 16.5943 4.61641C18.0351 6.05724 18.8282 7.96895 18.8282 9.9997C18.8282 12.0304 18.0351 13.9422 16.5943 15.383C16.3654 15.6119 16.3654 15.9827 16.5943 16.2116C16.8231 16.4404 17.1939 16.4404 17.4228 16.2116C19.0845 14.5499 20 12.3434 20 9.9997C20 7.65595 19.0845 5.44954 17.4228 3.78786C17.1939 3.55895 16.8232 3.55895 16.5943 3.78786Z" fill="white"/>
<path d="M14.1098 13.727C14.3386 13.9559 14.7094 13.9559 14.9383 13.727C15.9357 12.7291 16.4844 11.4056 16.4844 9.99969C16.4844 8.59379 15.9357 7.27027 14.9383 6.27234C14.7094 6.04348 14.3386 6.04348 14.1098 6.27234C13.8809 6.50066 13.8809 6.87203 14.1098 7.1009C14.8851 7.87684 15.3125 8.9068 15.3125 9.99969C15.3125 11.0926 14.8851 12.1226 14.1098 12.8985C13.8809 13.1274 13.8809 13.4987 14.1098 13.727Z" fill="white"/>
<path d="M0.585938 14.1013H3.51562V5.89813H0.585938C0.26207 5.89813 0 6.1602 0 6.48407V13.5153C0 13.8392 0.26207 14.1013 0.585938 14.1013Z" fill="white"/>
<path d="M9.57043 18.5547C9.72234 18.7568 9.98672 18.8384 10.2245 18.7584C10.4636 18.6789 10.625 18.4552 10.625 18.2028V1.79657C10.625 1.54422 10.4636 1.32047 10.2245 1.24094C9.98586 1.16199 9.72207 1.24379 9.57043 1.44465C8.43383 2.95864 6.20469 5.24969 4.6875 5.78156V14.2179C6.20469 14.7497 8.43383 17.0407 9.57043 18.5547Z" fill="white"/>
<path d="M12.9688 9.99969C12.9688 9.13586 12.494 8.38836 11.7969 7.98187V12.0175C12.494 11.611 12.9688 10.8635 12.9688 9.99969Z" fill="white"/>
</svg>
