<svg width="20" height="20" viewBox="0 0 20 20" fill="none" xmlns="http://www.w3.org/2000/svg">
<path fill-rule="evenodd" clip-rule="evenodd" d="M2.80475 12.2681L7.732 17.1952L14.5838 10.3429C17.0784 7.84834 18.6233 4.55684 18.9504 1.0496C15.4435 1.37689 12.152 2.92142 9.65696 5.41589L2.80475 12.2681ZM7.732 17.7151C7.6748 17.7151 7.62021 17.6924 7.57983 17.6521L2.34796 12.4203C2.3076 12.3799 2.28516 12.3253 2.28516 12.2681C2.28517 12.211 2.30758 12.1563 2.34796 12.1159L9.35267 5.11141C11.98 2.48459 15.4663 0.882001 19.1701 0.598883C19.2329 0.594143 19.2946 0.616911 19.3387 0.661324C19.3832 0.705667 19.406 0.767311 19.4011 0.829959C19.1182 4.53388 17.5154 8.02052 14.8884 10.6476L7.88445 17.652C7.84374 17.6924 7.78914 17.7151 7.732 17.7151Z" fill="white"/>
<path fill-rule="evenodd" clip-rule="evenodd" d="M12.1517 5.47334C10.842 5.47334 9.77632 6.53896 9.77632 7.84871C9.77632 9.1584 10.842 10.224 12.1517 10.224C13.4615 10.224 14.5267 9.15845 14.5267 7.84871C14.5268 6.53889 13.4614 5.47339 12.1517 5.47334ZM12.1517 10.6546C10.6043 10.6546 9.3457 9.39595 9.3457 7.84872C9.34572 6.30148 10.6042 5.04285 12.1517 5.04285C13.6988 5.04283 14.9573 6.30152 14.9573 7.84872C14.9574 9.39593 13.6988 10.6546 12.1517 10.6546Z" fill="white"/>
<path fill-rule="evenodd" clip-rule="evenodd" d="M12.1517 6.53644C11.428 6.53644 10.8393 7.12512 10.8393 7.84869C10.8393 8.5722 11.428 9.16093 12.1516 9.16093C12.8749 9.16091 13.4636 8.57227 13.4636 7.84869C13.4637 7.12507 12.8749 6.53646 12.1517 6.53644ZM12.1517 9.59151C11.1907 9.59151 10.4087 8.80973 10.4087 7.84869C10.4087 6.88766 11.1907 6.1059 12.1516 6.1059C13.1127 6.10584 13.8942 6.88769 13.8942 7.84869C13.8942 8.8097 13.1126 9.59153 12.1517 9.59151Z" fill="white"/>
<path fill-rule="evenodd" clip-rule="evenodd" d="M4.25268 10.7315H0.943905C0.803747 10.7315 0.67852 10.6478 0.624696 10.5181C0.570872 10.3884 0.600405 10.2406 0.699455 10.1414L1.18242 9.65859C2.01894 8.82227 2.99711 8.16891 4.08969 7.71644C5.18192 7.26412 6.335 7.03481 7.51692 7.03481C7.51618 7.03481 7.51767 7.03477 7.51692 7.03481C7.63583 7.03477 7.73407 7.13126 7.73407 7.25015C7.73411 7.369 7.63765 7.4654 7.51877 7.4654C7.51843 7.46571 7.5195 7.4654 7.51877 7.4654C5.24133 7.46538 3.09804 8.35232 1.48665 9.96307L1.14912 10.3009H4.25268C4.37156 10.3009 4.46795 10.3974 4.46795 10.5163C4.46798 10.6352 4.3715 10.7316 4.25268 10.7315Z" fill="white"/>
<path fill-rule="evenodd" clip-rule="evenodd" d="M9.61468 19.4018C9.5702 19.4018 9.52496 19.3931 9.48198 19.3753C9.35229 19.3216 9.26855 19.1962 9.26855 19.0559L9.26857 15.7474C9.26857 15.6286 9.36498 15.5322 9.48385 15.5322C9.60275 15.5321 9.69915 15.6286 9.69915 15.7475L9.69917 18.851L10.037 18.5131C11.6481 16.902 12.535 14.7599 12.5347 12.4813C12.5347 12.3624 12.6311 12.266 12.75 12.266C12.8689 12.2659 12.9653 12.3623 12.9653 12.4812C12.9657 13.6639 12.7361 14.8177 12.2839 15.9105C11.8312 17.0033 11.1778 17.9814 10.3417 18.8176L9.85875 19.3004C9.79261 19.3667 9.70437 19.4018 9.61468 19.4018Z" fill="white"/>
<path fill-rule="evenodd" clip-rule="evenodd" d="M3.51275 19.1696C3.4305 19.1696 3.34901 19.1441 3.28098 19.0949C3.17856 19.0209 3.11764 18.9015 3.11764 18.7752V18.3803C2.75731 18.722 2.15365 19.1134 1.29543 19.0891C1.08503 19.0835 0.915665 18.9142 0.91006 18.7035C0.886167 17.8453 1.27787 17.2422 1.6195 16.8819L1.22442 16.8818C1.09849 16.8818 0.978832 16.8207 0.904835 16.7184C0.830837 16.6158 0.810266 16.4828 0.849886 16.3626C1.3336 14.903 3.34827 14.6851 3.43385 14.6765C3.55237 14.6644 3.65775 14.751 3.66972 14.8693C3.68133 14.9876 3.59535 15.0932 3.47683 15.105C3.45931 15.1068 1.70173 15.2992 1.27526 16.4513L2.06285 16.4513C2.1757 16.4513 2.2755 16.5232 2.31102 16.6303C2.34617 16.737 2.30951 16.8538 2.21906 16.9209C1.94959 17.1233 1.32721 17.6961 1.33991 18.6594C2.30505 18.672 2.87616 18.0501 3.07876 17.7796C3.14644 17.6897 3.26342 17.6534 3.36956 17.6889C3.4765 17.7246 3.54823 17.8241 3.54823 17.9364V18.7245C4.704 18.2975 4.89235 16.5409 4.89424 16.5229C4.90623 16.4046 5.01159 16.3183 5.13009 16.3301C5.24823 16.3419 5.33454 16.4475 5.32295 16.5658C5.31437 16.6513 5.09644 18.6665 3.63681 19.1497C3.59609 19.163 3.55422 19.1696 3.51275 19.1696Z" fill="white"/>
<path fill-rule="evenodd" clip-rule="evenodd" d="M6.48461 18.0176C6.35678 18.0176 6.22856 17.9691 6.131 17.8719L2.12853 13.8692C1.93379 13.6746 1.93377 13.3574 2.12815 13.1622L2.76135 12.529C2.84545 12.4449 2.98151 12.4449 3.06561 12.529C3.14973 12.613 3.14971 12.7495 3.06561 12.8335L2.43281 13.4663C2.40591 13.4934 2.40588 13.5377 2.4328 13.5648L6.43528 17.5671C6.46258 17.594 6.50667 17.5942 6.53395 17.5672L7.16642 16.9343C7.25052 16.8502 7.38692 16.8503 7.47103 16.9344C7.55514 17.0184 7.55513 17.1547 7.47103 17.2388L6.83821 17.8716C6.74103 17.969 6.61281 18.0177 6.48461 18.0176Z" fill="white"/>
<path fill-rule="evenodd" clip-rule="evenodd" d="M17.911 6.08654C17.8964 6.08654 17.8811 6.08507 17.8661 6.08191C17.0479 5.90817 16.1433 5.37364 15.3849 4.61517C14.6261 3.85609 14.0912 2.9518 13.9182 2.13399C13.8939 2.01762 13.9679 1.90338 14.0845 1.87876C14.2008 1.85405 14.3151 1.92847 14.3394 2.0448C14.4961 2.78312 14.988 3.60908 15.6895 4.3107C16.3908 5.0118 17.2165 5.50384 17.9554 5.66067C18.0717 5.68529 18.1461 5.79965 18.1214 5.91597C18.1001 6.01717 18.0107 6.08661 17.911 6.08654Z" fill="white"/>
</svg>
