<svg width="18" height="18" viewBox="0 0 18 18" fill="none" xmlns="http://www.w3.org/2000/svg">
<g clip-path="url(#clip0_1974_268)">
<path d="M17.6244 11.0099C17.1377 10.5928 16.1944 10.3999 14.7406 10.4194C13.4991 10.4362 12.214 10.6092 11.5584 10.7109C11.4145 10.7332 11.316 10.868 11.3383 11.0119C11.3606 11.1558 11.4953 11.2543 11.6393 11.232C13.8636 10.887 16.5138 10.7527 17.2813 11.4103C17.4118 11.5222 17.4727 11.6474 17.4727 11.8044C17.4727 12.8221 16.3028 13.4364 15.3215 13.7725C13.7094 14.3246 11.7652 14.4547 10.7497 14.4831C8.66318 14.5415 6.68578 14.3244 5.09689 14.15C2.83452 13.9017 1.19993 13.7223 0.438338 14.4048C0.149564 14.6636 0.00317383 15.0334 0.00317383 15.5039C0.00317383 17.8071 4.68697 18 9.07714 18C9.22276 18 9.34081 17.8819 9.34081 17.7363C9.34081 17.5907 9.22276 17.4727 9.07714 17.4727C6.30303 17.4727 0.530518 17.4727 0.530518 15.5039C0.530518 15.1853 0.61549 14.9542 0.790322 14.7975C1.37652 14.2722 2.99293 14.4496 5.03938 14.6742C6.64433 14.8504 8.64177 15.0696 10.7645 15.0103C11.8099 14.981 13.8142 14.8462 15.4923 14.2714C16.2467 14.013 16.84 13.6947 17.256 13.3253C17.7497 12.8868 18 12.3751 18 11.8044C18 11.4951 17.8701 11.2204 17.6244 11.0099Z" fill="#D13A2E"/>
<path d="M6.77264 13.5453C10.5131 13.5453 13.5453 10.5131 13.5453 6.77264C13.5453 3.03221 10.5131 0 6.77264 0C3.03221 0 0 3.03221 0 6.77264C0 10.5131 3.03221 13.5453 6.77264 13.5453Z" fill="#EF483C"/>
<path d="M13.5454 6.7725C13.5454 6.95601 13.538 7.13742 13.5236 7.31707V7.31742C13.5046 7.55894 13.4726 7.7966 13.4286 8.03039C13.3407 8.49867 13.2047 8.94937 13.0257 9.37828V9.37863C12.9182 9.63668 12.7948 9.88664 12.6573 10.1275C11.4908 12.1693 9.2925 13.5454 6.7725 13.5454C6.42445 13.5454 6.08238 13.519 5.7484 13.4684C5.5241 13.4343 5.30297 13.3893 5.08641 13.3341C5.07269 13.3305 5.05934 13.327 5.04562 13.3235C4.63078 13.2142 4.23105 13.0665 3.85102 12.8844C3.67102 12.7983 3.49559 12.7048 3.32508 12.6032C2.87508 12.337 2.45883 12.0196 2.08371 11.6596C1.95398 11.5351 1.82918 11.4057 1.70965 11.2711C1.47691 11.0095 1.26457 10.7297 1.07437 10.434C0.978398 10.2857 0.88875 10.1334 0.804726 9.97734C0.641953 9.675 0.50168 9.3593 0.386016 9.03164C0.325898 8.86219 0.272461 8.68922 0.226055 8.51379C0.104766 8.05676 0.0298828 7.58074 0.00738281 7.09101C0.00246094 6.98555 0 6.87937 0 6.7725C0 6.68144 0.00175781 6.59109 0.00527344 6.50074C0.0225 6.0641 0.0812109 5.63836 0.177187 5.22668C0.230625 4.99711 0.296016 4.77211 0.372305 4.55203C0.588164 3.92941 0.892265 3.34828 1.26984 2.8234C1.47902 2.5323 1.7107 2.25844 1.96242 2.00461C3.18973 0.766758 4.89164 0 6.7725 0C6.95672 0 7.13883 0.00738281 7.31918 0.0217969C7.68164 0.050625 8.03601 0.108281 8.37984 0.191602C8.64141 0.255586 8.89699 0.334336 9.1459 0.4275C9.36633 0.509766 9.58113 0.603633 9.78996 0.707695C10.0533 0.838828 10.3068 0.986836 10.5493 1.14996C10.7128 1.26 10.871 1.37672 11.0239 1.50047C11.1783 1.62492 11.3273 1.75641 11.4701 1.89422C11.6005 2.01937 11.7253 2.1498 11.8452 2.2848C12.0864 2.55727 12.3057 2.84906 12.5009 3.15773C12.5954 3.30715 12.6844 3.46043 12.767 3.61723C12.8841 3.83906 12.9892 4.06828 13.0816 4.30418C13.1456 4.46801 13.2036 4.635 13.255 4.8048C13.3562 5.13844 13.4325 5.48297 13.481 5.83629C13.5084 6.03246 13.5271 6.23109 13.5369 6.43254C13.5425 6.54504 13.5454 6.65859 13.5454 6.7725Z" fill="#EF483C"/>
<path d="M6.77264 0C6.58976 0 6.40863 0.00748828 6.22937 0.0217266C9.71575 0.298477 12.4587 3.21511 12.4587 6.77264C12.4587 10.3302 9.71575 13.2468 6.22937 13.5236C6.4086 13.5378 6.58972 13.5453 6.77264 13.5453C10.5131 13.5453 13.5453 10.5131 13.5453 6.77264C13.5453 3.03219 10.5131 0 6.77264 0Z" fill="#DE4135"/>
<path d="M8.3799 0.191594L1.2699 2.82339C1.47908 2.5323 1.71076 2.25843 1.96248 2.0046L7.31923 0.0217896C7.68169 0.0506177 8.03607 0.108274 8.3799 0.191594Z" fill="#D13A2E"/>
<path d="M9.79002 0.707686L0.177246 5.22667C0.230684 4.9971 0.296074 4.7721 0.372363 4.55202L9.14596 0.42749C9.36639 0.509756 9.58119 0.603623 9.79002 0.707686Z" fill="#D13A2E"/>
<path d="M11.0239 1.50046L0.00738281 7.091C0.00246094 6.98553 0 6.87936 0 6.77249C0 6.68143 0.00175781 6.59108 0.00527344 6.50073L10.5493 1.14995C10.7128 1.25999 10.871 1.37671 11.0239 1.50046Z" fill="#D13A2E"/>
<path d="M12.767 3.61722L0.949942 8.69941L0.386035 9.03163C0.325918 8.86218 0.27248 8.68921 0.226074 8.51378L0.696465 8.23675C0.69998 8.23464 0.703848 8.23253 0.707715 8.23042L11.4701 1.89421C11.6005 2.01937 11.7253 2.1498 11.8452 2.2848L4.56998 6.56859L12.5009 3.15773C12.5955 3.30714 12.6844 3.46042 12.767 3.61722Z" fill="#D13A2E"/>
<path d="M13.2549 4.80479L12.8049 5.01292L2.08367 11.6596C1.95395 11.5351 1.82914 11.4057 1.70961 11.2711L8.87375 6.82944L1.07434 10.434C0.978359 10.2857 0.888711 10.1334 0.804688 9.97733L13.0816 4.30417C13.1456 4.468 13.2036 4.63499 13.2549 4.80479Z" fill="#D13A2E"/>
<path d="M13.5369 6.43252L3.85101 12.8844C3.67101 12.7983 3.49558 12.7048 3.32507 12.6031C3.3321 12.5972 3.33949 12.5919 3.34722 12.5866L13.481 5.83627C13.5084 6.03245 13.5271 6.23108 13.5369 6.43252Z" fill="#D13A2E"/>
<path d="M13.4287 8.03038L8.76589 11.3316L13.0258 9.37862C12.9182 9.63667 12.7948 9.88663 12.6573 10.1275L6.44065 12.9779L5.74843 13.4684C5.52413 13.4342 5.303 13.3892 5.08644 13.3341C5.07272 13.3305 5.05937 13.327 5.04565 13.3235L13.5236 7.31741C13.5046 7.55894 13.4726 7.79659 13.4287 8.03038Z" fill="#D13A2E"/>
</g>
<defs>
<clipPath id="clip0_1974_268">
<rect width="18" height="18" fill="white"/>
</clipPath>
</defs>
</svg>
