<svg width="21" height="20" viewBox="0 0 21 20" fill="none" xmlns="http://www.w3.org/2000/svg">
<g clip-path="url(#clip0_2263_6998)">
<path d="M10.5004 19.6C5.20699 19.6 0.900391 15.2934 0.900391 9.99999C0.900391 4.70659 5.20699 0.399994 10.5004 0.399994C15.7938 0.399994 20.1004 4.70659 20.1004 9.99999C20.1004 15.2934 15.7938 19.6 10.5004 19.6ZM10.5004 1.59999C5.86859 1.59999 2.10039 5.36819 2.10039 9.99999C2.10039 14.6318 5.86859 18.4 10.5004 18.4C15.1322 18.4 18.9004 14.6318 18.9004 9.99999C18.9004 5.36819 15.1322 1.59999 10.5004 1.59999ZM14.9688 14.1368C15.2652 13.9886 15.3854 13.6282 15.2372 13.3318C15.1812 13.22 13.833 10.6 10.5004 10.6C7.16779 10.6 5.81959 13.22 5.76359 13.3316C5.61599 13.627 5.73539 13.985 6.02999 14.134C6.32539 14.2826 6.68499 14.1648 6.83559 13.871C6.87899 13.7864 7.92639 11.8 10.5004 11.8C13.0744 11.8 14.1218 13.7864 14.1636 13.8684C14.2688 14.0788 14.4806 14.2004 14.701 14.2C14.791 14.2 14.8826 14.1798 14.9688 14.1368ZM13.5004 8.79999C12.8386 8.79999 12.3004 8.26179 12.3004 7.59999C12.3004 6.93819 12.8386 6.39999 13.5004 6.39999C14.1622 6.39999 14.7004 6.93819 14.7004 7.59999C14.7004 8.26179 14.1622 8.79999 13.5004 8.79999ZM7.50039 8.79999C6.83859 8.79999 6.30039 8.26179 6.30039 7.59999C6.30039 6.93819 6.83859 6.39999 7.50039 6.39999C8.16219 6.39999 8.70039 6.93819 8.70039 7.59999C8.70039 8.26179 8.16219 8.79999 7.50039 8.79999Z" fill="white"/>
</g>
<defs>
<clipPath id="clip0_2263_6998">
<rect width="20" height="20" fill="white" transform="translate(0.5)"/>
</clipPath>
</defs>
</svg>
