<svg width="26" height="27" viewBox="0 0 26 27" fill="none" xmlns="http://www.w3.org/2000/svg">
<path d="M19.0892 3.8999C18.4624 4.41747 17.9973 5.10167 17.7442 5.87862C17.3888 6.96924 17.4795 8.13298 17.9995 9.15539C18.5194 10.1778 19.4064 10.9366 20.4971 11.2919C22.8369 12.0542 24.1203 14.578 23.3579 16.9177C23.0137 17.9744 22.293 18.8596 21.3287 19.4102C20.4518 19.911 19.4401 20.0986 18.4515 19.949C17.6195 21.7139 16.1376 23.1759 14.1801 23.9376C10.1254 25.5154 5.54304 23.5002 3.96525 19.4455C2.38747 15.3908 4.40261 10.8084 8.45732 9.23063C12.512 7.65284 17.0944 9.66798 18.6722 13.7227C19.3828 15.5489 19.3643 17.4821 18.7592 19.1996C19.5128 19.2734 20.2743 19.1128 20.9413 18.7319C21.7367 18.2777 22.3312 17.5475 22.6151 16.6758C23.244 14.7456 22.1852 12.6636 20.255 12.0348C18.966 11.6148 17.9176 10.718 17.3031 9.50957C16.6885 8.30112 16.5814 6.92569 17.0014 5.63663C17.3004 4.7185 17.8504 3.90963 18.5917 3.2975C18.6248 3.27022 18.6609 3.24926 18.6988 3.23453C18.8516 3.17509 19.0315 3.21668 19.1416 3.34997C19.279 3.51636 19.2555 3.76253 19.0892 3.8999ZM12.9755 20.6624C12.3596 21.7754 11.5912 22.7813 10.684 23.6638C11.3599 23.7255 12.0509 23.6908 12.7372 23.5507C13.4486 22.7063 14.0529 21.7784 14.5388 20.7848C14.0162 20.7728 13.4944 20.7318 12.9755 20.6624ZM15.4062 20.7776C15.0246 21.6144 14.565 22.4097 14.0332 23.1544C15.3558 22.6084 16.4289 21.7039 17.1836 20.5976C16.5939 20.695 16.0004 20.7549 15.4062 20.7776ZM9.70601 23.5053C10.6789 22.6464 11.5002 21.6473 12.1534 20.528C11.6591 20.4324 11.1687 20.3105 10.6841 20.1625C10.0057 21.2294 9.1673 22.1681 8.1845 22.9612C8.66867 23.1989 9.17927 23.3818 9.70601 23.5053ZM6.64303 18.1961C6.18567 18.8374 5.64744 19.4135 5.03788 19.9145C5.25858 20.3314 5.51683 20.7189 5.80684 21.0744C6.60345 20.4791 7.29458 19.7711 7.86773 18.9631C7.44627 18.728 7.03764 18.4718 6.64303 18.1961ZM8.56613 19.328C7.94845 20.218 7.20034 20.9982 6.33558 21.6543C6.67765 21.9895 7.05133 22.2871 7.44933 22.5447C8.42038 21.8053 9.24876 20.9195 9.91912 19.9053C9.45692 19.7353 9.00547 19.5425 8.56613 19.328ZM4.69973 19.178C5.19499 18.7496 5.63552 18.2651 6.01482 17.7314C5.37453 17.2299 4.77703 16.6735 4.22898 16.0674C4.15283 17.0901 4.29733 18.1445 4.69332 19.1622C4.69539 19.1675 4.69762 19.1727 4.69973 19.178ZM4.38026 15.046C5.94869 16.9602 8.01472 18.4077 10.3639 19.2356C12.7296 20.0692 15.2637 20.2301 17.7029 19.7038C17.8779 19.3454 18.0228 18.9725 18.136 18.5895C15.6681 19.2111 13.1084 19.0831 10.6934 18.2101C9.42545 17.7519 8.24376 17.1011 7.18111 16.2759C6.26759 15.5665 5.46034 14.7412 4.77391 13.8176C4.60639 14.2137 4.4743 14.6248 4.38026 15.046ZM18.427 16.6855C16.1075 17.3778 13.6057 17.3027 11.3261 16.4629C9.06599 15.6303 7.12531 14.0872 5.81212 12.0901C5.57195 12.3854 5.35665 12.6988 5.16746 13.0266C5.85933 14.0258 6.69702 14.9107 7.66031 15.6588C8.65825 16.4338 9.76809 17.045 10.959 17.4754C13.353 18.3407 15.8983 18.4267 18.3335 17.7275C18.39 17.3846 18.4215 17.0364 18.427 16.6855ZM18.2292 14.9141C14.043 16.2003 9.49783 14.5107 7.1714 10.8089C6.88076 11.0177 6.60893 11.2467 6.35694 11.4929C7.57893 13.4325 9.42968 14.9317 11.5962 15.7299C13.7797 16.5342 16.1823 16.5845 18.3933 15.878C18.3613 15.5564 18.3069 15.2345 18.2292 14.9141ZM12.8872 9.65225C12.4826 9.56007 12.0688 9.50322 11.6504 9.48309C12.243 10.9373 12.5383 12.5125 12.5109 14.0838C12.9397 14.2295 13.3797 14.3429 13.827 14.4224C13.8393 12.7755 13.524 11.1736 12.8872 9.65225ZM9.70955 9.65925C10.1342 10.743 10.3695 11.88 10.4104 13.0469C10.8302 13.328 11.2722 13.5724 11.731 13.7779C11.7166 12.3061 11.4002 10.8384 10.8059 9.49285C10.4405 9.51899 10.0741 9.57426 9.70955 9.65925ZM7.83047 10.3893C8.31825 11.1663 8.91231 11.8469 9.58452 12.4207C9.494 11.5481 9.2838 10.697 8.95647 9.87915C8.88439 9.9046 8.81239 9.93081 8.74064 9.95873C8.4229 10.0823 8.11946 10.2269 7.83047 10.3893ZM13.8377 9.93975C14.3724 11.4122 14.6308 12.9501 14.6074 14.526C15.0415 14.5642 15.4801 14.5706 15.92 14.5441C15.8947 13.2292 15.6784 11.9319 15.2762 10.6815C14.8258 10.3804 14.3429 10.1316 13.8377 9.93975ZM16.3244 11.5365C16.5503 12.4949 16.6758 13.4739 16.6994 14.4627C17.1363 14.3974 17.5722 14.2989 18.004 14.166C17.9847 14.1126 17.9648 14.0592 17.9441 14.006C17.5713 13.048 17.0121 12.2166 16.3244 11.5365Z" fill="#6D87F7"/>
<path fill-rule="evenodd" clip-rule="evenodd" d="M15.9999 2.55589C17.3066 3.55439 17.2533 3.24789 16.3618 4.63977C18.0213 4.55008 17.7607 4.35536 17.9582 5.99963C19.1508 4.86819 18.8486 4.86894 20.0415 6C20.2399 4.34694 20.0026 4.55139 21.6379 4.63995C20.7457 3.24789 20.6926 3.55439 21.9999 2.55589C20.4354 2.0719 20.589 2.34132 20.9581 0.723834C19.4534 1.3739 19.7414 1.48025 19 0C18.2588 1.48025 18.5466 1.3739 17.0418 0.723647C17.4108 2.34151 17.5646 2.07208 16.0001 2.55608L15.9999 2.55589Z" fill="#FFA725"/>
</svg>
