<svg width="26" height="27" viewBox="0 0 26 27" fill="none" xmlns="http://www.w3.org/2000/svg">
<path d="M6.80122 3.8999C7.42802 4.41747 7.89308 5.10167 8.14622 5.87862C8.50154 6.96924 8.41085 8.13298 7.89091 9.15539C7.37097 10.1778 6.48397 10.9366 5.39333 11.2919C3.05352 12.0542 1.7701 14.578 2.53245 16.9177C2.87667 17.9744 3.59737 18.8596 4.56168 19.4102C5.4386 19.911 6.4503 20.0986 7.43889 19.949C8.27088 21.7139 9.7528 23.1759 11.7102 23.9376C15.765 25.5154 20.3473 23.5002 21.9251 19.4455C23.5029 15.3908 21.4878 10.8084 17.4331 9.23063C13.3783 7.65284 8.79596 9.66798 7.21818 13.7227C6.50755 15.5489 6.52606 17.4821 7.13123 19.1996C6.37756 19.2734 5.61608 19.1128 4.94904 18.7319C4.15368 18.2777 3.55922 17.5475 3.27523 16.6758C2.64638 14.7456 3.70515 12.6636 5.63536 12.0348C6.92437 11.6148 7.97278 10.718 8.58729 9.50957C9.20184 8.30112 9.30897 6.92569 8.88902 5.63663C8.58994 4.7185 8.03997 3.90963 7.29868 3.2975C7.26562 3.27022 7.22943 3.24926 7.19157 3.23453C7.03882 3.17509 6.85884 3.21668 6.74875 3.34997C6.61137 3.51636 6.63486 3.76253 6.80122 3.8999ZM12.9149 20.6624C13.5307 21.7754 14.2991 22.7813 15.2064 23.6638C14.5305 23.7255 13.8395 23.6908 13.1532 23.5507C12.4418 22.7063 11.8374 21.7784 11.3516 20.7848C11.8742 20.7728 12.396 20.7318 12.9149 20.6624ZM10.4842 20.7776C10.8658 21.6144 11.3253 22.4097 11.8571 23.1544C10.5346 22.6084 9.46153 21.7039 8.70682 20.5976C9.29649 20.695 9.89 20.7549 10.4842 20.7776ZM16.1844 23.5053C15.2115 22.6464 14.3902 21.6473 13.737 20.528C14.2313 20.4324 14.7217 20.3105 15.2063 20.1625C15.8847 21.2294 16.7231 22.1681 17.7059 22.9612C17.2217 23.1989 16.7111 23.3818 16.1844 23.5053ZM19.2473 18.1961C19.7047 18.8374 20.2429 19.4135 20.8525 19.9145C20.6318 20.3314 20.3735 20.7189 20.0835 21.0744C19.2869 20.4791 18.5958 19.7711 18.0226 18.9631C18.4441 18.728 18.8527 18.4718 19.2473 18.1961ZM17.3243 19.328C17.9419 20.218 18.69 20.9982 19.5548 21.6543C19.2127 21.9895 18.8391 22.2871 18.4411 22.5447C17.47 21.8053 16.6416 20.9195 15.9713 19.9053C16.4335 19.7353 16.8849 19.5425 17.3243 19.328ZM21.1907 19.178C20.6954 18.7496 20.2549 18.2651 19.8756 17.7314C20.5159 17.2299 21.1134 16.6735 21.6614 16.0674C21.7376 17.0901 21.5931 18.1445 21.1971 19.1622C21.195 19.1675 21.1928 19.1727 21.1907 19.178ZM21.5101 15.046C19.9417 16.9602 17.8757 18.4077 15.5264 19.2356C13.1608 20.0692 10.6267 20.2301 8.18752 19.7038C8.01251 19.3454 7.86757 18.9725 7.7544 18.5895C10.2223 19.2111 12.782 19.0831 15.197 18.2101C16.4649 17.7519 17.6466 17.1011 18.7093 16.2759C19.6228 15.5665 20.43 14.7412 21.1165 13.8176C21.284 14.2137 21.4161 14.6248 21.5101 15.046ZM7.46342 16.6855C9.78292 17.3778 12.2847 17.3027 14.5642 16.4629C16.8244 15.6303 18.7651 14.0872 20.0783 12.0901C20.3184 12.3854 20.5337 12.6988 20.7229 13.0266C20.0311 14.0258 19.1934 14.9107 18.2301 15.6588C17.2321 16.4338 16.1223 17.045 14.9314 17.4754C12.5374 18.3407 9.9921 18.4267 7.5569 17.7275C7.50042 17.3846 7.46889 17.0364 7.46342 16.6855ZM7.66114 14.9141C11.8474 16.2003 16.3926 14.5107 18.719 10.8089C19.0096 11.0177 19.2815 11.2467 19.5334 11.4929C18.3114 13.4325 16.4607 14.9317 14.2942 15.7299C12.1107 16.5342 9.70809 16.5845 7.49704 15.878C7.52904 15.5564 7.58349 15.2345 7.66114 14.9141ZM13.0032 9.65225C13.4077 9.56007 13.8216 9.50322 14.24 9.48309C13.6474 10.9373 13.3521 12.5125 13.3795 14.0838C12.9507 14.2295 12.5107 14.3429 12.0634 14.4224C12.0511 12.7755 12.3664 11.1736 13.0032 9.65225ZM16.1808 9.65925C15.7562 10.743 15.5209 11.88 15.48 13.0469C15.0602 13.328 14.6182 13.5724 14.1593 13.7779C14.1738 12.3061 14.4902 10.8384 15.0845 9.49285C15.4498 9.51899 15.8163 9.57426 16.1808 9.65925ZM18.0599 10.3893C17.5721 11.1663 16.9781 11.8469 16.3059 12.4207C16.3964 11.5481 16.6066 10.697 16.9339 9.87915C17.006 9.9046 17.078 9.93081 17.1497 9.95873C17.4675 10.0823 17.7709 10.2269 18.0599 10.3893ZM12.0527 9.93975C11.518 11.4122 11.2596 12.9501 11.283 14.526C10.8489 14.5642 10.4102 14.5706 9.97035 14.5441C9.99572 13.2292 10.212 11.9319 10.6142 10.6815C11.0646 10.3804 11.5475 10.1316 12.0527 9.93975ZM9.56596 11.5365C9.34008 12.4949 9.21458 13.4739 9.19094 14.4627C8.7541 14.3974 8.31816 14.2989 7.88634 14.166C7.90566 14.1126 7.92554 14.0592 7.94626 14.006C8.31904 13.048 8.87824 12.2166 9.56596 11.5365Z" fill="#6D87F7"/>
<path fill-rule="evenodd" clip-rule="evenodd" d="M9.89062 2.55589C8.5839 3.55439 8.63719 3.24789 9.52868 4.63977C7.86924 4.55008 8.12977 4.35536 7.9323 5.99963C6.73971 4.86819 7.04191 4.86894 5.84896 6C5.65056 4.34694 5.88786 4.55139 4.25257 4.63995C5.1448 3.24789 5.1979 3.55439 3.89062 2.55589C5.45511 2.0719 5.30152 2.34132 4.93239 0.723834C6.43714 1.3739 6.14913 1.48025 6.89053 0C7.63175 1.48025 7.34393 1.3739 8.84868 0.723647C8.47973 2.34151 8.32595 2.07208 9.89044 2.55608L9.89062 2.55589Z" fill="#FFA725"/>
</svg>
