<svg aria-hidden="true" xmlns="http://www.w3.org/2000/svg" xmlns:xlink="http://www.w3.org/1999/xlink"><symbol viewBox="0 0 24 24" id="accaunt-exit" xmlns="http://www.w3.org/2000/svg">
<g clip-path="url(#aaclip0_1739_98)">
<path d="M17.0313 1.125C17.0313 0.826632 16.9128 0.540483 16.7018 0.329506C16.4908 0.118526 16.2047 0 15.9063 0H5.30072C4.3065 0.0011158 3.35332 0.396563 2.6503 1.09958C1.94728 1.8026 1.55184 2.75578 1.55072 3.75V20.25C1.55184 21.2442 1.94728 22.1974 2.6503 22.9004C3.35332 23.6034 4.3065 23.9989 5.30072 24H15.9063C16.2047 24 16.4908 23.8815 16.7018 23.6705C16.9128 23.4595 17.0313 23.1734 17.0313 22.875C17.0313 22.5766 16.9128 22.2905 16.7018 22.0795C16.4908 21.8685 16.2047 21.75 15.9063 21.75H5.30072C4.90303 21.7496 4.52175 21.5914 4.24054 21.3102C3.95933 21.029 3.80115 20.6477 3.80072 20.25V3.75C3.80114 3.3523 3.95931 2.97102 4.24053 2.68981C4.52174 2.40859 4.90303 2.25042 5.30072 2.25H15.9063C16.2047 2.25 16.4908 2.13147 16.7018 1.92049C16.9128 1.70952 17.0313 1.42337 17.0313 1.125ZM22.1198 12.7955L16.7736 18.1417C16.6696 18.248 16.5455 18.3327 16.4085 18.3908C16.2715 18.4489 16.1243 18.4792 15.9755 18.48C15.8267 18.4809 15.6793 18.4522 15.5416 18.3956C15.404 18.339 15.279 18.2557 15.1738 18.1505C15.0686 18.0453 14.9853 17.9202 14.9287 17.7826C14.8722 17.645 14.8435 17.4975 14.8443 17.3487C14.8452 17.1999 14.8755 17.0528 14.9336 16.9158C14.9917 16.7788 15.0764 16.6547 15.1828 16.5507L18.6083 13.125H9.75192C9.45356 13.125 9.16741 13.0065 8.95643 12.7955C8.74545 12.5845 8.62692 12.2984 8.62692 12C8.62692 11.7016 8.74545 11.4155 8.95643 11.2045C9.16741 10.9935 9.45356 10.875 9.75192 10.875H18.6083L15.1826 7.44938C15.0777 7.34501 14.9944 7.22097 14.9375 7.08436C14.8806 6.94774 14.8512 6.80124 14.851 6.65325C14.8508 6.50525 14.8798 6.35868 14.9363 6.22191C14.9928 6.08514 15.0758 5.96087 15.1805 5.85622C15.2851 5.75158 15.4094 5.6686 15.5461 5.61206C15.6829 5.55552 15.8295 5.52652 15.9775 5.52672C16.1255 5.52692 16.272 5.55632 16.4086 5.61324C16.5452 5.67015 16.6692 5.75346 16.7736 5.85839L22.1198 11.2045C22.3307 11.4155 22.4493 11.7016 22.4493 12C22.4493 12.2983 22.3307 12.5845 22.1198 12.7955Z"/>
</g>
<defs>
<clipPath id="aaclip0_1739_98">
<rect width="24" height="24" transform="matrix(1 0 0 -1 0 24)"/>
</clipPath>
</defs>
</symbol><symbol viewBox="0 0 7 12" id="arrow-left" xmlns="http://www.w3.org/2000/svg">
<path d="M0.46967 5.46967C0.176777 5.76256 0.176777 6.23744 0.46967 6.53033L5.24264 11.3033C5.53553 11.5962 6.01041 11.5962 6.3033 11.3033C6.59619 11.0104 6.59619 10.5355 6.3033 10.2426L2.06066 6L6.3033 1.75736C6.59619 1.46447 6.59619 0.989592 6.3033 0.696699C6.01041 0.403806 5.53553 0.403806 5.24264 0.696699L0.46967 5.46967ZM2 5.25H1V6.75H2V5.25Z"/>
</symbol><symbol viewBox="0 0 22 8" id="arrow-line-left" xmlns="http://www.w3.org/2000/svg">
<path d="M21.4925 4.44847H0.507923C0.258307 4.44847 0.0566406 4.24681 0.0566406 3.99719C0.0566406 3.74758 0.258307 3.54591 0.507923 3.54591H20.4024L17.6637 0.80719C17.4874 0.630908 17.4874 0.344626 17.6637 0.168344C17.84 -0.0079377 18.1263 -0.0079377 18.3025 0.168344L21.8127 3.67847C21.9424 3.80822 21.9805 4.00142 21.91 4.17065C21.8395 4.33847 21.6745 4.44847 21.4925 4.44847Z"/>
<path d="M17.9783 7.9629C17.8626 7.9629 17.747 7.91918 17.6596 7.83034C17.4833 7.65406 17.4833 7.36777 17.6596 7.19149L21.1739 3.67713C21.3502 3.50085 21.6365 3.50085 21.8128 3.67713C21.989 3.85342 21.989 4.1397 21.8128 4.31598L18.2984 7.83034C18.2096 7.91918 18.0939 7.9629 17.9783 7.9629Z"/>
</symbol><symbol viewBox="0 0 32 12" id="arrow-right" xmlns="http://www.w3.org/2000/svg">
<path d="M31.2615 6.65232H0.738442C0.375365 6.65232 0.0820312 6.35899 0.0820312 5.99591C0.0820312 5.63284 0.375365 5.3395 0.738442 5.3395H29.6759L25.6923 1.35591C25.4359 1.0995 25.4359 0.683093 25.6923 0.426683C25.9487 0.170272 26.3651 0.170272 26.6215 0.426683L31.7272 5.53232C31.9159 5.72104 31.9713 6.00207 31.8687 6.24822C31.7661 6.49232 31.5261 6.65232 31.2615 6.65232Z"/>
<path d="M26.1498 11.7641C25.9816 11.7641 25.8134 11.7005 25.6862 11.5713C25.4298 11.3149 25.4298 10.8985 25.6862 10.6421L30.798 5.53026C31.0544 5.27385 31.4708 5.27385 31.7272 5.53026C31.9836 5.78667 31.9836 6.20308 31.7272 6.45949L26.6154 11.5713C26.4862 11.7005 26.318 11.7641 26.1498 11.7641Z"/>
</symbol><symbol viewBox="0 0 48 47" id="bigmarket" xmlns="http://www.w3.org/2000/svg">
<path d="M23.9526 2.93787C18.5323 2.93787 13.921 5.39567 12.2026 8.81287H35.7026C33.9842 5.39567 29.373 2.93787 23.9526 2.93787Z"/>
<path d="M43.0464 10.2816H4.85889C4.04778 10.2816 3.39014 10.9393 3.39014 11.7504V17.6254C3.39014 18.4365 4.04778 19.0941 4.85889 19.0941H7.79639V15.4222C7.79639 15.0163 8.12485 14.6879 8.53076 14.6879C8.93668 14.6879 9.26514 15.0163 9.26514 15.4222V19.0941H13.6714V15.4222C13.6714 15.0163 13.9998 14.6879 14.4058 14.6879C14.8117 14.6879 15.1401 15.0163 15.1401 15.4222V19.0941H19.5464V15.4222C19.5464 15.0163 19.8748 14.6879 20.2808 14.6879C20.6867 14.6879 21.0151 15.0163 21.0151 15.4222V19.0941H26.8901V15.4222C26.8901 15.0163 27.2186 14.6879 27.6245 14.6879C28.0304 14.6879 28.3589 15.0163 28.3589 15.4222V19.0941H32.7651V15.4222C32.7651 15.0163 33.0936 14.6879 33.4995 14.6879C33.9054 14.6879 34.2339 15.0163 34.2339 15.4222V19.0941H38.6401V15.4222C38.6401 15.0163 38.9686 14.6879 39.3745 14.6879C39.7804 14.6879 40.1089 15.0163 40.1089 15.4222V19.0941H43.0464C43.8575 19.0941 44.5151 18.4365 44.5151 17.6254V11.7504C44.5151 10.9393 43.8575 10.2816 43.0464 10.2816Z"/>
<path d="M29.6217 27.9064H33.4995C33.9054 27.9064 34.2339 28.2349 34.2339 28.6408C34.2339 29.0467 33.9054 29.3752 33.4995 29.3752H32.6593L31.5376 36.514C31.2551 38.3055 29.5683 39.6566 27.6133 39.6566H20.2925C18.3368 39.6566 16.65 38.3055 16.3682 36.514L15.2465 29.3752H14.4058C13.9998 29.3752 13.6714 29.0467 13.6714 28.6408C13.6714 28.2349 13.9998 27.9064 14.4058 27.9064H18.2836L20.7314 20.5629H6.32764V42.5941C6.32764 43.4052 6.98519 44.0629 7.79639 44.0629H40.1089C40.9201 44.0629 41.5776 43.4052 41.5776 42.5941V20.5629H27.1739L29.6217 27.9064Z"/>
<path d="M22.279 20.5629L19.8312 27.9064H28.0741L25.6262 20.5629H22.279Z"/>
<path d="M18.8121 29.3766C18.8091 29.3766 18.8061 29.3752 18.8031 29.3752H16.7336L17.8197 36.2874C17.9897 37.3703 19.0525 38.1879 20.2925 38.1879H27.6133C28.8525 38.1879 29.9154 37.3703 30.0861 36.2859L31.172 29.3752H29.1021C29.0991 29.3752 29.0961 29.3766 29.0931 29.3766L29.0887 29.3752H18.8166L18.8121 29.3766Z"/>
</symbol><symbol viewBox="0 0 51 50" id="booster" xmlns="http://www.w3.org/2000/svg">
<path fill-rule="evenodd" clip-rule="evenodd" d="M9.52927 37.3356C8.62525 37.4778 5.388 38.1461 4.51062 40.5161L6.39035 40.516C6.65971 40.516 6.89789 40.6877 6.98264 40.9433C7.06658 41.1981 6.97906 41.4769 6.7632 41.637C6.12008 42.12 4.63464 43.487 4.66495 45.7861C6.96842 45.8163 8.33147 44.332 8.81499 43.6864C8.97653 43.4717 9.25571 43.3852 9.50906 43.47C9.76429 43.555 9.93548 43.7925 9.93548 44.0607V45.9416C12.3138 45.0628 12.9756 41.8255 13.1158 40.9224L9.52927 37.3356Z"/>
<path fill-rule="evenodd" clip-rule="evenodd" d="M8.42051 32.2449L7.27349 33.3919C7.20925 33.4566 7.20919 33.5623 7.27344 33.6269L10.0456 36.3989C10.0675 36.4175 10.088 36.4379 10.1066 36.4599L14.0023 40.3555C14.0162 40.3679 14.0294 40.3812 14.0419 40.3951L16.826 43.1792C16.8912 43.2434 16.9964 43.2439 17.0615 43.1793L18.208 42.0322L8.42051 32.2449Z"/>
<path fill-rule="evenodd" clip-rule="evenodd" d="M11.9554 26.7378L8.16107 30.5321L19.9208 42.2916L23.7263 38.4858C23.7344 38.4771 23.7428 38.4687 23.7515 38.4606L31.5299 30.6817L31.5378 30.6739L36.2738 25.9376C39.2885 22.9228 41.7216 19.4203 43.4909 15.6104C41.7085 15.0814 39.807 13.8888 38.1855 12.2671C36.5634 10.6445 35.3702 8.74368 34.8421 6.96222C31.0325 8.73133 27.53 11.164 24.515 14.1783L19.7978 18.8954C19.7835 18.9117 19.7681 18.927 19.7519 18.9413L12.0037 26.6895C11.9886 26.7066 11.9726 26.7228 11.9554 26.7378ZM30.4689 26.6812C26.7757 26.6812 23.7719 23.6772 23.7719 19.9846C23.7719 16.2918 26.7756 13.2879 30.4689 13.2879C34.1613 13.2878 37.165 16.2919 37.165 19.9846C37.165 23.6772 34.1613 26.6813 30.4689 26.6812Z"/>
<path fill-rule="evenodd" clip-rule="evenodd" d="M31.3441 32.3215L24.6158 39.0503L24.6159 46.2434L25.4223 45.4369C28.964 41.8952 31.0394 37.278 31.3441 32.3215Z"/>
<path fill-rule="evenodd" clip-rule="evenodd" d="M18.1313 19.1088C13.1758 19.4135 8.55879 21.4889 5.01548 25.0308L4.20996 25.8371H11.4027L18.1313 19.1088Z"/>
<path fill-rule="evenodd" clip-rule="evenodd" d="M27.3367 19.9845C27.3368 21.7113 28.7418 23.1164 30.4689 23.1164C32.1952 23.1163 33.6002 21.7114 33.6002 19.9845C33.6002 18.2575 32.1951 16.8526 30.469 16.8526C28.7419 16.8526 27.3367 18.2576 27.3367 19.9845Z"/>
<path fill-rule="evenodd" clip-rule="evenodd" d="M30.4689 24.1441C28.1754 24.1441 26.309 22.2783 26.309 19.9846C26.3091 17.6909 28.1753 15.8251 30.4689 15.8251C32.7625 15.825 34.6279 17.691 34.6279 19.9846C34.6279 22.2782 32.7625 24.1442 30.4689 24.1441ZM24.7996 19.9846C24.7996 23.1104 27.343 25.6537 30.4689 25.6537C33.5949 25.6536 36.1373 23.1105 36.1373 19.9846C36.1373 16.8585 33.5948 14.3155 30.4689 14.3154C27.343 14.3154 24.7996 16.8587 24.7996 19.9846Z"/>
<path fill-rule="evenodd" clip-rule="evenodd" d="M35.7895 6.53823C36.2458 8.19293 37.3655 9.99333 38.9126 11.5405C40.459 13.0865 42.2588 14.2065 43.9148 14.6632C45.3959 11.2184 46.3425 7.5405 46.6953 3.75739C42.9123 4.11045 39.2344 5.05704 35.7895 6.53823Z"/>
</symbol><symbol viewBox="0 0 13 13" id="btn-arrow" xmlns="http://www.w3.org/2000/svg">
<g opacity="0.8" clip-path="url(#agclip0_2859_2424)">
<path d="M0.870823 7.13715L0.852092 7.13305L8.88195 7.13305L6.35765 9.66291C6.23404 9.78642 6.16624 9.95374 6.16624 10.1293C6.16624 10.305 6.23404 10.4711 6.35765 10.5949L6.75043 10.9879C6.87395 11.1114 7.03853 11.1797 7.21404 11.1797C7.38965 11.1797 7.55434 11.1119 7.67785 10.9884L12.005 6.66164C12.129 6.53764 12.1968 6.37247 12.1963 6.19676C12.1968 6.02008 12.129 5.85481 12.005 5.731L7.67785 1.40388C7.55434 1.28047 7.38975 1.21257 7.21404 1.21257C7.03853 1.21257 6.87395 1.28057 6.75043 1.40388L6.35765 1.79686C6.23404 1.92018 6.16624 2.08486 6.16624 2.26047C6.16624 2.43598 6.23404 2.59198 6.35765 2.7154L8.91043 5.25939L0.861847 5.25939C0.500189 5.25939 0.196286 5.5711 0.196286 5.93257L0.196286 6.48837C0.196286 6.84983 0.509165 7.13715 0.870823 7.13715Z"/>
</g>
<defs>
<clipPath id="agclip0_2859_2424">
<rect width="12" height="12" transform="matrix(-1 0 0 -1 12.1963 12.1962)"/>
</clipPath>
</defs>
</symbol><symbol viewBox="0 0 15 15" id="cat" xmlns="http://www.w3.org/2000/svg">
<g clip-path="url(#ahclip0_98_184)">
<path d="M7.5 14.5312C7.28364 14.5311 7.07066 14.4776 6.87997 14.3753C6.68927 14.2731 6.52677 14.1254 6.40688 13.9453L6.07875 13.4531C6.01098 13.3521 5.91934 13.2693 5.81196 13.212C5.70457 13.1548 5.58473 13.1249 5.46305 13.125C5.26657 13.125 5.07814 13.2031 4.93922 13.342L4.29609 13.9852C4.19728 14.084 4.07995 14.1624 3.95082 14.2159C3.82169 14.2694 3.68329 14.2969 3.54352 14.2969C2.97668 14.2969 2.43306 14.0717 2.03224 13.6709C1.63143 13.2701 1.40625 12.7264 1.40625 12.1596C1.40622 11.8077 1.49308 11.4613 1.65912 11.151C1.82516 10.8408 2.06524 10.5763 2.35805 10.3812L3.57094 9.57258C3.99642 9.28876 4.34668 8.90593 4.59164 8.45695L4.72711 8.20852C4.99885 7.71038 5.39975 7.29465 5.88768 7.00501C6.37562 6.71536 6.93257 6.56251 7.5 6.5625C8.06743 6.56251 8.62438 6.71536 9.11232 7.00501C9.60025 7.29465 10.0012 7.71038 10.2729 8.20852L10.4084 8.45695C10.6533 8.90593 11.0036 9.28876 11.4291 9.57258L12.642 10.3812C12.9348 10.5763 13.1748 10.8408 13.3409 11.151C13.5069 11.4613 13.5938 11.8077 13.5938 12.1596C13.5938 12.7264 13.3686 13.2701 12.9678 13.6709C12.5669 14.0717 12.0233 14.2969 11.4565 14.2969C11.3167 14.2969 11.1783 14.2694 11.0492 14.2159C10.92 14.1624 10.8027 14.084 10.7039 13.9852L10.0608 13.342C9.92186 13.2031 9.73343 13.125 9.53695 13.125C9.41504 13.125 9.29501 13.1551 9.18753 13.2126C9.08004 13.2702 8.98841 13.3533 8.92078 13.4548L8.59266 13.947C8.47262 14.1267 8.31011 14.274 8.11952 14.376C7.92892 14.4779 7.71613 14.5312 7.5 14.5312Z"/>
<path d="M6.79688 3.44344V3.53133C6.79688 3.98659 6.72352 4.43887 6.57961 4.87078C6.50641 5.09042 6.36594 5.28146 6.17812 5.41682C5.9903 5.55219 5.76464 5.62502 5.53312 5.625C5.34608 5.62497 5.16211 5.57737 4.99852 5.48668C4.83493 5.39599 4.6971 5.26518 4.59797 5.10656L4.53469 5.00531C4.02187 4.18493 3.74997 3.23693 3.75 2.26945C3.75004 1.85802 3.86192 1.45433 4.07367 1.10156C4.1894 0.908581 4.35314 0.748863 4.54894 0.637964C4.74473 0.527066 4.96592 0.468768 5.19094 0.46875C5.45615 0.468751 5.71505 0.549691 5.93304 0.700755C6.15103 0.851819 6.31773 1.06581 6.41086 1.31414C6.66612 1.99503 6.79687 2.71627 6.79688 3.44344Z"/>
<path d="M8.20313 3.44344V3.53133C8.20312 3.98659 8.27648 4.43887 8.42039 4.87078C8.49359 5.09042 8.63406 5.28146 8.82188 5.41682C9.0097 5.55219 9.23536 5.62502 9.46687 5.625C9.65392 5.62497 9.83789 5.57737 10.0015 5.48668C10.1651 5.39599 10.3029 5.26518 10.402 5.10656L10.4653 5.00531C10.9781 4.18493 11.25 3.23693 11.25 2.26945C11.25 1.85802 11.1381 1.45433 10.9263 1.10156C10.8106 0.908581 10.6469 0.748863 10.4511 0.637964C10.2553 0.527066 10.0341 0.468768 9.80906 0.46875C9.54405 0.468989 9.2854 0.55004 9.06765 0.701088C8.84989 0.852137 8.68337 1.066 8.59031 1.31414C8.33465 1.99496 8.2035 2.7162 8.20313 3.44344Z"/>
<path d="M11.25 6.72469V6.81258C11.25 7.26784 11.3234 7.72012 11.4673 8.15203C11.5405 8.37167 11.6809 8.56271 11.8688 8.69807C12.0566 8.83344 12.2822 8.90627 12.5137 8.90625C12.7008 8.90622 12.8848 8.85862 13.0484 8.76793C13.2119 8.67724 13.3498 8.54643 13.4489 8.38781L13.5122 8.28656C14.025 7.46618 14.2969 6.51818 14.2969 5.5507C14.2968 5.13927 14.185 4.73558 13.9732 4.38281C13.8575 4.18983 13.6937 4.03011 13.4979 3.91921C13.3021 3.80832 13.081 3.75002 12.8559 3.75C12.5909 3.75024 12.3323 3.83129 12.1145 3.98234C11.8968 4.13339 11.7302 4.34725 11.6372 4.59539C11.3815 5.27621 11.2504 5.99745 11.25 6.72469Z"/>
<path d="M3.75 6.72469V6.81258C3.75001 7.26784 3.67665 7.72012 3.53273 8.15203C3.45953 8.37167 3.31907 8.56271 3.13125 8.69807C2.94342 8.83344 2.71777 8.90627 2.48625 8.90625C2.2992 8.90622 2.11524 8.85862 1.95165 8.76793C1.78806 8.67724 1.65022 8.54643 1.55109 8.38781L1.48781 8.28656C0.974998 7.46618 0.703096 6.51818 0.703125 5.5507C0.703167 5.13927 0.815046 4.73558 1.0268 4.38281C1.14253 4.18983 1.30626 4.03011 1.50206 3.91921C1.69786 3.80832 1.91904 3.75002 2.14406 3.75C2.40928 3.75 2.66818 3.83094 2.88617 3.982C3.10416 4.13307 3.27086 4.34706 3.36398 4.59539C3.61924 5.27628 3.75 5.99752 3.75 6.72469Z"/>
</g>
<defs>
<clipPath id="ahclip0_98_184">
<rect width="15" height="15"/>
</clipPath>
</defs>
</symbol><symbol viewBox="0 0 22 22" id="close" xmlns="http://www.w3.org/2000/svg">
<g clip-path="url(#aiclip0_98_237)">
<path d="M12.9457 11.0003L21.5969 2.34903C22.1344 1.812 22.1344 0.94064 21.5969 0.403607C21.0594 -0.133885 20.1889 -0.133885 19.6515 0.403607L11.0002 9.05483L2.34854 0.403607C1.81105 -0.133885 0.94061 -0.133885 0.403119 0.403607C-0.134373 0.94064 -0.134373 1.812 0.403119 2.34903L9.0548 11.0003L0.403119 19.6515C-0.134373 20.1885 -0.134373 21.0599 0.403119 21.5969C0.671864 21.8652 1.02408 21.9996 1.37583 21.9996C1.72759 21.9996 2.0798 21.8652 2.34854 21.5965L11.0002 12.9452L19.6515 21.5965C19.9202 21.8652 20.2724 21.9996 20.6242 21.9996C20.9759 21.9996 21.3281 21.8652 21.5969 21.5965C22.1344 21.0594 22.1344 20.1881 21.5969 19.651L12.9457 11.0003Z"/>
</g>
<defs>
<clipPath id="aiclip0_98_237">
<rect width="22" height="22"/>
</clipPath>
</defs>
</symbol><symbol viewBox="0 0 14 18" id="defence" xmlns="http://www.w3.org/2000/svg">
<path d="M13.4052 2.18199C8.1427 2.18199 7.25162 0.18401 7.24367 0.165268C7.20505 0.0675838 7.11077 0.00227172 7.00173 0C7.00173 0 7.0006 0 6.99832 0C6.89326 0 6.79728 0.065312 6.75639 0.160724C6.749 0.181738 5.83861 2.18199 0.594904 2.18199C0.448945 2.18199 0.33252 2.30069 0.33252 2.44381V11.3967C0.33252 15.0615 6.62803 17.8614 6.89382 17.979C6.92904 17.9943 6.96368 18 7.0006 18C7.03524 18 7.07215 17.9943 7.10509 17.979C7.37373 17.8614 13.6681 15.0615 13.6681 11.3967V2.44381C13.6675 2.30069 13.5511 2.18199 13.4052 2.18199ZM12.221 10.8759C12.221 13.7434 7.29251 15.9373 7.08238 16.0281C7.05682 16.0412 7.02729 16.0457 7.0006 16.0457C6.97163 16.0457 6.94494 16.0412 6.91654 16.0281C6.70925 15.9373 1.78074 13.7434 1.78074 10.8759V3.86818C1.78074 3.75516 1.87218 3.66202 1.98577 3.66202C6.09191 3.66202 6.80239 2.0968 6.81034 2.08147C6.84271 2.00593 6.91711 1.95482 7.00003 1.95482C7.00116 1.95482 7.0023 1.95482 7.0023 1.95482C7.08692 1.95595 7.16075 2.00707 7.19142 2.08487C7.19767 2.09907 7.89509 3.66202 12.0154 3.66202C12.1296 3.66202 12.2204 3.75516 12.2204 3.86818L12.221 10.8759ZM11.2379 10.7998C11.2379 13.1294 7.23686 14.9082 7.06591 14.9814C7.04546 14.9934 7.02104 14.9968 6.99946 14.9968C6.97618 14.9968 6.93301 3.55809 6.99946 3.55809H7.0006C7.06931 3.55922 7.13065 3.60011 7.1545 3.66372C7.15905 3.67508 7.72584 4.94384 11.0704 4.94384C11.1635 4.94384 11.2379 5.01937 11.2379 5.11024V10.7998Z"/>
</symbol><symbol viewBox="0 0 20 20" id="emoji" xmlns="http://www.w3.org/2000/svg">
<g clip-path="url(#akclip0_1709_1653)">
<path d="M2.92535 2.92632C6.82658 -0.975283 13.1738 -0.975282 17.0743 2.92538C20.9755 6.82604 20.9751 13.1734 17.0739 17.0749C13.1738 20.9753 6.82658 20.9753 2.92573 17.0741C-0.975117 13.1734 -0.974928 6.82641 2.92535 2.92632ZM4.01701 15.9832C7.31593 19.2821 12.6839 19.2825 15.983 15.9836C19.2827 12.6841 19.2823 7.31557 15.983 4.01666C12.6841 0.717926 7.3163 0.717549 4.01663 4.01703C0.717712 7.31595 0.71809 12.6845 4.01701 15.9832ZM13.7318 7.29238C13.7318 6.6467 13.2081 6.12303 12.5624 6.12303C11.917 6.12303 11.3933 6.64651 11.3933 7.29238C11.3933 7.93844 11.917 8.46192 12.5624 8.46192C13.2081 8.46192 13.7318 7.93844 13.7318 7.29238ZM8.42965 7.29238C8.42965 6.6467 7.9056 6.12303 7.25992 6.12303C6.61443 6.12303 6.09076 6.64651 6.09076 7.29238C6.09076 7.93844 6.61424 8.46192 7.25992 8.46192C7.9056 8.46192 8.42965 7.93844 8.42965 7.29238ZM5.66515 12.0816C6.38984 13.7575 8.08701 14.8403 9.98859 14.8403C11.9311 14.8403 13.6383 13.752 14.3379 12.0676C14.4578 11.7793 14.3211 11.4482 14.0324 11.3282C13.9615 11.299 13.8879 11.2851 13.8155 11.2851C13.5938 11.2851 13.3833 11.4161 13.293 11.6339C12.7693 12.8947 11.4723 13.709 9.98859 13.709C8.53846 13.709 7.24898 12.8942 6.70363 11.6326C6.57955 11.3458 6.24652 11.2136 5.95989 11.3379C5.67326 11.4621 5.54107 11.795 5.66515 12.0816Z"/>
</g>
<defs>
<clipPath id="akclip0_1709_1653">
<rect width="20" height="20" transform="matrix(-1 0 0 1 20 0)"/>
</clipPath>
</defs>
</symbol><symbol viewBox="0 0 30 30" id="eye" xmlns="http://www.w3.org/2000/svg">
<g clip-path="url(#alclip0_956_1528)">
<path d="M0.20315 15.6184C-0.0785198 15.2327 -0.0662746 14.706 0.233767 14.3325C4.7711 8.75424 9.66971 5.92529 14.801 5.92529C23.5022 5.92529 29.5458 14.0325 29.7969 14.3754C30.0785 14.7612 30.0663 15.2878 29.7663 15.6613C25.235 21.2457 20.3364 24.0746 15.2051 24.0746C6.50398 24.0746 0.460327 15.9674 0.20315 15.6184ZM15.2051 21.9744C19.4792 21.9744 23.643 19.623 27.5986 14.9938C26.0494 13.163 21.1263 8.02557 14.801 8.02557C10.527 8.02557 6.36315 10.3769 2.40752 15.0061C3.95671 16.8369 8.87981 21.9744 15.2051 21.9744Z"/>
<path d="M15.0031 9.66663C17.9422 9.66663 20.3364 12.0608 20.3364 15C20.3364 17.9392 17.9422 20.3333 15.0031 20.3333C12.0639 20.3333 9.66971 17.9392 9.66971 15C9.66971 12.0608 12.0639 9.66663 15.0031 9.66663ZM15.0031 18.2331C16.7849 18.2331 18.2361 16.7819 18.2361 15C18.2361 13.2181 16.7849 11.7669 15.0031 11.7669C13.2212 11.7669 11.77 13.2181 11.77 15C11.77 16.7819 13.2212 18.2331 15.0031 18.2331Z"/>
</g>
<defs>
<clipPath id="alclip0_956_1528">
<rect width="30" height="30" transform="matrix(-1 0 0 1 30 0)"/>
</clipPath>
</defs>
</symbol><symbol viewBox="0 0 21 22" id="fireworks" xmlns="http://www.w3.org/2000/svg">
<g clip-path="url(#amclip0_2274_17136)">
<mask id="ammask0_2274_17136" maskUnits="userSpaceOnUse" x="0" y="0" width="21" height="22">
<path d="M0.166504 0.666674H20.8332V21.3334H0.166504V0.666674Z"/>
</mask>
<g mask="url(#ammask0_2274_17136)">
<path d="M19.6795 11.9981C17.3982 10.7858 14.6816 11.2167 12.8857 12.8758" stroke-width="0.807292" stroke-miterlimit="10" stroke-linecap="round" stroke-linejoin="round"/>
<path d="M9.16825 2.68479C10.2078 4.64114 9.88262 6.95908 8.52637 8.54767" stroke-width="0.807292" stroke-miterlimit="10" stroke-linecap="round" stroke-linejoin="round"/>
<path d="M14.7749 15.9752L1.36051 20.8925C0.891233 21.0645 0.435395 20.6087 0.607429 20.1395L5.52469 6.72501C5.67226 6.32245 6.18764 6.20883 6.49082 6.512L14.9879 15.0092C15.2911 15.3123 15.1775 15.8277 14.7749 15.9752Z" stroke-width="0.807292" stroke-miterlimit="10" stroke-linecap="round" stroke-linejoin="round"/>
<path d="M4.58252 9.50468L7.00448 11.9266" stroke-width="0.807292" stroke-miterlimit="10" stroke-linecap="round" stroke-linejoin="round"/>
<path d="M3.8833 11.5008L9.99935 17.6168" stroke-width="0.807292" stroke-miterlimit="10" stroke-linecap="round" stroke-linejoin="round"/>
<path d="M2.55371 15.0723L6.42779 18.9464" stroke-width="0.807292" stroke-miterlimit="10" stroke-linecap="round" stroke-linejoin="round"/>
<path d="M1.76562 16.9799L4.52007 19.7343" stroke-width="0.807292" stroke-miterlimit="10" stroke-linecap="round" stroke-linejoin="round"/>
<path d="M12.3403 3.48418C12.3403 2.92266 12.7955 2.46747 13.357 2.46747C13.9185 2.46747 14.3737 2.01228 14.3737 1.45077" stroke-width="0.807292" stroke-miterlimit="10" stroke-linecap="round" stroke-linejoin="round"/>
<path d="M18.0484 5.16772C17.4612 5.16772 16.9852 5.64374 16.9852 6.23097C16.9852 6.81819 16.5091 7.29425 15.9219 7.29425" stroke-width="0.807292" stroke-miterlimit="10" stroke-linecap="round" stroke-linejoin="round"/>
<path d="M20.4299 8.47651C20.4299 8.96694 20.0323 9.36453 19.5418 9.36453C19.0514 9.36453 18.6538 8.96694 18.6538 8.47651C18.6538 7.98608 19.0514 7.58849 19.5418 7.58849C20.0323 7.58849 20.4299 7.98608 20.4299 8.47651Z" stroke-width="0.807292" stroke-miterlimit="10" stroke-linecap="round" stroke-linejoin="round"/>
<path d="M13.7741 6.23097C13.7741 6.7214 13.3765 7.11899 12.8861 7.11899C12.3956 7.11899 11.998 6.7214 11.998 6.23097C11.998 5.74054 12.3956 5.34294 12.8861 5.34294C13.3765 5.34294 13.7741 5.74054 13.7741 6.23097Z" stroke-width="0.807292" stroke-miterlimit="10" stroke-linecap="round" stroke-linejoin="round"/>
<path d="M6.22136 1.95823C6.22136 2.44866 5.82376 2.84625 5.33333 2.84625C4.8429 2.84625 4.44531 2.44866 4.44531 1.95823C4.44531 1.4678 4.8429 1.07021 5.33333 1.07021C5.82376 1.07021 6.22136 1.4678 6.22136 1.95823Z" stroke-width="0.807292" stroke-miterlimit="10" stroke-linecap="round" stroke-linejoin="round"/>
<path d="M18.527 15.5029L18.1465 15.1223" stroke-width="0.807292" stroke-miterlimit="10" stroke-linecap="round" stroke-linejoin="round"/>
<path d="M20.0493 17.0251L20.4299 17.4057" stroke-width="0.807292" stroke-miterlimit="10" stroke-linecap="round" stroke-linejoin="round"/>
<path d="M20.0493 15.5029L20.4299 15.1223" stroke-width="0.807292" stroke-miterlimit="10" stroke-linecap="round" stroke-linejoin="round"/>
<path d="M18.527 17.0251L18.1465 17.4057" stroke-width="0.807292" stroke-miterlimit="10" stroke-linecap="round" stroke-linejoin="round"/>
<path d="M20.0493 1.45078L20.4299 1.07022" stroke-width="0.807292" stroke-miterlimit="10" stroke-linecap="round" stroke-linejoin="round"/>
<path d="M18.527 2.97302L18.1465 3.35358" stroke-width="0.807292" stroke-miterlimit="10" stroke-linecap="round" stroke-linejoin="round"/>
<path d="M20.0493 2.97302L20.4299 3.35358" stroke-width="0.807292" stroke-miterlimit="10" stroke-linecap="round" stroke-linejoin="round"/>
<path d="M18.527 1.45078L18.1465 1.07022" stroke-width="0.807292" stroke-miterlimit="10" stroke-linecap="round" stroke-linejoin="round"/>
<path d="M9.57324 14.4954L11.9952 16.9174" stroke-width="0.807292" stroke-miterlimit="10" stroke-linecap="round" stroke-linejoin="round"/>
<path d="M11.6655 11.6864L13.016 10.3359" stroke-width="0.807292" stroke-miterlimit="10" stroke-linecap="round" stroke-linejoin="round"/>
<path d="M14.4635 8.88833L14.1709 9.18097" stroke-width="0.807292" stroke-miterlimit="10" stroke-linecap="round" stroke-linejoin="round"/>
</g>
</g>
<defs>
<clipPath id="amclip0_2274_17136">
<rect width="20.6667" height="20.6667" transform="translate(0.166504 0.666656)"/>
</clipPath>
</defs>
</symbol><symbol viewBox="0 0 15 15" id="home" xmlns="http://www.w3.org/2000/svg">
<g clip-path="url(#anclip0_98_167)">
<path d="M14.5956 6.52428C14.5952 6.52393 14.5949 6.52359 14.5946 6.52325L8.47574 0.404663C8.21493 0.143738 7.86817 0 7.49933 0C7.13049 0 6.78373 0.143623 6.5228 0.404549L0.407196 6.52004C0.405136 6.5221 0.403076 6.52428 0.401016 6.52634C-0.134567 7.06501 -0.133652 7.939 0.403648 8.4763C0.649124 8.72189 0.973335 8.86414 1.31998 8.87901C1.33405 8.88039 1.34824 8.88107 1.36255 8.88107H1.60642V13.384C1.60642 14.275 2.33141 15 3.22267 15H5.61655C5.85916 15 6.056 14.8033 6.056 14.5605V11.0303C6.056 10.6237 6.38673 10.2929 6.79334 10.2929H8.20531C8.61192 10.2929 8.94266 10.6237 8.94266 11.0303V14.5605C8.94266 14.8033 9.13938 15 9.38211 15H11.776C12.6673 15 13.3922 14.275 13.3922 13.384V8.88107H13.6184C13.9871 8.88107 14.3339 8.73745 14.5949 8.47652C15.1328 7.93831 15.133 7.06284 14.5956 6.52428Z"/>
</g>
<defs>
<clipPath id="anclip0_98_167">
<rect width="15" height="15"/>
</clipPath>
</defs>
</symbol><symbol viewBox="0 0 15 15" id="info" xmlns="http://www.w3.org/2000/svg">
<g clip-path="url(#aoclip0_1604_2602)">
<path d="M7.5 0C3.3645 0 0 3.36455 0 7.50005C0 11.6355 3.3645 15 7.5 15C11.6355 15 15 11.6355 15 7.50005C15 3.36455 11.6355 0 7.5 0ZM7.5 13.6364C4.11636 13.6364 1.36364 10.8836 1.36364 7.50005C1.36364 4.11646 4.11636 1.36364 7.5 1.36364C10.8836 1.36364 13.6364 4.11646 13.6364 7.50005C13.6364 10.8836 10.8836 13.6364 7.5 13.6364Z"/>
<path d="M7.50071 3.18164C6.99952 3.18164 6.5918 3.58964 6.5918 4.09114C6.5918 4.59219 6.99952 4.99982 7.50071 4.99982C8.00189 4.99982 8.40962 4.59219 8.40962 4.09114C8.40962 3.58964 8.00189 3.18164 7.50071 3.18164Z"/>
<path d="M7.50018 6.36377C7.12363 6.36377 6.81836 6.66904 6.81836 7.04559V11.1365C6.81836 11.513 7.12363 11.8183 7.50018 11.8183C7.87672 11.8183 8.182 11.513 8.182 11.1365V7.04559C8.182 6.66904 7.87672 6.36377 7.50018 6.36377Z"/>
</g>
<defs>
<clipPath id="aoclip0_1604_2602">
<rect width="15" height="15"/>
</clipPath>
</defs>
</symbol><symbol viewBox="0 0 66 102" id="layer-icon" xmlns="http://www.w3.org/2000/svg">
<path d="M0.409201 92.2822V51.0869H0.35836V9.89173C0.35836 4.78655 4.52719 0.692307 9.61114 0.692307C12.3056 0.692307 14.6951 1.80432 16.3728 3.62399L62.1283 44.2632C65.9412 47.6498 66.2463 53.4626 62.84 57.203C62.5858 57.4558 62.3316 57.759 62.0774 57.9612L15.7627 99.1059C11.9498 102.493 6.10321 102.189 2.74781 98.3983C1.17179 96.6291 0.409201 94.4556 0.409201 92.2822ZM18.8639 51.0869V71.7604L42.1484 51.0869L18.9148 30.4135V51.0869H18.8639Z"/>
</symbol><symbol viewBox="0 0 25 25" id="m-calc" xmlns="http://www.w3.org/2000/svg">
<path d="M1.5625 5.46875V11.7188H11.7188V1.5625H5.46875C3.31249 1.5625 1.5625 3.31249 1.5625 5.46875ZM6.64062 6.64062V5.85938C6.64062 5.4297 6.9922 5.07812 7.42188 5.07812C7.85155 5.07812 8.20312 5.4297 8.20312 5.85938V6.64062H8.98438C9.41405 6.64062 9.76562 6.9922 9.76562 7.42188C9.76562 7.85155 9.41405 8.20312 8.98438 8.20312H8.20312V8.98438C8.20312 9.41405 7.85155 9.76562 7.42188 9.76562C6.9922 9.76562 6.64062 9.41405 6.64062 8.98438V8.20312H5.85938C5.4297 8.20312 5.07812 7.85155 5.07812 7.42188C5.07812 6.9922 5.4297 6.64062 5.85938 6.64062H6.64062Z"/>
<path d="M1.5625 19.5312C1.5625 21.6875 3.31249 23.4375 5.46875 23.4375H11.7188V13.2812H1.5625V19.5312ZM5.76563 17.0234C5.46093 16.7187 5.46093 16.2265 5.76563 15.9219C6.07033 15.6172 6.56252 15.6172 6.86717 15.9219L7.42188 16.4765L7.97658 15.9219C8.28123 15.6172 8.77342 15.6172 9.07812 15.9219C9.38282 16.2265 9.38282 16.7187 9.07812 17.0234L8.52342 17.5781L9.07812 18.1328C9.38282 18.4375 9.38282 18.9297 9.07812 19.2344C8.92968 19.3906 8.72655 19.4609 8.52342 19.4609C8.3281 19.4609 8.12502 19.3906 7.97658 19.2344L7.42188 18.6797L6.86717 19.2344C6.71873 19.3906 6.51565 19.4609 6.32033 19.4609C6.1172 19.4609 5.91407 19.3906 5.76563 19.2344C5.46093 18.9297 5.46093 18.4375 5.76563 18.1328L6.32033 17.5781L5.76563 17.0234Z"/>
<path d="M19.5312 1.5625H13.2812V11.7188H23.4375V5.46875C23.4375 3.31249 21.6875 1.5625 19.5312 1.5625ZM19.1406 8.20312H16.0156C15.5859 8.20312 15.2344 7.85155 15.2344 7.42188C15.2344 6.9922 15.5859 6.64062 16.0156 6.64062H19.1406C19.5703 6.64062 19.9219 6.9922 19.9219 7.42188C19.9219 7.85155 19.5703 8.20312 19.1406 8.20312Z"/>
<path d="M13.2812 23.4375H19.5312C21.6875 23.4375 23.4375 21.6875 23.4375 19.5312V13.2812H13.2812V23.4375ZM16.0156 15.625H19.1406C19.5703 15.625 19.9219 15.9766 19.9219 16.4062C19.9219 16.8359 19.5703 17.1875 19.1406 17.1875H16.0156C15.5859 17.1875 15.2344 16.8359 15.2344 16.4062C15.2344 15.9766 15.5859 15.625 16.0156 15.625ZM16.0156 17.9688H19.1406C19.5703 17.9688 19.9219 18.3203 19.9219 18.75C19.9219 19.1797 19.5703 19.5312 19.1406 19.5312H16.0156C15.5859 19.5312 15.2344 19.1797 15.2344 18.75C15.2344 18.3203 15.5859 17.9688 16.0156 17.9688Z"/>
</symbol><symbol viewBox="0 0 25 23" id="m-calendar" xmlns="http://www.w3.org/2000/svg">
<path d="M3.76713 3.88013V1.48287C3.76713 0.914379 4.22604 0.455475 4.79453 0.455475C5.36302 0.455475 5.82193 0.914379 5.82193 1.48287V3.88013C5.82193 4.44863 5.36302 4.90753 4.79453 4.90753C4.22604 4.90753 3.76713 4.44863 3.76713 3.88013ZM14.726 4.90753C15.2945 4.90753 15.7534 4.44863 15.7534 3.88013V1.48287C15.7534 0.914379 15.2945 0.455475 14.726 0.455475C14.1576 0.455475 13.6987 0.914379 13.6987 1.48287V3.88013C13.6987 4.44863 14.1576 4.90753 14.726 4.90753ZM20.8905 16.209H19.8631V13.8116C19.8631 13.4336 19.5562 13.1267 19.1781 13.1267C18.8 13.1267 18.4932 13.4336 18.4932 13.8116V16.8938C18.4932 17.272 18.8 17.5788 19.1781 17.5788H20.8905C21.2685 17.5788 21.5754 17.272 21.5754 16.8938C21.5754 16.5157 21.2685 16.209 20.8905 16.209ZM25 16.7226C25 19.9384 22.3938 22.5445 19.1781 22.5445C16.887 22.5445 14.9075 21.2158 13.9589 19.2911H1.71233C0.767125 19.2911 0 18.524 0 17.5788V4.90753C0 3.96232 0.767125 3.1952 1.71233 3.1952H3.0822V3.88013C3.0822 4.82534 3.84932 5.59246 4.79453 5.59246C5.73974 5.59246 6.50686 4.82534 6.50686 3.88013V3.1952H13.0137V3.88013C13.0137 4.82534 13.7808 5.59246 14.7261 5.59246C15.6713 5.59246 16.4384 4.82534 16.4384 3.88013V3.1952H17.8083C18.7535 3.1952 19.5206 3.96232 19.5206 4.90753V10.9178C22.5754 11.0959 25 13.6233 25 16.7226ZM12.6987 8.05822H7.13358V9.59589H10.9966C10.2226 10.5342 9.59591 11.5685 9.11646 12.6918C8.64043 13.8185 8.35618 14.9897 8.26029 16.209H10.0308C10.0377 15.6644 10.1028 15.0788 10.2226 14.4521C10.3425 13.8219 10.5137 13.2021 10.7363 12.589C10.9589 11.976 11.2329 11.3973 11.5617 10.8527C11.8939 10.3082 12.2706 9.85274 12.6987 9.47945V8.05822ZM23.6302 16.7226C23.6302 14.2671 21.6336 12.2705 19.1781 12.2705C16.7227 12.2705 14.7261 14.2672 14.7261 16.7226C14.7261 19.178 16.7227 21.1747 19.1781 21.1747C21.6336 21.1747 23.6302 19.1781 23.6302 16.7226Z"/>
</symbol><symbol viewBox="0 0 23 23" id="m-chat" xmlns="http://www.w3.org/2000/svg">
<path d="M11.5 0.71875C5.55522 0.71875 0.71875 5.55522 0.71875 11.5C0.71875 13.957 1.5656 16.3456 3.10909 18.2597L2.87675 21.5113C2.85991 21.7478 2.96098 21.9773 3.14629 22.1251C3.27509 22.2276 3.43336 22.2812 3.59375 22.2812C3.66464 22.2812 3.73589 22.2707 3.80502 22.2493L6.97202 21.2751C8.40636 21.9429 9.92844 22.2812 11.5 22.2812C17.4451 22.2812 22.2812 17.4448 22.2812 11.5C22.2812 5.55522 17.4451 0.71875 11.5 0.71875ZM7.1875 12.9375C6.3947 12.9375 5.75 12.2928 5.75 11.5C5.75 10.7072 6.3947 10.0625 7.1875 10.0625C7.9803 10.0625 8.625 10.7072 8.625 11.5C8.625 12.2928 7.9803 12.9375 7.1875 12.9375ZM11.5 12.9375C10.7072 12.9375 10.0625 12.2928 10.0625 11.5C10.0625 10.7072 10.7072 10.0625 11.5 10.0625C12.2924 10.0625 12.9375 10.7072 12.9375 11.5C12.9375 12.2928 12.2924 12.9375 11.5 12.9375ZM15.8125 12.9375C15.0201 12.9375 14.375 12.2928 14.375 11.5C14.375 10.7072 15.0201 10.0625 15.8125 10.0625C16.6049 10.0625 17.25 10.7072 17.25 11.5C17.25 12.2928 16.6049 12.9375 15.8125 12.9375Z"/>
</symbol><symbol viewBox="0 0 23 23" id="m-info" xmlns="http://www.w3.org/2000/svg">
<path fill-rule="evenodd" clip-rule="evenodd" d="M11.5 0.0224152C5.1654 0.0224152 0.0224609 5.16536 0.0224609 11.5C0.0224609 17.8346 5.1654 22.9776 11.5 22.9776C17.8347 22.9776 22.9776 17.8346 22.9776 11.5C22.9776 5.16536 17.8347 0.0224152 11.5 0.0224152ZM13.6073 12.1032C13.6073 10.9394 12.6639 9.99608 11.5001 9.99608H11.5C10.9412 9.99608 10.4052 10.2181 10.01 10.6133C9.61485 11.0084 9.39283 11.5444 9.39283 12.1033V16.5894C9.39283 17.1482 9.61485 17.6842 10.01 18.0794C10.4052 18.4746 10.9412 18.6966 11.5 18.6966H11.5001C12.6639 18.6966 13.6073 17.7532 13.6073 16.5895V12.1032ZM11.5 4.30342C10.337 4.30342 9.39283 5.24763 9.39283 6.41063C9.39283 7.57363 10.337 8.51784 11.5 8.51784C12.663 8.51784 13.6073 7.57363 13.6073 6.41063C13.6073 5.24763 12.663 4.30342 11.5 4.30342Z"/>
</symbol><symbol viewBox="0 0 25 25" id="m-neighbors" xmlns="http://www.w3.org/2000/svg">
<path d="M20.0975 14.5249C18.4246 13.2637 15.7608 14.0152 15.6483 16.6342C15.6554 18.9906 18.2787 20.0222 20.0077 18.7905C21.3523 17.909 21.4156 15.4838 20.0975 14.5249Z"/>
<path d="M21.7303 19.5679C21.4578 19.3785 21.1673 19.2162 20.8631 19.0835C20.7393 19.2069 20.6061 19.3205 20.4647 19.4233C19.7763 19.9096 18.9405 20.1419 18.0999 20.0807C17.2593 20.0194 16.466 19.6683 15.8553 19.0874C15.2672 19.318 14.7407 19.6822 14.3177 20.1514C13.8946 20.6206 13.5865 21.1817 13.4178 21.7905C13.3464 22.1785 13.0376 23.0269 13.6717 23.0835L23.0467 23.0835C23.0996 23.083 23.1517 23.0719 23.2002 23.0508C23.2486 23.0298 23.2924 22.9992 23.3288 22.961C23.3652 22.9228 23.3936 22.8776 23.4122 22.8282C23.4309 22.7788 23.4394 22.7261 23.4374 22.6733C23.4186 22.0576 23.254 21.4551 22.9573 20.9153C22.6606 20.3755 22.2401 19.9137 21.7303 19.5679Z"/>
<path d="M15.3671 18.4546C14.9579 17.7724 14.7925 16.9714 14.8981 16.183C15.0036 15.3945 15.3738 14.6652 15.948 14.1147C16.5222 13.5641 17.2663 13.2248 18.0585 13.1525C18.8507 13.0801 19.644 13.2789 20.3085 13.7164L20.3084 11.8179H22.6444C22.8047 11.8145 22.9603 11.7629 23.091 11.6698C23.2216 11.5768 23.3212 11.4465 23.3768 11.2961C23.4325 11.1457 23.4415 10.982 23.4028 10.8263C23.3642 10.6707 23.2795 10.5302 23.16 10.4233C22.7202 10.041 21.0317 8.6057 20.3084 7.98194V3.40381C20.3081 3.30031 20.2669 3.20113 20.1937 3.12794C20.1205 3.05475 20.0213 3.0135 19.9178 3.01319H17.0038C16.9524 3.01301 16.9015 3.02299 16.8541 3.04255C16.8066 3.06212 16.7634 3.09089 16.7271 3.1272C16.6908 3.16351 16.6621 3.20664 16.6425 3.25411C16.6229 3.30159 16.6129 3.35246 16.6131 3.40381V4.81397L13.7967 2.39991C13.4366 2.08812 12.9762 1.9165 12.4998 1.9165C12.0235 1.9165 11.5631 2.08812 11.203 2.39991L1.83969 10.4233C1.71931 10.5299 1.63394 10.6703 1.59478 10.8263C1.55562 10.9822 1.5645 11.1463 1.62026 11.2971C1.67602 11.4479 1.77605 11.5783 1.90723 11.6712C2.03841 11.7642 2.19462 11.8153 2.35536 11.8179H4.69125V19.2124C4.69164 20.1026 5.04516 20.9562 5.67424 21.586C6.30332 22.2158 7.15655 22.5704 8.04672 22.5718H12.5037C12.5538 21.6879 12.8478 20.8352 13.3533 20.1084C13.8588 19.3816 14.5558 18.8091 15.3671 18.4546Z"/>
</symbol><symbol viewBox="0 0 28 22" id="m-personage" xmlns="http://www.w3.org/2000/svg">
<path d="M9.2097 1.98082C7.8757 0.745625 6.15137 0.0691081 4.32281 0.071187C3.8729 0.0717341 3.51062 0.441887 3.51062 0.891804V6.39027C4.94878 4.43293 6.92034 2.89072 9.2097 1.98082Z"/>
<path d="M22.7897 13.1391C21.702 13.0987 21.7028 11.5378 22.7897 11.4978H25.0731C22.2192 -0.151028 5.77624 -0.14315 2.92678 11.4978H5.21023C6.29788 11.5382 6.29706 13.0991 5.21023 13.1391H2.67059C2.62036 13.7552 2.61188 14.4004 2.68782 15.0138H5.21023C6.29788 15.0541 6.29706 16.615 5.21023 16.655H3.06711C4.13643 19.722 7.05717 21.9288 10.4841 21.9288H17.5158C20.9427 21.9288 23.8635 19.722 24.9328 16.655H22.7897C21.702 16.6146 21.7028 15.0537 22.7897 15.0138H25.3121C25.388 14.4004 25.3795 13.7553 25.3293 13.1391H22.7897ZM9.02484 10.2618C8.70436 9.9413 8.70442 9.42174 9.02484 9.10126C9.83178 8.29438 11.1379 8.29558 11.9437 9.10126C12.6842 9.8989 11.58 11.002 10.7831 10.2618C10.6327 10.1114 10.3639 10.0833 10.1854 10.2618C9.86488 10.5823 9.34526 10.5823 9.02484 10.2618ZM15.7579 16.655C15.1091 16.655 14.474 16.4031 14.0002 15.9618C13.5219 16.409 12.9012 16.655 12.242 16.655C10.8202 16.655 9.6635 15.4982 9.6635 14.0764C9.6635 13.6232 10.0309 13.2558 10.4841 13.2558C10.9373 13.2558 11.3047 13.6232 11.3047 14.0764C11.3047 14.5933 11.7252 15.0138 12.242 15.0138C12.7627 15.0138 13.1794 14.5923 13.1794 14.0764V13.1391H13.121C12.0333 13.0988 12.0342 11.5379 13.121 11.4979H14.879C15.9666 11.5383 15.9658 13.0991 14.879 13.1391H14.8206V14.0764C14.8206 14.602 15.2493 15.0138 15.7579 15.0138C16.2747 15.0138 16.6952 14.5933 16.6952 14.0764C16.6952 13.6232 17.0626 13.2558 17.5158 13.2558C17.969 13.2558 18.3364 13.6232 18.3364 14.0764C18.3365 15.4982 17.1797 16.655 15.7579 16.655ZM18.9754 10.2618C18.6549 10.5823 18.1353 10.5822 17.8149 10.2618C17.6644 10.1113 17.3956 10.0832 17.2171 10.2618C16.4194 11.0023 15.3163 9.89803 16.0565 9.10121C16.8635 8.29432 18.1696 8.29553 18.9754 9.10121C19.2958 9.42174 19.2958 9.9413 18.9754 10.2618Z"/>
<path d="M24.4894 6.39032V0.891804C24.4894 0.441887 24.1271 0.0717341 23.6772 0.071187C21.8487 0.0691081 20.1243 0.74557 18.7903 1.98082C21.0797 2.89072 23.0512 4.43293 24.4894 6.39032Z"/>
<path d="M0.815427 13.1391H1.02457C1.06446 12.5817 1.13941 12.0338 1.24762 11.4978H0.815427C-0.272219 11.5382 -0.271398 13.0991 0.815427 13.1391Z"/>
<path d="M27.1846 13.1391C28.2723 13.0987 28.2715 11.5378 27.1846 11.4978H26.7524C26.8607 12.0338 26.9356 12.5817 26.9755 13.1391H27.1846Z"/>
<path d="M0.815427 15.0137C-0.272219 15.0541 -0.271398 16.615 0.815427 16.655H1.34653C1.19679 16.1251 1.09219 15.5766 1.03677 15.0137H0.815427Z"/>
<path d="M27.1845 15.0137H26.9632C26.9078 15.5766 26.8032 16.1251 26.6534 16.655H27.1845C28.2722 16.6146 28.2714 15.0537 27.1845 15.0137Z"/>
</symbol><symbol viewBox="0 0 22 22" id="m-plant" xmlns="http://www.w3.org/2000/svg">
<path d="M1.08351 8.41797L0 21.9616H6.36022L4.91558 8.41797H1.08351Z"/>
<path d="M1.34169 5.19044L1.18677 7.12697H4.77785L4.57129 5.19044H1.34169Z"/>
<path d="M20.2326 9.06348L16.7754 13.243V9.06348H15.0091L11.3648 13.4442V9.06348H9.59668L6.66272 12.625L7.10907 16.8096H9.08987V18.1006H7.24677L7.6599 21.9736H22V9.06348H20.2326ZM12.9629 18.1006H10.3809V16.8096H12.9629V18.1006ZM16.836 18.1006H14.2539V16.8096H16.836V18.1006ZM20.709 18.1006H18.127V16.8096H20.709V18.1006Z"/>
<path d="M5.73197 3.89943L6.16657 7.97382C6.83609 7.91409 7.47394 7.65894 7.99891 7.24388C8.5883 7.58734 9.26423 7.77247 9.95053 7.77247C11.0185 7.77247 12.0299 7.33133 12.7555 6.56929C13.2196 6.79461 13.7283 6.91179 14.2539 6.91179C15.0105 6.91179 15.7448 6.6597 16.3405 6.20647C16.8381 6.52535 17.4173 6.69662 18.0194 6.69662C19.7397 6.69662 21.1393 5.29703 21.1393 3.57667C21.1393 1.85631 19.7397 0.456721 18.0194 0.456721C17.4827 0.456721 16.9577 0.595677 16.4948 0.855128C15.8755 0.323101 15.0853 0.0263824 14.2539 0.0263824C13.4993 0.0263824 12.7674 0.276839 12.1728 0.727446C11.5254 0.272105 10.7549 0.0263824 9.95053 0.0263824C8.83686 0.0263824 7.7926 0.501045 7.06292 1.31856C6.68031 1.17612 6.2733 1.10223 5.86232 1.10223C4.18469 1.10223 2.78429 2.30872 2.4812 3.89943H5.73197Z"/>
</symbol><symbol viewBox="0 0 23 21" id="m-progress" xmlns="http://www.w3.org/2000/svg">
<path d="M7.41926 19.4243C7.41926 20.0073 6.9423 20.4843 6.35935 20.4843H1.97837C1.39542 20.4843 0.918457 20.0073 0.918457 19.4243V14.6194C0.918457 14.0364 1.39542 13.5595 1.97837 13.5595H6.35935C6.9423 13.5595 7.41926 14.0364 7.41926 14.6194V19.4243Z"/>
<path d="M15.2097 19.4243C15.2097 20.0073 14.7327 20.4843 14.1498 20.4843H9.76878C9.18582 20.4843 8.70886 20.0073 8.70886 19.4243V12.0756C8.70886 11.4926 9.18582 11.0157 9.76878 11.0157H14.1498C14.7327 11.0157 15.2097 11.4926 15.2097 12.0756V19.4243Z"/>
<path d="M23.0001 19.4243C23.0001 20.0073 22.5231 20.4842 21.9402 20.4842H17.5592C16.9762 20.4842 16.4993 20.0073 16.4993 19.4243V9.24915C16.4993 8.6662 16.9762 8.18924 17.5592 8.18924H21.9402C22.5231 8.18924 23.0001 8.6662 23.0001 9.24915V19.4243Z"/>
<path d="M22.0831 0.535534L17.3224 1.69381C16.9446 1.78524 16.8604 2.08492 17.1352 2.35972L18.1511 3.35187C18.2364 3.4491 18.1352 3.57841 18.055 3.63317C17.4153 4.06985 16.4001 4.71061 14.9968 5.44273C7.35732 9.4285 1.05981 9.18401 0.965122 9.1797C0.459614 9.15405 0.0273809 9.54346 0.00123637 10.0498C-0.0248375 10.5565 0.364646 10.9884 0.871285 11.0145C0.908523 11.0164 1.05995 11.0232 1.31454 11.0232C2.9473 11.0232 8.81245 10.7415 15.8467 7.0716C17.5111 6.20325 18.6647 5.45431 19.3383 4.98018C19.4336 4.91312 19.5995 4.79752 19.7527 4.95347L20.8639 6.06454C21.1387 6.33934 21.4369 6.25476 21.5268 5.87665L22.6068 1.0568C22.6965 0.678622 22.4608 0.444099 22.0831 0.535534Z"/>
</symbol><symbol viewBox="0 0 24 24" id="m-quest" xmlns="http://www.w3.org/2000/svg">
<path d="M9.17479 8.90273L8.84034 7.57274L9.38877 7.82699C9.47234 7.86573 9.56724 7.87235 9.65537 7.8456C9.74351 7.81886 9.81872 7.76061 9.86666 7.68196L10.3156 6.94551L10.7646 7.68196C10.8126 7.76066 10.8879 7.81893 10.976 7.84568C11.0642 7.87242 11.1592 7.86575 11.2428 7.82695L11.7897 7.57317L11.4553 8.90273H9.17479ZM18.4784 2.65593C18.4791 2.24795 18.4077 1.84305 18.2675 1.45992H2.36348C2.08116 2.23227 2.08116 3.07959 2.36348 3.85195H18.2675C18.4077 3.46881 18.4791 3.06391 18.4784 2.65593ZM8.79834 16.2028H3.48857V9.23371C3.48857 9.14934 3.76199 9.02868 3.94293 8.94899C4.32913 8.77893 4.85807 8.54587 4.85807 7.95932C4.85807 7.37277 4.32871 7.13957 3.94218 6.96956C3.76157 6.8901 3.48857 6.77001 3.48857 6.68638V4.60195H17.1416V6.68638C17.1416 6.77001 16.8686 6.8901 16.688 6.96956C16.3014 7.13957 15.7721 7.37235 15.7721 7.95932C15.7721 8.54629 16.301 8.77893 16.6875 8.94899C16.8684 9.02868 17.1418 9.1491 17.1418 9.23371V13.7676H14.5078C14.4756 13.737 14.4448 13.7072 14.4148 13.6785C14.2722 13.5339 14.1189 13.4003 13.9561 13.2788H14.3662C14.4657 13.2788 14.5611 13.2393 14.6314 13.169C14.7017 13.0986 14.7412 13.0032 14.7412 12.9038C14.7412 12.8043 14.7017 12.709 14.6314 12.6386C14.5611 12.5683 14.4657 12.5288 14.3662 12.5288H6.26409C6.16463 12.5288 6.06925 12.5683 5.99892 12.6386C5.92859 12.709 5.88909 12.8043 5.88909 12.9038C5.88909 13.0032 5.92859 13.0986 5.99892 13.169C6.06925 13.2393 6.16463 13.2788 6.26409 13.2788H10.3198C10.0198 13.4682 9.77441 13.7614 9.54318 14.2049H6.26409C6.16463 14.2049 6.06925 14.2444 5.99892 14.3147C5.92859 14.385 5.88909 14.4804 5.88909 14.5799C5.88909 14.6793 5.92859 14.7747 5.99892 14.845C6.06925 14.9153 6.16463 14.9549 6.26409 14.9549H9.2143C9.08048 15.3074 8.94459 15.7206 8.79843 16.2029L8.79834 16.2028ZM14.7411 11.2291C14.7411 11.1296 14.7015 11.0342 14.6312 10.9639C14.5609 10.8936 14.4655 10.8541 14.3661 10.8541H6.26409C6.16463 10.8541 6.06925 10.8936 5.99892 10.9639C5.92859 11.0342 5.88909 11.1296 5.88909 11.2291C5.88909 11.3285 5.92859 11.4239 5.99892 11.4943C6.06925 11.5646 6.16463 11.6041 6.26409 11.6041H14.3661C14.4655 11.6041 14.5609 11.5646 14.6312 11.4943C14.7015 11.4239 14.7411 11.3285 14.7411 11.2291ZM13.9489 8.08992C13.9489 8.16907 13.9723 8.24645 14.0163 8.31227C14.0603 8.37808 14.1228 8.42938 14.1959 8.45967C14.2691 8.48996 14.3495 8.49789 14.4272 8.48244C14.5048 8.467 14.5761 8.42888 14.6321 8.37291C14.6881 8.31694 14.7262 8.24563 14.7416 8.16799C14.7571 8.09036 14.7491 8.00989 14.7188 7.93676C14.6885 7.86363 14.6373 7.80112 14.5714 7.75715C14.5056 7.71317 14.4282 7.6897 14.3491 7.6897C14.2965 7.68962 14.2444 7.69992 14.1958 7.72001C14.1472 7.7401 14.1031 7.76957 14.0659 7.80675C14.0287 7.84393 13.9992 7.88808 13.9792 7.93667C13.9591 7.98526 13.9488 8.03734 13.9489 8.08992ZM7.92131 6.99374L8.51877 9.36942C8.53915 9.45043 8.58599 9.52233 8.65187 9.57369C8.71775 9.62506 8.79889 9.65296 8.88243 9.65296H11.7477C11.8312 9.65296 11.9124 9.62506 11.9783 9.57369C12.0442 9.52233 12.091 9.45043 12.1114 9.36942L12.7088 6.99374C12.7261 6.92506 12.7236 6.85287 12.7016 6.78555C12.6796 6.71822 12.639 6.65851 12.5844 6.61332C12.5299 6.56813 12.4636 6.53932 12.3934 6.53022C12.3231 6.52111 12.2518 6.53209 12.1875 6.56188L11.2312 7.0057L10.6359 6.0299C10.6025 5.975 10.5554 5.92962 10.4994 5.89814C10.4433 5.86665 10.3801 5.85012 10.3158 5.85012C10.2514 5.85012 10.1882 5.86665 10.1321 5.89814C10.0761 5.92962 10.029 5.975 9.99557 6.0299L9.40059 7.00579L8.4426 6.56184C8.37835 6.53207 8.30699 6.5211 8.23676 6.53019C8.16654 6.53929 8.10033 6.56809 8.04578 6.61325C7.99124 6.65841 7.9506 6.71809 7.92857 6.78538C7.90653 6.85268 7.90399 6.92483 7.92126 6.99351L7.92131 6.99374ZM5.88224 8.09015C5.88224 8.16931 5.90571 8.24668 5.94969 8.3125C5.99367 8.37832 6.05617 8.42961 6.1293 8.4599C6.20243 8.4902 6.28291 8.49812 6.36054 8.48268C6.43817 8.46724 6.50949 8.42912 6.56546 8.37315C6.62143 8.31718 6.65955 8.24586 6.67499 8.16823C6.69043 8.09059 6.68251 8.01012 6.65222 7.93699C6.62192 7.86386 6.57063 7.80136 6.50481 7.75738C6.43899 7.7134 6.36162 7.68993 6.28246 7.68993C6.22991 7.68988 6.17787 7.70018 6.12931 7.72026C6.08075 7.74034 6.03662 7.7698 5.99946 7.80695C5.96229 7.8441 5.93282 7.88822 5.91272 7.93677C5.89262 7.98533 5.8823 8.03737 5.88234 8.08992L5.88224 8.09015ZM19.4722 3.20338C19.6174 3.20338 19.7566 3.14571 19.8593 3.04304C19.962 2.94037 20.0196 2.80112 20.0196 2.65593C20.0196 2.51074 19.962 2.37149 19.8593 2.26882C19.7566 2.16616 19.6174 2.10848 19.4722 2.10848H19.1934C19.2401 2.47195 19.2401 2.83991 19.1934 3.20338H19.4722ZM1.1578 17.6016C1.01261 17.6016 0.873364 17.6592 0.770697 17.7619C0.66803 17.8646 0.610352 18.0038 0.610352 18.149C0.610352 18.2942 0.66803 18.4335 0.770697 18.5361C0.873364 18.6388 1.01261 18.6965 1.1578 18.6965H1.43671C1.3899 18.333 1.3899 17.965 1.43671 17.6016H1.1578ZM1.1578 2.10862C1.01261 2.10862 0.873364 2.1663 0.770697 2.26896C0.66803 2.37163 0.610352 2.51088 0.610352 2.65607C0.610352 2.80127 0.66803 2.94051 0.770697 3.04318C0.873364 3.14585 1.01261 3.20352 1.1578 3.20352H1.43671C1.3899 2.84006 1.3899 2.47209 1.43671 2.10862H1.1578ZM22.6823 17.4567C23.458 19.8578 23.9218 21.748 22.2922 22.4216C21.5408 22.732 20.6552 22.4204 20.0359 21.6277L18.8607 20.123C18.9804 19.9547 19.0589 19.7606 19.0898 19.5564C19.1207 19.3522 19.103 19.1435 19.0383 18.9474C18.9736 18.7512 18.8636 18.5731 18.7173 18.4273C18.571 18.2815 18.3924 18.1722 18.196 18.1082C17.9996 18.0442 17.7909 18.0274 17.5868 18.059C17.3827 18.0906 17.1889 18.1698 17.0211 18.2902C16.8532 18.4106 16.7161 18.5688 16.6207 18.752C16.5254 18.9353 16.4745 19.1383 16.4721 19.3449H15.4034C15.4012 19.1383 15.3503 18.9351 15.255 18.7518C15.1596 18.5684 15.0225 18.4101 14.8546 18.2897C14.6868 18.1692 14.4929 18.0899 14.2887 18.0582C14.0845 18.0266 13.8757 18.0435 13.6793 18.1075C13.4828 18.1715 13.3042 18.2808 13.1578 18.4267C13.0114 18.5725 12.9015 18.7508 12.8368 18.947C12.7721 19.1433 12.7545 19.352 12.7854 19.5563C12.8164 19.7606 12.895 19.9547 13.0149 20.123L11.8396 21.6277C11.2203 22.4204 10.3346 22.732 9.58345 22.4217C7.95374 21.7481 8.41757 19.8579 9.19326 17.4569C9.30468 17.1119 9.40991 16.7861 9.49907 16.4766C10.3227 13.7448 10.6938 13.7363 11.6837 13.7144C11.7396 13.7133 11.9632 13.7116 12.8321 13.7116C13.3673 13.7116 13.511 13.8497 13.8949 14.219C13.9236 14.2467 13.9536 14.2753 13.9839 14.3046V14.9033C13.9841 15.2046 14.1037 15.4935 14.3166 15.7067C14.5295 15.9198 14.8183 16.0399 15.1196 16.0404H16.7559C17.0572 16.0399 17.346 15.9198 17.5589 15.7067C17.7718 15.4935 17.8914 15.2046 17.8916 14.9033V14.3045C17.9222 14.2754 17.9521 14.2466 17.9806 14.219C18.3645 13.8497 18.5082 13.7115 19.0434 13.7115C19.9121 13.7115 20.1347 13.7133 20.1888 13.7143C21.1811 13.7363 21.5526 13.7446 22.3762 16.4765C22.4656 16.7859 22.5709 17.1118 22.6823 17.4567ZM13.275 16.707C13.275 16.6075 13.2355 16.5122 13.1652 16.4418C13.0948 16.3715 12.9994 16.332 12.9 16.332H12.4065V15.8385C12.4065 15.739 12.367 15.6437 12.2967 15.5733C12.2264 15.503 12.131 15.4635 12.0315 15.4635C11.9321 15.4635 11.8367 15.503 11.7664 15.5733C11.696 15.6437 11.6565 15.739 11.6565 15.8385V16.332H11.1644C11.0649 16.332 10.9695 16.3715 10.8992 16.4418C10.8289 16.5122 10.7894 16.6075 10.7894 16.707C10.7894 16.8065 10.8289 16.9018 10.8992 16.9722C10.9695 17.0425 11.0649 17.082 11.1644 17.082H11.6565V17.5755C11.6565 17.675 11.696 17.7704 11.7664 17.8407C11.8367 17.911 11.9321 17.9505 12.0315 17.9505C12.131 17.9505 12.2264 17.911 12.2967 17.8407C12.367 17.7704 12.4065 17.675 12.4065 17.5755V17.082H12.9C12.9994 17.082 13.0948 17.0425 13.1652 16.9722C13.2355 16.9018 13.275 16.8065 13.275 16.707ZM19.3756 16.707C19.3756 16.6278 19.3521 16.5505 19.3081 16.4846C19.2642 16.4188 19.2017 16.3675 19.1285 16.3372C19.0554 16.3069 18.9749 16.299 18.8973 16.3145C18.8197 16.3299 18.7483 16.368 18.6924 16.424C18.6364 16.48 18.5983 16.5513 18.5828 16.6289C18.5674 16.7066 18.5753 16.787 18.6056 16.8602C18.6359 16.9333 18.6872 16.9958 18.753 17.0398C18.8188 17.0837 18.8962 17.1072 18.9754 17.1072C19.028 17.1073 19.08 17.097 19.1286 17.0769C19.1772 17.0568 19.2214 17.0274 19.2586 16.9902C19.2958 16.953 19.3252 16.9088 19.3453 16.8603C19.3654 16.8117 19.3757 16.7596 19.3757 16.707H19.3756ZM20.2441 17.5755C20.2442 17.4962 20.2208 17.4187 20.1769 17.3527C20.133 17.2867 20.0704 17.2352 19.9972 17.2047C19.924 17.1742 19.8434 17.1662 19.7656 17.1815C19.6878 17.1968 19.6163 17.2349 19.5602 17.2909C19.504 17.3468 19.4657 17.4182 19.4501 17.496C19.4345 17.5737 19.4423 17.6543 19.4725 17.7276C19.5027 17.801 19.554 17.8637 19.6199 17.9078C19.6857 17.952 19.7632 17.9756 19.8425 17.9758C19.9487 17.9756 20.0506 17.9335 20.1259 17.8585C20.2011 17.7835 20.2437 17.6818 20.2442 17.5755H20.2441ZM20.2441 15.8385C20.2439 15.7593 20.2203 15.6818 20.1762 15.616C20.1321 15.5502 20.0695 15.4989 19.9963 15.4687C19.923 15.4384 19.8425 15.4305 19.7648 15.446C19.6871 15.4615 19.6157 15.4997 19.5597 15.5557C19.5036 15.6118 19.4655 15.6831 19.45 15.7608C19.4345 15.8385 19.4424 15.9191 19.4726 15.9923C19.5029 16.0656 19.5542 16.1282 19.62 16.1723C19.6858 16.2164 19.7633 16.24 19.8425 16.2401C19.8953 16.2402 19.9475 16.2299 19.9963 16.2097C20.0451 16.1896 20.0894 16.16 20.1267 16.1227C20.164 16.0854 20.1936 16.0411 20.2138 15.9923C20.2339 15.9435 20.2443 15.8913 20.2442 15.8385H20.2441ZM21.1113 16.707C21.1113 16.6278 21.0878 16.5505 21.0438 16.4846C20.9998 16.4188 20.9373 16.3675 20.8642 16.3372C20.7911 16.3069 20.7106 16.299 20.633 16.3145C20.5553 16.3299 20.484 16.368 20.4281 16.424C20.3721 16.48 20.334 16.5513 20.3185 16.6289C20.3031 16.7066 20.311 16.787 20.3413 16.8602C20.3716 16.9333 20.4229 16.9958 20.4887 17.0398C20.5545 17.0837 20.6319 17.1072 20.7111 17.1072C20.7636 17.1073 20.8157 17.097 20.8643 17.0769C20.9129 17.0568 20.9571 17.0273 20.9942 16.9902C21.0314 16.953 21.0609 16.9088 21.081 16.8602C21.1011 16.8117 21.1114 16.7596 21.1113 16.707H21.1113ZM15.1196 15.2903H16.7559C16.8584 15.29 16.9565 15.2491 17.0288 15.1765C17.1011 15.104 17.1416 15.0057 17.1416 14.9033V14.5176H14.734V14.9033C14.7339 15.0057 14.7745 15.104 14.8468 15.1765C14.9191 15.2491 15.0172 15.29 15.1196 15.2903ZM2.36348 16.9529C2.08116 17.7252 2.08116 18.5725 2.36348 19.3449H7.87968C8.02677 18.6293 8.26223 17.8988 8.47968 17.2261C8.50965 17.1335 8.53901 17.0424 8.56776 16.9528L2.36348 16.9529ZM14.0865 18.7935C13.9745 18.7937 13.865 18.827 13.7719 18.8893C13.6788 18.9516 13.6063 19.0401 13.5635 19.1436C13.5206 19.2471 13.5095 19.361 13.5313 19.4708C13.5532 19.5807 13.6072 19.6816 13.6864 19.7608C13.7656 19.84 13.8665 19.894 13.9764 19.9159C14.0862 19.9378 14.2001 19.9266 14.3036 19.8838C14.4071 19.841 14.4956 19.7684 14.558 19.6753C14.6203 19.5822 14.6536 19.4727 14.6537 19.3607C14.6537 19.2103 14.5939 19.066 14.4876 18.9597C14.3812 18.8533 14.2369 18.7935 14.0865 18.7935ZM17.7891 18.7935C17.677 18.7934 17.5674 18.8265 17.4741 18.8887C17.3809 18.9508 17.3081 19.0392 17.2651 19.1427C17.2221 19.2462 17.2108 19.3601 17.2325 19.4701C17.2542 19.58 17.3081 19.681 17.3872 19.7604C17.4664 19.8397 17.5673 19.8938 17.6772 19.9158C17.7871 19.9378 17.901 19.9267 18.0046 19.8839C18.1082 19.8411 18.1968 19.7686 18.2592 19.6754C18.3215 19.5823 18.3549 19.4728 18.355 19.3607C18.3548 19.2106 18.2951 19.0666 18.1891 18.9603C18.083 18.8541 17.9392 18.7941 17.7891 18.7935Z"/>
</symbol><symbol viewBox="0 0 26 26" id="m-statistic" xmlns="http://www.w3.org/2000/svg">
<path d="M15.4711 2.25775H10.4982C9.98964 2.25775 9.57733 2.67006 9.57733 3.17865V22.8152C9.57733 23.3238 9.98964 23.7361 10.4982 23.7361H15.4711C15.9797 23.7361 16.392 23.3238 16.392 22.8152V3.17865C16.392 2.67 15.9797 2.25775 15.4711 2.25775Z"/>
<path d="M25.0791 13.7076H20.1063C19.5977 13.7076 19.1854 14.1199 19.1854 14.6285V22.8214C19.1854 23.33 19.5977 23.7423 20.1063 23.7423H25.0791C25.5877 23.7423 26 23.33 26 22.8214V14.6285C26 14.1198 25.5877 13.7076 25.0791 13.7076Z"/>
<path d="M5.89374 9.59424H0.920897C0.412305 9.59424 0 10.0065 0 10.5151V22.8091C0 23.3177 0.412305 23.73 0.920897 23.73H5.89374C6.40233 23.73 6.81464 23.3177 6.81464 22.8091V10.5151C6.81464 10.0065 6.40233 9.59424 5.89374 9.59424Z"/>
</symbol><symbol viewBox="0 0 21 21" id="m-status" xmlns="http://www.w3.org/2000/svg">
<g clip-path="url(#baclip0_202_19)">
<path d="M10.3504 10.1158C11.7401 10.1158 12.9435 9.61732 13.9267 8.63391C14.91 7.65067 15.4084 6.4476 15.4084 5.05772C15.4084 3.66832 14.91 2.46509 13.9266 1.48152C12.9432 0.498434 11.7399 0 10.3504 0C8.96047 0 7.7574 0.498434 6.77415 1.48168C5.79089 2.46493 5.2923 3.66816 5.2923 5.05772C5.2923 6.4476 5.79089 7.65083 6.77431 8.63408C7.75772 9.61716 8.96095 10.1158 10.3504 10.1158Z"/>
<path d="M19.2006 16.1479C19.1722 15.7387 19.1149 15.2924 19.0304 14.821C18.9452 14.3461 18.8355 13.8972 18.7041 13.4869C18.5684 13.0628 18.3838 12.644 18.1557 12.2426C17.9189 11.8261 17.6407 11.4633 17.3286 11.1649C17.0023 10.8526 16.6027 10.6015 16.1406 10.4184C15.6801 10.2362 15.1699 10.144 14.624 10.144C14.4096 10.144 14.2023 10.2319 13.8019 10.4926C13.5555 10.6533 13.2673 10.8391 12.9456 11.0447C12.6705 11.22 12.2978 11.3842 11.8375 11.5329C11.3884 11.6782 10.9324 11.7519 10.4824 11.7519C10.0323 11.7519 9.57651 11.6782 9.12694 11.5329C8.66711 11.3844 8.29445 11.2201 8.01968 11.0449C7.701 10.8412 7.41261 10.6554 7.16251 10.4924C6.76261 10.2318 6.55513 10.1438 6.34076 10.1438C5.79474 10.1438 5.28461 10.2362 4.8243 10.4186C4.36256 10.6014 3.96281 10.8524 3.63613 11.165C3.32419 11.4637 3.04589 11.8262 2.80941 12.2426C2.58142 12.644 2.39685 13.0626 2.26099 13.487C2.12977 13.8974 2.02002 14.3461 1.93478 14.821C1.85035 15.2917 1.79299 15.7382 1.76463 16.1484C1.73676 16.5502 1.72266 16.9673 1.72266 17.3885C1.72266 18.4847 2.07113 19.3721 2.7583 20.0266C3.43698 20.6724 4.335 21.0001 5.42704 21.0001H15.5387C16.6307 21.0001 17.5284 20.6726 18.2073 20.0266C18.8946 19.3726 19.2431 18.485 19.2431 17.3883C19.2429 16.9652 19.2286 16.5478 19.2006 16.1479Z"/>
</g>
<defs>
<clipPath id="baclip0_202_19">
<rect width="21" height="21"/>
</clipPath>
</defs>
</symbol><symbol viewBox="0 0 22 22" id="m-target" xmlns="http://www.w3.org/2000/svg">
<g clip-path="url(#bbclip0_202_206)">
<path d="M11.4641 10.5568C11.4604 10.553 11.4594 10.548 11.4557 10.5443L7.77742 6.86595V4.5547C7.77742 4.38347 7.70945 4.21985 7.58862 4.09898L3.72143 0.188862C3.53765 0.00512794 3.26007 -0.0509033 3.01898 0.0491709C2.77792 0.148601 2.62117 0.384026 2.62117 0.644589V2.57818H0.64461C0.38409 2.57814 0.148664 2.73485 0.0492347 2.97594C-0.0508396 3.217 0.00454717 3.49398 0.188969 3.6784L4.09913 7.58851C4.22 7.70938 4.38362 7.77736 4.55481 7.77736H6.86606L10.5444 11.4557C10.548 11.4593 10.5531 11.4604 10.5569 11.464C10.8078 11.7035 11.189 11.7067 11.4433 11.464C11.711 11.2084 11.705 10.8092 11.4641 10.5568Z"/>
<path d="M11 9.15527e-05C9.35085 9.15527e-05 7.79156 0.419681 6.38743 1.07508L8.36459 3.05225C9.1944 2.7763 10.0788 2.62119 11.0001 2.62119C15.62 2.62114 19.3789 6.38005 19.3789 11C19.3789 15.62 15.62 19.3789 11 19.3789C6.38004 19.3789 2.62117 15.62 2.62117 11C2.62117 10.0788 2.77633 9.19433 3.05224 8.36452L1.07507 6.38735C0.419755 7.79153 0.00012207 9.35082 0.00012207 11C0.00012207 17.0418 4.95824 22 11 22C17.0418 22 22 17.0418 22 11C22 4.95821 17.0419 9.15527e-05 11 9.15527e-05Z"/>
<path d="M11.0001 5.19926C10.3188 5.19926 9.67428 5.33891 9.06649 5.5556V6.33222L10.5565 7.82225C10.7029 7.8018 10.8482 7.77739 11.0001 7.77739C12.777 7.77739 14.2227 9.22316 14.2227 11C14.2227 12.7769 12.777 14.2227 11.0001 14.2227C9.22319 14.2227 7.77742 12.7769 7.77742 11C7.77742 10.8481 7.80183 10.7028 7.82228 10.5565L6.3323 9.06641H5.55568C5.33899 9.6742 5.19934 10.3187 5.19934 11C5.19934 14.1987 7.8014 16.8007 11.0001 16.8007C14.1988 16.8007 16.8009 14.1987 16.8009 11C16.8009 7.80128 14.1988 5.19926 11.0001 5.19926Z"/>
</g>
<defs>
<clipPath id="bbclip0_202_206">
<rect width="22" height="22"/>
</clipPath>
</defs>
</symbol><symbol viewBox="0 0 23 23" id="m-top" xmlns="http://www.w3.org/2000/svg">
<path d="M7.33848 17.7386C7.41391 17.8139 7.4159 17.9349 7.34156 18.0113L7.06937 18.2909C6.99324 18.3692 6.86633 18.3707 6.78902 18.2936C6.51226 18.0175 6.2493 17.7318 5.99738 17.4414C5.45043 17.7821 4.89996 17.9473 4.30168 17.9473C4.20059 17.9473 4.09797 17.9428 3.99383 17.9334C3.17023 17.8598 2.49543 17.5192 1.8698 16.8613C1.79238 16.7801 1.75383 16.6693 1.76375 16.5575C1.77367 16.4455 1.83129 16.3435 1.92207 16.2771C2.65449 15.7408 3.38195 15.525 4.2025 15.5991C4.36769 15.6138 4.52547 15.6424 4.67949 15.6791C4.43582 15.2943 4.22141 14.9092 4.0366 14.5277C3.88769 14.5467 3.74059 14.5594 3.59668 14.5594C3.08551 14.5594 2.6041 14.4392 2.13984 14.1972C1.40476 13.8092 0.912265 13.2349 0.588398 12.3888C0.547968 12.2839 0.555195 12.1668 0.60746 12.0674C0.659726 11.968 0.752031 11.8959 0.861132 11.8695C1.74348 11.6564 2.49457 11.7352 3.22777 12.1178C3.23074 12.1193 3.23332 12.1212 3.23625 12.1228C3.16984 11.7589 3.13102 11.3956 3.11539 11.0338C2.36043 10.8666 1.78016 10.5205 1.30785 9.95527C0.777226 9.32051 0.541093 8.60238 0.563984 7.69543C0.56703 7.58309 0.618163 7.47762 0.703984 7.40551C0.790194 7.33359 0.903124 7.3025 1.0141 7.3193C1.91094 7.45777 2.57547 7.81789 3.10609 8.45227C3.18437 8.54586 3.25422 8.64203 3.3198 8.73965C3.41406 8.31109 3.53957 7.89414 3.69469 7.49016C3.05988 7.04555 2.65617 6.50227 2.4366 5.79766C2.19094 5.0084 2.24855 4.25481 2.61781 3.42547C2.6632 3.32285 2.75094 3.24484 2.85812 3.21145C2.96609 3.17844 3.08203 3.19238 3.17781 3.25074C3.95297 3.7232 4.42828 4.31105 4.67434 5.10066C4.71805 5.2409 4.74867 5.37984 4.7732 5.51844C4.98652 5.22809 5.21906 4.95117 5.47055 4.68809C5.12664 4.09285 4.98785 3.47367 5.0482 2.80402C5.12641 1.97547 5.46742 1.30121 6.12164 0.680782C6.20289 0.603516 6.31465 0.565391 6.42605 0.575117C6.53781 0.58543 6.63969 0.643203 6.70605 0.733828C7.24238 1.46836 7.45832 2.19277 7.38508 3.01367C7.34195 3.51301 7.19816 3.95398 6.94523 4.3616C6.92617 4.39231 6.90289 4.42035 6.87617 4.44457C6.62914 4.6423 6.42594 4.82258 6.24738 5.0002L6.23301 5.0141C4.69535 6.50477 3.88281 8.4718 3.88281 10.7023C3.88281 11.4703 4.01262 12.2532 4.2682 13.0295C4.26957 13.0333 4.27297 13.0363 4.27418 13.0401C4.36656 13.328 4.48211 13.6294 4.6173 13.9354L4.61828 13.9354C5.18641 15.2066 6.14883 16.5511 7.33848 17.7386ZM22.3925 12.0673C22.3402 11.968 22.2479 11.8959 22.1388 11.8694C21.2565 11.6563 20.5054 11.7351 19.7722 12.1177C19.7692 12.1193 19.7666 12.1211 19.7637 12.1227C19.8301 11.7588 19.8689 11.3955 19.8846 11.0337C20.6395 10.8666 21.2198 10.5204 21.6921 9.9552C22.2227 9.32043 22.4589 8.6023 22.436 7.69535C22.4329 7.58301 22.3818 7.47754 22.296 7.40543C22.2098 7.33352 22.0968 7.30242 21.9859 7.31922C21.089 7.4577 20.4245 7.81781 19.8939 8.45219C19.8156 8.54578 19.7457 8.64195 19.6802 8.73957C19.5859 8.31102 19.4604 7.89406 19.3053 7.49008C19.9401 7.04547 20.3438 6.50219 20.5634 5.79758C20.809 5.00832 20.7514 4.25473 20.3821 3.42539C20.3368 3.32277 20.249 3.24477 20.1418 3.21137C20.0339 3.17836 19.9179 3.1923 19.8221 3.25066C19.047 3.72313 18.5717 4.31098 18.3256 5.10059C18.2819 5.24082 18.2513 5.37977 18.2268 5.51836C18.0134 5.22801 17.7809 4.95109 17.5294 4.68801C17.8733 4.09277 18.0121 3.47359 17.9518 2.80395C17.8736 1.97539 17.5325 1.30113 16.8783 0.680703C16.7971 0.603438 16.6853 0.565313 16.5739 0.575039C16.4621 0.585352 16.3603 0.643125 16.2939 0.73375C15.7576 1.46828 15.5416 2.1927 15.6149 3.01359C15.658 3.51293 15.8018 3.95391 16.0547 4.36152C16.0738 4.39223 16.0971 4.42027 16.1238 4.44449C16.3708 4.64223 16.574 4.8225 16.7526 5.00012L16.767 5.01402C18.3046 6.50481 19.1172 8.47188 19.1172 10.7023C19.1172 11.4704 18.9874 12.2532 18.7318 13.0296C18.7304 13.0333 18.727 13.0364 18.7258 13.0402C18.6334 13.3281 18.5179 13.6294 18.3827 13.9354L18.3817 13.9355C17.8136 15.2067 16.8512 16.5512 15.6615 17.7387C15.5861 17.8139 15.5841 17.935 15.6584 18.0114L15.9306 18.291C16.0068 18.3693 16.1337 18.3708 16.211 18.2937C16.4877 18.0175 16.7507 17.7319 17.0026 17.4414C17.5496 17.7821 18.1 17.9474 18.6983 17.9474C18.7994 17.9474 18.902 17.9429 19.0062 17.9335C19.8298 17.8599 20.5046 17.5193 21.1302 16.8614C21.2076 16.7802 21.2462 16.6693 21.2362 16.5576C21.2263 16.4456 21.1687 16.3436 21.0779 16.2772C20.3455 15.7409 19.618 15.5251 18.7975 15.5991C18.6323 15.6139 18.4745 15.6425 18.3205 15.6792C18.5642 15.2944 18.7786 14.9093 18.9634 14.5277C19.1123 14.5468 19.2594 14.5595 19.4033 14.5595C19.9145 14.5595 20.3959 14.4393 20.8602 14.1973C21.5952 13.8093 22.0877 13.235 22.4116 12.3889C22.452 12.2838 22.4448 12.1667 22.3925 12.0673ZM14.48 15.0422C15.0336 14.5013 15.5016 13.8993 15.869 13.2562C16.5884 12.0193 16.9688 10.6006 16.9688 9.15348C16.9688 8.01078 16.7395 6.9068 16.2875 5.87207C16.2253 5.72977 16.0849 5.63785 15.9296 5.63785H7.07039C6.91512 5.63785 6.77477 5.72981 6.71258 5.87207C6.26051 6.90684 6.03125 8.01078 6.03125 9.15348C6.03125 10.6006 6.41156 12.0193 7.12949 13.2535C7.49836 13.8993 7.96644 14.5013 8.52566 15.0478C8.95559 15.4632 9.42976 15.8304 9.9375 16.1418V16.1848C9.9375 17.2765 9.69453 18.3387 9.23863 19.3125H13.7613C13.3055 18.3387 13.0625 17.2765 13.0625 16.1847C13.0625 16.1704 13.0625 16.1561 13.0625 16.1418C13.5702 15.8304 14.0452 15.4624 14.48 15.0422ZM14.2344 20.0938H8.76562C8.11941 20.0938 7.59375 20.6194 7.59375 21.2656V22.0469C7.59375 22.2626 7.76848 22.4375 7.98437 22.4375H15.0156C15.2315 22.4375 15.4062 22.2626 15.4062 22.0469V21.2656C15.4062 20.6194 14.8806 20.0938 14.2344 20.0938Z"/>
</symbol><symbol viewBox="0 0 22 22" id="m-wins" xmlns="http://www.w3.org/2000/svg">
<path d="M1.94116 19.9002H20.0588V21.9907H1.94116V19.9002Z"/>
<path d="M3.88235 16.4161H18.1177V18.5066H3.88235V16.4161Z"/>
<path d="M5.82352 12.9319H16.1765V15.0224H5.82352V12.9319Z"/>
<path d="M7.39799 11.0951L11 9.20144L14.602 11.0951L13.9141 7.08426L16.8281 4.24372L12.801 3.65856L11 0.00927734L9.19901 3.65856L5.17184 4.24372L8.0859 7.08426L7.39799 11.0951Z"/>
<path d="M19.4117 5.16721H22V6.46132H19.4117V5.16721Z"/>
<path d="M17.7683 9.61937L18.6832 8.70446L20.5131 10.5343L19.5982 11.4493L17.7683 9.61937Z"/>
<path d="M17.769 2.01218L19.599 0.182264L20.5139 1.09721L18.684 2.92712L17.769 2.01218Z"/>
<path d="M0 5.16721H2.58824V6.46132H0V5.16721Z"/>
<path d="M1.48221 10.5327L3.31206 8.70289L4.22703 9.61787L2.39718 11.4477L1.48221 10.5327Z"/>
<path d="M1.48331 1.0955L2.39828 0.180533L4.22819 2.01045L3.31322 2.92542L1.48331 1.0955Z"/>
</symbol><symbol viewBox="0 0 15 15" id="market" xmlns="http://www.w3.org/2000/svg">
<g clip-path="url(#beclip0_98_209)">
<path d="M7.5 0.9375C5.77011 0.9375 4.29843 1.72191 3.75 2.8125H11.25C10.7016 1.72191 9.22989 0.9375 7.5 0.9375Z"/>
<path d="M13.5938 3.28125H1.40625C1.14738 3.28125 0.9375 3.49113 0.9375 3.75V5.625C0.9375 5.88387 1.14738 6.09375 1.40625 6.09375H2.34375V4.92188C2.34375 4.79233 2.44858 4.6875 2.57812 4.6875C2.70767 4.6875 2.8125 4.79233 2.8125 4.92188V6.09375H4.21875V4.92188C4.21875 4.79233 4.32358 4.6875 4.45312 4.6875C4.58267 4.6875 4.6875 4.79233 4.6875 4.92188V6.09375H6.09375V4.92188C6.09375 4.79233 6.19858 4.6875 6.32812 4.6875C6.45767 4.6875 6.5625 4.79233 6.5625 4.92188V6.09375H8.4375V4.92188C8.4375 4.79233 8.54233 4.6875 8.67188 4.6875C8.80142 4.6875 8.90625 4.79233 8.90625 4.92188V6.09375H10.3125V4.92188C10.3125 4.79233 10.4173 4.6875 10.5469 4.6875C10.6764 4.6875 10.7812 4.79233 10.7812 4.92188V6.09375H12.1875V4.92188C12.1875 4.79233 12.2923 4.6875 12.4219 4.6875C12.5514 4.6875 12.6562 4.79233 12.6562 4.92188V6.09375H13.5938C13.8526 6.09375 14.0625 5.88387 14.0625 5.625V3.75C14.0625 3.49113 13.8526 3.28125 13.5938 3.28125Z"/>
<path d="M9.30928 8.90619H10.5469C10.6764 8.90619 10.7812 9.01102 10.7812 9.14057C10.7812 9.27011 10.6764 9.37494 10.5469 9.37494H10.2787L9.92074 11.6533C9.83056 12.225 9.29223 12.6562 8.6683 12.6562H6.33187C5.70771 12.6562 5.16938 12.225 5.07943 11.6533L4.72146 9.37494H4.45312C4.32358 9.37494 4.21875 9.27011 4.21875 9.14057C4.21875 9.01102 4.32358 8.90619 4.45312 8.90619H5.69072L6.47195 6.5625H1.875V13.5938C1.875 13.8526 2.08486 14.0625 2.34375 14.0625H12.6562C12.9151 14.0625 13.125 13.8526 13.125 13.5938V6.5625H8.52805L9.30928 8.90619Z"/>
<path d="M6.96592 6.5625L6.18469 8.90619H8.8154L8.03417 6.5625H6.96592Z"/>
<path d="M5.85937 9.3754C5.85843 9.3754 5.85746 9.37494 5.85651 9.37494H5.19604L5.54266 11.581C5.5969 11.9266 5.93611 12.1875 6.33184 12.1875H8.66827C9.06378 12.1875 9.40298 11.9266 9.45745 11.5805L9.80404 9.37494H9.14343C9.14248 9.37494 9.14151 9.3754 9.14057 9.3754L9.13914 9.37494H5.8608L5.85937 9.3754Z"/>
</g>
<defs>
<clipPath id="beclip0_98_209">
<rect width="15" height="15"/>
</clipPath>
</defs>
</symbol><symbol viewBox="0 0 18 18" id="neighbor" xmlns="http://www.w3.org/2000/svg">
<g clip-path="url(#bfclip0_98_192)">
<path d="M12.6803 9.31762C12.6453 9.29016 12.6031 9.27638 12.561 9.27638C12.5188 9.27638 12.4767 9.29016 12.4417 9.31762L8.22197 12.6374C8.16854 12.6794 8.10166 12.7026 8.03377 12.7026C7.93944 12.7026 7.85206 12.6603 7.79384 12.5863C7.7436 12.5223 7.72116 12.4426 7.73084 12.3616C7.74053 12.2808 7.78097 12.2084 7.84499 12.1582L12.561 8.44815L17.2769 12.1582C17.3409 12.2086 17.3816 12.2808 17.3911 12.3617C17.4008 12.4424 17.3784 12.5223 17.3279 12.5862C17.2698 12.6602 17.1824 12.7025 17.0881 12.7025C17.0202 12.7025 16.9533 12.6794 16.8998 12.6373L12.6803 9.31762Z"/>
<path d="M11.6252 14.5472H13.4967V17.7494H11.6252V14.5472Z"/>
<path d="M12.561 11.352C12.8467 11.352 13.0791 11.5844 13.0791 11.8702C13.0791 12.1559 12.8467 12.3883 12.561 12.3883C12.2752 12.3883 12.0427 12.1559 12.0427 11.8702C12.0427 11.5844 12.2752 11.352 12.561 11.352Z"/>
<path d="M8.98059 12.5314L12.5611 9.71465L16.1415 12.5313V17.7494H13.8826V14.3543C13.8826 14.2478 13.7963 14.1614 13.6898 14.1614H11.4324C11.3259 14.1614 11.2395 14.2478 11.2395 14.3543V17.7494H8.98059V12.5314ZM13.465 11.8702C13.465 11.3717 13.0594 10.9661 12.561 10.9661C12.0625 10.9661 11.6569 11.3717 11.6569 11.8702C11.6569 12.3686 12.0625 12.7742 12.561 12.7742C13.0594 12.7742 13.465 12.3686 13.465 11.8702Z"/>
<path d="M10.1551 8.12871C10.2191 8.17895 10.2596 8.25129 10.2693 8.33206C10.279 8.41295 10.2565 8.49281 10.2063 8.55683C10.1481 8.63077 10.0607 8.67315 9.96646 8.67315C9.89844 8.67315 9.83169 8.65002 9.77814 8.60776L5.55839 5.28812C5.52342 5.26067 5.48138 5.24677 5.43911 5.24677C5.39708 5.24677 5.35481 5.26067 5.31984 5.28812L1.1002 8.60776C1.04666 8.64991 0.979786 8.67315 0.911887 8.67315C0.817558 8.67315 0.730178 8.63066 0.672077 8.55683C0.621722 8.49281 0.599279 8.41306 0.608849 8.33206C0.618532 8.25129 0.659089 8.17895 0.723115 8.12871L5.439 4.41866L10.1551 8.12871Z"/>
<path d="M5.43915 7.32247C5.72487 7.32247 5.95727 7.55488 5.95727 7.8406C5.95727 8.12632 5.72487 8.35884 5.43915 8.35884C5.15343 8.35884 4.92102 8.12632 4.92102 7.8406C4.92102 7.55488 5.15343 7.32247 5.43915 7.32247Z"/>
<path d="M4.50342 9.76807H6.37485V13.7199H4.50342V9.76807Z"/>
<path d="M9.01945 8.50181V10.7434L7.60645 11.8549C7.46143 11.969 7.3696 12.1327 7.34762 12.3159C7.32574 12.4992 7.37655 12.6799 7.49059 12.8248C7.62252 12.9924 7.8204 13.0884 8.03367 13.0884C8.18758 13.0884 8.33933 13.036 8.46043 12.9406L8.59463 12.835V13.7199H6.76068V9.5752C6.76068 9.46868 6.67421 9.38233 6.56781 9.38233H4.31063C4.20411 9.38233 4.11776 9.46868 4.11776 9.5752V13.7199H1.85864V8.50192L5.43916 5.68515L9.01945 8.50181ZM6.34315 7.84059C6.34315 7.34218 5.93769 6.93661 5.43916 6.93661C4.94074 6.93661 4.53517 7.34218 4.53517 7.84059C4.53517 8.33912 4.94074 8.74469 5.43916 8.74469C5.93769 8.74469 6.34315 8.33912 6.34315 7.84059Z"/>
<path d="M12.6803 1.12022C12.6453 1.09276 12.6032 1.07886 12.561 1.07886C12.5188 1.07886 12.4767 1.09276 12.4417 1.12022L8.6722 4.08577L8.22209 4.43985C8.16866 4.48189 8.10179 4.50524 8.03389 4.50524C7.93956 4.50524 7.85218 4.46286 7.79396 4.38881C7.74372 4.3249 7.72128 4.24515 7.73096 4.16427C7.74065 4.08349 7.78109 4.01115 7.84512 3.96091L12.561 0.250633L17.2769 3.96057C17.3409 4.01092 17.3816 4.08327 17.3912 4.16404C17.4008 4.24492 17.3784 4.32479 17.3279 4.38858C17.2698 4.46263 17.1824 4.50501 17.0881 4.50501C17.0202 4.50501 16.9533 4.48177 16.8998 4.43962L12.6803 1.12022Z"/>
<path d="M12.561 3.15456C12.8467 3.15456 13.0791 3.38696 13.0791 3.67268C13.0791 3.9584 12.8467 4.19081 12.561 4.19081C12.2752 4.19081 12.0427 3.9584 12.0427 3.67268C12.0427 3.38696 12.2752 3.15456 12.561 3.15456Z"/>
<path d="M13.4967 5.60005V8.69332L12.6802 8.05101C12.6102 7.99588 12.5117 7.99588 12.4417 8.05101L11.6252 8.69332V5.60005H13.4967Z"/>
<path d="M16.1414 4.33379V9.55196H14.5883L13.8826 8.99692V5.40718C13.8826 5.30066 13.7962 5.2143 13.6897 5.2143H11.4323C11.3259 5.2143 11.2395 5.30066 11.2395 5.40718V8.99692L9.40529 10.4399V8.80531L9.53961 8.91091C9.66082 9.00627 9.81246 9.05879 9.96648 9.05879C10.1797 9.05879 10.3777 8.96275 10.5094 8.79517C10.6235 8.65025 10.6743 8.46946 10.6524 8.28627C10.6304 8.10319 10.5386 7.93937 10.3936 7.82533L8.98047 6.71366V4.33379L12.561 1.51701L16.1414 4.33379ZM13.465 3.67268C13.465 3.17427 13.0594 2.7687 12.561 2.7687C12.0625 2.7687 11.6569 3.17427 11.6569 3.67268C11.6569 4.17122 12.0625 4.57667 12.561 4.57667C13.0594 4.57667 13.465 4.17122 13.465 3.67268Z"/>
</g>
<defs>
<clipPath id="bfclip0_98_192">
<rect width="18" height="18"/>
</clipPath>
</defs>
</symbol><symbol viewBox="0 0 49 49" id="order-step-1" xmlns="http://www.w3.org/2000/svg">
<path d="M3.71995 26.0632C4.44788 35.4685 11.6855 43.5277 21.1213 45.0449L20.4393 45.727C19.8548 46.3114 19.8548 47.2594 20.4393 47.844C21.1453 48.4284 21.8512 48.4284 22.5562 47.844L25.5283 44.8728C26.1051 44.296 26.1042 43.3318 25.5283 42.7559L22.5562 39.7847C21.9718 39.1993 21.0238 39.1993 20.4393 39.7847C19.873 40.35 19.8558 41.2569 20.3857 41.8452C12.5225 39.9942 6.65281 32.9203 6.65281 24.5003C6.65281 16.7404 11.6089 9.92572 18.987 7.54279C19.7734 7.28831 20.2048 6.44458 19.9513 5.65732C19.6968 4.87102 18.8531 4.43862 18.0658 4.6931C10.0802 7.273 4.36261 14.6378 3.71976 22.9372" stroke-width="1.43556" stroke-miterlimit="10" stroke-linecap="round" stroke-linejoin="round"/>
<path d="M42.2179 26.0634C41.6028 33.1632 36.8293 39.2366 29.9515 41.4577C29.1652 41.7122 28.7337 42.556 28.9872 43.3432C29.2245 44.0769 30.1456 44.5418 30.8727 44.3074C39.3567 41.5668 45.2799 33.4253 45.2799 24.5002C45.2799 14.4378 37.7716 5.5559 27.8174 3.95554L28.4994 3.27345C29.0839 2.68899 29.0839 1.74104 28.4994 1.15648C27.915 0.571059 26.967 0.572016 26.3825 1.15648L23.4104 4.12761C22.8556 4.68337 22.8355 5.63237 23.3759 6.20918C23.3874 6.22066 23.3989 6.2331 23.4104 6.24459L26.3825 9.21572C27.0875 9.80114 27.7934 9.80114 28.4994 9.21572C29.0657 8.6504 29.083 7.7435 28.553 7.15521C35.9245 8.89042 41.5435 15.2154 42.218 22.9371" stroke-width="1.43556" stroke-miterlimit="10" stroke-linecap="round" stroke-linejoin="round"/>
<path d="M19.9342 12.6147H15.5549V31.9293L20.0126 36.386H33.3839V12.6147H23.0613" stroke-width="1.43556" stroke-miterlimit="10" stroke-linecap="round" stroke-linejoin="round"/>
<path d="M21.4981 15.5859H27.4408V21.5286H21.4981V15.5859Z" stroke-width="1.43556" stroke-miterlimit="10" stroke-linecap="round" stroke-linejoin="round"/>
<path d="M24.4695 17.0716V15.5859" stroke-width="1.43556" stroke-miterlimit="10" stroke-linecap="round" stroke-linejoin="round"/>
<path d="M15.5555 31.9287H20.0125V36.3857" stroke-width="1.43556" stroke-miterlimit="10" stroke-linecap="round" stroke-linejoin="round"/>
<path d="M30.4122 24.5H18.5266" stroke-width="1.43556" stroke-miterlimit="10" stroke-linecap="round" stroke-linejoin="round"/>
<path d="M30.4122 27.4717H18.5266" stroke-width="1.43556" stroke-miterlimit="10" stroke-linecap="round" stroke-linejoin="round"/>
<path d="M30.4122 30.4429H22.9839" stroke-width="1.43556" stroke-miterlimit="10" stroke-linecap="round" stroke-linejoin="round"/>
<path d="M30.4122 33.4141H22.9839" stroke-width="1.43556" stroke-miterlimit="10" stroke-linecap="round" stroke-linejoin="round"/>
</symbol><symbol viewBox="0 0 50 50" id="order-step-2" xmlns="http://www.w3.org/2000/svg">
<g clip-path="url(#bhclip0_1180_1377)">
<path d="M1.25002 30.3906L19.8828 38.1539C20.1461 38.3156 20.4641 38.325 20.7422 38.1539L25.3125 36.25C26.1766 35.9047 25.7094 34.4352 24.6875 34.8437L21.0938 36.3195V17.6953L38.2813 10.5336V19.5312C38.2813 20.5789 39.8438 20.5805 39.8438 19.5312V9.375C39.8339 9.29004 39.8047 9.13848 39.7033 8.98203C39.5596 8.76035 39.3593 8.66514 39.2789 8.63203C32.125 5.65078 27.4407 3.69922 20.625 0.859375C20.3906 0.78125 20.1563 0.78125 20 0.859375L1.34612 8.63203C0.987524 8.71953 0.781274 9.02656 0.781274 9.375V29.6875C0.779516 29.751 0.782739 29.9368 0.908715 30.121C1.02864 30.2963 1.18977 30.3675 1.25002 30.3906ZM20.3125 16.3281L15.3547 14.2664L32.0578 7.30703L37.0313 9.375L20.3125 16.3281ZM30.0563 6.47422L13.3531 13.4336L9.80315 11.957L26.5063 4.99766L30.0563 6.47422ZM8.59377 13.1383L12.5 14.7656V22.0312L8.59377 20.625V13.1383ZM20.3125 2.42187L24.5039 4.16484L7.80081 11.125L3.59377 9.375L20.3125 2.42187ZM2.34377 10.5336L7.03127 12.4867V21.1719C7.03127 21.5625 7.26565 21.7969 7.57815 21.875L13.0469 23.9062C13.2891 24.1492 14.0625 23.8125 14.0625 23.2031V15.4164L19.5313 17.6953V36.3148L2.34377 29.1406V10.5336Z"/>
<path d="M48.4375 25C44.7656 25 41.4844 24.6875 38.0469 21.3281C37.7344 21.0156 37.2656 21.0156 36.9531 21.3281C33.5156 24.6875 30.2344 25 26.5625 25C26.0937 25 25.7812 25.3125 25.7812 25.7813C25.7812 41.1719 30.3125 46.25 37.1875 49.1406C37.2945 49.2477 37.7055 49.2477 37.8125 49.1406C44.6875 46.25 49.2188 41.1719 49.2188 25.7813C49.2188 25.3125 48.9062 25 48.4375 25ZM37.5 47.5781C31.3281 44.9219 27.5 40.3125 27.3438 26.5625C30.2344 26.5625 33.9062 26.25 37.5 22.9688C41.0938 26.25 44.7656 26.5625 47.6562 26.5625C47.5 40.3125 43.6719 44.9219 37.5 47.5781Z"/>
<path d="M34.1406 33.0469C33.8281 32.7344 33.3594 32.7344 33.0469 33.0469L30.7031 35.3906C30.3906 35.7031 30.3906 36.1719 30.7031 36.4844L36.1719 41.9531C36.4883 42.2695 36.9484 42.2703 37.2656 41.9531L45.8594 33.3594C46.1719 33.0469 46.1719 32.5781 45.8594 32.2656L43.5156 29.9219C43.2031 29.6094 42.7344 29.6094 42.4219 29.9219L36.7188 35.625L34.1406 33.0469ZM42.9688 31.5625L44.2187 32.8125L36.7188 40.3125L32.3438 35.9375L33.5938 34.6875L36.1719 37.2656C36.4844 37.5781 36.9531 37.5781 37.2656 37.2656L42.9688 31.5625Z"/>
</g>
<defs>
<clipPath id="bhclip0_1180_1377">
<rect width="50" height="50"/>
</clipPath>
</defs>
</symbol><symbol viewBox="0 0 50 50" id="order-step-3" xmlns="http://www.w3.org/2000/svg">
<g clip-path="url(#biclip0_1180_1382)">
<path fill-rule="evenodd" clip-rule="evenodd" d="M35.6445 10.4507C39.9796 11.4567 41.6378 13.9915 43.7168 17.4805H35.6445V10.4507ZM10.3104 17.7734C11.1591 17.7734 11.7752 18.1831 11.7752 19.1406C11.7752 19.9482 11.1217 20.6032 10.3146 20.6055H1.46484C0.655746 20.6055 0 21.2616 0 22.0703C0 22.8794 0.655746 23.5352 1.46484 23.5352H14.6484C15.4652 23.5352 16.119 24.1905 16.119 25C16.119 25.8091 15.4633 26.4648 14.6542 26.4648H1.46484C0.655746 26.4648 0 27.1206 0 27.9297C0 28.7388 0.655746 29.3945 1.46484 29.3945H4.6875V33.7891C4.6875 34.5982 5.34325 35.2539 6.15234 35.2539H9.09691C9.62181 37.8395 11.9064 39.7461 14.5996 39.7461C17.2928 39.7461 19.5774 37.8395 20.1023 35.2539H34.9758C35.5007 37.8395 37.7853 39.7461 40.4785 39.7461C43.1717 39.7461 45.4563 37.8395 45.9812 35.2539H48.5352C49.3443 35.2539 50 34.5982 50 33.7891V25C50 20.702 45.4666 20.4166 45.4624 20.4102H34.1797C33.3706 20.4102 32.7148 19.7544 32.7148 18.9453V10.1562H6.15234C5.34325 10.1562 4.6875 10.812 4.6875 11.6211V14.8438H2.92969C2.12059 14.8438 1.46484 15.4995 1.46484 16.3086C1.46484 17.1177 2.12059 17.7734 2.92969 17.7734H10.3104ZM42.3775 32.2319C43.4261 33.2806 43.4261 34.9815 42.3775 36.0302C40.6906 37.7171 37.793 36.517 37.793 34.1309C37.793 31.7451 40.6906 30.545 42.3775 32.2319ZM16.4986 32.2319C17.5472 33.2806 17.5472 34.9815 16.4986 36.0302C14.8117 37.7171 11.9141 36.517 11.9141 34.1309C11.9141 31.7451 14.8117 30.545 16.4986 32.2319Z"/>
</g>
<defs>
<clipPath id="biclip0_1180_1382">
<rect width="50" height="50"/>
</clipPath>
</defs>
</symbol><symbol viewBox="0 0 50 50" id="order-step-4" xmlns="http://www.w3.org/2000/svg">
<path d="M45.1661 8.0625H19.6876C19.5773 8.06272 19.4684 8.08642 19.368 8.13202C19.2677 8.17762 19.1782 8.24407 19.1055 8.32695C19.0985 8.33438 14.4383 13.4328 14.4383 13.4328C14.3069 13.5768 14.234 13.7648 14.234 13.9598V25.7773C13.4326 26.4848 12.7383 27.3051 12.1731 28.2125C12.0208 28.4563 11.851 28.6888 11.6653 28.9082C11.3645 29.1086 11.0065 29.2054 10.6458 29.184V28.1293C10.6458 27.9221 10.5634 27.7234 10.4169 27.5769C10.2704 27.4304 10.0717 27.348 9.8645 27.348H6.20122C5.19028 27.348 5.19224 28.9105 6.20122 28.9105H9.08482V30.9289H4.83403C3.82857 30.9289 3.8231 32.4914 4.83403 32.4914H10.6708V40.1375H4.83403C3.82583 40.1375 3.82583 41.7 4.83403 41.7H11.452C11.6592 41.7 11.8579 41.6177 12.0044 41.4712C12.1509 41.3247 12.2333 41.1259 12.2333 40.9188V40.3988L15.036 41.1883C16.6736 41.6423 18.3609 41.8923 20.0598 41.9324C21.736 41.9397 23.3918 41.5638 24.9004 40.8332C26.9625 39.8703 32.3614 36.7492 33.4395 36.1238H45.1661C45.3733 36.1238 45.572 36.0415 45.7185 35.895C45.865 35.7485 45.9473 35.5498 45.9473 35.3426V8.84375C45.9473 8.63655 45.865 8.43784 45.7185 8.29132C45.572 8.14481 45.3733 8.0625 45.1661 8.0625ZM30.3098 9.625H34.5454V16.3438H30.3098V9.625ZM18.9063 10.8574V28.6168C17.7844 29.1372 16.7383 29.8073 15.7965 30.609V14.2625L18.9063 10.8574ZM10.6473 30.9305V30.7445C11.4225 30.7746 12.1809 30.5136 12.7735 30.0129C13.0346 29.7252 13.2688 29.4141 13.4731 29.0836C13.6938 28.7551 13.9418 28.3863 14.2368 28.0152V31.8824C14.2368 31.8906 14.2391 31.8984 14.2391 31.907C13.6541 32.3845 12.9693 32.7244 12.2352 32.9016V31.7117C12.2352 31.5045 12.1529 31.3058 12.0064 31.1593C11.8599 31.0128 11.6612 30.9305 11.454 30.9305H10.6473ZM24.2411 39.4191C21.6907 40.6102 19.3829 40.6773 15.4415 39.6801L12.2333 38.7773V34.4887C13.3492 34.296 14.3948 33.8133 15.2653 33.0891C15.5278 32.8789 15.7958 32.652 16.0739 32.4156C17.5125 31.1953 19.1434 29.8125 21.7743 29.3746C22.5535 29.2376 23.3086 28.9876 24.0157 28.6324C24.9209 28.1829 25.8772 27.8446 26.8637 27.625C27.3012 27.5297 28.2922 27.2699 28.3895 27.9324C28.4555 28.3809 27.6864 28.877 27.2743 29.1434C26.2942 29.7517 25.2789 30.3014 24.2336 30.7895C23.8121 30.9952 23.4534 31.3104 23.1951 31.702C22.9369 32.0937 22.7884 32.5475 22.7653 33.016C22.7397 33.4575 22.8348 33.8975 23.0404 34.289C23.2461 34.6805 23.5544 35.0085 23.9325 35.2379C24.8879 35.8238 26.2829 36.1219 28.0786 36.1219H30.302C28.261 37.2879 25.5266 38.818 24.2395 39.4191H24.2411ZM44.3864 34.5629H28.079C26.5973 34.5629 25.4465 34.3371 24.7504 33.9098C24.612 33.8255 24.4993 33.7049 24.4245 33.5611C24.3498 33.4174 24.3158 33.2559 24.3262 33.0941C24.336 32.9049 24.3964 32.7218 24.5009 32.5638C24.6055 32.4058 24.7504 32.2787 24.9208 32.1957C26.0222 31.6813 27.0919 31.1012 28.1239 30.4586C28.7813 30.034 30.1497 29.1504 29.9372 27.7074C29.9071 27.4365 29.82 27.175 29.6816 26.9401C29.5431 26.7053 29.3565 26.5024 29.134 26.3449C28.5344 25.9301 27.6836 25.8504 26.5329 26.1012C25.4233 26.3481 24.3478 26.7285 23.3297 27.234C22.7593 27.5212 22.15 27.7239 21.5211 27.8355C21.1547 27.8965 20.8063 27.9738 20.4723 28.0637V9.625H28.7497V17.125C28.7497 17.3322 28.832 17.5309 28.9785 17.6774C29.125 17.8239 29.3237 17.9062 29.5309 17.9062H35.3266C35.5338 17.9062 35.7325 17.8239 35.879 17.6774C36.0256 17.5309 36.1079 17.3322 36.1079 17.125V9.625H44.3848L44.3864 34.5629ZM42.1875 32.3C42.1875 32.5072 42.1052 32.7059 41.9587 32.8524C41.8122 32.9989 41.6135 33.0813 41.4063 33.0813H34.2743C34.0671 33.0813 33.8684 32.9989 33.7218 32.8524C33.5753 32.7059 33.493 32.5072 33.493 32.3C33.493 32.0928 33.5753 31.8941 33.7218 31.7476C33.8684 31.6011 34.0671 31.5188 34.2743 31.5188H41.4063C41.6135 31.5188 41.8122 31.6011 41.9587 31.7476C42.1052 31.8941 42.1875 32.0928 42.1875 32.3ZM38.7352 26.9457C38.5833 26.8048 38.4936 26.6094 38.4857 26.4024C38.4779 26.1954 38.5526 25.9937 38.6934 25.8418L40.1934 24.223C40.2683 24.1472 40.3575 24.0869 40.4559 24.0458C40.5543 24.0046 40.6598 23.9834 40.7665 23.9834C40.8731 23.9834 40.9786 24.0046 41.077 24.0458C41.1754 24.0869 41.2646 24.1472 41.3395 24.223L42.8395 25.8418C42.9803 25.9937 43.055 26.1954 43.0472 26.4024C43.0393 26.6094 42.9496 26.8048 42.7977 26.9457C42.6447 27.0842 42.4435 27.1574 42.2372 27.1496C42.031 27.1418 41.8359 27.0536 41.6938 26.9039L41.5477 26.7477V29.4961C41.5477 29.7033 41.4654 29.902 41.3189 30.0485C41.1724 30.195 40.9737 30.2773 40.7665 30.2773C40.5593 30.2773 40.3605 30.195 40.214 30.0485C40.0675 29.902 39.9852 29.7033 39.9852 29.4961V26.7465L39.8391 26.9027C39.6984 27.0548 39.5031 27.1448 39.2961 27.1528C39.089 27.1609 38.8873 27.0864 38.7352 26.9457ZM37.5344 25.8418C37.6042 25.917 37.6584 26.0053 37.694 26.1015C37.7297 26.1977 37.746 26.3 37.7421 26.4025C37.7382 26.5051 37.7141 26.6058 37.6713 26.6991C37.6285 26.7923 37.5677 26.8762 37.4924 26.9459C37.4172 27.0156 37.3289 27.0699 37.2327 27.1055C37.1365 27.1411 37.0342 27.1575 36.9317 27.1536C36.8292 27.1497 36.7284 27.1256 36.6352 27.0828C36.542 27.0399 36.4581 26.9792 36.3883 26.9039L36.2422 26.7477V29.4961C36.2422 29.7033 36.1599 29.902 36.0134 30.0485C35.8669 30.195 35.6682 30.2773 35.461 30.2773C35.2538 30.2773 35.0551 30.195 34.9086 30.0485C34.762 29.902 34.6797 29.7033 34.6797 29.4961V26.7465L34.5336 26.9027C34.3928 27.0547 34.1973 27.1445 33.9903 27.1524C33.7832 27.1603 33.5815 27.0856 33.4295 26.9447C33.2776 26.8039 33.1878 26.6084 33.1799 26.4014C33.172 26.1943 33.2467 25.9926 33.3876 25.8406L34.8875 24.2219C34.9624 24.146 35.0517 24.0857 35.15 24.0446C35.2484 24.0035 35.354 23.9823 35.4606 23.9823C35.5672 23.9823 35.6728 24.0035 35.7712 24.0446C35.8695 24.0857 35.9588 24.146 36.0336 24.2219L37.5344 25.8418Z"/>
</symbol><symbol viewBox="0 0 50 50" id="order-step-5" xmlns="http://www.w3.org/2000/svg">
<path d="M44.8125 25C44.8125 35.9421 35.9421 44.8125 25 44.8125C14.0579 44.8125 5.1875 35.9421 5.1875 25C5.1875 14.0579 14.0579 5.1875 25 5.1875C35.9421 5.1875 44.8125 14.0579 44.8125 25Z"/>
<path d="M21.875 32.8126H21.8337C21.6064 32.8062 21.3832 32.7505 21.1796 32.6494C20.9759 32.5482 20.7967 32.4039 20.6543 32.2267L14.4043 24.4142C14.2761 24.2538 14.1807 24.0699 14.1235 23.8727C14.0664 23.6755 14.0487 23.469 14.0713 23.265C14.094 23.0609 14.1566 22.8633 14.2557 22.6835C14.3547 22.5037 14.4882 22.3451 14.6485 22.2169C14.8088 22.0886 14.9928 21.9932 15.1899 21.9361C15.3871 21.879 15.5936 21.8612 15.7977 21.8839C16.0017 21.9066 16.1993 21.9692 16.3791 22.0682C16.5589 22.1672 16.7175 22.3007 16.8457 22.461L21.9375 28.827L33.2076 16.1499C33.3419 15.9899 33.507 15.8584 33.693 15.7632C33.879 15.6681 34.0822 15.6112 34.2906 15.596C34.499 15.5807 34.7083 15.6074 34.9062 15.6745C35.104 15.7416 35.2865 15.8477 35.4426 15.9865C35.5988 16.1253 35.7255 16.294 35.8153 16.4827C35.9051 16.6713 35.9562 16.8761 35.9655 17.0848C35.9748 17.2935 35.9421 17.502 35.8694 17.6979C35.7967 17.8938 35.6855 18.0731 35.5423 18.2252L23.0423 32.2877C22.8959 32.4528 22.7161 32.5849 22.5149 32.6753C22.3137 32.7658 22.0956 32.8126 21.875 32.8126Z"/>
</symbol><symbol viewBox="0 0 13 13" id="question" xmlns="http://www.w3.org/2000/svg">
<path d="M7.57692 9.74973H5.13937C5.03115 9.74973 4.93631 9.79061 4.85506 9.87171C4.77374 9.95303 4.73315 10.0477 4.73315 10.1561V12.5938C4.73315 12.7021 4.77389 12.7969 4.85506 12.8781C4.93631 12.9592 5.03105 13 5.13937 13H7.57692C7.68514 13 7.78023 12.9593 7.86116 12.8781C7.94262 12.7969 7.98328 12.7021 7.98328 12.5938V10.1561C7.98328 10.0477 7.94273 9.95303 7.86116 9.87171C7.78023 9.79039 7.68514 9.74973 7.57692 9.74973Z"/>
<path d="M10.7764 2.45282C10.4987 1.94134 10.14 1.50991 9.69974 1.15773C9.25981 0.805701 8.7652 0.524565 8.21687 0.314753C7.66843 0.105013 7.12341 0 6.58163 0C4.52339 0 2.95258 0.90054 1.86916 2.70165C1.81505 2.78963 1.79638 2.88439 1.81327 2.98599C1.83028 3.08745 1.88275 3.17211 1.97076 3.23981L3.63644 4.50946C3.72445 4.56353 3.80912 4.5906 3.8904 4.5906C4.01231 4.5906 4.11718 4.53635 4.2053 4.42803C4.69272 3.81873 5.05504 3.42941 5.29199 3.26005C5.58319 3.06376 5.94871 2.96564 6.38882 2.96564C6.80183 2.96564 7.16568 3.074 7.48064 3.2905C7.79547 3.50721 7.95274 3.75776 7.95274 4.04213C7.95274 4.36023 7.86825 4.61764 7.69892 4.814C7.5297 5.01029 7.24522 5.19979 6.84566 5.38268C6.31768 5.61963 5.83335 5.987 5.39345 6.48467C4.95323 6.98237 4.73328 7.5122 4.73328 8.07416V8.53117C4.73328 8.65994 4.76864 8.78683 4.83985 8.91209C4.911 9.03745 4.99727 9.10002 5.0989 9.10002H7.53642C7.64478 9.10002 7.73947 9.04766 7.8208 8.94236C7.90187 8.8377 7.94267 8.72764 7.94267 8.6127C7.94267 8.44348 8.03576 8.21641 8.22181 7.93218C8.40804 7.64781 8.63987 7.42754 8.9177 7.27176C9.18162 7.12285 9.38794 7.00283 9.53707 6.9113C9.68633 6.82002 9.88085 6.67242 10.1213 6.46944C10.3616 6.26625 10.5478 6.0648 10.6797 5.86512C10.8118 5.66541 10.9304 5.40637 11.0353 5.08806C11.1405 4.76985 11.1928 4.42789 11.1928 4.0623C11.1928 3.50031 11.0538 2.96376 10.7764 2.45282Z"/>
</symbol><symbol viewBox="0 0 22 22" id="question-2" xmlns="http://www.w3.org/2000/svg">
<path d="M11 22C12.0679 22 12.9336 21.1343 12.9336 20.0664C12.9336 18.9985 12.0679 18.1328 11 18.1328C9.93211 18.1328 9.06641 18.9985 9.06641 20.0664C9.06641 21.1343 9.93211 22 11 22Z"/>
<path d="M17.4364 6.10509C17.2624 2.75013 14.4931 0.0690508 11.132 0.00128906C11.0879 0.000429687 11.0442 0 11.0004 0C7.79329 0 5.06116 2.3641 4.61678 5.54873C4.57557 5.84397 4.55469 6.14561 4.55469 6.44531C4.55469 7.51322 5.42038 8.37891 6.48828 8.37891C7.55618 8.37891 8.42187 7.51322 8.42187 6.44531C8.42187 6.32384 8.43025 6.20207 8.44688 6.08326C8.62684 4.79389 9.74548 3.84179 11.0541 3.8677C11.6996 3.88072 12.3157 4.14012 12.7892 4.59822C13.2622 5.05587 13.5411 5.66225 13.5745 6.30545C13.6116 7.02174 13.3613 7.70146 12.8695 8.21945C12.3772 8.73791 11.7133 9.02344 11 9.02344C9.93205 9.02344 9.06636 9.88913 9.06636 10.957V14.7812C9.06636 15.8492 9.93205 16.7148 11 16.7148C12.0679 16.7148 12.9336 15.8492 12.9336 14.7812V12.5912C13.9679 12.2645 14.9169 11.6795 15.674 10.8822C16.9032 9.58749 17.5291 7.89095 17.4364 6.10509Z"/>
</symbol><symbol viewBox="0 0 5 8" id="right" xmlns="http://www.w3.org/2000/svg">
<path d="M4.85355 4.35355C5.04882 4.15829 5.04882 3.84171 4.85355 3.64645L1.67157 0.464466C1.47631 0.269204 1.15973 0.269204 0.964466 0.464466C0.769204 0.659728 0.769204 0.976311 0.964466 1.17157L3.79289 4L0.964466 6.82843C0.769204 7.02369 0.769204 7.34027 0.964466 7.53553C1.15973 7.7308 1.47631 7.7308 1.67157 7.53553L4.85355 4.35355ZM3.5 4.5H4.5V3.5H3.5V4.5Z"/>
</symbol><symbol viewBox="0 0 15 15" id="rocket" xmlns="http://www.w3.org/2000/svg">
<path fill-rule="evenodd" clip-rule="evenodd" d="M2.723 11.2006C2.4518 11.2432 1.48062 11.4437 1.21741 12.1547L1.78133 12.1547C1.86213 12.1547 1.93359 12.2062 1.95901 12.2829C1.98419 12.3593 1.95794 12.4429 1.89318 12.491C1.70024 12.6359 1.25461 13.046 1.26371 13.7357C1.95475 13.7448 2.36366 13.2995 2.50872 13.1058C2.55718 13.0414 2.64094 13.0155 2.71694 13.0409C2.79351 13.0664 2.84487 13.1376 2.84487 13.2181V13.7824C3.55836 13.5187 3.75691 12.5475 3.79896 12.2766L2.723 11.2006Z"/>
<path fill-rule="evenodd" clip-rule="evenodd" d="M2.39031 9.67336L2.0462 10.0175C2.02693 10.0369 2.02691 10.0686 2.04618 10.088L2.87782 10.9196C2.88442 10.9251 2.89054 10.9313 2.89613 10.9379L4.06483 12.1065C4.06901 12.1103 4.07298 12.1142 4.07672 12.1184L4.91197 12.9536C4.93151 12.9729 4.96308 12.9731 4.98261 12.9537L5.32656 12.6095L2.39031 9.67336Z"/>
<path fill-rule="evenodd" clip-rule="evenodd" d="M3.45081 8.02122L2.3125 9.15951L5.84041 12.6874L6.98207 11.5456C6.98451 11.543 6.98702 11.5405 6.98964 11.5381L9.32316 9.2044L9.32551 9.20205L10.7463 7.78115C11.6507 6.87673 12.3807 5.82597 12.9115 4.683C12.3767 4.52431 11.8063 4.16652 11.3198 3.68003C10.8332 3.19322 10.4752 2.62298 10.3168 2.08855C9.17392 2.61928 8.12317 3.34908 7.21867 4.25337L5.80353 5.6685C5.79923 5.67338 5.79462 5.67798 5.78974 5.68228L3.46528 8.00673C3.46077 8.01187 3.45595 8.01671 3.45081 8.02122ZM9.00486 8.00425C7.89688 8.00425 6.99576 7.10305 6.99576 5.99525C6.99576 4.88743 7.89686 3.98624 9.00484 3.98624C10.1126 3.98623 11.0137 4.88745 11.0137 5.99525C11.0137 7.10304 10.1126 8.00426 9.00486 8.00425Z"/>
<path fill-rule="evenodd" clip-rule="evenodd" d="M9.26739 9.69635L7.2489 11.715L7.24892 13.8729L7.49084 13.631C8.55336 12.5684 9.17598 11.1833 9.26739 9.69635Z"/>
<path fill-rule="evenodd" clip-rule="evenodd" d="M5.30359 5.73255C3.81696 5.82393 2.43185 6.44656 1.36885 7.50913L1.1272 7.75104H3.28503L5.30359 5.73255Z"/>
<path fill-rule="evenodd" clip-rule="evenodd" d="M8.06519 5.99525C8.0652 6.51329 8.48671 6.93482 9.00484 6.93482C9.52272 6.9348 9.94422 6.51333 9.94422 5.99525C9.94423 5.47714 9.52271 5.05569 9.00486 5.05568C8.48673 5.05568 8.06519 5.47717 8.06519 5.99525Z"/>
<path fill-rule="evenodd" clip-rule="evenodd" d="M9.00487 7.24312C8.31681 7.24312 7.7569 6.68336 7.7569 5.99527C7.75691 5.30716 8.31678 4.74742 9.00486 4.74742C9.69294 4.74738 10.2526 5.30719 10.2526 5.99527C10.2526 6.68335 9.69293 7.24314 9.00487 7.24312ZM7.30408 5.99527C7.30408 6.93301 8.06708 7.696 9.00486 7.696C9.94266 7.69595 10.7054 6.93304 10.7054 5.99527C10.7054 5.05744 9.94263 4.29454 9.00487 4.29449C8.06708 4.29449 7.30408 5.05749 7.30408 5.99527Z"/>
<path fill-rule="evenodd" clip-rule="evenodd" d="M10.6011 1.96136C10.738 2.45777 11.0739 2.99789 11.538 3.46203C12.0019 3.92585 12.5419 4.26184 13.0387 4.39884C13.483 3.36542 13.767 2.26204 13.8728 1.12711C12.7379 1.23302 11.6345 1.517 10.6011 1.96136Z"/>
</symbol><symbol viewBox="0 0 30 30" id="search" xmlns="http://www.w3.org/2000/svg">
<path d="M25.9753 24.6497L20.3794 19.0537C21.7031 17.4375 22.5 15.3731 22.5 13.125C22.5 7.95563 18.2944 3.75 13.125 3.75C7.95563 3.75 3.75 7.95563 3.75 13.125C3.75 18.2944 7.95563 22.5 13.125 22.5C15.3731 22.5 17.4375 21.7031 19.0537 20.3794L24.6497 25.9753C25.0162 26.3419 25.6088 26.3419 25.9753 25.9753C26.3419 25.6088 26.3419 25.0162 25.9753 24.6497ZM5.625 13.125C5.625 8.98969 8.98969 5.625 13.125 5.625C17.2603 5.625 20.625 8.98969 20.625 13.125C20.625 17.2603 17.2603 20.625 13.125 20.625C8.98969 20.625 5.625 17.2603 5.625 13.125Z"/>
</symbol><symbol viewBox="0 0 15 15" id="settings" xmlns="http://www.w3.org/2000/svg">
<g clip-path="url(#brclip0_98_227)">
<path d="M14.5505 9.14376L13.1718 8.06563C13.1892 7.89937 13.2043 7.70502 13.2043 7.49938C13.2043 7.29375 13.1899 7.09939 13.1718 6.93314L14.5518 5.85439C14.808 5.65189 14.878 5.29251 14.7149 4.99315L13.2811 2.5125C13.128 2.23251 12.7924 2.08875 12.4518 2.21438L10.8249 2.86749C10.513 2.64249 10.1861 2.4525 9.848 2.30063L9.6005 0.57501C9.55986 0.2475 9.27487 0 8.93801 0H6.06302C5.72613 0 5.44178 0.2475 5.40176 0.57L5.15364 2.30188C4.82613 2.44939 4.50428 2.63689 4.17864 2.86875L2.54739 2.21376C2.24174 2.09563 1.87612 2.22812 1.72424 2.50688L0.288635 4.99063C0.119269 5.27689 0.18926 5.64876 0.451144 5.85627L1.82988 6.93439C1.808 7.14501 1.79739 7.32814 1.79739 7.50003C1.79739 7.67191 1.80803 7.85502 1.82988 8.06628L0.449885 9.14502C0.193625 9.34813 0.12425 9.70752 0.287375 10.0063L1.72113 12.4869C1.87427 12.7663 2.20676 12.9113 2.5505 12.785L4.17738 12.1319C4.48863 12.3563 4.8155 12.5463 5.15364 12.6988L5.40114 14.4238C5.44175 14.7525 5.72613 15 6.06363 15H8.93863C9.27551 15 9.56051 14.7525 9.6005 14.43L9.84862 12.6988C10.1761 12.5506 10.4974 12.3637 10.8236 12.1312L12.4549 12.7862C12.5336 12.8169 12.6155 12.8325 12.6999 12.8325C12.9424 12.8325 13.1655 12.7 13.278 12.4937L14.718 9.99999C14.878 9.70749 14.808 9.34813 14.5505 9.14376ZM7.5005 9.99999C6.12176 9.99999 5.00051 8.87874 5.00051 7.5C5.00051 6.12126 6.12176 5.00001 7.5005 5.00001C8.87924 5.00001 10.0005 6.12126 10.0005 7.5C10.0005 8.87874 8.87924 9.99999 7.5005 9.99999Z"/>
</g>
<defs>
<clipPath id="brclip0_98_227">
<rect width="15" height="15"/>
</clipPath>
</defs>
</symbol><symbol viewBox="0 0 14 15" id="settings-edit" xmlns="http://www.w3.org/2000/svg">
<g clip-path="url(#bqclip0_1739_102)">
<path d="M0.569212 14.5217C0.455437 14.5217 0.343894 14.4771 0.261486 14.394C0.153452 14.286 0.109856 14.1291 0.147072 13.9811L0.964663 10.6995C0.983803 10.6228 1.02336 10.5525 1.07908 10.4968L10.2829 1.29298C10.9054 0.670405 11.9187 0.670405 12.5413 1.29298L13.3624 2.11408C13.985 2.73666 13.985 3.75001 13.3624 4.37248L4.15868 13.5763C4.10286 13.632 4.03257 13.6721 3.95601 13.6907L0.674375 14.5083C0.639498 14.5177 0.604621 14.5217 0.569212 14.5217ZM1.78002 11.027L1.1668 13.4881L3.62787 12.8748L12.7468 3.75639C13.0297 3.47355 13.0297 3.01249 12.7468 2.72964L11.9257 1.90854C11.6424 1.62517 11.1812 1.6257 10.899 1.90854L1.78002 11.027Z"/>
<path d="M11.6381 5.91665C11.5266 5.91665 11.415 5.87422 11.3303 5.78895L8.86634 3.32554C8.6961 3.1553 8.6961 2.87947 8.86634 2.70934C9.03647 2.53921 9.3123 2.53921 9.48243 2.70934L11.9465 5.17339C12.1166 5.34352 12.1166 5.61935 11.9465 5.78948C11.8605 5.87422 11.749 5.91665 11.6381 5.91665Z"/>
<path d="M3.85064 13.7041C3.73909 13.7041 3.62766 13.6617 3.54291 13.5763L1.07886 11.1124C0.90873 10.9421 0.90873 10.6663 1.07886 10.4962C1.24899 10.3261 1.52482 10.3261 1.69506 10.4962L4.159 12.9602C4.32913 13.1304 4.32913 13.4062 4.159 13.5763C4.07361 13.6617 3.96218 13.7041 3.85064 13.7041Z"/>
</g>
<defs>
<clipPath id="bqclip0_1739_102">
<rect width="13.6957" height="13.6957" transform="translate(0.130371 0.82608)"/>
</clipPath>
</defs>
</symbol><symbol viewBox="0 0 22 14" id="slider-arrow" xmlns="http://www.w3.org/2000/svg">
<path d="M0.864997 7.86823L7.47651 13.1301C8.15987 13.6597 9.18492 13.1814 9.18492 12.3101L9.18492 10.5504C9.18492 9.98665 9.56076 9.49121 10.1245 9.49121L20.6312 9.49121C21.195 9.49121 21.6562 9.08119 21.6562 8.50034L21.6562 5.73272C21.6562 5.18604 21.195 4.70768 20.6312 4.70768L10.1245 4.70768C9.56076 4.70768 9.18491 4.26333 9.18491 3.69973L9.18491 1.94007C9.18491 1.08587 8.15987 0.607518 7.4936 1.13712L0.899165 6.26233C0.352476 6.65526 0.335393 7.45821 0.864997 7.86823Z"/>
</symbol><symbol viewBox="0 0 20 20" id="target" xmlns="http://www.w3.org/2000/svg">
<g clip-path="url(#btclip0_2451_27338)">
<path d="M17.9251 9.31819C17.5972 5.47487 14.5252 2.40284 10.6819 2.07501V0.454559H9.31825V2.07501C5.4749 2.40284 2.40287 5.47487 2.07504 9.31819H0.45459V10.6818H2.07504C2.40287 14.5251 5.4749 17.5972 9.31822 17.925V19.5455H10.6818V17.925C14.5252 17.5972 17.5972 14.5252 17.925 10.6818H19.5455V9.31822L17.9251 9.31819ZM16.5559 10.6818C16.2367 13.7727 13.7728 16.2367 10.6819 16.5558V15H9.31825V16.5558C6.22735 16.2367 3.7634 13.7727 3.44426 10.6818H5.00009V9.31822H3.44422C3.76336 6.22732 6.22732 3.76336 9.31822 3.44423V5.00006H10.6818V3.44419C13.7727 3.76333 16.2367 6.22729 16.5558 9.31819H15V10.6818H16.5559V10.6818Z"/>
<path d="M10.6821 9.31818V7.72729H9.31842V9.31818H7.72754V10.6818H9.31842V12.2727H10.6821V10.6818H12.273V9.31818H10.6821Z"/>
</g>
<defs>
<clipPath id="btclip0_2451_27338">
<rect width="19.0909" height="19.0909" transform="translate(0.45459 0.454559)"/>
</clipPath>
</defs>
</symbol><symbol viewBox="0 0 15 15" id="task" xmlns="http://www.w3.org/2000/svg">
<path fill-rule="evenodd" clip-rule="evenodd" d="M12.877 3.22828H2.12292V13.1334C2.12292 13.8455 2.69996 14.4225 3.41199 14.4225H11.5879C12.3 14.4225 12.877 13.8455 12.877 13.1334V3.22828ZM5.22042 12.5002L6.34261 11.378C6.47996 11.2406 6.47996 11.018 6.34261 10.8806C6.20527 10.7433 5.98261 10.7433 5.84527 10.8806L4.97152 11.7544L4.55574 11.3386C4.41886 11.2013 4.19574 11.2013 4.05886 11.3386C3.92152 11.4759 3.92152 11.6986 4.05886 11.8359L4.72308 12.5002C4.84542 12.6225 5.03527 12.6356 5.17214 12.5405L5.18574 12.5306L5.19699 12.5212L5.20871 12.5109L5.22042 12.5002ZM7.49996 12.0417H10.7812C10.9753 12.0417 11.1328 11.8842 11.1328 11.6902C11.1328 11.4966 10.9753 11.3386 10.7812 11.3386H7.49996C7.30589 11.3386 7.14839 11.4966 7.14839 11.6902C7.14839 11.8842 7.30589 12.0417 7.49996 12.0417ZM5.22042 9.45516L6.34261 8.3325C6.47996 8.19562 6.47996 7.9725 6.34261 7.83562C6.20527 7.69828 5.98261 7.69828 5.84527 7.83562L4.97152 8.70938L4.55574 8.29359C4.41886 8.15625 4.19574 8.15625 4.05886 8.29359C3.92152 8.43094 3.92152 8.65359 4.05886 8.79094L4.72308 9.45516C4.85058 9.58266 5.05214 9.59156 5.18996 9.48188L5.20214 9.47203L5.21386 9.46125L5.22042 9.45516ZM7.49996 8.99672H10.7812C10.9753 8.99672 11.1328 8.83922 11.1328 8.64516C11.1328 8.45109 10.9753 8.29359 10.7812 8.29359H7.49996C7.30589 8.29359 7.14839 8.45109 7.14839 8.64516C7.14839 8.83922 7.30589 8.99672 7.49996 8.99672ZM5.22042 6.41016L6.34261 5.2875C6.47996 5.15016 6.47996 4.9275 6.34261 4.79063C6.20527 4.65328 5.98261 4.65328 5.84527 4.79063L4.97152 5.66437L4.55574 5.24859C4.41886 5.11125 4.19574 5.11125 4.05886 5.24859C3.92152 5.38547 3.92152 5.60859 4.05886 5.74547L4.72308 6.41016C4.84964 6.53625 5.04886 6.54609 5.18667 6.43969L5.19699 6.43125L5.20871 6.42094L5.22042 6.41016ZM7.49996 5.95172H10.7812C10.9753 5.95172 11.1328 5.79422 11.1328 5.60016C11.1328 5.40609 10.9753 5.24859 10.7812 5.24859H7.49996C7.30589 5.24859 7.14839 5.40609 7.14839 5.60016C7.14839 5.79422 7.30589 5.95172 7.49996 5.95172ZM2.12292 2.52516H12.877V1.875C12.877 1.16297 12.3 0.585938 11.5879 0.585938C9.67214 0.585938 5.32777 0.585938 3.41199 0.585938C2.69996 0.585938 2.12292 1.16297 2.12292 1.875V2.52516Z"/>
</symbol></svg>