<svg width="32" height="12" viewBox="0 0 32 12" fill="none" xmlns="http://www.w3.org/2000/svg">
<path d="M31.2615 6.65232H0.738442C0.375365 6.65232 0.0820312 6.35899 0.0820312 5.99591C0.0820312 5.63284 0.375365 5.3395 0.738442 5.3395H29.6759L25.6923 1.35591C25.4359 1.0995 25.4359 0.683093 25.6923 0.426683C25.9487 0.170272 26.3651 0.170272 26.6215 0.426683L31.7272 5.53232C31.9159 5.72104 31.9713 6.00207 31.8687 6.24822C31.7661 6.49232 31.5261 6.65232 31.2615 6.65232Z" fill="#6D87F7"/>
<path d="M26.1498 11.7641C25.9816 11.7641 25.8134 11.7005 25.6862 11.5713C25.4298 11.3149 25.4298 10.8985 25.6862 10.6421L30.798 5.53027C31.0544 5.27386 31.4708 5.27386 31.7272 5.53027C31.9836 5.78668 31.9836 6.20309 31.7272 6.4595L26.6154 11.5713C26.4862 11.7005 26.318 11.7641 26.1498 11.7641Z" fill="#6D87F7"/>
</svg>
