<svg width="32" height="12" viewBox="0 0 32 12" fill="none" xmlns="http://www.w3.org/2000/svg">
<path d="M0.738482 5.34767L31.2616 5.34768C31.6246 5.34768 31.918 5.64101 31.918 6.00409C31.918 6.36716 31.6246 6.6605 31.2616 6.6605L2.32412 6.66049L6.30771 10.6441C6.56412 10.9005 6.56412 11.3169 6.30771 11.5733C6.0513 11.8297 5.63489 11.8297 5.37848 11.5733L0.272841 6.46767C0.0841222 6.27896 0.0287385 5.99793 0.131302 5.75178C0.233866 5.50767 0.473866 5.34767 0.738482 5.34767Z" fill="#6D87F7"/>
<path d="M5.8502 0.235878C6.01841 0.235878 6.18662 0.299469 6.3138 0.428699C6.57021 0.68511 6.57021 1.10152 6.3138 1.35793L1.202 6.46972C0.945589 6.72614 0.52918 6.72614 0.27277 6.46972C0.0163598 6.21331 0.0163599 5.7969 0.27277 5.54049L5.38456 0.428699C5.5138 0.299469 5.682 0.235878 5.8502 0.235878Z" fill="#6D87F7"/>
</svg>
