<svg width="25" height="25" viewBox="0 0 25 25" fill="none" xmlns="http://www.w3.org/2000/svg">
<g clip-path="url(#clip0_1657_4346)">
<path d="M12.5 25C5.60748 25 0 19.3925 0 12.5C0 5.60753 5.60748 0 12.5 0C19.3926 0 25 5.60748 25 12.5C25 19.3926 19.3925 25 12.5 25Z" fill="#FEC037"/>
<path d="M12.5 0V25C19.3925 25 25 19.3925 25 12.5C25 5.60743 19.3925 0 12.5 0Z" fill="#FEC037"/>
<path d="M12.5 22.0703C7.22291 22.0703 2.92966 17.7771 2.92966 12.5C2.92966 7.22286 7.22291 2.92966 12.5 2.92966C17.7771 2.92966 22.0704 7.22291 22.0704 12.5C22.0704 17.7771 17.7771 22.0703 12.5 22.0703Z" fill="#FDCD63"/>
<path d="M12.5 2.92966V22.0703C17.7771 22.0703 22.0704 17.7771 22.0704 12.5C22.0704 7.22286 17.7771 2.92966 12.5 2.92966Z" fill="#FFB81D"/>
<path d="M16.0765 16.234H8.90888C8.58129 16.234 8.2935 16.0164 8.20419 15.7011L6.8509 10.9241C6.77888 10.6698 6.84944 10.3964 7.03553 10.2087C7.22161 10.0211 7.49437 9.9482 7.74925 10.0181L9.96461 10.6254L11.9208 8.09681C12.0595 7.91751 12.2734 7.81253 12.5001 7.81253C12.7267 7.81253 12.9407 7.91751 13.0794 8.09681L15.0356 10.6254L17.2508 10.0181C17.5061 9.9481 17.7792 10.0212 17.9653 10.2095C18.1514 10.3977 18.2214 10.6716 18.1486 10.9261L16.7807 15.7031C16.6907 16.0173 16.4034 16.234 16.0765 16.234Z" fill="#DF9A00"/>
<path d="M17.9652 10.2095C17.7791 10.0214 17.506 9.94816 17.2508 10.0181L15.0355 10.6255L13.0793 8.09687C12.9406 7.91757 12.7267 7.81259 12.5 7.81259V16.234H16.0766C16.4034 16.234 16.6907 16.0174 16.7807 15.7031L18.1486 10.9261C18.2214 10.6717 18.1513 10.3977 17.9652 10.2095Z" fill="#DF9A00"/>
</g>
<defs>
<clipPath id="clip0_1657_4346">
<rect width="25" height="25" fill="white"/>
</clipPath>
</defs>
</svg>
