<svg width="25" height="25" viewBox="0 0 25 25" fill="none" xmlns="http://www.w3.org/2000/svg">
<g clip-path="url(#clip0_1657_4359)">
<path d="M11.9102 19.9769L11.857 19.8853L11.7533 19.9071C11.4565 19.9704 11.1539 20.0026 10.8505 20.0032C8.9354 20.0032 7.60903 18.6638 7.13101 18.0933L8.33838 18.1819L8.11948 17.9173C7.87142 17.613 7.64767 17.2895 7.45029 16.9501C6.93887 16.0827 6.78926 15.3586 6.75381 14.9042C6.73617 14.698 6.74075 14.4904 6.76748 14.2852L7.97759 14.8223L7.69951 14.4034C7.69365 14.3946 7.10869 13.4961 6.88438 12.0007C6.71309 10.8586 6.92549 9.78349 7.03755 9.33256L8.12988 10.3131L8.07822 9.92036C8.07695 9.91089 7.97383 9.06377 8.28496 7.83139C7.03686 7.48613 6.16489 7.52837 6.16489 7.52837L6.11831 8.87841C6.11831 8.87841 5.43857 8.2789 3.86392 8.39257C1.79585 8.54194 0.507812 9.20644 0.507812 9.20644C0.507812 9.20644 0.208838 10.6248 0.613574 12.6586C0.921728 14.207 1.68013 14.7033 1.68013 14.7033L0.390625 15.1063C0.390625 15.1063 0.59668 16.0284 1.32813 17.2059C2.07031 18.401 3.19688 19.2109 3.19688 19.2109L1.98047 19.3569C1.98047 19.3569 2.86187 20.4917 3.90083 21.1331C5.16406 21.913 6.17427 22.0163 6.17427 22.0163L5.22158 22.6758C5.22158 22.6758 6.34331 23.3518 7.72783 23.4682C9.11235 23.5846 10.0221 23.2499 10.0221 23.2499L9.48345 23.9568C9.48345 23.9568 10.4499 24.5145 12.1618 23.9864C12.5013 23.8841 12.8322 23.7551 13.1515 23.6007L12.833 24.6094C12.833 24.6094 14.6745 23.914 15.3959 22.1503C14.2842 22.0183 12.8108 21.529 11.9102 19.9769Z" fill="#4BA55A"/>
<path d="M7.42309 18.4159C6.94976 18.5708 6.46382 18.6841 5.9708 18.7545C5.25708 18.8552 4.41084 18.8832 4.40239 18.8835C4.29879 18.8851 4.20008 18.9278 4.12797 19.0022C4.05585 19.0766 4.01625 19.1766 4.01787 19.2802C4.01949 19.3838 4.0622 19.4825 4.1366 19.5546C4.211 19.6267 4.311 19.6663 4.4146 19.6647C4.41885 19.6647 4.42305 19.6647 4.42729 19.6647C4.46352 19.6635 5.32344 19.6352 6.07993 19.5285C6.76838 19.4301 7.44402 19.2568 8.09487 19.0118C7.85657 18.83 7.63203 18.6308 7.42309 18.4159Z" fill="#1CA433"/>
<path d="M6.70947 14.4234L6.75029 14.4545C6.75474 14.3891 6.76089 14.332 6.76748 14.285L7.97759 14.8221L7.69951 14.4032C7.6281 14.2883 7.56317 14.1695 7.50503 14.0474L7.18301 13.802C7.19165 13.6815 7.20108 13.5174 7.2065 13.3222C7.05908 12.8923 6.95121 12.4499 6.88423 12.0004C6.80642 11.4477 6.79905 10.8872 6.86231 10.3326C6.79614 10.0457 6.75488 9.88828 6.75205 9.87705C6.72567 9.77692 6.66061 9.69136 6.57117 9.63918C6.48173 9.587 6.37523 9.57247 6.27508 9.59877C6.17493 9.62508 6.08932 9.69008 6.03707 9.77948C5.98482 9.86888 5.97021 9.97536 5.99644 10.0755C5.99761 10.08 6.11626 10.5341 6.27798 11.325C6.4165 12.0026 6.43662 12.7153 6.42617 13.2253L4.79404 11.9816C4.769 11.6606 4.72478 11.3414 4.66162 11.0256C4.49507 10.2112 4.37534 9.75327 4.37031 9.73418C4.34393 9.63405 4.27887 9.54849 4.18943 9.49631C4.09999 9.44413 3.99349 9.4296 3.89334 9.4559C3.79319 9.48221 3.70758 9.54721 3.65533 9.63661C3.60308 9.72601 3.58847 9.83249 3.6147 9.93266C3.61587 9.93716 3.73447 10.3913 3.89619 11.1822C3.90527 11.2264 3.91382 11.2715 3.92207 11.3172L1.62598 9.56753C1.58518 9.53643 1.53865 9.51367 1.48905 9.50055C1.43946 9.48743 1.38776 9.48421 1.33692 9.49107C1.28608 9.49793 1.23709 9.51474 1.19274 9.54053C1.1484 9.56633 1.10957 9.6006 1.07847 9.6414C1.04737 9.68221 1.02461 9.72873 1.01149 9.77833C0.998374 9.82792 0.995153 9.87962 1.00201 9.93046C1.00887 9.9813 1.02568 10.0303 1.05147 10.0746C1.07727 10.119 1.11154 10.1578 1.15234 10.1889L3.44727 11.9377C3.40181 11.9417 3.35566 11.9466 3.31133 11.9496C2.50567 12.0033 2.03657 12.0095 2.03203 12.0096C1.92843 12.0102 1.82931 12.0519 1.75648 12.1256C1.68364 12.1992 1.64306 12.2988 1.64365 12.4024C1.64425 12.506 1.68598 12.6052 1.75965 12.678C1.83333 12.7508 1.93292 12.7914 2.03652 12.7908H2.04102C2.06079 12.7908 2.53418 12.7846 3.36348 12.7291C3.68472 12.7062 4.0043 12.6641 4.32051 12.6031L5.95274 13.8468C5.46372 13.9923 4.77109 14.162 4.08115 14.2082C3.27578 14.2621 2.80674 14.2682 2.80186 14.2683C2.75056 14.2686 2.69982 14.2789 2.65254 14.2988C2.60526 14.3187 2.56236 14.3478 2.52629 14.3842C2.45345 14.4579 2.41286 14.5575 2.41345 14.6611C2.41374 14.7124 2.42414 14.7631 2.44404 14.8104C2.46394 14.8577 2.49296 14.9006 2.52944 14.9367C2.60311 15.0095 2.7027 15.0501 2.8063 15.0495H2.81089C2.83042 15.0495 3.30405 15.0433 4.13335 14.9878C5.21748 14.915 6.27183 14.5784 6.70947 14.4234Z" fill="#1CA433"/>
<path d="M10.8505 20.0032C10.6611 20.003 10.472 19.9896 10.2844 19.9632C9.67484 20.3401 9.03131 20.6591 8.36226 20.916C7.97105 21.0667 7.4417 21.165 7.16109 21.2104C7.06405 21.2259 6.97641 21.2774 6.91565 21.3547C6.85489 21.4319 6.82547 21.5292 6.83326 21.6271C6.84105 21.7251 6.88547 21.8165 6.95767 21.8832C7.02987 21.9498 7.12454 21.9868 7.22281 21.9868C7.24378 21.9868 7.26473 21.9852 7.28545 21.9819C7.66509 21.9207 8.20879 21.8126 8.64327 21.645C9.7499 21.2256 10.7871 20.642 11.7199 19.9138C11.4338 19.9726 11.1426 20.0025 10.8505 20.0032Z" fill="#1CA433"/>
<path d="M7.32256 16.7213C7.19891 16.4911 7.09187 16.2523 7.00225 16.0067C6.53922 16.1963 6.05769 16.337 5.56548 16.4267C4.25577 16.6513 3.50923 16.6313 3.49136 16.6306C3.38783 16.6269 3.28705 16.6644 3.21119 16.735C3.13534 16.8056 3.09063 16.9034 3.08689 17.0069C3.08316 17.1105 3.1207 17.2112 3.19127 17.2871C3.26184 17.3629 3.35965 17.4076 3.46319 17.4114C3.46944 17.4114 3.50279 17.4127 3.56231 17.4127C3.81778 17.4127 4.55508 17.3925 5.69746 17.1967C6.25437 17.0958 6.79908 16.9365 7.32256 16.7213Z" fill="#1CA433"/>
<path d="M12.8893 21.1384C12.7116 21.2877 12.5182 21.439 12.3019 21.5956C11.8569 21.9178 11.296 22.1555 11.0012 22.2686C10.9533 22.2869 10.9095 22.3145 10.8722 22.3498C10.835 22.3851 10.8051 22.4274 10.7842 22.4743C10.742 22.5689 10.7392 22.6764 10.7763 22.7731C10.8134 22.8699 10.8874 22.9479 10.982 22.9901C11.0766 23.0323 11.1841 23.0351 11.2809 22.998C11.6113 22.8711 12.2428 22.6028 12.7601 22.2284C13.0641 22.0083 13.327 21.798 13.5634 21.59C13.3247 21.4615 13.099 21.3103 12.8893 21.1384Z" fill="#1CA433"/>
<path d="M21.1402 18.4147C22.4507 17.5495 23.1964 16.2729 23.1964 16.2729L21.8927 16.1361C21.8927 16.1361 22.8389 15.4867 23.6686 14.0306C24.3511 12.833 24.6092 11.2327 24.6092 11.2327L23.3233 11.7471C23.3233 11.7471 24.0012 10.3353 24.0883 8.75068C24.1741 7.18931 23.8777 6.16524 23.8777 6.16524L22.3797 6.46484C22.3797 6.46484 22.8625 5.56284 22.3272 3.86372C21.6241 1.63223 20.5571 0.390625 20.5571 0.390625C20.5571 0.390625 18.918 0.430957 16.7849 1.40361C15.1608 2.14414 14.812 3.10547 14.812 3.10547L14.0325 1.79497C14.0325 1.79497 13.0713 2.26074 11.9655 3.36938C10.8433 4.49443 10.2453 5.9418 10.2453 5.9418L9.76782 4.64463C9.76782 4.64463 8.74838 5.90703 8.31298 7.21426C7.78359 8.80366 7.93305 9.9395 7.93305 9.9395L6.95893 9.06494C6.95893 9.06494 6.50702 10.4721 6.73954 12.0222C6.97206 13.5724 7.57744 14.4842 7.57744 14.4842L6.65903 14.0765C6.65903 14.0765 6.29697 15.2826 7.32407 17.0245C7.52522 17.3707 7.75345 17.7005 8.00663 18.0108L6.81332 17.9232C6.81332 17.9232 8.69321 20.7031 11.7836 20.0505C13.3656 22.7773 16.695 22.3097 16.695 22.3097L15.831 21.484C16.2316 21.464 16.6299 21.4123 17.0224 21.3297C19.0077 20.9248 19.6637 19.8494 19.6637 19.8494L18.7453 19.4417C18.7453 19.4417 19.8298 19.28 21.1402 18.4147Z" fill="#87E196"/>
<path d="M22.4976 12.2933C22.4744 12.2475 22.4425 12.2067 22.4036 12.1733C22.3647 12.1398 22.3196 12.1143 22.2708 12.0983C22.2221 12.0823 22.1707 12.076 22.1195 12.0799C22.0683 12.0838 22.0184 12.0976 21.9726 12.1208C21.9641 12.1251 21.1068 12.5571 20.3413 12.8452C18.161 13.6655 16.087 13.5099 15.1875 13.381L16.0082 11.542C16.1283 11.5469 16.2826 11.5511 16.4644 11.5511C17.2443 11.5511 18.5247 11.4749 19.7308 11.0614C21.2545 10.5389 22.0226 10.0869 22.0545 10.0679C22.1429 10.0146 22.2066 9.92863 22.2318 9.82861C22.257 9.72858 22.2415 9.62265 22.1889 9.53395C22.1363 9.44524 22.0507 9.38095 21.9508 9.3551C21.851 9.32926 21.745 9.34396 21.6559 9.39599C21.6487 9.40029 20.9155 9.82924 19.4774 10.3224C18.3244 10.7179 17.0604 10.7737 16.3537 10.7678L17.2016 8.86782C17.6997 8.78886 18.9472 8.55302 20.0779 8.03032C20.9297 7.63647 21.4011 7.38672 21.4209 7.37602C21.5107 7.32652 21.5774 7.24371 21.6067 7.14545C21.636 7.0472 21.6254 6.94137 21.5774 6.85081C21.5293 6.76025 21.4476 6.69222 21.3498 6.66139C21.252 6.63057 21.146 6.63941 21.0547 6.68603C21.0498 6.68847 20.5802 6.9372 19.7502 7.3208C18.9941 7.67089 18.1606 7.88369 17.5882 8.0018L18.5811 5.7769C18.9334 5.6651 19.2786 5.53199 19.6148 5.37832C20.4667 4.98452 20.9381 4.73471 20.958 4.72426C21.0477 4.67476 21.1145 4.59195 21.1437 4.4937C21.173 4.39544 21.1625 4.28961 21.1144 4.19905C21.0663 4.1085 20.9846 4.04046 20.8868 4.00964C20.789 3.97881 20.6831 3.98766 20.5917 4.03427C20.5871 4.03672 20.1172 4.28549 19.2872 4.66904C19.2026 4.7081 19.1149 4.74642 19.0244 4.78398L20.5112 1.45219C20.5325 1.4053 20.5442 1.35466 20.5458 1.30321C20.5475 1.25175 20.5389 1.20048 20.5206 1.15234C20.5023 1.10421 20.4747 1.06016 20.4394 1.02274C20.404 0.985313 20.3616 0.955246 20.3146 0.934266C20.2676 0.913285 20.2169 0.901806 20.1654 0.900488C20.1139 0.89917 20.0627 0.908039 20.0147 0.926586C19.9667 0.945133 19.9228 0.97299 19.8856 1.00856C19.8483 1.04412 19.8185 1.0867 19.7978 1.13383L18.3096 4.46826C18.2771 4.37597 18.2469 4.28517 18.219 4.19585C17.9494 3.32407 17.8202 2.80942 17.819 2.80424C17.7939 2.70373 17.7299 2.61729 17.6411 2.56396C17.5523 2.51062 17.4459 2.49475 17.3454 2.51984C17.2449 2.54494 17.1584 2.60893 17.1051 2.69775C17.0518 2.78657 17.0359 2.89294 17.061 2.99345C17.0663 3.01499 17.1959 3.53169 17.4727 4.42661C17.5832 4.77843 17.715 5.12319 17.8674 5.45898L16.8738 7.68554C16.5787 7.18261 16.1792 6.42192 15.9335 5.62758C15.6639 4.75581 15.5347 4.24116 15.5334 4.23598C15.521 4.18621 15.4989 4.13937 15.4683 4.09814C15.4378 4.05692 15.3995 4.02211 15.3555 3.99571C15.3115 3.9693 15.2627 3.95183 15.212 3.94427C15.1612 3.93671 15.1095 3.93922 15.0597 3.95166C15.0099 3.96409 14.9631 3.98621 14.9219 4.01675C14.8806 4.04729 14.8458 4.08565 14.8194 4.12964C14.793 4.17363 14.7756 4.22239 14.768 4.27313C14.7604 4.32388 14.7629 4.37561 14.7754 4.42539C14.7808 4.44692 14.9103 4.96362 15.1871 5.85854C15.5542 7.04555 16.2131 8.12754 16.488 8.55005L15.6396 10.4513C15.1625 9.93203 14.3577 8.95791 13.8802 7.83818C13.286 6.44482 13.1144 5.61494 13.1123 5.60434C13.0921 5.50274 13.0322 5.41336 12.9461 5.35587C12.8599 5.29837 12.7544 5.27746 12.6528 5.29775C12.5512 5.31804 12.4618 5.37785 12.4043 5.46404C12.3468 5.55022 12.3259 5.65572 12.3462 5.75732C12.3535 5.7937 12.5309 6.66552 13.1616 8.14463C13.7771 9.58794 14.8495 10.7708 15.2946 11.2245L14.4735 13.0644C13.7759 12.4846 12.271 11.0519 11.4226 8.88662C11.1248 8.12666 10.8729 7.20244 10.8705 7.19321C10.8574 7.14331 10.8345 7.0965 10.8033 7.05547C10.772 7.01444 10.7329 6.98001 10.6883 6.95416C10.6437 6.92832 10.5943 6.91157 10.5432 6.90489C10.492 6.8982 10.4401 6.90172 10.3903 6.91523C10.3405 6.92874 10.2939 6.95197 10.2531 6.98359C10.2124 7.01522 10.1783 7.0546 10.1528 7.09946C10.1274 7.14433 10.1111 7.19379 10.1048 7.245C10.0986 7.2962 10.1026 7.34814 10.1165 7.3978C10.1271 7.43716 10.3817 8.37133 10.6953 9.17158C11.6887 11.7073 13.4701 13.2776 14.1432 13.8045L13.3419 15.6C13.0026 15.4047 12.6766 15.1873 12.3658 14.9492C11.6721 14.4218 10.6414 13.4968 9.67162 12.0835C9.40136 11.6896 9.15341 11.1304 9.02973 10.8322C9.01008 10.7848 8.98128 10.7417 8.94499 10.7055C8.9087 10.6692 8.86562 10.6405 8.81822 10.6209C8.77081 10.6012 8.72001 10.5912 8.66871 10.5912C8.61741 10.5912 8.56662 10.6013 8.51923 10.621C8.47185 10.6406 8.42879 10.6694 8.39254 10.7057C8.35628 10.742 8.32752 10.7851 8.30791 10.8325C8.2883 10.8799 8.27822 10.9307 8.27825 10.982C8.27827 11.0333 8.2884 11.0841 8.30805 11.1315C8.47348 11.5302 8.73251 12.0957 9.02743 12.5255C10.6028 14.8212 12.3254 15.933 13.0218 16.3174L12.2289 18.0943C11.4072 17.7003 10.6434 17.1958 9.95849 16.5947C9.29843 16.0269 8.75693 15.161 8.74662 15.1445C8.69156 15.0577 8.60448 14.9961 8.50427 14.973C8.40406 14.95 8.2988 14.9674 8.21133 15.0214C8.12387 15.0755 8.06125 15.1619 8.03706 15.2618C8.01287 15.3617 8.02906 15.4672 8.08212 15.5553C8.10654 15.5951 8.69247 16.5364 9.44931 17.1871C10.191 17.8383 11.0191 18.3838 11.9102 18.8082L11.588 19.5308C11.5458 19.6254 11.5428 19.7329 11.5799 19.8297C11.6169 19.9264 11.6909 20.0045 11.7855 20.0468C11.8801 20.089 11.9876 20.0919 12.0844 20.0548C12.1812 20.0178 12.2592 19.9438 12.3015 19.8492L12.6246 19.1252C13.538 19.502 14.4992 19.7507 15.4807 19.8645C15.7187 19.8932 15.9582 19.9071 16.1978 19.9061C16.6712 19.9042 17.1436 19.8637 17.6103 19.7852C17.7118 19.7661 17.8016 19.7077 17.8602 19.6226C17.9187 19.5376 17.9412 19.4328 17.9227 19.3312C17.9042 19.2297 17.8462 19.1395 17.7615 19.0806C17.6767 19.0216 17.5721 18.9986 17.4704 19.0166C17.4602 19.0184 16.4473 19.1989 15.5782 19.0893C14.673 18.9843 13.7863 18.7562 12.9428 18.4112L13.7357 16.6345C14.3042 16.8301 15.5773 17.1832 17.3626 17.1832C17.9888 17.1826 18.6142 17.1404 19.2348 17.0569C19.7524 16.9878 20.3467 16.8013 20.7543 16.6571C20.8027 16.64 20.8472 16.6135 20.8853 16.5792C20.9235 16.5448 20.9545 16.5033 20.9766 16.457C20.9987 16.4107 21.0114 16.3605 21.0141 16.3093C21.0168 16.2581 21.0094 16.2068 20.9923 16.1585C20.9751 16.1101 20.9487 16.0656 20.9143 16.0275C20.88 15.9893 20.8385 15.9583 20.7922 15.9362C20.7459 15.9142 20.6957 15.9014 20.6445 15.8987C20.5933 15.896 20.542 15.9034 20.4936 15.9206C20.1886 16.0286 19.6059 16.2191 19.1313 16.2825C16.6173 16.6182 14.7762 16.1512 14.0563 15.9163L14.8571 14.1221C15.4638 14.2235 16.0779 14.2734 16.693 14.2714C18.0319 14.2765 19.3608 14.0412 20.6165 13.5766C21.4222 13.2733 22.2886 12.8368 22.325 12.8184C22.3709 12.7952 22.4117 12.7633 22.4451 12.7244C22.4786 12.6855 22.5041 12.6403 22.5201 12.5916C22.5361 12.5428 22.5424 12.4914 22.5385 12.4402C22.5346 12.389 22.5207 12.3391 22.4976 12.2933Z" fill="#69C378"/>
</g>
<defs>
<clipPath id="clip0_1657_4359">
<rect width="25" height="25" fill="white"/>
</clipPath>
</defs>
</svg>
