<svg width="24" height="24" viewBox="0 0 24 24" fill="none" xmlns="http://www.w3.org/2000/svg">
<path d="M5.6334 20.6742C3.92857 19.892 2.53697 18.5583 1.68309 16.8882C0.829218 15.2181 0.562862 13.309 0.926997 11.469L2.376 3.58801C7.1616 3.50221 10.1652 2.07241 12 0.600006C13.8342 2.07241 16.839 3.50221 21.6246 3.58801L23.0736 11.4696C23.4376 13.3095 23.1712 15.2185 22.3173 16.8884C21.4634 18.5584 20.0719 19.892 18.3672 20.6742L12 23.4L5.6334 20.6742Z" fill="#3B97D3"/>
<path d="M6.5778 18.468C5.37173 17.9021 4.39128 16.9466 3.79439 15.7555C3.1975 14.5645 3.01891 13.2071 3.2874 11.9022L4.395 5.88001C7.07588 5.68062 9.67637 4.87452 12 3.52261C14.3237 4.87442 16.9241 5.68052 19.605 5.88001L20.7126 11.9052C20.981 13.2098 20.8025 14.5668 20.2057 15.7576C19.6089 16.9483 18.6286 17.9035 17.4228 18.4692L12 20.7888L6.5778 18.468Z" fill="#9FC9D3"/>
<path d="M11.109 8.4858C10.9726 8.40388 10.8093 8.37947 10.6549 8.41795C10.5005 8.45643 10.3678 8.55465 10.2858 8.691L8.99999 10.8336L7.71419 8.691C7.67438 8.62195 7.62121 8.56153 7.55778 8.51326C7.49436 8.46499 7.42195 8.42984 7.34479 8.40987C7.26762 8.38989 7.18726 8.38549 7.10838 8.39692C7.0295 8.40835 6.95368 8.43538 6.88536 8.47643C6.81705 8.51749 6.75759 8.57174 6.71048 8.63603C6.66336 8.70032 6.62952 8.77335 6.61094 8.85086C6.59236 8.92837 6.58941 9.0088 6.60226 9.08746C6.61512 9.16612 6.64351 9.24144 6.68579 9.309L8.30039 12L6.68579 14.691C6.64351 14.7586 6.61512 14.8339 6.60226 14.9125C6.58941 14.9912 6.59236 15.0716 6.61094 15.1491C6.62952 15.2267 6.66336 15.2997 6.71048 15.364C6.75759 15.4283 6.81705 15.4825 6.88536 15.5236C6.95368 15.5646 7.0295 15.5917 7.10838 15.6031C7.18726 15.6145 7.26762 15.6101 7.34479 15.5901C7.42195 15.5702 7.49436 15.535 7.55778 15.4867C7.62121 15.4385 7.67438 15.3781 7.71419 15.309L8.99999 13.1664L10.2858 15.309C10.3256 15.3781 10.3788 15.4385 10.4422 15.4867C10.5056 15.535 10.578 15.5702 10.6552 15.5901C10.7324 15.6101 10.8127 15.6145 10.8916 15.6031C10.9705 15.5917 11.0463 15.5646 11.1146 15.5236C11.1829 15.4825 11.2424 15.4283 11.2895 15.364C11.3366 15.2997 11.3705 15.2267 11.389 15.1491C11.4076 15.0716 11.4106 14.9912 11.3977 14.9125C11.3849 14.8339 11.3565 14.7586 11.3142 14.691L9.69959 12L11.3142 9.309C11.3961 9.17262 11.4205 9.00929 11.382 8.85491C11.3436 8.70054 11.2453 8.56777 11.109 8.4858Z" fill="#285680"/>
<path d="M15 8.39999H13.2C13.0409 8.39999 12.8883 8.46321 12.7757 8.57573C12.6632 8.68825 12.6 8.84086 12.6 8.99999V15C12.6 15.1591 12.6632 15.3117 12.7757 15.4243C12.8883 15.5368 13.0409 15.6 13.2 15.6C13.3591 15.6 13.5117 15.5368 13.6243 15.4243C13.7368 15.3117 13.8 15.1591 13.8 15V13.2H15C15.6365 13.2 16.247 12.9471 16.6971 12.497C17.1471 12.047 17.4 11.4365 17.4 10.8C17.4 10.1635 17.1471 9.55303 16.6971 9.10294C16.247 8.65285 15.6365 8.39999 15 8.39999ZM15 12H13.8V9.59999H15C15.3183 9.59999 15.6235 9.72642 15.8485 9.95146C16.0736 10.1765 16.2 10.4817 16.2 10.8C16.2 11.1183 16.0736 11.4235 15.8485 11.6485C15.6235 11.8736 15.3183 12 15 12Z" fill="#285680"/>
</svg>
