<svg width="41" height="58" viewBox="0 0 41 58" fill="none" xmlns="http://www.w3.org/2000/svg">
<path d="M39.3912 24.7356H36.0302V16.3231C36.0302 7.75965 29.063 0.792969 20.5001 0.792969C11.9367 0.792969 4.97 7.75965 4.97 16.3231V24.7356H1.60901C0.958042 24.7356 0.429718 25.2639 0.429718 25.9149V56.6137C0.429718 57.2646 0.958042 57.793 1.60901 57.793H39.3912C40.0422 57.793 40.5705 57.2646 40.5705 56.6137V25.9149C40.5705 25.2633 40.0434 24.7356 39.3912 24.7356ZM17.9198 44.5448C17.1521 43.8266 16.7287 42.8519 16.7287 41.7994C16.7287 39.7203 18.4204 38.028 20.5001 38.028C22.5792 38.028 24.2715 39.7197 24.2715 41.7994C24.2715 42.8519 23.8487 43.8266 23.0804 44.5448C22.8422 44.7677 22.7066 45.0796 22.7066 45.4063V49.4052C22.7066 50.6217 21.7166 51.6117 20.4995 51.6117C19.2825 51.6117 18.2925 50.6217 18.2925 49.4052V45.4063C18.2931 45.0796 18.158 44.7677 17.9198 44.5448ZM20.5001 9.16419C24.4472 9.16419 27.6584 12.3754 27.6584 16.3231V24.7356H13.3418V16.3231C13.3418 12.376 16.553 9.16419 20.5001 9.16419Z" fill="#D0D0D0"/>
</svg>
