<svg width="167" height="167" viewBox="0 0 167 167" fill="none" xmlns="http://www.w3.org/2000/svg">
<path d="M90.8208 2.2889C91.9965 6.47181 97.9635 7.37589 100.325 3.72898C100.998 8.02157 106.816 9.62506 109.593 6.2831C109.753 10.6251 115.341 12.9055 118.494 9.9154C118.139 14.2459 123.418 17.1711 126.902 14.5749C126.038 18.8331 130.934 22.3621 134.7 20.1962C133.339 24.3223 137.783 28.4056 141.779 26.7003C139.939 30.6364 143.869 35.2167 148.039 33.996C145.746 37.6869 149.107 42.6998 153.392 41.9809C150.678 45.3746 153.422 50.7498 157.763 50.5428C154.667 53.5919 156.756 59.2539 161.09 59.5616C157.656 62.2231 159.061 68.0925 163.328 68.9107C159.603 71.1473 160.303 77.1417 164.444 78.4588C160.48 80.2391 160.467 86.2743 164.423 88.0719C160.277 89.371 159.55 95.3622 163.265 97.615C158.994 98.4146 157.564 104.278 160.987 106.954C156.651 107.243 154.538 112.896 157.62 115.958C153.281 115.732 150.513 121.096 153.212 124.501C148.93 123.764 145.547 128.762 147.824 132.463C143.659 131.224 139.709 135.787 141.532 139.731C137.543 138.008 133.082 142.072 134.425 146.204C130.668 144.022 125.757 147.529 126.603 151.791C123.13 149.18 117.838 152.082 118.174 156.414C115.034 153.41 109.437 155.666 109.258 160.008C106.496 156.653 100.67 158.232 99.979 162.521C97.633 158.864 91.662 159.742 90.4682 163.92C88.5712 160.011 82.5383 160.176 80.8587 164.184C79.4373 160.078 73.4272 159.529 71.2854 163.309C70.3597 159.064 64.4567 157.808 61.8828 161.309C61.4656 156.984 55.7526 155.038 52.7828 158.21C52.88 153.866 47.4372 151.259 44.1131 154.057C44.7235 149.755 39.6272 146.522 35.9955 148.907C37.1104 144.708 32.4323 140.895 28.544 142.834C30.1477 138.796 25.9534 134.456 21.863 135.922C23.9331 132.102 20.2814 127.297 16.0464 128.268C18.5538 124.72 15.4961 119.516 11.176 119.98C14.0854 116.753 11.6646 111.225 7.31988 111.174C10.5906 108.314 8.8406 102.538 4.53238 101.974C8.11844 99.5209 7.06384 93.5786 2.85256 92.509C6.70361 90.497 6.35924 84.4717 2.30401 82.9116C6.36601 81.3692 6.73668 75.3454 2.89444 73.3166C7.11035 72.2655 8.19087 66.3278 4.61554 63.8588C8.92619 63.3137 10.7014 57.5455 7.44318 54.671C11.788 54.6395 14.233 49.1218 11.3376 45.8821C15.6557 46.3647 18.7361 41.1749 16.2442 37.6155C20.4749 38.6054 24.1475 33.8163 22.0941 29.9872C26.1781 31.4705 30.3913 27.1495 28.8052 23.1043C32.685 25.0603 37.3797 21.2679 36.2832 17.0635C39.9045 19.4646 45.0148 16.2541 44.4232 11.9496C47.735 14.7621 53.1892 12.1785 53.1109 7.83426C56.0668 11.0188 61.7883 9.09838 62.2243 4.77534C64.7829 8.28712 70.6913 7.0569 71.6356 2.81578C73.7609 6.60552 79.7733 6.08273 81.2126 1.98306C82.8747 5.99756 88.9068 6.18957 90.8208 2.2889Z" fill="#6D87F7" stroke="white" stroke-width="0.726573"/>
</svg>
