<svg width="168" height="168" viewBox="0 0 168 168" fill="none" xmlns="http://www.w3.org/2000/svg">
<path d="M98.2046 3.62613C99.0281 7.9124 104.927 9.31722 107.594 5.86233C107.905 10.2159 113.596 12.3085 116.653 9.19332C116.446 13.5531 121.85 16.3041 125.254 13.5724C124.533 17.8771 129.574 21.2479 133.277 18.9379C132.052 23.1273 136.658 27.0705 140.609 25.2148C138.898 29.2299 143.005 33.6902 147.147 32.3148C144.973 36.0993 148.524 41.0141 152.8 40.1382C150.193 43.639 153.138 48.9393 157.487 48.5753C154.485 51.7432 156.782 57.3546 161.144 57.5075C157.788 60.2981 159.406 66.1418 163.719 66.8096C160.056 69.1837 160.971 75.1777 165.175 76.3509C161.258 78.2751 161.457 84.3353 165.493 85.9975C161.375 87.4449 160.857 93.4861 164.668 95.614C160.408 96.5642 159.178 102.502 162.711 105.065C158.368 105.505 156.445 111.255 159.65 114.219C155.286 114.142 152.696 119.625 155.527 122.946C151.203 122.354 147.983 127.491 150.402 131.125C146.178 130.025 142.373 134.746 144.345 138.639C140.281 137.048 135.944 141.286 137.442 145.385C133.595 143.324 128.787 147.019 129.79 151.267C126.213 148.765 121.002 151.866 121.495 156.203C118.24 153.296 112.699 155.758 112.675 160.123C109.786 156.851 103.993 158.641 103.453 162.972C100.972 159.381 95.0077 160.474 93.9595 164.71C91.92 160.852 85.8685 161.231 84.3265 165.314C82.7578 161.241 76.7038 160.902 74.6898 164.774C73.6138 160.544 67.6425 159.491 65.1846 163.098C64.6165 158.77 58.8116 157.019 55.9444 160.309C55.8921 155.945 50.3351 153.519 47.0988 156.448C47.563 152.108 42.332 149.041 38.772 151.567C39.7463 147.312 34.9146 143.649 31.081 145.735C32.5516 141.626 28.1872 137.417 24.1337 139.035C26.08 135.128 22.244 130.433 18.0275 131.56C20.4222 127.911 17.1686 122.795 12.8483 123.416C15.6578 120.075 13.0321 114.61 8.66876 114.716C11.8536 111.731 9.89276 105.994 5.5475 105.582C9.06297 102.996 7.7945 97.0663 3.52835 96.1442C7.3251 93.9913 6.76683 87.9536 2.63969 86.5334C6.66442 84.8446 6.82415 78.7833 2.89395 76.8849C7.09017 75.684 7.96568 69.6841 4.28759 67.3342C8.59639 66.6381 10.1754 60.7838 6.80105 58.0154C11.1619 57.8337 13.4222 52.2073 10.399 49.0592C14.7508 49.3947 17.6607 44.0751 15.031 40.5915C19.3126 41.4393 22.8312 36.5012 20.632 32.7311C24.7832 34.0792 28.8612 29.592 27.1234 25.5882C31.086 27.4179 35.6661 23.4445 34.414 19.2633C38.1324 21.5488 43.1503 18.1449 42.4015 13.845C45.8235 16.5543 51.2087 13.7678 50.9737 9.40944C54.0513 12.5044 59.7283 10.3744 60.0104 6.0189C62.7003 9.45617 68.5894 8.01256 69.3847 3.72096C71.6492 7.45224 77.6677 6.71529 78.965 2.54787C80.7723 6.52079 86.8357 6.50085 88.6168 2.51612C89.9415 6.6749 95.9647 7.37223 98.2046 3.62613Z" fill="#222222" stroke="white" stroke-width="0.726573"/>
</svg>
