<svg width="23" height="19" viewBox="0 0 23 19" fill="none" xmlns="http://www.w3.org/2000/svg">
<path d="M8.31247 18.4688H8.27039C8.03855 18.4623 7.81088 18.4055 7.60317 18.3023C7.39545 18.1991 7.21265 18.052 7.06743 17.8711L0.692428 9.90237C0.561619 9.73886 0.464298 9.55118 0.406019 9.35006C0.34774 9.14893 0.329646 8.9383 0.35277 8.73019C0.375894 8.52207 0.439782 8.32055 0.540789 8.13712C0.641795 7.9537 0.77794 7.79197 0.941451 7.66116C1.10496 7.53035 1.29264 7.43302 1.49376 7.37475C1.69488 7.31647 1.90552 7.29837 2.11363 7.3215C2.32175 7.34462 2.52327 7.40851 2.7067 7.50952C2.89012 7.61052 3.05185 7.74667 3.18266 7.91018L8.37622 14.4034L19.8718 1.47287C20.0088 1.30961 20.1771 1.17548 20.3668 1.07843C20.5566 0.981371 20.7639 0.923354 20.9764 0.90781C21.189 0.892265 21.4025 0.919507 21.6043 0.987926C21.8061 1.05634 21.9922 1.16455 22.1515 1.30614C22.3108 1.44773 22.4401 1.61983 22.5317 1.81225C22.6233 2.00468 22.6754 2.21352 22.6848 2.42643C22.6943 2.63934 22.661 2.85198 22.5868 3.05179C22.5127 3.25159 22.3992 3.4345 22.2532 3.58968L9.50316 17.9334C9.3538 18.1018 9.17046 18.2365 8.96522 18.3288C8.75997 18.4211 8.5375 18.4688 8.31247 18.4688Z" fill="#F2F2F2"/>
</svg>
