<svg width="18" height="18" viewBox="0 0 18 18" fill="none" xmlns="http://www.w3.org/2000/svg">
<g clip-path="url(#clip0_1742_1826)">
<path d="M9.41791 7.03125L12.7063 2.84597L11.4238 0.28125H6.57616L6.49854 0.436781L5.37354 2.68678L5.29395 2.84597L8.58204 7.03125H9.41791ZM9.75204 3.09375L8.99998 5.72653L8.24791 3.09375H9.75204ZM8.33004 2.53125L8.99998 1.19138L9.66991 2.53125H8.33004ZM10.337 3.09375H11.7964L9.50313 6.01228L10.337 3.09375ZM10.58 2.53125L11.25 1.19138L11.9199 2.53125H10.58ZM10.125 2.18362L9.45504 0.84375H10.7949L10.125 2.18362ZM7.87498 2.18362L7.20504 0.84375H8.54491L7.87498 2.18362ZM7.41991 2.53125H6.08004L6.74998 1.19138L7.41991 2.53125ZM7.66291 3.09375L8.49682 6.01228L6.20351 3.09375H7.66291Z" fill="#515151"/>
<path d="M16.9973 14.8697C16.6452 14.5552 16.3125 14.2582 16.3125 13.7812V13.5H16.0312C16.0225 13.5 15.347 13.5155 15.0477 14.3083C14.9524 14.2107 14.8497 14.1176 14.7473 14.0259C14.3952 13.7115 14.0625 13.4145 14.0625 12.9375V12.6562H13.7812C13.77 12.6562 12.6562 12.6754 12.6562 14.3438H13.2188C13.2188 13.7213 13.3926 13.4432 13.5475 13.3189C13.6789 13.826 14.0572 14.1635 14.3727 14.4453C14.659 14.7012 14.9062 14.922 14.9062 15.1875C14.9062 15.7334 14.2059 16.2062 13.9362 16.3423L14.1882 16.8452C14.2405 16.8193 15.4688 16.1935 15.4688 15.1875C15.4688 14.5651 15.6426 14.2869 15.7975 14.1626C15.9289 14.6697 16.3072 15.0072 16.6227 15.289C16.909 15.545 17.1562 15.7657 17.1562 16.0312C17.1562 16.5426 16.542 16.9897 16.2425 17.1562H13.2345C13.5205 16.8758 13.7812 16.4945 13.7812 16.0312C13.7812 15.5138 13.4145 15.1864 13.0598 14.8697C12.7077 14.5552 12.375 14.2582 12.375 13.7812V13.5V10.3545C12.4633 10.386 12.5573 10.4062 12.6562 10.4062C13.4317 10.4062 14.0625 9.77541 14.0625 9C14.0625 8.22459 13.4317 7.59375 12.6562 7.59375H9H5.34375C4.56834 7.59375 3.9375 8.22459 3.9375 9C3.9375 9.77541 4.56834 10.4062 5.34375 10.4062C5.44275 10.4062 5.53669 10.386 5.625 10.3545V13.5V13.7812C5.625 14.2582 5.29228 14.5552 4.94016 14.8697C4.5855 15.1864 4.21875 15.5138 4.21875 16.0312C4.21875 16.4945 4.47947 16.8758 4.7655 17.1562H1.75922C1.55531 17.0398 0.84375 16.5923 0.84375 16.0312C0.84375 15.7657 1.09097 15.545 1.37728 15.289C1.69256 15.0075 2.07056 14.67 2.20219 14.1635C2.35828 14.2883 2.53125 14.5665 2.53125 15.1875C2.53125 16.1935 3.75947 16.8193 3.81178 16.8455L4.0635 16.3423C4.05366 16.3372 3.09375 15.8392 3.09375 15.1875C3.09375 14.922 3.34097 14.7012 3.62728 14.4453C3.94256 14.1638 4.32056 13.8263 4.45219 13.3197C4.60828 13.4446 4.78125 13.7228 4.78125 14.3438H5.34375C5.34375 12.6754 4.23 12.6562 4.21875 12.6562H3.9375V12.9375C3.9375 13.4145 3.60478 13.7115 3.25266 14.0259C3.15 14.1176 3.04762 14.2104 2.95228 14.3083C2.65303 13.5155 1.97747 13.5 1.96875 13.5H1.6875V13.7812C1.6875 14.2582 1.35478 14.5552 1.00266 14.8697C0.648 15.1864 0.28125 15.5138 0.28125 16.0312C0.28125 17.0373 1.50947 17.6631 1.56178 17.6892L1.62112 17.7188H16.3789L16.4382 17.6892C16.4905 17.6631 17.7188 17.0373 17.7188 16.0312C17.7188 15.5138 17.352 15.1864 16.9973 14.8697ZM11.1102 14.3083C11.0149 14.2107 10.9122 14.1176 10.8098 14.0259C10.4577 13.7115 10.125 13.4145 10.125 12.9375V12.6562H9.84375C9.83616 12.6562 9.33075 12.6672 9 13.1805C8.66925 12.6672 8.16384 12.6562 8.15625 12.6562H7.875V12.9375C7.875 13.4145 7.54228 13.7115 7.19016 14.0259C7.0875 14.1176 6.98513 14.2104 6.88978 14.3083C6.71456 13.844 6.41194 13.6446 6.1875 13.5616V9.84375H11.8125V13.5616C11.5881 13.6446 11.2854 13.844 11.1102 14.3083ZM5.34375 9.84375C4.87856 9.84375 4.5 9.46519 4.5 9C4.5 8.53481 4.87856 8.15625 5.34375 8.15625H9H12.6562C13.1214 8.15625 13.5 8.53481 13.5 9C13.5 9.46519 13.1214 9.84375 12.6562 9.84375C12.5013 9.84375 12.375 9.71775 12.375 9.5625C12.375 9.40725 12.5013 9.28125 12.6562 9.28125H12.9375V8.71875H12.6562C12.2901 8.71875 11.9807 8.95472 11.8642 9.28125H6.13575C6.01931 8.95472 5.70994 8.71875 5.34375 8.71875H5.0625V9.28125H5.34375C5.49872 9.28125 5.625 9.40725 5.625 9.5625C5.625 9.71775 5.49872 9.84375 5.34375 9.84375ZM4.78125 16.0312C4.78125 15.7657 5.02847 15.545 5.31478 15.289C5.63006 15.0075 6.00806 14.67 6.13969 14.1635C6.29578 14.2883 6.46875 14.5665 6.46875 15.1875C6.46875 16.1935 7.69697 16.8193 7.74928 16.8455L8.001 16.3423C7.99116 16.3372 7.03125 15.8392 7.03125 15.1875C7.03125 14.922 7.27847 14.7012 7.56478 14.4453C7.88006 14.1638 8.25806 13.8263 8.38969 13.3197C8.54578 13.4446 8.71875 13.7228 8.71875 14.3438H9.28125C9.28125 13.7213 9.45506 13.4432 9.61003 13.3189C9.74137 13.826 10.1197 14.1635 10.4352 14.4453C10.7215 14.7012 10.9688 14.922 10.9688 15.1875C10.9688 15.7334 10.2684 16.2062 9.99872 16.3423L10.2507 16.8452C10.303 16.8193 11.5312 16.1935 11.5312 15.1875C11.5312 14.5651 11.7051 14.2869 11.86 14.1626C11.9914 14.6697 12.3697 15.0072 12.6852 15.289C12.9715 15.545 13.2188 15.7657 13.2188 16.0312C13.2188 16.5426 12.6045 16.9897 12.305 17.1562H5.697C5.49506 17.0409 4.78125 16.5938 4.78125 16.0312Z" fill="#515151"/>
<path d="M6.75 10.4062H7.3125V13.5H6.75V10.4062Z" fill="#515151"/>
<path d="M10.6875 10.4062H11.25V13.5H10.6875V10.4062Z" fill="#515151"/>
<path d="M9.5625 10.4062H10.125V12.0938H9.5625V10.4062Z" fill="#515151"/>
<path d="M7.875 10.4062H8.4375V12.0938H7.875V10.4062Z" fill="#515151"/>
<path d="M14.625 4.5H15.1875V3.9375H15.75V3.375H15.1875V2.8125H14.625V3.375H14.0625V3.9375H14.625V4.5Z" fill="#515151"/>
<path d="M15.4688 5.625V6.1875H16.0312V6.75H16.5938V6.1875H17.1562V5.625H16.5938V5.0625H16.0312V5.625H15.4688Z" fill="#515151"/>
<path d="M15.75 9.84375V9.28125H16.3125V8.71875H15.75V8.15625H15.1875V8.71875H14.625V9.28125H15.1875V9.84375H15.75Z" fill="#515151"/>
<path d="M2.8125 4.5H3.375V3.9375H3.9375V3.375H3.375V2.8125H2.8125V3.375H2.25V3.9375H2.8125V4.5Z" fill="#515151"/>
<path d="M1.40625 6.75H1.96875V6.1875H2.53125V5.625H1.96875V5.0625H1.40625V5.625H0.84375V6.1875H1.40625V6.75Z" fill="#515151"/>
<path d="M2.8125 9.84375V9.28125H3.375V8.71875H2.8125V8.15625H2.25V8.71875H1.6875V9.28125H2.25V9.84375H2.8125Z" fill="#515151"/>
</g>
<defs>
<clipPath id="clip0_1742_1826">
<rect width="18" height="18" fill="white"/>
</clipPath>
</defs>
</svg>
