<svg width="20" height="20" viewBox="0 0 20 20" fill="none" xmlns="http://www.w3.org/2000/svg">
<g clip-path="url(#clip0_1742_1746)">
<path d="M15.6153 7.11943C15.6153 4.25375 13.2839 1.92229 10.4181 1.92229C9.34728 1.92229 8.31889 2.24544 7.44409 2.85682C7.31147 2.94951 7.27909 3.13216 7.37178 3.26477C7.46447 3.39738 7.64704 3.42972 7.77973 3.33707C8.55556 2.79483 9.4679 2.5082 10.4181 2.5082C12.9607 2.5082 15.0294 4.57678 15.0294 7.11943C15.0294 9.66209 12.9607 11.7307 10.4181 11.7307C7.87543 11.7307 5.80686 9.66209 5.80686 7.11943C5.80686 6.06835 6.15122 5.07844 6.80279 4.25679C6.90329 4.13 6.882 3.94575 6.75525 3.84521C6.62846 3.74475 6.44421 3.76596 6.34367 3.89275C5.60917 4.81907 5.22095 5.9348 5.22095 7.11943C5.22095 9.98512 7.5524 12.3166 10.4181 12.3166C13.2839 12.3166 15.6153 9.98512 15.6153 7.11943Z" fill="#515151"/>
<path d="M7.30001 6.88569L8.55749 7.79932L8.07716 9.27761C7.98115 9.57314 8.08153 9.88219 8.33297 10.0648C8.58436 10.2474 8.90923 10.2475 9.16062 10.0648L10.4181 9.15117L11.6756 10.0648C11.9271 10.2475 12.2519 10.2474 12.5033 10.0648C12.7547 9.88215 12.8551 9.57314 12.7591 9.27761L12.2788 7.79932L13.5362 6.88569C13.7877 6.70304 13.8881 6.39407 13.792 6.09854C13.696 5.80301 13.4331 5.612 13.1224 5.612H11.568L11.0877 4.13371C10.9917 3.83818 10.7288 3.64721 10.418 3.64721C10.1073 3.64721 9.84442 3.83818 9.74841 4.13371L9.26804 5.612H7.71374C7.40297 5.612 7.14009 5.80297 7.04404 6.09854C6.94819 6.39407 7.04857 6.70304 7.30001 6.88569ZM7.60148 6.27955C7.61136 6.24904 7.63917 6.19787 7.71389 6.19787H9.32655C9.54631 6.19787 9.73954 6.05745 9.80743 5.84847L10.3058 4.31472C10.3289 4.2437 10.3862 4.23308 10.4182 4.23308C10.4503 4.23308 10.5075 4.24367 10.5306 4.31472L11.029 5.84843C11.0968 6.05749 11.2901 6.19787 11.5098 6.19787H13.1225C13.1972 6.19787 13.225 6.24908 13.2349 6.27955C13.2448 6.31005 13.2524 6.36778 13.192 6.41169L11.8873 7.35957C11.7096 7.48875 11.6358 7.71592 11.7036 7.9249L12.202 9.45866C12.2251 9.52971 12.185 9.57193 12.159 9.5908C12.1331 9.60962 12.0806 9.63478 12.0201 9.5908L10.7155 8.64291C10.5378 8.51378 10.2989 8.5137 10.121 8.64291L8.8163 9.5908C8.75588 9.6347 8.70334 9.60966 8.6774 9.5908C8.65147 9.57197 8.61139 9.52975 8.63444 9.45866L9.13281 7.92486C9.20066 7.71592 9.12687 7.48875 8.94911 7.35957L7.64444 6.41169C7.58394 6.36778 7.59156 6.31005 7.60148 6.27955Z" fill="#515151"/>
<path d="M16.9418 3.07927H17.5097C17.6716 3.07927 17.8027 2.94815 17.8027 2.78632C17.8027 2.62449 17.6716 2.49336 17.5097 2.49336H16.9418C16.78 2.49336 16.6489 2.62449 16.6489 2.78632C16.6489 2.94815 16.78 3.07927 16.9418 3.07927Z" fill="#515151"/>
<path d="M19.2494 2.49336H18.6815C18.5197 2.49336 18.3885 2.62449 18.3885 2.78632C18.3885 2.94815 18.5197 3.07927 18.6815 3.07927H19.2494C19.4112 3.07927 19.5424 2.94815 19.5424 2.78632C19.5424 2.62449 19.4112 2.49336 19.2494 2.49336Z" fill="#515151"/>
<path d="M18.0956 3.07927C17.9338 3.07927 17.8027 3.2104 17.8027 3.37222V3.94009C17.8027 4.10192 17.9338 4.23304 18.0956 4.23304C18.2575 4.23304 18.3886 4.10192 18.3886 3.94009V3.37222C18.3886 3.21044 18.2574 3.07927 18.0956 3.07927Z" fill="#515151"/>
<path d="M18.0956 2.49336C18.2575 2.49336 18.3886 2.36223 18.3886 2.2004V1.6325C18.3886 1.47067 18.2575 1.33955 18.0956 1.33955C17.9338 1.33955 17.8027 1.47067 17.8027 1.6325V2.2004C17.8027 2.36223 17.9338 2.49336 18.0956 2.49336Z" fill="#515151"/>
<path d="M2.47858 12.1272C2.47858 11.9653 2.34745 11.8342 2.18562 11.8342H1.56542C1.40359 11.8342 1.27246 11.9653 1.27246 12.1272C1.27246 12.289 1.40359 12.4201 1.56542 12.4201H2.18562C2.34745 12.4201 2.47858 12.289 2.47858 12.1272Z" fill="#515151"/>
<path d="M3.46532 12.4201H4.08552C4.24735 12.4201 4.37848 12.289 4.37848 12.1272C4.37848 11.9653 4.24735 11.8342 4.08552 11.8342H3.46532C3.30349 11.8342 3.17236 11.9653 3.17236 12.1272C3.17236 12.289 3.30349 12.4201 3.46532 12.4201Z" fill="#515151"/>
<path d="M2.82549 12.4741C2.66366 12.4741 2.53253 12.6052 2.53253 12.767V13.3872C2.53253 13.5491 2.66366 13.6802 2.82549 13.6802C2.98732 13.6802 3.11844 13.5491 3.11844 13.3872V12.767C3.11844 12.6052 2.98732 12.4741 2.82549 12.4741Z" fill="#515151"/>
<path d="M2.53253 10.8671V11.4873C2.53253 11.6491 2.66366 11.7803 2.82549 11.7803C2.98732 11.7803 3.11844 11.6491 3.11844 11.4873V10.8671C3.11844 10.7053 2.98732 10.5742 2.82549 10.5742C2.66366 10.5742 2.53253 10.7053 2.53253 10.8671Z" fill="#515151"/>
<path d="M1.38018 9.27894C1.38018 9.11711 1.24905 8.98598 1.08722 8.98598H0.750597C0.588768 8.98598 0.457642 9.11711 0.457642 9.27894C0.457642 9.44077 0.588768 9.57189 0.750597 9.57189H1.08722C1.24905 9.57189 1.38018 9.44077 1.38018 9.27894Z" fill="#515151"/>
<path d="M2.1848 9.57189H2.52143C2.68325 9.57189 2.81438 9.44077 2.81438 9.27894C2.81438 9.11711 2.68325 8.98598 2.52143 8.98598H2.1848C2.02297 8.98598 1.89185 9.11711 1.89185 9.27894C1.89185 9.44077 2.02297 9.57189 2.1848 9.57189Z" fill="#515151"/>
<path d="M1.63603 9.53479C1.47421 9.53479 1.34308 9.66592 1.34308 9.82775V10.1644C1.34308 10.3262 1.47421 10.4573 1.63603 10.4573C1.79786 10.4573 1.92899 10.3262 1.92899 10.1644V9.82775C1.92899 9.66592 1.79786 9.53479 1.63603 9.53479Z" fill="#515151"/>
<path d="M1.63603 9.02309C1.79786 9.02309 1.92899 8.89196 1.92899 8.73014V8.39351C1.92899 8.23168 1.79786 8.10056 1.63603 8.10056C1.47421 8.10056 1.34308 8.23168 1.34308 8.39351V8.73014C1.34308 8.89196 1.47421 9.02309 1.63603 9.02309Z" fill="#515151"/>
<path d="M15.4345 12.1706C15.535 12.0783 15.6024 11.9507 15.6185 11.8058L15.7419 10.6786L16.7385 10.1315C16.9793 9.99929 17.0938 9.72278 17.0172 9.45908L16.699 8.37108L17.4093 7.4828C17.5803 7.26887 17.5803 6.97005 17.4093 6.75612L16.6998 5.87155L17.0171 4.77992C17.0938 4.51622 16.9793 4.23971 16.7385 4.10745L15.744 3.56346L15.6185 2.43316C15.5883 2.16075 15.3769 1.94935 15.1044 1.91912L13.9773 1.79573L13.4302 0.799171C13.2981 0.558401 13.0216 0.443758 12.7578 0.520395L11.6698 0.838583L10.7814 0.128304C10.5676 -0.042704 10.2687 -0.0427431 10.0548 0.128343L9.1702 0.837841L8.07853 0.520434C7.81479 0.443875 7.53828 0.55844 7.4061 0.799171L6.86218 1.79358L5.73184 1.91908C5.45943 1.94931 5.24803 2.16075 5.2178 2.43316L5.09441 3.56029L4.09785 4.10738C3.85705 4.2396 3.7424 4.51611 3.81912 4.77984L4.13727 5.86784L3.42695 6.75616C3.25598 6.97009 3.25598 7.26883 3.42699 7.4828L4.13649 8.36737L3.81916 9.459C3.7424 9.72278 3.85705 9.99929 4.09782 10.1315L5.0923 10.6754L5.2178 11.8057C5.23386 11.9507 5.3012 12.0783 5.40174 12.1706L2.2472 17.6344C2.16224 17.7816 2.16853 17.9604 2.2636 18.1012C2.35868 18.2419 2.52203 18.3149 2.6905 18.2908L4.49291 18.0353L5.17288 19.724C5.24198 19.8955 5.40416 20 5.58235 20C5.73953 19.9999 5.88336 19.9175 5.96292 19.7796L8.62139 15.1751C8.70229 15.035 8.65428 14.8558 8.51417 14.7749C8.37394 14.694 8.19485 14.742 8.11399 14.8821L5.60482 19.2282L4.99379 17.7107C4.91789 17.5224 4.72443 17.4106 4.52342 17.4393L2.90389 17.6688L5.97667 12.3466L6.85897 12.4432L7.40606 13.4397C7.53816 13.6805 7.81475 13.7952 8.07853 13.7185L8.9295 13.4697L8.8231 13.654C8.74221 13.7942 8.79021 13.9733 8.93032 14.0542C9.07028 14.135 9.24953 14.0873 9.3305 13.947L9.49459 13.6627L10.0548 14.1107C10.2692 14.2821 10.568 14.2814 10.7815 14.1107L11.3411 13.6618L13.702 17.7509C13.7832 17.8917 13.9627 17.9386 14.1022 17.8581C14.2423 17.7772 14.2903 17.5981 14.2094 17.458L11.9078 13.4715L12.7577 13.7185C13.0212 13.7952 13.2979 13.6807 13.4302 13.4399L13.9741 12.4454L14.8598 12.347L17.9324 17.6688L16.3129 17.4393C16.1117 17.4107 15.9182 17.5224 15.8425 17.7108L15.2315 19.2282L14.8919 18.6401C14.8111 18.4999 14.6318 18.452 14.4917 18.5328C14.3516 18.6137 14.3036 18.7929 14.3845 18.933L14.8734 19.7798C14.953 19.9176 15.0968 20.0001 15.254 20.0001C15.4329 20.0001 15.5946 19.8949 15.6634 19.7241L16.3434 18.0354L18.1459 18.2909C18.3139 18.3147 18.4776 18.2421 18.5727 18.1013C18.6678 17.9605 18.6741 17.7816 18.5891 17.6346L15.4345 12.1706ZM13.9095 11.863C13.7214 11.8839 13.5547 11.9954 13.4637 12.1613L12.9181 13.155L11.8296 12.8385C11.6482 12.7857 11.4515 12.8247 11.3038 12.9428C11.1976 13.0277 10.4583 13.6188 10.4181 13.651C10.3724 13.6144 9.64752 13.0349 9.5324 12.9428C9.38733 12.8267 9.1914 12.7849 9.00661 12.8385L7.91811 13.155L7.37258 12.1613C7.28157 11.9954 7.1149 11.8838 6.92678 11.863L5.79973 11.7378L5.67458 10.6107C5.65364 10.4227 5.54208 10.256 5.37627 10.165L4.38265 9.61946L4.69912 8.53096C4.75189 8.34944 4.71294 8.15289 4.59482 8.0052L3.88661 7.11946L4.59478 6.23376C4.7129 6.08611 4.75189 5.88956 4.69912 5.70796L4.38265 4.61946L5.37635 4.07386C5.54224 3.98277 5.65372 3.8161 5.67458 3.62814L5.79973 2.50108L6.92678 2.37593C7.11486 2.35507 7.28153 2.24356 7.37258 2.07767L7.91811 1.084L9.00661 1.40051C9.18805 1.45328 9.3846 1.41434 9.5324 1.29622L10.4181 0.588009L11.3039 1.29626C11.4516 1.41426 11.6481 1.45328 11.8296 1.40051L12.9181 1.084L13.4637 2.07767C13.5547 2.24356 13.7214 2.35511 13.9095 2.37597L15.0365 2.50112L15.1617 3.62814C15.1825 3.81622 15.294 3.98289 15.46 4.07398L16.4536 4.6195L16.1371 5.708C16.0843 5.88956 16.1233 6.08615 16.2414 6.23376L16.9496 7.1195L16.2414 8.00524C16.1233 8.15293 16.0844 8.34944 16.1371 8.531L16.4536 9.61954L15.4599 10.1651C15.294 10.2562 15.1825 10.4228 15.1617 10.6109L15.0365 11.7379C15.008 11.741 13.9379 11.8599 13.9095 11.863Z" fill="#515151"/>
</g>
<defs>
<clipPath id="clip0_1742_1746">
<rect width="20" height="20" fill="white"/>
</clipPath>
</defs>
</svg>
