<svg width="20" height="20" viewBox="0 0 20 20" fill="none" xmlns="http://www.w3.org/2000/svg">
<g clip-path="url(#clip0_1742_1807)">
<path d="M13.8197 2.24761C15.2582 3.42967 16.185 5.09125 16.4296 6.9262C16.4492 7.07374 16.5752 7.18095 16.7201 7.18095C16.733 7.18095 16.746 7.18012 16.7592 7.17836C16.9198 7.15692 17.0327 7.00938 17.0113 6.84873C16.7471 4.86597 15.746 3.07089 14.1924 1.79418C14.0672 1.69136 13.8823 1.70939 13.7794 1.8346C13.6764 1.9598 13.6945 2.14471 13.8197 2.24761Z" fill="#515151"/>
<path d="M4.5587 2.15103C4.62095 2.15103 4.68367 2.13131 4.73688 2.09058C6.02164 1.10685 7.55787 0.586868 9.17939 0.586868C10.4561 0.586868 11.713 0.920844 12.8141 1.55272C12.9547 1.6334 13.134 1.5848 13.2147 1.44427C13.2954 1.30373 13.2468 1.12437 13.1062 1.04374C11.9163 0.360918 10.5584 -1.52588e-05 9.17939 -1.52588e-05C7.42774 -1.52588e-05 5.76819 0.561749 4.38009 1.62456C4.25141 1.72311 4.22696 1.90728 4.32547 2.03596C4.38326 2.11143 4.47047 2.15103 4.5587 2.15103Z" fill="#515151"/>
<path d="M16.3071 10.5856C16.1577 10.5228 15.9856 10.5926 15.9226 10.742C14.7763 13.4604 12.1294 15.217 9.17939 15.217C5.14586 15.217 1.86433 11.9355 1.86433 7.90191C1.86433 7.01438 2.02196 6.14634 2.33282 5.32189C2.38998 5.17024 2.31341 5.00094 2.16176 4.94378C2.00999 4.8865 1.84081 4.96319 1.78365 5.1148C1.44772 6.00573 1.2774 6.94341 1.2774 7.90191C1.2774 9.52957 1.77223 11.0438 2.61914 12.3023V16.4131C2.61914 16.5931 2.71222 16.7541 2.86809 16.8439C2.9458 16.8886 3.03101 16.911 3.11619 16.911C3.20187 16.911 3.28752 16.8883 3.36557 16.8431L4.53848 16.1628L5.71135 16.8431C5.86695 16.9334 6.05295 16.9337 6.20887 16.8439C6.36474 16.7541 6.45782 16.5931 6.45782 16.4132V15.3208C6.57555 15.3641 6.69461 15.4046 6.81488 15.4424L7.32281 17.3123H6.68506C6.22553 17.3123 5.85169 17.6861 5.85169 18.1457V19.1666C5.85169 19.6261 6.22553 20 6.68506 20H11.6737C12.1332 20 12.5071 19.6261 12.5071 19.1666V18.1457C12.5071 17.6861 12.1332 17.3123 11.6737 17.3123H11.036L11.5434 15.444C11.6703 15.4044 11.7959 15.3618 11.9202 15.316V16.4131C11.9202 16.593 12.0133 16.754 12.1691 16.8438C12.2469 16.8886 12.3321 16.911 12.4172 16.911C12.5029 16.911 12.5886 16.8883 12.6666 16.8431L13.8395 16.1628L15.0124 16.8431C15.168 16.9333 15.354 16.9336 15.5099 16.8439C15.6657 16.7541 15.7588 16.5931 15.7588 16.4132V15.0342C15.7588 14.8721 15.6274 14.7408 15.4654 14.7408C15.3033 14.7408 15.1719 14.8721 15.1719 15.0342V16.2572L14.1103 15.6415C13.9433 15.5447 13.7358 15.5446 13.5687 15.6415L12.5071 16.2572V15.0722C13.5257 14.6002 14.4354 13.9144 15.1719 13.0573V13.7836C15.1719 13.9457 15.3033 14.0771 15.4654 14.0771C15.6274 14.0771 15.7588 13.9457 15.7588 13.7836V12.2824C16.0308 11.8732 16.2675 11.4347 16.4634 10.97C16.5264 10.8207 16.4564 10.6486 16.3071 10.5856ZM5.87094 16.2572L4.80931 15.6414C4.64224 15.5446 4.43472 15.5446 4.26761 15.6415L3.20606 16.2572V13.0696C3.93771 13.9142 4.8453 14.6021 5.87094 15.0769V16.2572ZM11.9202 18.1457V19.1666C11.9202 19.3025 11.8096 19.4131 11.6737 19.4131H6.68506C6.54914 19.4131 6.43857 19.3025 6.43857 19.1666V18.1457C6.43857 18.0098 6.54914 17.8992 6.68506 17.8992H11.6737C11.8096 17.8992 11.9202 18.0098 11.9202 18.1457ZM10.4278 17.3123H7.93094L7.47051 15.6172C8.02104 15.7391 8.59275 15.8039 9.17939 15.8039C9.76256 15.8039 10.3347 15.7401 10.888 15.6182L10.4278 17.3123Z" fill="#515151"/>
<path d="M2.9964 7.9019C2.9964 9.54682 3.63528 11.0951 4.79531 12.2616C4.9096 12.3766 5.09541 12.3771 5.21028 12.2628C5.32519 12.1485 5.3257 11.9627 5.21141 11.8478C4.16148 10.7921 3.58324 9.39067 3.58324 7.9019C3.58324 4.81623 6.09366 2.30582 9.17937 2.30582C12.2651 2.30582 14.7755 4.81623 14.7755 7.9019C14.7755 10.9877 12.2651 13.4981 9.17937 13.4981C8.09587 13.4981 7.0446 13.1878 6.13928 12.6007C6.00328 12.5126 5.82154 12.5513 5.73339 12.6873C5.64524 12.8233 5.68397 13.005 5.81993 13.0932C6.82061 13.742 7.98225 14.085 9.17933 14.085C12.5887 14.085 15.3623 11.3112 15.3623 7.9019C15.3623 4.49258 12.5887 1.71893 9.17933 1.71893C5.77009 1.71893 2.9964 4.49258 2.9964 7.9019Z" fill="#515151"/>
<path d="M7.5872 18.3627C7.42515 18.3627 7.29376 18.4941 7.29376 18.6562C7.29376 18.8183 7.42515 18.9496 7.5872 18.9496H10.8569C11.019 18.9496 11.1504 18.8183 11.1504 18.6562C11.1504 18.4941 11.019 18.3627 10.8569 18.3627H7.5872Z" fill="#515151"/>
<path d="M13.2222 7.62209C13.4446 7.40533 13.5231 7.08716 13.4272 6.7918C13.3312 6.49644 13.0807 6.28524 12.7734 6.2406L10.9415 5.97439C10.8689 5.96383 10.8061 5.91821 10.7736 5.8524L9.95442 4.1925C9.81697 3.914 9.53867 3.74103 9.22814 3.74103C8.91756 3.74103 8.63926 3.914 8.50185 4.1925L7.68268 5.8524C7.65016 5.91825 7.58741 5.96387 7.51471 5.97439L5.68293 6.2406C5.37564 6.28524 5.12508 6.49644 5.02914 6.7918C4.93317 7.08716 5.01169 7.40533 5.23408 7.62213L6.55954 8.91409C6.61212 8.96538 6.63611 9.03917 6.6237 9.11156L6.31078 10.9359C6.25827 11.242 6.38175 11.5456 6.63298 11.7281C6.77496 11.8313 6.94105 11.8837 7.10827 11.8837C7.237 11.8837 7.36638 11.8526 7.48591 11.7898L9.1243 10.9284C9.18928 10.8943 9.26695 10.8943 9.33194 10.9284L10.9703 11.7898C11.2453 11.9343 11.5721 11.9107 11.8233 11.7282C12.0745 11.5456 12.198 11.2421 12.1455 10.936L11.8326 9.1116C11.8202 9.03921 11.8441 8.96542 11.8967 8.91417L13.2222 7.62209ZM11.487 8.49388C11.2962 8.68 11.2091 8.94797 11.2541 9.21074L11.5671 11.0351C11.5882 11.1585 11.512 11.2288 11.4783 11.2533C11.4446 11.2779 11.3542 11.3286 11.2435 11.2703L9.60503 10.4089C9.36903 10.2849 9.08724 10.2849 8.85124 10.4089L7.21282 11.2703C7.10209 11.3286 7.01167 11.2779 6.97795 11.2533C6.94422 11.2288 6.86804 11.1585 6.88921 11.0351L7.20214 9.21074C7.24721 8.94797 7.16012 8.68 6.96918 8.49384L5.64373 7.20188C5.55409 7.11451 5.5744 7.01286 5.58727 6.97319C5.60014 6.93352 5.64349 6.83938 5.76732 6.82138L7.59907 6.55517C7.86293 6.51687 8.09091 6.35125 8.20895 6.11215L9.02816 4.45225C9.08357 4.34004 9.18651 4.32791 9.22817 4.32791C9.26984 4.32791 9.37282 4.34004 9.42818 4.45225L10.2474 6.11215C10.3654 6.35125 10.5934 6.51691 10.8572 6.55517L12.689 6.82138C12.8129 6.83938 12.8562 6.93352 12.869 6.97319C12.8819 7.01286 12.9022 7.11447 12.8126 7.20184L11.487 8.49388Z" fill="#515151"/>
<path d="M18.6871 8.60985C18.3491 8.41011 18.0822 8.15579 17.8938 7.85402C17.7857 7.68077 17.5995 7.58159 17.3951 7.58961C17.19 7.59728 17.0106 7.71039 16.9152 7.89221C16.7523 8.20263 16.515 8.43859 16.1898 8.6136C16.0088 8.71091 15.8957 8.89949 15.8946 9.10568C15.8935 9.31278 16.0051 9.5034 16.1859 9.60324C16.5018 9.77759 16.7377 10.0174 16.9072 10.3364C17.0041 10.5188 17.185 10.6304 17.3912 10.635C17.3954 10.6351 17.3996 10.6351 17.4038 10.6351C17.6043 10.6351 17.7913 10.5285 17.8939 10.3546C18.0904 10.0218 18.3461 9.77015 18.6757 9.5854C18.8529 9.4861 18.9601 9.30491 18.9625 9.10068C18.9648 8.89664 18.8619 8.7131 18.6871 8.60985ZM17.4066 10.0261C17.1926 9.63803 16.8897 9.32999 16.5056 9.10971C16.9014 8.8883 17.2078 8.58187 17.4171 8.19809C17.6473 8.55507 17.962 8.85614 18.3531 9.09383C17.9628 9.32033 17.6446 9.63368 17.4066 10.0261Z" fill="#515151"/>
<path d="M2.05005 4.12429C2.14697 4.3067 2.32788 4.41832 2.53404 4.42294C2.53826 4.42302 2.54245 4.42305 2.54667 4.42305C2.74719 4.42305 2.93413 4.3164 3.03676 4.14249C3.23317 3.80972 3.48893 3.55807 3.81865 3.37328C3.99584 3.27394 4.10305 3.09271 4.10536 2.88847C4.10767 2.68439 4.00473 2.50097 3.83003 2.39772C3.49199 2.19799 3.22507 1.94367 3.03668 1.64185C2.92854 1.46869 2.74191 1.36993 2.53799 1.37744C2.33289 1.38511 2.15346 1.49826 2.05803 1.68008C1.89515 1.99046 1.65786 2.22643 1.33261 2.40148C1.15165 2.49886 1.03858 2.68745 1.03748 2.89364C1.03639 3.10069 1.14801 3.29135 1.32881 3.39116C1.64467 3.56554 1.8806 3.80534 2.05005 4.12429ZM2.55998 1.98596C2.79019 2.34298 3.1048 2.64402 3.49594 2.88174C3.10562 3.10824 2.78749 3.4216 2.54941 3.81403C2.3354 3.42594 2.03256 3.1179 1.64839 2.89763C2.04434 2.67614 2.35069 2.36975 2.55998 1.98596Z" fill="#515151"/>
</g>
<defs>
<clipPath id="clip0_1742_1807">
<rect width="20" height="20" fill="white"/>
</clipPath>
</defs>
</svg>
