<svg width="20" height="20" viewBox="0 0 20 20" fill="none" xmlns="http://www.w3.org/2000/svg">
<g clip-path="url(#clip0_1742_1767)">
<path d="M7.14226 17.2222C7.10004 17.2222 7.05737 17.212 7.01781 17.1911C6.24981 16.784 5.52137 16.2391 4.85337 15.5711C4.18537 14.9031 3.64048 14.1751 3.23337 13.4067C3.16448 13.2764 3.21382 13.1151 3.34404 13.0462C3.47426 12.9773 3.63559 13.0267 3.70448 13.1569C4.08137 13.868 4.60893 14.5724 5.2307 15.1938C5.85204 15.8151 6.55648 16.3431 7.26759 16.7196C7.39782 16.7884 7.44715 16.9498 7.37826 17.08C7.33026 17.1707 7.23781 17.2222 7.14226 17.2222Z" fill="#515151"/>
<path d="M10.0013 16.0369C9.96132 16.0369 9.92043 16.028 9.88177 16.0084C8.77688 15.4533 7.68665 14.6533 6.72843 13.6956C5.77021 12.7373 4.97065 11.6471 4.41554 10.5422C4.34932 10.4107 4.40265 10.2502 4.53421 10.1844C4.66577 10.1182 4.82621 10.1716 4.89243 10.3031C5.42221 11.3578 6.18799 12.4004 7.10621 13.3187C8.02443 14.2369 9.06754 15.0022 10.1218 15.5324C10.2533 15.5987 10.3062 15.7591 10.2404 15.8907C10.1933 15.9831 10.0991 16.0369 10.0013 16.0369Z" fill="#515151"/>
<path d="M4.23867 18.4253C4.18356 18.4253 4.12845 18.4085 4.08045 18.3733C3.70222 18.0947 3.33556 17.7782 2.99067 17.4333C2.64578 17.0885 2.32933 16.7218 2.05067 16.3436C1.96311 16.2249 1.98845 16.0582 2.10711 15.9707C2.22578 15.8836 2.39245 15.9085 2.48 16.0271C2.74311 16.384 3.04178 16.7302 3.36756 17.0565C3.69333 17.3827 4.04 17.6813 4.39689 17.944C4.51556 18.0316 4.54089 18.1982 4.45333 18.3169C4.40133 18.3876 4.32045 18.4253 4.23867 18.4253Z" fill="#515151"/>
<path d="M6.27199 6.70311C6.24399 6.70311 6.21599 6.69867 6.18799 6.68934C6.04799 6.64311 5.97244 6.492 6.01911 6.35245C6.02355 6.33867 6.02933 6.324 6.03511 6.31156C6.09599 6.17734 6.25422 6.11822 6.38799 6.17911C6.51999 6.23911 6.57955 6.39334 6.52311 6.52578C6.48444 6.63467 6.38177 6.70311 6.27199 6.70311Z" fill="#515151"/>
<path d="M13.9867 14.4196C13.8827 14.4196 13.784 14.3582 13.7409 14.2564C13.6835 14.1209 13.7471 13.9644 13.8831 13.9071L13.8987 13.9004C14.0347 13.8431 14.1907 13.9067 14.248 14.0427C14.3053 14.1782 14.2418 14.3347 14.1058 14.392L14.0902 14.3987C14.0564 14.4129 14.0213 14.4196 13.9867 14.4196Z" fill="#515151"/>
<path d="M0.868896 19.8222C0.799563 19.8222 0.731118 19.7951 0.680452 19.744C0.604007 19.6676 0.581341 19.5529 0.622674 19.4533L2.43201 15.0876C2.68667 14.4738 2.95334 13.8298 3.22223 13.1796L3.7969 11.7929C4.0049 11.2911 4.20979 10.7964 4.40756 10.32C4.83867 9.28 5.23023 8.30533 5.5449 7.52178C5.69779 7.14089 5.83067 6.81067 5.9369 6.54933C5.95023 6.51378 5.97112 6.48133 5.99823 6.45422C6.10223 6.35022 6.27112 6.35022 6.37556 6.45422C6.45156 6.53022 6.47201 6.64044 6.43734 6.73511C6.43601 6.73866 6.43467 6.74222 6.43334 6.74578C6.32667 7.00667 6.19379 7.33778 6.04045 7.72C5.72534 8.50444 5.33334 9.48089 4.9009 10.5231C4.70356 11 4.49823 11.4947 4.29023 11.9964L3.71556 13.3827C3.44667 14.0329 3.17956 14.6769 2.9249 15.2907L1.36179 19.0622L9.89912 15.5236L13.592 14.0271L13.6867 13.988C13.8227 13.932 13.9787 13.9969 14.0347 14.1329C14.0907 14.2689 14.0258 14.4249 13.8898 14.4809L13.7938 14.5204L10.1018 16.0164L0.971118 19.8018C0.93823 19.8156 0.903563 19.8222 0.868896 19.8222Z" fill="#515151"/>
<path d="M13.36 14.5587C12.9342 14.5587 12.4289 14.436 11.8645 14.1907C10.8116 13.7333 9.64802 12.8973 8.58713 11.8369C7.52669 10.7764 6.69069 9.61244 6.23336 8.55955C5.74225 7.42933 5.74269 6.536 6.23469 6.04444C6.72669 5.55244 7.62002 5.552 8.7498 6.04311C9.80269 6.50044 10.9662 7.33644 12.0271 8.39689C13.0876 9.45733 13.9236 10.6213 14.3809 11.6742C14.872 12.8044 14.8716 13.6978 14.3796 14.1893C14.1334 14.4356 13.7867 14.5587 13.36 14.5587ZM7.24847 6.21155C6.97025 6.21155 6.75202 6.28133 6.61158 6.42178C5.97647 7.05689 6.78625 9.28222 8.96402 11.46C9.97825 12.4742 11.0836 13.2702 12.0765 13.7018C12.9787 14.0938 13.6805 14.1338 14.0022 13.8124C14.6374 13.1773 13.8276 10.952 11.6498 8.77422C9.9538 7.07822 8.22847 6.21155 7.24847 6.21155Z" fill="#515151"/>
<path d="M10.136 10.3329C10.0676 10.3329 9.99957 10.3067 9.94757 10.2547C9.84357 10.1507 9.84357 9.98177 9.94757 9.87733L14.968 4.85688C15.072 4.75288 15.2409 4.75288 15.3449 4.85688C15.4489 4.96088 15.4489 5.12977 15.3449 5.23422L10.3245 10.2547C10.2725 10.3067 10.204 10.3329 10.136 10.3329Z" fill="#515151"/>
<path d="M12.5453 12.7427C12.4845 12.7427 12.4231 12.7218 12.3733 12.6796C12.2609 12.5845 12.2467 12.416 12.3422 12.3036C13.1525 11.3462 14.1111 10.5476 15.1911 9.93023C16.2725 9.31245 17.4231 8.90623 18.6111 8.72312C18.7565 8.7009 18.8929 8.80045 18.9151 8.94623C18.9378 9.09156 18.8378 9.22801 18.692 9.25023C16.4502 9.59556 14.284 10.8342 12.7493 12.648C12.6965 12.7107 12.6213 12.7427 12.5453 12.7427Z" fill="#515151"/>
<path d="M7.72625 7.92311C7.6507 7.92311 7.57514 7.89111 7.5227 7.82889C7.42758 7.71645 7.44181 7.548 7.55381 7.45289C9.36758 5.91822 10.6063 3.752 10.9516 1.51022C10.9743 1.36445 11.1107 1.26489 11.2556 1.28711C11.4009 1.30978 11.5009 1.44578 11.4787 1.59111C11.2956 2.77911 10.8894 3.92978 10.2716 5.01111C9.65425 6.09111 8.85603 7.04978 7.89825 7.86C7.84847 7.90223 7.78714 7.92311 7.72625 7.92311Z" fill="#515151"/>
<path d="M12.2693 6.012C12.0551 6.012 11.8413 5.93067 11.6782 5.76756C11.3525 5.44178 11.3525 4.91156 11.6782 4.58578C12.004 4.26 12.5342 4.26 12.86 4.58578C13.1858 4.91156 13.1858 5.44178 12.86 5.76756C12.6973 5.93067 12.4831 6.012 12.2693 6.012ZM12.2693 4.87467C12.192 4.87467 12.1147 4.904 12.0556 4.96311C11.9378 5.08089 11.9378 5.27289 12.0556 5.39067C12.1733 5.50845 12.3653 5.50845 12.4831 5.39067C12.6009 5.27289 12.6009 5.08089 12.4831 4.96311C12.424 4.904 12.3467 4.87467 12.2693 4.87467Z" fill="#515151"/>
<path d="M18.5871 6.84533C18.3796 6.84533 18.172 6.76622 18.0138 6.60844C17.6978 6.29244 17.6978 5.77822 18.0138 5.46178C18.3298 5.14578 18.844 5.14578 19.1605 5.46178C19.4769 5.77778 19.4765 6.292 19.1605 6.608C19.0022 6.76667 18.7947 6.84533 18.5871 6.84533ZM18.5871 5.75822C18.516 5.75822 18.4449 5.78533 18.3911 5.83911C18.2831 5.94711 18.2831 6.12311 18.3911 6.23111C18.4991 6.33911 18.6751 6.33911 18.7836 6.23111C18.892 6.12311 18.8916 5.94711 18.7836 5.83867C18.7289 5.78489 18.6582 5.75822 18.5871 5.75822Z" fill="#515151"/>
<path d="M16.6933 12.9102C16.4858 12.9102 16.2782 12.8311 16.12 12.6733C15.804 12.3573 15.804 11.8431 16.12 11.5267C16.436 11.2107 16.9502 11.2107 17.2667 11.5267C17.5827 11.8427 17.5827 12.3569 17.2667 12.6733C17.1084 12.8311 16.9009 12.9102 16.6933 12.9102ZM16.6933 11.8227C16.6222 11.8227 16.5511 11.8498 16.4973 11.9036C16.3893 12.0116 16.3893 12.1876 16.4973 12.296C16.6053 12.404 16.7813 12.404 16.8898 12.296C16.9982 12.188 16.9978 12.012 16.8898 11.9036C16.8351 11.8493 16.764 11.8227 16.6933 11.8227Z" fill="#515151"/>
<path d="M16.42 8.24889H15.4378C15.2907 8.24889 15.1711 8.12934 15.1711 7.98223V7C15.1711 6.85289 15.2907 6.73334 15.4378 6.73334H16.42C16.5671 6.73334 16.6867 6.85289 16.6867 7V7.98223C16.6867 8.12978 16.5676 8.24889 16.42 8.24889ZM15.7045 7.71556H16.1534V7.26667H15.7045V7.71556Z" fill="#515151"/>
<path d="M14.3591 4.008C14.3453 4.008 14.3311 4.00711 14.3173 4.00489C14.2031 3.98667 14.1138 3.89733 14.0956 3.78311L13.9262 2.71511L12.8582 2.54578C12.744 2.52755 12.6547 2.43822 12.6365 2.324C12.6182 2.20978 12.676 2.09733 12.7787 2.04489L13.7418 1.55422L13.5729 0.486221C13.5547 0.371999 13.6124 0.259554 13.7151 0.20711C13.8182 0.154665 13.9431 0.174665 14.0249 0.255999L14.7893 1.02044L15.7529 0.529777C15.8556 0.477332 15.9809 0.497332 16.0627 0.578666C16.1445 0.660443 16.164 0.785332 16.1116 0.888443L15.6204 1.85155L16.3849 2.616C16.4667 2.69778 16.4862 2.82267 16.4338 2.92578C16.3813 3.02889 16.2685 3.08622 16.1547 3.068L15.0867 2.89867L14.5956 3.86222C14.5502 3.95244 14.4578 4.008 14.3591 4.008ZM13.7524 2.14755L14.2009 2.21867C14.3151 2.23689 14.4045 2.32622 14.4227 2.44044L14.4938 2.88889L14.7 2.484C14.7524 2.38089 14.8653 2.32355 14.9791 2.34178L15.4276 2.41289L15.1062 2.09155C15.0245 2.00978 15.0049 1.88489 15.0573 1.78178L15.2636 1.37733L14.8587 1.58355C14.756 1.636 14.6307 1.616 14.5489 1.53467L14.2276 1.21333L14.2987 1.66178C14.3169 1.776 14.2591 1.88844 14.1564 1.94089L13.7524 2.14755Z" fill="#515151"/>
<path d="M7.88488 4.56044C7.81421 4.56044 7.74621 4.53244 7.69643 4.48222L7.00177 3.78755C6.89777 3.68355 6.89777 3.51466 7.00177 3.41022L7.69643 2.71555C7.74666 2.66533 7.81421 2.63733 7.88488 2.63733C7.95555 2.63733 8.02354 2.66533 8.07332 2.71555L8.76799 3.41022C8.87199 3.51422 8.87199 3.68311 8.76799 3.78755L8.07332 4.48222C8.0231 4.532 7.95555 4.56044 7.88488 4.56044ZM7.5671 3.59911L7.88443 3.91644L8.20177 3.59911L7.88443 3.28177L7.5671 3.59911Z" fill="#515151"/>
</g>
<defs>
<clipPath id="clip0_1742_1767">
<rect width="20" height="20" fill="white"/>
</clipPath>
</defs>
</svg>
