<svg width="86" height="86" viewBox="0 0 86 86" fill="none" xmlns="http://www.w3.org/2000/svg">
<path d="M43 83.3125C44.2405 83.3117 45.4616 83.0047 46.5549 82.4187C47.6482 81.8326 48.5799 80.9857 49.2673 79.9531L51.1485 77.1312C51.5371 76.5518 52.0624 76.077 52.6781 75.7489C53.2938 75.4208 53.9809 75.2494 54.6785 75.25C55.805 75.2501 56.8853 75.6977 57.6818 76.4943L61.3691 80.1816C61.9356 80.7483 62.6083 81.1978 63.3486 81.5045C64.089 81.8111 64.8825 81.9689 65.6838 81.9687C68.9337 81.9687 72.0505 80.6777 74.3485 78.3797C76.6465 76.0817 77.9375 72.965 77.9375 69.7151C77.9377 67.6976 77.4397 65.7113 76.4877 63.9326C75.5358 62.1538 74.1593 60.6376 72.4805 59.5187L65.5266 54.8828C63.0872 53.2556 61.079 51.0607 59.6746 48.4865L58.8979 47.0622C57.34 44.2062 55.0414 41.8227 52.2439 40.162C49.4464 38.5014 46.2533 37.625 43 37.625C39.7467 37.625 36.5536 38.5014 33.7561 40.162C30.9586 41.8227 28.6601 44.2062 27.1021 47.0622L26.3254 48.4865C24.921 51.0607 22.9128 53.2556 20.4734 54.8828L13.5195 59.5187C11.8407 60.6376 10.4643 62.1538 9.51229 63.9326C8.56032 65.7113 8.06232 67.6976 8.06251 69.7151C8.06251 72.965 9.35352 76.0817 11.6515 78.3797C13.9495 80.6777 17.0663 81.9687 20.3162 81.9687C21.1175 81.9689 21.911 81.8111 22.6514 81.5045C23.3917 81.1978 24.0644 80.7483 24.6309 80.1816L28.3182 76.4943C29.1147 75.6977 30.195 75.2501 31.3215 75.25C32.0204 75.25 32.7086 75.4226 33.3249 75.7524C33.9411 76.0823 34.4664 76.5591 34.8542 77.1407L36.7354 79.9625C37.4236 80.993 38.3554 81.8378 39.4481 82.4222C40.5409 83.0065 41.7608 83.3123 43 83.3125Z" fill="white"/>
<path d="M47.0313 19.7424L47.0313 20.2463C47.0312 22.8564 47.4518 25.4495 48.2769 27.9258C48.6966 29.1851 49.5019 30.2804 50.5788 31.0565C51.6556 31.8326 52.9494 32.2501 54.2767 32.25C55.3491 32.2498 56.4039 31.9769 57.3418 31.457C58.2797 30.937 59.07 30.187 59.6383 29.2776L60.0011 28.6971C62.9413 23.9936 64.5002 18.5584 64.5 13.0115C64.4998 10.6526 63.8583 8.33814 62.6443 6.31562C61.9808 5.2092 61.042 4.29348 59.9194 3.65766C58.7969 3.02184 57.5288 2.6876 56.2386 2.6875C54.7181 2.6875 53.2337 3.15156 51.9839 4.01766C50.7341 4.88376 49.7783 6.11066 49.2444 7.53441C47.7809 11.4382 47.0313 15.5733 47.0313 19.7424Z" fill="white"/>
<path d="M38.9687 19.7424L38.9687 20.2463C38.9688 22.8564 38.5482 25.4495 37.7231 27.9258C37.3034 29.1851 36.4981 30.2804 35.4212 31.0565C34.3444 31.8326 33.0506 32.2501 31.7233 32.25C30.6509 32.2498 29.5961 31.9769 28.6582 31.457C27.7203 30.937 26.93 30.187 26.3617 29.2776L25.9989 28.6971C23.0587 23.9936 21.4998 18.5584 21.5 13.0115C21.5002 10.6526 22.1417 8.33814 23.3557 6.31562C24.0192 5.2092 24.958 4.29348 26.0806 3.65766C27.2031 3.02184 28.4712 2.6876 29.7614 2.6875C31.2808 2.68887 32.7637 3.15356 34.0122 4.01957C35.2606 4.88558 36.2153 6.11173 36.7489 7.53441C38.2147 11.4378 38.9666 15.5729 38.9687 19.7424Z" fill="white"/>
<path d="M21.5 38.5549L21.5 39.0588C21.5 41.6689 21.0794 44.262 20.2543 46.7383C19.8346 47.9976 19.0293 49.0929 17.9525 49.869C16.8756 50.6451 15.5819 51.0626 14.2545 51.0625C13.1821 51.0623 12.1274 50.7894 11.1895 50.2695C10.2515 49.7495 9.46127 48.9995 8.89294 48.0901L8.53012 47.5096C5.58999 42.8061 4.03108 37.3709 4.03125 31.824C4.03149 29.4651 4.67293 27.1506 5.88697 25.1281C6.55049 24.0217 7.48925 23.106 8.61182 22.4702C9.73439 21.8343 11.0025 21.5001 12.2926 21.5C13.8121 21.5014 15.2949 21.9661 16.5434 22.8321C17.7919 23.6981 18.7466 24.9242 19.2801 26.3469C20.7459 30.2503 21.4978 34.3854 21.5 38.5549Z" fill="white"/>
<path d="M64.5 38.5549L64.5 39.0588C64.5 41.6689 64.9206 44.262 65.7457 46.7383C66.1654 47.9976 66.9707 49.0929 68.0475 49.869C69.1244 50.6451 70.4181 51.0626 71.7455 51.0625C72.8179 51.0623 73.8726 50.7894 74.8105 50.2695C75.7485 49.7495 76.5387 48.9995 77.1071 48.0901L77.4699 47.5096C80.41 42.8061 81.9689 37.3709 81.9687 31.824C81.9685 29.4651 81.3271 27.1506 80.113 25.1281C79.4495 24.0217 78.5108 23.106 77.3882 22.4702C76.2656 21.8343 74.9975 21.5001 73.7074 21.5C72.1868 21.5 70.7024 21.9641 69.4526 22.8302C68.2028 23.6963 67.2471 24.9232 66.7132 26.3469C65.2497 30.2507 64.5 34.3858 64.5 38.5549Z" fill="white"/>
</svg>
