<svg width="19" height="15" viewBox="0 0 19 15" fill="none" xmlns="http://www.w3.org/2000/svg">
<path d="M7.02353 14.6366H6.98847C6.79528 14.6312 6.60557 14.5838 6.43249 14.4979C6.25941 14.4119 6.10709 14.2893 5.98608 14.1386L0.673966 7.49845C0.564967 7.3622 0.483872 7.20582 0.43531 7.03823C0.386748 6.87064 0.371671 6.69512 0.390939 6.52171C0.410208 6.34829 0.463444 6.18037 0.54761 6.02752C0.631775 5.87468 0.745221 5.73991 0.881471 5.63091C1.01772 5.52191 1.1741 5.44082 1.34169 5.39225C1.50928 5.34369 1.6848 5.32862 1.85822 5.34789C2.03163 5.36715 2.19956 5.42039 2.3524 5.50456C2.50524 5.58872 2.64001 5.70217 2.74901 5.83842L7.07665 11.2491L16.6556 0.474382C16.7697 0.338345 16.91 0.226582 17.0681 0.145708C17.2262 0.0648337 17.3989 0.0164905 17.576 0.00353748C17.7532 -0.00941549 17.9311 0.0132848 18.0993 0.0702963C18.2674 0.127308 18.4225 0.217472 18.5552 0.335454C18.6879 0.453437 18.7957 0.596841 18.872 0.757184C18.9483 0.917527 18.9917 1.09155 18.9996 1.26896C19.0075 1.44637 18.9798 1.62356 18.918 1.79006C18.8562 1.95655 18.7616 2.10896 18.6399 2.23827L8.0157 14.1905C7.89125 14.3308 7.73847 14.4431 7.56745 14.5199C7.39643 14.5968 7.21104 14.6366 7.02353 14.6366Z" fill="#787878"/>
</svg>
