<svg width="275" height="225" viewBox="0 0 275 225" fill="none" xmlns="http://www.w3.org/2000/svg">
<g style="mix-blend-mode:screen" opacity="0.11">
<path d="M35.0296 155.788C37.211 155.882 39.0888 156.819 40.2422 158.195C42.4357 155.938 45.8635 154.546 49.6353 154.707C52.7636 154.84 55.5277 156.008 57.4622 157.791C59.4573 154.51 63.6662 152.334 68.3931 152.537C70.1131 152.611 71.7278 152.991 73.1605 153.612C73.4964 148.268 79.0205 144.16 85.4998 144.433C87.1671 144.503 88.7333 144.86 90.1336 145.438C90.9268 142.401 94.2858 140.194 98.1709 140.358C102.06 140.521 105.128 143.008 105.532 146.102C106.775 145.678 108.143 145.461 109.575 145.525C113.125 145.675 116.107 147.441 117.54 149.91C121.053 146.91 126.063 145.127 131.51 145.358C132.485 145.398 133.441 145.505 134.367 145.668C134.27 145.208 134.23 144.73 134.258 144.243C134.477 140.712 138.131 137.995 142.413 138.175C145.808 138.319 148.576 140.244 149.471 142.794C151.219 141.363 153.659 140.515 156.314 140.628C157.844 140.692 159.269 141.072 160.495 141.68C162.292 137.06 167.678 133.826 173.83 134.09C178.415 134.283 182.332 136.373 184.538 139.387C185.898 136.673 189.208 134.827 192.964 134.988C193.98 135.031 194.943 135.224 195.833 135.532C195.716 134.837 195.671 134.126 195.72 133.402C196.104 127.247 202.466 122.515 209.929 122.832C216.53 123.112 221.778 127.251 222.636 132.461C225.66 130.355 229.537 129.043 233.798 128.94C235.142 128.906 236.453 129 237.72 129.2C237.614 128.746 237.562 128.279 237.594 127.798C237.792 124.604 241.095 122.147 244.968 122.311C247.08 122.401 248.926 123.255 250.136 124.53C252.738 122.454 256.336 121.236 260.237 121.403C263.021 121.52 265.567 122.328 267.643 123.609C266.368 121.677 264.6 120.021 262.487 118.746C264.875 116.603 266.239 113.693 265.988 110.562C265.506 104.481 259.136 99.8782 251.767 100.275C247.914 100.482 244.551 102.021 242.285 104.307C240.917 103.169 238.99 102.505 236.902 102.618C233.074 102.825 230.176 105.552 230.427 108.706C230.463 109.18 230.581 109.638 230.747 110.072C229.476 109.998 228.173 110.031 226.862 110.188C222.689 110.692 219.067 112.351 216.392 114.708C214.822 109.671 209.087 106.11 202.567 106.46C195.198 106.857 189.613 112.111 190.095 118.189C190.151 118.906 190.293 119.601 190.503 120.268C189.589 120.055 188.613 119.954 187.61 120.008C183.899 120.208 180.908 122.338 179.953 125.128C177.371 122.378 173.227 120.699 168.698 120.942C162.619 121.27 157.783 124.958 156.666 129.664C155.375 129.183 153.926 128.95 152.413 129.03C149.79 129.17 147.512 130.235 145.994 131.807C144.76 129.387 141.773 127.758 138.422 127.942C134.189 128.169 130.984 131.186 131.263 134.674C131.3 135.154 131.409 135.618 131.571 136.062C130.636 135.992 129.685 135.975 128.722 136.029C123.339 136.319 118.673 138.546 115.642 141.826C113.894 139.537 110.717 138.088 107.212 138.275C105.8 138.352 104.484 138.692 103.323 139.226C102.493 136.226 99.1341 134.08 95.2895 134.287C91.4529 134.494 88.4622 136.98 88.106 140.037C86.6491 139.604 85.0587 139.403 83.4156 139.493C77.0132 139.841 72.1649 144.4 72.5818 149.677C71.0884 149.206 69.4534 148.983 67.7537 149.076C63.0834 149.33 59.255 151.863 57.7535 155.274C55.6005 153.709 52.7231 152.821 49.6353 152.988C45.912 153.188 42.7392 154.88 40.9018 157.303C39.5785 156.062 37.5995 155.321 35.4465 155.438C34.6128 155.484 33.8277 155.658 33.1114 155.928C33.7265 155.808 34.3659 155.751 35.0296 155.781V155.788Z" fill="url(#paint0_linear_4405_323)"/>
</g>
<g style="mix-blend-mode:screen" opacity="0.47">
<path d="M271.13 150.976C270.375 146.567 267.487 142.877 263.497 140.557C267.108 137.273 269 132.665 268.173 127.855C267.858 126.026 267.176 124.32 266.2 122.784C264.13 121.458 261.593 120.623 258.817 120.502C254.929 120.329 251.342 121.589 248.748 123.737C247.542 122.418 245.707 121.534 243.597 121.441C239.736 121.272 236.444 123.813 236.247 127.117C236.218 127.614 236.267 128.101 236.372 128.567C235.109 128.363 233.802 128.266 232.463 128.297C228.211 128.401 224.35 129.758 221.336 131.94C220.481 126.55 215.249 122.269 208.669 121.979C201.23 121.651 194.889 126.547 194.506 132.913C194.461 133.662 194.506 134.398 194.619 135.116C193.731 134.802 192.771 134.598 191.758 134.553C188.015 134.387 184.715 136.3 183.359 139.103C181.165 135.986 177.256 133.825 172.685 133.624C166.553 133.355 161.184 136.697 159.393 141.475C158.166 140.847 156.75 140.457 155.225 140.388C152.579 140.27 150.146 141.147 148.404 142.628C147.512 139.991 144.757 137.998 141.368 137.85C137.1 137.664 133.457 140.47 133.24 144.126C133.207 144.631 133.252 145.124 133.348 145.601C132.425 145.431 131.473 145.321 130.5 145.28C125.07 145.041 120.076 146.881 116.575 149.989C115.151 147.434 112.173 145.608 108.635 145.452C107.207 145.39 105.844 145.614 104.605 146.049C104.202 142.849 101.144 140.281 97.2673 140.108C93.3946 139.939 90.0463 142.217 89.2556 145.362C87.8558 144.765 86.2945 144.399 84.6365 144.323C78.1779 144.04 72.6713 148.29 72.3365 153.817C70.9084 153.175 69.3029 152.782 67.5843 152.706C62.8725 152.499 58.677 154.746 56.6882 158.14C54.7559 156.296 52.0006 155.084 48.8862 154.95C45.1264 154.784 41.7136 156.224 39.523 158.557C38.3733 157.135 36.5015 156.165 34.3271 156.068C33.6695 156.041 33.0281 156.096 32.4149 156.22C29.9703 157.176 28.3405 159.345 28.5261 161.779C28.7681 164.924 31.9389 167.302 35.614 167.099C36.9493 167.023 38.1676 166.612 39.164 165.973C40.822 169.836 45.2959 172.474 50.3425 172.191C51.8029 172.108 53.1785 171.787 54.421 171.276C54.421 171.452 54.4291 171.625 54.4452 171.801C54.8486 177.052 60.1454 181.029 66.2813 180.684C72.4172 180.339 77.0645 175.806 76.6611 170.554C76.6369 170.261 76.5965 169.971 76.5441 169.684C79.376 175.592 86.3752 179.572 94.2337 179.134C97.461 178.954 100.43 178.046 102.943 176.613C105.654 177.753 108.736 178.319 111.964 178.139C112.795 178.095 113.605 177.994 114.4 177.856C111.629 181.005 110.269 185.065 110.991 189.273C112.423 197.625 121.496 203.404 131.259 202.178C141.017 200.953 147.77 193.188 146.338 184.834C145.661 180.891 143.28 177.521 139.928 175.191C140.17 175.17 140.412 175.146 140.654 175.115C144.321 174.652 147.565 173.268 150.11 171.276C153.624 173.223 157.94 174.131 162.406 173.568C167.989 172.868 172.584 170.023 175.231 166.156C178.728 168.072 183.012 168.959 187.442 168.404C190.371 168.034 193.025 167.074 195.276 165.69C199.137 169.508 205.119 171.611 211.388 170.824C218.763 169.899 224.415 165.238 226.121 159.417C228.481 159.994 231.014 160.163 233.6 159.838C234.774 159.69 235.904 159.445 236.985 159.12C240.063 165.404 247.812 169.357 256.05 168.324C265.809 167.099 272.562 159.334 271.13 150.979V150.976ZM75.0878 166.267C75.1886 166.191 75.2895 166.115 75.3903 166.035C75.4509 166.391 75.5194 166.74 75.6041 167.088C75.4468 166.805 75.2774 166.532 75.0878 166.27V166.267ZM126.075 171.929C125.732 171.97 125.397 172.025 125.062 172.084C125.333 171.777 125.595 171.459 125.841 171.134C126.152 171.383 126.47 171.625 126.801 171.856C126.559 171.877 126.317 171.901 126.075 171.932V171.929Z" fill="url(#paint1_linear_4405_323)"/>
</g>
<path d="M104.275 136.632V180.293C104.275 180.293 113.829 186.106 137.33 186.106C159.473 186.106 170.385 180.293 170.385 180.293V136.632C170.385 136.632 157.16 142.445 137.33 142.445C117.5 142.445 104.275 136.632 104.275 136.632Z" fill="url(#paint2_linear_4405_323)"/>
<path d="M137.337 143.61C155.593 143.61 170.392 140.438 170.392 136.525C170.392 132.613 155.593 129.441 137.337 129.441C119.081 129.441 104.282 132.613 104.282 136.525C104.282 140.438 119.081 143.61 137.337 143.61Z" fill="url(#paint3_linear_4405_323)"/>
<path d="M164.526 79.4683V74.6569C172.672 74.6569 179.303 72.1127 184.243 67.0935C192.27 58.9319 193.942 46.3178 194.287 41.1097H180.95C179.837 46.4563 175.098 50.4868 169.441 50.4868V45.6754C173.275 45.6754 176.399 42.5455 176.399 38.704V36.2983H199.14L199.171 38.6662C199.184 39.4723 199.322 58.6107 187.656 70.469C181.786 76.4391 173.998 79.462 164.526 79.462V79.4683Z" fill="url(#paint4_linear_4405_323)"/>
<path d="M110.149 79.4683C100.671 79.4683 92.8893 76.4392 87.0187 70.4754C75.3531 58.617 75.4914 39.485 75.5039 38.6726L75.5354 36.3047H98.2758V38.7104C98.2758 42.5519 101.393 45.6818 105.234 45.6818V50.4931C99.5706 50.4931 94.8377 46.4627 93.7252 41.116H80.394C80.7459 46.3304 82.4367 58.9886 90.4506 67.1188C95.3846 72.1254 102.009 74.6633 110.149 74.6633V79.4746V79.4683Z" fill="url(#paint5_linear_4405_323)"/>
<g style="mix-blend-mode:multiply">
<path opacity="0.53" d="M199.17 38.6716C199.17 38.5961 199.151 38.5331 199.145 38.4575C198.975 43.2248 197.63 58.6854 187.655 68.8245C181.784 74.7946 173.997 77.8174 164.525 77.8174V79.4611C174.003 79.4611 181.784 76.432 187.655 70.4681C199.321 58.6098 199.182 39.4777 199.17 38.6653V38.6716Z" fill="url(#paint6_linear_4405_323)"/>
</g>
<path style="mix-blend-mode:multiply" opacity="0.53" d="M75.5226 38.4575C75.5163 38.5268 75.4974 38.5961 75.4974 38.6716C75.4848 39.4777 75.3466 58.6161 87.0122 70.4744C92.8827 76.4446 100.67 79.4674 110.142 79.4674V77.8237C100.664 77.8237 92.8827 74.7946 87.0122 68.8308C77.0373 58.6917 75.6923 43.2311 75.5226 38.4638V38.4575Z" fill="url(#paint7_linear_4405_323)"/>
<path d="M117.166 129.459V135.347C117.166 135.347 122.992 138.893 137.336 138.893C150.849 138.893 157.505 135.347 157.505 135.347V129.459C157.505 129.459 149.435 133.005 137.336 133.005C125.236 133.005 117.166 129.459 117.166 129.459Z" fill="url(#paint8_linear_4405_323)"/>
<path d="M157.505 129.396C157.505 131.783 148.473 133.716 137.336 133.716C126.198 133.716 117.166 131.783 117.166 129.396C117.166 127.01 126.198 125.076 137.336 125.076C148.473 125.076 157.505 127.01 157.505 129.396Z" fill="url(#paint9_linear_4405_323)"/>
<path style="mix-blend-mode:multiply" opacity="0.45" d="M157.505 129.396C157.505 131.783 148.473 133.716 137.336 133.716C126.198 133.716 117.166 131.783 117.166 129.396C117.166 127.01 126.198 125.076 137.336 125.076C148.473 125.076 157.505 127.01 157.505 129.396Z" fill="url(#paint10_linear_4405_323)"/>
<path d="M144.076 114.049V100.767L137.332 101.454L130.588 100.767V114.049C130.588 120.346 127.848 122.979 124.19 124.585V128.936C124.19 128.936 129.444 130.769 137.332 130.769C145.22 130.769 150.475 128.936 150.475 128.936V124.585C146.817 122.979 144.076 120.346 144.076 114.049Z" fill="url(#paint11_linear_4405_323)"/>
<path d="M127.398 103.871C130.547 104.829 133.884 105.351 137.341 105.351C140.798 105.351 144.136 104.835 147.285 103.871V75.3496H127.398V103.871Z" fill="url(#paint12_linear_4405_323)"/>
<path d="M103.165 33.2124H171.506V67.2194C171.506 86.1121 156.195 101.453 137.339 101.453C118.483 101.453 103.171 86.1121 103.171 67.2194V33.2124H103.165Z" fill="url(#paint13_linear_4405_323)"/>
<path style="mix-blend-mode:multiply" opacity="0.45" d="M157.51 33.2124V60.8084C157.51 79.7138 142.211 95.0421 123.342 95.0421C121.004 95.0421 118.729 94.8028 116.523 94.3557C122.286 98.8018 129.502 101.453 137.34 101.453C156.209 101.453 171.507 86.1247 171.507 67.2194V33.2124H157.51Z" fill="url(#paint14_linear_4405_323)"/>
<path d="M171.342 33.2126C166.156 30.2654 152.888 28.1746 137.338 28.1746C121.788 28.1746 108.52 30.2717 103.334 33.2126H101.002V35.9584C101.002 40.2596 117.275 43.7485 137.344 43.7485C157.414 43.7485 173.686 40.2596 173.686 35.9584V33.2126H171.354H171.342Z" fill="url(#paint15_linear_4405_323)"/>
<path d="M137.334 41.0028C157.405 41.0028 173.676 37.5151 173.676 33.2127C173.676 28.9104 157.405 25.4226 137.334 25.4226C117.262 25.4226 100.992 28.9104 100.992 33.2127C100.992 37.5151 117.262 41.0028 137.334 41.0028Z" fill="url(#paint16_linear_4405_323)"/>
<path d="M137.331 38.7104C155.319 38.7104 169.902 36.249 169.902 33.2126C169.902 30.1763 155.319 27.7148 137.331 27.7148C119.343 27.7148 104.76 30.1763 104.76 33.2126C104.76 36.249 119.343 38.7104 137.331 38.7104Z" fill="url(#paint17_linear_4405_323)"/>
<path style="mix-blend-mode:multiply" opacity="0.45" d="M137.331 38.7104C155.319 38.7104 169.902 36.249 169.902 33.2126C169.902 30.1763 155.319 27.7148 137.331 27.7148C119.343 27.7148 104.76 30.1763 104.76 33.2126C104.76 36.249 119.343 38.7104 137.331 38.7104Z" fill="url(#paint18_linear_4405_323)"/>
<path style="mix-blend-mode:multiply" opacity="0.65" d="M108.245 35.6812C113.607 37.4761 124.619 38.7104 137.34 38.7104C150.062 38.7104 161.074 37.4761 166.435 35.6812C161.074 33.8864 150.062 32.6521 137.34 32.6521C124.619 32.6521 113.607 33.8864 108.245 35.6812Z" fill="url(#paint19_linear_4405_323)"/>
<path d="M141.656 0H149.701L157.338 9.03074L137.344 34.7186L144.78 9.03074L141.656 0Z" fill="url(#paint20_linear_4405_323)"/>
<path d="M124.98 0H133.025L129.902 9.03074L137.343 34.7186L117.343 9.03074L124.98 0Z" fill="url(#paint21_linear_4405_323)"/>
<path d="M157.335 9.03098L149.699 0.000244141H124.978L117.341 9.03098H157.335Z" fill="url(#paint22_linear_4405_323)"/>
<path d="M144.779 9.03098L141.655 0.000244141H133.025L129.902 9.03098H144.779Z" fill="url(#paint23_linear_4405_323)"/>
<path d="M137.337 34.7184L144.779 9.03052H129.902L137.337 34.7184Z" fill="url(#paint24_linear_4405_323)"/>
<path d="M274.487 158.162C273.58 155.017 271.561 152.348 268.872 150.373C269.461 148.588 269.533 146.657 268.977 144.729C268.465 142.951 267.474 141.377 266.152 140.074C266.172 139.211 266.067 138.33 265.813 137.45C264.241 131.996 257.728 128.647 251.259 129.973C245.032 131.248 241.127 136.392 242.247 141.642C240.433 141.53 238.571 141.645 236.713 142.026C230.123 143.376 225.287 147.649 223.667 152.817C221.381 152.029 218.786 151.814 216.202 152.345C213.502 152.899 211.233 154.177 209.616 155.87C206.602 154.062 202.712 153.32 198.835 154.116C196.703 154.551 194.825 155.405 193.281 156.54C193.253 155.894 193.148 155.241 192.958 154.592C191.451 149.353 185.192 146.14 178.985 147.411C175.954 148.034 173.495 149.611 171.948 151.668C170.291 149.21 166.857 147.867 163.443 148.567C162.444 148.771 161.541 149.135 160.755 149.615C157.188 143.342 148.797 139.802 140.457 141.513C132.622 143.117 127.266 148.86 126.851 155.32C125.936 155.218 124.989 155.248 124.041 155.442C120.809 156.105 118.572 158.407 118.25 161.049C116.355 160.158 114.074 159.842 111.797 160.307C110.33 160.607 109.036 161.198 107.984 161.99C105.223 157.696 99.2942 155.33 93.3977 156.537C89.0085 157.434 85.6833 160.103 84.2203 163.425C82.3018 160.953 78.6864 159.644 75.0912 160.379C70.8834 161.242 68.1749 164.605 68.6425 168.141C65.7002 167.111 62.3912 166.733 59.0137 167.185C56.8654 167.474 54.8663 168.076 53.0727 168.926C49.7113 163.146 42.1703 159.627 34.2424 160.695C26.9593 161.674 21.4174 166.24 19.7327 171.915C18.2051 171.779 16.6332 171.806 15.0412 172.02C5.30758 173.329 -1.32659 181.043 0.225146 189.254C1.11588 193.98 4.52969 197.836 9.11637 200.012C6.12173 203.201 4.65867 207.396 5.47686 211.728C7.02859 219.939 16.1737 225.535 25.9073 224.226C34.1214 223.121 40.1309 217.45 40.8725 210.772C42.0172 210.806 43.1779 210.752 44.3508 210.596C46.9303 210.249 49.2841 209.45 51.3356 208.314C54.9993 213.356 62.0123 216.307 69.3639 215.321C75.6152 214.482 80.5848 210.997 82.9305 206.434C85.5584 207.168 88.424 207.403 91.3461 207.009C95.7635 206.414 99.5401 204.5 102.204 201.817C106.078 204.785 111.45 206.298 117.02 205.55C121.474 204.952 125.275 203.01 127.943 200.294C131.062 201.525 134.637 202.011 138.297 201.518C143.887 200.766 148.454 197.897 151.033 194.038C155.229 196.999 160.981 198.301 166.704 197.128C169.844 196.486 172.584 195.174 174.773 193.419C177.671 194.13 180.815 194.235 183.958 193.593C185.667 193.242 187.259 192.692 188.706 191.984C192.91 194.98 198.69 196.302 204.445 195.123C208.403 194.31 211.728 192.443 214.102 189.961C217.565 191.247 221.535 191.621 225.492 190.808C228.878 190.114 231.8 188.646 234.061 186.681C238.317 190.22 244.581 191.879 250.816 190.601C259.191 188.884 264.733 182.448 264.439 175.454C272.153 172.55 276.559 165.332 274.491 158.162H274.487ZM170.581 159.559C170.69 159.889 170.819 160.209 170.968 160.518C170.73 160.28 170.481 160.052 170.223 159.831C170.348 159.743 170.464 159.655 170.581 159.559ZM174.555 164.564C174.354 164.615 174.156 164.669 173.963 164.727C173.802 164.387 173.632 164.051 173.443 163.724C173.794 164.023 174.164 164.306 174.555 164.564Z" fill="url(#paint25_linear_4405_323)"/>
<defs>
<linearGradient id="paint0_linear_4405_323" x1="150.381" y1="271.046" x2="150.381" y2="68.4737" gradientUnits="userSpaceOnUse">
<stop stop-color="#80D8FF"/>
<stop offset="1" stop-color="#651FFF"/>
</linearGradient>
<linearGradient id="paint1_linear_4405_323" x1="149.917" y1="361.768" x2="149.917" y2="75.5897" gradientUnits="userSpaceOnUse">
<stop stop-color="#80D8FF"/>
<stop offset="1" stop-color="#651FFF"/>
</linearGradient>
<linearGradient id="paint2_linear_4405_323" x1="172.044" y1="161.369" x2="103.32" y2="161.369" gradientUnits="userSpaceOnUse">
<stop stop-color="#CFD8DC"/>
<stop offset="1" stop-color="#ECEFF1"/>
</linearGradient>
<linearGradient id="paint3_linear_4405_323" x1="178.531" y1="145.84" x2="97.7492" y2="127.644" gradientUnits="userSpaceOnUse">
<stop stop-color="#CFD8DC"/>
<stop offset="1" stop-color="#99ACB5"/>
</linearGradient>
<linearGradient id="paint4_linear_4405_323" x1="181.849" y1="79.4683" x2="181.849" y2="36.3046" gradientUnits="userSpaceOnUse">
<stop stop-color="#FF6E40"/>
<stop offset="1" stop-color="#FFD740"/>
</linearGradient>
<linearGradient id="paint5_linear_4405_323" x1="92.8264" y1="-36.5206" x2="92.8264" y2="-36.5206" gradientUnits="userSpaceOnUse">
<stop stop-color="#FF6E40"/>
<stop offset="1" stop-color="#FFD740"/>
</linearGradient>
<linearGradient id="paint6_linear_4405_323" x1="181.847" y1="-36.5215" x2="181.847" y2="38.4575" gradientUnits="userSpaceOnUse">
<stop stop-color="#FF6E40"/>
<stop offset="1" stop-color="#FFD740"/>
</linearGradient>
<linearGradient id="paint7_linear_4405_323" x1="92.8262" y1="-36.5215" x2="92.8262" y2="38.4575" gradientUnits="userSpaceOnUse">
<stop stop-color="#FF6E40"/>
<stop offset="1" stop-color="#FFD740"/>
</linearGradient>
<linearGradient id="paint8_linear_4405_323" x1="158.524" y1="134.176" x2="116.581" y2="134.176" gradientUnits="userSpaceOnUse">
<stop stop-color="#FFB140"/>
<stop offset="1" stop-color="#FFD640"/>
</linearGradient>
<linearGradient id="paint9_linear_4405_323" x1="137.329" y1="150.55" x2="137.329" y2="120.328" gradientUnits="userSpaceOnUse">
<stop stop-color="#FFD740"/>
<stop offset="1" stop-color="#FF6E40"/>
</linearGradient>
<linearGradient id="paint10_linear_4405_323" x1="137.329" y1="150.55" x2="137.329" y2="120.328" gradientUnits="userSpaceOnUse">
<stop stop-color="#FF6E40"/>
<stop offset="1" stop-color="#FFD740"/>
</linearGradient>
<linearGradient id="paint11_linear_4405_323" x1="137.332" y1="100.018" x2="137.332" y2="135.183" gradientUnits="userSpaceOnUse">
<stop stop-color="#FF6E40"/>
<stop offset="1" stop-color="#FFD740"/>
</linearGradient>
<linearGradient id="paint12_linear_4405_323" x1="137.335" y1="163.774" x2="137.335" y2="58.894" gradientUnits="userSpaceOnUse">
<stop stop-color="#FF6E40"/>
<stop offset="1" stop-color="#FFD740"/>
</linearGradient>
<linearGradient id="paint13_linear_4405_323" x1="103.586" y1="25.4412" x2="169.44" y2="87.88" gradientUnits="userSpaceOnUse">
<stop stop-color="#FFD740"/>
<stop offset="1" stop-color="#FF6E40"/>
</linearGradient>
<linearGradient id="paint14_linear_4405_323" x1="116.516" y1="67.3327" x2="171.507" y2="67.3327" gradientUnits="userSpaceOnUse">
<stop stop-color="#FF6E40"/>
<stop offset="1" stop-color="#FFD740"/>
</linearGradient>
<linearGradient id="paint15_linear_4405_323" x1="100.996" y1="35.9584" x2="173.674" y2="35.9584" gradientUnits="userSpaceOnUse">
<stop stop-color="#FF6E40"/>
<stop offset="1" stop-color="#FFD740"/>
</linearGradient>
<linearGradient id="paint16_linear_4405_323" x1="172.858" y1="38.679" x2="106.85" y2="28.5595" gradientUnits="userSpaceOnUse">
<stop stop-color="#FFB140"/>
<stop offset="1" stop-color="#FFD640"/>
</linearGradient>
<linearGradient id="paint17_linear_4405_323" x1="104.767" y1="33.2126" x2="169.902" y2="33.2126" gradientUnits="userSpaceOnUse">
<stop stop-color="#FFD740"/>
<stop offset="1" stop-color="#FF6E40"/>
</linearGradient>
<linearGradient id="paint18_linear_4405_323" x1="104.767" y1="33.2126" x2="169.902" y2="33.2126" gradientUnits="userSpaceOnUse">
<stop stop-color="#FF6E40"/>
<stop offset="1" stop-color="#FFD740"/>
</linearGradient>
<linearGradient id="paint19_linear_4405_323" x1="108.245" y1="35.6812" x2="166.429" y2="35.6812" gradientUnits="userSpaceOnUse">
<stop stop-color="#FF6E40"/>
<stop offset="1" stop-color="#FFD740"/>
</linearGradient>
<linearGradient id="paint20_linear_4405_323" x1="140.191" y1="34.8131" x2="147.275" y2="11.8472" gradientUnits="userSpaceOnUse">
<stop stop-color="white"/>
<stop offset="1" stop-color="#ECEFF1"/>
</linearGradient>
<linearGradient id="paint21_linear_4405_323" x1="107.588" y1="4.15641" x2="136.126" y2="17.7539" gradientUnits="userSpaceOnUse">
<stop stop-color="#ECEFF1"/>
<stop offset="1" stop-color="white"/>
</linearGradient>
<linearGradient id="paint22_linear_4405_323" x1="119.736" y1="11.3863" x2="151.174" y2="1.34558" gradientUnits="userSpaceOnUse">
<stop stop-color="#ECEFF1"/>
<stop offset="1" stop-color="white"/>
</linearGradient>
<linearGradient id="paint23_linear_4405_323" x1="142.535" y1="0.881906" x2="132.132" y2="11.259" gradientUnits="userSpaceOnUse">
<stop stop-color="#ECEFF1"/>
<stop offset="1" stop-color="white"/>
</linearGradient>
<linearGradient id="paint24_linear_4405_323" x1="145.609" y1="9.8618" x2="129.04" y2="26.3986" gradientUnits="userSpaceOnUse">
<stop stop-color="white"/>
<stop offset="1" stop-color="#ECEFF1"/>
</linearGradient>
<linearGradient id="paint25_linear_4405_323" x1="253.158" y1="194.058" x2="85.3766" y2="159.125" gradientUnits="userSpaceOnUse">
<stop stop-color="white"/>
<stop offset="1" stop-color="#ECEFF1"/>
</linearGradient>
</defs>
</svg>
