<svg width="359" height="538" viewBox="0 0 359 538" fill="none" xmlns="http://www.w3.org/2000/svg">
<path d="M83.562 394.097V520.451C83.562 520.451 111.21 537.272 179.221 537.272C243.304 537.272 274.881 520.451 274.881 520.451V394.097C274.881 394.097 236.61 410.918 179.221 410.918C121.833 410.918 83.562 394.097 83.562 394.097Z" fill="url(#paint0_linear_4405_145)"/>
<path d="M179.239 414.29C232.071 414.29 274.899 405.11 274.899 393.787C274.899 382.463 232.071 373.284 179.239 373.284C126.408 373.284 83.5801 382.463 83.5801 393.787C83.5801 405.11 126.408 414.29 179.239 414.29Z" fill="url(#paint1_linear_4405_145)"/>
<path d="M257.91 228.668V214.744C281.484 214.744 300.674 207.381 314.971 192.856C338.199 169.237 343.037 132.732 344.038 117.66H305.439C302.22 133.133 288.505 144.797 272.134 144.797V130.873C283.23 130.873 292.27 121.815 292.27 110.698V103.736H358.08L358.171 110.588C358.208 112.921 358.608 168.307 324.848 202.625C307.859 219.902 285.322 228.65 257.91 228.65V228.668Z" fill="url(#paint2_linear_4405_145)"/>
<path d="M100.551 228.668C73.1212 228.668 50.6025 219.902 33.6133 202.643C-0.146673 168.325 0.253485 112.958 0.289864 110.607L0.38079 103.754H66.191V110.716C66.191 121.833 75.213 130.891 86.3269 130.891V144.815C69.938 144.815 56.2412 133.151 53.0217 117.678H14.4414C15.46 132.768 20.3531 169.4 43.5449 192.929C57.8237 207.418 76.9956 214.762 100.551 214.762V228.686V228.668Z" fill="url(#paint3_linear_4405_145)"/>
<g style="mix-blend-mode:multiply">
<path opacity="0.53" d="M358.171 110.607C358.171 110.388 358.117 110.206 358.099 109.987C357.607 123.783 353.715 168.526 324.848 197.868C307.859 215.145 285.322 223.893 257.91 223.893V228.65C285.34 228.65 307.859 219.884 324.848 202.625C358.608 168.307 358.208 112.94 358.171 110.588V110.607Z" fill="url(#paint4_linear_4405_145)"/>
</g>
<path style="mix-blend-mode:multiply" opacity="0.53" d="M0.344328 109.987C0.326138 110.188 0.271554 110.388 0.271554 110.607C0.235174 112.94 -0.164983 168.325 33.595 202.643C50.5842 219.92 73.1212 228.668 100.533 228.668V223.912C73.103 223.912 50.5842 215.145 33.595 197.886C4.72803 168.544 0.835449 123.802 0.344328 110.005V109.987Z" fill="url(#paint5_linear_4405_145)"/>
<path d="M120.851 373.338V390.379C120.851 390.379 137.713 400.639 179.221 400.639C218.329 400.639 237.592 390.379 237.592 390.379V373.338C237.592 373.338 214.237 383.599 179.221 383.599C144.206 383.599 120.851 373.338 120.851 373.338Z" fill="url(#paint6_linear_4405_145)"/>
<path d="M237.61 373.156C237.61 380.063 211.472 385.659 179.24 385.659C147.008 385.659 120.869 380.063 120.869 373.156C120.869 366.249 147.008 360.654 179.24 360.654C211.472 360.654 237.61 366.249 237.61 373.156Z" fill="url(#paint7_linear_4405_145)"/>
<path style="mix-blend-mode:multiply" opacity="0.45" d="M237.61 373.156C237.61 380.063 211.472 385.659 179.24 385.659C147.008 385.659 120.869 380.063 120.869 373.156C120.869 366.249 147.008 360.654 179.24 360.654C211.472 360.654 237.61 366.249 237.61 373.156Z" fill="url(#paint8_linear_4405_145)"/>
<path d="M198.739 328.742V290.305L179.221 292.292L159.704 290.305V328.742C159.704 346.967 151.773 354.585 141.187 359.232V371.826C141.187 371.826 156.393 377.129 179.221 377.129C202.049 377.129 217.256 371.826 217.256 371.826V359.232C206.67 354.585 198.739 346.967 198.739 328.742Z" fill="url(#paint9_linear_4405_145)"/>
<path d="M150.464 299.29C159.577 302.06 169.235 303.573 179.24 303.573C189.244 303.573 198.903 302.078 208.016 299.29V216.749H150.464V299.29Z" fill="url(#paint10_linear_4405_145)"/>
<path d="M80.3425 94.8057H278.119V193.221C278.119 247.896 233.809 292.292 179.24 292.292C124.671 292.292 80.3607 247.896 80.3607 193.221V94.8057H80.3425Z" fill="url(#paint11_linear_4405_145)"/>
<path style="mix-blend-mode:multiply" opacity="0.45" d="M237.61 94.8057V174.668C237.61 229.379 193.337 273.739 138.731 273.739C131.965 273.739 125.38 273.046 118.996 271.752C135.676 284.619 156.557 292.292 179.24 292.292C233.845 292.292 278.119 247.932 278.119 193.221V94.8057H237.61Z" fill="url(#paint12_linear_4405_145)"/>
<path d="M277.646 94.8056C262.639 86.2763 224.241 80.2256 179.24 80.2256C134.238 80.2256 95.84 86.2945 80.8336 94.8056H74.0852V102.752C74.0852 115.199 121.178 125.296 179.258 125.296C237.337 125.296 284.43 115.199 284.43 102.752V94.8056H277.682H277.646Z" fill="url(#paint13_linear_4405_145)"/>
<path d="M179.221 117.35C237.307 117.35 284.394 107.256 284.394 94.8056C284.394 82.3547 237.307 72.2612 179.221 72.2612C121.136 72.2612 74.0488 82.3547 74.0488 94.8056C74.0488 107.256 121.136 117.35 179.221 117.35Z" fill="url(#paint14_linear_4405_145)"/>
<path d="M179.221 110.716C231.279 110.716 273.48 103.593 273.48 94.8055C273.48 86.0184 231.279 78.895 179.221 78.895C127.164 78.895 84.9626 86.0184 84.9626 94.8055C84.9626 103.593 127.164 110.716 179.221 110.716Z" fill="url(#paint15_linear_4405_145)"/>
<path style="mix-blend-mode:multiply" opacity="0.45" d="M179.221 110.716C231.279 110.716 273.48 103.593 273.48 94.8055C273.48 86.0184 231.279 78.895 179.221 78.895C127.164 78.895 84.9626 86.0184 84.9626 94.8055C84.9626 103.593 127.164 110.716 179.221 110.716Z" fill="url(#paint16_linear_4405_145)"/>
<path style="mix-blend-mode:multiply" opacity="0.65" d="M95.0398 101.95C110.556 107.144 142.424 110.716 179.24 110.716C216.056 110.716 247.924 107.144 263.44 101.95C247.924 96.7557 216.056 93.1836 179.24 93.1836C142.424 93.1836 110.556 96.7557 95.0398 101.95Z" fill="url(#paint17_linear_4405_145)"/>
<path d="M191.357 0H214.64L236.741 26.1347L178.879 100.474L200.398 26.1347L191.357 0Z" fill="url(#paint18_linear_4405_145)"/>
<path d="M143.1 0H166.383L157.343 26.1347L178.879 100.474L121 26.1347L143.1 0Z" fill="url(#paint19_linear_4405_145)"/>
<path d="M236.741 26.1347L214.64 0H143.1L121 26.1347H236.741Z" fill="url(#paint20_linear_4405_145)"/>
<path d="M200.398 26.1347L191.358 0H166.383L157.343 26.1347H200.398Z" fill="url(#paint21_linear_4405_145)"/>
<path d="M178.861 100.475L200.398 26.1348H157.343L178.861 100.475Z" fill="url(#paint22_linear_4405_145)"/>
<defs>
<linearGradient id="paint0_linear_4405_145" x1="279.683" y1="465.684" x2="80.7972" y2="465.684" gradientUnits="userSpaceOnUse">
<stop stop-color="#CFD8DC"/>
<stop offset="1" stop-color="#ECEFF1"/>
</linearGradient>
<linearGradient id="paint1_linear_4405_145" x1="298.455" y1="420.742" x2="64.6735" y2="368.084" gradientUnits="userSpaceOnUse">
<stop stop-color="#CFD8DC"/>
<stop offset="1" stop-color="#99ACB5"/>
</linearGradient>
<linearGradient id="paint2_linear_4405_145" x1="308.041" y1="228.668" x2="308.041" y2="103.754" gradientUnits="userSpaceOnUse">
<stop stop-color="#FF6E40"/>
<stop offset="1" stop-color="#FFD740"/>
</linearGradient>
<linearGradient id="paint3_linear_4405_145" x1="50.4206" y1="-107" x2="50.4206" y2="-107" gradientUnits="userSpaceOnUse">
<stop stop-color="#FF6E40"/>
<stop offset="1" stop-color="#FFD740"/>
</linearGradient>
<linearGradient id="paint4_linear_4405_145" x1="308.041" y1="-107" x2="308.041" y2="109.987" gradientUnits="userSpaceOnUse">
<stop stop-color="#FF6E40"/>
<stop offset="1" stop-color="#FFD740"/>
</linearGradient>
<linearGradient id="paint5_linear_4405_145" x1="50.4205" y1="-107" x2="50.4205" y2="109.987" gradientUnits="userSpaceOnUse">
<stop stop-color="#FF6E40"/>
<stop offset="1" stop-color="#FFD740"/>
</linearGradient>
<linearGradient id="paint6_linear_4405_145" x1="240.539" y1="386.989" x2="119.159" y2="386.989" gradientUnits="userSpaceOnUse">
<stop stop-color="#FFB140"/>
<stop offset="1" stop-color="#FFD640"/>
</linearGradient>
<linearGradient id="paint7_linear_4405_145" x1="179.222" y1="434.374" x2="179.222" y2="346.912" gradientUnits="userSpaceOnUse">
<stop stop-color="#FFD740"/>
<stop offset="1" stop-color="#FF6E40"/>
</linearGradient>
<linearGradient id="paint8_linear_4405_145" x1="179.222" y1="434.374" x2="179.222" y2="346.912" gradientUnits="userSpaceOnUse">
<stop stop-color="#FF6E40"/>
<stop offset="1" stop-color="#FFD740"/>
</linearGradient>
<linearGradient id="paint9_linear_4405_145" x1="179.221" y1="288.136" x2="179.221" y2="389.905" gradientUnits="userSpaceOnUse">
<stop stop-color="#FF6E40"/>
<stop offset="1" stop-color="#FFD740"/>
</linearGradient>
<linearGradient id="paint10_linear_4405_145" x1="179.221" y1="472.646" x2="179.221" y2="169.127" gradientUnits="userSpaceOnUse">
<stop stop-color="#FF6E40"/>
<stop offset="1" stop-color="#FFD740"/>
</linearGradient>
<linearGradient id="paint11_linear_4405_145" x1="81.5612" y1="72.316" x2="272.139" y2="253.012" gradientUnits="userSpaceOnUse">
<stop stop-color="#FFD740"/>
<stop offset="1" stop-color="#FF6E40"/>
</linearGradient>
<linearGradient id="paint12_linear_4405_145" x1="118.977" y1="193.549" x2="278.119" y2="193.549" gradientUnits="userSpaceOnUse">
<stop stop-color="#FF6E40"/>
<stop offset="1" stop-color="#FFD740"/>
</linearGradient>
<linearGradient id="paint13_linear_4405_145" x1="74.067" y1="102.752" x2="284.394" y2="102.752" gradientUnits="userSpaceOnUse">
<stop stop-color="#FF6E40"/>
<stop offset="1" stop-color="#FFD740"/>
</linearGradient>
<linearGradient id="paint14_linear_4405_145" x1="282.029" y1="110.625" x2="91.0027" y2="81.3392" gradientUnits="userSpaceOnUse">
<stop stop-color="#FFB140"/>
<stop offset="1" stop-color="#FFD640"/>
</linearGradient>
<linearGradient id="paint15_linear_4405_145" x1="84.9808" y1="94.8054" x2="273.48" y2="94.8054" gradientUnits="userSpaceOnUse">
<stop stop-color="#FFD740"/>
<stop offset="1" stop-color="#FF6E40"/>
</linearGradient>
<linearGradient id="paint16_linear_4405_145" x1="84.9808" y1="94.8054" x2="273.48" y2="94.8054" gradientUnits="userSpaceOnUse">
<stop stop-color="#FF6E40"/>
<stop offset="1" stop-color="#FFD740"/>
</linearGradient>
<linearGradient id="paint17_linear_4405_145" x1="95.0398" y1="101.95" x2="263.421" y2="101.95" gradientUnits="userSpaceOnUse">
<stop stop-color="#FF6E40"/>
<stop offset="1" stop-color="#FFD740"/>
</linearGradient>
<linearGradient id="paint18_linear_4405_145" x1="187.119" y1="100.748" x2="207.619" y2="34.2854" gradientUnits="userSpaceOnUse">
<stop stop-color="white"/>
<stop offset="1" stop-color="#ECEFF1"/>
</linearGradient>
<linearGradient id="paint19_linear_4405_145" x1="92.7696" y1="12.0285" x2="175.356" y2="51.3792" gradientUnits="userSpaceOnUse">
<stop stop-color="#ECEFF1"/>
<stop offset="1" stop-color="white"/>
</linearGradient>
<linearGradient id="paint20_linear_4405_145" x1="127.93" y1="32.9508" x2="218.911" y2="3.89334" gradientUnits="userSpaceOnUse">
<stop stop-color="#ECEFF1"/>
<stop offset="1" stop-color="white"/>
</linearGradient>
<linearGradient id="paint21_linear_4405_145" x1="193.904" y1="2.5515" x2="163.797" y2="32.5825" gradientUnits="userSpaceOnUse">
<stop stop-color="#ECEFF1"/>
<stop offset="1" stop-color="white"/>
</linearGradient>
<linearGradient id="paint22_linear_4405_145" x1="202.799" y1="28.5405" x2="154.849" y2="76.3974" gradientUnits="userSpaceOnUse">
<stop stop-color="white"/>
<stop offset="1" stop-color="#ECEFF1"/>
</linearGradient>
</defs>
</svg>
