<svg width="15" height="15" viewBox="0 0 15 15" fill="none" xmlns="http://www.w3.org/2000/svg">
<path d="M4.29405 8.75001C4.05286 8.75001 3.90259 8.48839 4.02412 8.28008L7.54254 2.24846C7.70329 1.97294 8.12498 2.08695 8.12498 2.40593V5.93752C8.12498 6.1101 8.26491 6.25001 8.43748 6.25001H10.7059C10.9471 6.25001 11.0974 6.51164 10.9759 6.71995L7.45741 12.7516C7.29666 13.0271 6.87498 12.9131 6.87498 12.5941V9.06251C6.87498 8.88995 6.73504 8.75001 6.56248 8.75001H4.29405Z" fill="#FFC800"/>
<path fill-rule="evenodd" clip-rule="evenodd" d="M8.28813 0.646654C8.56069 0.720348 8.75 0.967635 8.75 1.25V5.3125C8.75 5.48509 8.88994 5.625 9.0625 5.625H11.25C11.4738 5.625 11.6805 5.74465 11.7919 5.93871C11.9034 6.13277 11.9026 6.37162 11.7899 6.56494L7.41488 14.0649C7.27256 14.3088 6.98444 14.427 6.71188 14.3533C6.43931 14.2796 6.25 14.0324 6.25 13.75V9.6875C6.25 9.51494 6.11009 9.375 5.9375 9.375H3.75C3.52621 9.375 3.3195 9.25537 3.20804 9.06131C3.09658 8.86725 3.09738 8.62837 3.21014 8.43506L7.58513 0.935079C7.72744 0.691179 8.01556 0.572966 8.28813 0.646654ZM5.11229 7.65506C4.99076 7.86337 5.14104 8.125 5.38223 8.125H6.875C7.22019 8.125 7.5 8.40481 7.5 8.75V10.2822C7.5 10.6012 7.92169 10.7152 8.08244 10.4397L9.88769 7.34494C10.0093 7.13662 9.85894 6.875 9.61775 6.875H8.125C7.77981 6.875 7.5 6.59519 7.5 6.25V4.71774C7.5 4.39875 7.07831 4.28475 6.91756 4.56027L5.11229 7.65506Z" fill="#FFC800"/>
</svg>
