<svg width="15" height="15" viewBox="0 0 15 15" fill="none" xmlns="http://www.w3.org/2000/svg">
<g clip-path="url(#clip0_2415_2632)">
<path d="M12.4714 6.30069H11.5869V4.08687C11.5869 1.83334 9.75339 0 7.50001 0C5.24647 0 3.41313 1.83334 3.41313 4.08687V6.30069H2.52866C2.35736 6.30069 2.21832 6.43972 2.21832 6.61103V14.6897C2.21832 14.861 2.35736 15 2.52866 15H12.4714C12.6427 15 12.7817 14.861 12.7817 14.6897V6.61103C12.7817 6.43957 12.643 6.30069 12.4714 6.30069ZM6.82098 11.5136C6.61895 11.3246 6.50754 11.0681 6.50754 10.7912C6.50754 10.244 6.95272 9.79869 7.50001 9.79869C8.04714 9.79869 8.49248 10.2439 8.49248 10.7912C8.49248 11.0681 8.38122 11.3246 8.17903 11.5136C8.11635 11.5723 8.08066 11.6544 8.08066 11.7403V12.7927C8.08066 13.1128 7.82012 13.3734 7.49985 13.3734C7.17958 13.3734 6.91905 13.1128 6.91905 12.7927V11.7403C6.91921 11.6544 6.88367 11.5723 6.82098 11.5136ZM7.50001 2.20295C8.53872 2.20295 9.38378 3.04801 9.38378 4.08687V6.30069H5.61624V4.08687C5.61624 3.04816 6.4613 2.20295 7.50001 2.20295Z" fill="#AAAAAA"/>
</g>
<defs>
<clipPath id="clip0_2415_2632">
<rect width="15" height="15" fill="white"/>
</clipPath>
</defs>
</svg>
