<svg width="520" height="520" viewBox="0 0 520 520" fill="none" xmlns="http://www.w3.org/2000/svg">
<g clip-path="url(#clip0_1_1872)">
<path d="M443.995 230.35C428.454 217.561 408.936 210.595 388.808 210.654C385.107 210.659 381.408 210.885 377.734 211.332C364.249 213.027 351.341 217.826 340.023 225.35L340.164 224.229C343.419 222.827 346.854 221.184 350.467 219.299C352.29 218.341 354.135 217.36 355.981 216.308C357.827 215.257 359.673 214.229 361.495 213.131C367.734 209.416 374.042 205.28 379.743 201.168C381.355 200 382.921 198.832 384.416 197.687C385.911 196.542 387.383 195.35 388.738 194.252C390.093 193.154 391.472 191.916 392.687 190.911C394.626 189.159 396.355 187.5 397.78 185.981C398.804 184.903 399.772 183.772 400.678 182.593C401.644 181.357 402.496 180.035 403.224 178.645C403.67 177.81 404.052 176.943 404.369 176.051C412.15 153.551 371.659 126.495 363.388 121.285C348.855 112.079 330.678 101.355 325.327 98.2477C324.065 96.986 322.757 95.7243 321.402 94.5094C313.051 87.1013 303.766 80.8175 293.785 75.8178C292.009 74.9065 290.234 74.0654 288.528 73.2477L285.701 71.9626C284.276 70.3037 281.308 66.0514 277.453 56.3318C276.472 53.9953 275.514 51.215 274.556 48.4112C273.598 45.6075 272.617 42.4766 271.682 39.2757C269.696 32.7103 267.967 25.5607 266.215 17.9439C265.168 12.1117 261.891 6.91629 257.079 3.45794C255.991 2.69037 254.824 2.04032 253.598 1.51869C252.455 1.02623 251.265 0.650493 250.047 0.397196C248.786 0.136867 247.502 0.00380024 246.215 0C245.205 0.00231972 244.197 0.0882833 243.201 0.257009L242.64 0.373832C241.104 0.662881 239.637 1.24172 238.318 2.07944L237.944 2.31308C223.695 11.7447 211.32 23.7391 201.449 37.6869C193.151 49.3199 186.102 61.7954 180.421 74.9065C179.439 77.243 178.505 79.3925 177.64 81.5421C177.36 82.2664 177.079 82.9673 176.776 83.6916C175.958 85.8178 175.164 87.8972 174.439 89.9065C173.528 92.4533 172.64 95.0234 171.822 97.5467C171.238 99.3458 170.701 101.075 170.21 102.71C169.556 104.883 168.972 106.916 168.481 108.715C168.248 109.626 168.014 110.491 167.804 111.285L166.893 114.486C166.519 116.051 166.238 117.29 166.075 118.084C163.452 122.053 161.05 126.164 158.879 130.397C157.944 132.22 157.056 134.042 156.238 135.888C155.864 133.832 155.514 131.682 155.164 129.486C154.652 124.674 154.558 119.828 154.883 115C155.205 109.551 155.143 104.085 154.696 98.6449C154.022 91.6235 151.319 84.9501 146.916 79.4393C145.329 77.1858 143.273 75.3027 140.89 73.9193C138.506 72.5359 135.851 71.685 133.107 71.4252C132.179 71.2855 131.242 71.2153 130.304 71.215C124.419 71.3288 118.811 73.7347 114.673 77.9206C112.747 79.4751 111 81.2382 109.463 83.1776C102.647 92.0644 97.9701 102.402 95.7944 113.388C92.8296 124.911 91.3766 136.77 91.472 148.668V149.836C91.472 162.009 91.472 174.579 94.229 187.547C94.5093 188.855 94.8131 190.164 95.0934 191.472C95.2804 192.313 95.4439 193.131 95.6308 193.949C93.1308 196.729 90.7243 199.579 88.4813 202.453L88.3411 202.64C87.4065 203.832 86.4953 204.977 85.5841 206.332L85.2804 206.729C84.4392 207.874 83.6448 209.065 82.9439 210.21L82.4065 211.005C81.6589 212.126 80.9112 213.341 80.0701 214.463C80.0701 214.463 79.5794 215.187 79.4392 215.444C78.5514 216.869 77.6635 218.318 76.7991 219.836V220.023C72.3198 227.787 68.5056 235.916 65.3972 244.322C64.7663 246.028 64.1822 247.734 63.5981 249.463C60.1581 260.118 57.71 271.068 56.285 282.173C56.0514 284.065 55.8177 285.981 55.6308 287.897C55.2336 291.729 54.9533 295.654 54.7663 299.579C54.5794 303.505 54.5093 307.5 54.5093 311.565C54.6236 324.18 55.6072 336.773 57.4533 349.252C57.7804 351.425 58.1075 353.598 58.4813 355.794C59.2056 360.164 60.0234 364.65 60.9579 369.112C63.9112 383.208 67.5843 397.144 71.9626 410.865C72.1173 411.333 72.2967 411.793 72.5 412.243C74.2426 417.569 76.4391 422.736 79.0654 427.687C82.8972 434.953 86.472 442.15 89.7897 448.879C58.0374 455.748 43.6682 465.421 43.6682 479.556C43.6682 494.743 60.0234 504.673 96.7757 511.682C125.14 517.079 162.687 520.047 202.523 520.047C242.36 520.047 279.907 517.079 308.271 511.682C345.07 504.673 361.425 494.743 361.425 479.556C361.425 463.668 342.173 456.822 335.841 454.556C322.348 450.149 308.471 447.02 294.393 445.21C293.972 444.439 293.551 443.668 293.107 442.874C306.34 434.578 318.249 424.339 328.435 412.5C338.668 400.491 345.771 387.85 348.692 376.636C360.98 382.94 374.6 386.209 388.411 386.168C392.122 386.167 395.828 385.933 399.509 385.467C416.577 383.352 432.647 376.267 445.721 365.093C458.794 353.918 468.296 339.148 473.043 322.618C477.791 306.088 477.575 288.527 472.423 272.118C467.271 255.709 457.41 241.177 444.065 230.327L443.995 230.35Z" fill="white"/>
<path d="M202.523 507.36C283.276 507.36 348.738 494.912 348.738 479.556C348.738 464.2 283.276 451.752 202.523 451.752C121.771 451.752 56.3083 464.2 56.3083 479.556C56.3083 494.912 121.771 507.36 202.523 507.36Z" fill="#8D8D8D"/>
<path d="M356.542 131.916C340.561 121.776 319.836 109.65 317.407 108.248C305.724 96.0047 290.491 87.757 278.481 82.5467C270.047 75.6776 260.958 52.5467 253.949 20.6542C252.383 13.4579 247.71 12.3131 245.467 12.7103H245.14L244.86 12.8972C217.78 30.3738 201.122 58.9953 191.893 80C185.956 93.4352 181.378 107.43 178.224 121.776C178.153 122.059 178.153 122.356 178.224 122.64C173.201 129.818 169.014 137.548 165.748 145.678C162.49 149.724 158.765 153.371 154.65 156.542C153.506 157.356 152.545 158.4 151.829 159.607C151.113 160.814 150.657 162.158 150.491 163.551C149.743 161.682 148.925 159.813 148.154 157.897C146.456 153.491 144.989 148.999 143.762 144.439C142.378 140.08 141.592 135.552 141.425 130.981C141.425 126.051 141.729 121.285 141.729 116.379C142.085 111.584 142.007 106.767 141.495 101.986C141.004 97.8965 139.999 93.8852 138.505 90.0467C136.449 85.9579 133.972 83.0374 129.159 84.2056C125.249 85.401 121.8 87.7657 119.276 90.9813C106.752 107.033 105.958 126.916 104.977 146.636C104.782 156.123 105.376 165.611 106.752 175C107.313 180 107.874 184.953 108.622 189.93C108.949 192.009 109.603 194.603 110.047 197.126C101.333 205.77 93.8198 215.546 87.7103 226.192C61.6589 271.706 60.4439 332.547 84.0654 406.986C84.1055 407.151 84.1857 407.303 84.2991 407.43C85.8606 412.384 87.8705 417.186 90.3037 421.776C95.6776 431.939 100.514 441.916 104.79 450.701C117.033 476.028 125.935 494.322 137.126 497.664C139.142 498.201 141.25 498.298 143.306 497.947C145.362 497.596 147.319 496.806 149.042 495.631C150.339 494.853 151.462 493.817 152.342 492.587C153.222 491.357 153.841 489.96 154.159 488.481C156.495 478.645 147.804 464.743 147.43 464.159C147.056 463.575 129.369 434.182 139.626 420.888C143.486 415.604 149.102 411.868 155.467 410.35C161 419.147 167.947 426.97 176.028 433.505C184.81 440.851 195.095 446.183 206.159 449.126C217.224 452.069 228.799 452.551 240.07 450.537C240.307 450.497 240.532 450.401 240.724 450.257C242.477 451.706 244.439 453.201 246.542 454.673C250.12 457.575 253.316 460.919 256.051 464.626C263.061 473.364 271.285 483.318 281.752 476.308C283.205 475.423 284.464 474.252 285.452 472.867C286.439 471.481 287.136 469.91 287.5 468.248C287.5 468.248 287.5 468.084 287.5 467.991C288.995 459.766 282.453 449.299 274.93 438.551C291.544 430.076 306.358 418.46 318.551 404.346C328.271 392.944 334.72 381.192 336.706 371.425C336.973 370.121 337.168 368.803 337.29 367.477C337.827 360.467 335.771 355.28 331.308 352.103C324.65 347.43 318.014 345.724 311.636 347.313C302.477 349.65 293.995 358.224 286.425 373.014C279.329 386.837 269.561 399.114 257.687 409.135C256.425 405.257 255.35 401.215 254.276 396.425C253.201 391.635 251.706 385.864 249.603 378.925C246.449 368.107 240.257 358.972 234.79 350.888C230.421 344.439 226.238 338.318 224.346 332.313C226.682 327.78 231.355 317.991 235.771 308.154C237.364 310.254 239.105 312.238 240.981 314.089C241.916 315 242.897 315.911 243.902 316.799C245.444 318.154 247.103 319.463 248.855 320.748C253.829 324.517 259.56 327.165 265.654 328.508C271.749 329.851 278.062 329.858 284.159 328.528C291.005 326.963 296.495 323.645 298.481 319.907C299.011 318.985 299.324 317.955 299.397 316.894C299.47 315.834 299.301 314.77 298.902 313.785C296.822 308.435 288.551 305.327 287.757 305.047C278.879 301.285 273.318 296.402 271.005 290.584C268.692 284.766 273.341 264.416 273.762 262.336C273.929 261.167 274.235 260.022 274.673 258.925C282.809 259.983 291.07 259.531 299.042 257.593C300.117 257.313 301.168 257.009 302.196 256.659C304.068 256.117 305.902 255.453 307.687 254.673C311.4 252.938 314.821 250.636 317.827 247.85C318.832 246.893 319.72 245.958 320.467 245.093C321.984 243.393 323.243 241.481 324.206 239.416C324.696 237.664 328.879 222.243 327.547 216.402C327.51 216.154 327.51 215.902 327.547 215.654C350.911 207.897 389.136 181.121 392.29 172.033C395.818 161.846 370.771 140.911 356.542 131.916ZM188.855 413.061L193.902 413.902C204.299 415.584 212.593 416.916 221.168 427.056C209.556 427.734 198.715 423.037 188.855 413.061Z" fill="#634F66"/>
<path d="M219.79 35.9346C219.79 35.9346 240.14 18.5981 241.986 23.5748C243.832 28.5514 230.14 55.0467 230.14 55.0467L218.201 90.0935C218.201 90.0935 201.425 99.4393 196.542 104.696C191.659 109.953 180.748 120.584 180.748 120.584C180.748 120.584 192.103 70.0935 214.229 44.3925L219.79 35.9346Z" fill="#F39A86"/>
<path d="M241.495 178.131C236.238 188.785 235.865 206.706 248.879 212.617C268.622 221.519 280.07 206.355 283.715 198.995C288.949 188.364 287.266 174.019 274.369 167.687C268.595 164.884 261.965 164.405 255.848 166.348C249.731 168.292 244.593 172.509 241.495 178.131Z" fill="#C9C9C9"/>
<path d="M340.023 166.121C340.023 166.121 390.701 157.593 384.416 172.547C378.131 187.5 335.981 211.098 326.378 213.294C326.378 213.294 339.93 179.626 339.486 167.477L340.023 166.121Z" fill="#F39A86"/>
<path d="M261.519 177.57C261.519 177.57 254.509 198.037 257.92 199.533C262.874 201.636 271.121 183.435 271.939 182.009C270.948 181.554 270.129 180.792 269.603 179.836C269.224 178.876 268.771 177.946 268.248 177.056C268.248 177.056 263.691 178.925 261.519 177.57Z" fill="#B55D47"/>
<path d="M236.752 135.514C232.617 143.248 233.621 151.869 239.089 154.72C244.556 157.57 252.196 153.668 256.332 145.935C260.467 138.201 259.439 129.579 253.995 126.729C248.551 123.879 240.864 127.78 236.752 135.514Z" fill="#222323"/>
<path d="M256.519 136.869C256.09 137.621 255.449 138.23 254.675 138.618C253.902 139.007 253.031 139.158 252.172 139.054C251.312 138.949 250.503 138.593 249.846 138.03C249.188 137.467 248.712 136.722 248.476 135.889C248.241 135.057 248.256 134.173 248.521 133.349C248.786 132.525 249.289 131.797 249.966 131.258C250.643 130.719 251.464 130.391 252.326 130.317C253.189 130.243 254.054 130.425 254.813 130.841C255.823 131.429 256.565 132.386 256.884 133.511C257.202 134.635 257.071 135.839 256.519 136.869Z" fill="white"/>
<path d="M249.276 146.145C248.677 147.151 247.797 147.959 246.743 148.47C245.69 148.98 244.51 149.17 243.349 149.016C242.189 148.863 241.099 148.372 240.215 147.605C239.331 146.837 238.691 145.828 238.376 144.7C238.06 143.573 238.082 142.378 238.439 141.263C238.796 140.148 239.472 139.163 240.384 138.429C241.295 137.694 242.402 137.244 243.568 137.133C244.733 137.022 245.905 137.255 246.939 137.804C247.643 138.195 248.262 138.723 248.761 139.355C249.26 139.987 249.629 140.712 249.846 141.487C250.063 142.263 250.125 143.074 250.027 143.873C249.929 144.673 249.674 145.445 249.276 146.145Z" fill="white"/>
<path d="M303.014 169.159C299.626 177.243 301.472 185.701 307.103 188.061C312.734 190.421 320.047 185.724 323.458 177.664C326.869 169.603 324.906 161.215 319.369 158.879C313.832 156.542 306.308 161.051 303.014 169.159Z" fill="#222323"/>
<path d="M322.757 168.621C322.39 169.396 321.804 170.047 321.072 170.493C320.34 170.939 319.493 171.16 318.637 171.131C317.78 171.102 316.95 170.822 316.251 170.327C315.551 169.832 315.011 169.143 314.698 168.345C314.385 167.547 314.312 166.674 314.489 165.836C314.666 164.997 315.084 164.228 315.693 163.624C316.301 163.02 317.073 162.607 317.913 162.437C318.753 162.266 319.625 162.345 320.421 162.664C321.519 163.145 322.382 164.043 322.82 165.16C323.258 166.277 323.235 167.521 322.757 168.621Z" fill="white"/>
<path d="M316.519 178.528C316.032 179.601 315.239 180.506 314.24 181.129C313.241 181.753 312.08 182.068 310.902 182.035C309.725 182.001 308.584 181.621 307.622 180.941C306.659 180.262 305.919 179.313 305.494 178.215C305.069 177.117 304.978 175.917 305.231 174.767C305.485 173.617 306.073 172.567 306.921 171.749C307.769 170.932 308.84 170.383 309.998 170.172C311.157 169.96 312.352 170.096 313.434 170.561C314.882 171.229 316.012 172.434 316.588 173.921C317.163 175.407 317.138 177.059 316.519 178.528Z" fill="white"/>
<path d="M217.921 91.986C217.514 91.8153 217.191 91.492 217.021 91.0857C216.851 90.6794 216.846 90.2225 217.009 89.8131C217.173 89.3458 235.187 41.2617 239.439 31.1682C241.776 25.8411 240.841 24.6729 240.841 24.6729H240.421C240.21 24.7241 239.991 24.7318 239.778 24.6953C239.564 24.6589 239.36 24.5791 239.178 24.4609C238.997 24.3427 238.841 24.1886 238.721 24.0081C238.601 23.8276 238.52 23.6245 238.481 23.4112C238.394 22.9726 238.476 22.5172 238.709 22.136C238.943 21.7549 239.312 21.476 239.743 21.3551C240.399 21.1955 241.087 21.2201 241.73 21.4262C242.373 21.6323 242.947 22.012 243.388 22.5234C244.836 24.3458 244.533 27.5234 242.43 32.5234C238.224 42.5467 220.234 90.5374 220.047 90.9346C219.976 91.1426 219.864 91.3344 219.719 91.4989C219.573 91.6635 219.396 91.7975 219.199 91.8931C219.001 91.9888 218.786 92.0442 218.567 92.0561C218.347 92.068 218.128 92.0363 217.921 91.9626V91.986Z" fill="#222323"/>
<path d="M269.463 168.505C268.972 169.533 269.86 171.005 271.472 171.799C273.084 172.593 274.79 172.407 275.304 171.378C275.818 170.35 274.906 168.878 273.294 168.084C271.682 167.29 269.977 167.477 269.463 168.505Z" fill="#222323"/>
<path d="M261.636 178.201C262.802 178.871 264.152 179.151 265.489 179C266.825 178.848 268.079 178.274 269.065 177.36C269.217 177.203 269.301 176.994 269.301 176.776C269.301 176.558 269.217 176.348 269.065 176.192C268.991 176.115 268.902 176.053 268.804 176.011C268.706 175.97 268.6 175.948 268.493 175.948C268.386 175.948 268.28 175.97 268.182 176.011C268.084 176.053 267.995 176.115 267.921 176.192C267.921 176.192 265.257 178.972 260.234 175.234C260.032 175.087 259.783 175.022 259.535 175.052C259.288 175.083 259.062 175.206 258.902 175.397C258.826 175.492 258.77 175.602 258.738 175.719C258.706 175.837 258.698 175.96 258.716 176.08C258.734 176.201 258.776 176.317 258.84 176.42C258.904 176.524 258.989 176.613 259.089 176.682C259.879 177.28 260.733 177.79 261.636 178.201Z" fill="#222323"/>
<path d="M257.57 200.514C257.766 200.575 257.976 200.571 258.169 200.504C258.362 200.437 258.529 200.309 258.645 200.14C258.708 200.055 258.753 199.957 258.775 199.853C258.798 199.75 258.798 199.642 258.776 199.538C258.754 199.434 258.71 199.336 258.647 199.251C258.584 199.165 258.504 199.094 258.411 199.042C254.65 196.916 262.547 178.411 262.57 178.341C262.615 178.236 262.638 178.122 262.637 178.007C262.637 177.893 262.613 177.779 262.567 177.674C262.521 177.569 262.454 177.475 262.37 177.397C262.286 177.318 262.187 177.258 262.079 177.22C261.856 177.127 261.606 177.126 261.382 177.218C261.159 177.31 260.981 177.487 260.888 177.71C260.888 178.014 252.36 197.734 257.453 200.467L257.57 200.514Z" fill="#222323"/>
<path d="M271.752 182.64C272.465 182.948 273.209 183.176 273.972 183.318C274.186 183.367 274.41 183.332 274.598 183.218C274.786 183.105 274.922 182.923 274.977 182.71C275.009 182.62 275.021 182.524 275.013 182.428C275.006 182.333 274.978 182.24 274.931 182.156C274.885 182.072 274.821 181.999 274.744 181.941C274.668 181.884 274.58 181.843 274.486 181.822C269.323 180.748 269.813 177.336 269.813 177.15C269.833 177.044 269.833 176.935 269.811 176.829C269.789 176.724 269.746 176.624 269.685 176.534C269.625 176.445 269.547 176.369 269.456 176.31C269.366 176.252 269.265 176.211 269.159 176.192C268.94 176.164 268.719 176.221 268.541 176.352C268.363 176.482 268.241 176.675 268.201 176.893C268.046 178.112 268.314 179.348 268.96 180.394C269.607 181.44 270.592 182.233 271.752 182.64Z" fill="#222323"/>
<path d="M258.107 200.701C263.341 201.706 272.126 183.014 272.36 182.78C272.464 182.607 272.495 182.399 272.447 182.202C272.399 182.005 272.275 181.835 272.103 181.729C271.913 181.647 271.699 181.639 271.503 181.709C271.308 181.778 271.147 181.919 271.051 182.103C271.051 182.103 262.64 199.953 258.621 199.112C258.4 199.073 258.171 199.115 257.978 199.231C257.785 199.347 257.64 199.529 257.57 199.743C257.525 199.84 257.504 199.947 257.508 200.054C257.512 200.161 257.541 200.266 257.594 200.359C257.646 200.453 257.72 200.533 257.81 200.592C257.899 200.651 258.001 200.689 258.107 200.701Z" fill="#222323"/>
<path d="M311.799 204.252C311.653 204.181 311.531 204.067 311.452 203.925C311.373 203.783 311.339 203.62 311.355 203.458C311.358 203.347 311.383 203.239 311.428 203.138C311.473 203.037 311.538 202.946 311.618 202.87C311.698 202.794 311.793 202.735 311.896 202.695C311.999 202.656 312.109 202.637 312.22 202.64C317.378 202.903 322.344 204.683 326.495 207.757C326.648 207.918 326.733 208.131 326.733 208.353C326.733 208.575 326.648 208.788 326.495 208.949C326.361 209.124 326.163 209.239 325.945 209.269C325.726 209.3 325.504 209.244 325.327 209.112C321.418 206.312 316.788 204.69 311.986 204.439C311.912 204.39 311.848 204.327 311.799 204.252Z" fill="#222323"/>
<path d="M321.706 217.079C321.565 217.018 321.45 216.911 321.379 216.776C318.85 212.972 315.506 209.779 311.589 207.43C311.401 207.314 311.267 207.129 311.215 206.915C311.162 206.701 311.196 206.475 311.308 206.285C311.413 206.092 311.588 205.947 311.798 205.882C312.007 205.816 312.234 205.835 312.43 205.935C316.591 208.414 320.131 211.81 322.78 215.864C322.894 216.058 322.929 216.287 322.876 216.505C322.824 216.723 322.689 216.912 322.5 217.033C322.383 217.107 322.248 217.151 322.109 217.159C321.97 217.167 321.831 217.14 321.706 217.079Z" fill="#222323"/>
<path d="M220.257 151.519C220.388 151.607 220.543 151.654 220.701 151.654C220.859 151.654 221.014 151.607 221.145 151.519C221.314 151.374 221.421 151.168 221.443 150.946C221.465 150.724 221.4 150.502 221.262 150.327C217.913 146.388 213.475 143.526 208.505 142.103C208.285 142.061 208.058 142.105 207.871 142.227C207.683 142.349 207.551 142.539 207.5 142.757C207.469 142.861 207.459 142.971 207.471 143.079C207.484 143.188 207.519 143.292 207.574 143.386C207.628 143.481 207.702 143.563 207.79 143.627C207.878 143.692 207.978 143.737 208.084 143.762C212.702 145.134 216.829 147.802 219.977 151.449C220.067 151.483 220.161 151.507 220.257 151.519Z" fill="#222323"/>
<path d="M204.019 151.472C204.163 151.518 204.318 151.518 204.463 151.472C209.017 151.16 213.583 151.87 217.827 153.551C218.035 153.63 218.265 153.625 218.47 153.538C218.674 153.451 218.837 153.288 218.925 153.084C218.972 152.985 218.998 152.877 219.002 152.767C219.005 152.658 218.987 152.548 218.948 152.446C218.909 152.343 218.849 152.25 218.773 152.171C218.697 152.092 218.606 152.029 218.505 151.986C214.017 150.174 209.172 149.423 204.346 149.79C204.125 149.824 203.925 149.938 203.783 150.11C203.64 150.283 203.566 150.501 203.575 150.724C203.574 150.878 203.614 151.028 203.693 151.16C203.771 151.292 203.884 151.4 204.019 151.472Z" fill="#222323"/>
<path d="M178.294 122.64C178.364 122.864 178.482 123.069 178.639 123.243C178.797 123.417 178.99 123.554 179.206 123.645H179.509C179.952 123.712 180.403 123.603 180.766 123.341C181.129 123.079 181.374 122.684 181.449 122.243C181.449 122.243 181.659 121.168 182.079 119.276C182.173 118.855 182.29 118.388 182.43 117.874C182.43 117.453 182.64 116.986 182.757 116.519C185.826 104.446 189.882 92.6464 194.883 81.2383C202.15 64.6729 214.136 43.2243 232.266 26.6822L233.364 25.7009C237.341 22.1536 241.573 18.9049 246.028 15.9813C246.963 15.9813 249.556 16.4486 250.701 21.472C253.692 35.0934 261.145 65.1402 271.495 79.8832C272.917 81.9785 274.623 83.8658 276.565 85.4906C276.736 85.6335 276.934 85.739 277.148 85.8003C277.362 85.8616 277.586 85.8773 277.806 85.8465C278.027 85.8157 278.238 85.739 278.427 85.6213C278.615 85.5037 278.777 85.3477 278.902 85.1635C279.17 84.8183 279.295 84.3834 279.251 83.9487C279.208 83.514 278.999 83.1125 278.668 82.8271C270.047 75.6776 260.958 52.5467 253.949 20.6542C252.383 13.4579 247.71 12.3131 245.467 12.7103H245.14L244.86 12.8972C217.78 30.3738 201.121 58.9953 191.893 80C185.956 93.4352 181.378 107.43 178.224 121.776C178.176 122.065 178.2 122.362 178.294 122.64Z" fill="#222323"/>
<path d="M257.991 79.1122C258.435 79.1122 302.57 90.4907 322.383 119.743C322.554 120.012 322.808 120.217 323.107 120.327C323.365 120.433 323.647 120.468 323.922 120.426C324.198 120.385 324.457 120.27 324.673 120.093C325.028 119.831 325.269 119.443 325.348 119.009C325.426 118.574 325.335 118.127 325.093 117.757C324.72 117.173 324.299 116.612 323.902 116.051C321.916 113.313 319.746 110.714 317.407 108.271C305.724 96.028 290.491 87.7804 278.481 82.5701C275.981 81.4953 273.621 80.5841 271.472 79.7664C267.343 78.1915 263.131 76.8421 258.855 75.7243C258.422 75.6327 257.97 75.7131 257.595 75.9485C257.22 76.184 256.951 76.556 256.846 76.986C256.778 77.2007 256.754 77.4268 256.775 77.6511C256.796 77.8753 256.862 78.093 256.968 78.2913C257.075 78.4896 257.221 78.6644 257.396 78.8054C257.572 78.9464 257.774 79.0507 257.991 79.1122Z" fill="#222323"/>
<path d="M315.491 111.075L323.902 116.028C331.963 120.701 344.369 128.224 354.766 134.72C374.206 147.056 391.285 164.86 389.276 170.724C388.131 173.995 378.738 182.243 366.589 190.701H366.402C354.8 199 342.251 205.887 329.019 211.215C328.294 211.495 327.57 211.752 326.869 211.963L325.935 212.266C325.669 212.353 325.429 212.502 325.233 212.701C325.038 212.9 324.894 213.144 324.813 213.411C324.72 213.732 324.72 214.072 324.813 214.393C324.864 214.603 324.957 214.8 325.088 214.972C325.219 215.145 325.383 215.288 325.572 215.393C325.761 215.499 325.97 215.564 326.185 215.585C326.4 215.605 326.617 215.581 326.822 215.514L327.71 215.234C351.075 207.477 389.299 180.701 392.453 171.612C395.911 161.589 370.841 140.654 356.636 131.659C340.654 121.519 319.93 109.393 317.5 107.991L317.266 107.85C317.072 107.729 316.853 107.65 316.626 107.619C316.399 107.588 316.168 107.605 315.947 107.669C315.727 107.732 315.522 107.842 315.347 107.99C315.172 108.138 315.03 108.321 314.93 108.528C314.775 108.724 314.665 108.951 314.609 109.195C314.553 109.438 314.552 109.691 314.606 109.935C314.659 110.178 314.766 110.407 314.92 110.604C315.073 110.802 315.268 110.962 315.491 111.075Z" fill="#222323"/>
<path d="M338.925 167.36C338.651 167.253 338.411 167.072 338.234 166.836C338.057 166.601 337.948 166.321 337.921 166.028C337.872 165.582 337.994 165.133 338.263 164.773C338.532 164.413 338.927 164.169 339.369 164.089C343.107 163.528 376.051 158.692 383.762 165.21C384.316 165.659 384.77 166.219 385.092 166.856C385.414 167.492 385.598 168.189 385.631 168.902C385.657 169.349 385.508 169.789 385.216 170.129C384.924 170.469 384.512 170.683 384.065 170.724C383.848 170.744 383.63 170.718 383.423 170.648C383.217 170.578 383.027 170.466 382.867 170.318C382.706 170.171 382.578 169.992 382.491 169.792C382.404 169.592 382.359 169.377 382.36 169.159C382.339 168.903 382.261 168.654 382.131 168.432C382.002 168.21 381.825 168.019 381.612 167.874C376.051 163.201 349.533 165.958 339.79 167.453C339.498 167.503 339.199 167.471 338.925 167.36Z" fill="#222323"/>
<path d="M151.145 168.435C151.5 169.507 151.93 170.553 152.43 171.565C152.944 172.64 153.505 173.668 154.019 174.626C154.992 176.195 155.777 177.873 156.355 179.626C157.757 184.007 159.771 188.168 162.336 191.986C162.897 192.85 163.481 193.762 164.112 194.696C167.184 199.182 170.59 203.431 174.299 207.407C176.636 210.327 179.276 213.154 181.869 215.818L184.206 218.154C186.051 219.93 187.921 221.635 189.836 223.201C189.987 223.34 190.161 223.45 190.35 223.528C190.722 223.673 191.13 223.697 191.516 223.596C191.902 223.496 192.247 223.275 192.5 222.967C192.662 222.778 192.785 222.559 192.861 222.322C192.938 222.084 192.966 221.834 192.944 221.586C192.922 221.338 192.851 221.097 192.735 220.877C192.618 220.656 192.459 220.462 192.266 220.304C186.768 215.817 181.685 210.844 177.079 205.444C164.79 192.313 160.164 181.449 159.509 178.692C158.873 176.658 157.986 174.712 156.869 172.897C153.668 167.056 151.939 162.944 156.589 159.182C161.071 155.822 165.1 151.895 168.575 147.5V147.336V147.15C175.647 130.175 186.461 115.016 200.21 102.804C200.444 102.601 200.622 102.343 200.728 102.053C200.835 101.763 200.865 101.45 200.818 101.145C200.792 100.991 200.745 100.841 200.678 100.701C200.632 100.603 200.577 100.509 200.514 100.421C200.384 100.242 200.218 100.092 200.026 99.9806C199.835 99.8696 199.623 99.7997 199.403 99.7755C199.183 99.7513 198.96 99.7733 198.749 99.8401C198.538 99.907 198.343 100.017 198.178 100.164C192.492 105.089 187.311 110.568 182.71 116.519L181.215 118.458L179.836 120.304C179.299 121.028 178.762 121.776 178.248 122.64C173.224 129.818 169.038 137.548 165.771 145.678C162.506 149.726 158.773 153.372 154.65 156.542C152.809 157.838 151.462 159.719 150.826 161.878C150.189 164.037 150.302 166.348 151.145 168.435Z" fill="#222323"/>
<path d="M266.378 257.687H266.635C267.921 257.991 270.093 258.411 271.752 258.645C272.52 258.808 273.304 258.879 274.089 258.855H274.486H275C283.136 259.913 291.397 259.461 299.369 257.523C300.444 257.243 301.495 256.939 302.523 256.589C304.282 256.057 306.007 255.417 307.687 254.673C311.4 252.938 314.821 250.636 317.827 247.85C318.832 246.893 319.72 245.958 320.467 245.093C321.983 243.393 323.243 241.481 324.206 239.416C324.696 237.664 328.878 222.243 327.547 216.402C327.51 216.154 327.51 215.902 327.547 215.654C327.779 214.683 328.083 213.73 328.458 212.804C328.458 212.43 328.715 212.033 328.878 211.636C329.322 210.421 329.86 209.112 330.374 207.78C334.065 198.435 339.883 183.598 341.051 167.407V166.098C341.051 165.397 341.051 164.696 341.051 163.995C341.791 150.115 337.604 136.42 329.229 125.327C329.102 125.144 328.936 124.99 328.744 124.876C328.552 124.763 328.337 124.693 328.115 124.671C327.892 124.648 327.668 124.675 327.457 124.748C327.246 124.821 327.053 124.939 326.892 125.093C326.565 125.378 326.353 125.774 326.297 126.204C326.241 126.635 326.345 127.071 326.589 127.43C347.617 154.813 333.738 189.766 327.126 206.565C325.841 209.836 324.953 212.126 324.463 213.808C324.041 214.893 323.897 216.065 324.042 217.22C325.023 221.449 322.079 233.808 320.794 238.411C319.591 240.748 318.012 242.871 316.121 244.696L315.093 245.701C312.325 248.245 309.17 250.335 305.748 251.893C298.949 255.047 288.458 257.453 273.037 255.467C271.145 255.093 269.229 254.696 267.173 254.206C266.716 254.125 266.245 254.214 265.848 254.455C265.451 254.696 265.155 255.073 265.015 255.515C264.875 255.958 264.901 256.436 265.087 256.862C265.273 257.287 265.608 257.63 266.028 257.827L266.378 257.687Z" fill="#222323"/>
<path d="M84.1589 407.266V407.43C85.7205 412.384 87.7304 417.186 90.1636 421.776C95.5374 431.939 100.374 441.916 104.65 450.701C117.033 476.028 125.935 494.322 137.126 497.664C139.142 498.201 141.25 498.298 143.306 497.947C145.362 497.596 147.319 496.806 149.042 495.631C150.339 494.853 151.462 493.817 152.342 492.587C153.222 491.357 153.841 489.96 154.159 488.481C156.495 478.645 147.804 464.743 147.43 464.159C147.056 463.575 129.369 434.182 139.626 420.888C143.486 415.604 149.102 411.868 155.467 410.351C156.608 410.086 157.763 409.883 158.925 409.743C167.115 409.089 175.357 409.84 183.294 411.963H183.808C185.537 412.36 187.173 412.687 188.762 412.967L193.808 413.808C204.206 415.491 212.5 416.822 221.075 426.963C221.869 427.921 222.687 428.925 223.411 430.023C225.453 432.826 227.333 435.744 229.042 438.762L229.182 438.972C231.741 442.038 234.538 444.897 237.547 447.523C238.505 448.388 239.533 449.276 240.631 450.164C242.383 451.612 244.346 453.107 246.449 454.579C250.027 457.481 253.222 460.826 255.958 464.533C262.967 473.271 271.192 483.224 281.659 476.215C283.112 475.329 284.37 474.159 285.358 472.773C286.346 471.388 287.043 469.816 287.407 468.154C287.407 468.154 287.407 467.991 287.407 467.897C288.902 459.673 282.36 449.206 274.837 438.458L272.897 435.794C272.243 434.836 271.542 433.902 270.865 432.967C269.813 431.495 268.738 430.023 267.71 428.551C263.984 423.525 260.943 418.025 258.668 412.196C258.294 411.168 257.921 410.14 257.594 409.112C256.332 405.234 255.257 401.192 254.182 396.402C253.108 391.612 251.612 385.841 249.509 378.902C246.355 368.084 240.164 358.949 234.696 350.865C230.327 344.416 226.145 338.294 224.252 332.29C224.089 331.752 223.925 331.238 223.808 330.724C223.705 330.344 223.47 330.013 223.144 329.79C222.819 329.567 222.425 329.468 222.033 329.509H221.822C221.615 329.558 221.42 329.648 221.248 329.775C221.076 329.901 220.931 330.06 220.822 330.243C220.713 330.426 220.642 330.629 220.613 330.84C220.585 331.052 220.598 331.266 220.654 331.472V331.893C221.057 333.331 221.549 334.743 222.126 336.122C224.979 342.011 228.415 347.6 232.383 352.804C237.967 361.028 243.738 369.533 246.776 379.86C248.785 386.729 250.14 392.29 251.332 397.196C254.322 409.603 256.308 417.78 265.351 430.467C266.379 431.939 267.453 433.411 268.528 434.883L271.332 438.808C278.925 449.416 285.841 459.977 284.486 467.336C284.236 468.622 283.715 469.838 282.958 470.906C282.2 471.974 281.224 472.868 280.094 473.528C272.64 478.551 266.729 472.453 258.622 462.617C255.705 458.657 252.28 455.099 248.435 452.033C242.332 447.794 236.79 442.802 231.939 437.173C230.082 433.843 228.014 430.636 225.748 427.57L225.514 427.266C215.351 414.112 205.911 412.57 194.439 410.724C191.332 410.21 188.131 409.696 184.65 408.902C172.967 406.285 164.977 405.584 158.037 406.565L156.192 406.893H156.051C148.462 408.385 141.708 412.67 137.126 418.902C125.444 433.949 143.972 464.579 144.766 465.865C144.766 466.028 153.084 479.182 151.098 487.734C150.881 488.797 150.442 489.802 149.81 490.684C149.178 491.565 148.367 492.304 147.43 492.851C146.091 493.799 144.559 494.441 142.944 494.732C141.329 495.023 139.67 494.955 138.084 494.533C128.154 491.612 119.089 472.944 107.57 449.276C103.294 440.467 98.4346 430.584 93.0374 420.257C90.6797 415.769 88.7325 411.077 87.2197 406.238C87.2197 406.075 87.1029 405.911 87.0561 405.771L84.1589 407.266Z" fill="#222323"/>
<path d="M217.617 342.523C217.806 342.623 218.014 342.683 218.227 342.7C218.44 342.717 218.655 342.691 218.858 342.624C219.06 342.556 219.248 342.448 219.408 342.307C219.568 342.165 219.698 341.992 219.79 341.799L222.594 336.308C223.294 334.953 223.972 333.645 224.626 332.43C226.963 327.897 231.636 318.107 236.051 308.271C236.565 307.103 237.103 305.935 237.617 304.79C243.014 292.944 247.967 281.939 248.575 280.958C248.832 280.537 248.995 280.327 248.995 280.304C249.117 280.129 249.196 279.93 249.229 279.72C249.298 279.404 249.27 279.074 249.149 278.774C249.028 278.474 248.82 278.217 248.551 278.037C248.369 277.911 248.162 277.823 247.944 277.778C247.727 277.733 247.502 277.733 247.284 277.776C247.066 277.82 246.859 277.907 246.676 278.032C246.492 278.157 246.335 278.318 246.215 278.505C246.215 278.505 245.561 279.486 244.533 281.192C242.827 283.972 226.332 322.126 222.337 329.65L221.051 331.986C219.743 334.486 218.318 337.243 216.822 340.257C216.717 340.456 216.654 340.675 216.637 340.9C216.62 341.125 216.65 341.351 216.724 341.564C216.799 341.777 216.917 341.972 217.07 342.137C217.224 342.302 217.41 342.434 217.617 342.523Z" fill="#222323"/>
<path d="M234.906 306.706C235.257 307.22 235.654 307.734 236.051 308.271C237.644 310.371 239.385 312.355 241.262 314.206C242.196 315.117 243.178 316.028 244.182 316.916C245.724 318.271 247.383 319.579 249.135 320.864C254.109 324.634 259.84 327.282 265.934 328.625C272.029 329.968 278.342 329.975 284.439 328.645C291.285 327.079 296.776 323.762 298.762 320.023C299.291 319.102 299.604 318.072 299.677 317.011C299.75 315.951 299.581 314.887 299.182 313.902C297.103 308.551 288.832 305.444 288.037 305.164C279.159 301.402 273.598 296.519 271.285 290.701C268.972 284.883 273.621 264.533 274.042 262.453C274.209 261.284 274.515 260.139 274.953 259.042C275.139 258.654 275.165 258.209 275.025 257.802C274.885 257.395 274.591 257.06 274.206 256.869C274.014 256.774 273.806 256.718 273.592 256.704C273.379 256.69 273.165 256.718 272.963 256.788C272.76 256.857 272.574 256.967 272.414 257.109C272.255 257.251 272.125 257.424 272.033 257.617C272.033 257.617 271.892 258.061 271.729 258.762C270.467 263.925 265.701 285.21 268.178 291.822C270.654 298.435 276.986 304.065 286.869 308.178C288.972 308.925 294.766 311.636 296.215 315.07C296.422 315.624 296.505 316.217 296.456 316.807C296.408 317.397 296.23 317.968 295.935 318.481C294.392 321.378 289.626 324.112 283.762 325.491C278.112 326.728 272.261 326.723 266.613 325.477C260.965 324.23 255.655 321.772 251.051 318.271C245.838 314.567 241.288 310.009 237.593 304.79C237.313 304.393 237.033 303.972 236.776 303.551L234.906 306.706Z" fill="#222323"/>
<path d="M248.154 248.551C248.088 248.22 247.92 247.917 247.672 247.686C247.425 247.456 247.111 247.309 246.776 247.266C238.505 246.145 225.958 240.935 216.893 236.752C216.7 236.662 216.49 236.611 216.278 236.603C216.065 236.594 215.852 236.627 215.652 236.701C215.452 236.775 215.269 236.888 215.113 237.033C214.957 237.178 214.831 237.353 214.743 237.547C214.566 237.941 214.551 238.389 214.699 238.795C214.847 239.2 215.148 239.532 215.537 239.72C224.883 243.972 237.664 249.322 246.332 250.491C246.759 250.544 247.19 250.426 247.531 250.164C247.872 249.902 248.096 249.515 248.154 249.089C248.178 248.91 248.178 248.73 248.154 248.551Z" fill="#222323"/>
<path d="M183.038 411.542L183.388 411.963C195.374 425.654 208.879 431.752 223.598 430.117L224.556 430C224.89 429.954 225.202 429.806 225.449 429.576C225.696 429.346 225.866 429.045 225.935 428.715C225.97 428.538 225.97 428.355 225.935 428.178C225.911 427.962 225.839 427.754 225.724 427.57L225.491 427.266C225.317 427.088 225.104 426.952 224.869 426.871C224.634 426.79 224.382 426.765 224.136 426.799C223.131 426.939 222.15 427.033 221.168 427.079C209.486 427.757 198.715 423.061 188.855 413.061C187.734 411.924 186.612 410.709 185.491 409.416C185.26 409.157 184.96 408.971 184.626 408.878C184.383 408.831 184.132 408.84 183.893 408.904C183.654 408.969 183.433 409.088 183.248 409.252C182.919 409.53 182.712 409.925 182.672 410.354C182.633 410.783 182.764 411.209 183.038 411.542Z" fill="#222323"/>
<path d="M257.43 411.729C257.615 411.95 257.855 412.118 258.126 412.217C258.396 412.315 258.688 412.34 258.972 412.29C259.247 412.237 259.504 412.116 259.72 411.939C272.04 401.58 282.175 388.872 289.533 374.556C296.542 360.537 304.416 352.453 312.617 350.444C318.038 349.112 323.762 350.444 329.626 354.72C333.154 357.243 334.72 361.425 334.299 367.196C332.757 386.332 309.019 417.827 273.248 435.864L272.033 436.472C271.84 436.564 271.667 436.694 271.525 436.854C271.383 437.013 271.274 437.2 271.204 437.402C271.134 437.604 271.106 437.818 271.12 438.031C271.134 438.245 271.19 438.453 271.285 438.645V438.855C271.508 439.175 271.837 439.405 272.214 439.503C272.591 439.602 272.991 439.563 273.341 439.393L275.07 438.528C291.685 430.052 306.499 418.436 318.692 404.322C328.411 392.921 334.86 381.168 336.846 371.402C337.114 370.098 337.309 368.779 337.43 367.453C337.967 360.444 335.911 355.257 331.449 352.079C324.79 347.407 318.154 345.701 311.776 347.29C302.617 349.626 294.136 358.201 286.566 372.991C279.47 386.814 269.702 399.091 257.827 409.112L257.57 409.322C257.395 409.466 257.251 409.644 257.147 409.846C257.044 410.048 256.984 410.269 256.971 410.495C256.958 410.721 256.992 410.948 257.071 411.16C257.15 411.373 257.272 411.566 257.43 411.729Z" fill="#222323"/>
<path d="M154.93 409.276C154.93 409.276 155.187 409.743 155.561 410.35C161.094 419.147 168.041 426.97 176.121 433.505C184.903 440.851 195.188 446.183 206.253 449.126C217.317 452.069 228.893 452.551 240.163 450.537C240.401 450.497 240.625 450.401 240.818 450.257C240.993 450.144 241.143 449.997 241.259 449.824C241.376 449.651 241.456 449.457 241.495 449.252C241.53 449.059 241.53 448.861 241.495 448.668C241.461 448.457 241.386 448.255 241.273 448.074C241.161 447.893 241.013 447.735 240.839 447.612C240.665 447.488 240.468 447.4 240.26 447.352C240.052 447.305 239.836 447.3 239.626 447.336L237.734 447.617C227.216 449.301 216.458 448.694 206.196 445.839C195.934 442.984 186.408 437.948 178.271 431.075C170.8 424.991 164.307 417.797 159.019 409.743C158.201 408.481 157.804 407.734 157.78 407.71C157.621 407.42 157.377 407.186 157.08 407.04C156.783 406.894 156.448 406.842 156.121 406.893H155.981L155.584 407.056C155.395 407.159 155.229 407.298 155.094 407.465C154.958 407.632 154.858 407.824 154.797 408.03C154.736 408.236 154.717 408.453 154.739 408.666C154.762 408.88 154.827 409.087 154.93 409.276Z" fill="#222323"/>
<path d="M109.299 197.78C100.872 206.266 93.5902 215.817 87.6402 226.192C61.5888 271.706 60.3739 332.547 83.9954 406.986C84.0354 407.151 84.1157 407.304 84.229 407.43C84.4274 407.733 84.7209 407.962 85.0634 408.08C85.406 408.199 85.7782 408.2 86.1215 408.084C86.4824 407.969 86.7941 407.736 87.0061 407.423C87.2181 407.109 87.318 406.733 87.2897 406.355C87.3121 406.232 87.3121 406.105 87.2897 405.981C63.9253 332.453 65.0935 272.547 90.6542 227.874C95.9824 218.567 102.415 209.937 109.813 202.173L109.299 197.78Z" fill="#222323"/>
<path d="M186.051 377.547C199.766 376.822 204.743 365.444 202.009 354.766C200.864 349.147 200.864 343.353 202.009 337.734C203.134 331.914 204.953 326.25 207.43 320.864C211.916 310.28 218.528 300.561 222.897 289.836C228.364 276.402 226.612 271.028 214.229 264.72C204.182 259.65 193.061 253.037 182.734 249.042C169.042 243.808 160.491 254.276 153.738 267.126C149.065 276.122 141.402 282.921 137.383 293.154C129.089 313.925 126.939 324.369 123.084 342.477C119.346 359.953 119.322 378.762 142.009 380.14C148.528 380.537 154.206 377.804 160.537 376.729C170.888 375.023 175.537 378.107 186.051 377.547Z" fill="#C9C9C9"/>
<path d="M313.995 288.925V289.883C312.205 305.415 315.302 321.119 322.853 334.808C330.405 348.498 342.037 359.493 356.13 366.264C370.223 373.034 386.075 375.242 401.482 372.582C416.889 369.921 431.083 362.524 442.089 351.42C453.095 340.315 460.366 326.056 462.889 310.627C465.412 295.197 463.063 279.364 456.168 265.332C449.272 251.3 438.174 239.767 424.418 232.337C410.662 224.907 394.931 221.95 379.416 223.879C360.168 226.202 342.576 235.911 330.35 250.958C326.768 255.351 323.688 260.132 321.168 265.21L320.748 266.098C320.512 266.566 320.16 266.966 319.727 267.26C319.294 267.554 318.793 267.733 318.271 267.78H317.29C317.079 267.78 301.682 268.551 291.238 269.182L312.991 286.051C313.392 286.403 313.696 286.852 313.872 287.356C314.048 287.859 314.091 288.4 313.995 288.925Z" fill="white" stroke="#30302F" stroke-width="6.90151" stroke-linecap="round" stroke-linejoin="round"/>
<path d="M110.537 212.15C110.073 212.15 109.627 211.965 109.298 211.636C108.97 211.308 108.785 210.862 108.785 210.397C108.546 203.204 107.52 196.058 105.724 189.089L104.883 185.164C102.383 173.318 102.36 161.799 102.36 149.72V148.528C102.36 133.762 104.696 106.215 120.304 87.6402C125.444 81.6355 130.117 81.472 132.991 82.3832C138.528 84.0888 143.014 91.2617 143.879 99.8365C144.291 104.779 144.377 109.743 144.136 114.696C143.771 120.149 143.904 125.623 144.533 131.051C146.119 143.346 149.259 155.389 153.879 166.893C153.974 167.107 154.026 167.338 154.031 167.573C154.036 167.807 153.993 168.041 153.906 168.259C153.819 168.477 153.689 168.675 153.523 168.841C153.358 169.008 153.161 169.14 152.944 169.229C152.732 169.329 152.501 169.384 152.267 169.392C152.032 169.4 151.799 169.36 151.58 169.275C151.361 169.19 151.163 169.061 150.995 168.896C150.828 168.732 150.696 168.535 150.608 168.318C145.891 156.544 142.695 144.218 141.098 131.636C140.367 125.95 140.171 120.208 140.514 114.486C140.795 109.699 140.748 104.898 140.374 100.117C139.673 93.1075 136.122 86.9626 131.963 85.6776C128.388 84.5561 125.117 87.3131 122.991 89.8365C108.061 107.57 105.865 134.229 105.865 148.458V149.65C105.865 161.589 105.865 173.014 108.318 184.369L109.089 188.341C110.949 195.516 112.023 202.873 112.29 210.28C112.296 210.511 112.256 210.741 112.172 210.956C112.088 211.172 111.961 211.368 111.8 211.533C111.639 211.699 111.446 211.83 111.233 211.92C111.021 212.01 110.792 212.056 110.561 212.056L110.537 212.15Z" fill="#222323"/>
<path d="M336.355 297.079C336.865 294.849 337.819 292.743 339.159 290.888C339.84 289.933 340.624 289.056 341.495 288.271C342.31 287.521 343.221 286.885 344.206 286.379C345.799 285.51 347.578 285.038 349.393 285C351.07 284.965 352.733 285.317 354.252 286.028C355.761 286.763 357.068 287.853 358.061 289.206C359.148 290.688 359.861 292.412 360.14 294.229C360.318 295.429 360.419 296.638 360.444 297.85C360.462 299.044 360.344 300.235 360.093 301.402C359.647 303.284 358.855 305.066 357.757 306.659C356.67 308.351 355.284 309.831 353.668 311.028C352.121 312.175 350.343 312.972 348.458 313.364C346.509 313.729 344.495 313.407 342.757 312.453C341.928 312.065 341.145 311.587 340.421 311.028C339.704 310.471 339.068 309.818 338.528 309.089C337.919 308.305 337.424 307.44 337.056 306.519C336.69 305.608 336.393 304.671 336.168 303.715C335.912 302.677 335.817 301.605 335.888 300.537C335.888 299.463 336.098 298.435 336.285 297.43L336.355 297.079ZM343.084 298.271C342.967 298.855 342.874 299.463 342.804 300.023C342.71 300.612 342.71 301.211 342.804 301.799C342.899 302.613 343.136 303.404 343.505 304.136C343.827 304.803 344.308 305.381 344.907 305.818C345.488 306.227 346.181 306.448 346.893 306.449C347.72 306.426 348.526 306.184 349.229 305.748C350.409 305.033 351.376 304.017 352.033 302.804C352.806 301.543 353.308 300.134 353.505 298.668C353.695 297.288 353.534 295.881 353.037 294.579C352.796 293.935 352.416 293.351 351.923 292.87C351.43 292.39 350.838 292.024 350.187 291.799C349.303 291.784 348.427 291.96 347.617 292.313C346.859 292.665 346.165 293.138 345.561 293.715C344.96 294.325 344.448 295.017 344.042 295.771C343.641 296.571 343.32 297.408 343.084 298.271Z" fill="#30302F"/>
<path d="M369.159 311.355C368.489 311.868 367.666 312.14 366.822 312.126C366.017 312.073 365.26 311.723 364.696 311.145C364.377 310.8 364.13 310.395 363.97 309.954C363.809 309.513 363.738 309.044 363.762 308.575V276.612C363.76 276.059 363.931 275.52 364.252 275.07C364.568 274.603 364.983 274.212 365.467 273.925C365.95 273.621 366.491 273.422 367.056 273.341C367.579 273.223 368.122 273.223 368.645 273.341C369.142 273.485 369.582 273.779 369.906 274.182C370.3 274.69 370.514 275.315 370.514 275.958C370.514 278.878 370.678 281.495 370.678 283.808C370.678 286.121 370.678 288.481 370.678 290.818C371.542 290.187 372.36 289.509 373.014 288.832C373.668 288.154 374.533 287.407 375.35 286.659C376.062 285.93 376.718 285.149 377.313 284.322C377.895 283.498 378.708 282.864 379.649 282.5C380.308 282.328 381 282.328 381.659 282.5C382.251 282.649 382.792 282.956 383.224 283.388C383.658 283.815 383.959 284.359 384.089 284.953C384.235 285.613 384.194 286.301 383.972 286.939C383.658 287.656 383.232 288.319 382.71 288.902C382.056 289.696 381.332 290.491 380.514 291.238C379.778 292.059 378.998 292.839 378.177 293.575C377.414 294.276 376.783 294.813 376.285 295.187C377.593 296.612 378.878 298.037 380.14 299.509C381.402 300.981 382.71 302.43 384.019 303.878C384.579 304.509 385.117 305.093 385.631 305.584C386.148 306.129 386.588 306.742 386.939 307.407C387.237 307.973 387.336 308.623 387.22 309.252C387.117 309.86 386.859 310.431 386.472 310.911C386.075 311.378 385.57 311.739 385 311.963C384.393 312.162 383.738 312.162 383.131 311.963C382.444 311.75 381.809 311.4 381.262 310.935C380.659 310.418 380.089 309.864 379.556 309.276C379.019 308.668 378.505 308.061 378.014 307.43C377.523 306.799 377.079 306.238 376.682 305.794L373.668 302.336C372.687 301.215 371.659 300 370.607 299.019V308.762C370.483 309.783 369.963 310.714 369.159 311.355Z" fill="#30302F"/>
<path d="M413.248 308.014C413.402 308.454 413.467 308.92 413.439 309.386C413.411 309.851 413.29 310.306 413.084 310.724C412.703 311.396 412.088 311.904 411.355 312.15C410.597 312.404 409.777 312.404 409.019 312.15C408.066 311.818 407.246 311.187 406.682 310.351C405.776 311.079 404.748 311.641 403.645 312.009C402.541 312.356 401.391 312.538 400.234 312.547C398.51 312.644 396.783 312.422 395.14 311.893C393.714 311.419 392.418 310.619 391.355 309.556C390.266 308.514 389.462 307.211 389.019 305.771C388.325 303.272 388.325 300.63 389.019 298.131C389.221 297.336 389.455 296.558 389.72 295.794C390.067 294.881 390.489 293.998 390.981 293.154C391.468 292.331 392.023 291.549 392.64 290.818C394.613 288.366 397.237 286.52 400.21 285.491C400.905 285.265 401.616 285.093 402.336 284.977C403.24 284.832 404.155 284.77 405.07 284.79C405.954 284.806 406.833 284.932 407.687 285.164C408.435 285.32 409.104 285.733 409.579 286.332C409.862 286.694 410.105 287.086 410.304 287.5C410.447 287.842 410.534 288.205 410.561 288.575C410.584 288.979 410.584 289.385 410.561 289.79V291.379V294.439C410.561 294.439 410.561 296.425 410.561 297.43V298.762V300.467C410.561 300.467 410.561 301.636 410.701 302.173C410.735 302.625 410.821 303.072 410.958 303.505L413.248 308.014ZM401.355 305.491L402.757 304.626C403.269 304.321 403.74 303.952 404.159 303.528C403.824 301.566 403.629 299.583 403.575 297.594C403.575 295.608 403.575 293.598 403.575 291.589C401.91 291.913 400.358 292.662 399.068 293.764C397.779 294.865 396.796 296.281 396.215 297.874C395.997 298.512 395.81 299.167 395.654 299.836C395.521 300.482 395.466 301.141 395.491 301.799C395.497 302.567 395.733 303.316 396.168 303.949C396.554 304.505 397.066 304.962 397.664 305.28C398.233 305.584 398.864 305.752 399.509 305.771C400.138 305.826 400.771 305.73 401.355 305.491Z" fill="#30302F"/>
<path d="M435.794 285.748C436.17 285.063 436.761 284.521 437.477 284.206C438.103 283.938 438.797 283.873 439.463 284.019C440.132 284.176 440.741 284.525 441.215 285.023C441.728 285.604 442.047 286.332 442.126 287.103C442.164 288.012 442.046 288.921 441.776 289.79C441.449 290.958 441.051 292.126 440.584 293.388C440.117 294.65 439.649 295.724 439.159 296.916C438.668 298.107 438.271 298.925 437.967 299.556C436.706 302.36 435.327 305.117 433.832 307.804C432.336 310.491 430.794 313.154 429.159 315.818C428.925 316.238 428.668 316.729 428.364 317.336C428.061 317.944 427.757 318.551 427.453 319.182C427.149 319.813 426.799 320.421 426.472 320.981C426.214 321.438 425.891 321.855 425.514 322.22C424.95 322.795 424.225 323.185 423.435 323.341C422.775 323.464 422.093 323.366 421.495 323.061C420.899 322.744 420.41 322.256 420.093 321.659C419.723 320.94 419.576 320.126 419.673 319.322C419.755 318.867 419.905 318.426 420.117 318.014L421.028 316.332C421.355 315.748 421.706 315.21 422.033 314.673C422.36 314.136 422.64 313.715 422.827 313.388C423.575 312.15 424.299 310.911 424.977 309.673L427.079 305.981C424.661 303.967 422.503 301.66 420.654 299.112C418.839 296.564 417.428 293.75 416.472 290.771L415.911 289.206C415.728 288.689 415.672 288.136 415.748 287.593C415.812 286.988 415.995 286.4 416.285 285.864C416.555 285.382 416.93 284.967 417.383 284.65C417.83 284.317 418.368 284.13 418.925 284.112C419.542 284.078 420.157 284.215 420.701 284.509C421.172 284.758 421.568 285.13 421.846 285.584C422.131 286.065 422.366 286.574 422.547 287.103C422.738 287.645 422.894 288.199 423.014 288.762C423.128 289.283 423.293 289.791 423.505 290.28C424.966 293.942 427.29 297.197 430.28 299.766C431.355 297.43 432.336 295.257 433.201 292.991C434.065 290.724 434.813 288.318 435.537 285.981L435.794 285.748Z" fill="#30302F"/>
</g>
<defs>
<clipPath id="clip0_1_1872">
<rect width="520" height="520" fill="white"/>
</clipPath>
</defs>
</svg>
