<svg width="74" height="74" viewBox="0 0 74 74" fill="none" xmlns="http://www.w3.org/2000/svg">
<circle cx="37" cy="37" r="34.5" stroke="white" stroke-width="5"/>
<path d="M48.101 19.1177H25.9046C24.569 19.1177 23.4849 20.2018 23.4849 21.5374V52.4683C23.4849 53.8039 24.569 54.8824 25.9046 54.8824H48.101C49.431 54.8824 50.5152 53.8039 50.5152 52.4683V21.5374C50.5152 20.2018 49.4366 19.1177 48.101 19.1177ZM32.1857 50.2721C32.1857 50.7583 31.7946 51.1494 31.3084 51.1494H28.6037C28.1175 51.1494 27.7263 50.7583 27.7263 50.2721V47.8803C27.7263 47.3941 28.1175 47.003 28.6037 47.003H31.3084C31.7946 47.003 32.1857 47.3941 32.1857 47.8803V50.2721ZM32.1857 43.5662C32.1857 44.0468 31.7946 44.438 31.3084 44.438H28.6037C28.1175 44.438 27.7263 44.0468 27.7263 43.5662V41.1689C27.7263 40.6883 28.1175 40.2971 28.6037 40.2971H31.3084C31.7946 40.2971 32.1857 40.6883 32.1857 41.1689V43.5662ZM32.1857 36.8603C32.1857 37.3409 31.7946 37.7321 31.3084 37.7321H28.6037C28.1175 37.7321 27.7263 37.3409 27.7263 36.8603V34.463C27.7263 33.9824 28.1175 33.5856 28.6037 33.5856H31.3084C31.7946 33.5856 32.1857 33.9824 32.1857 34.463V36.8603ZM39.2269 50.2721C39.2269 50.7583 38.8357 51.1494 38.3552 51.1494H35.6449C35.1643 51.1494 34.7731 50.7583 34.7731 50.2721V47.8747C34.7731 47.3941 35.1643 47.003 35.6449 47.003H38.3552C38.8357 47.003 39.2269 47.3941 39.2269 47.8747V50.2721ZM39.2269 43.5662C39.2269 44.0468 38.8357 44.438 38.3552 44.438H35.6449C35.1643 44.438 34.7731 44.0468 34.7731 43.5662V41.1689C34.7731 40.6883 35.1643 40.2971 35.6449 40.2971H38.3552C38.8357 40.2971 39.2269 40.6883 39.2269 41.1689V43.5662ZM39.2269 36.8603C39.2269 37.3409 38.8357 37.7321 38.3552 37.7321H35.6449C35.1643 37.7321 34.7731 37.3409 34.7731 36.8603V34.463C34.7731 33.9824 35.1643 33.5856 35.6449 33.5856H38.3552C38.8357 33.5856 39.2269 33.9824 39.2269 34.463V36.8603ZM46.2737 50.2721C46.2737 50.7583 45.8825 51.1494 45.4019 51.1494H42.6916C42.211 51.1494 41.8199 50.7583 41.8199 50.2721V47.8747C41.8199 47.3941 42.211 47.003 42.6916 47.003H45.4019C45.8825 47.003 46.2737 47.3941 46.2737 47.8747V50.2721ZM46.2737 43.5662C46.2737 44.0468 45.8825 44.438 45.4019 44.438H42.6916C42.211 44.438 41.8199 44.0468 41.8199 43.5662V41.1689C41.8199 40.6883 42.211 40.2971 42.6916 40.2971H45.4019C45.8825 40.2971 46.2737 40.6883 46.2737 41.1689V43.5662ZM46.2737 36.8603C46.2737 37.3409 45.8825 37.7321 45.4019 37.7321H42.6916C42.211 37.7321 41.8199 37.3409 41.8199 36.8603V34.463C41.8199 33.9824 42.211 33.5856 42.6916 33.5856H45.4019C45.8825 33.5856 46.2737 33.9824 46.2737 34.463V36.8603ZM47.1622 28.5339C47.1622 29.2827 46.5531 29.8918 45.8043 29.8918H28.1957C27.4469 29.8918 26.8378 29.2827 26.8378 28.5339V23.8286C26.8378 23.0797 27.4469 22.4762 28.1957 22.4762H45.8043C46.5531 22.4762 47.1622 23.0797 47.1622 23.8286V28.5339Z" fill="white"/>
</svg>
