<svg width="20" height="20" viewBox="0 0 20 20" fill="none" xmlns="http://www.w3.org/2000/svg">
<path d="M0 11.6887V8.31132C0 7.96858 0.278472 7.68297 0.628347 7.68297H7.69011V0.628347C7.69011 0.285612 7.96858 0 8.31846 0H11.6958C12.0386 0 12.317 0.278472 12.317 0.628347V7.69011H19.3717C19.7144 7.69011 20 7.96858 20 8.31846V11.6958C20 12.0386 19.7215 12.317 19.3717 12.317H12.3099V19.3717C12.3099 19.7144 12.0314 20 11.6887 20H8.31132C7.96858 20 7.68297 19.7215 7.68297 19.3717V12.3099H0.628347C0.278472 12.317 0 12.0314 0 11.6887Z" fill="white"/>
</svg>
