<svg width="40" height="40" viewBox="0 0 40 40" fill="none" xmlns="http://www.w3.org/2000/svg">
<g clip-path="url(#clip0_1709_1913)">
<path d="M3.59375 9.45314C2.93732 9.45314 2.34375 9.96858 2.34375 10.625C2.34375 11.2811 2.93732 11.7969 3.59375 11.7969H4.76562V9.45314H3.59375Z" fill="black"/>
<path d="M22.3434 11.7969C22.9998 11.7969 23.5153 11.2811 23.5153 10.625C23.5153 9.96858 22.9998 9.45314 22.3434 9.45314H21.1715V11.7969H22.3434Z" fill="black"/>
<path d="M3.59375 18.8278C2.93732 18.8278 2.34375 19.3436 2.34375 19.9997C2.34375 20.6561 2.93732 21.1716 3.59375 21.1716H4.76562V18.8278H3.59375Z" fill="black"/>
<path d="M3.59375 28.2028C2.93732 28.2028 2.34375 28.7183 2.34375 29.3747C2.34375 30.0308 2.93732 30.5466 3.59375 30.5466H4.76562V28.2028H3.59375Z" fill="black"/>
<path d="M39.9996 38.8278C39.9996 38.1799 39.4754 37.6559 38.8278 37.6559H35.234V23.569L38.0996 25.6622C38.6477 26.0257 39.4494 25.8679 39.8028 25.3372C40.162 24.7983 40.0167 24.0717 39.4778 23.7122L26.5091 14.3375C26.1154 14.0741 25.6027 14.0741 25.209 14.3375L12.3187 23.7122C11.7798 24.0717 11.6342 24.7983 11.9937 25.3372C12.3495 25.874 13.0762 26.0184 13.6188 25.6622L16.4841 23.569V37.6559H14.1406V30.5466H4.76562V37.6559H1.17187C0.523986 37.6559 0 38.1799 0 38.8278C0 39.4754 0.523986 39.9997 1.17187 39.9997H38.8278C39.4754 39.9997 39.9996 39.4754 39.9996 38.8278ZM25.859 35.2341C22.6285 35.2341 19.9997 32.6053 19.9997 29.3747C19.9997 26.1441 22.6285 23.5153 25.859 23.5153C29.0896 23.5153 31.7184 26.1441 31.7184 29.3747C31.7184 32.6053 29.0896 35.2341 25.859 35.2341Z" fill="black"/>
<path d="M10.0391 26.6324C8.92852 24.9667 9.47265 22.7609 11.0232 21.7575L11.8201 21.1716H4.76562V28.2028H12.9687C11.7969 28.2028 10.6952 27.6169 10.0391 26.6324Z" fill="black"/>
<path d="M21.1715 2.34388H24.6872C25.3351 2.34388 25.859 1.8199 25.859 1.17201C25.859 0.524429 25.3351 0.000137329 24.6872 0.000137329H1.17187C0.523986 0.000137329 0 0.524429 0 1.17201C0 1.8199 0.523986 2.34388 1.17187 2.34388H4.76562V9.45325H21.1715V2.34388Z" fill="black"/>
<path d="M21.1716 14.375V11.7969H4.76562V18.8278H15.0546L21.1716 14.375Z" fill="black"/>
<path d="M25.859 25.8591C23.9205 25.8591 22.3434 27.4362 22.3434 29.3747C22.3434 31.3132 23.9205 32.8903 25.859 32.8903C27.7975 32.8903 29.3746 31.3132 29.3746 29.3747C29.3746 27.4362 27.7975 25.8591 25.859 25.8591Z" fill="black"/>
</g>
<defs>
<clipPath id="clip0_1709_1913">
<rect width="40" height="40" fill="white"/>
</clipPath>
</defs>
</svg>
