<svg width="22" height="22" viewBox="0 0 22 22" fill="none" xmlns="http://www.w3.org/2000/svg">
<g clip-path="url(#clip0_1709_1684)">
<path d="M18.2069 7.55927V15.5783C18.2069 16.6111 17.3698 17.4483 16.3373 17.4483H8.34483L4.55172 21.6207V17.4483H1.86962C0.837138 17.4483 0 16.6111 0 15.5787V7.55965C0 6.52679 0.837138 5.68965 1.86962 5.68965H16.3369C17.3698 5.68965 18.2069 6.52679 18.2069 7.55927Z" fill="#0391FD"/>
<path d="M20.1304 0.379311H5.66271C4.63023 0.379311 3.79309 1.21645 3.79309 2.24931V5.68966H16.3373C17.3697 5.68966 18.2069 6.52679 18.2069 7.55966V12.1379H20.1304C21.1628 12.1379 22 11.3008 22 10.2679V2.24931C22 1.21645 21.1628 0.379311 20.1304 0.379311Z" fill="#0F71D3"/>
<path d="M9.48275 9.86776H4.1724C3.96264 9.86776 3.79309 9.69783 3.79309 9.48845C3.79309 9.27907 3.96264 9.10914 4.1724 9.10914H9.48275C9.6925 9.10914 9.86206 9.27907 9.86206 9.48845C9.86206 9.69783 9.6925 9.86776 9.48275 9.86776Z" fill="white"/>
<path d="M14.4138 12.1436H4.1724C3.96264 12.1436 3.79309 11.9737 3.79309 11.7643C3.79309 11.5549 3.96264 11.385 4.1724 11.385H14.4138C14.6235 11.385 14.7931 11.5549 14.7931 11.7643C14.7931 11.9737 14.6235 12.1436 14.4138 12.1436Z" fill="white"/>
<path d="M14.4138 14.4195H4.1724C3.96264 14.4195 3.79309 14.2496 3.79309 14.0402C3.79309 13.8308 3.96264 13.6609 4.1724 13.6609H14.4138C14.6235 13.6609 14.7931 13.8308 14.7931 14.0402C14.7931 14.2496 14.6235 14.4195 14.4138 14.4195Z" fill="white"/>
</g>
<defs>
<clipPath id="clip0_1709_1684">
<rect width="22" height="22" fill="white"/>
</clipPath>
</defs>
</svg>
