<svg width="37" height="37" viewBox="0 0 37 37" fill="none" xmlns="http://www.w3.org/2000/svg">
<g clip-path="url(#clip0_1709_1942)">
<path d="M32.3451 14.3921H22.7357V4.78265C22.7357 2.45644 20.8432 0.563904 18.5169 0.563904L4.78259 0.563904C2.45637 0.563904 0.563843 2.45644 0.563843 4.78265L0.563843 18.517C0.563843 20.8432 2.45637 22.7358 4.78259 22.7358H14.392V32.3452C14.392 34.6714 16.2845 36.5639 18.6107 36.5639H32.3451C34.6713 36.5639 36.5638 34.6714 36.5638 32.3452V18.6108C36.5638 16.2846 34.6713 14.3921 32.3451 14.3921ZM3.37634 18.517L3.37634 4.78265C3.37634 4.00725 4.00719 3.3764 4.78259 3.3764L18.5169 3.3764C19.2924 3.3764 19.9232 4.00725 19.9232 4.78265V18.517C19.9232 19.2924 19.2924 19.9233 18.5169 19.9233H4.78259C4.00719 19.9233 3.37634 19.2924 3.37634 18.517ZM33.7513 32.3452C33.7513 33.1206 33.1205 33.7514 32.3451 33.7514H18.6107C17.8353 33.7514 17.2045 33.1206 17.2045 32.3452V22.7358H18.5169C20.8432 22.7358 22.7357 20.8432 22.7357 18.517V17.2046H32.3451C33.1205 17.2046 33.7513 17.8354 33.7513 18.6108V32.3452ZM31.0326 25.4779C31.0326 26.2546 30.403 26.8842 29.6263 26.8842H21.3294C20.5528 26.8842 19.9232 26.2546 19.9232 25.4779C19.9232 24.7013 20.5528 24.0717 21.3294 24.0717H29.6263C30.403 24.0717 31.0326 24.7013 31.0326 25.4779ZM13.0561 13.0561V15.7983C13.0561 16.575 12.4265 17.2046 11.6498 17.2046C10.8731 17.2046 10.2436 16.575 10.2436 15.7983V13.0561H7.50137C6.72469 13.0561 6.09512 12.4265 6.09512 11.6499C6.09512 10.8732 6.72469 10.2436 7.50137 10.2436H10.2436V7.50143C10.2436 6.72476 10.8731 6.09518 11.6498 6.09518C12.4265 6.09518 13.0561 6.72476 13.0561 7.50143V10.2436H15.7982C16.5749 10.2436 17.2045 10.8732 17.2045 11.6499C17.2045 12.4265 16.5749 13.0561 15.7982 13.0561H13.0561Z" fill="white"/>
</g>
<defs>
<clipPath id="clip0_1709_1942">
<rect width="36" height="36" fill="white" transform="translate(0.563843 0.563904)"/>
</clipPath>
</defs>
</svg>
