<svg width="13" height="13" viewBox="0 0 13 13" fill="none" xmlns="http://www.w3.org/2000/svg">
<path d="M7.02591 0.821292L8.56866 4.09167L12.0179 4.61583C12.1283 4.63712 12.2309 4.68798 12.3148 4.76299C12.3986 4.838 12.4605 4.93435 12.4938 5.04176C12.5272 5.14918 12.5308 5.26363 12.5042 5.37293C12.4777 5.48223 12.422 5.58227 12.343 5.6624L9.84685 8.20779L10.4362 11.8019C10.4587 11.9112 10.4498 12.0247 10.4107 12.1293C10.3715 12.2338 10.3036 12.3252 10.2147 12.3928C10.1259 12.4604 10.0198 12.5016 9.90855 12.5115C9.79735 12.5214 9.6856 12.4997 9.58618 12.4489L6.49998 10.7521L3.41483 12.45C3.31541 12.5008 3.20366 12.5225 3.09246 12.5126C2.98126 12.5026 2.87512 12.4615 2.78629 12.3938C2.69745 12.3262 2.62953 12.2349 2.59035 12.1303C2.55117 12.0258 2.54232 11.9123 2.56483 11.8029L3.15416 8.20885L0.656225 5.6624C0.577277 5.58223 0.521572 5.48213 0.495052 5.37278C0.468531 5.26343 0.472189 5.14894 0.505636 5.04151C0.539084 4.93408 0.601065 4.83774 0.684969 4.76277C0.768874 4.68781 0.871554 4.63702 0.982058 4.61583L4.43129 4.09167L5.97404 0.821646C6.01921 0.719889 6.09293 0.633418 6.18626 0.572715C6.27959 0.512012 6.38853 0.479682 6.49986 0.479645C6.61119 0.479607 6.72015 0.511863 6.81352 0.572504C6.90689 0.633144 6.98067 0.719565 7.02591 0.821292Z" fill="url(#paint0_linear_2018_280)"/>
<path d="M12.0179 4.61582L8.94972 4.14938L2.77837 10.4922L2.56374 11.8026C2.54123 11.9119 2.55008 12.0254 2.58926 12.13C2.62844 12.2345 2.69636 12.3259 2.7852 12.3935C2.87403 12.4611 2.98017 12.5023 3.09137 12.5122C3.20258 12.5221 3.31432 12.5004 3.41374 12.4496L6.49995 10.7521L9.58509 12.45C9.68451 12.5008 9.79626 12.5225 9.90746 12.5125C10.0187 12.5026 10.1248 12.4615 10.2136 12.3938C10.3025 12.3262 10.3704 12.2349 10.4096 12.1303C10.4488 12.0258 10.4576 11.9123 10.4351 11.8029L9.84718 8.20778L12.3437 5.66238C12.4226 5.58221 12.4784 5.48212 12.5049 5.37277C12.5314 5.26342 12.5277 5.14893 12.4943 5.0415C12.4608 4.93407 12.3989 4.83773 12.315 4.76276C12.231 4.68779 12.1284 4.63701 12.0179 4.61582Z" fill="url(#paint1_linear_2018_280)"/>
<defs>
<linearGradient id="paint0_linear_2018_280" x1="2.36508" y1="1.65429" x2="10.3632" y2="12.3384" gradientUnits="userSpaceOnUse">
<stop stop-color="#FFCA4F"/>
<stop offset="1" stop-color="#F7AE30"/>
</linearGradient>
<linearGradient id="paint1_linear_2018_280" x1="6.54989" y1="7.55965" x2="11.9732" y2="13.0715" gradientUnits="userSpaceOnUse">
<stop stop-color="#FFCA4F" stop-opacity="0"/>
<stop offset="1" stop-color="#F4901F"/>
</linearGradient>
</defs>
</svg>
