<svg width="20" height="20" viewBox="0 0 20 20" fill="none" xmlns="http://www.w3.org/2000/svg">
<g clip-path="url(#clip0_2074_1066)">
<path d="M19.5281 7.35388L13.05 6.75307L10.4767 0.777726C10.2966 0.359329 9.70335 0.359329 9.5232 0.777726L6.94996 6.75311L0.471885 7.35388C0.0182922 7.39596 -0.165028 7.96013 0.177198 8.26076L5.06492 12.5546L3.63454 18.9013C3.53438 19.3457 4.0143 19.6943 4.40598 19.4618L9.99999 16.1401L15.594 19.4618C15.9857 19.6943 16.4656 19.3457 16.3655 18.9013L14.9351 12.5546L19.8228 8.26076C20.165 7.96013 19.9817 7.39596 19.5281 7.35388Z" fill="#989898"/>
<path d="M10.4767 0.777726C10.2966 0.359329 9.70335 0.359329 9.5232 0.777726L6.94996 6.75311L0.471885 7.35388C0.0182922 7.39596 -0.165028 7.96013 0.177198 8.26076L5.06492 12.5546L3.63454 18.9013C3.53438 19.3457 4.0143 19.6943 4.40598 19.4618L5.65453 18.7204C5.82734 11.6071 9.13242 6.59783 11.7491 3.73225L10.4767 0.777726Z" fill="#6D6D6D"/>
</g>
<defs>
<clipPath id="clip0_2074_1066">
<rect width="20" height="20" fill="white"/>
</clipPath>
</defs>
</svg>
