<svg width="25" height="25" viewBox="0 0 25 25" fill="none" xmlns="http://www.w3.org/2000/svg">
<g clip-path="url(#clip0_2859_3486)">
<path d="M4.63477 12.1094C4.99429 14.4518 5.8062 16.708 7.0314 18.75" stroke="white" stroke-width="1.05469" stroke-miterlimit="10" stroke-linecap="round" stroke-linejoin="round"/>
<path d="M14.944 2.87438C13.3299 2.58112 11.6762 2.58078 10.062 2.87331" stroke="white" stroke-width="1.05469" stroke-miterlimit="10" stroke-linecap="round" stroke-linejoin="round"/>
<path d="M17.9688 18.75C19.1939 16.708 20.0059 14.4518 20.3654 12.1094" stroke="white" stroke-width="1.05469" stroke-miterlimit="10" stroke-linecap="round" stroke-linejoin="round"/>
<path d="M16.4062 17.1875L17.7593 19.0817C18.1496 19.6282 18.3594 20.2829 18.3594 20.9544C18.3594 21.7951 18.0308 22.6025 17.4437 23.2042L17.2152 23.4384C16.6979 23.9686 15.9886 24.2676 15.2478 24.2676C14.2717 24.2676 13.3688 23.7499 12.8757 22.9075L12.5 22.2656L12.1243 22.9075C11.6312 23.7499 10.7283 24.2676 9.7522 24.2676C9.01147 24.2676 8.3021 23.9686 7.78481 23.4384L7.55635 23.2042C6.96924 22.6024 6.64062 21.7951 6.64062 20.9543C6.64062 20.2829 6.85044 19.6281 7.24072 19.0817L8.59375 17.1875" stroke="white" stroke-width="1.05469" stroke-miterlimit="10" stroke-linecap="round" stroke-linejoin="round"/>
<path d="M10.1565 2.73438L9.12094 3.42476C7.55649 4.46772 6.56244 6.17578 6.42851 8.05127C6.3143 9.65 5.57353 11.139 4.36733 12.1945L3.12524 13.2812L1.47089 7.60923C1.0248 6.07974 1.55229 4.43257 2.80395 3.44673L5.55795 1.27764C6.00639 0.924463 6.56064 0.732422 7.13149 0.732422C7.81689 0.732422 8.47324 1.00903 8.95185 1.49966L10.1565 2.73438Z" stroke="white" stroke-width="1.05469" stroke-miterlimit="10" stroke-linecap="round" stroke-linejoin="round"/>
<path d="M14.8438 2.73438L15.8793 3.42476C17.4438 4.46772 18.4378 6.17578 18.5717 8.05127C18.6859 9.65 19.4267 11.139 20.6329 12.1945L21.875 13.2812L23.5293 7.60923C23.9754 6.07974 23.4479 4.43257 22.1963 3.44673L19.4423 1.27764C18.9938 0.924463 18.4396 0.732422 17.8687 0.732422C17.1833 0.732422 16.527 1.00903 16.0484 1.49966L14.8438 2.73438Z" stroke="white" stroke-width="1.05469" stroke-miterlimit="10" stroke-linecap="round" stroke-linejoin="round"/>
<path d="M12.5 20.7031L11.3281 18.75H13.6719L12.5 20.7031Z" stroke="white" stroke-width="1.05469" stroke-miterlimit="10" stroke-linecap="round" stroke-linejoin="round"/>
<path d="M12.5 20.3125V22.1929" stroke="white" stroke-width="1.05469" stroke-miterlimit="10" stroke-linecap="round" stroke-linejoin="round"/>
<path d="M9.375 12.1094L10.5469 12.5" stroke="white" stroke-width="1.05469" stroke-miterlimit="10" stroke-linecap="round" stroke-linejoin="round"/>
<path d="M15.625 12.1094L14.4531 12.5" stroke="white" stroke-width="1.05469" stroke-miterlimit="10" stroke-linecap="round" stroke-linejoin="round"/>
</g>
<defs>
<clipPath id="clip0_2859_3486">
<rect width="25" height="25" fill="white"/>
</clipPath>
</defs>
</svg>
