<svg width="28" height="28" viewBox="0 0 28 28" fill="none" xmlns="http://www.w3.org/2000/svg">
<g clip-path="url(#clip0_4108_48)">
<path d="M22.5928 22.6732H14.9602C14.8459 22.6732 14.7534 22.5858 14.7534 22.4779C14.7534 22.3701 14.8459 22.2826 14.9602 22.2826H22.386V21.874C22.386 21.7661 22.4786 21.6787 22.5928 21.6787C22.7071 21.6787 22.7996 21.7661 22.7996 21.874V22.4779C22.7996 22.5858 22.7071 22.6732 22.5928 22.6732ZM14.2708 22.6732H14.1329C14.0187 22.6732 13.9261 22.5858 13.9261 22.4779C13.9261 22.3701 14.0187 22.2826 14.1329 22.2826H14.2708C14.3851 22.2826 14.4776 22.3701 14.4776 22.4779C14.4776 22.5858 14.3851 22.6732 14.2708 22.6732ZM13.4436 22.6732H5.20681C5.09259 22.6732 5 22.5858 5 22.4779V22.4445C5 22.3365 5.09259 22.2492 5.20681 22.2492C5.24972 22.2492 5.2896 22.2615 5.32266 22.2826H13.4436C13.5578 22.2826 13.6504 22.3701 13.6504 22.4779C13.6504 22.5858 13.5578 22.6732 13.4436 22.6732ZM5.20681 21.9888C5.09259 21.9888 5 21.9014 5 21.7935V21.6632C5 21.5554 5.09259 21.4679 5.20681 21.4679C5.32107 21.4679 5.41367 21.5554 5.41367 21.6632V21.7935C5.41367 21.9013 5.32107 21.9888 5.20681 21.9888ZM22.5928 21.4183C22.4786 21.4183 22.386 21.3309 22.386 21.223V21.0928C22.386 20.9848 22.4786 20.8974 22.5928 20.8974C22.7071 20.8974 22.7996 20.9848 22.7996 21.0928V21.223C22.7996 21.3309 22.7071 21.4183 22.5928 21.4183ZM5.20681 21.2075C5.09259 21.2075 5 21.1201 5 21.0122V13.2479C5 13.14 5.09259 13.0526 5.20681 13.0526H5.25797C5.37223 13.0526 5.46478 13.14 5.46478 13.2479C5.46478 13.2972 5.4455 13.3421 5.41367 13.3766V21.0122C5.41367 21.1201 5.32107 21.2075 5.20681 21.2075ZM22.5928 20.637C22.4786 20.637 22.386 20.5496 22.386 20.4417V18.3176H16.7766C16.6623 18.3176 16.5697 18.2301 16.5697 18.1222C16.5697 18.0144 16.6623 17.9269 16.7766 17.9269H22.5929C22.7071 17.9269 22.7997 18.0144 22.7997 18.1222V20.4417C22.7996 20.5496 22.7071 20.637 22.5928 20.637ZM16.0872 18.3176H15.9493C15.94 18.3176 15.9308 18.317 15.9218 18.3159C15.9128 18.317 15.9036 18.3176 15.8943 18.3176C15.78 18.3176 15.6874 18.2301 15.6874 18.1222V13.3888H12.8408C12.7265 13.3888 12.634 13.3014 12.634 13.1935C12.634 13.0856 12.7265 12.9982 12.8408 12.9982H15.8943C16.0085 12.9982 16.1011 13.0856 16.1011 13.1935V17.9274C16.2088 17.9341 16.294 18.0188 16.294 18.1222C16.294 18.2301 16.2014 18.3176 16.0872 18.3176ZM12.4648 15.1739H8.63639C8.52213 15.1739 8.42962 15.0864 8.42962 14.9785V13.4432H6.77456C6.66034 13.4432 6.56775 13.3558 6.56775 13.2479C6.56775 13.14 6.66034 13.0526 6.77456 13.0526H8.63639C8.75065 13.0526 8.84321 13.14 8.84321 13.2479V14.7832H12.2579V14.2706C12.2579 14.1627 12.3505 14.0753 12.4648 14.0753C12.579 14.0753 12.6716 14.1627 12.6716 14.2706V14.9785C12.6716 15.0864 12.579 15.1739 12.4648 15.1739ZM12.4648 13.8149C12.3505 13.8149 12.2579 13.7275 12.2579 13.6196V13.4894C12.2579 13.3815 12.3505 13.2941 12.4648 13.2941C12.579 13.2941 12.6716 13.3815 12.6716 13.4894V13.6196C12.6716 13.7275 12.579 13.8149 12.4648 13.8149ZM6.08522 13.4432H5.94731C5.83309 13.4432 5.74057 13.3558 5.74057 13.2479C5.74057 13.14 5.83309 13.0526 5.94731 13.0526H6.08522C6.19944 13.0526 6.29208 13.14 6.29208 13.2479C6.29208 13.3558 6.19944 13.4432 6.08522 13.4432Z" fill="#ABABAB"/>
<path d="M21.0083 18.2869H17.4153C17.3584 18.2869 17.3041 18.2648 17.2651 18.2259C17.226 18.1869 17.2056 18.1345 17.2088 18.0809L17.2568 17.2559C17.2631 17.1482 17.3607 17.0644 17.4747 17.0716C17.5887 17.0776 17.6761 17.1697 17.6698 17.2774L17.6338 17.8962H20.7898L20.5928 14.5148C20.5864 14.4071 20.6738 14.315 20.7879 14.3091C20.9021 14.3015 20.9994 14.3856 21.0057 14.4933L21.2148 18.0809C21.218 18.1345 21.1975 18.1869 21.1585 18.2259C21.1195 18.2648 21.0651 18.2869 21.0083 18.2869ZM17.5014 16.8119C17.4975 16.8119 17.4937 16.8119 17.4898 16.8116C17.3757 16.8057 17.2884 16.7136 17.2947 16.6059L17.3023 16.4759C17.3086 16.3681 17.4082 16.2848 17.5202 16.2916C17.6343 16.2975 17.7216 16.3896 17.7152 16.4973L17.7076 16.6273C17.7016 16.7315 17.6104 16.8119 17.5014 16.8119ZM17.5469 16.0318C17.5431 16.0318 17.5393 16.0318 17.5353 16.0315C17.4213 16.0256 17.334 15.9335 17.3402 15.8258L17.6454 10.5899C17.6513 10.4863 17.7421 10.4053 17.8518 10.4053H20.5717C20.6815 10.4053 20.7721 10.4863 20.7781 10.5899L20.9223 13.0632C20.9287 13.1709 20.8413 13.263 20.7272 13.2689C20.6111 13.2752 20.5156 13.1923 20.5094 13.0847L20.376 10.7959H18.0476L17.7531 15.8472C17.7471 15.9512 17.6559 16.0318 17.5469 16.0318ZM20.7611 14.0493C20.6521 14.0493 20.5609 13.9688 20.5549 13.8648L20.5473 13.7347C20.541 13.627 20.6282 13.5349 20.7424 13.5289C20.8546 13.5201 20.954 13.6055 20.9602 13.7132L20.9678 13.8432C20.9741 13.9509 20.8868 14.0431 20.7727 14.049C20.7688 14.0492 20.7649 14.0493 20.7611 14.0493Z" fill="#ABABAB"/>
<path d="M8.48462 20.7963H7.22191C7.10765 20.7963 7.01514 20.7089 7.01514 20.601V16.4937C7.01514 16.3858 7.10765 16.2983 7.22191 16.2983H8.48458C8.59876 16.2983 8.69135 16.3858 8.69135 16.4937V17.814C8.69135 17.9218 8.59876 18.0093 8.48458 18.0093C8.37028 18.0093 8.27772 17.9218 8.27772 17.814V16.689H7.42872V20.4056H8.27776V19.2462C8.27776 19.1383 8.37032 19.0509 8.48462 19.0509C8.5988 19.0509 8.69139 19.1383 8.69139 19.2462V20.601C8.69139 20.7089 8.5988 20.7963 8.48462 20.7963ZM8.48462 18.7905C8.37032 18.7905 8.27776 18.7031 8.27776 18.5952V18.465C8.27776 18.3571 8.37032 18.2696 8.48462 18.2696C8.5988 18.2696 8.69139 18.3571 8.69139 18.465V18.5952C8.69139 18.7031 8.5988 18.7905 8.48462 18.7905Z" fill="#ABABAB"/>
<path d="M11.0646 20.7963H9.80203C9.68777 20.7963 9.59521 20.7089 9.59521 20.601V16.4937C9.59521 16.3858 9.68777 16.2983 9.80203 16.2983H11.0646C11.1789 16.2983 11.2714 16.3858 11.2714 16.4937V17.814C11.2714 17.9218 11.1789 18.0093 11.0646 18.0093C10.9504 18.0093 10.8578 17.9218 10.8578 17.814V16.689H10.0088V20.4056H10.8578V19.2462C10.8578 19.1383 10.9504 19.0509 11.0646 19.0509C11.1789 19.0509 11.2714 19.1383 11.2714 19.2462V20.601C11.2714 20.7089 11.1789 20.7963 11.0646 20.7963ZM11.0646 18.7905C10.9504 18.7905 10.8578 18.7031 10.8578 18.5952V18.465C10.8578 18.3571 10.9504 18.2696 11.0646 18.2696C11.1789 18.2696 11.2714 18.3571 11.2714 18.465V18.5952C11.2714 18.7031 11.1789 18.7905 11.0646 18.7905Z" fill="#ABABAB"/>
<path d="M13.6452 20.7963H12.3826C12.2683 20.7963 12.1758 20.7089 12.1758 20.601V16.4937C12.1758 16.3858 12.2683 16.2983 12.3826 16.2983H13.6452C13.7594 16.2983 13.852 16.3858 13.852 16.4937V17.8141C13.852 17.922 13.7594 18.0094 13.6452 18.0094C13.5309 18.0094 13.4384 17.922 13.4384 17.8141V16.689H12.5894V20.4056H13.4384V19.2464C13.4384 19.1385 13.5309 19.051 13.6452 19.051C13.7594 19.051 13.852 19.1385 13.852 19.2464V20.601C13.852 20.7089 13.7594 20.7963 13.6452 20.7963ZM13.6452 18.7906C13.5309 18.7906 13.4384 18.7032 13.4384 18.5953V18.4651C13.4384 18.3572 13.5309 18.2698 13.6452 18.2698C13.7594 18.2698 13.852 18.3572 13.852 18.4651V18.5953C13.852 18.7032 13.7594 18.7906 13.6452 18.7906Z" fill="#ABABAB"/>
<path d="M8.48479 14.8561H5.20681C5.09259 14.8561 5 14.7687 5 14.6608C5 14.5529 5.09259 14.4655 5.20681 14.4655H8.48479C8.59897 14.4655 8.69156 14.5529 8.69156 14.6608C8.69156 14.7687 8.59897 14.8561 8.48479 14.8561Z" fill="#ABABAB"/>
<path d="M15.8187 14.8561H12.5408C12.4265 14.8561 12.334 14.7687 12.334 14.6608C12.334 14.5529 12.4265 14.4655 12.5408 14.4655H15.8187C15.933 14.4655 16.0255 14.5529 16.0255 14.6608C16.0255 14.7687 15.933 14.8561 15.8187 14.8561Z" fill="#ABABAB"/>
<path d="M20.6603 12.3196H17.8919C17.7777 12.3196 17.6851 12.2322 17.6851 12.1243C17.6851 12.0164 17.7777 11.929 17.8919 11.929H20.6603C20.7746 11.929 20.8671 12.0164 20.8671 12.1243C20.8671 12.2322 20.7746 12.3196 20.6603 12.3196Z" fill="#ABABAB"/>
<path d="M21.147 19.7584H21.0318C20.9175 19.7584 20.825 19.671 20.825 19.5631C20.825 19.4552 20.9175 19.3678 21.0318 19.3678H21.147C21.2612 19.3678 21.3538 19.4552 21.3538 19.5631C21.3538 19.671 21.2612 19.7584 21.147 19.7584ZM20.3424 19.7584H16.2063C16.0921 19.7584 15.9995 19.671 15.9995 19.5631C15.9995 19.4552 16.0921 19.3678 16.2063 19.3678H20.3424C20.4566 19.3678 20.5492 19.4552 20.5492 19.5631C20.5492 19.671 20.4566 19.7584 20.3424 19.7584Z" fill="#ABABAB"/>
<path d="M21.147 20.7963H17.0109C16.8967 20.7963 16.804 20.7089 16.804 20.601C16.804 20.4931 16.8967 20.4056 17.0109 20.4056H21.147C21.2612 20.4056 21.3538 20.4931 21.3538 20.601C21.3538 20.7089 21.2612 20.7963 21.147 20.7963ZM16.3215 20.7963H16.2063C16.0921 20.7963 15.9995 20.7089 15.9995 20.601C15.9995 20.4931 16.0921 20.4056 16.2063 20.4056H16.3215C16.4358 20.4056 16.5284 20.4931 16.5284 20.601C16.5284 20.7089 16.4358 20.7963 16.3215 20.7963Z" fill="#ABABAB"/>
<path d="M20.0575 9.68495C20.0574 9.68495 20.0574 9.68495 20.0574 9.68495C19.798 9.68495 19.6268 9.65492 19.6196 9.65369C19.5355 9.63858 19.4698 9.57617 19.4545 9.49656C19.4456 9.45004 19.2441 8.3452 20.0041 7.43863C20.5698 6.76375 21.5048 6.38982 22.783 6.32704C22.8417 6.32419 22.8991 6.34503 22.9405 6.3845C22.982 6.42393 23.0036 6.47821 23.0002 6.53368C22.8211 9.37777 20.8827 9.68495 20.0575 9.68495ZM19.845 9.28635C19.9024 9.29074 19.9744 9.2943 20.0574 9.2943C20.9091 9.2943 22.3412 8.95508 22.569 6.73276C21.5363 6.82002 20.7832 7.13851 20.3283 7.68111C19.8293 8.27638 19.8218 8.98941 19.845 9.28635Z" fill="#ABABAB"/>
<path d="M19.658 9.65699C19.6047 9.65699 19.5515 9.63772 19.5112 9.59927C19.4307 9.52276 19.4312 9.39907 19.5123 9.32313L21.6019 7.36397C21.683 7.28796 21.814 7.28841 21.8944 7.36495C21.9748 7.44149 21.9744 7.56522 21.8933 7.64116L19.8036 9.60032C19.7633 9.63817 19.7105 9.65699 19.658 9.65699Z" fill="#ABABAB"/>
<path d="M18.3665 9.68495C17.5413 9.68495 15.6028 9.37792 15.4237 6.53368C15.4202 6.47821 15.442 6.4239 15.4834 6.3845C15.5249 6.34503 15.5825 6.32419 15.6409 6.32704C16.9191 6.38982 17.8541 6.76375 18.4198 7.43863C19.1798 8.34523 18.9783 9.45004 18.9694 9.49656C18.9541 9.57617 18.8884 9.63858 18.8043 9.65369C18.7971 9.65492 18.6258 9.68495 18.3665 9.68495ZM15.8549 6.73276C16.0827 8.95497 17.5147 9.2943 18.3665 9.2943C18.4492 9.2943 18.521 9.29078 18.5784 9.28647C18.6007 8.98814 18.5917 8.27034 18.0926 7.67759C17.6375 7.13712 16.8854 6.81979 15.8549 6.73276Z" fill="#ABABAB"/>
<path d="M18.7658 9.657C18.713 9.657 18.6604 9.63815 18.6201 9.60029L16.5304 7.64117C16.4493 7.56523 16.4488 7.4415 16.5293 7.36496C16.6097 7.28842 16.7407 7.28793 16.8217 7.36399L18.9114 9.32314C18.9925 9.39908 18.9929 9.52278 18.9125 9.59928C18.8721 9.63778 18.8189 9.657 18.7658 9.657Z" fill="#ABABAB"/>
<path d="M18.7659 10.7958C18.6516 10.7958 18.5591 10.7084 18.5591 10.6004V9.46164C18.5591 9.35377 18.6516 9.26636 18.7659 9.26636C18.8802 9.26636 18.9727 9.35377 18.9727 9.46164V10.6005C18.9727 10.7084 18.8802 10.7958 18.7659 10.7958Z" fill="#ABABAB"/>
<path d="M19.658 10.7958C19.5437 10.7958 19.4512 10.7084 19.4512 10.6004V9.46164C19.4512 9.35377 19.5437 9.26636 19.658 9.26636C19.7722 9.26636 19.8647 9.35377 19.8647 9.46164V10.6005C19.8647 10.7084 19.7722 10.7958 19.658 10.7958Z" fill="#ABABAB"/>
</g>
<rect x="3.61914" y="23.0527" width="27.7238" height="1.5" transform="rotate(-42.9778 3.61914 23.0527)" fill="#B7B7B7"/>
<circle cx="14" cy="14" r="13.5" stroke="#B7B7B7"/>
<defs>
<clipPath id="clip0_4108_48">
<rect width="18" height="17" fill="white" transform="translate(5 6)"/>
</clipPath>
</defs>
</svg>
