<svg width="25" height="25" viewBox="0 0 25 25" fill="none" xmlns="http://www.w3.org/2000/svg">
<path fill-rule="evenodd" clip-rule="evenodd" d="M7.76579 12.25C8.04754 12.25 8.2762 12.0213 8.2762 11.7396V9.69792C8.2762 9.41617 8.04754 9.1875 7.76579 9.1875C7.48404 9.1875 7.25537 9.41617 7.25537 9.69792V11.7396C7.25537 12.0213 7.48404 12.25 7.76579 12.25Z" fill="white"/>
<path fill-rule="evenodd" clip-rule="evenodd" d="M15.9328 9.1875C15.651 9.1875 15.4224 9.41617 15.4224 9.69792V11.7396C15.4224 12.0213 15.651 12.25 15.9328 12.25C16.2145 12.25 16.4432 12.0213 16.4432 11.7396V9.69792C16.4432 9.41617 16.2145 9.1875 15.9328 9.1875Z" fill="white"/>
<path fill-rule="evenodd" clip-rule="evenodd" d="M11.8492 20.4167C8.2181 20.4167 5.10558 18.4373 3.8132 15.6372L4.86466 15.287C5.13212 15.1972 5.27708 14.9083 5.18725 14.6408C5.09843 14.3744 4.81158 14.2284 4.54208 14.3172L3.45897 14.6786C3.28033 14.0732 3.1762 13.4424 3.17314 12.789L4.54208 13.2454C4.59618 13.2627 4.65029 13.2709 4.70337 13.2709C4.91672 13.2709 5.11579 13.1351 5.18725 12.9217C5.27708 12.6543 5.13212 12.3654 4.86466 12.2756L3.25685 11.7406C3.3671 11.0067 3.58862 10.2951 3.9357 9.61629C4.01635 9.45908 4.0092 9.27023 3.91733 9.12017C3.10781 7.7839 2.67395 6.21794 2.66154 4.58971C2.65456 3.60052 2.88425 2.60725 3.0292 2.0805C4.3767 2.33571 6.97268 3.7955 8.08947 5.43802C8.22014 5.62994 8.4631 5.70854 8.68054 5.63402C10.6926 4.93067 12.9956 4.93067 15.0209 5.63198C15.2394 5.70752 15.4803 5.62687 15.61 5.43598C16.7267 3.79448 19.3217 2.33469 20.6692 2.0805C20.8142 2.60725 21.0439 3.60052 21.0369 4.58971C21.0245 6.21896 20.5906 7.7839 19.7801 9.11812C19.6882 9.26921 19.681 9.45806 19.7617 9.61527C20.1098 10.2941 20.3313 11.0067 20.4416 11.7406L18.8337 12.2756C18.5663 12.3654 18.4213 12.6543 18.5112 12.9217C18.5826 13.1351 18.7817 13.2709 18.995 13.2709C19.0481 13.2709 19.1022 13.2627 19.1563 13.2454L20.5253 12.789C20.5222 13.4424 20.4181 14.0732 20.2394 14.6786L19.1563 14.3172C18.8879 14.2284 18.6 14.3744 18.5112 14.6408C18.4213 14.9083 18.5663 15.1972 18.8337 15.287L19.8852 15.6372C18.5928 18.4373 15.4803 20.4167 11.8492 20.4167ZM22.2188 15.3381L21.2072 15.0012C21.4216 14.2846 21.5471 13.5363 21.5471 12.7605C21.5471 12.6574 21.5338 12.5563 21.5298 12.4532L22.2188 12.2245C22.4863 12.1347 22.6312 11.8458 22.5414 11.5783C22.4526 11.3109 22.1657 11.1649 21.8962 11.2547L21.4195 11.414C21.3001 10.7249 21.099 10.0522 20.7958 9.40498C21.6094 7.96867 22.0443 6.31287 22.0575 4.59787C22.0698 2.98496 21.542 1.43023 21.5196 1.36592C21.4481 1.15971 21.2541 1.02087 21.0367 1.02087C19.5238 1.02087 16.4593 2.69198 14.9954 4.54989C12.9711 3.93025 10.7191 3.93127 8.70402 4.55092C7.24014 2.693 4.17356 1.02087 2.6617 1.02087C2.44427 1.02087 2.25031 1.15971 2.17885 1.36592C2.15639 1.43023 1.62862 2.98496 1.64087 4.59787C1.65414 6.31185 2.08902 7.96765 2.90262 9.40498C2.59841 10.0522 2.39833 10.7249 2.27889 11.414L1.80216 11.2547C1.53368 11.1649 1.24581 11.3109 1.157 11.5783C1.06716 11.8458 1.21212 12.1347 1.47958 12.2245L2.16864 12.4532C2.16456 12.5563 2.15129 12.6574 2.15129 12.7605C2.15129 13.5363 2.27685 14.2846 2.49122 15.0012L1.47958 15.3381C1.21212 15.4279 1.06716 15.7168 1.157 15.9842C1.24581 16.2537 1.54185 16.3956 1.80216 16.3079L2.84341 15.9608C4.27054 19.1641 7.76587 21.4375 11.8492 21.4375C15.9325 21.4375 19.4279 19.1641 20.855 15.9608L21.8962 16.3079C22.1566 16.3956 22.4526 16.2537 22.5414 15.9842C22.6312 15.7168 22.4863 15.4279 22.2188 15.3381Z" fill="white"/>
<path fill-rule="evenodd" clip-rule="evenodd" d="M15.6496 15.3982C14.8237 15.9485 13.71 16.2435 12.3594 16.3068V13.9926L13.2312 13.1218C13.3772 12.9758 13.4211 12.7553 13.3415 12.5654C13.2629 12.3745 13.0761 12.25 12.8699 12.25H10.8282C10.622 12.25 10.4362 12.3745 10.3566 12.5654C10.278 12.7553 10.3219 12.9758 10.4678 13.1218L11.3386 13.9926V16.3068C9.98907 16.2435 8.87432 15.9485 8.04949 15.3982C7.8147 15.2421 7.49722 15.3043 7.34103 15.5401C7.18484 15.7739 7.24813 16.0914 7.48293 16.2476C8.58338 16.9826 10.0534 17.3542 11.849 17.3542C13.6457 17.3542 15.1157 16.9826 16.2162 16.2476C16.4509 16.0914 16.5142 15.7739 16.357 15.5401C16.2019 15.3043 15.8834 15.2421 15.6496 15.3982Z" fill="white"/>
</svg>
