<svg width="25" height="25" viewBox="0 0 25 25" fill="none" xmlns="http://www.w3.org/2000/svg">
<path d="M24.4345 24.5195H13.8336C13.6749 24.5195 13.5463 24.391 13.5463 24.2323C13.5463 24.0737 13.6749 23.945 13.8336 23.945H24.1473V23.3442C24.1473 23.1855 24.2758 23.057 24.4345 23.057C24.5932 23.057 24.7217 23.1855 24.7217 23.3442V24.2323C24.7217 24.391 24.5932 24.5195 24.4345 24.5195ZM12.8761 24.5195H12.6846C12.526 24.5195 12.3974 24.391 12.3974 24.2323C12.3974 24.0737 12.526 23.945 12.6846 23.945H12.8761C13.0348 23.945 13.1633 24.0737 13.1633 24.2323C13.1633 24.391 13.0348 24.5195 12.8761 24.5195ZM11.7272 24.5195H0.28724C0.128599 24.5195 0 24.391 0 24.2323L0 24.1831C0 24.0244 0.128599 23.8959 0.28724 23.8959C0.346827 23.8959 0.402225 23.914 0.448141 23.945H11.7272C11.8859 23.945 12.0144 24.0737 12.0144 24.2323C12.0144 24.391 11.8859 24.5195 11.7272 24.5195ZM0.28724 23.513C0.128599 23.513 0 23.3844 0 23.2258L0 23.0343C0 22.8756 0.128599 22.747 0.28724 22.747C0.445936 22.747 0.574536 22.8756 0.574536 23.0343V23.2258C0.574536 23.3844 0.445936 23.513 0.28724 23.513ZM24.4345 22.674C24.2758 22.674 24.1473 22.5455 24.1473 22.3868V22.1953C24.1473 22.0366 24.2758 21.9081 24.4345 21.9081C24.5932 21.9081 24.7217 22.0366 24.7217 22.1953V22.3868C24.7217 22.5455 24.5932 22.674 24.4345 22.674ZM0.28724 22.364C0.128599 22.364 0 22.2355 0 22.0768L0 10.6588C0 10.5001 0.128599 10.3715 0.28724 10.3715H0.358293C0.516989 10.3715 0.645533 10.5001 0.645533 10.6588C0.645533 10.7312 0.618744 10.7974 0.574536 10.848L0.574536 22.0768C0.574536 22.2355 0.445936 22.364 0.28724 22.364ZM24.4345 21.5251C24.2758 21.5251 24.1473 21.3965 24.1473 21.2379V18.1142H16.3563C16.1977 18.1142 16.0691 17.9856 16.0691 17.8269C16.0691 17.6683 16.1977 17.5397 16.3563 17.5397H24.4346C24.5933 17.5397 24.7217 17.6683 24.7217 17.8269V21.2379C24.7217 21.3965 24.5932 21.5251 24.4345 21.5251ZM15.3989 18.1142H15.2074C15.1944 18.1142 15.1816 18.1133 15.1692 18.1117C15.1566 18.1133 15.1439 18.1142 15.1309 18.1142C14.9723 18.1142 14.8437 17.9856 14.8437 17.8269V10.866H10.89C10.7313 10.866 10.6028 10.7374 10.6028 10.5787C10.6028 10.42 10.7313 10.2915 10.89 10.2915H15.1309C15.2896 10.2915 15.4182 10.42 15.4182 10.5787V17.5404C15.5678 17.5503 15.6861 17.6748 15.6861 17.8269C15.6861 17.9856 15.5576 18.1142 15.3989 18.1142ZM10.3677 13.4911H5.05055C4.89185 13.4911 4.76336 13.3625 4.76336 13.2038V10.946H2.46467C2.30603 10.946 2.17743 10.8174 2.17743 10.6588C2.17743 10.5001 2.30603 10.3715 2.46467 10.3715H5.05055C5.20924 10.3715 5.33779 10.5001 5.33779 10.6588V12.9166H10.0805V12.1628C10.0805 12.0041 10.2091 11.8755 10.3677 11.8755C10.5264 11.8755 10.655 12.0041 10.655 12.1628V13.2038C10.655 13.3625 10.5264 13.4911 10.3677 13.4911ZM10.3677 11.4926C10.2091 11.4926 10.0805 11.364 10.0805 11.2054V11.0139C10.0805 10.8552 10.2091 10.7266 10.3677 10.7266C10.5264 10.7266 10.655 10.8552 10.655 11.0139V11.2054C10.655 11.364 10.5264 11.4926 10.3677 11.4926ZM1.50725 10.946H1.31571C1.15706 10.946 1.02858 10.8174 1.02858 10.6588C1.02858 10.5001 1.15706 10.3715 1.31571 10.3715H1.50725C1.66589 10.3715 1.79455 10.5001 1.79455 10.6588C1.79455 10.8174 1.66589 10.946 1.50725 10.946Z" fill="white"/>
<path d="M22.2335 18.0689H17.2432C17.1643 18.0689 17.0888 18.0365 17.0347 17.9791C16.9804 17.9219 16.9521 17.8447 16.9565 17.7659L17.0232 16.5527C17.0319 16.3944 17.1675 16.2711 17.3258 16.2818C17.4842 16.2905 17.6055 16.426 17.5967 16.5843L17.5467 17.4944H21.9301L21.6564 12.5217C21.6477 12.3634 21.769 12.2279 21.9274 12.2192C22.0861 12.2081 22.2213 12.3317 22.23 12.4901L22.5203 17.7659C22.5248 17.8447 22.4964 17.9219 22.4422 17.9791C22.3879 18.0365 22.3125 18.0689 22.2335 18.0689ZM17.3629 15.8998C17.3575 15.8998 17.3521 15.8997 17.3468 15.8993C17.1883 15.8907 17.067 15.7552 17.0758 15.5968L17.0864 15.4056C17.0951 15.2472 17.2334 15.1246 17.3889 15.1346C17.5474 15.1433 17.6687 15.2788 17.6599 15.4371L17.6493 15.6283C17.641 15.7815 17.5142 15.8998 17.3629 15.8998ZM17.4261 14.7526C17.4207 14.7526 17.4154 14.7525 17.41 14.7521C17.2516 14.7435 17.1303 14.608 17.139 14.4496L17.5628 6.74975C17.5711 6.5975 17.6972 6.47827 17.8496 6.47827H21.6271C21.7797 6.47827 21.9056 6.5975 21.9139 6.74975L22.1142 10.387C22.123 10.5454 22.0016 10.6809 21.8432 10.6895C21.6819 10.6987 21.5493 10.5769 21.5407 10.4186L21.3554 7.0527H18.1215L17.7125 14.4811C17.7042 14.6341 17.5774 14.7526 17.4261 14.7526ZM21.8902 11.8371C21.7389 11.8371 21.6122 11.7188 21.6038 11.5658L21.5932 11.3745C21.5845 11.2161 21.7057 11.0806 21.8642 11.0719C22.0201 11.0588 22.1581 11.1844 22.1668 11.3429L22.1773 11.5341C22.1861 11.6925 22.0648 11.828 21.9064 11.8367C21.9009 11.8369 21.8955 11.8371 21.8902 11.8371Z" fill="white"/>
<path d="M4.83977 21.7593H3.08601C2.92732 21.7593 2.79883 21.6307 2.79883 21.4721V15.4319C2.79883 15.2732 2.92732 15.1447 3.08601 15.1447H4.83972C4.9983 15.1447 5.1269 15.2732 5.1269 15.4319V17.3735C5.1269 17.5321 4.9983 17.6608 4.83972 17.6608C4.68097 17.6608 4.55242 17.5321 4.55242 17.3735V15.7191H3.37325V21.1848H4.55248V19.4798C4.55248 19.3211 4.68102 19.1925 4.83977 19.1925C4.99836 19.1925 5.12696 19.3211 5.12696 19.4798V21.4721C5.12696 21.6307 4.99836 21.7593 4.83977 21.7593ZM4.83977 18.8096C4.68102 18.8096 4.55248 18.6811 4.55248 18.5224V18.3309C4.55248 18.1722 4.68102 18.0436 4.83977 18.0436C4.99836 18.0436 5.12696 18.1722 5.12696 18.3309V18.5224C5.12696 18.6811 4.99836 18.8096 4.83977 18.8096Z" fill="white"/>
<path d="M8.42316 21.7593H6.66956C6.51087 21.7593 6.38232 21.6307 6.38232 21.4721V15.4319C6.38232 15.2732 6.51087 15.1447 6.66956 15.1447H8.42316C8.58185 15.1447 8.7104 15.2732 8.7104 15.4319V17.3735C8.7104 17.5321 8.58185 17.6608 8.42316 17.6608C8.26452 17.6608 8.13592 17.5321 8.13592 17.3735V15.7191H6.95669V21.1848H8.13592V19.4798C8.13592 19.3211 8.26452 19.1925 8.42316 19.1925C8.58185 19.1925 8.7104 19.3211 8.7104 19.4798V21.4721C8.7104 21.6307 8.58185 21.7593 8.42316 21.7593ZM8.42316 18.8096C8.26452 18.8096 8.13592 18.6811 8.13592 18.5224V18.3309C8.13592 18.1722 8.26452 18.0436 8.42316 18.0436C8.58185 18.0436 8.7104 18.1722 8.7104 18.3309V18.5224C8.7104 18.6811 8.58185 18.8096 8.42316 18.8096Z" fill="white"/>
<path d="M12.0071 21.7593H10.2535C10.0949 21.7593 9.96631 21.6307 9.96631 21.4721V15.4319C9.96631 15.2732 10.0949 15.1447 10.2535 15.1447H12.0071C12.1658 15.1447 12.2944 15.2732 12.2944 15.4319V17.3737C12.2944 17.5324 12.1658 17.6609 12.0071 17.6609C11.8484 17.6609 11.7199 17.5324 11.7199 17.3737V15.7191H10.5408V21.1848H11.7199V19.48C11.7199 19.3213 11.8484 19.1928 12.0071 19.1928C12.1658 19.1928 12.2944 19.3213 12.2944 19.48V21.4721C12.2944 21.6307 12.1658 21.7593 12.0071 21.7593ZM12.0071 18.8097C11.8484 18.8097 11.7199 18.6812 11.7199 18.5226V18.331C11.7199 18.1724 11.8484 18.0438 12.0071 18.0438C12.1658 18.0438 12.2944 18.1724 12.2944 18.331V18.5226C12.2944 18.6812 12.1658 18.8097 12.0071 18.8097Z" fill="white"/>
<path d="M4.83998 13.0237H0.28724C0.128599 13.0237 0 12.8951 0 12.7365C0 12.5778 0.128599 12.4492 0.28724 12.4492H4.83998C4.99857 12.4492 5.12717 12.5778 5.12717 12.7365C5.12717 12.8951 4.99857 13.0237 4.83998 13.0237Z" fill="white"/>
<path d="M15.0254 13.0237H10.4728C10.3141 13.0237 10.1855 12.8951 10.1855 12.7365C10.1855 12.5778 10.3141 12.4492 10.4728 12.4492H15.0254C15.1841 12.4492 15.3127 12.5778 15.3127 12.7365C15.3127 12.8951 15.1841 13.0237 15.0254 13.0237Z" fill="white"/>
<path d="M21.7505 9.29347H17.9055C17.7468 9.29347 17.6182 9.16493 17.6182 9.00623C17.6182 8.84759 17.7468 8.71899 17.9055 8.71899H21.7505C21.9091 8.71899 22.0377 8.84759 22.0377 9.00623C22.0377 9.16493 21.9091 9.29347 21.7505 9.29347Z" fill="white"/>
<path d="M22.4267 20.233H22.2666C22.1079 20.233 21.9793 20.1045 21.9793 19.9458C21.9793 19.7871 22.1079 19.6586 22.2666 19.6586H22.4267C22.5853 19.6586 22.7139 19.7871 22.7139 19.9458C22.7139 20.1045 22.5853 20.233 22.4267 20.233ZM21.3091 20.233H15.5646C15.4059 20.233 15.2773 20.1045 15.2773 19.9458C15.2773 19.7871 15.4059 19.6586 15.5646 19.6586H21.3091C21.4678 19.6586 21.5964 19.7871 21.5964 19.9458C21.5964 20.1045 21.4678 20.233 21.3091 20.233Z" fill="white"/>
<path d="M22.4266 21.7593H16.682C16.5234 21.7593 16.3947 21.6308 16.3947 21.4721C16.3947 21.3134 16.5234 21.1848 16.682 21.1848H22.4266C22.5852 21.1848 22.7138 21.3134 22.7138 21.4721C22.7138 21.6308 22.5852 21.7593 22.4266 21.7593ZM15.7246 21.7593H15.5646C15.4059 21.7593 15.2773 21.6308 15.2773 21.4721C15.2773 21.3134 15.4059 21.1848 15.5646 21.1848H15.7246C15.8833 21.1848 16.0118 21.3134 16.0118 21.4721C16.0118 21.6308 15.8833 21.7593 15.7246 21.7593Z" fill="white"/>
<path d="M20.9128 5.41907C20.9127 5.41907 20.9127 5.41907 20.9126 5.41907C20.5524 5.41907 20.3146 5.37492 20.3046 5.3731C20.1878 5.35088 20.0966 5.2591 20.0754 5.14203C20.0629 5.07362 19.7831 3.44885 20.8386 2.11567C21.6244 1.1232 22.923 0.5733 24.6983 0.48097C24.7798 0.476781 24.8595 0.507429 24.917 0.565472C24.9746 0.62346 25.0047 0.703277 25 0.784857C24.7511 4.96734 22.0589 5.41907 20.9128 5.41907ZM20.6176 4.8329C20.6974 4.83935 20.7974 4.84459 20.9126 4.84459C22.0956 4.84459 24.0846 4.34573 24.401 1.07761C22.9667 1.20593 21.9207 1.6743 21.2889 2.47225C20.5958 3.34764 20.5854 4.39623 20.6176 4.8329Z" fill="white"/>
<path d="M20.358 5.37798C20.2841 5.37798 20.2102 5.34965 20.1542 5.2931C20.0424 5.18059 20.0431 4.99869 20.1557 4.88701L23.0579 2.0059C23.1706 1.89411 23.3525 1.89477 23.4642 2.00733C23.5759 2.11989 23.5753 2.30185 23.4627 2.41353L20.5603 5.29464C20.5044 5.35031 20.431 5.37798 20.358 5.37798Z" fill="white"/>
<path d="M18.5644 5.41907C17.4182 5.41907 14.7258 4.96756 14.4771 0.784857C14.4723 0.703277 14.5024 0.623405 14.56 0.565472C14.6176 0.507429 14.6976 0.476781 14.7787 0.48097C16.5541 0.5733 17.8526 1.1232 18.6384 2.11567C19.6939 3.4489 19.4141 5.07362 19.4017 5.14203C19.3804 5.2591 19.2892 5.35088 19.1724 5.3731C19.1624 5.37492 18.9245 5.41907 18.5644 5.41907ZM15.0759 1.07761C15.3923 4.34557 17.3813 4.84459 18.5644 4.84459C18.6791 4.84459 18.7789 4.83941 18.8586 4.83307C18.8896 4.39435 18.8771 3.33877 18.1839 2.46707C17.5518 1.67227 16.5072 1.2056 15.0759 1.07761Z" fill="white"/>
<path d="M19.1188 5.37801C19.0456 5.37801 18.9725 5.35028 18.9165 5.29461L16.0141 2.41355C15.9014 2.30187 15.9008 2.11991 16.0126 2.00735C16.1243 1.8948 16.3062 1.89408 16.4188 2.00592L19.3212 4.88703C19.4337 4.99871 19.4343 5.18061 19.3226 5.29312C19.2665 5.34973 19.1927 5.37801 19.1188 5.37801Z" fill="white"/>
<path d="M19.1188 7.05273C18.9601 7.05273 18.8315 6.92418 18.8315 6.76549V5.09077C18.8315 4.93213 18.9601 4.80359 19.1188 4.80359C19.2775 4.80359 19.406 4.93213 19.406 5.09077V6.76554C19.406 6.92418 19.2775 7.05273 19.1188 7.05273Z" fill="white"/>
<path d="M20.3576 7.05273C20.1989 7.05273 20.0703 6.92418 20.0703 6.76549V5.09077C20.0703 4.93213 20.1989 4.80359 20.3576 4.80359C20.5162 4.80359 20.6447 4.93213 20.6447 5.09077V6.76554C20.6447 6.92418 20.5162 7.05273 20.3576 7.05273Z" fill="white"/>
</svg>
