<svg width="532" height="532" viewBox="0 0 532 532" fill="none" xmlns="http://www.w3.org/2000/svg">
<g clip-path="url(#clip0_1_1644)">
<path d="M497.215 226.456C491.81 214.929 480.474 200.149 456.295 189.243C457.326 186.554 457.799 183.682 457.683 180.804C457.568 177.926 456.868 175.101 455.626 172.502C454.194 169.259 453.041 165.898 452.182 162.458C452.9 154.814 452.9 147.119 452.182 139.475C456.095 125.348 458.634 110.876 459.763 96.2598C461.653 72.4639 460.433 37.8582 443.955 8.08345L443.812 7.79646C443.034 6.39234 441.995 5.15024 440.75 4.1374L440.344 3.80258C437.148 1.3268 433.218 -0.01144 429.175 1.57454e-05C425.946 0.0887944 422.774 0.8817 419.883 2.32334C416.991 3.76497 414.449 5.82057 412.435 8.34652C392.106 32.0946 377.422 43.0479 371.443 45.4394C367.449 45.1285 363.456 44.985 359.486 44.985C348.015 44.8572 336.588 46.4206 325.573 49.6246C319.595 49.8638 299.266 50.653 282.669 51.8249C273.27 52.4945 226.252 56.9906 222.569 79.8299C221.637 85.474 224.22 94.7292 228.62 105.085L218.217 99.6798C216.061 81.544 208.712 64.4171 197.053 50.3585C185.395 36.2999 169.925 25.908 152.501 20.4324C135.078 14.9568 116.444 14.6306 98.8393 19.4931C81.235 24.3555 65.4099 34.1995 53.2669 47.8415C41.124 61.4835 33.18 78.3427 30.3903 96.3919C27.6006 114.441 30.0839 132.912 37.5416 149.583C44.9994 166.255 57.114 180.417 72.4288 190.368C87.7437 200.318 105.607 205.633 123.87 205.673C133.858 205.63 143.776 204.016 153.262 200.89C166.025 196.755 177.763 189.957 187.701 180.945C188.612 185.907 190.163 190.731 192.316 195.294C200.448 212.704 212.931 231.741 257.223 240.733C255.166 261.588 254.664 284.857 254.568 298.441C247.812 300.476 241.606 304.016 236.417 308.797C233.101 311.613 229.558 314.149 225.822 316.378C218.254 320.77 209.739 323.272 200.998 323.672L197.099 324.079L196.86 324.079C195.351 323.994 193.849 323.811 192.364 323.529C189.61 323.019 186.818 322.739 184.018 322.692C172.323 322.692 164.072 329.388 161.394 341.083C160.651 344.424 160.697 347.893 161.527 351.213C162.357 354.534 163.949 357.616 166.177 360.215C169.151 363.659 172.765 366.494 176.819 368.562C169.238 376.191 165.579 390.492 166.464 402.976C167.468 417.708 175.384 444.445 216.973 457.982C223.454 460.072 230.07 461.718 236.775 462.908C239.167 463.339 241.558 463.697 243.735 464.008C220.872 464.678 198.067 466.658 175.432 469.939C138.913 475.631 124.038 483.619 124.038 497.586C124.038 511.552 138.913 519.54 175.432 525.208C202.409 529.417 238.138 531.713 276.068 531.713C313.998 531.713 349.704 529.321 376.705 525.208C413.2 519.54 428.099 511.528 428.099 497.586C428.099 484.313 414.156 477.999 397.009 473.885C397.577 467.375 398.706 460.926 400.381 454.61L400.644 453.485C401.122 451.405 401.601 449.276 402.055 447.1C402.784 444.033 403.834 441.051 405.188 438.203C408.895 431.09 410.259 422.988 409.086 415.053C409.086 415.053 408.584 411.801 408.369 410.27C407.819 406.683 407.317 403.813 406.934 401.732C406.623 400.01 406.288 398.097 406.145 396.949L406.719 396.375C416.978 386.139 435.154 358.948 441.827 292.032C442.114 289.138 442.401 286.292 442.711 283.422C443.525 275.363 444.386 267.136 445.103 257.618C446.888 258.246 448.56 259.158 450.054 260.32C457.703 267.161 467.041 271.834 477.102 273.856C478.686 274.095 480.284 274.223 481.885 274.239L482.531 274.239C483.515 274.214 484.497 274.134 485.472 274C488.18 273.677 490.784 272.761 493.099 271.319C495.413 269.876 497.382 267.942 498.865 265.653C500.419 262.976 501.427 260.017 501.831 256.948C503.243 246.552 501.641 235.968 497.215 226.456ZM272.983 412.183C270.534 414.112 267.462 415.073 264.35 414.886C262.462 414.864 260.58 414.664 258.73 414.288C246.222 411.753 235.579 403.048 232.423 396.064C229.655 389.574 225.966 383.517 221.469 378.08L223 378.08C224.594 378.08 226.189 378.08 227.783 378.08C232.327 377.889 236.106 377.817 239.334 377.817C254.138 377.817 260.188 379.515 269.803 384.298C273.031 385.9 276.977 388.077 281.425 390.899C281.067 396.399 279.727 405.75 272.983 412.183ZM305.03 449.444C313.663 441.206 319.698 430.624 322.393 418.999C330.572 427.728 338.32 447.913 342.195 466.256C321.962 464.582 299.506 463.721 276.355 463.721C287.052 461.712 296.98 456.769 305.03 449.444Z" fill="white"/>
<path d="M276.284 519.612C353.393 519.612 415.902 509.879 415.902 497.873C415.902 485.866 353.393 476.133 276.284 476.133C199.174 476.133 136.665 485.866 136.665 497.873C136.665 509.879 199.174 519.612 276.284 519.612Z" fill="#8D8D8D"/>
<path d="M206.259 105.754L206.259 104.678C204.977 87.5837 198.398 71.3142 187.437 58.1337C176.476 44.9533 161.679 35.5176 145.105 31.1399C128.531 26.7622 111.005 27.6603 94.9651 33.709C78.9253 39.7578 65.1702 50.6564 55.614 64.8881C46.0578 79.1198 41.1759 95.9766 41.6478 113.112C42.1197 130.248 47.9219 146.811 58.2468 160.495C68.5717 174.179 82.9058 184.304 99.2542 189.461C115.603 194.618 133.152 194.55 149.46 189.267C162.45 185.061 174.192 177.696 183.634 167.832C193.076 157.969 199.921 145.916 203.557 132.755L203.844 131.727C204.001 131.155 204.304 130.634 204.723 130.214C205.142 129.795 205.663 129.492 206.235 129.335L207.264 129.048L207.407 129.048C207.622 129.048 224.148 125.006 235.149 122.184C224.531 116.755 208.459 108.6 208.244 108.505C207.703 108.258 207.235 107.875 206.887 107.393C206.539 106.911 206.322 106.346 206.259 105.754Z" fill="white" stroke="#30302F" stroke-width="6.90492" stroke-linecap="round" stroke-linejoin="round"/>
<path d="M173.662 343.905C176.054 333.525 184.089 334.841 190.571 335.869C193.244 336.414 195.977 336.614 198.702 336.467L202.409 336.06C212.89 335.511 223.089 332.469 232.16 327.188C247.609 318.291 250.574 308.582 267.124 309.873C267.124 306.573 266.717 261.683 271.07 230.521C221.35 223.442 211.042 205.673 203.7 190.2C200.142 182.849 198.749 174.637 199.682 166.524C199.849 165.115 200.262 163.747 200.902 162.482C201.429 161.717 202.123 161.081 202.93 160.621C203.738 160.161 204.638 159.89 205.566 159.827C206.043 159.802 206.522 159.802 207 159.827C208.09 159.805 209.179 159.885 210.253 160.066C217.989 161.702 225.157 165.348 231.036 170.637C239.741 178.099 258.203 179.366 263.274 179.366C263.018 178.505 262.803 177.708 262.628 176.975C262.14 174.835 261.947 172.638 262.054 170.446L262.054 170.207C262.437 168.509 265.952 153.466 269.755 149.113C269.861 148.898 269.949 148.674 270.018 148.443C253.66 131.153 233.427 90.8789 234.958 81.7431C236.584 71.6508 267.507 65.2893 283.697 64.1413C301.945 62.826 325.119 61.9889 327.821 61.9172C343.367 56.8471 360.107 56.7754 372.663 57.9233C383.018 55.8666 401.362 40.3694 421.929 16.4299C426.568 11.025 431.065 12.1969 432.81 13.5601L433.05 13.7514L433.193 14.0384C448.236 41.1586 449.288 73.1814 447.542 95.351C446.46 109.5 443.96 123.505 440.081 137.155C440.002 137.427 439.844 137.668 439.626 137.849C440.587 146.264 440.587 154.761 439.626 163.175C440.573 168.12 442.099 172.936 444.17 177.525C447.734 185.871 441.205 190.128 436.446 193.237L434.413 194.576C466.316 203.736 480.067 219.233 485.951 231.813C489.537 239.155 490.932 247.375 489.969 255.489C489.802 256.89 489.389 258.25 488.749 259.507C488.211 260.291 487.499 260.94 486.67 261.404C485.84 261.869 484.915 262.136 483.966 262.185L482.531 262.185C481.442 262.196 480.354 262.116 479.278 261.946C471.549 260.31 464.389 256.664 458.52 251.376C452.876 246.401 442.233 243.603 433.982 242.096L433.982 242.455C432.989 258.841 431.153 275.165 428.482 291.362C418.007 357.895 405.547 380.543 398.133 387.957C397.216 388.789 396.376 389.701 395.622 390.683C393.23 394.845 393.565 396.83 394.904 404.267C395.311 406.444 395.789 409.05 396.268 412.447C396.531 414.121 396.794 415.723 397.033 417.23C398.779 428.422 392.632 432.918 390.121 444.78C389.595 447.172 389.021 449.707 388.471 452.098C386.08 462.238 383.927 471.805 385.051 481.227C385.721 486.919 385.051 491.009 383.066 493.4C382.26 494.451 381.076 495.145 379.766 495.338C370.2 496.509 358.864 495.338 356.137 474.698C353.172 452.409 341.788 416.321 325.789 405.75C321.46 402.904 316.964 399.843 312.229 396.591C312.539 403.311 312.229 425.72 296.468 440.308C283.841 452.003 264.541 455.566 239.071 450.95C232.934 449.864 226.877 448.362 220.943 446.454C186.864 435.262 179.952 414.647 179.043 402.306C178.111 388.555 183.826 377.291 188.203 375.88C192.986 374.277 199.084 375.545 204.705 379.371C211.186 383.748 216.878 391.329 221.158 401.039C226.252 412.686 241.032 423.376 256.266 426.461C266.789 428.566 275.757 426.676 281.545 421.176C296.564 406.826 293.503 384.489 293.264 384.011C293.255 383.932 293.255 383.851 293.264 383.772C287.433 379.902 281.397 376.349 275.183 373.129C260.978 365.955 252.009 364.663 227.161 365.62C208.244 366.361 183.898 362.009 176.03 352.514C174.965 351.38 174.192 350.003 173.78 348.503C173.367 347.002 173.327 345.424 173.662 343.905Z" fill="#634F66"/>
<path d="M353.698 134.979C352.407 149.496 342.195 170.852 330.357 168.461C315.362 165.256 314.955 139.451 315.146 133.664C315.433 125.269 324.497 116.708 334.614 117.066C344.73 117.425 354.535 126.609 353.698 134.979Z" fill="#C9C9C9"/>
<path d="M443.883 45.1525C443.883 45.1525 434.317 21.237 430.467 24.609C426.616 27.9811 426.449 56.8471 426.449 56.8471L420.901 92.242C420.901 92.242 431.017 107.859 432.858 114.46C434.7 121.06 439.22 135.146 439.22 135.146C439.22 135.146 452.254 86.7415 444.912 54.8861L443.883 45.1525Z" fill="#F39A86"/>
<path d="M282.071 100.804C282.071 100.804 242.85 70.3833 241.439 86.0958C240.028 101.808 264.924 141.101 272.098 147.248C272.098 147.248 275.973 112.403 281.904 102.263L282.071 100.804Z" fill="#F39A86"/>
<path d="M339.923 130.435C339.923 130.435 335.737 153.442 332.078 152.987C326.745 152.342 329.089 131.033 329.041 129.455C330.075 129.498 331.096 129.214 331.959 128.641C332.708 127.997 333.508 127.413 334.35 126.896C334.35 126.896 337.483 130.555 339.923 130.435Z" fill="#B55D47"/>
<path d="M188.203 375.88C192.986 374.277 199.084 375.545 204.705 379.371C211.186 383.748 216.878 391.329 221.158 401.039C226.252 412.686 241.032 423.376 256.266 426.461C266.789 428.566 275.758 426.676 281.545 421.176C296.564 406.826 293.503 384.489 293.264 384.011C293.255 383.931 293.255 383.851 293.264 383.772C293.189 383.369 293.269 382.953 293.487 382.607C293.706 382.26 294.047 382.009 294.443 381.903C294.838 381.798 295.259 381.845 295.622 382.036C295.984 382.227 296.261 382.548 296.397 382.935C296.603 383.491 296.747 384.069 296.827 384.657C296.921 385.17 296.977 385.69 296.994 386.211C297.425 392.74 296.038 411.968 283.865 423.543C277.288 429.833 267.268 432.009 255.692 429.666C253.632 429.244 251.596 428.709 249.594 428.063C235.603 423.472 223 413.307 218.217 402.354C208.985 381.261 195.856 376.812 189.279 378.989C186.888 379.802 181.483 389.631 182.368 402.067C183.276 415.412 191.934 439.088 239.765 447.77C264.158 452.194 282.526 448.894 294.364 437.94C309.167 424.261 309.311 402.402 309.048 396.519C309.048 395.61 309.048 395.084 309.048 395.036C308.999 394.815 308.999 394.587 309.048 394.366C309.144 394.064 309.327 393.797 309.573 393.597C309.82 393.397 310.119 393.274 310.435 393.242C310.864 393.208 311.29 393.341 311.624 393.612C311.958 393.884 312.175 394.274 312.229 394.701L312.229 396.399L312.229 396.614C312.54 403.335 312.229 425.743 296.468 440.332C283.841 452.027 264.541 455.59 239.071 450.974C232.934 449.888 226.877 448.386 220.943 446.478C186.864 435.262 179.952 414.647 179.043 402.306C178.111 388.555 183.922 377.291 188.203 375.88Z" fill="#222323"/>
<path d="M302.065 107.404C299.257 106.651 296.526 105.634 293.909 104.367C293.568 104.126 293.334 103.761 293.258 103.35C293.183 102.939 293.27 102.514 293.503 102.167C293.74 101.827 294.101 101.594 294.508 101.518C294.915 101.442 295.336 101.529 295.679 101.76C296.062 102 304.384 107.476 317.203 102.932C317.583 102.845 317.981 102.901 318.322 103.089C318.663 103.277 318.922 103.585 319.049 103.953C319.177 104.321 319.164 104.723 319.013 105.082C318.862 105.441 318.584 105.732 318.231 105.898C318.231 105.898 307.23 108.911 302.065 107.404Z" fill="#222323"/>
<path d="M367.76 110.394C362.977 108.648 361.255 108.289 361.016 108.17C360.797 108.109 360.594 108 360.421 107.852C360.248 107.703 360.11 107.519 360.017 107.311C359.923 107.103 359.876 106.878 359.88 106.65C359.883 106.422 359.936 106.198 360.036 105.993C360.334 105.607 360.76 105.34 361.238 105.239C361.715 105.139 362.213 105.211 362.642 105.443C362.81 105.443 374.6 110.681 385.219 107.07C385.698 106.92 386.212 106.924 386.689 107.083C387.165 107.242 387.58 107.547 387.873 107.955C387.995 108.137 388.071 108.346 388.094 108.564C388.118 108.782 388.088 109.002 388.009 109.207C387.929 109.411 387.801 109.593 387.636 109.737C387.471 109.881 387.273 109.983 387.06 110.035C387.06 110.035 374.791 112.953 367.76 110.394Z" fill="#222323"/>
<path d="M337.34 119.051C337.34 120.151 335.857 120.988 334.135 120.917C332.413 120.845 331.026 119.912 331.05 118.812C331.074 117.712 332.533 116.875 334.255 116.923C335.977 116.971 337.388 117.927 337.34 119.051Z" fill="#222323"/>
<path d="M339.564 130.889C338.264 130.919 336.989 130.534 335.922 129.79C334.856 129.046 334.054 127.982 333.633 126.752C333.581 126.543 333.612 126.322 333.719 126.135C333.825 125.948 334 125.809 334.207 125.748C334.41 125.705 334.621 125.744 334.796 125.855C334.97 125.967 335.094 126.143 335.14 126.346C335.14 126.513 336.144 129.861 342.099 129.024C342.336 128.989 342.578 129.046 342.774 129.184C342.97 129.322 343.105 129.53 343.151 129.765C343.186 129.997 343.127 130.232 342.988 130.421C342.849 130.609 342.641 130.734 342.41 130.77C341.467 130.901 340.514 130.941 339.564 130.889Z" fill="#222323"/>
<path d="M331.959 153.944C331.763 153.908 331.585 153.809 331.451 153.662C331.317 153.516 331.235 153.329 331.217 153.131C331.2 153.031 331.205 152.929 331.23 152.831C331.255 152.733 331.301 152.641 331.364 152.562C331.428 152.483 331.507 152.418 331.597 152.372C331.687 152.326 331.786 152.299 331.887 152.294C336.072 152.294 338.703 130.626 338.703 130.579C338.712 130.467 338.743 130.359 338.796 130.26C338.848 130.161 338.92 130.074 339.008 130.005C339.095 129.935 339.196 129.884 339.304 129.855C339.412 129.827 339.525 129.82 339.636 129.837C339.866 129.861 340.078 129.975 340.226 130.154C340.374 130.333 340.445 130.563 340.425 130.794C340.425 131.105 337.651 153.944 332.078 153.968L331.959 153.944Z" fill="#222323"/>
<path d="M328.922 130.028C328.175 129.964 327.437 129.82 326.721 129.598C326.539 129.523 326.391 129.385 326.303 129.209C326.215 129.034 326.194 128.832 326.243 128.641C326.253 128.549 326.283 128.46 326.331 128.381C326.38 128.302 326.446 128.234 326.524 128.184C326.602 128.133 326.69 128.101 326.782 128.089C326.874 128.077 326.968 128.086 327.056 128.115C331.839 129.574 333.035 126.417 333.083 126.298C333.144 126.098 333.281 125.931 333.465 125.832C333.648 125.734 333.864 125.712 334.063 125.772C334.268 125.847 334.434 125.999 334.528 126.196C334.622 126.392 334.635 126.618 334.566 126.824C334.126 127.917 333.328 128.83 332.303 129.412C331.278 129.994 330.086 130.211 328.922 130.028Z" fill="#222323"/>
<path d="M331.385 153.872C326.458 152.342 328.324 130.172 328.324 129.957C328.317 129.764 328.386 129.576 328.515 129.433C328.645 129.291 328.825 129.204 329.017 129.191C329.214 129.209 329.397 129.3 329.529 129.447C329.662 129.593 329.736 129.783 329.735 129.981C329.735 129.981 327.869 151.242 331.648 152.366C331.861 152.432 332.043 152.572 332.161 152.76C332.28 152.949 332.327 153.174 332.294 153.394C332.266 153.486 332.221 153.571 332.16 153.645C332.1 153.719 332.025 153.78 331.94 153.825C331.855 153.869 331.763 153.896 331.667 153.904C331.572 153.913 331.476 153.902 331.385 153.872Z" fill="#222323"/>
<path d="M296.301 127.804C296.457 127.802 296.609 127.755 296.74 127.671C296.871 127.586 296.976 127.467 297.042 127.326C297.123 127.127 297.128 126.906 297.058 126.704C296.987 126.502 296.846 126.332 296.66 126.226C292.147 124.095 287.104 123.346 282.167 124.074C281.98 124.14 281.823 124.27 281.723 124.441C281.623 124.612 281.587 124.813 281.621 125.008C281.656 125.203 281.758 125.38 281.911 125.507C282.063 125.633 282.256 125.702 282.454 125.7C287.065 125.072 291.76 125.769 295.99 127.709C296.079 127.776 296.189 127.81 296.301 127.804Z" fill="#222323"/>
<path d="M281.975 134.19C282.116 134.232 282.266 134.232 282.406 134.19C286.298 132.113 290.603 130.929 295.009 130.722C295.223 130.704 295.421 130.604 295.564 130.444C295.706 130.284 295.782 130.075 295.775 129.861C295.775 129.755 295.754 129.651 295.712 129.553C295.671 129.456 295.611 129.368 295.535 129.294C295.459 129.221 295.369 129.163 295.271 129.125C295.172 129.087 295.067 129.069 294.962 129.072C290.287 129.264 285.721 130.533 281.617 132.779C281.437 132.897 281.309 133.077 281.256 133.285C281.202 133.493 281.229 133.713 281.33 133.903C281.409 133.996 281.508 134.07 281.62 134.12C281.732 134.17 281.853 134.194 281.975 134.19Z" fill="#222323"/>
<path d="M386.988 127.111C386.829 127.109 386.674 127.057 386.545 126.963C386.417 126.868 386.321 126.736 386.271 126.585C386.199 126.384 386.205 126.164 386.29 125.969C386.374 125.773 386.53 125.617 386.725 125.532C391.365 123.703 396.445 123.303 401.314 124.384C401.526 124.435 401.71 124.568 401.824 124.754C401.939 124.941 401.974 125.164 401.924 125.377C401.873 125.589 401.74 125.773 401.554 125.887C401.368 126.002 401.144 126.038 400.931 125.987C396.378 125.032 391.646 125.405 387.299 127.063C387.2 127.1 387.094 127.117 386.988 127.111Z" fill="#222323"/>
<path d="M400.812 134.477C400.678 134.511 400.538 134.511 400.405 134.477C396.664 132.075 392.43 130.546 388.017 130.005C387.805 129.975 387.613 129.863 387.483 129.693C387.354 129.523 387.296 129.308 387.323 129.096C387.329 128.99 387.356 128.886 387.403 128.791C387.45 128.696 387.516 128.611 387.596 128.542C387.677 128.473 387.77 128.421 387.871 128.388C387.972 128.356 388.079 128.345 388.184 128.354C392.823 128.882 397.281 130.461 401.218 132.97C401.392 133.099 401.51 133.289 401.55 133.502C401.59 133.715 401.548 133.935 401.433 134.118C401.37 134.227 401.28 134.318 401.171 134.381C401.061 134.444 400.938 134.477 400.812 134.477Z" fill="#222323"/>
<path d="M372.448 57.9472L372.615 57.9472C382.971 55.8905 401.314 40.3933 421.881 16.4539C426.521 11.049 431.017 12.2208 432.763 13.584L433.002 13.7753L433.145 14.0623C448.188 41.1825 449.24 73.2053 447.495 95.375C446.412 109.524 443.913 123.529 440.033 137.179C439.954 137.451 439.796 137.692 439.579 137.873C439.421 138.032 439.229 138.153 439.018 138.228C438.807 138.303 438.582 138.328 438.359 138.303C438.257 138.328 438.15 138.328 438.048 138.303C437.643 138.162 437.311 137.867 437.123 137.482C436.935 137.096 436.906 136.653 437.044 136.247C437.044 136.247 437.522 134.692 438.215 132.061C438.335 131.655 438.431 131.224 438.55 130.77C441.454 119.094 443.398 107.2 444.362 95.2076C445.773 77.7732 445.366 54.049 437.498 31.6641C435.654 26.3512 433.374 21.1999 430.682 16.2625C429.917 15.856 427.501 15.0428 424.249 18.8215C415.496 29.0334 395.407 51.2031 379.886 58.9517C377.714 60.0506 375.406 60.8549 373.022 61.3432C372.802 61.3705 372.579 61.3505 372.368 61.2847C372.157 61.2188 371.962 61.1087 371.797 60.9615C371.631 60.8144 371.5 60.6336 371.41 60.4314C371.32 60.2291 371.274 60.01 371.276 59.7887C371.228 59.3936 371.319 58.9943 371.533 58.6586C371.747 58.3228 372.07 58.0715 372.448 57.9472Z" fill="#222323"/>
<path d="M420.327 93.94C420.748 93.9801 421.168 93.8516 421.496 93.5828C421.823 93.3139 422.03 92.9264 422.072 92.5051C422.072 92.0029 428.314 42.7848 429.247 32.262C429.725 26.6897 430.969 26.0679 430.969 26.0679C430.969 26.0679 431.352 26.0679 431.376 26.0679C431.529 26.207 431.71 26.313 431.906 26.3791C432.103 26.4452 432.311 26.47 432.517 26.4521C432.724 26.4341 432.925 26.3737 433.107 26.2747C433.289 26.1757 433.448 26.0401 433.576 25.8766C433.725 25.7098 433.838 25.515 433.911 25.3035C433.983 25.0921 434.012 24.8684 433.996 24.6455C433.981 24.4226 433.921 24.2051 433.82 24.0058C433.719 23.8065 433.579 23.6294 433.408 23.485C432.93 23.0455 432.336 22.7513 431.697 22.637C431.057 22.5226 430.398 22.5928 429.797 22.8393C427.717 23.7481 426.545 26.594 426.114 31.8076C425.205 42.2826 418.94 91.405 418.94 91.9072C418.905 92.1162 418.913 92.3298 418.962 92.5358C419.011 92.7418 419.101 92.936 419.225 93.1072C419.35 93.2785 419.507 93.4233 419.688 93.5334C419.869 93.6435 420.07 93.7167 420.279 93.7487L420.327 93.94Z" fill="#222323"/>
<path d="M316.892 66.4611L318.686 65.5524C321.627 64.1318 324.664 62.9171 327.774 61.9172C343.319 56.8471 360.06 56.7754 372.615 57.9233C375.222 58.1625 377.637 58.4495 379.79 58.7604C384.03 59.3331 388.238 60.1314 392.393 61.1519C392.804 61.2691 393.151 61.5429 393.362 61.9143C393.572 62.2856 393.628 62.7247 393.517 63.1369C393.472 63.3427 393.387 63.5376 393.266 63.7104C393.145 63.8831 392.991 64.0304 392.814 64.1437C392.636 64.257 392.438 64.3341 392.23 64.3706C392.023 64.4072 391.81 64.4024 391.604 64.3566C391.174 64.237 348.556 53.6664 318.231 69.4745C317.961 69.6207 317.652 69.6792 317.346 69.6419C317.082 69.6099 316.83 69.5091 316.616 69.3497C316.402 69.1903 316.233 68.9778 316.127 68.7331C315.928 68.3302 315.897 67.8649 316.04 67.439C316.183 67.0131 316.49 66.6615 316.892 66.4611Z" fill="#222323"/>
<path d="M234.958 81.7431C236.584 71.6508 267.507 65.2893 283.697 64.1413C301.945 62.826 325.119 61.9889 327.822 61.9172L328.085 61.9172C328.296 61.914 328.506 61.9532 328.702 62.0326C328.897 62.112 329.075 62.2299 329.225 62.3793C329.374 62.5288 329.492 62.7067 329.572 62.9025C329.651 63.0984 329.69 63.3082 329.687 63.5195C329.707 63.947 329.557 64.365 329.27 64.6828C328.984 65.0007 328.584 65.1928 328.156 65.2175C328.156 65.2175 324.354 65.2175 318.734 65.5763C309.694 65.9589 295.727 66.6046 283.865 67.4417C261.695 69.044 239.023 76.3861 238.067 82.2932C237.517 85.6174 241.75 96.9534 248.255 109.724C254.76 122.495 248.255 109.724 248.255 109.892C254.378 122.276 261.957 133.885 270.831 144.473L272.314 146.076L272.959 146.769C273.123 146.98 273.233 147.227 273.279 147.49C273.325 147.753 273.306 148.023 273.223 148.276C273.166 148.58 273.025 148.862 272.816 149.089C272.675 149.244 272.503 149.367 272.312 149.451C272.12 149.536 271.913 149.579 271.704 149.579C271.495 149.579 271.288 149.536 271.096 149.451C270.905 149.367 270.733 149.244 270.592 149.089L269.97 148.443C253.66 131.153 233.427 90.8788 234.958 81.7431Z" fill="#222323"/>
<path d="M282.43 102.358C282.711 102.393 282.997 102.348 283.254 102.23C283.512 102.112 283.731 101.924 283.889 101.689C284.158 101.326 284.274 100.872 284.211 100.424C284.148 99.977 283.912 99.5721 283.554 99.2971C280.636 97.1208 254.855 77.9406 245.289 79.9734C244.597 80.1043 243.942 80.3866 243.372 80.8C242.801 81.2135 242.329 81.7478 241.989 82.3649C241.861 82.5537 241.772 82.7663 241.728 82.99C241.684 83.2138 241.685 83.4442 241.732 83.6674C241.779 83.8906 241.87 84.102 242.001 84.2892C242.131 84.4763 242.298 84.6352 242.491 84.7565C242.67 84.8644 242.868 84.9359 243.075 84.9667C243.281 84.9974 243.492 84.9869 243.694 84.9358C243.897 84.8846 244.087 84.7938 244.254 84.6686C244.421 84.5434 244.561 84.3863 244.667 84.2064C244.797 83.9926 244.975 83.812 245.186 83.6791C245.398 83.5462 245.638 83.4647 245.887 83.4411C252.799 81.9584 274.06 96.4751 281.76 102.215C281.97 102.313 282.199 102.362 282.43 102.358Z" fill="#222323"/>
<path d="M383.018 214.522C389.739 213.229 396.328 211.324 402.701 208.83C419.107 203.282 428.099 196.107 429.917 194.098C431.352 192.65 432.958 191.381 434.7 190.319C440.105 186.804 443.477 184.101 441.229 178.792C438.967 173.873 437.359 168.679 436.446 163.343L436.446 162.96C438.225 145.339 436.009 127.543 429.965 110.896C429.818 110.544 429.793 110.154 429.893 109.786C429.992 109.418 430.211 109.093 430.515 108.863L430.802 108.72C430.99 108.63 431.196 108.581 431.404 108.576C431.613 108.57 431.821 108.607 432.014 108.686C432.207 108.765 432.382 108.883 432.528 109.033C432.673 109.183 432.786 109.361 432.858 109.557C435.431 116.368 437.322 123.418 438.502 130.602C438.765 132.037 438.981 133.568 439.196 135.146C439.316 136.007 439.435 136.892 439.531 137.777C440.491 146.192 440.491 154.689 439.531 163.104C440.478 168.048 442.003 172.864 444.075 177.453C447.638 185.799 441.109 190.056 436.35 193.165L434.317 194.505C433.515 195.041 432.77 195.658 432.093 196.346C431.876 196.606 431.645 196.854 431.399 197.088C428.381 199.799 425.059 202.15 421.498 204.095C420.638 204.597 419.705 205.099 418.748 205.601C416.357 206.869 413.559 208.16 410.473 209.428L407.436 210.624C406.408 211.006 405.356 211.389 404.255 211.748C400.835 213.135 397.392 214.378 393.972 215.455L390.863 216.387C388.471 217.057 386.08 217.631 383.688 218.109C383.498 218.144 383.304 218.144 383.114 218.109C382.667 218.079 382.247 217.884 381.934 217.563C381.622 217.241 381.439 216.816 381.421 216.368C381.404 215.92 381.552 215.482 381.838 215.136C382.124 214.791 382.527 214.564 382.971 214.498L383.018 214.522Z" fill="#222323"/>
<path d="M262.054 170.493L262.054 170.254C262.437 168.556 265.952 153.514 269.755 149.161C269.861 148.945 269.949 148.721 270.018 148.491C270.253 147.555 270.428 146.604 270.544 145.645C270.544 145.263 270.544 144.88 270.711 144.473C270.879 143.23 271.046 141.843 271.214 140.503C272.362 130.937 274.179 115.56 280.588 101.258C280.756 100.876 280.947 100.493 281.139 100.11C281.426 99.4884 281.712 98.8666 282.023 98.2687C287.747 86.1174 297.57 76.3713 309.765 70.742C309.956 70.6569 310.162 70.6118 310.371 70.6094C310.58 70.607 310.787 70.6474 310.98 70.728C311.172 70.8087 311.347 70.9279 311.491 71.0784C311.636 71.2288 311.749 71.4074 311.822 71.603C311.981 72.0046 311.983 72.4513 311.828 72.8544C311.673 73.2575 311.372 73.5876 310.985 73.7793C280.684 87.5068 276.379 123.547 274.323 140.862C273.916 144.258 273.629 146.626 273.27 148.276C273.145 149.383 272.732 150.438 272.075 151.337C269.324 154.494 266.167 166.356 265.139 170.852C265.106 173.39 265.478 175.917 266.239 178.338C266.239 178.768 266.502 179.199 266.646 179.653C267.827 183.096 269.555 186.326 271.764 189.219C276.092 194.983 283.913 201.847 297.927 207.204C299.697 207.754 301.515 208.304 303.5 208.83C303.925 208.97 304.286 209.26 304.513 209.647C304.74 210.033 304.818 210.489 304.733 210.929C304.648 211.369 304.406 211.763 304.051 212.037C303.696 212.311 303.253 212.446 302.806 212.417L302.543 212.417C300.462 211.867 298.525 211.293 296.636 210.695C296.264 210.571 295.945 210.327 295.727 210.002L295.368 209.858C292.833 208.863 290.35 207.738 287.931 206.486C286.591 205.793 285.3 205.075 284.08 204.334C280.743 202.357 277.625 200.032 274.777 197.398C273.988 196.681 273.222 195.916 272.385 195.174C271.18 193.882 270.047 192.525 268.989 191.109C267.059 188.55 265.453 185.763 264.206 182.81C263.903 182.061 263.64 181.343 263.417 180.658C263.274 180.275 263.154 179.892 263.058 179.534C262.803 178.673 262.588 177.875 262.413 177.142C261.986 174.953 261.865 172.716 262.054 170.493Z" fill="#222323"/>
<path d="M354.535 217.224C354.95 217.249 355.338 217.436 355.615 217.745C355.893 218.054 356.038 218.46 356.018 218.875C355.987 219.291 355.795 219.679 355.482 219.956C355.17 220.233 354.761 220.377 354.344 220.357C344.515 219.759 331.122 218.396 323.254 215.431C322.864 215.281 322.55 214.983 322.38 214.602C322.209 214.221 322.197 213.788 322.345 213.398C322.403 213.239 322.493 213.092 322.608 212.967C322.816 212.713 323.099 212.531 323.416 212.445C323.734 212.359 324.07 212.375 324.378 212.489C324.378 212.489 334.47 214.881 339.134 215.789C343.797 216.698 354.535 217.224 354.535 217.224Z" fill="#222323"/>
<path d="M173.662 343.905C176.054 333.525 184.089 334.841 190.571 335.869C193.245 336.414 195.977 336.614 198.702 336.467L202.409 336.06C212.89 335.511 223.089 332.469 232.16 327.188C247.609 318.291 250.575 308.582 267.124 309.873C267.124 306.573 266.717 261.683 271.07 230.521C271.238 229.421 271.381 228.345 271.548 227.293C272.392 220.767 273.94 214.353 276.164 208.16C276.427 207.467 276.714 206.773 277.001 206.056C277.166 205.656 277.483 205.339 277.882 205.173C278.281 205.007 278.73 205.006 279.13 205.171C279.529 205.336 279.847 205.653 280.013 206.052C280.179 206.451 280.179 206.9 280.014 207.299C266.789 239.585 270.448 311.093 270.448 311.164C270.528 311.416 270.544 311.683 270.494 311.942C270.444 312.201 270.329 312.444 270.161 312.647C269.986 312.858 269.761 313.021 269.506 313.122C269.251 313.222 268.974 313.256 268.702 313.221C252.512 311.427 249.259 320.994 233.714 329.962C224.222 335.454 213.573 338.64 202.624 339.265C201.356 339.385 200.232 339.504 198.965 339.672C195.944 339.859 192.912 339.642 189.949 339.026C182.583 337.854 178.326 337.543 176.723 344.598C176.501 345.619 176.532 346.678 176.816 347.683C177.1 348.689 177.626 349.608 178.35 350.362C184.568 357.871 205.876 363.109 226.85 362.32C252.368 361.315 261.647 362.798 276.451 370.164C287.046 375.425 300.367 384.513 313.209 393.314C318.255 396.758 323.015 400.01 327.558 403.048C337.268 409.433 344.443 423.591 348.748 434.353C353.83 447.197 357.385 460.594 359.342 474.268C361.734 492.683 370.965 493.137 379.359 492.109C387.754 491.081 382.851 490.961 381.751 481.634C380.555 471.637 382.827 461.808 385.219 451.381C385.769 448.989 386.319 446.598 386.845 444.206C389.237 432.942 395.502 429.068 393.733 417.899C393.493 416.393 393.23 414.79 392.991 413.116C392.489 409.864 392.011 407.185 391.628 405.033C390.289 397.547 389.715 394.438 392.752 389.248C393.615 387.998 394.618 386.851 395.742 385.829C404.614 377.004 424.321 350.171 430.634 242.336C430.646 242.121 430.646 241.905 430.634 241.69L430.634 241.546C430.701 241.144 430.914 240.781 431.232 240.526C431.55 240.272 431.952 240.144 432.358 240.168C432.765 240.192 433.149 240.365 433.436 240.655C433.722 240.945 433.891 241.331 433.911 241.738L433.911 242.24L433.911 242.599C432.715 262.449 431.089 276.391 429.582 291.315C423.125 356.197 405.475 380.687 398.061 388.101C397.144 388.932 396.304 389.845 395.55 390.827C393.159 394.988 393.493 396.973 394.833 404.411C395.239 406.587 395.718 409.194 396.196 412.59C396.459 414.264 396.722 415.866 396.961 417.373C398.707 428.566 392.561 433.062 390.05 444.924C389.524 447.315 388.95 449.85 388.399 452.242C386.008 462.382 383.856 471.948 384.98 481.371C385.649 487.063 384.98 491.152 382.995 493.544C382.188 494.594 381.004 495.289 379.694 495.481C370.128 496.653 358.792 495.481 356.066 474.842C353.1 452.553 341.716 416.464 325.717 405.894C321.388 403.048 316.892 399.986 312.157 396.734L311.296 396.16L308.904 394.486C304.863 391.712 300.773 388.961 296.779 386.307C295.536 385.462 294.292 384.665 293.048 383.915C287.218 380.045 281.182 376.492 274.968 373.273C260.763 366.098 251.794 364.807 226.946 365.763C208.029 366.505 183.683 362.152 175.815 352.658C174.764 351.488 174.018 350.077 173.643 348.551C173.268 347.024 173.274 345.428 173.662 343.905Z" fill="#222323"/>
<path d="M421.068 239.155C421.055 238.941 421.084 238.727 421.154 238.525C421.224 238.323 421.334 238.136 421.476 237.976C421.618 237.816 421.79 237.686 421.983 237.593C422.176 237.499 422.385 237.445 422.599 237.433C423.268 237.433 449.791 239.322 460.863 249.008C468.923 256.183 478.8 259.626 483.703 258.933C484.159 258.907 484.606 258.791 485.017 258.589C485.428 258.388 485.794 258.106 486.094 257.761C487.075 256.183 488.916 245.612 483.105 233.176C477.293 220.74 463.661 205.673 431.495 197.064C430.802 196.848 430.084 196.657 429.367 196.49L431.758 193.739L434.485 194.481C466.388 203.64 480.139 219.138 486.022 231.717C489.609 239.059 491.004 247.279 490.04 255.393C489.874 256.794 489.461 258.154 488.821 259.411C488.282 260.195 487.571 260.844 486.742 261.308C485.912 261.773 484.987 262.04 484.037 262.09L482.603 262.09C481.514 262.1 480.426 262.02 479.35 261.851C471.621 260.214 464.461 256.568 458.591 251.28C452.947 246.306 442.305 243.507 434.054 242.001L430.826 241.475C426.042 240.733 422.79 240.494 422.742 240.494C422.348 240.512 421.961 240.386 421.653 240.139C421.345 239.893 421.137 239.543 421.068 239.155Z" fill="#222323"/>
<path d="M199.682 166.524C199.849 165.115 200.262 163.747 200.902 162.482C201.429 161.717 202.123 161.081 202.93 160.621C203.738 160.161 204.639 159.89 205.566 159.827C206.044 159.802 206.523 159.802 207 159.827C208.09 159.805 209.179 159.885 210.253 160.066C217.989 161.702 225.157 165.348 231.036 170.637C239.741 178.099 258.204 179.366 263.274 179.366L264.565 179.366C264.996 179.344 265.419 179.494 265.74 179.783C266.06 180.073 266.253 180.477 266.275 180.909C266.297 181.34 266.147 181.762 265.858 182.083C265.569 182.404 265.164 182.596 264.732 182.619L264.422 182.619C261.504 182.619 239.262 182.021 228.859 172.837C220.824 165.663 210.947 162.219 206.044 162.936C205.585 162.952 205.135 163.064 204.723 163.266C204.31 163.468 203.946 163.755 203.652 164.108C202.648 165.686 200.83 176.257 206.642 188.693C213.434 203.521 223.239 220.429 271.548 227.197L272.696 227.365C272.909 227.394 273.113 227.465 273.298 227.573C273.482 227.682 273.644 227.826 273.773 227.997C273.901 228.168 273.995 228.363 274.049 228.57C274.102 228.778 274.114 228.994 274.083 229.206C274.013 229.618 273.788 229.988 273.455 230.241C273.122 230.494 272.706 230.612 272.29 230.569L271.094 230.402C221.35 223.442 211.042 205.673 203.7 190.2C200.142 182.849 198.749 174.637 199.682 166.524Z" fill="#222323"/>
<path d="M287.835 282.203C285.73 297.317 285.3 318.076 288.887 332.21C292.474 346.344 293.216 353.375 316.438 358.517C342.745 364.233 349.369 360.143 357.094 340.006C362.714 325.37 369.052 312.647 371.443 297.652C373.668 283.733 376.226 269.767 370.511 256.231C366.134 246.066 354.99 236.285 345.232 231.526C331.624 224.877 308.354 227.699 298.238 239.848C289.222 250.73 289.676 268.93 287.835 282.203Z" fill="#C9C9C9"/>
<path d="M68.2189 131.918C67.4624 132.557 66.5067 132.912 65.5165 132.922C64.5597 132.915 63.6427 132.538 62.9575 131.87C62.5604 131.487 62.2469 131.025 62.037 130.515C61.8271 130.005 61.7252 129.456 61.7378 128.904L60.2073 92.1225C60.1776 91.6313 60.2589 91.1398 60.4452 90.6843C60.6315 90.2289 60.918 89.8213 61.2835 89.4918C61.9929 88.7808 62.8879 88.2836 63.8663 88.0568C64.7961 87.8352 65.7748 87.9629 66.6166 88.4156C67.078 88.6876 67.46 89.0759 67.7244 89.5417C67.9888 90.0075 68.1263 90.5346 68.1233 91.0702C68.3864 93.4617 68.5538 95.5902 68.6255 97.7665C68.6973 99.9428 68.7451 102.143 68.7929 104.343C70.2969 103.244 71.9916 102.433 73.7913 101.952C75.4619 101.509 77.2101 101.444 78.9092 101.76C80.6126 102.124 82.2088 102.877 83.5727 103.961C85.1516 105.239 86.3986 106.88 87.2078 108.744C87.907 110.156 88.3984 111.663 88.6667 113.216C88.9546 114.797 89.1383 116.394 89.2167 117.999C89.2167 119.649 89.3602 121.299 89.3602 122.926C89.3602 124.552 89.3602 126.106 89.3602 127.565C89.4115 128.461 89.1951 129.352 88.7384 130.124C88.3283 130.85 87.7236 131.446 86.9926 131.846C86.2634 132.246 85.4238 132.397 84.601 132.277C83.6552 132.156 82.7954 131.666 82.2095 130.913C81.5032 130.028 81.0414 128.972 80.8702 127.852C80.6505 126.597 80.5544 125.323 80.5833 124.05C80.5833 122.71 80.5832 121.323 80.7028 119.912C80.7995 118.551 80.7995 117.184 80.7028 115.823C80.6499 114.654 80.416 113.5 80.0093 112.403C79.5106 111.295 78.6732 110.374 77.6177 109.772C76.811 109.667 75.9907 109.757 75.2262 110.035C74.5405 110.313 73.9091 110.71 73.3608 111.207C72.7934 111.735 72.2733 112.311 71.8063 112.929L70.3235 114.866C70.1968 115.092 70.0529 115.308 69.893 115.512L69.3191 116.158L69.9409 128.713C69.8114 129.966 69.1926 131.118 68.2189 131.918Z" fill="#30302F"/>
<path d="M118.609 119.577C119.519 119.272 120.495 119.222 121.431 119.434C122.19 119.58 122.876 119.986 123.368 120.582C123.84 121.17 124.087 121.908 124.062 122.663C123.99 123.644 123.632 124.584 123.033 125.365C122.393 126.202 121.577 126.888 120.642 127.374C119.739 127.894 118.804 128.357 117.844 128.761C115.882 129.584 113.848 130.225 111.769 130.674C109.968 131.052 108.117 131.125 106.292 130.889C104.599 130.642 102.972 130.057 101.509 129.168C99.8462 128.135 98.387 126.805 97.2045 125.245C96.2497 124.06 95.5275 122.705 95.076 121.252C94.5889 119.748 94.2916 118.189 94.1912 116.612C94.0696 115.016 94.1338 113.41 94.3825 111.829C94.6108 110.383 95.0123 108.97 95.5783 107.62C96.373 105.928 97.5328 104.433 98.9743 103.243C102.176 100.528 106.132 98.8589 110.31 98.4601C112.191 98.2419 114.096 98.4883 115.859 99.1775C117.204 99.7518 118.404 100.618 119.374 101.713C120.327 102.797 121.044 104.067 121.479 105.443C121.888 106.783 121.978 108.2 121.742 109.581C121.486 111.05 120.794 112.408 119.757 113.479C118.738 114.596 117.552 115.548 116.241 116.301C114.935 117.036 113.585 117.691 112.2 118.262C110.8 118.831 109.371 119.326 107.919 119.745C106.46 120.151 105.049 120.606 103.71 121.108C104.571 122.061 105.708 122.721 106.962 122.997C108.202 123.237 109.477 123.237 110.717 122.997C112.059 122.75 113.362 122.323 114.591 121.73C115.848 121.163 117.063 120.508 118.226 119.769L118.609 119.577ZM104.786 108.744C103.866 109.277 103.113 110.055 102.609 110.992C102.103 112.152 101.796 113.389 101.701 114.651L105.527 113.359C106.962 112.913 108.301 112.435 109.545 111.924C110.661 111.52 111.728 110.99 112.726 110.346C113.587 109.772 114.017 109.174 113.993 108.576C113.97 108.225 113.898 107.879 113.778 107.548C113.722 107.386 113.627 107.241 113.502 107.124C113.377 107.008 113.225 106.923 113.06 106.878C111.802 106.519 110.468 106.519 109.21 106.878C108.058 107.127 106.953 107.555 105.934 108.146L104.786 108.744Z" fill="#30302F"/>
<path d="M137.55 123.547C138.079 124.012 138.517 124.572 138.841 125.198C139.181 125.827 139.392 126.518 139.463 127.23C139.503 127.898 139.371 128.565 139.08 129.168C138.696 129.827 138.096 130.333 137.382 130.603C136.683 130.841 135.938 130.915 135.206 130.818C134.378 130.713 133.571 130.479 132.815 130.124C132.054 129.777 131.346 129.327 130.71 128.785C130.127 128.306 129.661 127.701 129.347 127.015C129.227 126.783 129.146 126.532 129.108 126.274C129.089 126.019 129.089 125.763 129.108 125.508L127.577 88.7743C127.532 88.2851 127.594 87.7919 127.759 87.3292C127.924 86.8666 128.189 86.4456 128.534 86.0958C129.18 85.4168 130.012 84.9428 130.925 84.7326C131.408 84.6896 131.895 84.7383 132.36 84.8761C132.881 85.0367 133.374 85.2789 133.819 85.5936C134.266 85.8779 134.649 86.2526 134.943 86.6937C135.241 87.0886 135.416 87.5629 135.445 88.0568C135.445 89.2048 135.445 90.7354 135.637 92.6247C135.828 94.514 135.804 96.5947 135.924 98.8427C136.043 101.091 136.139 103.435 136.258 105.826C136.378 108.218 136.426 110.609 136.498 112.738C136.569 114.866 136.641 116.971 136.713 118.812C136.785 120.654 136.713 122.089 136.713 123.213L137.55 123.547Z" fill="#30302F"/>
<path d="M156.037 122.782C156.566 123.247 157.004 123.807 157.328 124.432C157.679 125.057 157.891 125.751 157.95 126.465C158.002 127.134 157.87 127.804 157.567 128.402C157.188 129.06 156.586 129.561 155.869 129.813C155.176 130.077 154.427 130.159 153.693 130.052C152.864 129.947 152.058 129.713 151.301 129.359C150.546 129.003 149.839 128.553 149.197 128.02C148.614 127.541 148.148 126.936 147.834 126.25C147.733 126.002 147.653 125.746 147.594 125.485C147.574 125.238 147.574 124.99 147.594 124.743L145.873 88.009C145.847 87.5204 145.927 87.0321 146.109 86.5778C146.291 86.1235 146.569 85.7142 146.925 85.3783C147.571 84.6994 148.403 84.2254 149.316 84.0151C149.799 83.9698 150.287 84.0185 150.751 84.1586C151.269 84.3161 151.761 84.5498 152.21 84.8522C152.653 85.1594 153.042 85.5395 153.358 85.9762C153.639 86.3782 153.805 86.8498 153.836 87.3394C153.836 88.4873 153.956 90.0179 154.028 91.9072C154.099 93.7966 154.195 95.8772 154.315 98.1253C154.434 100.373 154.554 102.693 154.65 105.109C154.745 107.524 154.841 109.892 154.889 112.02C154.937 114.149 155.032 116.253 155.128 118.071C155.223 119.888 155.128 121.371 155.247 122.495L156.037 122.782Z" fill="#30302F"/>
<path d="M161.537 110.824C161.806 109.517 162.19 108.237 162.685 106.998C163.172 105.722 163.797 104.503 164.55 103.363C165.294 102.226 166.143 101.161 167.085 100.182C168.013 99.2426 169.068 98.4376 170.218 97.7904C172.063 96.7081 174.135 96.0695 176.269 95.925C178.241 95.7956 180.215 96.1315 182.033 96.9056C183.851 97.6893 185.452 98.9041 186.696 100.445C188.084 102.14 189.051 104.14 189.518 106.28C189.779 107.688 189.955 109.109 190.044 110.537C190.276 114.239 189.339 117.92 187.366 121.06C186.165 123.111 184.601 124.926 182.75 126.417C180.99 127.852 178.931 128.873 176.723 129.407C174.447 129.946 172.054 129.675 169.955 128.641C168.966 128.207 168.021 127.678 167.133 127.063C166.244 126.446 165.44 125.714 164.742 124.887C163.971 124.008 163.327 123.026 162.829 121.969C162.37 120.91 161.979 119.824 161.657 118.716C161.307 117.505 161.145 116.246 161.178 114.986C161.22 113.754 161.323 112.524 161.489 111.303L161.537 110.824ZM169.549 111.877C169.549 112.594 169.357 113.288 169.286 113.981C169.202 114.672 169.202 115.371 169.286 116.062C169.433 117.029 169.758 117.962 170.242 118.812C170.645 119.586 171.237 120.244 171.964 120.725C172.679 121.176 173.511 121.409 174.356 121.395C175.358 121.336 176.325 121.006 177.154 120.438C178.496 119.522 179.582 118.279 180.311 116.827C181.16 115.293 181.681 113.599 181.841 111.853C181.994 110.222 181.739 108.578 181.1 107.07C180.778 106.322 180.297 105.655 179.689 105.114C179.082 104.572 178.364 104.171 177.584 103.937C176.537 103.975 175.51 104.236 174.571 104.702C173.673 105.132 172.863 105.724 172.179 106.448C171.516 107.165 170.952 107.97 170.505 108.839C170.078 109.814 169.757 110.833 169.549 111.877Z" fill="#30302F"/>
</g>
<defs>
<clipPath id="clip0_1_1644">
<rect width="532" height="532" fill="white"/>
</clipPath>
</defs>
</svg>
