<svg width="64" height="64" viewBox="0 0 64 64" fill="none" xmlns="http://www.w3.org/2000/svg">
<path d="M28.1591 32.439C37.1711 32.4385 40.4136 23.4151 41.2625 16.003C42.3081 6.87216 37.9902 0 28.1591 0C18.3292 0 14.0091 6.87163 15.0556 16.003C15.9053 23.4151 19.1469 32.4396 28.1591 32.439Z" fill="#00AF74"/>
<path d="M47.8647 36.195C48.1547 36.195 48.4428 36.2037 48.7289 36.2196C48.3001 35.6079 47.8036 35.0682 47.2227 34.6345C45.4911 33.342 43.2484 32.918 41.2657 32.1389C40.3006 31.7598 39.4364 31.3832 38.6251 30.9545C35.8869 33.9573 32.3162 35.5282 28.1581 35.5286C24.0013 35.5286 20.4309 33.9578 17.693 30.9545C16.8817 31.3833 16.0173 31.7598 15.0524 32.1389C13.0697 32.9181 10.8271 33.342 9.09536 34.6345C6.10054 36.8698 5.32658 41.8983 4.71848 45.3283C4.21662 48.1598 3.87947 51.0493 3.78106 53.9253C3.70483 56.1531 4.80475 56.4655 6.66849 57.138C9.00208 57.9796 11.4116 58.6045 13.8373 59.1167C18.522 60.1059 23.3508 60.8661 28.1589 60.9001C30.4886 60.8835 32.823 60.6955 35.1437 60.3947C33.4254 57.9051 32.4176 54.8893 32.4176 51.6423C32.4177 43.1245 39.3472 36.195 47.8647 36.195Z" fill="#00AF74"/>
<path d="M47.8647 39.2845C41.0399 39.2845 35.507 44.8175 35.507 51.6422C35.507 58.467 41.0398 64 47.8647 64C54.6896 64 60.2226 58.467 60.2226 51.6422C60.2225 44.8174 54.6895 39.2845 47.8647 39.2845ZM53.2712 53.7624H49.985V57.0486C49.985 58.2196 49.0357 59.1689 47.8648 59.1689C46.6938 59.1689 45.7444 58.2196 45.7444 57.0486V53.7624H42.4583C41.2872 53.7624 40.3379 52.8132 40.3379 51.642C40.3379 50.471 41.2871 49.5217 42.4583 49.5217H45.7444V46.2355C45.7444 45.0645 46.6938 44.1151 47.8648 44.1151C49.0358 44.1151 49.985 45.0645 49.985 46.2355V49.5217H53.2712C54.4423 49.5217 55.3916 50.471 55.3916 51.642C55.3915 52.8133 54.4424 53.7624 53.2712 53.7624Z" fill="#00AF74"/>
</svg>
