<svg width="72" height="72" viewBox="0 0 72 72" fill="none" xmlns="http://www.w3.org/2000/svg">
<path d="M26.6831 27.355L26.6833 27.355L26.6786 27.3447C22.0661 17.1959 34.8673 8.01408 42.9748 15.5714L42.983 15.579L42.9914 15.5862C45.6231 17.8295 46.5913 21.3566 46.0579 24.6893C45.5246 28.0212 43.5032 31.0794 40.2535 32.4012L40.2369 32.408L40.2208 32.4159C35.334 34.8248 28.8173 32.348 26.6831 27.355Z" fill="#0086C8" stroke="#0086C8"/>
<path d="M47.4464 38.6864L47.4464 38.6865L47.4533 38.6907C51.3586 41.0849 53.9011 45.4233 53.9211 50.2849C53.9211 50.2852 53.9211 50.2855 53.9211 50.2858L53.9211 54.7475L53.9211 54.7526C53.9598 58.5746 50.7607 61.8853 46.8023 61.8685H46.8002H25.1999C21.8235 61.8685 18.9942 59.5083 18.2621 56.3756L18.2564 56.3512L18.2483 56.3276C18.1732 56.1081 18.1203 55.7145 18.093 55.1773C18.0665 54.6547 18.066 54.0455 18.0743 53.4232C18.0782 53.1251 18.0844 52.8207 18.0905 52.5214C18.1087 51.6191 18.1261 50.7626 18.0791 50.2599C18.09 43.0025 23.867 37.0018 30.9716 36.6735L31.5007 36.649L31.5006 36.6478C31.7281 36.6432 32.0209 36.6393 32.3618 36.636C33.2083 36.628 34.3421 36.6239 35.4873 36.6224C37.7839 36.6193 40.1051 36.6263 40.2539 36.6304L40.2539 36.6305L40.263 36.6306C42.8408 36.6556 45.3745 37.3697 47.4464 38.6864Z" fill="#0086C8" stroke="#0086C8"/>
<path d="M13.8129 49.9466L13.8126 49.9612L13.8132 49.9758C13.827 50.3466 13.8203 50.9853 13.8124 51.7377C13.8074 52.2121 13.802 52.7318 13.8009 53.2579C13.7995 53.9285 13.8055 54.6024 13.8298 55.1828C13.8418 55.4695 13.8586 55.7441 13.8831 55.9894H9.54423C5.79224 55.9894 2.75 52.9472 2.75 49.1952V45.0362C2.75 37.9527 8.51411 32.1886 15.5976 32.1886H23.5452C23.9656 32.1886 24.3484 32.2045 24.7519 32.249C24.7621 32.2608 24.7723 32.2727 24.7826 32.2846C25.0842 32.6349 25.4139 33.0178 25.7718 33.3766C18.8355 35.8403 13.9736 42.3673 13.8129 49.9466Z" fill="#0086C8" stroke="#0086C8"/>
<path d="M9.8486 19.844H9.84872L9.84848 19.8331C9.75709 15.6157 12.4197 12.3836 15.872 10.954C19.1815 9.58364 23.1475 9.89826 26.0173 12.5571C23.3002 15.1189 21.614 18.7612 21.4996 22.5665C21.3808 24.8241 21.8715 27.0644 22.754 29.0209C21.7594 29.3727 20.7032 29.5555 19.5824 29.5555C14.2182 29.5555 9.84847 25.1844 9.8486 19.844Z" fill="#0086C8" stroke="#0086C8"/>
<path d="M48.3506 32.1776L48.4022 32.1886H48.4549H56.4025C63.486 32.1886 69.2501 37.9527 69.2501 45.0362V49.1952C69.2501 52.9472 66.2079 55.9894 62.4559 55.9894L62.4559 56.4894L62.4558 55.9894H62.4556H62.455H62.4523H62.4417H62.4006H62.2444L61.6869 55.9894L59.9953 55.9894L58.3037 55.9894L58.1148 55.9894C58.1396 55.7397 58.1567 55.4602 58.1689 55.1678C58.1931 54.5869 58.1994 53.9159 58.1983 53.2487C58.1975 52.7201 58.1923 52.1984 58.1875 51.7224C58.18 50.9799 58.1737 50.3485 58.1869 49.975L58.1874 49.9613L58.1872 49.9477C58.0974 45.2659 56.1934 41.0104 53.171 37.8751C51.2564 35.8591 48.8788 34.3058 46.2069 33.3671C46.254 33.3174 46.2999 33.2683 46.3446 33.2203C46.3621 33.2016 46.3794 33.1831 46.3964 33.1647C46.6091 32.9364 46.7945 32.7372 46.99 32.5684C47.1966 32.39 47.3917 32.2664 47.5984 32.1989C47.7995 32.1331 48.0393 32.1112 48.3506 32.1776Z" fill="#0086C8" stroke="#0086C8"/>
<path d="M50.5226 23.0879H50.5227L50.5226 23.0823C50.5031 21.3433 50.21 19.6092 49.5978 18.0339C48.8278 15.9346 47.5795 14.0655 45.9937 12.5674C47.7116 11.0594 49.9548 10.1334 52.4097 10.1315C65.2644 10.5423 65.2876 29.1288 52.4097 29.5555C51.2923 29.5546 50.239 29.3719 49.2471 29.0212C50.0688 27.2067 50.5226 25.194 50.5226 23.0879Z" fill="#0086C8" stroke="#0086C8"/>
</svg>
