<svg width="66" height="66" viewBox="0 0 66 66" fill="none" xmlns="http://www.w3.org/2000/svg">
<path d="M4.125 35.0228V59.7728C4.125 62.0498 5.97713 63.8978 8.25 63.8978H28.875V35.0228H4.125Z" fill="#F6363D"/>
<path d="M61.875 18.5228H48.8235C49.7599 17.8834 50.5643 17.2481 51.1253 16.6789C54.4541 13.3335 54.4541 7.88852 51.1253 4.54314C47.8913 1.28439 42.2565 1.29264 39.0266 4.54314C37.2364 6.33752 32.4926 13.6429 33.1485 18.5228H32.8515C33.5033 13.6429 28.7595 6.33752 26.9734 4.54314C23.7394 1.29264 18.1046 1.29264 14.8748 4.54314C11.55 7.88852 11.55 13.3335 14.8706 16.6789C15.4358 17.2481 16.2401 17.8834 17.1765 18.5228H4.125C1.85213 18.5228 0 20.3749 0 22.6478V28.8353C0 29.9738 0.924 30.8978 2.0625 30.8978H28.875V22.6478H37.125V30.8978H63.9375C65.076 30.8978 66 29.9738 66 28.8353V22.6478C66 20.3749 64.152 18.5228 61.875 18.5228ZM28.6316 18.3866C28.6316 18.3866 28.4584 18.5228 27.8685 18.5228C25.0181 18.5228 19.5772 15.561 17.7994 13.7708C16.071 12.03 16.071 9.19202 17.7994 7.45127C18.6367 6.60977 19.7464 6.14777 20.9261 6.14777C22.1017 6.14777 23.2114 6.60977 24.0487 7.45127C26.829 10.248 29.5928 17.3925 28.6316 18.3866ZM38.1274 18.5228C37.5416 18.5228 37.3684 18.3908 37.3684 18.3866C36.4072 17.3925 39.171 10.248 41.9513 7.45127C43.6136 5.77239 46.5218 5.76414 48.2006 7.45127C49.9331 9.19202 49.9331 12.03 48.2006 13.7708C46.4228 15.561 40.9819 18.5228 38.1274 18.5228Z" fill="#F6363D"/>
<path d="M37.125 35.0228V63.8978H57.75C60.027 63.8978 61.875 62.0498 61.875 59.7728V35.0228H37.125Z" fill="#F6363D"/>
</svg>
