<svg width="123" height="143" viewBox="0 0 123 143" fill="none" xmlns="http://www.w3.org/2000/svg">
<g clip-path="url(#clip0_402_575)">
<path d="M49.6221 124.899C47.9833 124.735 46.8955 125.018 45.3038 125.838C43.9382 126.542 42.2029 127.643 39.4386 129.194C39.003 129.439 38.5439 129.696 38.0541 129.962C35.1345 131.556 32.1159 131.982 29.3046 131.701C26.1777 131.392 23.3075 130.212 21.1272 128.799C20.4597 128.369 19.8246 127.89 19.2271 127.365C17.9768 126.257 16.6206 125.422 15.2502 124.896C12.5001 123.84 9.69578 124.028 7.60022 125.76C4.46159 128.355 -1.42482 125.146 1.71382 119.992C4.33444 115.694 10.5599 114.044 15.0571 113.846C15.8679 113.805 16.6805 113.819 17.4894 113.889C17.4894 113.889 22.3704 119.319 26.8959 121.46C31.4213 123.6 36.4554 123.919 39.521 120.508C39.8051 120.194 40.1062 119.895 40.4228 119.614C41.6072 118.546 43.0741 117.606 44.6304 116.831H44.6328C47.3452 115.478 50.3167 114.624 52.4947 114.469" fill="white"/>
<path d="M15.2502 124.896C12.5001 123.84 9.69578 124.028 7.60022 125.76C4.46159 128.355 -1.42482 125.146 1.71382 119.992C4.33444 115.694 10.5599 114.044 15.0571 113.846C15.5751 114.947 15.8671 115.775 15.8671 115.775C15.8671 115.775 18.1534 119.064 15.2502 124.896Z" fill="#FF6F03"/>
<g opacity="0.6">
<path d="M52.4946 114.469L52.1461 115.735C50.0883 116.025 47.5359 116.824 45.1766 117.999C43.6226 118.774 42.1534 119.714 40.969 120.782C40.6524 121.063 40.3513 121.361 40.0672 121.676C37.0016 125.087 31.9675 124.768 27.4421 122.627C22.9166 120.487 18.0342 115.057 18.0342 115.057C17.2253 114.987 16.4127 114.973 15.6019 115.014C11.1047 115.211 4.87923 116.862 2.2586 121.16C1.38035 122.601 1.20847 123.89 1.48631 124.944C0.641019 123.755 0.473845 122.023 1.71234 119.992C4.33297 115.694 10.5584 114.044 15.0557 113.846C15.8664 113.805 16.679 113.819 17.4879 113.889C17.4879 113.889 22.3689 119.319 26.8944 121.46C31.4199 123.6 36.4539 123.919 39.5196 120.508C39.8037 120.194 40.1047 119.895 40.4214 119.614C41.6057 118.546 43.0726 117.606 44.629 116.831H44.6313C47.3452 115.478 50.3166 114.624 52.4946 114.469Z" fill="white"/>
</g>
<path d="M45.3038 125.838C43.9382 126.542 42.2029 127.643 39.4386 129.194C40.2156 126.454 40.9761 122.668 40.4228 119.614C41.6071 118.546 43.074 117.606 44.6304 116.831H44.6328C45.2059 119.124 45.8477 122.711 45.3038 125.838Z" fill="#FF6F03"/>
<path d="M29.3046 131.701C26.1777 131.392 23.3075 130.212 21.1272 128.799C21.7747 124.851 22.9049 120.508 22.9049 120.508L28.2427 123.767C29.905 126.537 29.8579 129.396 29.3046 131.701Z" fill="#FF6F03"/>
<g opacity="0.3">
<path d="M52.4947 114.469L49.6221 124.899C47.9833 124.735 46.8955 125.018 45.3038 125.838C43.9382 126.542 42.2029 127.643 39.4386 129.194C39.003 129.439 38.5439 129.696 38.0541 129.962C35.1345 131.556 32.1159 131.982 29.3046 131.701C26.1777 131.392 23.3075 130.212 21.1272 128.799C20.4597 128.369 19.8246 127.89 19.2271 127.365C17.9768 126.257 16.6206 125.422 15.2502 124.896C12.5001 123.84 9.69579 124.028 7.60023 125.76C4.76298 128.107 -0.322876 125.707 1.05454 121.414C1.97047 123.957 5.56589 124.88 7.71089 122.984C9.74759 121.181 12.5448 120.898 15.3279 121.861C16.7147 122.342 18.0992 123.129 19.3848 124.192C19.9996 124.697 20.6505 125.155 21.332 125.562C23.5571 126.899 26.465 127.981 29.5989 128.186C32.4197 128.371 35.4241 127.843 38.2872 126.152C38.7676 125.867 39.2173 125.598 39.6458 125.339C42.3559 123.695 44.0536 122.535 45.3957 121.785C46.9591 120.912 48.0375 120.591 49.681 120.701L51.1408 114.636C51.6141 114.557 52.0709 114.5 52.4947 114.469Z" fill="#262F6A"/>
</g>
<path d="M30.9221 132.615C30.3617 132.615 29.7955 132.587 29.2235 132.53C26.2817 132.239 23.2481 131.163 20.6826 129.5C19.9806 129.048 19.3126 128.543 18.684 127.992C17.5133 126.953 16.2597 126.174 14.9577 125.675C12.3366 124.668 9.90949 124.927 8.1219 126.404C6.24296 127.957 3.41278 127.879 1.53525 126.223C0.0923743 124.951 -0.802359 122.532 1.01207 119.556C3.74948 115.069 10.0437 113.233 15.0203 113.015C15.868 112.972 16.7176 112.987 17.5632 113.06C17.7685 113.079 17.9592 113.175 18.0982 113.329C18.1453 113.382 22.9236 118.662 27.2443 120.705C32.0702 122.989 36.4313 122.703 38.9097 119.949C39.214 119.611 39.5366 119.291 39.876 118.99C41.0571 117.925 42.5348 116.945 44.2649 116.085C44.2767 116.078 44.2894 116.072 44.3021 116.067C47.0235 114.715 50.0614 113.808 52.4357 113.641C52.6518 113.629 52.8638 113.703 53.026 113.848C53.1883 113.993 53.2877 114.196 53.3028 114.414C53.318 114.632 53.2476 114.847 53.107 115.013C52.9663 115.179 52.7667 115.283 52.5511 115.302C50.4018 115.454 47.5067 116.327 44.9962 117.579L44.9595 117.597C43.3998 118.377 42.021 119.289 40.9704 120.237C40.6754 120.499 40.3948 120.777 40.1298 121.069C37.1395 124.396 32.0612 124.824 26.5449 122.215C22.4249 120.265 18.1302 115.802 17.1017 114.695C16.4329 114.652 15.7622 114.647 15.0928 114.679C10.7444 114.87 4.8161 116.491 2.41397 120.431C1.31628 122.233 1.39115 123.888 2.61835 124.972C3.72028 125.945 5.68917 126.265 7.07695 125.117C9.30766 123.275 12.3926 122.911 15.5416 124.119C17.0278 124.689 18.4504 125.57 19.769 126.74C20.3359 127.237 20.9383 127.691 21.5712 128.099C23.921 129.621 26.6956 130.607 29.3836 130.873C32.34 131.169 35.1254 130.615 37.6608 129.23C38.1482 128.965 38.6027 128.71 39.0364 128.467C40.3036 127.756 41.3396 127.148 42.2536 126.612C43.325 125.983 44.1717 125.486 44.928 125.097C46.7316 124.167 47.9809 123.898 49.7016 124.07C49.8093 124.08 49.9139 124.112 50.0094 124.164C50.1048 124.216 50.1893 124.286 50.2579 124.37C50.3266 124.455 50.3781 124.552 50.4095 124.657C50.4409 124.761 50.4516 124.871 50.4409 124.98C50.4303 125.089 50.3985 125.194 50.3475 125.291C50.2964 125.387 50.2271 125.473 50.1434 125.542C50.0597 125.611 49.9633 125.663 49.8597 125.695C49.7561 125.727 49.6473 125.738 49.5396 125.727C48.1405 125.584 47.2006 125.794 45.6781 126.579C44.9614 126.948 44.1321 127.435 43.0825 128.051C42.1618 128.591 41.1187 129.203 39.8383 129.921C39.4004 130.168 38.938 130.427 38.4444 130.695C36.1367 131.964 33.5495 132.624 30.9221 132.615Z" fill="#262F6A"/>
<path d="M36.021 127.839C44.9978 124.081 48.3262 111.41 43.4552 99.5372C38.5843 87.6644 27.3585 81.0858 18.3818 84.8437C9.40512 88.6015 6.07672 101.273 10.9477 113.146C15.8186 125.018 27.0443 131.597 36.021 127.839Z" fill="#B4B2B7"/>
<g opacity="0.3">
<path d="M32.389 117.171C32.1868 117.28 31.9794 117.378 31.7674 117.466C31.2309 117.689 30.6707 117.848 30.098 117.942C30.84 117.623 31.6061 117.366 32.389 117.171Z" fill="#262F6A"/>
</g>
<g opacity="0.3">
<path d="M36.0231 127.838C27.0475 131.596 15.8209 125.018 10.9493 113.144C10.7258 112.597 10.5194 112.049 10.3301 111.499C15.5242 122.328 26.1221 128.131 34.6763 124.549C35.439 124.23 36.1712 123.842 36.8636 123.388C36.866 123.388 36.8684 123.386 36.8707 123.384C43.1974 117.83 37.9868 115.763 32.3923 117.171C31.6094 117.366 30.8432 117.625 30.1013 117.944C30.059 117.954 30.0166 117.958 29.9742 117.966C25.4016 118.643 20.2946 115.135 17.9188 109.351C15.2299 102.794 17.0712 95.7938 22.0252 93.7198C26.9792 91.6458 33.1835 95.2777 35.87 101.835C37.1768 105.017 37.4146 108.302 36.7483 111.08C38.3988 110.248 41.2007 109.705 42.0154 109.924C42.4322 110.036 43.2916 110.573 44.0545 111.161C44.6949 107.046 44.297 102.444 42.7218 97.8939C42.9808 98.4291 43.2233 98.9761 43.4541 99.5374C48.3271 111.408 45.0001 124.08 36.0231 127.838Z" fill="#262F6A"/>
</g>
<g opacity="0.6">
<path d="M13.3721 91.3152C9.5648 97.0757 8.93142 105.828 12.3597 114.184C14.3116 118.941 17.2831 122.846 20.7231 125.579C16.6897 122.846 13.1626 118.541 10.9469 113.144C6.07534 101.271 9.40469 88.599 18.3803 84.8411C23.7746 82.584 29.9789 84.0562 35.1283 88.1661C30.2826 84.8601 24.7023 83.8255 19.793 85.8828C18.9669 86.2281 18.1766 86.6552 17.4338 87.1577C17.162 89.9357 15.5798 91.0274 13.3721 91.3152Z" fill="white"/>
</g>
<path d="M30.7328 129.72C22.6938 129.72 14.257 123.381 10.1878 113.463C5.14906 101.185 8.68514 88.0006 18.0671 84.0729C22.6519 82.1539 27.9092 82.6991 32.8726 85.6074C37.7654 88.4739 41.7926 93.3074 44.2169 99.2168C49.2557 111.495 45.7196 124.679 36.3376 128.607C34.5604 129.348 32.6555 129.726 30.7328 129.72ZM23.7162 84.6137C21.9946 84.6087 20.2891 84.9482 18.6982 85.6127C10.1558 89.1884 7.01952 101.397 11.7103 112.827C15.5171 122.105 23.3291 128.062 30.7041 128.062C32.4203 128.069 34.1207 127.731 35.707 127.07C44.2494 123.493 47.3857 111.285 42.6949 99.8552C40.4077 94.2811 36.6258 89.7316 32.0452 87.0478C29.289 85.4333 26.4461 84.6142 23.7162 84.6142V84.6137Z" fill="#262F6A"/>
<path d="M42.5872 117.098C41.9505 119.041 40.8975 120.883 39.4405 122.388C38.7036 123.14 37.8767 123.796 36.9791 124.341C36.0671 124.881 35.0898 125.299 34.0716 125.585C32.0298 126.177 29.8396 126.161 27.7737 125.721C25.7016 125.267 23.7549 124.367 22.0045 123.206C20.2541 122.046 18.7081 120.59 17.3689 118.982C16.0545 117.353 14.9201 115.581 14.0546 113.684C12.3037 109.914 11.4415 105.698 11.8234 101.607C12.0447 105.698 13.1952 109.646 15.0557 113.176C16.9149 116.701 19.5435 119.814 22.7947 121.996C24.4184 123.08 26.2018 123.918 28.0765 124.385C29.9513 124.863 31.9097 124.899 33.8004 124.49C35.7094 124.063 37.4833 123.163 38.9621 121.871C40.4718 120.587 41.6595 118.916 42.5872 117.098Z" fill="#262F6A"/>
<path d="M104.738 36.5851L95.9764 45.3092L64.1898 12.1705L61.6775 0.832458L61.9859 0.882406L73.6858 2.81607L104.333 36.1451L104.738 36.5851Z" fill="#B4B2B7"/>
<g opacity="0.6">
<path d="M97.2267 44.0629L95.9764 45.3092L64.1898 12.1705L61.6775 0.832458L63.58 1.14641L65.838 11.338L97.2267 44.0629Z" fill="white"/>
</g>
<path d="M32.2736 111.587C32.2501 113.054 32.0381 114.612 31.5037 116.134C31.101 117.276 29.5211 117.466 28.9395 116.405C28.6994 115.968 28.5816 115.347 28.7135 114.469C28.7236 114.397 28.7299 114.325 28.7323 114.253C28.7629 113.451 28.3674 112.314 27.7505 111.051C25.8433 107.137 21.8123 102.004 21.6922 101.854C21.6922 101.854 20.708 99.0641 23.3757 97.8369C24.5082 97.316 25.7891 97.9986 26.8887 98.9595C28.3815 100.263 29.54 102.078 29.54 102.078L30.9503 104.159C30.9525 104.162 30.9541 104.165 30.955 104.168C31.0313 104.366 32.3348 107.648 32.2736 111.587Z" fill="#C46949"/>
<path d="M30.1258 117.82C29.7574 117.823 29.395 117.725 29.0773 117.537C28.7595 117.349 28.4983 117.077 28.3213 116.75C27.9747 116.117 27.872 115.313 28.0152 114.363C28.3246 112.317 23.9625 105.875 21.1399 102.297C21.0913 102.236 21.0531 102.166 21.0268 102.092C20.611 100.914 20.5051 98.3715 23.0828 97.1847C26.2168 95.7405 29.7401 101.076 30.1319 101.688L31.5324 103.753C31.5599 103.794 31.5831 103.837 31.6017 103.882C31.7109 104.147 34.252 110.437 32.1667 116.373C32.0263 116.769 31.7758 117.115 31.4454 117.37C31.1149 117.626 30.7186 117.779 30.3038 117.813C30.2459 117.818 30.1837 117.82 30.1258 117.82ZM22.327 101.512C23.4167 102.902 29.9007 111.341 29.4119 114.577C29.3177 115.209 29.3648 115.708 29.5579 116.06C29.6191 116.172 29.7119 116.263 29.8246 116.322C29.9373 116.381 30.0648 116.405 30.1908 116.39C30.3346 116.38 30.4724 116.328 30.5874 116.24C30.7024 116.153 30.7896 116.033 30.8383 115.896C32.6358 110.774 30.5788 105.153 30.3236 104.494L28.958 102.478C28.1254 101.178 25.3922 97.6889 23.671 98.4824C21.8458 99.3234 22.2022 101.068 22.327 101.512Z" fill="#262F6A"/>
<path d="M101.352 50.2021C101.352 50.2021 94.9751 50.3448 94.0135 49.0957C93.3015 48.1709 95.0863 44.5719 96.0601 42.769C96.4225 42.0968 96.9474 41.5282 97.5859 41.116L104.033 36.9552C104.773 36.4783 105.635 36.2303 106.512 36.2416C108.016 36.2597 110.299 36.3872 111.064 36.9671C111.064 36.9671 111.241 40.9509 109.534 42.5564" fill="#FEBD1C"/>
<g opacity="0.3">
<path d="M109.533 42.5549L101.35 50.2016C101.35 50.2016 100.649 50.2182 99.674 50.1921L106.895 43.4445C108.602 41.839 108.426 37.8551 108.426 37.8551C107.661 37.2748 105.379 37.1464 103.874 37.1297H103.761L104.035 36.9537C104.774 36.4759 105.636 36.2278 106.514 36.2402C108.016 36.2592 110.3 36.3829 111.065 36.9656C111.064 36.9656 111.241 40.9495 109.533 42.5549Z" fill="#262F6A"/>
</g>
<g opacity="0.6">
<path d="M111.067 37.0726C110.059 36.8752 108.747 36.8158 107.77 36.8039C106.893 36.7927 106.031 37.0407 105.291 37.5174L98.8427 41.6797C98.2035 42.0909 97.6784 42.6598 97.317 43.3327C96.3422 45.1379 94.5574 48.7365 95.2685 49.6593C95.2911 49.6893 95.3163 49.7172 95.3439 49.7426C94.7175 49.5856 94.2302 49.3763 94.0135 49.0956C93.3025 48.1704 95.0872 44.5718 96.0597 42.769C96.4227 42.0965 96.9484 41.5278 97.5878 41.116L104.035 36.9561C104.774 36.4783 105.636 36.2302 106.514 36.2426C108.016 36.2616 110.3 36.3853 111.065 36.968C111.064 36.9656 111.067 37.0037 111.067 37.0726Z" fill="white"/>
</g>
<path d="M101.42 49.6308L98.9478 47.7513C98.9478 47.7513 98.281 44.8577 99.1833 43.7475C99.8261 42.9574 103.037 40.8601 104.831 39.7179C105.186 39.4925 105.602 39.3839 106.02 39.4072C106.439 39.4305 106.84 39.5844 107.169 39.8478L108.719 41.0917" fill="#C46949"/>
<path d="M95.1829 45.3139C95.0725 45.314 94.9631 45.2917 94.8614 45.2482C94.7597 45.2047 94.6678 45.141 94.591 45.0609L63.5978 12.7484C63.4924 12.6382 63.4191 12.5008 63.3859 12.3512L60.8736 1.01464C60.844 0.881775 60.8472 0.743604 60.8828 0.612254C60.9184 0.480905 60.9853 0.360392 61.0778 0.261295C61.1703 0.162198 61.2854 0.0875477 61.4131 0.0438964C61.5409 0.000245107 61.6772 -0.0110722 61.8103 0.0109381L73.8185 1.99455C73.9992 2.02429 74.1649 2.114 74.2894 2.24952L105.341 36.0185C105.418 36.098 105.478 36.1922 105.518 36.2955C105.558 36.3989 105.577 36.5092 105.575 36.6202C105.572 36.7311 105.547 36.8403 105.502 36.9415C105.457 37.0426 105.392 37.1336 105.312 37.2091C105.231 37.2846 105.137 37.3431 105.033 37.3812C104.93 37.4192 104.82 37.436 104.711 37.4306C104.601 37.4252 104.493 37.3977 104.394 37.3497C104.295 37.3017 104.207 37.2342 104.134 37.1511L73.2723 3.59191L62.7483 1.85518L64.9432 11.7623L95.7748 43.9045C95.8875 44.0219 95.9635 44.1703 95.9932 44.331C96.0229 44.4918 96.0051 44.6579 95.9419 44.8085C95.8788 44.9591 95.7731 45.0876 95.6381 45.1779C95.5031 45.2682 95.3448 45.3163 95.1829 45.3163V45.3139Z" fill="#262F6A"/>
<path d="M100.453 51.0445C98.1345 51.0445 94.3187 50.8481 93.3633 49.607C93.0233 49.1655 92.227 48.1324 95.3364 42.3685C95.7661 41.5735 96.3872 40.9008 97.1423 40.4124L103.589 36.2516C104.463 35.6837 105.483 35.3901 106.522 35.4077C110.444 35.4553 111.283 36.0908 111.561 36.2996C111.658 36.3733 111.739 36.4679 111.796 36.5767C111.853 36.6854 111.885 36.8056 111.89 36.9285C111.911 37.3757 112.028 41.3491 110.099 43.1643C110.019 43.2388 109.926 43.2968 109.825 43.335C109.724 43.3732 109.616 43.3908 109.508 43.3869C109.399 43.383 109.293 43.3576 109.195 43.3122C109.096 43.2668 109.007 43.2022 108.934 43.1222C108.86 43.0422 108.803 42.9483 108.765 42.8458C108.727 42.7434 108.709 42.6344 108.713 42.5252C108.717 42.4159 108.742 42.3085 108.787 42.209C108.832 42.1096 108.896 42.0201 108.975 41.9456C109.991 40.9909 110.232 38.7142 110.247 37.4779C109.676 37.2829 108.479 37.0974 106.503 37.0726C105.786 37.0644 105.083 37.2666 104.478 37.6549L98.0314 41.8152C97.5102 42.1521 97.0816 42.6165 96.7854 43.1652C94.8401 46.77 94.6046 48.2822 94.6832 48.6038C95.1852 49.0794 98.2659 49.4391 101.334 49.3701H101.352C101.571 49.3677 101.781 49.4531 101.938 49.6075C102.094 49.7619 102.183 49.9727 102.185 50.1935C102.188 50.4143 102.103 50.627 101.95 50.7848C101.797 50.9426 101.589 51.0326 101.37 51.035C101.106 51.0412 100.796 51.0445 100.453 51.0445Z" fill="#262F6A"/>
<path d="M101.42 50.4632C101.241 50.4635 101.067 50.4047 100.925 50.2958L98.4524 48.4164C98.298 48.2991 98.1893 48.1307 98.1454 47.9407C98.0187 47.3908 97.4419 44.578 98.5466 43.22C99.0905 42.5511 101.058 41.136 104.392 39.0144C104.892 38.6973 105.476 38.5445 106.065 38.5771C106.654 38.6096 107.219 38.8259 107.681 39.1961L109.232 40.4405C109.319 40.5078 109.391 40.5919 109.445 40.6878C109.5 40.7837 109.534 40.8896 109.548 40.9992C109.561 41.1088 109.553 41.22 109.523 41.3262C109.493 41.4325 109.443 41.5318 109.375 41.6183C109.307 41.7047 109.223 41.7766 109.127 41.8299C109.031 41.8831 108.926 41.9165 108.817 41.9282C108.708 41.9399 108.598 41.9296 108.494 41.898C108.389 41.8663 108.291 41.814 108.207 41.7439L106.656 40.5C106.461 40.3441 106.223 40.253 105.975 40.2392C105.727 40.2254 105.481 40.2896 105.271 40.4229C101.731 42.6748 100.135 43.8902 99.82 44.276C99.4225 44.7655 99.5002 46.2515 99.6909 47.2728L101.916 48.9643C102.054 49.0694 102.155 49.2156 102.207 49.3823C102.258 49.5491 102.256 49.7278 102.201 49.8934C102.147 50.059 102.042 50.203 101.901 50.305C101.761 50.407 101.592 50.4618 101.42 50.4618V50.4632Z" fill="#262F6A"/>
<path d="M117.252 60.6025C116.791 63.0642 116.303 64.7885 116.303 64.7885C113.824 73.5412 109.117 80.0177 102.717 84.7555C102.564 84.8697 102.409 84.9838 102.254 85.0956L102.176 85.1527C104.662 91.6601 103.991 99.1569 101.335 106.169V106.171C98.2933 114.21 92.6447 121.616 86.1673 126.159L82.5954 128.913L81.3004 127.289C81.3004 127.289 77.8486 131.611 74.6699 130.659C72.6992 130.069 71.755 128.84 71.3217 127.991C71.0557 127.467 70.9827 127.094 70.9827 127.094L70.2198 127.703L69.5841 128.209L62.5957 133.785L62.3885 133.951C62.3885 133.951 63.919 136.686 60.446 140.492C56.973 144.297 48.2612 140.967 45.6123 137.162C45.3951 136.849 45.2067 136.516 45.0495 136.168C43.3307 132.365 45.391 126.98 48.1434 123.545C48.7132 122.834 49.2265 121.902 49.6786 120.858C49.6781 120.856 49.6781 120.855 49.6786 120.853C50.8818 118.08 51.6776 114.526 52.1109 112.236C52.3699 110.849 52.497 109.929 52.497 109.929C50.458 110.847 48.1929 111.601 45.9419 112.212C44.03 112.731 42.1275 113.149 40.3828 113.482C39.4504 113.661 38.5627 113.813 37.741 113.946C37.0252 114.06 36.3589 114.158 35.7584 114.241L35.742 114.243C33.75 114.519 32.4832 114.624 32.4832 114.624C32.6457 112.136 32.5162 110.124 32.2737 108.554C31.8381 105.686 31.0328 104.292 30.9551 104.168C30.9542 104.165 30.9526 104.162 30.9504 104.159C29.3729 105.683 27.873 104.601 26.8747 103.388C26.7876 103.283 26.7028 103.176 26.6251 103.069C26.5309 102.941 26.4414 102.815 26.359 102.694C25.7092 101.728 25.6691 100.439 26.3567 99.4994C26.5039 99.2913 26.6831 99.1083 26.8874 98.9571C28.8464 97.5158 32.3217 99.6183 32.3217 99.6183L33.791 98.8572L36.3598 97.5229L39.5267 95.8771H39.529L47.1625 91.9098C47.1625 91.9098 79.3353 75.9172 90.7808 69.7999C102.226 63.6826 101.35 54.987 101.35 54.987C97.9363 49.5761 103.116 47.5544 103.116 47.5544C103.116 47.5544 101.762 43.5705 104.882 41.3705C108.002 39.1704 115.673 41.9056 117.479 48.0682C118.557 51.7357 117.933 56.9683 117.252 60.6025Z" fill="white"/>
<path d="M114.142 70.7013C110.175 62.9528 99.4395 62.5923 99.4395 62.5923C100.457 60.484 101.13 58.1094 101.367 55.3985C105.68 56.5282 109.154 52.8545 109.154 52.8545C109.154 52.8545 111.198 55.6877 111.987 56.7803L115.283 61.3469C115.283 61.3469 114.423 63.7254 116.131 65.3903C115.691 67.3837 115.028 69.1541 114.142 70.7013Z" fill="#8E99A5"/>
<g opacity="0.3">
<path d="M117.252 60.6025C116.791 63.0641 116.303 64.7885 116.303 64.7885C113.765 73.7552 108.889 80.3268 102.254 85.0956L99.1809 80.3221C113.963 69.3884 112.409 57.3678 112.409 57.3678L117.252 60.6025Z" fill="#262F6A"/>
</g>
<path d="M107.08 133.08C106.909 133.446 106.705 133.795 106.473 134.125C103.235 138.763 90.4031 137.336 87.7542 135.195C85.9506 133.737 86.2755 128.752 86.6664 125.719C86.6711 125.681 86.6758 125.641 86.6805 125.603C86.8595 124.242 87.0478 123.303 87.0478 123.303L97.0006 112.236L100.375 108.485C100.375 108.485 105.183 112.043 105.764 118.769C105.96 121.022 105.679 123.629 104.587 126.575C104.588 126.573 108.948 129.054 107.08 133.08Z" fill="white"/>
<path d="M45.9396 112.207L40.4299 113.304L37.7528 113.837L35.7538 114.236L35.7373 114.239C35.9259 112.201 35.8618 110.148 35.5466 108.126C34.7578 103.043 32.6552 99.8752 32.6552 99.8752L34.0161 99.0832L36.4954 97.6371L39.5258 95.8747H39.5281C39.5281 95.8747 45.2497 99.4257 46.2363 106.387C46.4859 108.114 46.4388 110.057 45.9396 112.207Z" fill="#8E99A5"/>
<g opacity="0.6">
<path d="M115.093 44.0058C112.098 41.7605 108.232 41.1445 106.233 42.5549C103.113 44.755 104.467 48.7389 104.467 48.7389C104.467 48.7389 99.2868 50.7605 102.701 56.1715C102.701 56.1715 103.577 64.867 92.1313 70.9843C80.6858 77.1017 48.5131 93.0943 48.5131 93.0943L33.6722 100.808C33.6722 100.808 29.4717 98.265 27.7034 100.684C27.0159 101.623 27.0559 102.912 27.7034 103.878C27.8695 104.126 28.0479 104.365 28.2379 104.594C27.468 104.166 26.8134 103.369 26.3543 102.689C25.7044 101.723 25.6644 100.434 26.3519 99.4946C28.1202 97.0758 32.3207 99.6183 32.3207 99.6183L47.1615 91.9051C47.1615 91.9051 79.3343 75.9125 90.7798 69.7951C102.225 63.6778 101.349 54.9822 101.349 54.9822C97.9353 49.5713 103.115 47.5496 103.115 47.5496C103.115 47.5496 101.761 43.5658 104.881 41.3657C107.198 39.7341 112.02 40.8187 115.093 44.0058Z" fill="white"/>
</g>
<path d="M106.472 134.125C103.234 138.763 90.4017 137.336 87.7529 135.195C85.9257 133.72 86.2836 128.623 86.6792 125.603L90.9527 122.135C101.157 122.989 105.765 118.767 105.765 118.767C105.961 121.019 105.681 123.626 104.588 126.573C104.588 126.573 109.711 129.487 106.472 134.125Z" fill="#8E99A5"/>
<g opacity="0.3">
<path d="M107.051 133.054C106.88 133.419 106.676 133.769 106.444 134.098C103.206 138.736 90.3739 137.309 87.725 135.168C85.9214 133.71 86.2464 128.725 86.6372 125.693C88.6339 123.343 93.1994 117.568 93.1994 117.568L96.9714 112.209C96.9714 112.209 91.4311 124.943 93.7857 125.954L91.6948 125.479C91.6948 125.479 87.8404 129.938 92.2552 133.684C96.67 137.43 106.736 132.198 106.736 132.198C106.736 132.198 106.872 132.521 107.051 133.054Z" fill="#262F6A"/>
</g>
<path d="M97.2228 138.031C93.1551 138.031 88.8684 137.161 87.2395 135.843C85.6002 134.518 85.1378 131.035 85.8639 125.492C86.0443 124.119 86.2322 123.175 86.2407 123.136C86.2703 122.989 86.3386 122.852 86.4385 122.741L99.7676 107.921C99.9045 107.769 100.092 107.673 100.295 107.653C100.498 107.632 100.701 107.688 100.865 107.81C101.073 107.964 105.981 111.671 106.588 118.693C106.798 121.114 106.46 123.649 105.583 126.239C106.403 126.847 107.832 128.142 108.252 130.021C108.588 131.529 108.217 133.07 107.147 134.602C105.998 136.248 103.73 137.356 100.589 137.806C99.4734 137.96 98.3487 138.036 97.2228 138.031ZM87.8135 123.69C87.749 124.039 87.6209 124.777 87.4975 125.713C86.8886 130.36 87.1773 133.662 88.2689 134.545C89.6859 135.69 95.3867 136.873 100.357 136.16C103.037 135.776 104.919 134.906 105.8 133.645C106.589 132.514 106.873 131.418 106.643 130.39C106.222 128.504 104.205 127.31 104.185 127.298C104.014 127.2 103.882 127.044 103.815 126.857C103.748 126.671 103.749 126.466 103.818 126.28C104.772 123.708 105.151 121.205 104.946 118.839C104.522 113.915 101.679 110.777 100.452 109.636L87.8135 123.69Z" fill="#262F6A"/>
<path d="M60.4412 140.487C56.9683 144.292 48.2564 140.963 45.6075 137.157C42.9586 133.352 45.1366 127.287 48.1386 123.541C48.1386 123.541 50.0859 133.673 62.591 133.78L62.3838 133.946C62.3838 133.946 63.9142 136.681 60.4412 140.487Z" fill="#8E99A5"/>
<g opacity="0.6">
<path d="M49.0202 140.102C47.5698 139.257 46.3501 138.225 45.6061 137.157C45.3888 136.844 45.2005 136.511 45.0433 136.163C43.3245 132.36 45.3847 126.975 48.1372 123.541C48.1678 123.503 48.1984 123.465 48.2267 123.424C48.4716 123.99 48.7447 124.625 48.959 125.127C46.482 128.561 44.7843 133.499 46.3925 137.055C46.5496 137.403 46.738 137.736 46.9552 138.049C47.4558 138.765 48.1692 139.464 49.0202 140.102Z" fill="white"/>
</g>
<path d="M101.333 106.169C98.2908 114.208 92.6422 121.614 86.1648 126.157L82.593 128.911L81.298 127.287C81.298 127.287 77.8462 131.608 74.6675 130.657C71.4889 129.706 70.9779 127.089 70.9779 127.089C70.7369 127.309 70.4821 127.512 70.215 127.698C67.253 129.753 65.6801 127.049 65.6801 127.049C61.3642 131.251 58.8119 125.7 58.8119 125.7C55.2424 127.643 52.5346 123.838 52.5346 123.838C51.3809 123.993 50.6745 123.729 50.2483 123.3C49.3701 122.42 49.6738 120.853 49.6738 120.853C49.6733 120.851 49.6733 120.85 49.6738 120.848C49.7209 120.753 50.4932 119.24 50.6792 119.205C50.7569 119.19 51.3668 119.057 52.0543 118.905L54.1663 118.429C65.8379 125.543 95.8138 115.635 101.333 106.169Z" fill="#8E99A5"/>
<g opacity="0.6">
<path d="M52.0567 118.905C51.7654 119.869 51.4211 120.815 51.0254 121.74C51.0249 121.742 51.0249 121.743 51.0254 121.745C50.7967 122.278 50.538 122.797 50.2508 123.3C49.3725 122.42 49.6763 120.853 49.6763 120.853C49.6757 120.851 49.6757 120.85 49.6763 120.848C49.7234 120.753 50.4957 119.24 50.6817 119.205C50.7594 119.19 51.3692 119.057 52.0567 118.905Z" fill="white"/>
</g>
<path d="M56.0063 143C55.769 143 55.5269 142.992 55.2802 142.976C51.381 142.715 46.8367 140.37 44.9337 137.636C42.1408 133.624 44.1101 127.245 47.4983 123.017C47.9829 122.412 48.4613 121.571 48.9195 120.518L48.9242 120.507C50.239 117.472 51.0664 113.413 51.4422 111.273C43.3717 114.496 33.0116 115.412 32.5501 115.451C32.432 115.461 32.313 115.445 32.2015 115.405C32.0899 115.364 31.9883 115.3 31.9036 115.216C31.819 115.132 31.7532 115.03 31.7109 114.919C31.6685 114.807 31.6506 114.687 31.6582 114.567C31.9733 109.718 31.1402 106.745 30.6251 105.416C30.1422 105.675 29.5941 105.782 29.0508 105.723C27.8735 105.599 26.7396 104.736 25.6753 103.158C24.8079 101.869 24.8145 100.198 25.6913 99C27.5279 96.4878 31.1139 98.0419 32.3345 98.6765L46.7868 91.1649C47.1216 90.9984 79.0914 75.101 90.3966 69.0593C100.403 63.7111 100.591 56.5069 100.542 55.2449C99.4089 53.3735 99.0891 51.642 99.5916 50.0965C100.107 48.512 101.362 47.5663 102.148 47.1092C101.786 45.3425 101.915 42.4436 104.411 40.6831C105.956 39.5952 108.402 39.482 110.951 40.3858C114.541 41.6559 117.278 44.4377 118.271 47.8275C120.124 54.1493 117.22 64.5745 117.096 65.0155C114.687 73.5274 110.002 80.4015 103.166 85.4567C105.301 91.5692 104.932 98.9957 102.109 106.455C102.102 106.473 102.095 106.491 102.087 106.508C99.0138 114.606 93.2465 122.199 86.6505 126.83L83.0932 129.573C82.9225 129.705 82.7075 129.764 82.4941 129.738C82.2808 129.712 82.0859 129.603 81.9512 129.434L81.2618 128.569C80.0092 129.869 77.212 132.289 74.4336 131.456C72.2372 130.798 71.1447 129.434 70.6192 128.436L63.3638 134.224C63.6883 135.393 63.8847 137.942 61.0465 141.052C59.8777 142.333 58.1447 143 56.0063 143ZM50.4241 121.199C49.9061 122.383 49.3547 123.347 48.7797 124.064C45.8534 127.716 43.9839 133.377 46.2838 136.679C47.9052 139.009 51.9904 141.087 55.3908 141.314C56.7565 141.406 58.6373 141.238 59.8376 139.923C62.8143 136.661 61.7109 134.438 61.6629 134.345C61.5673 134.174 61.5359 133.974 61.5744 133.781C61.6129 133.588 61.7187 133.416 61.8725 133.295L62.0797 133.129L70.4671 126.438C70.5779 126.349 70.7092 126.292 70.8485 126.269C70.9878 126.247 71.1303 126.261 71.2626 126.311C71.3949 126.36 71.5124 126.443 71.604 126.551C71.6955 126.66 71.7581 126.79 71.7856 126.929C71.8031 127.01 72.2716 129.073 74.9007 129.86C77.0669 130.508 79.7897 127.846 80.6562 126.765C80.7336 126.668 80.8313 126.591 80.9421 126.537C81.053 126.484 81.1743 126.456 81.2971 126.456C81.4201 126.456 81.5415 126.484 81.6524 126.538C81.7633 126.591 81.8609 126.67 81.938 126.766L82.7296 127.759L85.663 125.497L85.6931 125.475C92.0452 121.019 97.6034 113.692 100.561 105.873C100.567 105.858 100.573 105.844 100.579 105.829C103.34 98.5181 103.633 91.2824 101.405 85.4514C101.339 85.2786 101.332 85.0885 101.385 84.9112C101.438 84.7338 101.548 84.5795 101.698 84.4725C108.595 79.5406 113.112 73.0265 115.509 64.5593C115.538 64.4561 118.405 54.1579 116.689 48.3013C115.695 44.912 112.791 42.8023 110.404 41.9584C108.383 41.2449 106.449 41.2787 105.354 42.0498C102.793 43.8574 103.85 47.1444 103.894 47.2823C103.962 47.4861 103.95 47.7086 103.86 47.9035C103.77 48.0984 103.609 48.2508 103.411 48.3288C103.396 48.3346 101.658 49.0457 101.15 50.6297C100.799 51.7267 101.099 53.0415 102.045 54.5375C102.114 54.6469 102.157 54.7712 102.17 54.9005C102.208 55.2782 102.966 64.2263 91.166 70.5334C79.8406 76.5865 47.8477 92.4945 47.5261 92.6529L32.6985 100.359C32.5739 100.424 32.4349 100.455 32.2948 100.451C32.1548 100.446 32.0181 100.406 31.8979 100.333C31.8631 100.312 28.2969 98.2374 27.0155 99.9899C26.554 100.621 26.5625 101.517 27.0367 102.221C27.793 103.343 28.5691 103.999 29.2208 104.068C29.6036 104.108 29.9804 103.941 30.3788 103.556C30.467 103.47 30.573 103.406 30.689 103.367C30.805 103.328 30.9282 103.315 31.0495 103.331C31.1708 103.346 31.2873 103.388 31.3905 103.454C31.4937 103.52 31.5809 103.609 31.646 103.714C31.7293 103.848 33.6036 106.94 33.3516 113.696C36.2963 113.369 45.52 112.155 52.1571 109.164C52.2913 109.104 52.4391 109.081 52.5852 109.098C52.7312 109.114 52.8702 109.17 52.9877 109.259C53.1052 109.349 53.197 109.468 53.2536 109.605C53.3101 109.742 53.3294 109.892 53.3094 110.039C53.2722 110.308 52.3836 116.677 50.4293 121.183L50.4241 121.199Z" fill="#262F6A"/>
<path d="M40.4323 113.304C40.4158 113.363 40.3993 113.42 40.3805 113.477C40.2968 113.747 40.1945 114.01 40.0744 114.265C39.4269 116.305 37.3949 115.999 37.5432 114.978C37.6209 114.645 37.6868 114.298 37.7386 113.941C37.7457 113.908 37.7504 113.872 37.7551 113.837C38.0282 111.972 37.9976 109.865 37.6845 107.791C37.1759 104.401 35.9209 101.1 34.0184 99.0831C33.9473 99.0029 33.8718 98.9267 33.7924 98.8548C33.5843 98.645 33.3624 98.4495 33.1284 98.2697C32.5586 97.2399 33.7924 96.1838 35.5348 96.9616C35.8294 97.1172 36.1065 97.3046 36.3612 97.5205C36.4083 97.5562 36.4554 97.5966 36.4978 97.6371C38.8523 99.7277 40.517 104.573 40.7972 108.792C40.9079 110.464 40.8019 112.041 40.4323 113.304Z" fill="#C46949"/>
<path d="M38.3997 116.489C38.256 116.49 38.1127 116.474 37.9726 116.441C37.2008 116.261 36.7364 115.617 36.8424 114.876C36.8452 114.857 36.849 114.837 36.8532 114.819C38.0055 109.792 36.4421 101.717 32.6988 98.8391C32.6217 98.7796 32.5576 98.7046 32.5105 98.6189C32.1427 97.9529 32.2194 97.1989 32.7115 96.6533C33.3868 95.9046 34.6065 95.7695 35.8196 96.3104L35.8568 96.3284C37.9415 97.4097 39.8011 100.49 40.8306 104.569C41.8162 108.472 41.7766 112.282 40.7307 114.531C40.2881 115.87 39.2958 116.489 38.3997 116.489ZM38.2537 115.039C38.3569 115.07 38.467 115.07 38.5697 115.037C38.9304 114.937 39.2337 114.577 39.4018 114.047C39.4114 114.016 39.4233 113.985 39.4376 113.956C41.4531 109.714 38.8202 99.4979 35.2309 97.6061C34.4591 97.2684 33.9274 97.4244 33.757 97.6133C33.7302 97.639 33.711 97.6716 33.7014 97.7076C33.6918 97.7436 33.6921 97.7815 33.7023 97.8173C37.7913 101.127 39.4701 109.546 38.2537 115.039Z" fill="#262F6A"/>
<path d="M45.941 112.92C45.8345 112.92 45.7293 112.896 45.6334 112.849C45.5375 112.803 45.4533 112.734 45.3871 112.65C45.3209 112.566 45.2745 112.467 45.2513 112.362C45.2281 112.257 45.2286 112.148 45.253 112.044C47.6132 101.892 39.5079 96.6952 39.1613 96.4793C39.0036 96.3792 38.8914 96.2203 38.8492 96.0372C38.8069 95.854 38.8379 95.6614 38.9354 95.5012C39.033 95.341 39.1892 95.2262 39.3702 95.1818C39.5511 95.1373 39.7421 95.1668 39.9016 95.2639C39.9957 95.3234 42.2773 96.7566 44.2542 99.5774C46.0865 102.191 47.9857 106.533 46.6285 112.37C46.5922 112.526 46.5045 112.666 46.3797 112.766C46.2549 112.866 46.1003 112.92 45.941 112.92Z" fill="#262F6A"/>
<path d="M35.7405 114.952C35.7182 114.952 35.6961 114.951 35.6741 114.949C35.5815 114.941 35.4915 114.914 35.4092 114.87C35.3269 114.827 35.2539 114.767 35.1945 114.695C35.135 114.623 35.0903 114.54 35.0627 114.45C35.0352 114.36 35.0255 114.266 35.0341 114.172C35.7876 106.017 32.1055 100.33 32.0674 100.271C32.0158 100.193 31.9799 100.106 31.9619 100.014C31.9438 99.9216 31.9439 99.8268 31.9621 99.7348C31.9802 99.6427 32.0162 99.5552 32.0679 99.4772C32.1196 99.3992 32.186 99.3322 32.2633 99.2801C32.3406 99.228 32.4273 99.1918 32.5184 99.1735C32.6096 99.1553 32.7034 99.1554 32.7945 99.1737C32.8856 99.1921 32.9723 99.2284 33.0495 99.2806C33.1268 99.3329 33.1931 99.3999 33.2446 99.478C33.4085 99.7249 37.2441 105.622 36.4435 114.305C36.4272 114.482 36.3461 114.646 36.2161 114.766C36.086 114.886 35.9164 114.952 35.7405 114.952Z" fill="#262F6A"/>
<path d="M103.693 95.2539C103.556 97.9051 103.111 100.531 102.365 103.077L98.8499 101.124C90.7502 106.827 79.7309 110.221 67.958 113.016C67.958 113.016 60.1621 117.212 52.0483 118.938C51.4643 119.064 50.878 119.176 50.2917 119.271C50.2922 119.27 50.2922 119.268 50.2917 119.267C50.6944 118.065 51.064 116.829 51.3866 115.549C51.3909 115.537 51.394 115.524 51.396 115.511C51.4243 115.406 51.4478 115.299 51.4737 115.195C51.6386 114.533 51.7885 113.858 51.9235 113.168C51.9423 113.078 51.9588 112.992 51.9753 112.907C51.9965 112.802 52.0176 112.695 52.0365 112.59H52.0388C52.571 112.481 53.0984 112.362 53.6164 112.234C57.678 111.23 61.2711 109.608 63.7551 106.516L63.8729 101.164C60.6824 98.2198 57.5768 95.5393 54.7301 93.6841L61.2051 92.5615L64.3061 92.5211L69.877 96.5264C69.877 96.5264 84.8685 87.8926 91.4613 84.696C91.4613 84.696 91.579 78.0531 91.2258 72.9989L94.0042 68.9389C93.9383 69.1696 96.2081 70.9962 96.5989 75.6746C96.9898 80.353 97.0699 85.1503 97.0699 85.1503C97.0699 85.1503 99.0712 89.9452 99.7776 93.1966L103.693 95.2539Z" fill="#8E99A5"/>
<g opacity="0.6">
<path d="M64.6348 102.472L64.517 107.824C62.033 110.916 58.4423 112.538 54.3783 113.542C54.0322 113.627 53.6813 113.708 53.3282 113.784C53.0315 115.266 52.6077 117.126 52.0473 118.938C51.8777 118.974 51.7106 119.01 51.541 119.043C51.1244 119.126 50.7077 119.203 50.2908 119.271C50.2912 119.27 50.2912 119.268 50.2908 119.267C50.7217 118.049 51.0843 116.764 51.3856 115.549C51.3899 115.537 51.393 115.524 51.3951 115.511C51.4233 115.406 51.4469 115.299 51.4728 115.195L51.5575 114.838C51.6917 114.291 51.8118 113.734 51.9225 113.168C51.9413 113.078 51.9578 112.992 51.9743 112.907C51.9955 112.8 52.0167 112.695 52.0379 112.59C52.57 112.481 53.0974 112.362 53.6154 112.234C57.677 111.23 61.2701 109.608 63.7542 106.516L63.8578 101.764C64.1168 101.997 64.3758 102.235 64.6348 102.472Z" fill="white"/>
</g>
<g opacity="0.6">
<path d="M50.2917 119.267C50.6944 118.065 51.064 116.829 51.3866 115.549C51.0866 116.764 50.724 118.049 50.2917 119.267Z" fill="white"/>
</g>
<g opacity="0.6">
<path d="M52.0403 112.59C52.0191 112.695 51.9979 112.8 51.9767 112.907C51.9979 112.802 52.0191 112.695 52.0379 112.59H52.0403Z" fill="white"/>
</g>
<g opacity="0.6">
<path d="M94.008 68.9389C93.9703 69.0745 94.7238 69.7476 95.4349 71.2151C95.0369 70.6323 94.745 70.3327 94.7685 70.247L91.9901 74.307C92.3433 79.3612 92.2256 86.0042 92.2256 86.0042C85.6328 89.2008 70.6413 97.8345 70.6413 97.8345L65.0704 93.8292L61.9695 93.8697L56.3939 94.8353C55.8288 94.4238 55.2778 94.0385 54.7339 93.6841L61.2089 92.5615L64.3099 92.5211L69.8808 96.5264C69.8808 96.5264 84.8723 87.8926 91.4651 84.696C91.4651 84.696 91.5828 78.0531 91.2296 72.9989L94.008 68.9389Z" fill="white"/>
</g>
<g opacity="0.3">
<path d="M103.693 95.2539C103.556 97.9051 103.111 100.531 102.365 103.077L98.8499 101.124C90.7502 106.827 79.7309 110.221 67.958 113.016C67.958 113.016 60.1621 117.212 52.0483 118.938C51.4643 119.064 50.878 119.176 50.2917 119.271C50.2922 119.27 50.2922 119.268 50.2917 119.267C50.5555 118.482 50.805 117.68 51.0334 116.862L51.3395 116.798C59.4534 115.071 67.2493 110.875 67.2493 110.875C79.0221 108.081 90.0415 104.687 98.1412 98.9833L101.657 100.936C102.241 98.9368 102.643 96.8875 102.855 94.8139L103.693 95.2539Z" fill="#262F6A"/>
</g>
<g opacity="0.6">
<path d="M51.9249 113.168C51.8142 113.734 51.6941 114.291 51.5599 114.838C51.6423 114.484 51.72 114.139 51.7907 113.803C51.8354 113.594 51.8825 113.382 51.9249 113.168Z" fill="white"/>
</g>
<path d="M50.2918 120.105C50.1608 120.105 50.0318 120.074 49.9153 120.013C49.7989 119.953 49.6983 119.865 49.622 119.758C49.5457 119.65 49.4958 119.526 49.4765 119.395C49.4572 119.264 49.469 119.131 49.511 119.005C50.2381 116.861 50.8124 114.666 51.2294 112.438C51.2596 112.275 51.3371 112.126 51.452 112.008C51.5669 111.89 51.714 111.809 51.8745 111.776C57.2034 110.674 60.6335 108.952 62.9409 106.207L63.0441 101.524C60.4931 99.1788 57.2519 96.318 54.2851 94.3825C54.1449 94.2918 54.0351 94.1604 53.9702 94.0055C53.9053 93.8506 53.8884 93.6795 53.9217 93.5148C53.955 93.35 54.0369 93.1992 54.1567 93.0824C54.2764 92.9656 54.4284 92.8881 54.5926 92.8603L61.0677 91.7391C61.1103 91.7316 61.1534 91.7275 61.1967 91.7267L64.2972 91.6872C64.4717 91.6855 64.6424 91.7393 64.785 91.8409L69.9288 95.5398C72.4341 94.1032 84.5742 87.1677 90.6457 84.1709C90.664 82.5231 90.6956 77.213 90.4055 73.0565C90.3933 72.8381 90.4667 72.6236 90.6099 72.4594C90.753 72.2952 90.9543 72.1946 91.1704 72.1792C91.3864 72.1638 91.5997 72.235 91.7643 72.3772C91.9288 72.5195 92.0312 72.7215 92.0495 72.9395C92.4012 77.9722 92.2882 84.6442 92.2849 84.7108C92.2822 84.8652 92.237 85.0158 92.1544 85.1457C92.0718 85.2757 91.9551 85.3799 91.8173 85.4467C85.3263 88.5924 70.4379 97.1619 70.2858 97.248C70.1493 97.3266 69.9933 97.3641 69.8364 97.3562C69.6795 97.3483 69.5281 97.2952 69.4 97.2033L64.0467 93.3569L61.28 93.3921L56.8681 94.1565C59.5367 96.1102 62.2544 98.5414 64.429 100.548C64.5159 100.628 64.5848 100.726 64.6311 100.835C64.6774 100.945 64.7 101.063 64.6975 101.181L64.5797 106.533C64.5756 106.718 64.5108 106.896 64.3956 107.039C61.9087 110.131 58.3011 112.07 52.7419 113.291C52.4127 114.949 51.9978 116.588 51.4992 118.202C59.532 116.569 67.4834 112.325 67.5672 112.281C67.6298 112.247 67.6966 112.221 67.7659 112.205C78.1382 109.742 89.8856 106.418 98.3776 100.44C98.5035 100.351 98.6515 100.3 98.8048 100.291C98.9582 100.283 99.1108 100.318 99.2455 100.393L101.85 101.838C102.367 99.8413 102.698 97.7996 102.839 95.7401L99.4009 93.9325C99.2939 93.8762 99.2005 93.7969 99.1273 93.7002C99.0541 93.6034 99.0028 93.4916 98.9771 93.3726C98.2952 90.233 96.3343 85.5195 96.3145 85.4719C96.2738 85.3738 96.252 85.2686 96.2505 85.1622C96.2505 85.1147 96.1671 80.3373 95.7824 75.7436C95.4951 72.3239 94.1657 70.5786 93.5983 69.8332C93.3238 69.4727 93.0864 69.1615 93.2154 68.7073C93.2637 68.5377 93.364 68.388 93.5019 68.2797C93.6398 68.1715 93.8082 68.1103 93.9828 68.105C94.1574 68.0997 94.3291 68.1506 94.4732 68.2503C94.6173 68.35 94.7263 68.4933 94.7845 68.6597C94.818 68.7049 94.8641 68.7658 94.9046 68.8186C95.5041 69.6058 97.0967 71.697 97.4245 75.6033C97.7748 79.7779 97.877 84.0972 97.8954 84.9743C98.2311 85.792 99.796 89.6689 100.5 92.6329L104.075 94.5128C104.215 94.5864 104.331 94.6992 104.41 94.8378C104.488 94.9764 104.526 95.1349 104.517 95.2944C104.377 98.011 103.92 100.701 103.156 103.31C103.121 103.429 103.061 103.539 102.978 103.632C102.896 103.724 102.794 103.796 102.68 103.844C102.566 103.891 102.443 103.912 102.32 103.905C102.197 103.898 102.077 103.863 101.969 103.803L98.8989 102.099C90.2478 108.033 78.5776 111.344 68.2477 113.8C67.2046 114.353 58.7823 118.716 50.4236 120.092C50.3801 120.1 50.336 120.104 50.2918 120.105Z" fill="#262F6A"/>
<path d="M101.458 85.5594C101.124 84.8283 100.761 84.0848 100.394 83.3541C100.028 82.6235 99.6443 81.8947 99.252 81.1731C98.4656 79.7308 97.6297 78.3137 96.7025 76.9476C97.8426 78.1368 98.9125 79.4073 99.9377 80.7117C100.45 81.3643 100.952 82.0258 101.445 82.6962C101.937 83.3689 102.418 84.0396 102.894 84.7417C102.955 84.8323 102.998 84.9342 103.021 85.0416C103.043 85.149 103.044 85.2599 103.024 85.3678C103.004 85.4757 102.963 85.5786 102.904 85.6705C102.845 85.7625 102.768 85.8418 102.678 85.9038C102.589 85.9658 102.488 86.0094 102.381 86.0321C102.275 86.0547 102.165 86.056 102.059 86.0358C101.952 86.0156 101.85 85.9744 101.759 85.9144C101.668 85.8545 101.589 85.777 101.528 85.6864C101.503 85.649 101.481 85.6097 101.462 85.5689L101.458 85.5594Z" fill="#262F6A"/>
<path d="M52.1146 109.186C52.5163 109.051 52.9321 108.9 53.339 108.744C53.7458 108.588 54.1537 108.428 54.5563 108.258C54.9589 108.087 55.3568 107.91 55.7505 107.715C56.1442 107.521 56.5303 107.316 56.8906 107.057C56.625 107.417 56.3085 107.74 55.9879 108.056C55.6672 108.372 55.3286 108.674 54.9895 108.967C54.6505 109.259 54.302 109.549 53.9507 109.83C53.5994 110.111 53.2476 110.387 52.8756 110.663H52.8723C52.784 110.729 52.6837 110.776 52.5772 110.803C52.4708 110.829 52.3602 110.834 52.2518 110.817C52.1434 110.801 52.0394 110.763 51.9456 110.705C51.8518 110.648 51.7701 110.572 51.7051 110.483C51.6402 110.394 51.5933 110.293 51.5671 110.185C51.5409 110.078 51.536 109.966 51.5525 109.856C51.5691 109.747 51.6068 109.642 51.6636 109.547C51.7204 109.452 51.795 109.37 51.8834 109.304C51.954 109.253 52.032 109.213 52.1146 109.186Z" fill="#262F6A"/>
<path d="M65.0784 121.691C60.4225 121.691 56.5224 120.838 53.7435 119.145C53.6507 119.088 53.5699 119.014 53.5056 118.926C53.4413 118.838 53.3948 118.738 53.3687 118.632C53.3427 118.526 53.3376 118.415 53.3537 118.307C53.3699 118.199 53.4069 118.095 53.4628 118.001C53.5187 117.908 53.5924 117.826 53.6795 117.761C53.7667 117.696 53.8656 117.649 53.9708 117.623C54.0759 117.596 54.1851 117.591 54.2922 117.608C54.3993 117.624 54.5022 117.661 54.5949 117.718C59.2847 120.576 68.0037 120.769 77.9178 118.233C88.592 115.504 97.9316 110.367 100.626 105.742C100.738 105.556 100.919 105.422 101.129 105.368C101.339 105.315 101.561 105.348 101.747 105.459C101.934 105.569 102.069 105.75 102.125 105.961C102.181 106.172 102.153 106.397 102.046 106.587C99.0985 111.644 89.5668 116.973 78.3223 119.847C73.5134 121.078 69.0246 121.691 65.0784 121.691Z" fill="#262F6A"/>
<path d="M62.5482 129.455C62.3144 129.455 62.0811 129.433 61.8512 129.39C60.1663 129.071 59.0257 127.654 58.4672 126.771C55.7143 127.794 53.323 126.086 52.1641 124.708C51.0645 124.766 50.2041 124.471 49.6056 123.828C48.5225 122.663 48.8262 120.89 48.8644 120.692C48.9081 120.477 49.0338 120.289 49.2142 120.167C49.3946 120.045 49.6152 120.001 49.8282 120.042C50.0411 120.084 50.2292 120.209 50.3517 120.389C50.4742 120.57 50.5212 120.793 50.4824 121.008C50.4255 121.32 50.3732 122.227 50.8092 122.691C51.1087 123.008 51.6531 123.119 52.425 123.013C52.573 122.993 52.7235 123.014 52.8605 123.074C52.9975 123.134 53.116 123.23 53.2034 123.352C53.2975 123.481 55.5419 126.536 58.4225 124.97C58.5213 124.916 58.6299 124.883 58.7418 124.873C58.8536 124.863 58.9663 124.876 59.0729 124.912C59.1794 124.948 59.2777 125.005 59.3616 125.08C59.4455 125.156 59.5132 125.247 59.5607 125.35C59.5692 125.369 60.5586 127.456 62.1592 127.753C63.0539 127.92 64.048 127.481 65.1085 126.449C65.1982 126.362 65.3063 126.296 65.4248 126.257C65.5432 126.218 65.6688 126.207 65.7923 126.224C65.9157 126.241 66.0337 126.286 66.1373 126.356C66.241 126.425 66.3277 126.518 66.3908 126.626C66.3908 126.63 66.9178 127.483 67.8318 127.618C68.5853 127.73 69.4621 127.344 70.4275 126.468C70.5901 126.321 70.8042 126.245 71.0224 126.257C71.2407 126.269 71.4453 126.368 71.5913 126.532C71.7373 126.696 71.8127 126.913 71.8009 127.133C71.7891 127.353 71.6911 127.56 71.5285 127.708C70.1718 128.938 68.8386 129.462 67.5643 129.262C66.6818 129.123 66.023 128.657 65.5898 128.235C64.5745 129.046 63.5559 129.455 62.5482 129.455Z" fill="#262F6A"/>
<path d="M65.1697 124.529C57.597 124.529 52.084 122.837 49.7285 119.704C49.6703 119.63 49.6273 119.544 49.6022 119.453C49.577 119.362 49.5701 119.266 49.5819 119.172C49.5937 119.078 49.6239 118.987 49.6709 118.905C49.7178 118.823 49.7805 118.751 49.8552 118.694C49.93 118.636 50.0153 118.595 50.1062 118.571C50.1971 118.547 50.2918 118.542 50.3847 118.556C50.4776 118.569 50.5669 118.602 50.6473 118.651C50.7277 118.7 50.7976 118.764 50.853 118.841C53.3347 122.141 60.3876 123.662 69.7187 122.911C81.1774 121.989 94.8429 117.607 97.8769 111.871C97.9652 111.704 98.1156 111.579 98.2948 111.524C98.4741 111.469 98.6677 111.488 98.8329 111.578C98.9981 111.667 99.1215 111.819 99.1759 112C99.2303 112.181 99.2113 112.376 99.123 112.543C95.7381 118.943 81.5047 123.394 69.8322 124.334C68.2047 124.464 66.647 124.529 65.1697 124.529Z" fill="#262F6A"/>
<path d="M62.5924 134.613H62.5849C55.8037 134.555 52.018 131.608 50.036 129.146C47.8806 126.468 47.3518 123.811 47.3296 123.699C47.2908 123.484 47.3375 123.262 47.4597 123.081C47.582 122.9 47.7698 122.775 47.9826 122.733C48.1954 122.691 48.416 122.736 48.5965 122.857C48.7771 122.978 48.9031 123.166 48.9472 123.381C49.0263 123.78 50.9571 132.847 62.599 132.948C62.8175 132.949 63.0268 133.038 63.1807 133.194C63.3347 133.351 63.4207 133.563 63.4198 133.784C63.4189 134.005 63.3312 134.216 63.1761 134.372C63.0209 134.527 62.811 134.614 62.5924 134.613Z" fill="#262F6A"/>
<path d="M58.5516 137.338C57.4642 137.338 56.415 136.933 55.8052 136.244C55.6941 136.118 55.5698 136.105 54.8836 136.253C54.0303 136.438 52.741 136.718 51.5199 135.484C50.9044 134.862 50.5023 134.243 50.1477 133.696C49.5086 132.71 49.1879 132.216 48.0964 132.159C47.802 132.145 47.514 132.068 47.2517 131.932C46.9894 131.796 46.7588 131.606 46.5753 131.373C45.2742 129.779 45.7493 126.059 45.8077 125.641C45.8426 125.426 45.9593 125.234 46.1327 125.105C46.3061 124.976 46.5225 124.921 46.7356 124.951C46.9488 124.982 47.1418 125.095 47.2733 125.267C47.4048 125.439 47.4644 125.656 47.4394 125.872C47.2459 127.273 47.244 129.577 47.8473 130.314C47.9706 130.465 48.0827 130.491 48.1816 130.497C50.1081 130.597 50.8291 131.709 51.5251 132.784C51.851 133.286 52.1886 133.806 52.684 134.306C53.2444 134.872 53.7045 134.804 54.5366 134.625C55.2604 134.468 56.2516 134.253 57.0324 135.132C57.346 135.485 58.1113 135.772 58.9631 135.638C59.7166 135.52 60.7587 135.042 61.4731 133.436C61.5166 133.335 61.5795 133.243 61.6582 133.167C61.7369 133.091 61.8298 133.031 61.9316 132.991C62.0333 132.952 62.1418 132.933 62.2509 132.936C62.3599 132.938 62.4673 132.963 62.5668 133.008C62.6663 133.054 62.7559 133.118 62.8305 133.199C62.905 133.279 62.9631 133.374 63.0011 133.477C63.0392 133.58 63.0566 133.69 63.0524 133.8C63.0481 133.91 63.0222 134.019 62.9763 134.118C61.9059 136.526 60.1611 137.134 59.217 137.283C58.9969 137.318 58.7744 137.337 58.5516 137.338Z" fill="#262F6A"/>
<path d="M104.405 127.385C104.352 127.364 104.25 127.337 104.166 127.315C104.083 127.292 103.988 127.271 103.898 127.251C103.716 127.211 103.53 127.179 103.344 127.15C102.968 127.094 102.589 127.061 102.21 127.051C101.444 127.026 100.678 127.111 99.9353 127.302C99.1801 127.498 98.4645 127.826 97.8209 128.271C97.1692 128.719 96.5965 129.303 96.1129 129.962C96.4808 129.215 96.9695 128.534 97.5591 127.949C98.1709 127.353 98.8808 126.869 99.657 126.519C100.437 126.158 101.277 125.932 102.131 125.805C102.56 125.743 102.992 125.706 103.426 125.696C103.643 125.692 103.862 125.693 104.082 125.703C104.192 125.707 104.303 125.714 104.415 125.723C104.528 125.732 104.629 125.74 104.773 125.763L104.828 125.771C105.046 125.805 105.241 125.926 105.371 126.106C105.501 126.285 105.555 126.51 105.521 126.73C105.487 126.95 105.368 127.147 105.19 127.279C105.012 127.41 104.79 127.465 104.572 127.43C104.515 127.421 104.459 127.405 104.405 127.385Z" fill="#262F6A"/>
<path d="M93.6411 123.083C92.7704 123.083 91.8516 123.046 90.8858 122.965C90.6679 122.947 90.4661 122.842 90.3248 122.673C90.1835 122.505 90.1143 122.287 90.1323 122.066C90.1504 121.846 90.2542 121.643 90.4211 121.5C90.5879 121.357 90.804 121.287 91.0219 121.305C100.694 122.114 105.172 118.188 105.216 118.148C105.378 118 105.592 117.923 105.811 117.935C106.029 117.946 106.234 118.045 106.381 118.209C106.527 118.373 106.603 118.589 106.592 118.809C106.581 119.03 106.483 119.237 106.321 119.385C106.142 119.549 102.175 123.083 93.6411 123.083Z" fill="#262F6A"/>
<path d="M89.538 127.414C89.3482 127.413 89.1602 127.376 88.9837 127.306C87.9694 126.908 87.3082 125.478 87.1858 125.196C87.1175 125.023 87.1183 124.831 87.1879 124.66C87.2576 124.488 87.3906 124.351 87.5588 124.276C87.7271 124.202 87.9173 124.197 88.0892 124.262C88.2611 124.327 88.4012 124.457 88.4798 124.625C88.6908 125.108 89.1613 125.847 89.4951 125.978C89.5342 125.993 89.5422 125.989 89.5568 125.983C90.1704 125.7 90.7521 125.352 91.2917 124.943C91.3648 124.885 91.4486 124.843 91.5382 124.817C91.6278 124.792 91.7215 124.785 91.8138 124.797C91.9061 124.808 91.9953 124.838 92.0762 124.884C92.1571 124.93 92.2282 124.992 92.2853 125.067C92.2853 125.069 92.8259 125.735 93.6184 125.763C94.2452 125.777 94.9069 125.414 95.5963 124.664C95.7045 124.545 95.8492 124.468 96.0067 124.443C96.1643 124.418 96.3255 124.448 96.4642 124.528C97.2303 124.965 99.4366 125.891 100.422 124.932L101.767 123.573C101.861 123.478 101.98 123.411 102.111 123.382C102.241 123.352 102.377 123.36 102.503 123.406C102.822 123.519 103.869 123.773 104.458 123.464C104.666 123.354 104.797 123.178 104.871 122.909C104.924 122.73 105.044 122.578 105.206 122.487C105.368 122.396 105.559 122.373 105.738 122.423C105.916 122.472 106.068 122.591 106.161 122.754C106.254 122.916 106.279 123.109 106.233 123.29C106.054 123.94 105.665 124.438 105.106 124.73C104.206 125.202 103.085 125.033 102.469 124.88L101.411 125.949C99.8609 127.457 97.3175 126.516 96.2527 126.017C95.3806 126.833 94.4633 127.228 93.5473 127.187C92.7148 127.151 92.0677 126.762 91.6599 126.428C91.1749 126.756 90.6637 127.042 90.1318 127.284C89.945 127.369 89.7427 127.413 89.538 127.414Z" fill="#262F6A"/>
<path d="M108.719 52.2518L115.281 61.347C114.806 62.8002 115.197 64.389 116.374 65.2761C117.886 66.4178 120.118 65.9754 121.363 64.2915C122.609 62.6075 122.395 60.3195 120.885 59.1802C120.153 58.6284 119.254 58.4453 118.378 58.5975L113.899 52.2518" fill="#C46949"/>
<g opacity="0.3">
<path d="M121.363 64.2915C120.118 65.9754 117.886 66.4178 116.374 65.2761C115.661 64.741 115.237 63.9442 115.121 63.0808C116.631 64.1773 118.827 63.7254 120.059 62.0605C120.718 61.171 120.968 60.1102 120.831 59.1422C120.85 59.154 120.866 59.1659 120.885 59.1802C122.395 60.3195 122.609 62.6099 121.363 64.2915Z" fill="#262F6A"/>
</g>
<path d="M103.847 47.162C104.47 48.3388 105.459 49.3639 106.594 50.1588C107.162 50.5603 107.783 50.8833 108.411 51.1701C109.039 51.457 109.675 51.721 110.329 51.9136C110.983 52.1063 111.656 52.2076 112.304 52.1757C112.622 52.1467 112.946 52.1082 113.233 51.9926C113.529 51.8939 113.802 51.7378 114.038 51.5331C114.503 51.1135 114.812 50.4751 114.943 49.7673C115.084 49.0581 115.062 48.3036 115.008 47.5473C115.249 48.2651 115.418 49.0186 115.432 49.8125C115.442 50.5969 115.244 51.4593 114.695 52.1553C114.627 52.2413 114.553 52.3222 114.473 52.3974C114.394 52.4725 114.323 52.5629 114.232 52.6233C114.058 52.7546 113.883 52.8964 113.687 52.9891C113.305 53.2099 112.89 53.3283 112.476 53.4277C111.645 53.6028 110.811 53.5666 110.008 53.4482C109.208 53.3312 108.429 53.1016 107.692 52.766C106.961 52.4331 106.287 51.9945 105.637 51.5293C104.349 50.5888 103.174 49.4243 102.388 47.935C102.335 47.8384 102.303 47.7323 102.291 47.6228C102.279 47.5133 102.29 47.4025 102.321 47.297C102.352 47.1914 102.403 47.0932 102.472 47.0079C102.541 46.9226 102.626 46.852 102.723 46.8002C102.819 46.7484 102.924 46.7164 103.033 46.706C103.141 46.6956 103.251 46.7071 103.355 46.7398C103.459 46.7724 103.556 46.8256 103.639 46.8963C103.723 46.967 103.792 47.0537 103.842 47.1515L103.847 47.162Z" fill="#262F6A"/>
<path d="M104.83 56.5991C103.756 56.5991 102.498 56.3191 101.056 55.7591C100.853 55.6786 100.691 55.5205 100.603 55.3194C100.516 55.1182 100.51 54.8903 100.589 54.6853C100.667 54.4803 100.822 54.3148 101.02 54.2249C101.219 54.135 101.444 54.128 101.648 54.2055C103.877 55.0726 105.527 55.1702 106.421 54.4909C107.426 53.7236 107.292 52.0963 107.291 52.0796C107.273 51.8616 107.341 51.6452 107.479 51.4772C107.618 51.3092 107.816 51.203 108.032 51.1817C108.247 51.1604 108.463 51.2256 108.631 51.3633C108.799 51.501 108.907 51.7 108.931 51.9174C108.942 52.0211 109.163 54.4719 107.427 55.8095C106.742 56.3351 105.874 56.5991 104.83 56.5991Z" fill="#262F6A"/>
<path d="M118.284 66.7441C117.419 66.7476 116.576 66.4664 115.883 65.943C114.568 64.9521 113.994 63.213 114.383 61.512L108.056 52.7422L109.388 51.7614L115.95 60.857C116.027 60.9638 116.078 61.0877 116.098 61.2185C116.118 61.3492 116.108 61.4829 116.066 61.6085C115.69 62.7578 116.013 63.9637 116.869 64.6092C117.412 65.0187 118.102 65.1667 118.812 65.0264C119.554 64.8803 120.225 64.4422 120.705 63.7934C121.186 63.1445 121.412 62.3706 121.339 61.6109C121.271 60.8822 120.936 60.2557 120.395 59.8471C119.877 59.457 119.222 59.3029 118.548 59.4132C118.494 59.4242 118.437 59.4237 118.381 59.4299H118.378C118.29 59.4294 118.202 59.4148 118.119 59.3866C117.954 59.3309 117.81 59.2238 117.709 59.0807L113.231 52.7351L114.573 51.7685L118.772 57.7179C119.707 57.6673 120.63 57.9487 121.381 58.5132C122.3 59.2068 122.868 60.2514 122.982 61.4544C123.091 62.6265 122.753 63.811 122.027 64.7904C121.302 65.7699 120.274 66.4344 119.13 66.6603C118.852 66.716 118.568 66.744 118.284 66.7441Z" fill="#262F6A"/>
<path d="M114.142 71.4148C114.013 71.415 113.885 71.3791 113.775 71.311C113.664 71.243 113.574 71.1454 113.514 71.0291C109.788 63.7511 99.5185 63.3091 99.4154 63.3058C99.2281 63.2995 99.0509 63.2183 98.9228 63.08C98.7948 62.9417 98.7263 62.7577 98.7326 62.5685C98.7388 62.3793 98.8192 62.2003 98.9561 62.0709C99.093 61.9416 99.2751 61.8724 99.4625 61.8788C99.9179 61.894 110.659 62.3454 114.767 70.3731C114.823 70.4818 114.85 70.6032 114.846 70.7255C114.841 70.8478 114.806 70.967 114.743 71.0715C114.68 71.1761 114.592 71.2626 114.486 71.3226C114.381 71.3827 114.262 71.4143 114.14 71.4144L114.142 71.4148Z" fill="#262F6A"/>
<path d="M99.2383 39.992L66.8574 6.06598L100.404 38.8161C100.482 38.8919 100.545 38.9826 100.588 39.083C100.632 39.1833 100.655 39.2914 100.657 39.4008C100.659 39.5103 100.64 39.6191 100.6 39.721C100.56 39.8229 100.501 39.9159 100.426 39.9947C100.351 40.0734 100.261 40.1364 100.161 40.18C100.062 40.2235 99.9547 40.2469 99.8463 40.2486C99.7379 40.2503 99.6302 40.2304 99.5295 40.1901C99.4287 40.1497 99.3368 40.0897 99.259 40.0134L99.2383 39.992Z" fill="#262F6A"/>
<g opacity="0.3">
<path d="M104.333 36.145L104.001 36.2402L101.882 37.4413L99.8213 39.4035L66.8574 6.06499L61.9858 0.882385L73.6857 2.81605L104.333 36.145Z" fill="#262F6A"/>
</g>
<path d="M28.7913 114.239L28.7324 114.253C28.4051 114.338 26.7805 114.705 25.2618 114.239C24.7587 114.093 24.2907 113.844 23.8867 113.508C22.7306 112.533 20.3502 110.036 19.5214 107.436C18.9987 105.807 19.0881 104.142 20.4726 102.789C20.8366 102.424 21.2467 102.11 21.6923 101.854C24.1151 100.486 26.0035 102.33 26.6227 103.065C26.7664 103.234 26.8417 103.343 26.8417 103.343C26.8511 103.357 26.8629 103.369 26.8723 103.383C28.1532 105.041 28.8619 106.63 29.2175 108.055C29.2928 108.357 29.354 108.649 29.3988 108.935C29.9168 112.079 28.7913 114.239 28.7913 114.239Z" fill="white"/>
<g opacity="0.6">
<path d="M29.3728 108.761C28.9608 107.586 28.3015 106.323 27.2843 105.017C27.2843 105.017 24.506 100.953 20.9129 104.461C19.8557 105.493 19.5543 106.708 19.7026 107.95C18.9939 106.161 18.9421 104.282 20.4726 102.789C24.0633 99.2805 26.844 103.345 26.844 103.345C28.3604 105.296 29.0832 107.153 29.3728 108.761Z" fill="white"/>
</g>
<path d="M26.9345 115.302C25.8156 115.302 24.4476 115.064 23.3589 114.148C21.6984 112.748 18.5264 109.222 18.4063 105.899C18.354 104.457 18.8565 103.21 19.8995 102.189C21.1541 100.964 22.4811 100.412 23.8416 100.548C25.956 100.759 27.3287 102.598 27.5048 102.846C32.3283 109.061 29.6385 114.4 29.5217 114.625C29.4695 114.725 29.3977 114.813 29.3107 114.884C29.2237 114.955 29.1232 115.008 29.0155 115.039C28.3355 115.214 27.6363 115.303 26.9345 115.302ZM23.4498 102.195C22.6643 102.195 21.8567 102.595 21.0457 103.387C20.3427 104.074 20.0182 104.876 20.0531 105.838C20.1557 108.676 23.2364 111.876 24.4151 112.87C25.5938 113.864 27.4346 113.661 28.2088 113.516C28.6571 112.365 29.7553 108.434 26.1966 103.86C26.1867 103.847 26.1768 103.834 26.1679 103.821C26.1589 103.808 25.1229 102.346 23.6697 102.204C23.5966 102.197 23.5232 102.194 23.4498 102.195Z" fill="#262F6A"/>
<g opacity="0.3">
<path d="M30.098 117.944L29.9482 118.008L29.9694 117.966C30.0132 117.958 30.0556 117.954 30.098 117.944Z" fill="#262F6A"/>
</g>
<g opacity="0.3">
<path d="M106.472 50.2021C110.872 51.4536 114.323 50.8452 114.14 43.1291C114.14 43.1291 119.995 49.6936 117.884 56.2333L117.818 56.8517L114.536 54.1293C114.536 54.1293 111.103 53.4881 112.407 56.8517L109.003 52.8559L107.119 51.1487" fill="#262F6A"/>
</g>
<g opacity="0.3">
<path d="M106.12 50.0898C106.342 53.9905 104.116 54.7716 101.066 54.4999C101.066 54.4999 102.412 55.7719 104.74 55.4037C107.067 55.0356 107.946 53.5733 107.946 53.5733L107.785 52.2523" fill="#262F6A"/>
</g>
<g opacity="0.3">
<path d="M28.7913 114.239C28.7913 114.239 25.7704 115.095 23.8867 113.508C22.7306 112.533 20.3502 110.036 19.5214 107.436C19.6791 107.579 19.8392 107.738 20.0017 107.917C25.2594 113.677 28.7136 107.917 28.7136 107.917L29.2198 108.057C30.131 111.667 28.7913 114.239 28.7913 114.239Z" fill="#262F6A"/>
</g>
<g opacity="0.3">
<path d="M32.2737 111.587C32.2501 113.054 32.0382 114.612 31.5037 116.134C31.1011 117.276 29.5212 117.466 28.9396 116.405C28.6994 115.968 28.5817 115.347 28.7136 114.469C28.7236 114.398 28.7299 114.325 28.7324 114.253L28.7913 114.239C28.7913 114.239 29.9167 112.079 29.4034 108.937L29.5447 108.761C29.5447 108.761 31.7378 112.176 32.2737 111.587Z" fill="#262F6A"/>
</g>
<g opacity="0.3">
<path d="M52.1084 112.231C52.3674 110.845 52.4946 109.924 52.4946 109.924C50.4555 110.842 48.1904 111.596 45.9395 112.207C44.0276 112.726 42.1251 113.144 40.3804 113.477C40.2967 113.747 40.1944 114.01 40.0743 114.265C39.4268 116.305 37.3948 115.999 37.5431 114.978C37.6208 114.645 37.6867 114.298 37.7385 113.941C37.0227 114.055 36.3564 114.153 35.756 114.236L35.7395 114.239C33.7475 114.514 32.4808 114.619 32.4808 114.619C32.6433 112.131 32.5138 110.119 32.2712 108.549V108.528C32.2712 108.528 33.9524 108.492 35.5488 108.124C36.2387 107.962 36.9144 107.741 37.4254 107.434C37.4254 107.434 37.5196 107.581 37.6844 107.788C38.2212 108.457 39.5045 109.75 40.7971 108.79C40.8118 108.78 40.8259 108.77 40.8395 108.759V107.053C40.896 107.053 43.0481 107.049 46.2385 106.383C48.7814 105.855 51.9836 104.908 55.3059 103.203C55.3059 103.203 57.943 105.662 55.3059 108.269C52.6688 110.875 58.3622 110.611 58.3622 110.611L52.1084 112.231Z" fill="#262F6A"/>
</g>
<g opacity="0.3">
<path d="M52.4946 92.9768C79.9837 98.4286 92.3569 86.6949 92.3498 72.8947Z" fill="#262F6A"/>
</g>
<path d="M77.2463 88.756C62.4385 97.159 37.2682 96.0507 32.7945 75.6746C8.07162 64.7862 10.9253 54.7373 34.7771 51.1482C34.7771 51.1482 37.2494 46.5388 40.1926 43.8036C37.5437 33.9331 45.9871 22.0481 44.6074 39.1657C47.9038 26.1461 52.7895 30.0682 49.5519 37.32C49.6367 37.2582 51.9253 35.5766 55.3065 34.2019C56.0129 33.9165 56.7663 33.6406 57.5551 33.398C61.8357 25.8084 66.7638 19.6173 74.1783 18.7944C74.5538 18.7528 74.9335 18.8131 75.2782 18.969C75.623 19.125 75.9203 19.3709 76.1397 19.6816C77.7313 21.9339 81.2938 28.0132 80.9265 36.9038C87.5899 40.2146 92.0824 46.2106 94.0179 53.1081C97.4955 65.5306 92.671 80.881 77.2463 88.756Z" fill="white"/>
<g opacity="0.3">
<path d="M77.2482 88.756C64.4771 96.0031 44.0018 96.1767 35.7396 83.0192C45.504 90.8728 59.5735 92.7993 73.6566 84.697C95.7009 71.393 94.6013 53.1247 85.873 40.1694C99.6636 51.9022 98.9055 77.6963 77.2482 88.756Z" fill="#262F6A"/>
</g>
<g opacity="0.6">
<path d="M40.9427 45.6493C38.3367 48.4002 36.267 52.2566 36.267 52.2566C17.6542 55.0631 11.829 61.7941 21.923 69.7952C9.82766 61.3137 15.3044 54.0785 34.779 51.1482C34.779 51.1482 37.2513 46.5388 40.1945 43.8036C38.1342 36.1308 42.7798 27.2378 44.3008 31.7045C42.5382 32.4837 40.3748 38.3604 41.4574 43.9297C41.5141 44.237 41.4969 44.5536 41.4074 44.8528C41.3178 45.152 41.1585 45.4252 40.9427 45.6493Z" fill="white"/>
</g>
<g opacity="0.6">
<path d="M50.4721 31.7901V31.7925C49.2383 32.1921 47.5219 34.6561 46.0974 40.2764C45.083 40.7911 43.7828 41.1083 46.1835 35.0029C48.0648 30.5838 49.9424 29.8422 50.4721 31.7901Z" fill="white"/>
</g>
<path d="M94.0155 53.1104C90.0128 55.7909 85.1106 57.3655 79.8199 57.3655C66.2811 57.3655 55.3065 47.0478 55.3065 34.3184C55.3065 34.2804 55.3065 34.2399 55.3065 34.2019C56.0129 33.9165 56.7663 33.6406 57.5551 33.398C61.8357 25.8084 66.7638 19.6173 74.1783 18.7944C74.5538 18.7528 74.9335 18.8131 75.2782 18.969C75.623 19.125 75.9203 19.3709 76.1397 19.6816C77.7314 21.9339 81.2938 28.0132 80.9265 36.9038C87.588 40.217 92.0824 46.213 94.0155 53.1104Z" fill="#FF6F03"/>
<g opacity="0.6">
<path d="M76.3134 19.9337C76.101 19.8908 75.8834 19.8811 75.6682 19.9051C68.2584 20.7281 63.3303 26.9191 59.045 34.5087C54.4677 35.9144 49.4172 39.3274 49.3136 39.4035C49.6894 38.5739 49.9774 37.7065 50.173 36.8158C51.5858 36.0238 55.2801 34.0949 57.5546 33.398C61.8399 25.8084 66.7633 19.6173 74.1778 18.7944C74.5533 18.7528 74.9329 18.8131 75.2777 18.969C75.6224 19.125 75.9198 19.3709 76.1391 19.6816C76.1956 19.7624 76.2521 19.8457 76.3134 19.9337Z" fill="white"/>
</g>
<path d="M75.721 59.3381C75.1312 59.5438 74.5877 59.8657 74.122 60.2851C73.6563 60.7046 73.2776 61.2133 73.008 61.7817C72.855 62.0971 73.0325 62.4814 73.3753 62.5428C75.526 62.9167 76.4419 61.1814 76.4245 59.8185C76.4203 59.4575 76.0567 59.2182 75.721 59.3381Z" fill="#262F6A"/>
<path d="M59.5687 69.3884C57.4096 69.9664 55.1068 68.3419 54.4264 65.7542C54.3114 65.3165 54.2482 64.8665 54.238 64.4137C54.2358 64.3076 54.2718 64.2044 54.3394 64.1231C54.407 64.0419 54.5015 63.9883 54.6053 63.9723L61.6337 62.9015C61.7328 62.8867 61.8338 62.907 61.9197 62.9591C62.0056 63.0111 62.0709 63.0916 62.1046 63.1869C62.1592 63.3388 62.2074 63.4947 62.2492 63.6545C62.9278 66.2418 61.7293 68.8081 59.5687 69.3884Z" fill="#262F6A"/>
<path d="M60.4856 66.5029C60.9897 66.5029 61.3983 66.0071 61.3983 65.3955C61.3983 64.7839 60.9897 64.2881 60.4856 64.2881C59.9816 64.2881 59.573 64.7839 59.573 65.3955C59.573 66.0071 59.9816 66.5029 60.4856 66.5029Z" fill="white"/>
<path d="M81.7016 53.6575C80.4932 54.5137 78.6435 53.979 77.4078 52.4835C77.3172 52.3714 77.2618 52.2345 77.2487 52.0905C77.2356 51.9464 77.2654 51.8016 77.3343 51.6748L79.4855 47.6362C79.5252 47.5611 79.5795 47.4949 79.6452 47.4415C79.7108 47.3881 79.7865 47.3486 79.8676 47.3254C79.9487 47.3022 80.0336 47.2958 80.1172 47.3066C80.2009 47.3173 80.2815 47.345 80.3543 47.3879C80.9444 47.7464 81.4519 48.2281 81.8428 48.8007C83.0639 50.5655 83.0027 52.737 81.7016 53.6575Z" fill="#262F6A"/>
<path d="M81.1765 52.2028C81.6075 52.2028 81.9568 51.7302 81.9568 51.1473C81.9568 50.5643 81.6075 50.0917 81.1765 50.0917C80.7456 50.0917 80.3962 50.5643 80.3962 51.1473C80.3962 51.7302 80.7456 52.2028 81.1765 52.2028Z" fill="white"/>
<path d="M81.5132 71.3935C81.346 71.5386 81.1788 71.6979 81.014 71.8692C79.2481 73.7124 77.8966 75.2893 75.8057 77.0423C74.1881 78.398 70.1077 77.9936 68.2711 75.0872H68.2735C68.2735 75.0872 69.0034 71.2151 73.656 72.3448C73.6574 72.3448 75.5623 69.4027 81.5132 71.3935Z" fill="#E84242"/>
<path d="M81.1756 60.1553C81.0801 61.2521 80.7228 62.3091 80.1344 63.2359C79.8237 63.7158 79.4488 64.1499 79.0202 64.5259C78.5861 64.9078 78.1024 65.2279 77.5825 65.4773C77.5166 65.5088 77.4453 65.5272 77.3725 65.5315L77.2953 65.5358L77.582 65.4778C76.7537 65.8702 75.8561 66.0486 74.9802 66.1166C74.5414 66.1518 74.1048 66.1618 73.6711 66.1618L73.3462 66.1571C73.2482 66.1571 73.1578 66.1542 73.0636 66.1571C72.879 66.1614 72.6954 66.1723 72.5136 66.1942C71.7942 66.2718 71.1017 66.5138 70.4887 66.902C69.8695 67.2827 69.3393 67.7944 68.9347 68.4018C68.5373 69.0183 68.2733 69.7126 68.16 70.4392C68.0381 71.1862 68.0319 71.9479 68.1417 72.6968C68.2471 73.4237 68.5039 74.1197 68.8951 74.7389C69.2847 75.3473 69.8124 75.8529 70.4345 76.2136C71.6726 76.939 73.2873 77.1174 74.6756 76.7368C74.8446 76.6893 75.0105 76.6311 75.1724 76.5627C75.334 76.4922 75.49 76.4094 75.6391 76.3149C75.9677 76.1209 76.2824 75.9037 76.5809 75.6651C77.1756 75.1799 77.7049 74.6124 78.2112 73.9883C78.7174 73.3642 79.2345 72.7116 79.8123 72.0803C79.962 71.9262 80.1061 71.7692 80.262 71.618L80.4927 71.3896C80.5737 71.3121 80.6585 71.2379 80.7437 71.1642C81.0884 70.8631 81.4616 70.5972 81.8579 70.3702C82.2702 70.1417 82.715 69.9787 83.1765 69.8869C83.639 69.8046 84.113 69.8134 84.5723 69.9126C85.4741 70.1205 86.2077 70.6376 86.7856 71.2445C86.026 70.893 85.2381 70.6357 84.4917 70.6542C84.1302 70.6583 83.7725 70.7301 83.4369 70.8659C83.1028 70.9958 82.7907 71.1771 82.5115 71.4034C81.9271 71.8401 81.4482 72.4433 80.9392 73.0712C80.4301 73.6991 79.9295 74.3489 79.3602 74.9896C78.7831 75.6504 78.1463 76.2556 77.4582 76.7972C77.1062 77.0691 76.7378 77.3186 76.3553 77.5445C76.1541 77.6698 75.9441 77.7801 75.7271 77.8747C75.509 77.9682 75.2851 78.0476 75.057 78.1125C74.1701 78.3545 73.2451 78.4206 72.3333 78.3071C71.416 78.2043 70.5292 77.9129 69.7277 77.4508C68.914 76.9779 68.2232 76.3165 67.7122 75.521C67.2118 74.733 66.8825 73.8468 66.7459 72.9209C66.612 72.0198 66.6193 71.103 66.7675 70.2042C66.9135 69.2809 67.2504 68.399 67.7564 67.616C68.2744 66.8368 68.9536 66.1803 69.747 65.6919C70.141 65.4418 70.5623 65.2384 71.0025 65.0858C71.4407 64.9356 71.8937 64.833 72.3535 64.78C72.5814 64.7528 72.8093 64.7391 73.0368 64.7324H73.6673C74.0549 64.7286 74.4418 64.7 74.8258 64.6468C75.57 64.5391 76.3014 64.3555 77.0089 64.0988L77.0876 64.0707C77.1543 64.0469 77.225 64.0366 77.2957 64.0403L77.0085 64.0988C77.4459 63.9424 77.8666 63.7416 78.2639 63.4994C78.6689 63.2496 79.0453 62.9553 79.3861 62.6218C79.7422 62.2744 80.0651 61.8939 80.3505 61.4854C80.6485 61.057 80.9239 60.613 81.1756 60.1553Z" fill="#262F6A"/>
<path d="M77.9498 65.0597C77.865 65.0599 77.7811 65.0415 77.7041 65.0058C77.627 64.97 77.5585 64.9178 77.5034 64.8528C77.0098 64.2734 75.5665 62.6551 74.8192 62.1299C74.6911 62.0397 74.6037 61.9018 74.5763 61.7465C74.5489 61.5913 74.5836 61.4314 74.6729 61.302C74.7622 61.1726 74.8988 61.0844 75.0525 61.0567C75.2062 61.029 75.3645 61.0641 75.4926 61.1543C76.5135 61.8726 78.318 63.988 78.3943 64.0774C78.4678 64.1636 78.5151 64.2694 78.5309 64.382C78.5466 64.4947 78.53 64.6095 78.4831 64.7129C78.4361 64.8163 78.3608 64.904 78.266 64.9654C78.1712 65.0269 78.061 65.0596 77.9484 65.0597H77.9498Z" fill="#262F6A"/>
<path d="M78.8916 70.775C77.5777 70.5729 76.351 70.6989 75.275 71.3934L73.2736 72.1355C73.2736 72.1355 71.8303 72.107 70.2715 72.1664C69.1037 72.214 68.3314 73.8266 68.0182 74.6352C67.6274 73.867 67.3848 72.9489 67.3589 71.8691C67.2742 68.5203 69.0118 66.8768 70.474 66.0871C71.3523 65.6115 72.3459 65.4212 73.3419 65.4426C74.8323 65.4735 76.1603 65.2666 77.2975 64.7861C77.2975 64.7861 73.7351 68.5821 78.8916 70.775Z" fill="#262F6A"/>
<path d="M68.9676 75.2261L67.5808 74.9544C67.5945 74.8812 67.9368 73.1535 69.4955 72.1374C70.5405 71.4562 71.8501 71.2622 73.3956 71.5585C74.2141 70.7232 76.6365 69.0083 81.7336 70.7161L81.2891 72.0703C75.9207 70.2722 74.2635 72.7106 74.2475 72.7363C74.1678 72.8595 74.0524 72.9548 73.917 73.0091C73.7816 73.0634 73.6329 73.0742 73.4912 73.0398C72.1576 72.7159 71.0764 72.8129 70.2754 73.3281C69.2248 74.0031 68.9705 75.2137 68.9676 75.2261Z" fill="#262F6A"/>
<path d="M73.9753 71.7084L76.2168 73.653L73.3376 72.9818L73.9753 71.7084Z" fill="#262F6A"/>
<path d="M78.8908 71.4895C78.7966 71.4894 78.7034 71.4704 78.6167 71.4334C76.8008 70.6609 75.7399 69.5915 75.4616 68.2553C75.0326 66.1904 76.7104 64.3713 76.7801 64.2948C76.8438 64.2266 76.9202 64.1719 77.0048 64.1335C77.0895 64.0952 77.1808 64.0741 77.2735 64.0715C77.3662 64.0688 77.4586 64.0846 77.5452 64.118C77.6319 64.1513 77.7112 64.2016 77.7787 64.266C77.8461 64.3303 77.9004 64.4074 77.9383 64.493C77.9762 64.5785 77.9971 64.6707 77.9997 64.7644C78.0024 64.858 77.9867 64.9513 77.9537 65.0389C77.9207 65.1264 77.8709 65.2065 77.8072 65.2747C77.7865 65.2975 76.5635 66.6423 76.8432 67.9675C77.0226 68.8157 77.8029 69.5373 79.1629 70.1181C79.3134 70.1819 79.4374 70.2965 79.5137 70.4422C79.5901 70.5879 79.6141 70.7558 79.5818 70.9174C79.5494 71.079 79.4627 71.2243 79.3363 71.3286C79.2099 71.4329 79.0516 71.4898 78.8884 71.4895H78.8908Z" fill="#262F6A"/>
<path d="M67.8567 32.2088C67.8567 32.2088 72.3892 32.625 76.2154 34.5277C76.3567 31.4462 76.0788 28.4366 74.8497 25.592C74.7907 25.456 74.703 25.3346 74.5929 25.2362C74.4828 25.1378 74.3528 25.0648 74.212 25.0222C74.0712 24.9796 73.9229 24.9684 73.7774 24.9894C73.6318 25.0104 73.4926 25.0631 73.3692 25.1439C71.8835 26.1152 69.1164 28.3538 67.8567 32.2088Z" fill="#F78DE8"/>
<g opacity="0.3">
<path d="M76.2168 34.5277L76.0426 34.4421C75.906 32.4608 75.5081 30.52 74.7028 28.653C74.6435 28.5175 74.5559 28.3967 74.4459 28.2988C74.3358 28.2009 74.2061 28.1283 74.0656 28.086C73.9251 28.0437 73.7772 28.0328 73.6321 28.0539C73.4869 28.0749 73.3481 28.1276 73.2251 28.2082C72.1585 28.9027 70.4373 30.2489 69.0811 32.3752C68.3229 32.2539 67.8567 32.2111 67.8567 32.2111C69.114 28.3557 71.883 26.1152 73.3664 25.1472C73.4897 25.0664 73.629 25.0137 73.7745 24.9927C73.92 24.9717 74.0683 24.9828 74.2091 25.0253C74.3499 25.0678 74.4799 25.1407 74.5901 25.239C74.7003 25.3372 74.7881 25.4584 74.8474 25.5943C76.0802 28.4365 76.3557 31.4453 76.2168 34.5277Z" fill="#262F6A"/>
</g>
<path d="M32.8341 60.1554C32.8341 60.1554 31.8141 64.6549 32.4809 69.2928C27.9045 68.1036 24.0487 66.2746 21.85 62.9786C21.7842 62.8813 21.74 62.7708 21.7204 62.6546C21.7009 62.5385 21.7064 62.4194 21.7367 62.3056C21.767 62.1918 21.8213 62.086 21.8959 61.9954C21.9705 61.9048 22.0636 61.8316 22.1688 61.7808C23.769 61.0211 27.6743 59.5413 32.8341 60.1554Z" fill="#F78DE8"/>
<g opacity="0.3">
<path d="M26.0397 64.829C27.0827 66.394 28.5002 67.626 30.1884 68.6178C26.6283 67.4286 23.671 65.709 21.8509 62.9785C21.7851 62.8812 21.7409 62.7707 21.7213 62.6545C21.7018 62.5384 21.7072 62.4193 21.7374 62.3055C21.7676 62.1916 21.8218 62.0857 21.8962 61.995C21.9707 61.9043 22.0636 61.8309 22.1688 61.7798C23.7699 61.0187 27.6784 59.5441 32.8349 60.1553C32.8349 60.1553 32.6772 60.8475 32.5265 61.9677C29.6186 62.2603 27.4524 63.1141 26.3575 63.6326C26.2526 63.6835 26.1598 63.7568 26.0854 63.8473C26.0111 63.9378 25.957 64.0435 25.9268 64.1571C25.8966 64.2707 25.8911 64.3895 25.9105 64.5055C25.93 64.6214 25.9741 64.7318 26.0397 64.829Z" fill="#262F6A"/>
</g>
<path d="M58.0453 94.519C53.2364 94.519 48.7368 93.6223 44.8739 91.878C38.2001 88.8645 33.7853 83.4735 32.0848 76.2712C20.0973 70.934 14.1045 65.5206 14.7482 60.6063C15.3788 55.7976 22.1213 52.2675 34.2543 50.3867C34.8821 49.2755 36.8778 45.9071 39.2747 43.5368C37.943 37.8347 39.9401 31.773 41.9293 30.17C42.5885 29.641 43.318 29.5292 43.9377 29.8627C44.3173 30.0667 45.2501 30.5695 45.5143 33.819C46.5569 31.4776 47.7224 30.1 48.928 29.8337C49.6245 29.68 50.2866 29.9193 50.7457 30.4915C51.5232 31.4596 51.6348 33.2667 51.1172 35.3321C52.5272 34.5149 54.5775 33.4769 57.0037 32.6997C60.884 25.8755 65.9557 18.8691 74.0884 17.9686C74.6094 17.9108 75.1363 17.9943 75.6148 18.2105C76.0932 18.4268 76.5061 18.7678 76.8107 19.1987C78.3901 21.4345 81.9837 27.5232 81.768 36.4024C90.4512 40.9519 95.8568 50.2554 95.9128 60.8185C95.9773 72.889 89.1448 83.6062 77.6362 89.4905C72.9657 92.1372 67.2418 93.8668 61.5159 94.3644C60.3434 94.4674 59.1865 94.519 58.0453 94.519ZM43.1739 31.3411C43.0825 31.3654 42.8066 31.5314 42.4317 32.0694C41.1132 33.9693 39.7419 38.9435 40.9874 43.5858C41.0272 43.7327 41.0263 43.8879 40.9848 44.0343C40.9433 44.1808 40.8628 44.3129 40.752 44.4163C37.9472 47.0231 35.5249 51.4988 35.5032 51.544C35.4424 51.6577 35.3562 51.7556 35.2516 51.8299C35.1469 51.9042 35.0265 51.9529 34.9 51.9721C23.6484 53.6656 16.8998 56.8922 16.3841 60.8242C15.8478 64.9179 21.7935 69.9217 33.126 74.9131C33.2452 74.9654 33.3504 75.0455 33.4331 75.1468C33.5157 75.248 33.5735 75.3676 33.6017 75.4958C35.1109 82.3709 39.2422 87.5102 45.5482 90.3577C54.4664 94.3848 67.3364 93.4282 76.8455 88.0316L76.8776 88.0144C87.8263 82.4237 94.3263 72.2611 94.2655 60.8294C94.2119 50.7092 88.9617 41.8291 80.562 37.6544C80.4187 37.5831 80.299 37.4713 80.2175 37.3325C80.136 37.1938 80.0962 37.0341 80.1029 36.8729C80.4598 28.2192 76.9807 22.3078 75.4686 20.1682C75.334 19.9783 75.1518 19.8279 74.9407 19.7326C74.7296 19.6372 74.4972 19.6002 74.2673 19.6254C66.7577 20.4545 61.9704 27.2621 58.2732 33.8104C58.1688 33.9953 57.9983 34.1329 57.7967 34.1948C53.348 35.56 50.0737 37.9689 50.0398 37.9931C49.8931 38.1021 49.7147 38.1589 49.5326 38.1546C49.3506 38.1504 49.175 38.0853 49.0334 37.9696C48.8918 37.8539 48.7921 37.6941 48.75 37.5151C48.7078 37.3361 48.7255 37.1481 48.8004 36.9804C50.0403 34.2014 49.9362 32.1284 49.4658 31.5409C49.3824 31.4377 49.3438 31.4458 49.2802 31.4605C48.5941 31.6123 46.9016 33.4584 45.4055 39.3721C45.3546 39.5745 45.2302 39.7501 45.0571 39.8642C44.8839 39.9782 44.6747 40.0224 44.4708 39.9879C44.2669 39.9534 44.0833 39.8428 43.9564 39.678C43.8295 39.5132 43.7685 39.3062 43.7856 39.0981C44.3168 32.5056 43.2963 31.4429 43.1739 31.3411Z" fill="#262F6A"/>
<path d="M76.2169 35.3601C76.0907 35.3601 75.9661 35.3308 75.8529 35.2745C72.2061 33.4612 67.8276 33.0417 67.7838 33.0388C67.6604 33.0272 67.5412 32.9877 67.435 32.9231C67.3288 32.8586 67.2384 32.7706 67.1705 32.6659C67.1026 32.5612 67.059 32.4423 67.0429 32.3182C67.0268 32.1941 67.0386 32.0679 67.0774 31.949C68.4092 27.8695 71.3133 25.4968 72.9257 24.445C73.1493 24.2982 73.402 24.2024 73.666 24.1642C73.93 24.126 74.1991 24.1464 74.4546 24.2239C74.71 24.3014 74.9457 24.4342 75.1452 24.613C75.3447 24.7919 75.5033 25.0124 75.6099 25.2594C76.7551 27.9095 77.211 30.8668 77.0438 34.5667C77.0343 34.7807 76.9435 34.9828 76.7901 35.1308C76.6367 35.2788 76.4327 35.3613 76.2206 35.3611L76.2169 35.3601ZM68.9983 31.5156C70.3889 31.725 72.9337 32.2159 75.4253 33.2543C75.4375 30.3897 75.0081 28.0365 74.0959 25.9249C74.0853 25.8997 74.0693 25.8772 74.049 25.8591C74.0287 25.841 74.0047 25.8277 73.9786 25.8202C73.9518 25.8117 73.9234 25.8093 73.8955 25.8132C73.8677 25.8172 73.841 25.8274 73.8176 25.8431C72.5188 26.6898 70.2777 28.4993 68.9983 31.5156Z" fill="#262F6A"/>
<path d="M32.4808 70.1253C32.4116 70.1253 32.3426 70.1165 32.2755 70.0991C26.771 68.6683 23.2411 66.5534 21.1662 63.4438C21.0339 63.2456 20.9455 63.0209 20.9072 62.785C20.8689 62.5491 20.8816 62.3076 20.9444 62.0771C21.0067 61.8493 21.1171 61.6378 21.2679 61.4572C21.4188 61.2765 21.6066 61.131 21.8184 61.0306C23.3484 60.3043 27.4958 58.685 32.932 59.3315C33.0468 59.3452 33.1575 59.3832 33.2568 59.443C33.3562 59.5028 33.4419 59.5831 33.5086 59.6785C33.5752 59.774 33.6212 59.8826 33.6435 59.9972C33.6659 60.1118 33.6641 60.2299 33.6383 60.3437C33.6285 60.3875 32.6617 64.7557 33.2974 69.1758C33.3142 69.294 33.3057 69.4143 33.2724 69.5289C33.2391 69.6434 33.1819 69.7493 33.1045 69.8395C33.0272 69.9298 32.9316 70.0021 32.8241 70.0518C32.7167 70.1014 32.5999 70.1271 32.4818 70.1272L32.4808 70.1253ZM22.5408 62.5243C24.2361 65.0549 27.1049 66.8621 31.5225 68.1645C31.2574 65.1049 31.6167 62.2969 31.8522 60.897C27.3046 60.5616 23.8735 61.894 22.5408 62.5243Z" fill="#262F6A"/>
<path d="M57.4764 32.5698L61.756 32.9817L57.6379 34.2266C57.4245 34.2911 57.1945 34.2673 56.9985 34.1605C56.8025 34.0536 56.6565 33.8725 56.5927 33.657C56.5289 33.4414 56.5524 33.2091 56.6582 33.0111C56.764 32.8131 56.9432 32.6657 57.1566 32.6012C57.2603 32.5702 57.3688 32.5596 57.4764 32.5698Z" fill="#262F6A"/>
<path d="M35.5733 51.3599L33.8347 54.7444L33.9798 50.9341C33.9884 50.7081 34.0855 50.4947 34.2499 50.341C34.4142 50.1873 34.6323 50.1058 34.8561 50.1145C35.0799 50.1232 35.2912 50.2214 35.4433 50.3874C35.5955 50.5534 35.6761 50.7737 35.6675 50.9998C35.6624 51.1253 35.6303 51.2482 35.5733 51.3599Z" fill="#262F6A"/>
<g opacity="0.3">
<path d="M80.8978 60.9498C80.8978 60.9498 77.4879 69.0797 84.6227 70.2961C84.6227 70.2961 82.2559 71.1233 80.0836 70.7013C77.9113 70.2794 75.9254 69.2952 76.2169 67.6279C76.5084 65.9606 79.1408 63.8224 79.1408 63.8224L79.8863 62.5923" fill="#262F6A"/>
</g>
<g opacity="0.3">
<path d="M81.0079 60.6586C81.0489 60.5744 81.3375 59.1445 81.3375 59.1445C81.3375 59.1445 78.311 63.2992 73.4464 63.5247C72.3162 63.577 71.1931 63.8177 70.1797 64.3333C67.8991 65.4892 65.0298 68.1136 67.3542 73.6568C67.3542 73.6568 66.1699 67.4572 70.8993 65.8893C75.6286 64.3214 78.4993 65.7994 81.0079 60.6586Z" fill="#262F6A"/>
</g>
<g opacity="0.3">
<path d="M101.335 106.166V106.169C98.2932 114.208 92.6446 121.614 86.1672 126.157L82.5953 128.911L81.3003 127.287C81.3003 127.287 77.8485 131.608 74.6699 130.657C72.6991 130.067 71.7549 128.837 71.3217 127.988C72.8757 130.272 76.1203 129.03 78.5549 126.699C80.9895 124.368 80.4385 125.146 83.9704 123.812C87.5022 122.477 89.7862 114.883 89.7862 114.883C83.4241 118.491 68.2772 120.853 68.2772 120.853C90.0193 113.458 105.046 102.439 98.9807 80.0224L102.72 84.7531C102.567 84.8673 102.411 84.9814 102.256 85.0932L102.178 85.1503C104.662 91.6577 103.991 99.1545 101.335 106.166Z" fill="#262F6A"/>
</g>
<g opacity="0.3">
<path d="M62.3838 133.946C62.3838 133.946 63.9143 136.681 60.4413 140.487C56.9683 144.292 48.2564 140.963 45.6075 137.157C45.3903 136.844 45.2019 136.511 45.0448 136.163C54.1028 139.814 58.6636 140.114 56.8906 135.69C59.4006 135.452 56.8906 133.392 56.8906 133.392C59.3229 133.311 63.3256 127.986 63.3256 127.986H65.6802C65.6802 127.986 67.6415 128.635 67.877 128.621C68.0183 128.614 68.9012 128.383 69.5793 128.205L62.591 133.78L62.3838 133.946Z" fill="#262F6A"/>
</g>
<g opacity="0.3">
<path d="M94.5707 118.481C99.1687 113.899 103.476 110.606 105.55 117.221C104.568 114.231 103.502 111.252 100.822 108.483L98.9973 111.351L96.9535 114.253" fill="#262F6A"/>
</g>
</g>
<defs>
<clipPath id="clip0_402_575">
<rect width="123" height="143" fill="white" transform="matrix(-1 0 0 1 123 0)"/>
</clipPath>
</defs>
</svg>
