<svg width="103" height="153" viewBox="0 0 103 153" fill="none" xmlns="http://www.w3.org/2000/svg">
<g opacity="0.15">
<path d="M61.7226 152.169C83.818 152.169 101.73 149.158 101.73 145.443C101.73 141.728 83.818 138.717 61.7226 138.717C39.6271 138.717 21.7152 141.728 21.7152 145.443C21.7152 149.158 39.6271 152.169 61.7226 152.169Z" fill="#000072"/>
</g>
<path d="M40.5457 16.9373C33.9771 22.2458 28.904 28.8066 24.8233 36.2016C24.198 34.0341 23.6999 31.258 23.4189 28.244C22.8672 22.2956 23.1601 15.4276 24.9928 10.5253C25.0909 10.2614 25.2529 10.0259 25.4643 9.83964C25.6757 9.6534 25.9299 9.52227 26.2044 9.45792C26.2136 9.45521 26.223 9.453 26.2324 9.45128C26.3466 9.42745 26.4628 9.41444 26.5795 9.41241C26.6161 9.41241 26.6526 9.41241 26.6915 9.41241C31.6055 9.69348 36.1672 12.7667 40.5457 16.9373Z" fill="#FAA327"/>
<path d="M40.5457 17.0457C33.8812 22.3244 28.7341 28.8482 24.5938 36.2016C23.9594 34.0463 23.4541 31.2858 23.1689 28.2888C24.8641 28.2544 26.5506 27.6662 27.8454 26.5921C28.8141 25.7908 29.5535 24.7601 30.2665 23.7331C31.5507 21.8795 32.8195 19.8872 32.9944 17.6532C33.0704 16.6892 32.9369 15.7203 32.6028 14.8103C32.2686 13.9003 31.7414 13.0698 31.0557 12.3735C30.3701 11.6771 29.5415 11.1306 28.6246 10.77C27.7076 10.4094 26.723 10.2427 25.7355 10.281L25.9961 9.60942L26.0727 9.41241C26.0573 9.47463 26.0395 9.53873 26.0245 9.60094C26.0048 9.682 25.985 9.76354 25.9629 9.84507C26.0987 9.74641 26.2366 9.65215 26.3767 9.56229C26.4137 9.56229 26.4508 9.56229 26.4903 9.56229C31.4751 9.84272 36.1034 12.8987 40.5457 17.0457Z" fill="#EF7F25"/>
<path d="M25.3013 36.9256C25.2788 36.9256 25.2564 36.9242 25.234 36.9214C25.1155 36.9076 25.0036 36.857 24.9125 36.7763C24.8215 36.6955 24.7553 36.5881 24.7224 36.4677C22.8573 29.6618 22.3925 17.957 24.8944 10.9143C25.0607 10.4545 25.3613 10.0618 25.7532 9.7925C26.145 9.5232 26.608 9.39112 27.0758 9.41521C31.2536 9.6646 35.4752 12.0623 40.3606 16.9595C40.4221 17.0216 40.4704 17.0967 40.5022 17.1799C40.5341 17.263 40.5487 17.3524 40.5452 17.4419C40.5417 17.5315 40.5201 17.6193 40.4819 17.6994C40.4436 17.7796 40.3896 17.8503 40.3234 17.9068C34.6249 22.7515 29.8837 28.8668 25.8288 36.5977C25.7769 36.697 25.7006 36.7799 25.6078 36.8375C25.515 36.8952 25.4091 36.9256 25.3013 36.9256ZM26.9528 10.677C26.7509 10.6786 26.5541 10.7443 26.3883 10.8656C26.2226 10.9869 26.0956 11.158 26.0242 11.3564C23.7828 17.6667 24.0176 27.8892 25.5109 34.6156C29.3495 27.6152 33.7874 21.9616 39.034 17.3862C34.5802 13.0385 30.7469 10.9041 27.0064 10.6807L26.9528 10.677Z" fill="#000072"/>
<path d="M34.7534 20.9805L27.3366 28.2372C26.8413 27.347 26.4987 26.233 26.296 25.0326C25.8156 22.1964 26.1038 18.8799 26.983 16.9068C27.0743 16.7031 27.1778 16.5039 27.2929 16.3102C27.345 16.2226 27.4166 16.1456 27.5033 16.084C27.5901 16.0224 27.69 15.9776 27.7969 15.9523C27.9038 15.9271 28.0154 15.922 28.1246 15.9374C28.2338 15.9527 28.3383 15.9882 28.4315 16.0416C30.2182 17.0791 32.4128 18.8894 34.7534 20.9805Z" fill="white"/>
<g opacity="0.15">
<path d="M34.2797 21.2424L27.0808 29.0733C26.6001 28.1126 26.2676 26.9105 26.0708 25.6151C26.5007 25.4138 26.9241 25.1956 27.3392 24.9654C27.7542 24.7351 28.1608 24.489 28.5166 24.1781C29.3144 23.4789 29.8078 22.4614 29.9267 21.4093C30.0456 20.3573 29.7933 19.2759 29.2767 18.3492C29.0076 17.8687 28.65 17.4095 28.1543 17.1681C27.6586 16.9266 27.0002 16.9565 26.6154 17.3522L26.9353 16.9499C26.8803 16.9965 26.8253 17.0408 26.7679 17.0856C26.7499 17.0071 26.7399 16.927 26.7381 16.8465C26.8267 16.6266 26.9271 16.4118 27.0389 16.2027C27.0894 16.1081 27.1589 16.025 27.2431 15.9586C27.3273 15.8921 27.4243 15.8437 27.5281 15.8165C27.6318 15.7893 27.7401 15.7838 27.8461 15.8004C27.9521 15.8169 28.0535 15.8552 28.144 15.9128C29.8777 17.0324 32.0078 18.986 34.2797 21.2424Z" fill="#000072"/>
</g>
<path d="M27.1506 29.6853C27.0359 29.6851 26.9235 29.6523 26.8259 29.5906C26.7284 29.5288 26.6494 29.4406 26.5979 29.3356C24.7874 25.6252 25.0721 18.7564 26.5667 15.9454C26.658 15.7737 26.7828 15.6232 26.9333 15.5031C27.0838 15.3831 27.2569 15.296 27.4416 15.2473C27.623 15.2003 27.812 15.192 27.9967 15.223C28.1814 15.254 28.3579 15.3235 28.5152 15.4273C30.0288 16.43 31.8968 18.0909 34.5714 20.8129C34.6845 20.928 34.7497 21.0834 34.7533 21.2467C34.7569 21.4099 34.6987 21.5683 34.5909 21.6885L27.6046 29.4831C27.5466 29.5471 27.4764 29.5981 27.3982 29.6329C27.3201 29.6677 27.2358 29.6855 27.1506 29.6853ZM27.7802 16.4671C27.7689 16.4672 27.7576 16.4686 27.7467 16.4713C27.7263 16.4767 27.7073 16.4864 27.6909 16.4999C27.6744 16.5133 27.6609 16.5301 27.6512 16.5492C26.4169 18.8751 26.1308 24.4481 27.3434 27.9062L33.2819 21.2841C30.9228 18.9085 29.1879 17.378 27.8472 16.4885C27.8273 16.475 27.804 16.4677 27.7802 16.4676V16.4671Z" fill="#000072"/>
<path d="M34.0257 20.0577C33.9656 19.6562 33.5994 19.3188 33.3488 19.0526C33.0563 18.7422 32.7538 18.4462 32.4396 18.1611C32.1254 17.8759 31.8233 17.5759 31.4894 17.3235C31.1727 17.0842 30.8438 16.8157 30.4695 16.709C30.0952 16.6023 29.7174 16.6333 29.4148 16.9236C29.1477 17.1939 28.986 17.5736 28.9652 17.9792C28.9041 18.9545 29.5461 19.6625 30.0619 20.34L30.371 19.499C29.7856 19.5684 29.2911 19.9654 29.0971 20.6102C28.9132 21.2201 29.1218 22.0502 29.6295 22.3767C30.0558 22.6503 30.416 22.0393 30.1281 21.6429C29.972 21.4283 29.831 21.196 29.9199 20.904C29.9545 20.7941 30.0148 20.6971 30.0943 20.6232C30.1737 20.5493 30.2694 20.5014 30.371 20.4846C30.7524 20.441 30.9338 19.982 30.6777 19.6435C30.3453 19.2029 29.7361 18.6304 29.7987 17.9798C29.8056 17.8801 29.8347 17.784 29.8835 17.7007C29.9322 17.6173 29.9988 17.5495 30.077 17.5036C30.3296 17.3694 30.6377 17.631 30.8423 17.7761C31.3732 18.1536 31.9061 18.5363 32.3981 18.9809C32.6497 19.2069 32.895 19.4416 33.1341 19.6848C33.3397 19.8931 33.5888 20.1799 33.8671 20.2408C33.889 20.2468 33.9119 20.2463 33.9336 20.2394C33.9552 20.2325 33.975 20.2194 33.9909 20.2013C34.0069 20.1832 34.0184 20.1607 34.0245 20.1361C34.0306 20.1115 34.031 20.0855 34.0257 20.0606V20.0577Z" fill="#000072"/>
<path d="M73.3734 69.3154L57.1496 73.1323L41.7695 76.7473C35.8267 74.0293 30.4795 71.0162 27.0494 67.0529C26.0843 65.9358 25.3278 64.6539 24.8161 63.2686C24.4099 62.1725 24.1551 61.026 24.0588 59.8609C23.8253 56.9853 23.8617 53.3395 24.0247 49.3387C24.1457 46.3509 24.3386 43.1657 24.5386 39.9572C24.5719 39.4372 24.4461 38.9194 24.178 38.4728C24.0465 38.2543 23.9769 38.004 23.9766 37.7489C23.9766 37.7194 23.9766 37.6895 23.9766 37.6596C23.9874 37.4964 24.0023 37.3322 24.0173 37.1695C24.1603 35.707 24.4623 34.2645 24.9179 32.8676C28.5493 21.5972 41.6275 12.6716 54.0717 13.4698C57.1548 8.86816 60.2294 4.3137 63.0378 2.018C63.4926 1.63576 63.9849 1.30076 64.5074 1.01816C64.9218 0.800022 65.388 0.699971 65.8553 0.728916C66.3226 0.757861 66.773 0.914691 67.1574 1.18231C72.3537 4.78322 79.0817 18.1403 80.5859 28.3327C80.768 28.6532 80.9484 28.9831 81.1268 29.3223C83.1583 33.2038 84.8405 38.3106 85.6467 43.5791C87.384 54.9501 85.0483 67.0791 73.3734 69.3154Z" fill="#FAA327"/>
<g opacity="0.6">
<path d="M24.4847 39.6863C24.287 42.856 24.0967 46.0037 23.9769 48.9566C23.8141 52.9419 23.7759 56.5758 24.0109 59.4443C24.0931 60.4267 24.2883 61.3965 24.5924 62.3343C24.5215 61.9381 24.4679 61.5377 24.4343 61.1349C24.2012 58.2692 24.2375 54.6353 24.4003 50.65C24.5211 47.6719 24.7136 44.4972 24.9132 41.2991C24.9467 40.7808 24.8211 40.2647 24.5532 39.8197C24.5281 39.7764 24.5052 39.7319 24.4847 39.6863Z" fill="white"/>
</g>
<g opacity="0.6">
<path d="M67.0336 0.954048C66.6501 0.687178 66.2006 0.530665 65.7342 0.501568C65.2678 0.472472 64.8024 0.571909 64.3887 0.789041C63.8672 1.07072 63.3757 1.40462 62.9217 1.78561C60.1182 4.0738 57.0462 8.61336 53.9714 13.2C41.5484 12.4043 28.4932 21.3021 24.8681 32.5357C24.4135 33.9296 24.1125 35.369 23.9705 36.8282C23.9556 36.9909 23.9407 37.1545 23.9299 37.3167C23.9299 37.3465 23.9299 37.3764 23.9299 37.4057C23.9321 37.6647 24.0041 37.9183 24.1384 38.1399C24.2399 38.3127 24.321 38.4969 24.3799 38.6885C24.3846 38.6321 24.3888 38.5752 24.3939 38.5183C24.536 37.0593 24.837 35.6201 25.2916 34.2263C27.2291 28.224 31.8609 22.887 37.6496 19.3444C38.0404 20.3387 40.4363 20.5326 43.0887 19.7677C45.8021 18.985 47.7545 17.4953 47.45 16.4405C47.3433 16.0708 46.9725 15.8042 46.4204 15.6481C48.5958 15.1031 50.8311 14.8342 53.0737 14.8477C53.488 14.8504 53.8966 14.7504 54.2627 14.5567C54.6289 14.3629 54.9414 14.0814 55.1721 13.7374C57.9863 9.55959 60.7767 5.57658 63.3437 3.48276C63.7979 3.10168 64.2895 2.76762 64.8112 2.48572C65.2249 2.26884 65.6902 2.16954 66.1564 2.19863C66.6227 2.22772 67.0721 2.3841 67.4556 2.65073C71.8659 5.70103 77.381 15.7833 79.8594 24.978C77.6449 15.3595 71.7162 4.19266 67.0336 0.954048Z" fill="white"/>
</g>
<path d="M81.0915 28.2372L81.0583 28.2138C78.8726 26.6536 77.2515 24.4744 76.4708 21.9649C75.7416 19.6207 74.9668 17.2895 74.1462 14.9714C72.7327 10.9755 71.1495 6.95939 68.4855 3.60324C68.0251 3.02289 67.5095 2.44478 66.8238 2.12806C65.6692 1.5909 64.2996 1.89322 63.0585 2.20589L62.9907 1.9688C63.4458 1.60109 63.9385 1.27881 64.4613 1.00695C64.8763 0.796935 65.3433 0.700718 65.8113 0.728804C66.2793 0.75689 66.7303 0.908199 67.115 1.16621C72.3148 4.63033 79.0474 17.48 80.5525 27.2853C80.7345 27.5936 80.9142 27.9109 81.0915 28.2372Z" fill="#EF7F25"/>
<path d="M73.3321 69.2852L57.0557 73.1177L41.6256 76.7473C35.6635 74.0183 30.2989 70.9929 26.8577 67.0135C25.8894 65.8918 25.1305 64.6048 24.6171 63.2138C26.6154 65.687 29.4966 67.5103 32.5461 68.5142C37.0657 70.0003 41.941 69.9299 46.6818 69.5472C54.555 68.9114 62.4924 67.4126 69.4958 63.752C76.4992 60.0913 82.5208 54.0576 84.8851 46.5076C85.1972 45.5012 85.4508 44.4776 85.6448 43.4419C87.3882 54.8614 85.0449 67.0398 73.3321 69.2852Z" fill="#EF7F25"/>
<path d="M66.2191 64.8167C66.1766 64.9085 66.1346 64.9998 66.0898 65.0896C65.5334 66.2177 64.8262 67.2601 63.989 68.1862C63.2172 69.0296 62.3699 69.796 61.4582 70.4754C60.1099 71.4813 58.6347 72.2868 57.1296 73.0308L41.7587 76.7473C35.8195 73.954 30.4755 70.8574 27.0475 66.7843C26.3237 65.9242 25.7169 64.9669 25.2436 63.9386C25.1652 63.7684 25.0891 63.5959 25.019 63.4214C24.9831 63.3364 24.949 63.2489 24.9149 63.1595C24.8809 63.0701 24.8472 62.9846 24.8155 62.8952C24.4096 61.7687 24.155 60.5904 24.0587 59.393C23.8253 56.4377 23.8617 52.6909 24.0247 48.5792C24.8346 47.32 25.7399 46.1281 26.9373 45.2731C28.9914 43.8001 31.6198 43.5122 34.1211 43.4511C36.5571 43.3939 39.1631 43.5646 41.121 45.0525C42.1173 45.81 42.8759 46.8596 43.8754 47.6127C43.9152 47.6413 43.9623 47.6571 44.0108 47.6584L43.6952 47.916C46.9848 49.3678 50.6519 49.6436 54.1114 48.6994C57.6007 47.7348 57.7809 47.4017 59.3667 47.5406C62.4106 47.8045 64.4553 50.2801 64.8634 50.7747C66.6967 52.9941 66.9744 55.4121 67.1948 57.3215C67.3512 58.6735 67.6607 61.672 66.2191 64.8167Z" fill="white"/>
<g opacity="0.15">
<path d="M65.9936 64.966C65.4378 66.0601 64.7315 67.0709 63.8952 67.9692C63.1244 68.7871 62.278 69.5305 61.3674 70.1893C60.0207 71.1649 58.5471 71.9461 57.0438 72.6677L41.6906 76.2722C35.7582 73.5631 30.4204 70.5599 26.9963 66.6095C26.2733 65.7754 25.6672 64.8469 25.1944 63.8496C25.1161 63.6846 25.0401 63.5173 24.9702 63.3481C24.9342 63.2655 24.9002 63.1807 24.8662 63.094C24.8321 63.0073 24.7986 62.9243 24.7668 62.8376C26.7552 65.2927 29.622 67.1027 32.6563 68.0992C37.1534 69.5745 42.0044 69.5046 46.7216 69.1247C53.296 68.5975 59.9171 67.4653 65.9936 64.966Z" fill="#000072"/>
</g>
<path d="M26 36.4732C25.2668 36.7396 24.5443 36.8919 23.8931 36.9256C24.0096 35.5814 24.2862 34.2528 24.718 32.9635C26.6463 32.3153 28.482 32.5076 28.8828 33.4204C29.3006 34.3696 28.0093 35.7357 26 36.4732Z" fill="#FFF3E9"/>
<path d="M41.7332 76.7473C41.6417 76.7474 41.5512 76.7279 41.4681 76.6902C36.5182 74.4485 30.3425 71.3106 26.491 66.9048C24.6891 64.8441 23.5697 62.1799 23.3383 59.4019C23.1247 56.8166 23.1135 53.4731 23.3027 48.8791C23.4236 45.9298 23.6151 42.7836 23.8179 39.5515C23.8438 39.1629 23.7488 38.7757 23.5458 38.4423C23.3548 38.1269 23.2541 37.7659 23.2545 37.398C23.2545 37.3516 23.2545 37.3084 23.2582 37.2634C23.269 37.1009 23.284 36.9333 23.2994 36.7652C23.4475 35.2658 23.7594 33.7868 24.2296 32.3542C26.0437 26.775 30.1472 21.6415 35.7833 17.8987C41.3477 14.2032 47.7102 12.3395 53.7411 12.6357C57.2699 7.41914 60.9074 2.09949 64.2329 0.364808C64.7513 0.0942255 65.3348 -0.0298734 65.9196 0.00607523C66.5044 0.0420239 67.0679 0.236637 67.5486 0.568642C72.9542 4.27573 79.7266 17.7483 81.2643 27.8355C86.3552 36.7438 89.0395 51.4296 84.7378 60.6992C82.5327 65.4496 78.7697 68.3604 73.5533 69.3545L41.8788 76.7306C41.8311 76.7417 41.7822 76.7473 41.7332 76.7473ZM52.4788 13.8699C40.8212 13.8699 28.9191 22.0645 25.4428 32.741C25.0011 34.0861 24.7082 35.4748 24.5692 36.8827C24.5552 37.0368 24.5406 37.1937 24.5303 37.3507C24.5303 37.3697 24.5303 37.3841 24.5303 37.3971C24.5306 37.5356 24.5688 37.6713 24.6409 37.7899C24.9777 38.3434 25.1354 38.9859 25.0929 39.6309C24.8905 42.8542 24.699 45.992 24.5777 48.9298C24.3903 53.4708 24.4006 56.7651 24.6104 59.297C24.8193 61.8089 25.8282 64.2187 27.4554 66.076C31.0952 70.2404 37.002 73.2686 41.7997 75.4509L73.2751 68.1213L73.3013 68.1162C78.0962 67.2066 81.5547 64.5335 83.5795 60.1717C87.6727 51.3544 84.9594 36.7944 80.098 28.3606C80.059 28.2915 80.0334 28.2158 80.0226 28.1373C78.5589 18.3124 72.0222 5.17185 66.8264 1.60824C66.5373 1.40799 66.1982 1.29037 65.8462 1.26826C65.4942 1.24615 65.1429 1.3204 64.8306 1.48288C61.7257 3.10194 57.9392 8.70018 54.5992 13.6391C54.5369 13.731 54.4514 13.805 54.3512 13.8539C54.251 13.9028 54.1397 13.9248 54.0282 13.9177C53.5121 13.8861 52.9969 13.8699 52.4788 13.8699Z" fill="#000072"/>
<path d="M66.3551 32.1649C62.8659 33.2636 59.6891 34.0411 58.5986 36.9911C58.4018 37.5306 58.2949 38.0962 58.2818 38.6674C58.0751 46.3122 52.4281 52.4078 43.1093 51.2104C42.6508 51.1528 42.1856 51.0744 41.7101 50.9838C40.5193 50.6404 39.376 50.279 38.2801 49.8996C37.9141 49.7741 37.5528 49.6468 37.1953 49.5149C36.3083 49.1942 35.4493 48.8619 34.6183 48.5182C33.9701 48.2531 33.3381 47.9795 32.717 47.7026C32.2094 47.4658 31.6578 47.3272 31.094 47.2949C27.1325 47.1182 25.7803 52.4486 23.998 54.6845C23.9761 54.7113 23.9567 54.7362 23.9354 54.7606C23.8497 54.8659 23.7339 54.9452 23.602 54.9887C23.4701 55.0322 23.3278 55.0381 23.1924 55.0058C22.0601 54.7258 21.2484 54.1599 20.8264 53.2447C20.5576 52.2964 20.3143 51.2901 20.0901 50.239C19.5766 47.8064 19.1783 45.1256 18.8402 42.3052C18.7882 41.8723 18.8685 41.4342 19.0714 41.044C19.2742 40.6537 19.591 40.3279 19.9834 40.1059C20.6266 39.7417 21.3198 39.3803 22.063 39.0217C23.6277 38.2646 25.4043 37.5266 27.3397 36.808C30.104 35.7836 33.1978 34.8063 36.4746 33.897C37.5253 33.6037 38.5938 33.3178 39.6803 33.0393C40.1926 32.9073 40.7095 32.7778 41.2307 32.6506C42.6384 32.3026 44.0661 31.971 45.5042 31.6507C52.2536 30.1496 59.2202 28.9657 65.367 28.2467C65.6504 28.214 65.9375 28.2661 66.1885 28.396C66.4396 28.5258 66.6423 28.727 66.7685 28.9716C67.0616 29.5284 67.2503 30.13 67.3261 30.749C67.4015 31.377 66.9838 31.9655 66.3551 32.1649Z" fill="#000072"/>
<g opacity="0.4">
<path d="M28.0842 36.8233C26.3439 41.1265 25.3549 47.5586 24.8005 55.2137C24.779 55.2412 24.7599 55.2668 24.7389 55.292C24.6547 55.4003 24.5408 55.4818 24.411 55.5266C24.2813 55.5714 24.1413 55.5775 24.0082 55.5442C22.8947 55.2561 22.0963 54.6739 21.6813 53.7323C21.4169 52.7567 21.1777 51.7215 20.9572 50.6401C21.3255 46.5233 21.9313 42.6396 22.8947 39.1008C24.4339 38.32 26.1807 37.5602 28.0842 36.8233Z" fill="white"/>
</g>
<g opacity="0.4">
<path d="M40.2211 32.9443C39.0553 37.6237 38.3134 43.4675 37.78 49.8911C36.9077 49.5611 36.0629 49.2193 35.2456 48.8657C35.5459 43.2848 36.0882 38.1477 37.0684 33.8258C38.1017 33.5247 39.1526 33.2308 40.2211 32.9443Z" fill="white"/>
</g>
<g opacity="0.4">
<path d="M45.9506 31.5159C44.3731 38.0663 43.627 44.7798 43.5981 51.6374C43.1472 51.5782 42.6897 51.4976 42.222 51.4044C41.051 51.051 39.9265 50.6792 38.8488 50.2889C39.4302 43.6858 40.3461 37.6789 41.7478 32.5446C43.1323 32.1866 44.5363 31.844 45.9506 31.5159Z" fill="white"/>
</g>
<path d="M23.8735 55.7504C23.7695 55.7504 23.6659 55.7376 23.5652 55.7122C22.2428 55.3783 21.3328 54.6774 20.8602 53.6293C20.8494 53.6054 20.8404 53.5808 20.8334 53.5557C20.5735 52.6175 20.3315 51.6089 20.0948 50.4743C19.624 48.2092 19.2163 45.5606 18.8435 42.3771C18.7803 41.8372 18.8784 41.291 19.1259 40.8044C19.3734 40.3177 19.7597 39.9115 20.2383 39.6346C20.8932 39.2561 21.5983 38.8799 22.3355 38.517C23.8471 37.7692 25.6261 37.0062 27.6217 36.2492C30.2984 35.2374 33.3649 34.2362 36.736 33.2795C37.7594 32.9866 38.8341 32.6927 39.9296 32.4057C40.4399 32.2717 40.9547 32.1397 41.4741 32.0097C42.8445 31.6639 44.2766 31.3199 45.7288 30.9919C52.2968 29.4977 59.3205 28.267 65.5058 27.5265C65.8972 27.4805 66.2936 27.5543 66.6402 27.7378C66.9869 27.9212 67.2667 28.2053 67.4411 28.5507C67.7587 29.1707 67.9637 29.8398 68.0469 30.5284C68.1491 31.399 67.5912 32.2365 66.7203 32.5193C66.4642 32.6021 66.2091 32.683 65.9568 32.7631C62.9063 33.7289 60.2714 34.5664 59.3577 37.0964C59.1817 37.5919 59.0864 38.1113 59.0753 38.6357C58.9613 42.9423 57.2793 46.6616 54.3394 49.1093C51.4885 51.4819 47.7084 52.4367 43.4066 51.8724C42.9448 51.8131 42.4651 51.7344 41.9793 51.6342C41.9637 51.6314 41.9487 51.6273 41.9322 51.6231C40.7581 51.2764 39.6034 50.9034 38.4999 50.5138C38.1341 50.3855 37.7707 50.2544 37.4125 50.1192C36.5585 49.8037 35.69 49.4606 34.8346 49.101C34.2499 48.8563 33.6276 48.5836 32.9332 48.2681C32.4921 48.0552 32.012 47.9302 31.5209 47.9002C29.0076 47.7824 27.6174 50.4127 26.3925 52.7292C25.9015 53.6592 25.4374 54.5371 24.9252 55.1944L24.9101 55.2137C24.8894 55.2399 24.8692 55.2656 24.8475 55.2909C24.7312 55.4344 24.5831 55.5502 24.4144 55.6298C24.2458 55.7094 24.0608 55.7506 23.8735 55.7504ZM21.854 53.243C22.1971 53.9742 22.8426 54.4516 23.8311 54.7009C23.865 54.7085 23.9004 54.7063 23.9331 54.6946C23.9657 54.6828 23.9941 54.662 24.0147 54.6346C24.0369 54.6094 24.0472 54.5956 24.0585 54.5813L24.0736 54.562C24.5274 53.9802 24.968 53.1413 25.4388 52.2528C26.7428 49.7844 28.3721 46.7154 31.5661 46.858C32.1965 46.8932 32.8134 47.0506 33.3809 47.3211C34.063 47.6311 34.6755 47.8992 35.2507 48.1402C36.0925 48.4939 36.9455 48.8301 37.7881 49.1428C38.1421 49.2757 38.4971 49.4041 38.8567 49.5301C39.9362 49.9114 41.0646 50.2761 42.2132 50.6155C42.6642 50.7075 43.1105 50.781 43.5403 50.8362C47.5342 51.3605 51.0253 50.4881 53.639 48.3132C56.3453 46.0596 57.8937 42.6139 57.9996 38.609C58.014 37.9752 58.1302 37.3476 58.3442 36.7491C59.434 33.7326 62.4397 32.7792 65.6211 31.7697C65.8722 31.6899 66.125 31.6095 66.3795 31.5282C66.7731 31.4003 67.0258 31.0297 66.9807 30.6465C66.9131 30.0777 66.7432 29.525 66.4788 29.0139C66.4025 28.8625 66.2801 28.7379 66.1283 28.6573C65.9766 28.5767 65.803 28.544 65.6315 28.5636C59.4829 29.2995 52.4974 30.5238 45.9666 32.0102C44.5223 32.3376 43.0992 32.678 41.7359 33.022C41.2199 33.1511 40.7087 33.2822 40.2022 33.4152C39.1147 33.6999 38.048 33.9919 37.0311 34.2831C33.6888 35.2314 30.6515 36.2207 28.0044 37.2238C26.0451 37.967 24.2972 38.7148 22.8176 39.4506C22.1011 39.8039 21.4171 40.1681 20.7835 40.5347C20.4832 40.7086 20.2407 40.9636 20.0852 41.269C19.9297 41.5744 19.8678 41.9172 19.9069 42.2561C20.2769 45.4106 20.6813 48.0303 21.1441 50.2655C21.3729 51.3624 21.6059 52.3378 21.8559 53.243H21.854Z" fill="#000072"/>
<g opacity="0.65">
<path d="M56.6942 44.2812C60.244 40.7328 60.244 34.9798 56.6942 31.4315C53.1445 27.8831 47.3892 27.8831 43.8394 31.4315C40.2896 34.9798 40.2896 40.7328 43.8394 44.2812C47.3892 47.8295 53.1445 47.8295 56.6942 44.2812Z" fill="white"/>
</g>
<path d="M26.9031 53.0055C27.9918 51.4941 30.0821 50.6393 32.0656 50.6838C32.182 50.6897 32.2921 50.7296 32.3766 50.7964C32.4611 50.8632 32.5145 50.9526 32.5274 51.049C32.7451 52.3174 32.3077 53.7815 31.1674 54.7902C31.0777 54.8712 30.9671 54.9344 30.8438 54.975C30.7206 55.0156 30.588 55.0325 30.4558 55.0244C29.0053 54.9262 27.3424 54.3224 26.8773 53.6359C26.8153 53.538 26.7851 53.4284 26.7896 53.3178C26.7942 53.2073 26.8333 53.0996 26.9031 53.0055Z" fill="#000072"/>
<path d="M30.1505 55.7504C30.1166 55.7504 30.0828 55.749 30.0489 55.7463C28.6051 55.6319 26.773 54.9278 26.2053 53.9479C26.1083 53.7744 26.0601 53.5792 26.0655 53.3819C26.0708 53.1845 26.1296 52.9921 26.2359 52.8238C27.3426 51.0264 29.484 49.9001 31.6762 49.9604C31.8871 49.9697 32.0878 50.0511 32.2429 50.1903C32.398 50.3296 32.4974 50.5176 32.5235 50.7212C32.7702 52.4011 32.2166 54.1762 31.0788 55.3528C30.9605 55.4775 30.817 55.5771 30.6573 55.6455C30.4976 55.7139 30.3251 55.7496 30.1505 55.7504ZM31.5157 50.7533C29.6582 50.7533 27.8741 51.714 26.9406 53.2319C26.909 53.2802 26.8906 53.3354 26.8872 53.3925C26.8837 53.4496 26.8953 53.5066 26.9208 53.5581C27.2899 54.1958 28.784 54.8482 30.1176 54.9539C30.1863 54.9581 30.2551 54.9472 30.3188 54.9221C30.3826 54.897 30.4398 54.8583 30.4862 54.8089C31.4578 53.8024 31.9294 52.2804 31.7171 50.8333C31.7096 50.7839 31.6767 50.7556 31.6564 50.7551C31.6075 50.7537 31.5599 50.7533 31.5133 50.7533H31.5157Z" fill="#000072"/>
<g opacity="0.6">
<path d="M28.7563 52.9848C29.3991 52.5339 29.7871 51.9789 29.6231 51.7452C29.459 51.5116 28.805 51.6876 28.1622 52.1385C27.5195 52.5894 27.1314 53.1443 27.2955 53.378C27.4595 53.6117 28.1136 53.4356 28.7563 52.9848Z" fill="white"/>
</g>
<path d="M31.0536 55.5184C31.2135 56.4628 31.5525 57.3695 32.1129 58.174L31.6816 57.9047C32.988 58.2512 34.3237 58.5156 35.6775 58.6958C36.2253 58.7408 37.3618 58.5017 38.0291 58.1177C38.2606 57.9951 38.5063 58.2778 38.2904 58.4219C37.5373 58.9357 36.5986 59.3197 35.6029 59.3706C34.1779 59.341 32.7575 59.2226 31.3537 59.0164C31.2681 59.0038 31.1868 58.9756 31.1157 58.934C31.0446 58.8923 30.9853 58.8381 30.9421 58.7752C30.2702 57.8207 29.8713 56.7473 29.6922 55.6801C29.6794 55.6057 29.6844 55.5298 29.7069 55.4569C29.7293 55.3841 29.7688 55.3156 29.823 55.2554C29.8772 55.1952 29.9451 55.1445 30.0228 55.1062C30.1006 55.0679 30.1866 55.0427 30.276 55.0321C30.3655 55.0215 30.4565 55.0256 30.544 55.0443C30.6315 55.063 30.7137 55.0959 30.786 55.141C30.8582 55.1862 30.9191 55.2428 30.9651 55.3075C31.0111 55.3723 31.0413 55.4439 31.0541 55.5184H31.0536Z" fill="#000072"/>
<path d="M31.0814 58.1115C30.6145 59.4235 29.9664 60.5972 29.1866 61.4976C29.1603 61.5286 29.1267 61.5446 29.0924 61.5424C29.0581 61.5402 29.0257 61.52 29.0014 61.4858C28.9772 61.4515 28.9629 61.4057 28.9613 61.3573C28.9598 61.3089 28.9711 61.2615 28.9931 61.2243C29.5885 60.1749 30.021 58.9606 30.2625 57.66C30.4588 56.7853 31.3555 57.2773 31.0818 58.1099L31.0814 58.1115Z" fill="#000072"/>
<path d="M42.6142 31.3267C44.8886 30.7586 46.4948 29.3477 46.2017 28.1753C45.9086 27.003 43.8273 26.5132 41.5529 27.0813C39.2785 27.6494 37.6723 29.0603 37.9653 30.2326C38.2584 31.405 40.3397 31.8948 42.6142 31.3267Z" fill="#FFF3E9"/>
<path d="M71.6791 18.1008C67.8182 15.7899 63.9567 14.0795 60.0946 12.9694C60.7904 11.02 62.3313 8.28392 64.0987 5.91975C64.4173 5.49121 64.8829 5.19977 65.4033 5.10317C65.9236 5.00656 66.4608 5.11184 66.9083 5.39814C67.0943 5.51917 67.271 5.65418 67.4371 5.80205C69.3514 7.50575 70.545 11.2723 71.2663 15.3586C71.4263 16.2643 71.5631 17.1837 71.6791 18.1008Z" fill="white"/>
<g opacity="0.15">
<path d="M70.9086 18.4915C67.0274 16.2035 63.1455 14.5099 59.2631 13.4108C59.9625 11.4806 61.5116 8.7715 63.2882 6.43064C63.6086 6.00633 64.0766 5.71776 64.5997 5.62211C65.1228 5.52646 65.6628 5.6307 66.1127 5.91417C66.2996 6.03401 66.4773 6.16769 66.6443 6.31411L66.6634 6.50708C66.2292 6.3183 65.7084 6.43064 65.3185 6.69959C64.9287 6.96854 64.654 7.37034 64.4358 7.78938C63.43 9.71773 63.61 12.3485 65.2383 13.7874C65.5499 14.0537 65.8875 14.288 66.246 14.4866C67.5354 15.2324 69.0196 15.7452 70.4936 15.7759C70.6545 16.6732 70.7921 17.5835 70.9086 18.4915Z" fill="#000072"/>
</g>
<path d="M71.0381 18.823C70.9236 18.823 70.8112 18.7934 70.7125 18.7375C66.8613 16.5544 62.9589 14.9165 59.1129 13.8691C59.0282 13.846 58.9494 13.8065 58.8813 13.7529C58.8132 13.6992 58.7573 13.6327 58.7171 13.5574C58.677 13.4821 58.6533 13.3996 58.6478 13.3152C58.6422 13.2307 58.6548 13.146 58.6847 13.0664C59.4267 11.0933 61.0185 8.43468 62.838 6.12853C63.7094 5.02455 65.3373 4.73905 66.5438 5.47881C69.0257 6.9995 70.7497 11.2562 71.6738 18.1298C71.6854 18.2167 71.6777 18.3049 71.6511 18.3887C71.6244 18.4725 71.5795 18.5498 71.5194 18.6155C71.4592 18.6813 71.3852 18.734 71.3022 18.7701C71.2192 18.8062 71.1292 18.8248 71.0381 18.8248V18.823ZM60.14 12.8732C63.4901 13.8428 66.8726 15.2423 70.2218 17.0448C69.3382 11.4286 67.801 7.71166 65.8563 6.51855C65.208 6.12084 64.3314 6.27739 63.8609 6.87372C62.3223 8.82153 60.9159 11.1005 60.14 12.8732Z" fill="#000072"/>
<path d="M6.26238 85.0409L3.9928 86.5442C3.21217 87.0613 2.99869 88.113 3.51597 88.8934L6.1353 92.8446C6.65258 93.6249 7.70475 93.8383 8.48538 93.3212L10.755 91.8179C11.5356 91.3008 11.7491 90.2491 11.2318 89.4687L8.61246 85.5175C8.09517 84.7372 7.04301 84.5238 6.26238 85.0409Z" fill="#FFBB94"/>
<g opacity="0.25">
<path d="M11.3474 89.8945L10.5547 88.6919C10.4126 88.8782 10.2336 89.0331 10.0287 89.1469L7.63749 90.4748C7.44204 90.5835 7.22709 90.6526 7.00491 90.6781C6.78274 90.7037 6.55771 90.6853 6.34266 90.6239C6.12762 90.5625 5.92678 90.4594 5.75161 90.3204C5.57645 90.1814 5.4304 90.0093 5.32181 89.8139L3.83615 87.1416C3.55104 87.4174 3.37127 87.7841 3.32794 88.1784C3.2846 88.5726 3.3804 88.9696 3.5988 89.3007L6.22178 93.2744C6.34495 93.461 6.50368 93.6215 6.68892 93.7468C6.87416 93.8721 7.08227 93.9597 7.30138 94.0046C7.52049 94.0495 7.74629 94.0508 7.9659 94.0084C8.18551 93.9661 8.39463 93.8809 8.5813 93.7577L10.8639 92.2526C11.2407 92.0039 11.5033 91.6158 11.594 91.1736C11.6847 90.7314 11.596 90.2714 11.3474 89.8945Z" fill="#390075"/>
</g>
<path d="M7.77429 94.124C7.61783 94.1244 7.46172 94.1099 7.30834 94.0808C7.01255 94.0245 6.73154 93.9134 6.48161 93.7539C6.23167 93.5944 6.01777 93.3897 5.85231 93.1517L3.2747 89.4673C2.93998 88.9874 2.82068 88.402 2.94299 87.8393C3.06529 87.2766 3.41921 86.7826 3.92712 86.4657L6.16981 85.0699C6.42163 84.9131 6.70372 84.8047 6.99996 84.7508C7.29621 84.6969 7.60081 84.6986 7.89637 84.7557C8.19193 84.8129 8.47266 84.9244 8.72253 85.0839C8.9724 85.2434 9.18651 85.4477 9.35265 85.6852L11.9298 89.3696C12.2646 89.8494 12.384 90.4348 12.2617 90.9975C12.1393 91.5602 11.7854 92.0541 11.2774 92.3708L9.03514 93.7649C8.66141 93.9989 8.22286 94.1238 7.77429 94.124ZM7.43158 85.887C7.22686 85.887 7.02667 85.944 6.85614 86.0508L4.61345 87.4466C4.38155 87.5914 4.22001 87.817 4.16427 88.074C4.10853 88.331 4.16313 88.5983 4.3161 88.8174L6.89371 92.5018C7.04704 92.7205 7.28614 92.873 7.55852 92.9256C7.8309 92.9783 8.11431 92.9269 8.34653 92.7827L10.5915 91.3869C10.8235 91.2421 10.9851 91.0166 11.041 90.7596C11.0969 90.5027 11.0425 90.2353 10.8898 90.0161L8.31263 86.3317C8.23692 86.2231 8.13917 86.1296 8.02499 86.0568C7.91081 85.984 7.78247 85.9332 7.64738 85.9074C7.57635 85.8938 7.50406 85.887 7.43158 85.887Z" fill="#390075"/>
<path d="M10.3686 90.5039L98.086 37.2094C100.531 35.7242 102.096 33.1067 102.088 30.2668C102.079 26.6992 99.7155 23.9234 95.0716 23.8932C93.2864 23.8811 91.5505 24.4794 90.1178 25.5338L7.96436 86.0015C8.08011 87.9035 9.02962 89.5274 10.3686 90.5039Z" fill="#FFBB94"/>
<g opacity="0.6">
<path d="M8.78724 87.3123L90.5282 26.5827C91.9542 25.5232 93.6809 24.9228 95.4571 24.9345C98.1472 24.9522 100.067 25.9054 101.204 27.4049C100.275 25.2142 98.1141 23.7263 94.7474 23.7044C92.9712 23.6923 91.244 24.2931 89.8185 25.3521L8.07751 86.0827C8.14621 87.2911 8.56772 88.4528 9.28992 89.4243C9.00122 88.7548 8.83113 88.0401 8.78724 87.3123Z" fill="white"/>
</g>
<g opacity="0.25">
<path d="M101.073 27.1218C100.778 29.5541 99.353 31.7448 97.2495 33.0775L12.6948 86.6386C11.3453 87.4935 9.52761 86.9905 8.85986 85.5395C8.85566 85.5302 8.851 85.5204 8.8468 85.5106L8.07739 86.0825C8.19257 87.9936 9.13731 89.625 10.4686 90.6039L97.7438 37.0805C100.198 35.5749 101.762 32.9111 101.728 30.0323C101.716 28.9737 101.497 27.9869 101.073 27.1218Z" fill="#390075"/>
</g>
<path d="M10.9886 91.2279C10.8529 91.228 10.7208 91.1846 10.6116 91.1041C9.05209 89.9561 8.08758 88.1383 7.9655 86.1172C7.95916 86.0121 7.97914 85.907 8.02364 85.8116C8.06814 85.7161 8.13576 85.6332 8.22038 85.5704L89.8977 24.9399C91.4517 23.7858 93.3388 23.1571 95.2053 23.1692C99.815 23.1999 102.8 25.9568 102.812 30.1931C102.82 33.198 101.179 36.0731 98.5303 37.6963L11.3194 91.1344C11.2198 91.1953 11.1054 91.2277 10.9886 91.2279ZM9.26457 86.3769C9.42578 87.739 10.0567 88.962 11.0394 89.8206L97.8664 36.6139C100.141 35.2177 101.55 32.7601 101.543 30.1945C101.533 26.6679 99.1021 24.4611 95.197 24.4355H95.1504C93.5703 24.4355 91.9754 24.9744 90.6535 25.9558L9.26457 86.3769Z" fill="#000072"/>
<path d="M97.0197 89.9296C97.0162 90.3092 96.9909 90.6884 96.9439 91.0653C96.4648 95.0886 93.7218 97.7541 90.0801 97.7866C88.9932 97.799 87.8264 97.5745 86.6154 97.0834L77.5133 96.8602L48.7959 96.1593L44.0673 96.0452C42.5906 97.6844 40.9363 99.0969 39.1933 100.143C37.0646 101.422 34.8048 102.153 32.5767 102.084C31.9562 102.062 31.3427 101.947 30.7579 101.741C25.2635 99.8354 21.3137 95.4643 18.6804 91.2522C18.3049 90.6529 17.9546 90.056 17.6316 89.4714C17.3675 88.985 16.9922 88.5659 16.5354 88.2473C16.519 88.2381 16.5034 88.2276 16.489 88.2157C14.8686 87.0882 13.9021 85.2721 13.7864 83.3209C13.4337 77.3862 16.2957 74.5197 18.0271 74.4468C18.2569 74.1705 18.5126 73.9161 18.791 73.6872C19.5484 73.055 20.4769 72.5744 21.481 72.1584C22.2111 71.288 23.087 70.8298 24.0977 70.7565C24.113 70.754 24.1286 70.7527 24.1441 70.7524C25.2835 70.9499 26.1381 71.6426 26.7961 72.6766C25.7984 75.0649 26.6715 77.4944 28.7184 78.7698C28.9376 78.9072 29.1907 78.9828 29.4503 78.9883C29.7099 78.9937 29.9661 78.929 30.191 78.801L31.5604 78.0221L32.0251 78.8188C32.4954 79.6242 32.6366 80.5872 32.3732 81.4797C32.1032 82.401 31.5479 83.2664 30.8685 84.1048L30.9805 84.2276L31.7737 85.093C31.9629 84.4099 32.1883 83.737 32.4489 83.0772C32.8936 81.9514 33.4292 80.8625 34.0507 79.8212C34.6362 78.8342 35.2911 77.8889 36.0107 76.9922C39.3657 72.8131 44.21 70.0652 49.5329 69.1375C57.2764 67.7851 65.3154 66.9801 73.5992 66.6264C77.6713 66.4537 81.6759 67.7186 84.839 70.221C84.839 70.221 84.8431 70.221 84.8455 70.2251C85.1154 70.4354 85.3789 70.658 85.6354 70.8889C86.1503 71.3507 86.6517 71.8292 87.1396 72.3243C90.7204 75.9312 93.6572 80.3288 95.7827 84.6807C96.104 85.3381 96.3672 86.0215 96.5694 86.7235C96.8783 87.7646 97.03 88.8449 97.0197 89.9296Z" fill="#FFB839"/>
<path d="M32.451 81.2219C32.1799 82.1655 31.6225 83.0519 30.9405 83.9105L31.0529 84.0363C30.8814 84.1196 30.7028 84.1873 30.5193 84.2385C27.8925 84.9695 25.2303 85.7151 22.8834 87.1129C22.3258 87.4444 21.7927 87.816 21.2885 88.2249C20.2524 89.0695 19.3479 90.0807 18.7 91.2279C18.323 90.6142 17.9713 90.0028 17.6471 89.4041C17.3821 88.9054 17.0051 88.4756 16.5462 88.1489C16.5297 88.1396 16.5141 88.1288 16.4996 88.1166C14.8729 86.9618 13.9026 85.1018 13.7865 83.1035C13.4324 77.0252 16.3055 74.0894 18.0436 74.0148C18.101 73.9444 18.1602 73.874 18.2218 73.806C18.2918 73.7271 18.3655 73.6502 18.442 73.5756C18.4928 73.5226 18.5456 73.4714 18.6011 73.4226L18.6137 73.4095C18.6759 73.3522 18.7415 73.2947 18.8105 73.2368C19.5709 72.5893 20.5029 72.0971 21.511 71.671C22.2438 70.7795 23.1232 70.3103 24.1378 70.2352C24.1532 70.2327 24.1688 70.2313 24.1844 70.231C25.3282 70.4332 26.1861 71.1427 26.8466 72.2017C25.8451 74.6477 26.7216 77.136 28.7765 78.4423C28.9964 78.583 29.2506 78.6604 29.5112 78.666C29.7718 78.6716 30.029 78.6053 30.2548 78.4742L31.6295 77.6765L32.096 78.4925C32.5718 79.3216 32.7136 80.3079 32.451 81.2219Z" fill="white"/>
<path d="M97.0196 89.9286C97.001 91.3738 96.7068 92.6779 96.1893 93.7876C95.6928 94.8539 94.9922 95.7442 94.1311 96.4077C93.5978 96.8243 92.9996 97.1537 92.3596 97.3832C90.6986 97.9844 88.7061 97.9454 86.5816 97.0826L43.8955 96.0448C42.8403 97.2237 41.663 98.2914 40.3828 99.2307C37.8588 101.064 35.0874 102.167 32.3643 102.084C31.7425 102.063 31.1277 101.948 30.5411 101.744C24.7986 99.7581 20.7381 95.0967 18.1008 90.7309C18.1246 90.708 18.1474 90.6851 18.1694 90.6617L18.181 90.6503C19.074 89.753 20.0581 88.948 21.118 88.2479C21.2001 88.1897 21.2849 88.1343 21.3693 88.0811C22.7225 87.2118 24.1847 86.5187 25.7193 86.0192C26.5867 85.7345 27.4751 85.5157 28.3766 85.3649C29.2987 85.2123 30.308 85.0899 30.9905 84.4677L31.5644 85.0918C32.3429 82.2871 33.8133 79.4801 35.8155 76.992C39.1819 72.8141 44.0419 70.0648 49.3816 69.1374C57.1516 67.7848 65.2139 66.9779 73.5228 66.6264C77.9623 66.439 82.3165 67.9465 85.5971 70.8878C89.8739 74.7262 93.353 79.7344 95.7786 84.6826C96.2662 85.6711 96.6183 86.7189 96.8257 87.7984C96.9623 88.5004 97.0273 89.214 97.0196 89.9286Z" fill="#39A1FF"/>
<path d="M18.2561 91.305C18.2042 91.087 18.1524 90.8689 18.1008 90.6506L20.286 92.676C20.7598 92.0897 21.3276 91.5714 21.9705 91.1382C22.4795 90.7951 23.0308 90.5091 23.5807 90.2234L26.7106 88.5988C27.2974 88.2941 27.8979 87.9849 28.5617 87.8678C29.0674 87.7788 29.6128 87.7999 30.064 87.5735C30.781 87.2134 30.9932 86.3835 31.1334 85.6504L30.2343 84.7116C27.2862 85.2356 24.484 86.293 21.9942 87.821C21.5345 88.0966 21.0972 88.4019 20.6858 88.7345C19.8476 89.4279 19.1561 90.3029 18.145 90.7686" fill="#FEDA24"/>
<g opacity="0.2">
<path d="M41.4564 86.0695C39.9927 90.6375 39.4658 95.4171 38.9901 100.201C36.8535 101.502 34.5854 102.246 32.3499 102.175C31.7277 102.153 31.1125 102.036 30.5262 101.827C25.0102 99.8862 21.048 95.4385 18.4054 91.1553C18.3229 91.0211 18.2404 90.8892 18.163 90.7554C19.0562 89.8426 20.0406 89.0237 21.1007 88.3115C22.6646 90.2988 24.5443 92.0159 26.6647 93.3946C27.726 94.0812 28.8862 94.695 30.1447 94.8055C31.0307 94.8834 31.9214 94.709 32.7971 94.5352C34.2748 94.2387 35.8183 93.912 36.9939 92.9615C37.6836 92.4022 38.1988 91.6564 38.6833 90.9106C39.6987 89.3507 40.6246 87.7344 41.4564 86.0695Z" fill="#000072"/>
</g>
<g opacity="0.15">
<path d="M21.0838 88.284C20.0486 89.123 19.1445 90.1275 18.4963 91.2672C18.1195 90.6575 17.7679 90.0501 17.4443 89.4554C17.1794 88.9603 16.8032 88.5335 16.3452 88.2085C16.3294 88.1994 16.3146 88.1888 16.3009 88.1768C14.6744 87.0297 13.705 85.182 13.5884 83.1968C13.2349 77.1586 16.1065 74.2421 17.8444 74.168C17.9013 74.0981 17.9605 74.0281 18.0221 73.9606C18.092 73.8822 18.1662 73.8058 18.2422 73.7317C18.2928 73.6792 18.3458 73.6284 18.4012 73.5793L18.4138 73.5667C18.4772 73.5093 18.5429 73.4525 18.6105 73.3951L18.9155 73.376C17.6495 74.1638 16.9253 75.6409 16.7668 77.1246C16.6082 78.6083 16.951 80.1003 17.4294 81.5122C18.261 83.9575 19.4962 86.2464 21.0838 88.284Z" fill="#000072"/>
</g>
<path d="M32.3082 102.812C32.2056 102.812 32.1039 102.812 32.0018 102.808C31.2999 102.784 30.606 102.652 29.9443 102.418C23.1645 100.04 18.7843 94.1129 16.3033 89.5596C16.0917 89.1653 15.7915 88.8251 15.4264 88.5655L15.3982 88.5459L15.3781 88.5324C13.581 87.2646 12.4736 85.2407 12.341 82.9789C12.0599 78.2354 13.6654 75.7121 14.6463 74.6303C15.3622 73.8399 16.196 73.3275 16.9821 73.1822C17.7682 72.3087 18.8378 71.6057 20.3893 70.9401C21.2349 69.982 22.2735 69.457 23.4789 69.3795C23.5383 69.3755 23.5979 69.3788 23.6564 69.3893C24.9471 69.6168 26.0157 70.3912 26.8327 71.6917C26.8954 71.7919 26.9333 71.9057 26.9433 72.0234C26.9532 72.1412 26.9349 72.2597 26.8898 72.369C26.0531 74.3911 26.7146 76.5225 28.536 77.6735C28.6425 77.7406 28.7653 77.7775 28.8913 77.7799C29.0172 77.7824 29.1414 77.7504 29.2504 77.6875L30.6306 76.8934C30.7152 76.8446 30.8087 76.8129 30.9057 76.8001C31.0026 76.7874 31.1012 76.7938 31.1956 76.819C31.2901 76.8443 31.3786 76.8879 31.4562 76.9473C31.5337 77.0067 31.5988 77.0808 31.6476 77.1653L32.1189 77.9794C32.3745 78.4209 32.55 78.9038 32.6375 79.406C33.3035 78.2221 34.0628 77.0928 34.9082 76.0288C38.357 71.6847 43.3603 68.7419 48.996 67.7488C56.5698 66.4119 64.7647 65.5478 73.3565 65.1797C78.0838 64.9779 82.5853 66.589 86.0239 69.7186C90.0528 73.3817 93.7434 78.4535 96.424 84.0066C97.3234 85.8699 97.7675 87.7794 97.7432 89.6819C97.702 92.9596 96.3589 95.7077 94.0596 97.222C91.891 98.649 89.1599 98.82 86.3556 97.7055L43.9384 96.6587C40.3452 100.588 36.1402 102.812 32.3082 102.812ZM23.485 70.8667C22.6759 70.9415 21.9985 71.3212 21.4167 72.0256C21.34 72.1183 21.2419 72.1911 21.1309 72.2377C19.5882 72.8847 18.6012 73.5377 17.9369 74.3537C17.8705 74.4353 17.7874 74.5018 17.6932 74.5489C17.5991 74.596 17.4959 74.6226 17.3906 74.627C17.021 74.6429 16.3961 74.9133 15.751 75.6252C15.0872 76.3576 13.5712 78.5316 13.8275 82.8911C13.9343 84.7002 14.8113 86.3145 16.2382 87.3198L16.2766 87.3464C16.8319 87.7385 17.2889 88.2533 17.6118 88.8505C19.9677 93.1755 24.1057 98.7967 30.4385 101.017C30.9563 101.201 31.4993 101.304 32.0486 101.324C35.609 101.436 39.613 99.281 43.0535 95.4152C43.1261 95.3354 43.215 95.2718 43.3142 95.2287C43.4134 95.1856 43.5206 95.164 43.6287 95.1653L86.5242 96.2261C86.6153 96.2286 86.7052 96.2476 86.7894 96.2822C89.1688 97.2603 91.4582 97.1543 93.2351 95.9847C95.1165 94.7463 96.2155 92.443 96.2506 89.6651C96.2717 87.9938 95.8759 86.3075 95.0795 84.6521C92.4808 79.2687 88.9083 74.3551 85.019 70.8172C81.8719 67.9538 77.7578 66.481 73.4188 66.6646C64.8926 67.0299 56.7656 67.8871 49.2565 69.2122C43.9796 70.1437 39.2991 72.8921 36.0765 76.9518C34.13 79.4041 32.6998 82.1675 31.9409 84.944C31.9058 85.0726 31.8366 85.1894 31.7406 85.2822C31.6446 85.3749 31.5253 85.4401 31.3953 85.4711C31.2653 85.502 31.1293 85.4974 31.0017 85.4579C30.874 85.4183 30.7594 85.3452 30.6699 85.2463L29.7573 84.2382C29.6392 84.1078 29.5713 83.9397 29.5659 83.764C29.5604 83.5883 29.6176 83.4164 29.7274 83.2788C30.4572 82.3633 30.8985 81.5939 31.1112 80.8578C31.3141 80.1599 31.2115 79.3822 30.8301 78.7231L30.7308 78.5516L29.9958 78.9744C29.6516 79.1731 29.2593 79.2738 28.8616 79.2656C28.464 79.2574 28.0762 79.1405 27.7406 78.9277C25.401 77.4497 24.4786 74.7779 25.3706 72.1821C24.8403 71.4525 24.2205 71.0204 23.485 70.8677V70.8667Z" fill="#000072"/>
<path d="M33.2372 82.8185C32.8408 84.0524 32.2251 85.2221 31.8482 86.4595C31.5617 87.3906 31.3664 88.3389 31.2642 89.2954C31.2359 89.5869 31.2098 90.0009 31.1918 90.2915C31.1793 90.5586 30.692 90.5808 30.6425 90.3178C30.0797 87.6471 30.5849 84.8571 31.6291 82.2986C32.0642 81.3817 33.6511 81.8909 33.2372 82.8185Z" fill="#000072"/>
<path d="M22.7554 71.1112C21.6452 71.6893 20.9461 72.9441 20.7123 74.3723C20.6655 74.6668 20.2882 74.6298 20.282 74.3316C20.1884 72.6146 20.8138 70.776 22.0136 69.6976C22.8636 68.9665 23.6905 70.5331 22.7554 71.1112Z" fill="#000072"/>
<path d="M18.5658 74.2929C17.5511 75.0746 16.7124 76.0575 16.4529 77.2753C16.4404 77.334 16.4047 77.3864 16.3526 77.4224C16.3005 77.4584 16.2357 77.4755 16.1707 77.4704C16.1057 77.4653 16.045 77.4384 16.0004 77.3948C15.9558 77.3512 15.9303 77.294 15.9289 77.2342C15.9226 76.5352 16.0711 75.8422 16.3653 75.1972C16.6563 74.5431 17.0684 73.94 17.5327 73.387C18.2115 72.6539 19.3353 73.638 18.5653 74.2921L18.5658 74.2929Z" fill="#000072"/>
<g opacity="0.5">
<path d="M36.3974 80.2929C36.203 79.35 36.9206 78.4713 37.8794 77.3298C38.3878 76.7252 38.9486 76.1667 39.5553 75.6606C39.5553 75.6606 42.9178 72.1097 45.9595 72.1022C46.2552 72.1022 46.5839 72.1428 46.7747 72.3684C47.0111 72.6481 46.9145 73.0988 46.6646 73.3687C46.4147 73.6386 46.0584 73.7751 45.7203 73.9168C44.1116 74.5895 40.7453 77.5381 38.9771 79.8366C38.3862 80.6043 37.8155 81.4578 37.2163 81.3501C36.7854 81.2718 36.486 80.7232 36.3974 80.2929Z" fill="white"/>
</g>
<g opacity="0.5">
<path d="M34.9149 82.1984L34.7032 82.41L34.4915 82.6217C34.2929 82.8277 34.1213 83.5614 34.5181 83.9995C34.7932 84.3025 35.2008 84.3109 35.3677 84.3141C35.848 84.3244 36.5153 84.1007 36.7998 83.4859C37.0329 82.9848 37.004 82.2362 36.5326 81.908C35.938 81.4932 35.0679 82.0474 34.9149 82.1984Z" fill="white"/>
</g>
<path d="M89.1128 130.015C89.4933 133.687 91.1863 137.203 90.7453 140.99C90.7018 141.335 90.5795 141.666 90.3882 141.955C90.1969 142.244 89.9417 142.484 89.6431 142.655C84.9565 145.41 75.6594 145.487 70.6194 143.889C70.2674 143.776 69.9504 143.572 69.6992 143.298C69.4481 143.024 69.2714 142.688 69.1865 142.324C68.7102 140.295 69.2053 138.602 69.7749 138.024V127.487L59.5863 126.644C58.8536 128.338 58.0446 130.213 57.1592 132.267C57.1322 132.328 57.1075 132.39 57.0804 132.453C56.8214 133.051 56.7245 133.708 56.7997 134.356C57.088 136.858 57.1964 139.378 57.1239 141.895C57.1162 142.236 57.0356 142.571 56.8877 142.877C56.7398 143.183 56.528 143.453 56.2671 143.668C52.5931 146.686 45.5688 146.613 37.6341 145.7C37.0762 145.637 36.5436 145.431 36.0872 145.099C34.881 144.222 34.2637 143.084 34.0846 141.752C33.9976 141.099 34.0164 140.399 34.1203 139.663C34.1828 139.231 34.3392 138.818 34.5783 138.454C35.316 137.324 36.4036 136.43 37.7532 135.712C37.6991 134.162 37.6645 132.604 37.6492 131.036C37.5723 123.621 37.9153 116.096 38.6887 109.047C38.8408 99.1639 39.845 90.5491 42.6398 84.597L84.1226 79.6434C84.499 82.2894 85.5656 85.9205 86.8817 89.9085C87.4514 91.6368 88.0691 93.4305 88.697 95.2413C91.3988 101.98 92.0239 109.153 90.1527 114.212L89.7617 120.166L89.1338 129.703L89.1128 130.015Z" fill="#FAA327"/>
<path d="M56.1225 134.366C56.4023 136.866 56.5073 139.384 56.4366 141.899C56.429 142.24 56.3508 142.575 56.2071 142.88C56.0635 143.186 55.858 143.456 55.6048 143.671C52.0415 146.685 45.2251 146.613 37.5249 145.7C36.9841 145.637 36.4677 145.431 36.0248 145.101C35.9639 145.055 35.9035 145.008 35.847 144.958C35.8066 144.925 35.7684 144.892 35.7284 144.86C35.6884 144.828 35.652 144.794 35.6138 144.759C35.5511 144.701 35.4885 144.64 35.4276 144.579C35.2486 144.399 35.0837 144.204 34.9343 143.996C34.8899 143.935 34.8512 143.874 34.8113 143.814C34.809 143.809 34.8064 143.807 34.8064 143.804C34.7619 143.741 34.7259 143.678 34.6899 143.615C34.6428 143.533 34.6011 143.451 34.5566 143.367C34.5255 143.301 34.494 143.236 34.4647 143.168C34.3977 143.015 34.3393 142.859 34.29 142.7C34.2718 142.648 34.2561 142.595 34.2429 142.541C34.2274 142.492 34.2136 142.442 34.2025 142.391C34.1869 142.326 34.1709 142.26 34.1581 142.194C34.1265 142.051 34.1021 141.904 34.0821 141.756C33.999 141.104 34.0168 140.404 34.1176 139.667C34.1782 139.235 34.3299 138.824 34.562 138.461C35.2774 137.331 36.3336 136.439 37.6431 135.721C37.5895 134.175 37.5559 132.618 37.5423 131.05C40.8451 132.973 44.8741 133.554 48.7182 133.54H48.7249C51.3505 133.528 54.0433 133.259 56.4744 132.283C56.4473 132.346 56.4228 132.407 56.3957 132.468C56.1454 133.064 56.0511 133.719 56.1225 134.366Z" fill="white"/>
<path d="M90.1546 114.391L89.765 120.419C89.4796 120.566 89.1982 120.708 88.9146 120.85C82.9063 123.817 76.5588 125.977 70.3258 128.399C70.1577 128.461 69.993 128.532 69.8325 128.612V127.835L59.6717 126.981C58.941 128.695 58.1321 130.599 57.2511 132.672C54.7523 133.659 51.9846 133.934 49.2858 133.946C49.4605 132.25 49.5919 130.552 49.6799 128.852C49.758 127.348 49.7996 125.821 49.4972 124.346C49.2113 122.942 48.6212 121.626 48.0914 120.298C47.0675 117.736 46.2496 115.091 45.6461 112.391C45.3995 111.294 46.6276 110.501 47.4899 111.196C53.8718 116.345 63.11 117.457 70.8921 114.751C73.3129 113.91 75.6176 112.75 77.749 111.301C81.2384 108.927 84.2646 105.718 86.0276 101.815C87.7175 98.0776 88.1642 93.6714 86.8712 89.7798C86.8791 89.7815 86.8869 89.7839 86.8945 89.7869C87.4636 91.537 88.0792 93.3537 88.7059 95.187C91.3992 102.007 92.0217 109.268 90.1546 114.391Z" fill="#EF7F25"/>
<path d="M91.2279 106.965C91.2279 107.173 91.2279 107.38 91.2196 107.584C91.2196 107.631 91.2196 107.677 91.2155 107.721C91.2114 107.845 91.2072 107.971 91.2008 108.093C91.1966 108.179 91.1925 108.266 91.1865 108.353C91.1548 108.885 91.1046 109.408 91.0337 109.918C91.0232 109.997 91.013 110.075 91.0001 110.154C90.9859 110.253 90.9712 110.35 90.9541 110.447C90.9435 110.526 90.9288 110.602 90.9141 110.679C90.8975 110.776 90.8787 110.873 90.8598 110.97C90.8409 111.067 90.8179 111.179 90.7972 111.282C90.7158 111.666 90.6219 112.042 90.5128 112.408C90.4921 112.484 90.4691 112.559 90.4461 112.633C90.4461 112.637 90.4461 112.641 90.4461 112.645C90.4457 112.646 90.4457 112.648 90.4461 112.649C90.4461 112.649 90.4461 112.651 90.4461 112.651C90.421 112.738 90.3936 112.825 90.3642 112.912C90.3437 112.929 90.3222 112.946 90.2998 112.961C90.2705 112.988 90.2398 113.013 90.2077 113.036C89.3635 113.697 88.4379 114.244 87.4541 114.665C85.0387 115.713 82.3956 116.105 79.7878 116.491C77.9472 116.764 76.1065 117.036 74.2659 117.307C72.9622 117.499 71.6581 117.691 70.348 117.818C62.101 118.632 53.7518 116.901 46.1504 113.567C44.7294 112.945 43.3371 112.268 41.9735 111.537C40.6851 110.849 39.4035 110.097 38.3737 109.079C38.3967 108.868 38.4197 108.658 38.4422 108.449C38.595 98.7643 39.6041 90.3227 42.4125 84.4898L84.0885 79.6434C84.1221 79.8757 84.1617 80.1162 84.2077 80.3624C84.2284 80.4799 84.2496 80.5979 84.2744 80.7172C84.291 80.8101 84.3098 80.903 84.331 81.0005C84.3522 81.0981 84.3706 81.1905 84.3913 81.2875C84.406 81.366 84.4249 81.4445 84.4414 81.523C84.4727 81.6572 84.5022 81.7915 84.5335 81.9299C84.5648 82.0683 84.5979 82.2085 84.6338 82.3479C84.6964 82.6042 84.7631 82.8643 84.8321 83.1309C84.8386 83.1578 84.8468 83.1824 84.8528 83.2071C84.8906 83.3538 84.9301 83.5024 84.972 83.6511C84.9844 83.6947 84.995 83.7402 85.0074 83.7834C85.0682 84.0045 85.1308 84.2274 85.1957 84.455H85.198C85.2021 84.4736 85.2081 84.494 85.2145 84.5149C85.2269 84.5563 85.2375 84.5976 85.25 84.6389C85.319 84.8786 85.388 85.1201 85.4653 85.3658C85.6218 85.8883 85.7874 86.4256 85.9604 86.9709C86.0649 87.3034 86.1735 87.6378 86.2826 87.9764C86.3387 88.1482 86.3953 88.3173 86.4514 88.4873C87.1329 90.5466 87.8977 92.7239 88.6809 94.9253C90.3486 98.9696 91.2279 103.175 91.2279 106.965Z" fill="#39A1FF"/>
<g opacity="0.15">
<path d="M56.6121 134.81C56.9057 137.322 57.016 139.853 56.9422 142.381C56.9344 142.723 56.8523 143.059 56.7016 143.367C56.551 143.674 56.3354 143.945 56.0698 144.161C52.3286 147.191 45.1763 147.118 37.0966 146.201C36.5285 146.138 35.986 145.93 35.521 145.598C35.4575 145.552 35.3941 145.505 35.3344 145.458C35.25 145.393 35.1694 145.327 35.091 145.257C35.0234 145.198 34.9577 145.139 34.8942 145.077C34.8308 145.016 34.7711 144.954 34.7119 144.891C34.6653 144.838 34.6144 144.785 34.5678 144.73C34.551 144.709 34.5342 144.69 34.517 144.669C34.4704 144.614 34.4284 144.559 34.386 144.502C34.3836 144.499 34.3818 144.495 34.3776 144.491C34.3309 144.432 34.2885 144.37 34.2484 144.307C34.191 144.224 34.1383 144.14 34.0894 144.053C34.0558 143.996 34.0236 143.936 33.9919 143.877C33.9877 143.871 33.9859 143.865 33.9817 143.858C33.9476 143.792 33.9159 143.725 33.8884 143.659C33.8609 143.593 33.8292 143.524 33.8017 143.456C33.701 143.204 33.6218 142.944 33.5648 142.679C33.5517 142.62 33.5391 142.561 33.5284 142.502C33.5247 142.485 33.5219 142.468 33.52 142.451C33.5074 142.389 33.499 142.324 33.4906 142.26C33.4882 142.254 33.4868 142.246 33.4865 142.239C33.961 142.757 34.5062 143.206 35.1059 143.572C37.4519 144.99 40.3995 144.857 43.1138 144.464C44.4857 144.265 45.9583 143.951 46.8784 142.918C47.6431 142.059 47.8823 140.867 48.0707 139.735C48.3881 137.824 48.6485 135.905 48.8518 133.978C51.6067 133.968 54.433 133.699 56.9823 132.717C56.9548 132.778 56.9296 132.839 56.9021 132.901C56.6372 133.5 56.5371 134.159 56.6121 134.81Z" fill="#000072"/>
</g>
<path d="M64.1466 118.419C53.8179 117.29 44.9307 114.768 38.3737 109.997L39.0094 107.157C46.1887 112.033 54.9502 114.861 65.043 115.964C73.9605 116.427 82.7033 115.818 91.2279 113.865L90.6123 116.439C81.407 118.454 72.5484 119.243 64.1466 118.419Z" fill="#FEDA24"/>
<path d="M42.8779 84.8952C40.2219 92.7103 39.6315 101.011 39.4984 109.207C38.7934 115.825 38.4456 122.479 38.3714 129.135C38.3491 131.351 38.3668 133.568 38.4006 135.785C38.4022 135.907 38.37 136.027 38.3075 136.132C38.2451 136.237 38.1549 136.323 38.0468 136.38C37.1624 136.846 36.3443 137.414 35.6927 138.116C35.387 138.454 35.0898 138.815 34.895 139.223C34.7002 139.632 34.6807 140.082 34.6441 140.529C34.5847 141.494 34.7215 142.444 35.1653 143.228C35.7103 144.162 36.6267 145.013 37.7537 145.11L38.5365 145.194C40.098 145.363 41.667 145.494 43.2327 145.577C47.2944 145.739 53.13 145.832 56.298 142.997C56.5439 142.703 56.6834 142.335 56.6941 141.952C56.7534 139.872 56.6872 137.79 56.4961 135.717L56.4172 134.942C56.2735 134.052 56.3245 133.107 56.7048 132.28L59.2425 126.487C59.298 126.361 59.3915 126.255 59.5099 126.185C59.6283 126.114 59.7659 126.082 59.9034 126.093L70.2209 126.937C70.3866 126.951 70.541 127.026 70.6538 127.148C70.7665 127.27 70.8293 127.43 70.8299 127.596V138.108C70.8306 138.195 70.8138 138.282 70.7804 138.362C70.747 138.443 70.6978 138.516 70.6355 138.577C69.8935 139.493 69.9121 141.48 70.3276 142.553C70.4832 142.878 70.7524 143.135 71.0845 143.276C71.3627 143.388 71.6262 143.43 71.8859 143.512C72.6613 143.714 73.4469 143.875 74.2395 143.993C79.0743 144.678 85.7874 144.511 90.0829 142.075C90.2621 141.951 90.4135 141.79 90.5274 141.604C90.6413 141.418 90.7153 141.211 90.7447 140.995C90.7744 140.64 90.8166 140.188 90.811 139.837C90.8161 136.576 89.4434 133.484 89.0951 130.187C89.0916 130.149 89.0916 130.111 89.0951 130.074L90.1474 114.312C91.9598 108.763 91.0512 102.592 89.1609 97.1486C88.7027 95.9154 88.0975 94.2057 87.6838 92.9345C86.2962 88.6815 84.8409 84.3817 84.4685 79.8943C84.4649 79.8354 84.4835 79.7773 84.5206 79.7314C84.5578 79.6855 84.6107 79.6551 84.6692 79.6462C84.7276 79.6372 84.7872 79.6504 84.8364 79.6831C84.8856 79.7159 84.9208 79.7658 84.935 79.823C86.1789 84.6855 88.1661 89.7887 89.8297 94.5386C92.3595 100.786 93.8923 108.056 91.4297 114.578L91.4705 114.389C91.4742 114.394 90.4145 130.153 90.4173 130.16C90.747 133.216 92.5506 137.518 92.0646 141.154C91.9561 142.199 91.1751 143.106 90.2406 143.498C88.3391 144.494 86.196 145.001 84.1165 145.315C79.9425 145.88 75.6517 145.816 71.5482 144.788C71.1169 144.67 70.5933 144.554 70.2098 144.307C69.5691 143.916 69.1102 143.286 68.934 142.557C68.5838 140.932 68.5541 138.979 69.7034 137.638L69.509 138.106V127.594L70.1175 128.253L59.7991 127.412L60.4599 127.018L57.9222 132.811C57.6323 133.433 57.6314 134.131 57.7367 134.797C57.8809 136.115 57.9764 137.467 58.0149 138.79C58.0488 139.858 58.0478 140.921 58.0205 141.991C58.0033 142.984 57.444 143.942 56.6046 144.468C52.2451 147.61 45.1031 147.072 39.9825 146.667C39.4534 146.619 38.9247 146.569 38.3974 146.51C37.9336 146.449 37.1577 146.414 36.6949 146.228C35.5415 145.819 34.613 144.921 34.005 143.87C33.2745 142.569 33.1957 141.038 33.4086 139.602C33.7745 137.585 35.7488 136.118 37.429 135.209L37.0752 135.817C36.8467 131.366 36.8003 126.91 36.936 122.449C37.0524 118.115 37.3998 113.196 37.8719 109.182C37.9151 107.099 37.9851 105.015 38.1326 102.931C38.6167 96.7161 39.2836 90.2004 42.4948 84.7142C42.5221 84.6693 42.5651 84.6362 42.6155 84.6212C42.6658 84.6061 42.72 84.6103 42.7674 84.6328C42.8149 84.6553 42.8523 84.6946 42.8725 84.7431C42.8926 84.7916 42.894 84.8458 42.8765 84.8952H42.8779Z" fill="#000072"/>
<path d="M62.3171 127.429C57.3145 127.091 51.7191 125.218 48.3451 121.547C47.846 121.016 47.4386 120.407 47.0838 119.784C47.0601 119.735 47.0556 119.68 47.071 119.628C47.0864 119.576 47.1208 119.532 47.1679 119.502C47.2149 119.473 47.2716 119.46 47.3275 119.467C47.3834 119.474 47.4348 119.5 47.4724 119.54C48.1221 120.344 48.8522 121.09 49.6835 121.72C52.134 123.655 55.1331 124.891 58.214 125.594C59.5922 125.902 60.9935 126.108 62.4051 126.21C63.2368 126.286 63.1611 127.463 62.3143 127.429H62.3171Z" fill="#000072"/>
<path d="M38.0283 133.97C38.0755 135.538 38.1282 137.058 38.3593 138.606C38.4464 138.943 38.1136 139.173 37.9488 138.879C37.2143 137.411 37.0179 135.635 36.9256 133.949C36.9169 132.968 38.0422 132.983 38.0283 133.97Z" fill="#000072"/>
<path d="M70.8238 118.741C68.5364 118.741 66.3026 118.634 64.1086 118.422H64.1031C52.9908 117.22 44.6468 114.519 38.5961 110.162C38.5108 110.101 38.4454 110.015 38.4081 109.915C38.3709 109.815 38.3636 109.706 38.3872 109.602L39.0105 106.847C39.0295 106.763 39.0678 106.685 39.1222 106.62C39.1766 106.554 39.2455 106.503 39.323 106.471C39.4006 106.439 39.4845 106.427 39.5677 106.435C39.6508 106.443 39.7308 106.472 39.8009 106.519C46.5326 111.042 55.0374 113.887 65.079 114.974C74.0545 115.434 82.6422 114.752 90.5966 112.949C90.683 112.93 90.7728 112.933 90.8575 112.959C90.9423 112.986 91.0191 113.034 91.0808 113.099C91.1425 113.164 91.1869 113.245 91.21 113.333C91.233 113.421 91.2339 113.514 91.2125 113.602L90.6089 116.099C90.5854 116.196 90.5356 116.285 90.4653 116.355C90.395 116.425 90.307 116.473 90.2115 116.493C83.2627 117.994 76.8621 118.741 70.8238 118.741ZM64.2084 117.355C71.9989 118.11 80.3338 117.508 89.6766 115.514L89.9999 114.178C82.1815 115.866 73.7793 116.494 65.0108 116.044C65.0011 116.044 64.9915 116.044 64.9824 116.042C55.0754 114.971 46.6264 112.209 39.8545 107.83L39.4785 109.491C45.3593 113.616 53.4552 116.193 64.2084 117.353V117.355Z" fill="#000072"/>
<path d="M71.9829 138.613C70.8082 138.39 69.6564 138.042 68.5814 137.513C63.5716 135.049 60.9485 129.823 60.8237 123.582C60.8115 123.003 60.8211 122.415 60.8525 121.819L69.3616 123.934C70.3992 126.049 73.5122 126.049 74.1352 123.088C75.1727 118.646 71.0221 116.955 69.9841 120.34C64.9807 117.567 65.3395 111.324 69.8786 107.555C71.0383 106.594 72.3742 105.878 73.8084 105.449C75.2426 105.02 76.7463 104.886 78.2318 105.056C78.7892 105.12 79.3423 105.219 79.8878 105.352C84.6631 106.516 88.9074 110.212 90.5304 114.418C95.5631 129.394 86.7281 141.387 71.9829 138.613Z" fill="#FAA327"/>
<path d="M71.98 138.608C70.8051 138.384 69.6531 138.031 68.5779 137.496C63.567 135.006 60.9434 129.724 60.8186 123.415C61.7983 127.883 64.9266 131.801 69.0076 133.631C72.1835 135.055 75.8823 135.226 79.1564 134.061C82.4306 132.896 85.2508 130.405 86.8284 127.226C88.2543 124.358 88.6611 121.046 88.5199 117.826C88.3891 114.872 87.7665 111.825 86.0101 109.485C84.4617 107.42 82.2052 106.109 79.8842 104.984C84.6606 106.162 88.9057 109.897 90.5291 114.149C95.5651 129.289 86.7283 141.413 71.98 138.608Z" fill="#EF7F25"/>
<path d="M80.2434 130.336L82.7497 130.839C81.8904 131.916 80.8455 132.838 79.6619 133.563C78.7487 134.111 77.7675 134.541 76.7423 134.845C75.0031 135.356 73.1752 135.512 71.3716 135.305C70.8015 135.239 70.1365 135.159 69.3764 134.944C68.9826 134.831 68.5971 134.692 68.2226 134.528C67.5946 134.249 66.6112 133.738 65.4198 132.629C65.0294 132.266 62.6171 129.959 61.4485 126.574C61.2429 125.978 61.085 125.367 60.9763 124.747C60.8729 124.154 60.8202 123.554 60.8186 122.953C60.8143 120.743 61.5264 120.044 61.8262 119.792C62.3934 119.317 63.1658 119.148 63.9121 119.115C64.503 119.088 65.1158 119.142 65.6398 119.41C66.5005 119.851 66.9642 120.765 67.4777 121.569C68.1527 122.626 68.9916 123.567 69.8458 124.492C69.9731 124.627 70.098 124.762 70.2234 124.897C70.6438 125.349 71.1013 125.822 71.7074 125.966C72.4775 126.15 73.2969 125.725 73.7653 125.101C74.2337 124.476 74.4099 123.691 74.5006 122.921C74.6213 121.874 74.712 121.005 74.1467 120.196C74.0627 120.076 73.1354 118.793 71.7934 119.031C70.8433 119.2 70.0723 120.065 69.9536 121.159C69.5698 120.851 68.3337 119.768 68.1418 118.054C67.9736 116.539 68.7175 115.347 69.2201 114.513C69.5588 113.952 69.9536 113.412 70.4586 112.987C72.2485 111.487 75.2256 111.86 76.8345 113.545C76.9143 112.944 76.9935 112.343 77.072 111.743C77.0849 111.65 77.111 111.542 77.1993 111.51C77.2597 111.487 77.3285 111.51 77.3893 111.54C78.3869 111.985 79.0311 112.939 79.5745 113.872C80.9616 116.239 82.0746 118.891 81.9065 121.614C82.2931 121.1 82.7938 120.678 83.371 120.38C84.0987 122.138 84.185 124.089 83.6154 125.902C83.0457 127.715 81.8549 129.281 80.2434 130.336Z" fill="white"/>
<path d="M60.7443 121.842C61.0448 127.498 62.5298 133.356 67.6342 136.424C68.9276 137.195 70.3479 137.725 71.8271 137.989C73.3246 138.247 74.8697 138.423 76.3894 138.37C83.3439 138.277 89.0432 134.102 90.72 127.197C91.6994 123.207 91.2626 118.958 90.0027 115.071C89.9412 114.87 89.8432 114.552 89.7457 114.366C89.656 114.172 89.5483 113.882 89.4393 113.695C87.1334 109.236 82.3964 106.053 77.4224 105.678C73.9745 105.456 70.4383 107.047 68.3584 109.838C66.2254 112.613 66.0077 116.63 68.8409 118.99C69.2166 119.303 69.6187 119.581 70.0426 119.822L69.1959 120.169C69.4094 119.425 69.8157 118.699 70.5085 118.268C72.0471 117.281 73.9287 118.423 74.4579 119.981C75.0625 121.601 74.75 123.924 73.5257 125.158C72.0508 126.592 69.5772 125.963 68.9329 124.049C68.8516 123.805 69.1862 123.637 69.3286 123.85C69.678 124.335 70.1439 124.681 70.6499 124.84C71.7347 125.213 72.8449 124.587 73.2021 123.516C73.6643 122.165 73.687 120.162 72.3466 119.37C71.3964 118.863 70.6093 119.614 70.3084 120.57C70.279 120.649 70.2327 120.721 70.1728 120.781C70.113 120.841 70.0409 120.887 69.9617 120.915C69.8825 120.944 69.7981 120.955 69.7143 120.947C69.6304 120.94 69.5493 120.914 69.4765 120.871C64.8943 118.432 64.3263 113.048 67.3079 109.049C69.6456 105.868 73.5936 104.061 77.4954 104.278C82.438 104.627 87.0839 107.49 89.8575 111.605L90.3017 112.311L90.6964 113.049C90.8166 113.254 90.9497 113.601 91.0509 113.822C91.1664 114.076 91.2626 114.338 91.3384 114.607C93.3951 120.774 93.3461 128.157 89.3011 133.515C85.7371 138.315 79.7449 140.231 73.9819 139.632C71.9482 139.437 69.9063 139.063 68.052 138.146C67.2002 137.694 66.3525 137.212 65.607 136.594C65.497 136.51 65.2266 136.287 65.1203 136.205C61.9571 133.44 60.193 129.239 60.1065 125.048C60.0603 123.963 60.1527 122.88 60.3099 121.818C60.3561 121.559 60.7259 121.582 60.7402 121.841L60.7443 121.842Z" fill="#000072"/>
<g opacity="0.15">
<path d="M62.9729 123.057C63.5416 122.667 64.1925 122.415 64.8749 122.318C66.5308 122.091 68.279 122.872 69.2303 124.241C69.2303 124.195 69.2261 124.142 69.2219 124.093C68.3825 123.166 67.5599 122.222 66.8973 121.162C66.3932 120.355 65.9381 119.437 65.0932 118.996C64.5802 118.728 63.9773 118.673 63.3972 118.7C62.6646 118.734 61.905 118.903 61.3497 119.38C61.0554 119.631 60.3564 120.332 60.3606 122.549C60.3627 123.151 60.4148 123.752 60.5164 124.346V124.348C60.5164 124.36 60.521 124.371 60.5229 124.382C60.542 124.495 60.5644 124.606 60.5868 124.717C60.5952 124.76 60.6031 124.802 60.612 124.844C60.6395 124.972 60.6693 125.098 60.7006 125.224C60.7066 125.248 60.7117 125.27 60.7183 125.296C60.7559 125.445 60.7965 125.592 60.84 125.737C60.8398 125.738 60.8398 125.739 60.84 125.74C60.8838 125.889 60.9304 126.036 60.9799 126.181C62.1256 129.576 64.4949 131.889 64.8782 132.253C66.0491 133.365 67.0144 133.881 67.6294 134.158C67.9971 134.323 68.3755 134.462 68.7621 134.576C67.728 133.979 66.7724 133.256 65.9176 132.423C64.0398 130.575 62.7225 128.095 62.5513 125.466C62.5005 124.687 62.5555 123.876 62.9048 123.182C62.9248 123.138 62.9496 123.099 62.9729 123.057Z" fill="#000072"/>
</g>
<path d="M19.3554 94.124C19.2472 94.1246 19.1413 94.0926 19.0523 94.0324C18.9633 93.9721 18.8953 93.8866 18.8577 93.7873C18.8201 93.688 18.8146 93.5798 18.842 93.4774C18.8694 93.375 18.9284 93.2833 19.0109 93.2147C22.9891 89.8654 26.7293 87.8044 30.4491 86.907C30.5178 86.8861 30.5901 86.8792 30.6616 86.8866C30.7331 86.8941 30.8024 86.9158 30.865 86.9504C30.9276 86.9849 30.9824 87.0317 31.0259 87.0877C31.0694 87.1437 31.1007 87.2078 31.118 87.2761C31.1352 87.3444 31.138 87.4154 31.1261 87.4848C31.1143 87.5542 31.0881 87.6204 31.0491 87.6795C31.0101 87.7386 30.9591 87.7893 30.8993 87.8285C30.8396 87.8676 30.7723 87.8944 30.7015 87.9072C27.1483 88.7628 23.5499 90.7542 19.7004 93.9954C19.6051 94.0776 19.4826 94.1233 19.3554 94.124Z" fill="#000072"/>
<path d="M17.8895 91.9519C17.7865 91.9519 17.6859 91.9217 17.6008 91.8652C17.5156 91.8087 17.45 91.7286 17.4123 91.6353C17.3746 91.5419 17.3666 91.4397 17.3895 91.3419C17.4123 91.2441 17.4648 91.1552 17.5402 91.0869C21.0847 87.8803 25.198 85.7406 29.7671 84.7278C29.8337 84.7109 29.903 84.7072 29.971 84.7169C30.0391 84.7267 30.1044 84.7496 30.1631 84.7844C30.2218 84.8192 30.2728 84.8652 30.3129 84.9196C30.353 84.9739 30.3815 85.0356 30.3967 85.1009C30.4118 85.1663 30.4133 85.2339 30.4011 85.2997C30.3889 85.3656 30.3632 85.4285 30.3255 85.4845C30.2879 85.5405 30.239 85.5886 30.1819 85.6259C30.1248 85.6631 30.0606 85.6888 29.993 85.7014C25.6023 86.6751 21.6467 88.733 18.2365 91.8173C18.1424 91.9032 18.0184 91.9512 17.8895 91.9519Z" fill="#000072"/>
<path d="M47.786 68.5877C58.3978 66.7309 70.6111 63.7639 82.8887 63.7148C85.3844 63.7047 87.2552 66.0496 86.8208 68.5843C86.3911 71.0909 85.2563 73.149 83.4942 74.3723C84.74 75.4781 85.4677 77.021 85.1628 79.4355C85.1009 79.9614 85.1026 80.4931 85.1679 81.0185C86.2643 90.4222 83.9712 96.8996 76.495 98.9014C74.8632 99.3346 73.1459 99.283 71.5414 98.7525C62.1828 95.6739 54.257 90.3216 48.5202 81.4941L47.786 68.5877Z" fill="#39A1FF"/>
<path d="M47.6509 68.4604C59.48 66.4194 71.3489 63.607 83.427 63.7179C85.6492 63.9365 87.487 65.9015 87.5986 68.1351C87.6366 68.7205 87.5523 69.3068 87.4199 69.875C87.1841 70.9616 86.7746 72.0024 86.2075 72.9568C85.6297 73.9169 84.8497 74.7797 83.9043 75.4191L83.9715 74.2758C85.432 75.4448 86.157 77.4154 85.9894 79.2737C85.9431 79.8936 85.8547 80.4856 85.9431 81.1073C86.3061 84.1034 86.4524 87.1521 85.7793 90.1896C84.6904 95.4052 81.0151 98.8379 75.8357 99.7911C74.4216 100.021 72.9743 99.9333 71.598 99.5333C71.0082 99.3567 70.2721 99.084 69.6939 98.892C65.944 97.5478 62.3387 95.7874 59.0495 93.5175C54.6936 90.5131 50.7299 86.679 48.3124 81.9118C48.2864 81.8598 48.2801 81.8001 48.2948 81.7438C48.3094 81.6875 48.344 81.6385 48.392 81.6061C48.4401 81.5737 48.4982 81.56 48.5555 81.5678C48.6128 81.5755 48.6653 81.604 48.7032 81.648C50.4068 83.641 52.1141 85.572 53.9608 87.3623C55.789 89.1446 57.7833 90.8188 59.9156 92.2236C63.1141 94.3676 66.6204 96.0372 70.2452 97.3175C71.3994 97.6969 72.5836 98.1728 73.8011 98.2078C76.1987 98.3154 78.6157 97.3898 80.5212 95.9607C84.6048 92.7778 84.9066 87.0379 84.4932 82.2446L84.3932 81.2686C84.2543 80.2842 84.5418 79.2802 84.4687 78.2996C84.4426 77.7386 84.3024 77.1889 84.0567 76.6847C83.8111 76.1805 83.4652 75.7325 83.0405 75.3683C82.9595 75.2946 82.896 75.2035 82.8546 75.1018C82.8133 75 82.7951 74.8902 82.8016 74.7805C82.808 74.6707 82.8389 74.5638 82.8918 74.4677C82.9448 74.3715 83.0186 74.2886 83.1076 74.225C84.671 73.1702 85.62 71.3963 86.0274 69.5566C86.245 68.7149 86.2528 67.7967 85.8524 67.0076C85.3029 65.8321 84.0682 65.0747 82.7798 65.1325C79.2169 65.1722 75.6585 65.4018 72.1197 65.8204C63.9835 66.7447 55.9723 68.4837 47.8926 69.881C46.9861 70.0209 46.7005 68.6585 47.6532 68.4609L47.6509 68.4604Z" fill="#000072"/>
<g opacity="0.2">
<path d="M75.9185 77.534C77.1961 77.1049 78.587 77.1606 79.8261 77.6907C80.4351 77.954 81.0628 78.4528 81.0353 79.1151C81.0148 79.6013 80.6361 80.0474 80.7317 80.5265C80.7783 80.7535 80.9252 80.946 81.0614 81.1325C82.3283 82.8749 82.9103 85.1174 82.576 87.2452C82.2416 89.3731 80.9742 91.3518 79.1411 92.484C78.6543 92.7846 78.133 93.0261 77.6433 93.323C77.3808 93.4815 77.1267 93.6563 76.8506 93.784C76.5443 93.9238 76.2146 94.0063 75.8858 94.0809C69.6839 95.4839 62.9691 94.5037 57.4275 91.3849C59.6226 93.0846 61.9566 94.597 64.4049 95.9062C66.3596 96.9522 68.4025 97.8723 70.5662 98.3552C72.7299 98.8381 75.0316 98.868 77.1313 98.1553C78.1647 97.8052 79.1313 97.2846 80.0691 96.728C80.8851 96.2442 81.6956 95.7221 82.3269 95.0141C82.9956 94.2655 83.4344 93.3426 83.8126 92.4126C84.7018 90.2225 85.3017 87.9258 85.5972 85.5807C85.6792 84.9281 85.7371 84.2695 85.6624 83.6179C85.5729 82.8436 85.2964 82.0964 85.2526 81.3185C85.2059 80.4496 85.4475 79.5794 85.3603 78.7133C85.2418 77.5308 84.5293 76.5039 83.8396 75.5358C83.703 75.3442 83.5515 75.1414 83.3267 75.0697C83.0936 74.9955 82.8431 75.0836 82.6142 75.1708C81.1077 75.7463 79.6074 76.338 78.1134 76.9458" fill="#000072"/>
</g>
<g opacity="0.5">
<path d="M66.9951 68.0162C70.9511 67.226 74.9789 66.8511 79.0128 66.8975C79.3518 66.9012 79.7057 66.912 80.0037 67.0732C80.3017 67.2345 80.5208 67.5958 80.4061 67.9123C80.3012 68.2059 79.9757 68.3476 79.6824 68.4534C75.6777 69.8941 71.4452 70.5983 67.1896 70.5319C66.6831 70.5235 66.1464 70.495 65.7253 70.213C65.3043 69.931 65.0753 69.3022 65.3854 68.9014C65.5253 68.721 65.7407 68.6217 65.9482 68.5285L67.1308 67.9934" fill="white"/>
</g>
<g opacity="0.5">
<path d="M62.0682 69.5629C62.193 69.3959 62.3694 69.2746 62.57 69.2178C62.7707 69.1609 62.9845 69.1716 63.1784 69.2483C63.3685 69.3341 63.5257 69.4788 63.627 69.661C63.7282 69.8432 63.7679 70.0532 63.7403 70.2598C63.6695 70.718 63.2638 71.069 62.8203 71.2042C62.313 71.3589 61.6751 71.2289 61.4153 70.7665C61.1556 70.3041 61.551 69.5783 62.071 69.6818" fill="white"/>
</g>
<path d="M14.2023 35.6212C15.0768 34.1084 15.3943 32.3108 15.0948 30.5683C14.7953 28.8258 13.8995 27.2592 12.5768 26.1649C11.2542 25.0706 9.59644 24.5245 7.91715 24.6299C6.23785 24.7353 4.65346 25.4848 3.46368 26.7367C2.2739 27.9886 1.56123 29.6561 1.46048 31.4237C1.35972 33.1914 1.87787 34.9366 2.91691 36.3293C3.95596 37.722 5.44384 38.6655 7.09912 38.9815C8.7544 39.2974 10.4623 38.9639 11.8997 38.044L15.0886 38.7967L14.2023 35.6212Z" fill="#F70200"/>
<g opacity="0.5">
<path d="M7.62449 26.2147C9.37338 26.0358 11.1267 26.5089 12.548 27.5433C13.9692 28.5776 14.9582 30.1002 15.3251 31.8188C15.3261 31.5648 15.314 31.3109 15.2887 31.0581C15.1898 30.0948 14.8956 29.1618 14.4241 28.3159C13.9525 27.47 13.3135 26.729 12.546 26.1381C11.7785 25.5473 10.8986 25.1189 9.96 24.8792C9.02141 24.6395 8.04379 24.5935 7.08681 24.7439C6.12983 24.8943 5.21354 25.2381 4.39386 25.7542C3.57419 26.2704 2.8683 26.948 2.31928 27.7458C1.77026 28.5437 1.38962 29.445 1.20057 30.3947C1.01153 31.3444 1.01806 32.3227 1.21975 33.2699C1.22876 31.5113 1.88773 29.8181 3.06999 28.5158C4.25224 27.2134 5.87435 26.3939 7.62449 26.2147Z" fill="white"/>
</g>
<path d="M5.06824 31.4744C5.06847 32.0342 5.21529 32.5843 5.49429 33.0707C5.77329 33.5571 6.17488 33.9632 6.65965 34.2489V35.243C6.65951 35.2738 6.66553 35.3044 6.67735 35.3329C6.68917 35.3614 6.70657 35.3873 6.72853 35.4091C6.75049 35.4309 6.77658 35.4482 6.8053 35.4599C6.83402 35.4717 6.86479 35.4776 6.89585 35.4775H7.09311C7.12417 35.4776 7.15494 35.4717 7.18366 35.4599C7.21238 35.4482 7.23847 35.4309 7.26043 35.4091C7.28239 35.3873 7.29979 35.3614 7.31161 35.3329C7.32343 35.3044 7.32945 35.2738 7.32931 35.243V34.5542C7.39899 34.575 7.47175 34.5944 7.54246 34.6122V35.243C7.54259 35.3051 7.56752 35.3647 7.61179 35.4087C7.65605 35.4526 7.71606 35.4774 7.77866 35.4775H7.97592C8.00698 35.4776 8.03775 35.4717 8.06647 35.4599C8.09519 35.4482 8.12128 35.4309 8.14324 35.4091C8.1652 35.3873 8.18259 35.3614 8.19442 35.3329C8.20624 35.3044 8.21226 35.2738 8.21212 35.243V34.7037C8.25106 34.7037 8.29 34.7098 8.32843 34.7098C8.36685 34.7098 8.40477 34.7053 8.4432 34.7037V35.243C8.44313 35.2738 8.44919 35.3043 8.46104 35.3328C8.47289 35.3613 8.49028 35.3872 8.51223 35.409C8.53418 35.4307 8.56024 35.448 8.58893 35.4598C8.61762 35.4715 8.64836 35.4776 8.6794 35.4775H8.87666C8.90772 35.4776 8.93849 35.4717 8.96721 35.4599C8.99593 35.4482 9.02202 35.4309 9.04398 35.4091C9.06594 35.3873 9.08334 35.3614 9.09516 35.3329C9.10698 35.3044 9.113 35.2738 9.11286 35.243V34.6122C9.18562 34.5944 9.25684 34.575 9.32806 34.5542V35.243C9.32792 35.2738 9.33394 35.3044 9.34576 35.3329C9.35758 35.3614 9.37497 35.3873 9.39693 35.4091C9.41889 35.4309 9.44499 35.4482 9.47371 35.4599C9.50242 35.4717 9.5332 35.4776 9.56426 35.4775H9.76152C9.79255 35.4776 9.8233 35.4715 9.85199 35.4598C9.88067 35.448 9.90674 35.4307 9.92869 35.409C9.95063 35.3872 9.96803 35.3613 9.97988 35.3328C9.99172 35.3043 9.99779 35.2738 9.99772 35.243V34.2489C10.487 33.9587 10.891 33.546 11.1694 33.0523C11.4478 32.5585 11.5908 32.0008 11.5843 31.435C11.5778 30.8692 11.4219 30.3149 11.1321 29.8276C10.8424 29.3403 10.429 28.937 9.93315 28.6579C9.43733 28.3788 8.87646 28.2338 8.30652 28.2372C7.73659 28.2407 7.17754 28.3925 6.68518 28.6776C6.19282 28.9626 5.78439 29.3709 5.50066 29.8617C5.21693 30.3525 5.06783 30.9085 5.06824 31.4744ZM8.68452 31.8585C8.68462 31.6624 8.7433 31.4707 8.85314 31.3077C8.96297 31.1447 9.11903 31.0177 9.30157 30.9428C9.48411 30.8678 9.68493 30.8483 9.87863 30.8867C10.0723 30.9251 10.2502 31.0197 10.3898 31.1585C10.5294 31.2973 10.6243 31.474 10.6627 31.6664C10.7011 31.8588 10.6811 32.0581 10.6054 32.2393C10.5296 32.4204 10.4015 32.5751 10.2371 32.6839C10.0728 32.7927 9.87963 32.8507 9.6821 32.8505C9.55097 32.8505 9.42112 32.8248 9.29999 32.775C9.17886 32.7251 9.06882 32.652 8.97616 32.5599C8.88351 32.4677 8.81006 32.3584 8.76002 32.238C8.70997 32.1177 8.68432 31.9887 8.68452 31.8585ZM5.9741 31.8585C5.974 31.6622 6.03256 31.4702 6.14236 31.3069C6.25216 31.1436 6.40827 31.0163 6.59095 30.9411C6.77363 30.866 6.97466 30.8463 7.16862 30.8845C7.36258 30.9228 7.54074 31.0174 7.68057 31.1562C7.8204 31.295 7.91562 31.4719 7.95417 31.6645C7.99273 31.8571 7.97289 32.0567 7.89717 32.238C7.82144 32.4194 7.69324 32.5744 7.52877 32.6834C7.36431 32.7925 7.17097 32.8506 6.97322 32.8505C6.70824 32.8505 6.45411 32.746 6.26674 32.5599C6.07937 32.3739 5.9741 32.1216 5.9741 31.8585Z" fill="white"/>
<g opacity="0.25">
<path d="M13.339 35.7702C11.5876 37.4016 9.15998 38.0971 6.73564 37.4067C4.04737 36.6414 2.04971 34.3667 1.31201 31.624C1.29844 31.9923 1.31059 32.3612 1.34838 32.7278C1.75034 36.6432 4.94735 39.5243 8.48803 39.1603C9.44735 39.0614 10.3679 38.7294 11.1693 38.1931L14.1625 38.964L13.3036 35.8378C13.3171 35.8159 13.3269 35.7926 13.339 35.7702Z" fill="#390075"/>
</g>
<path d="M7.95859 39.8217C3.92888 39.8217 0.462003 36.9006 0.0416739 32.9954C-0.11925 31.4997 0.188123 29.9921 0.924921 28.6632C1.66172 27.3343 2.79485 26.2437 4.18101 25.5295C5.56716 24.8153 7.14409 24.5095 8.71236 24.6507C10.2806 24.7919 11.7698 25.3739 12.9915 26.3229C14.4466 27.4531 15.4369 29.0373 15.788 30.7962C16.139 32.5551 15.8283 34.3759 14.9105 35.9375L15.7713 38.7354C15.8033 38.8392 15.8063 38.9492 15.7801 39.0545C15.7539 39.1598 15.6993 39.2567 15.6217 39.3357C15.5442 39.4147 15.4464 39.4729 15.338 39.5047C15.2296 39.5364 15.1144 39.5406 15.0038 39.5168L11.8697 38.8463C10.9182 39.3597 9.86527 39.6788 8.77773 39.7834C8.50553 39.8092 8.23214 39.822 7.95859 39.8217ZM7.97676 25.8624C7.74534 25.8623 7.51407 25.8736 7.28387 25.8962C5.52689 26.0686 3.91356 26.8999 2.79859 28.2074C1.68361 29.5149 1.15826 31.1914 1.33805 32.8685C1.71295 36.3561 4.99142 38.9006 8.64527 38.5442C9.62939 38.4502 10.5788 38.1462 11.4231 37.6546C11.5677 37.5706 11.7409 37.5436 11.9061 37.5793L14.2114 38.0727L13.5797 36.0293C13.5541 35.9461 13.5471 35.8588 13.559 35.7728C13.5709 35.6869 13.6016 35.6043 13.6491 35.5304C14.264 34.5675 14.5996 33.4658 14.6214 32.3383C14.6433 31.2108 14.3505 30.098 13.7732 29.1141C13.196 28.1301 12.3549 27.3104 11.3363 26.739C10.3177 26.1676 9.15825 25.8651 7.97676 25.8624Z" fill="#000072"/>
</svg>
