<svg width="123" height="143" viewBox="0 0 123 143" fill="none" xmlns="http://www.w3.org/2000/svg">
<g clip-path="url(#clip0_402_1452)">
<path d="M30.0168 76.8401C30.0168 76.8401 40.7985 82.5914 50.7196 80.6949C62.3158 78.4791 59.254 69.2301 59.254 69.2301L33.996 56.2923L22.4402 63.9382" fill="#6E787A"/>
<path d="M38.3391 89.6601C38.3391 89.6601 25.7061 89.3626 20.6848 97.3195C16.7876 103.495 17.5554 115.787 17.5554 115.787C17.5554 115.787 14.3531 116.025 12.8518 118.128C11.7226 119.709 11.8323 121.256 12.2374 122.038C13.4928 124.467 17.9897 125.976 23.7584 125.88C26.0021 125.844 29.401 125.856 31.1584 123.76C33.3705 121.117 33.3622 114.318 33.8295 113.952C34.861 113.143 40.5695 111.547 54.6658 111.273C56.9 111.23 38.3391 89.6601 38.3391 89.6601Z" fill="#6E787A"/>
<path d="M33.8794 118.327C33.5286 120.32 32.958 122.483 31.8905 123.73C30.0681 125.857 26.5365 125.844 24.2073 125.881C18.2181 125.977 13.5519 124.449 12.2487 121.984C11.8275 121.189 11.7137 119.621 12.8865 118.019C14.4443 115.885 17.7686 115.643 17.7686 115.643C17.7686 115.643 17.764 115.559 17.7561 115.398C23.0852 115.69 29.8812 119.91 33.8794 118.327Z" fill="white"/>
<g opacity="0.3">
<path d="M54.6183 111.229C40.5986 111.5 34.9191 113.081 33.8943 113.885C33.4295 114.246 33.4358 120.987 31.2361 123.606C29.4899 125.686 26.1072 125.672 23.8747 125.709C18.1359 125.802 13.6641 124.307 12.416 121.899C12.114 121.317 11.9746 120.31 12.4015 119.182C13.4667 120.201 15.1934 121.166 17.9638 121.806C25.0956 123.453 29.9541 122.949 30.4655 119.182C30.9769 115.415 25.2312 100.525 32.6015 92.7489C34.2298 91.0317 38.025 92.1723 42.2836 94.3967C47.5696 100.685 56.1753 111.197 54.6183 111.229Z" fill="#000072"/>
</g>
<path d="M23.2521 126.838C17.3159 126.838 12.7988 125.184 11.3955 122.471C10.8475 121.412 10.6986 119.487 12.0816 117.552C13.2929 115.856 15.3627 115.199 16.5645 114.949C16.5035 112.895 16.5511 110.839 16.707 108.79C17.1106 103.534 18.1775 99.5028 19.8747 96.8095C21.1044 94.8616 22.8568 93.2223 25.0843 91.9379C26.8354 90.9277 28.8855 90.1341 31.1662 89.5785C35.0308 88.6401 38.2225 88.7043 38.3568 88.7074C38.4923 88.7106 38.6256 88.7422 38.7481 88.8002C38.8707 88.8581 38.9797 88.9412 39.0683 89.0439C39.1113 89.0941 43.4188 94.0997 47.5855 99.2311C50.0392 102.252 51.967 104.727 53.3158 106.588C54.1293 107.711 54.7444 108.628 55.1429 109.313C55.6897 110.252 55.9735 110.957 55.7011 111.567C55.6109 111.767 55.4656 111.936 55.2823 112.055C55.099 112.174 54.8855 112.238 54.6672 112.238C48.5814 112.357 43.3358 112.746 39.4965 113.363C36.6108 113.828 35.1454 114.322 34.6107 114.595C34.5474 114.917 34.465 115.539 34.3979 116.059C34.0741 118.565 33.585 122.354 31.9017 124.363C29.9169 126.733 26.3488 126.788 23.9876 126.825H23.7798C23.6062 126.837 23.4288 126.838 23.2521 126.838ZM37.895 90.6579C35.7679 90.7077 33.6522 90.9844 31.5837 91.4833C28.3223 92.2813 23.9287 94.0343 21.5181 97.8527C17.8392 103.68 18.5329 115.597 18.5405 115.717C18.5578 115.973 18.4731 116.226 18.305 116.42C18.1369 116.614 17.8991 116.734 17.6434 116.753C17.6181 116.753 14.8717 116.991 13.6597 118.687C12.7253 119.995 12.8995 121.151 13.1187 121.579C14.1887 123.647 18.4626 124.979 23.7538 124.892L23.9635 124.888C26.0916 124.855 29.0058 124.81 30.4205 123.121C31.7383 121.547 32.2014 117.96 32.4782 115.819C32.6981 114.121 32.7722 113.548 33.2353 113.185C34.681 112.052 40.8498 110.645 53.4881 110.328C53.141 109.731 52.484 108.722 51.2404 107.045C49.8599 105.181 47.9713 102.779 45.6279 99.9053C42.2518 95.7619 38.8852 91.816 37.895 90.6579Z" fill="#000072"/>
<path d="M25.3002 117.305C24.619 117.091 23.9247 116.922 23.2218 116.8C22.5281 116.675 21.8282 116.587 21.1252 116.537L20.8642 116.517L20.6025 116.506C20.4278 116.5 20.2545 116.488 20.0813 116.486C19.7333 116.486 19.3882 116.478 19.0432 116.497C18.3615 116.52 17.6815 116.582 17.0065 116.682H16.9861C16.6999 116.711 16.4137 116.627 16.1879 116.446C15.9622 116.265 15.8147 116.001 15.7767 115.712C15.7387 115.422 15.8132 115.129 15.9843 114.894C16.1555 114.659 16.4099 114.502 16.6936 114.454C16.7866 114.442 16.8806 114.442 16.9736 114.454C17.7236 114.539 18.4685 114.666 19.2048 114.834C19.5703 114.908 19.9299 115.014 20.2874 115.11C20.4665 115.159 20.6427 115.219 20.8196 115.272L21.0843 115.355L21.346 115.446C22.0399 115.683 22.7207 115.958 23.3856 116.269C24.0454 116.572 24.6849 116.918 25.3002 117.305Z" fill="#000072"/>
<path d="M21.4244 120.164C21.1504 120.341 20.9087 120.551 20.7073 120.789C20.5085 121.019 20.34 121.268 20.205 121.53C20.1387 121.659 20.0802 121.79 20.0298 121.924C19.9793 122.052 19.9408 122.182 19.9146 122.315C19.8624 122.583 19.8411 122.855 19.851 123.127C19.8582 123.387 19.9004 123.647 19.9768 123.899C20.0404 124.121 20.1511 124.33 20.3032 124.516C20.4237 124.662 20.5881 124.777 20.7787 124.848C20.9693 124.913 21.1727 124.946 21.3777 124.944C21.6655 124.952 21.9379 125.058 22.1364 125.237C22.3349 125.417 22.4437 125.656 22.4395 125.904C22.4354 126.152 22.3185 126.388 22.1141 126.563C21.9097 126.737 21.6339 126.836 21.346 126.837C21.2415 126.836 21.1377 126.822 21.0379 126.795L20.9284 126.766C20.456 126.643 20.019 126.436 19.6462 126.158C19.4591 126.014 19.2941 125.851 19.1552 125.671C19.0236 125.501 18.9159 125.317 18.8344 125.124C18.6912 124.773 18.6209 124.402 18.6267 124.03C18.6295 123.692 18.6769 123.355 18.768 123.026C18.8538 122.708 18.9764 122.398 19.134 122.1C19.1742 122.026 19.2173 121.951 19.2654 121.877L19.3021 121.821L19.3388 121.77C19.3643 121.736 19.3876 121.702 19.4137 121.669C19.5143 121.537 19.6228 121.409 19.7387 121.286C19.9668 121.043 20.2258 120.822 20.5109 120.629C20.7866 120.435 21.0946 120.279 21.4244 120.164Z" fill="#000072"/>
<path d="M17.106 118.258C16.8527 118.418 16.6202 118.617 16.415 118.848C16.2167 119.066 16.0501 119.318 15.9213 119.595C15.861 119.726 15.8122 119.864 15.7754 120.006L15.7508 120.111C15.7446 120.143 15.7388 120.175 15.7337 120.21C15.7234 120.279 15.716 120.35 15.7108 120.423C15.6929 120.722 15.7025 121.022 15.7394 121.319C15.8038 121.898 15.9676 122.458 16.2216 122.968C16.3372 123.196 16.4807 123.404 16.6478 123.587C16.7984 123.752 16.9723 123.888 17.1626 123.989C17.2774 124.049 17.3793 124.136 17.4615 124.244C17.5437 124.352 17.6044 124.479 17.6393 124.615C17.6743 124.751 17.6828 124.895 17.6643 125.035C17.6457 125.175 17.6006 125.31 17.5318 125.429C17.4631 125.548 17.3723 125.65 17.2657 125.726C17.1591 125.803 17.039 125.853 16.9135 125.874C16.7881 125.894 16.6602 125.885 16.5384 125.845C16.4166 125.806 16.3037 125.738 16.2073 125.646L16.1501 125.588C15.861 125.31 15.6134 124.981 15.4168 124.616C15.2331 124.272 15.0914 123.903 14.9952 123.518C14.8215 122.802 14.772 122.055 14.8493 121.318C14.8833 120.959 14.9512 120.604 15.0518 120.26C15.0782 120.172 15.109 120.085 15.1422 119.997C15.1594 119.955 15.1784 119.911 15.1994 119.865C15.2194 119.823 15.2406 119.784 15.2612 119.743C15.3453 119.587 15.4426 119.439 15.5518 119.303C15.7625 119.043 16.0082 118.821 16.28 118.646C16.5384 118.475 16.8163 118.345 17.106 118.258Z" fill="#000072"/>
<g opacity="0.3">
<path d="M85.2972 63.7114C82.3597 68.8402 76.3718 73.0616 68.7033 75.516L66.1429 70.0639C66.1429 70.0639 74.104 66.9308 83.4324 64.2375C84.0486 64.0592 84.6691 63.8853 85.2972 63.7114Z" fill="#000072"/>
</g>
<g opacity="0.3">
<path d="M76.3449 72.1721C73.6779 73.7197 70.613 75.0008 67.2599 75.953C66.7749 73.663 67.1539 71.2344 69.1682 68.5096C66.1411 65.8069 50.9825 67.4844 48.1346 67.991C45.2866 68.4977 45.5988 71.6932 44.6661 75.7892C44.5611 76.2392 44.4098 76.6772 44.2145 77.0961C43.396 76.9604 42.59 76.8026 41.7967 76.6228C41.8086 76.5894 41.8213 76.5554 41.8332 76.5214C42.0748 75.8118 41.9152 75.0008 42.0672 74.2869C42.0672 74.2869 43.5265 63.4596 61.2215 64.7262C72.1946 65.5108 75.9438 67.3571 76.1922 70.4272C76.2313 70.9206 76.2868 71.535 76.3449 72.1721Z" fill="#000072"/>
</g>
<path d="M74.8717 73.3078C68.9289 76.3744 61.3092 78.2181 53.0049 78.2181C49.1382 78.2271 45.2821 77.813 41.5056 76.9831C41.7671 76.2449 41.9813 75.4908 42.1468 74.7254C42.1468 74.7254 43.2532 63.6983 61.1056 64.9747C72.4255 65.7855 74.7133 70.1922 74.8717 73.3078Z" fill="#E2E2E2"/>
<g opacity="0.3">
<path d="M29.861 76.6503C29.861 76.6503 40.771 82.3928 50.8101 80.4992C62.5444 78.2868 59.4461 69.0519 59.4461 69.0519L33.8876 56.1338L22.1943 63.7681" fill="#000072"/>
</g>
<path d="M72.4533 65.7898C71.3479 68.6193 71.071 71.5746 71.242 74.5846C65.8761 76.8778 59.3627 78.2189 52.3407 78.2189C49.3482 78.2229 46.361 77.9723 43.4131 77.4701C44.9774 71.6349 43.7887 66.7436 43.7887 66.7436L44.9129 47.7128C44.9129 47.7128 77.4005 53.1436 72.4533 65.7898Z" fill="#E2E2E2"/>
<g opacity="0.3">
<path d="M82.8453 64.4047C80.3045 69.0312 75.2102 72.9029 68.6257 75.3504L66.1429 70.0622C66.1429 70.0622 73.773 67.0595 82.8453 64.4047Z" fill="#000072"/>
</g>
<g opacity="0.3">
<path d="M74.8115 72.3701C68.9661 75.9619 60.9835 78.1719 52.1842 78.1719C48.6402 78.1795 45.1055 77.8081 41.6406 77.0641C41.9675 76.1915 42.2316 75.2967 42.4308 74.3865C42.4308 74.3865 43.5275 63.4603 61.2238 64.7251C71.7226 65.4749 74.3845 69.3453 74.8115 72.3701Z" fill="#000072"/>
</g>
<path d="M46.514 81.0785C42.6885 81.0785 39.0494 80.2923 36.3705 79.5104C32.3936 78.3475 29.6848 76.9704 29.5714 76.9148C29.3474 76.8003 29.1794 76.6041 29.1044 76.3694C29.0295 76.1347 29.0536 75.8807 29.1716 75.6633C29.2896 75.4459 29.4918 75.2829 29.7337 75.2101C29.9755 75.1374 30.2372 75.1608 30.4612 75.2753C30.5061 75.2977 33.1632 76.6409 36.9606 77.7475C40.4383 78.7611 45.6173 79.7795 50.5394 78.8784C54.0751 78.2307 56.4917 76.8767 57.7224 74.855C59.031 72.7052 58.6478 70.3194 58.4384 69.4431L34.0561 57.4758L22.9642 64.5078C22.7522 64.6422 22.4938 64.6893 22.246 64.6389C21.9981 64.5884 21.781 64.4444 21.6426 64.2387C21.5041 64.0329 21.4555 63.7821 21.5075 63.5416C21.5595 63.301 21.7078 63.0904 21.9198 62.956L33.9359 55.3392L60.0317 68.1478L60.1564 68.5106C60.2106 68.6666 61.4481 72.358 59.3818 75.7779C57.8626 78.2918 55.0074 79.9506 50.8953 80.7017C49.45 80.959 47.9833 81.0851 46.514 81.0785Z" fill="#000072"/>
<path d="M85.9309 117.824C69.6446 114.712 65.3392 98.5061 65.3392 98.5061L69.4293 96.1618C72.2517 99.7514 75.3431 101.732 78.2977 102.588C79.0824 102.817 79.8872 102.972 80.7015 103.051C83.514 103.321 86.0813 102.628 88.0047 101.433C90.0915 100.143 91.4248 98.2659 91.504 96.4008C91.5626 94.9878 90.7553 93.9385 89.4826 94.1553C87.1231 94.5559 88.1388 97.4329 86.5429 97.7929C85.1305 98.1099 82.6025 96.8099 82.0048 94.425C81.9362 94.1535 81.8801 93.8826 81.8345 93.6117C81.789 93.3512 81.7559 93.0938 81.7303 92.8357C80.958 84.8493 89.5862 78.3877 99.7217 82.2076C106.355 84.7074 109.392 91.4228 109.182 98.398C108.853 109.218 100.679 120.645 85.9309 117.824Z" fill="#6E787A"/>
<g opacity="0.3">
<path d="M85.5954 118.238C69.1327 115.047 64.7806 98.4231 64.7806 98.4231L68.9151 96.0185C71.7681 99.7005 74.8929 101.732 77.8796 102.61C78.6727 102.845 79.4863 103.004 80.3094 103.085C82.2386 105.897 86.3812 110.017 94.0901 110.002C103.497 109.986 107.447 103.444 109.099 98.3116C108.766 109.41 100.504 121.131 85.5954 118.238Z" fill="#000072"/>
</g>
<path d="M108.434 103.703C106.07 112.562 98.3243 120.176 85.936 117.827C69.6456 114.74 65.3392 98.6581 65.3392 98.6581L69.4303 96.3318C72.2535 99.8938 75.3455 101.859 78.3009 102.708C80.2111 106.018 82.9812 111.587 91.7045 111.823C95.7121 111.929 98.6407 110.671 100.639 108.667C105.552 106.601 107.988 102.209 109.192 98.5551C109.192 98.588 109.192 98.6203 109.192 98.6532C109.189 98.7928 109.182 98.9337 109.173 99.0739C109.162 99.272 109.149 99.4695 109.132 99.6689C109.125 99.7719 109.116 99.8737 109.105 99.9737C109.09 100.146 109.07 100.319 109.051 100.489C109.027 100.694 108.999 100.898 108.968 101.099C108.968 101.117 108.966 101.136 108.962 101.153C108.937 101.336 108.907 101.514 108.875 101.692L108.86 101.779C108.823 101.994 108.781 102.21 108.735 102.422C108.689 102.635 108.645 102.849 108.593 103.063C108.541 103.277 108.49 103.492 108.434 103.703Z" fill="#F9D3B7"/>
<path d="M85.9302 117.824C69.6444 114.713 65.3392 98.507 65.3392 98.507L69.4292 96.1627C72.2515 99.7522 75.3427 101.733 78.2973 102.588C80.2069 105.924 82.9762 111.537 91.6965 111.772C106.154 112.162 106.557 94.6417 99.9795 88.5778C94.6037 83.6221 82.7298 84.7543 81.8346 93.6103C80.4053 85.2709 89.2585 78.2647 99.7212 82.2086C116.651 88.5889 110.178 122.461 85.9302 117.824Z" fill="white"/>
<path d="M108.434 103.703C106.07 112.562 98.3243 120.176 85.936 117.827C69.6456 114.74 65.3392 98.6581 65.3392 98.6581L69.4303 96.3318C72.2535 99.8938 75.3455 101.859 78.3009 102.708C80.2111 106.018 82.9812 111.587 91.7045 111.823C95.7121 111.929 98.6407 110.671 100.639 108.667C105.552 106.601 107.988 102.209 109.192 98.5551C109.192 98.588 109.192 98.6203 109.192 98.6532C109.189 98.7928 109.182 98.9337 109.173 99.0739C109.162 99.272 109.149 99.4695 109.132 99.6689C109.125 99.7719 109.116 99.8737 109.105 99.9737C109.09 100.146 109.07 100.319 109.051 100.489C109.027 100.694 108.999 100.898 108.968 101.099C108.968 101.117 108.966 101.136 108.962 101.153C108.937 101.336 108.907 101.514 108.875 101.692L108.86 101.779C108.823 101.994 108.781 102.21 108.735 102.422C108.689 102.635 108.645 102.849 108.593 103.063C108.541 103.277 108.49 103.492 108.434 103.703Z" fill="#E2E2E2"/>
<path d="M90.4374 120.165C88.8389 120.16 87.2445 120.007 85.6762 119.706C81.6609 118.95 77.9908 117.399 74.7682 115.095C72.197 113.255 69.9068 110.938 67.9626 108.207C64.6592 103.567 63.5044 99.3717 63.4563 99.1933C63.4014 98.9545 63.4441 98.7043 63.5756 98.4954C63.707 98.2865 63.9169 98.1352 64.161 98.0731C64.4052 98.0111 64.6647 98.0433 64.8849 98.1628C65.1052 98.2824 65.269 98.48 65.342 98.7142C65.3628 98.7911 66.4923 102.832 69.6045 107.184C73.7557 112.988 79.2874 116.575 86.0462 117.848C98.7835 120.243 105.947 112.134 108.212 104.46C110.567 96.4836 108.45 86.2916 99.8889 83.1149C94.6524 81.1723 89.4009 81.8316 85.8434 84.8798C82.9738 87.3379 81.8065 90.9483 82.7221 94.5423C83.0251 95.7323 83.8809 96.437 84.364 96.7483C85.1372 97.2526 85.8863 97.3868 86.2862 97.2986C86.4416 97.2639 86.5463 96.9834 86.7245 96.3683C86.9924 95.4392 87.4397 93.8836 89.4016 93.5571C90.2306 93.4185 91.0149 93.6201 91.6124 94.1282C92.3206 94.732 92.6997 95.7172 92.6529 96.8322C92.5878 98.3235 91.8524 99.8576 90.5805 101.159C89.3307 102.436 87.6543 103.424 85.7393 104.016C82.964 104.872 79.9637 104.823 77.0623 103.871C73.6666 102.756 70.5837 100.487 67.9001 97.1265C67.7418 96.9282 67.6713 96.677 67.704 96.4282C67.7367 96.1795 67.8701 95.9535 68.0747 95.8C68.2793 95.6466 68.5385 95.5782 68.7951 95.6099C69.0518 95.6417 69.2849 95.7709 69.4432 95.9693C73.8923 101.543 79.7628 103.878 85.1476 102.215C86.729 101.726 88.1557 100.891 89.1649 99.8589C90.1123 98.8914 90.6605 97.789 90.7034 96.7546C90.7261 96.2296 90.5811 95.7676 90.3256 95.5495C90.2306 95.4688 90.0655 95.3667 89.7404 95.4234C89.0563 95.5375 88.895 95.893 88.6115 96.8801C88.3716 97.7127 88.0425 98.8535 86.7257 99.1447C86.4972 99.1943 86.2636 99.2188 86.0293 99.2179C84.0168 99.2179 81.4821 97.5501 80.8325 94.9948C79.742 90.7044 81.1348 86.3931 84.5584 83.4603C86.4865 81.8095 88.9256 80.7204 91.6111 80.3088C94.4775 79.8676 97.5844 80.2294 100.595 81.3463C102.84 82.1718 104.848 83.5061 106.453 85.2378C107.957 86.8576 109.123 88.8141 109.917 91.0523C111.428 95.3087 111.492 100.255 110.098 104.978C108.644 109.901 105.71 114.084 101.836 116.754C98.5546 119.015 94.6784 120.165 90.4374 120.165Z" fill="#000072"/>
<path d="M104.585 74.3684C102.753 75.1687 100.744 75.9217 98.653 76.6269C90.3403 79.4286 80.7248 81.4369 75.7657 82.3828C73.6795 82.776 72.4158 82.9858 72.4158 82.9858L70.0008 77.7555L66.2923 69.7279C66.2923 69.7279 74.123 66.5948 83.3005 63.9015C88.5183 62.3727 94.174 60.987 99.0723 60.4016C102.272 60.0172 105.148 59.9775 107.365 60.4646C109.818 60.999 111.437 62.5876 111.909 64.5764C112.643 67.6711 110.602 71.7388 104.585 74.3684Z" fill="white"/>
<path d="M104.585 74.3684C102.753 75.1687 100.744 75.9217 98.653 76.6269C90.3403 79.4286 80.7248 81.4369 75.7657 82.3828C73.6795 82.776 72.4158 82.9858 72.4158 82.9858L70.0008 77.7555L66.2923 69.7279C66.2923 69.7279 74.123 66.5948 83.3005 63.9015C88.5183 62.3727 94.174 60.987 99.0723 60.4016C102.272 60.0172 105.148 59.9775 107.365 60.4646C109.818 60.999 111.437 62.5876 111.909 64.5764C112.643 67.6711 110.602 71.7388 104.585 74.3684Z" fill="#6E787A"/>
<g opacity="0.3">
<path d="M82.8453 64.4047C80.3045 69.0312 75.2102 72.9029 68.6257 75.3504L66.1429 70.0622C66.1429 70.0622 73.773 67.0595 82.8453 64.4047Z" fill="#000072"/>
</g>
<g opacity="0.3">
<path d="M105.071 74.6998C103.211 75.4989 101.168 76.2519 99.0417 76.957C90.5911 79.7587 80.8162 81.767 75.7743 82.7128C73.6535 83.1067 72.3689 83.3165 72.3689 83.3165L71.8379 82.1822C72.2793 82.1073 73.4145 81.9119 75.0308 81.6151C80.0759 80.6699 101.224 74.386 104.463 72.5687C109.728 69.607 111.728 66.7013 110.984 63.6098C110.823 62.9343 110.614 62.3256 110.315 61.7994C111.455 62.5719 112.216 63.6627 112.518 64.9104C113.261 68.0026 111.188 72.0696 105.071 74.6998Z" fill="#000072"/>
</g>
<path d="M66.6383 79.6552C63.6778 80.5282 60.6244 81.0031 57.5507 81.0688C53.0132 81.1775 48.7311 80.4317 44.9811 79.0307C45.7891 76.3679 45.9308 73.5861 44.7623 70.5318C41.3249 61.5309 61.3965 60.1062 61.3965 60.1062L71.5699 65.3085L72.0125 67.9117C72.0125 67.9117 68.3911 71.5794 66.6383 79.6552Z" fill="#F9D3B7"/>
<path d="M72.4119 83.9378C72.1732 83.9374 71.9435 83.8459 71.7682 83.6815C71.593 83.517 71.4852 83.2917 71.4661 83.0503C71.447 82.8089 71.5181 82.569 71.6653 82.3784C71.8125 82.1877 72.0249 82.0602 72.2605 82.0212C72.4596 81.9885 92.2843 78.6809 104.208 73.4756C109.622 71.1126 111.309 67.7459 111.083 65.3885C110.897 63.4259 109.395 61.9034 107.167 61.416C95.9914 58.9686 66.9303 70.5075 66.6381 70.6246C66.522 70.671 66.398 70.6938 66.2731 70.6916C66.1483 70.6894 66.0252 70.6622 65.9107 70.6117C65.7962 70.5612 65.6927 70.4883 65.606 70.3972C65.5192 70.306 65.4511 70.1985 65.4053 70.0806C65.3596 69.9627 65.3371 69.8369 65.3393 69.7102C65.3415 69.5835 65.3682 69.4586 65.418 69.3424C65.4678 69.2262 65.5396 69.1211 65.6294 69.0331C65.7192 68.9451 65.8252 68.8759 65.9414 68.8295C66.0152 68.7999 73.4542 65.8355 82.2147 63.2256C94.0749 59.6883 102.605 58.446 107.567 59.5321C110.632 60.2033 112.705 62.3769 112.975 65.204C113.15 67.03 112.555 68.9025 111.255 70.624C109.851 72.4833 107.732 74.0398 104.959 75.2506C98.6041 78.0248 90.1308 80.2368 84.1418 81.6037C77.6682 83.0821 72.616 83.9196 72.5657 83.9278C72.5148 83.9354 72.4633 83.9388 72.4119 83.9378Z" fill="#000072"/>
<path d="M74.9213 76.3372C79.9433 86.6814 80.0697 97.0219 79.2743 102.743C78.4789 108.465 75.6387 115.8 71.0302 117.564C58.4809 122.368 34.0266 116.602 32.0746 101.056C30.8916 91.625 40.3794 83.2631 42.2714 74.6126C42.2714 74.6126 43.3925 63.7101 61.4947 64.9738C79.5969 66.2375 74.9213 76.3372 74.9213 76.3372Z" fill="#6E787A"/>
<path d="M74.9213 76.3372C79.9433 86.6814 80.0697 97.0219 79.2743 102.743C78.4789 108.465 75.6387 115.8 71.0302 117.564C58.4809 122.368 34.0266 116.602 32.0746 101.056C30.8916 91.625 40.3794 83.2631 42.2714 74.6126C42.2714 74.6126 43.3925 63.7101 61.4947 64.9738C79.5969 66.2375 74.9213 76.3372 74.9213 76.3372Z" fill="#6E787A"/>
<g opacity="0.3">
<path d="M74.8115 72.3701C68.9661 75.9619 60.9835 78.1719 52.1842 78.1719C48.6402 78.1795 45.1055 77.8081 41.6406 77.0641C41.9675 76.1915 42.2316 75.2967 42.4308 74.3865C42.4308 74.3865 43.5275 63.4603 61.2238 64.7251C71.7226 65.4749 74.3845 69.3453 74.8115 72.3701Z" fill="#000072"/>
</g>
<path d="M43.5778 66.5417C43.5778 66.5417 45.1181 72.9949 42.3044 79.8867C39.4299 86.9297 34.1598 91.3391 34.9034 99.2314C36.0319 111.23 64.0562 119.67 72.3067 103.941C77.9367 93.2037 66.6241 78.1129 71.429 65.5991C76.2339 53.0853 44.6705 47.7128 44.6705 47.7128" fill="white"/>
<g opacity="0.3">
<path d="M71.8367 65.7157C70.7564 68.5514 70.4859 71.5131 70.653 74.5296C65.4093 76.8278 59.0442 78.1719 52.1823 78.1719C49.2579 78.1758 46.3387 77.9247 43.458 77.4214C44.9867 71.5736 43.8251 66.6716 43.8251 66.6716L44.9236 47.5995C44.9236 47.5995 76.6712 53.0421 71.8367 65.7157Z" fill="#000072"/>
</g>
<path d="M76.5942 81.0421C76.7346 81.305 76.8652 81.573 76.9908 81.8429C77.1164 82.1127 77.2308 82.387 77.3416 82.6645C77.4523 82.9419 77.5581 83.2181 77.6571 83.4988C77.7561 83.7794 77.8539 84.06 77.9399 84.3444C78.2931 85.4806 78.574 86.639 78.7807 87.8123C78.996 88.9837 79.1702 90.1618 79.3035 91.3466C79.4371 92.5304 79.5336 93.7192 79.5856 94.9106C79.7004 97.3004 79.6293 99.6957 79.3728 102.074C79.3066 102.671 79.2243 103.275 79.1253 103.867C79.0263 104.459 78.9094 105.054 78.7782 105.642C78.5158 106.819 78.1879 107.98 77.7963 109.119C77.404 110.269 76.9345 111.39 76.3913 112.474C75.8406 113.584 75.1754 114.632 74.4071 115.598C74.0082 116.095 73.5693 116.556 73.0949 116.978C72.6055 117.415 72.0687 117.794 71.4949 118.107C71.3483 118.186 71.1992 118.26 71.0464 118.329C70.9709 118.365 70.8923 118.392 70.8156 118.429L70.7574 118.453L70.7048 118.474L70.599 118.515C70.3169 118.625 70.0329 118.728 69.7477 118.825C69.1773 119.017 68.6017 119.186 68.0209 119.33C65.7008 119.91 63.3343 120.149 60.9814 120.164C58.6306 120.173 56.2839 119.965 53.9698 119.542C51.6551 119.125 49.3825 118.493 47.1802 117.655C46.0763 117.232 44.9948 116.751 43.9401 116.213C42.8799 115.674 41.8528 115.07 40.8646 114.403C39.8698 113.732 38.9242 112.989 38.0353 112.178C37.1391 111.36 36.3149 110.463 35.5723 109.498C35.201 109.012 34.8515 108.509 34.5279 107.986C34.204 107.462 33.9073 106.922 33.6388 106.366C33.0998 105.251 32.6848 104.078 32.4014 102.868C32.2616 102.264 32.154 101.652 32.0791 101.036C32.004 100.414 31.9687 99.7875 31.9733 99.161C31.9861 97.9189 32.1345 96.6822 32.4157 95.4737C32.6936 94.2876 33.0563 93.1239 33.5009 91.9919C33.9339 90.8675 34.4289 89.7798 34.9486 88.7136C35.4683 87.6474 36.0233 86.6096 36.5882 85.5857C37.153 84.5618 37.7334 83.5563 38.3044 82.552L41.6738 76.5579C41.7301 76.4584 41.8187 76.3823 41.9242 76.3425C42.0297 76.3027 42.1455 76.3019 42.2515 76.3402C42.3575 76.3784 42.4471 76.4534 42.5048 76.552C42.5624 76.6506 42.5845 76.7667 42.5672 76.8802C42.4681 77.4758 42.3282 78.0636 42.1484 78.6391C41.972 79.213 41.7679 79.7768 41.5427 80.3273C41.3175 80.8778 41.0743 81.4207 40.8151 81.9509C40.5558 82.4812 40.2873 83.0051 40.0139 83.524C39.4688 84.5625 38.9052 85.5819 38.3434 86.5944C37.7816 87.6069 37.2297 88.6131 36.7045 89.6281C36.1792 90.6432 35.6941 91.6696 35.2747 92.7156C34.8541 93.7494 34.5158 94.8161 34.2631 95.9054C34.0158 96.974 33.8861 98.0674 33.8764 99.1654C33.8729 99.7084 33.9046 100.251 33.9711 100.79C34.0384 101.334 34.1344 101.874 34.2588 102.408C34.3844 102.94 34.5389 103.465 34.7215 103.98C34.9052 104.496 35.1165 105 35.3545 105.492C35.5936 105.985 35.8579 106.464 36.1464 106.928C36.4353 107.393 36.7496 107.842 37.0825 108.279C38.4207 110.02 40.0931 111.502 41.93 112.744C43.7669 113.986 45.7764 114.982 47.8608 115.773C52.0562 117.343 56.4934 118.132 60.9616 118.102C62.0708 118.093 63.1788 118.024 64.2809 117.896C65.3751 117.771 66.4602 117.574 67.5297 117.306C68.0612 117.172 68.5864 117.018 69.1012 116.843C69.3592 116.755 69.6147 116.662 69.8665 116.563L69.9612 116.526L70.0082 116.507L70.0496 116.489C70.1041 116.465 70.1598 116.444 70.2136 116.418C70.3225 116.368 70.4301 116.314 70.5372 116.257C70.9729 116.017 71.3803 115.727 71.7517 115.392C72.1397 115.044 72.4987 114.663 72.8251 114.254C73.4945 113.428 74.0693 112.49 74.5698 111.504C75.0701 110.507 75.5026 109.475 75.8641 108.416C76.2305 107.349 76.5403 106.263 76.7922 105.162C76.9184 104.612 77.0296 104.058 77.1257 103.5C77.2222 102.944 77.3007 102.387 77.3663 101.823C77.6189 99.552 77.7016 97.2646 77.6138 94.9808C77.5755 93.8362 77.4938 92.6922 77.3769 91.5527C77.2599 90.4131 77.1034 89.2774 76.9073 88.1479C76.7111 87.0185 76.494 85.8948 76.2842 84.7647L76.1277 83.9159C76.077 83.6315 76.0213 83.3471 75.9736 83.0633C75.926 82.7795 75.8709 82.4945 75.8258 82.2056C75.7806 81.9168 75.7286 81.6311 75.6934 81.3385V81.3278C75.6795 81.2141 75.7048 81.0991 75.7651 81.0026C75.8253 80.906 75.9167 80.8339 76.0233 80.7988C76.13 80.7637 76.2454 80.7677 76.3495 80.8101C76.4536 80.8526 76.5399 80.9308 76.5936 81.0313L76.5942 81.0421Z" fill="#000072"/>
<path d="M45.3195 17.6194C40.2889 14.4335 30.5058 6.51396 27.3524 7.81665C22.5376 9.80578 23.4507 25.7845 30.4989 37.2261" fill="#6E787A"/>
<g opacity="0.7">
<path d="M24.4734 12.1467C24.9722 10.8864 25.6861 10.0042 26.6087 9.62988C29.6534 8.38974 38.862 15.6012 44.0357 18.9467L45.1362 17.5112C40.0968 14.3655 30.291 6.54213 27.1334 7.83016C25.8172 8.36642 24.9287 9.92668 24.4734 12.1467Z" fill="white"/>
</g>
<g opacity="0.3">
<path d="M30.0929 36.5708C32.2017 32.9241 35.9029 25.5822 34.7873 20.6727C33.5216 15.104 28.2337 9.79565 25.0541 10.2166C22.8809 15.4097 24.4922 27.392 30.0929 36.5708Z" fill="#000072"/>
</g>
<path d="M30.5059 38.1758C30.3397 38.1761 30.1762 38.1334 30.0308 38.0518C29.8855 37.9702 29.763 37.8524 29.6751 37.7095C27.0636 33.4683 25.0768 28.2486 24.0809 23.0124C23.1522 18.128 23.1648 13.6184 24.1161 10.6396C24.7296 8.71812 25.6997 7.47174 26.9995 6.93475C29.6877 5.82452 34.7752 9.14949 41.6686 13.9671C43.2033 15.0398 44.6532 16.0526 45.8129 16.7881C45.9219 16.8571 46.0164 16.9471 46.091 17.0531C46.1657 17.1591 46.219 17.2789 46.2479 17.4058C46.2768 17.5326 46.2808 17.664 46.2596 17.7924C46.2384 17.9208 46.1925 18.0437 46.1244 18.1541C46.0563 18.2645 45.9675 18.3603 45.8629 18.4359C45.7583 18.5115 45.64 18.5655 45.5148 18.5948C45.3896 18.6241 45.26 18.6282 45.1332 18.6067C45.0065 18.5852 44.8852 18.5387 44.7762 18.4697C43.5763 17.71 42.1088 16.6844 40.5553 15.599C38.0574 13.8538 35.2267 11.8751 32.7652 10.4837C29.2676 8.50689 28.0827 8.62714 27.7355 8.77093C26.8137 9.15267 26.2692 10.3291 25.9773 11.2522C25.1245 13.9244 25.1333 18.0733 26.0017 22.6409C26.9531 27.6442 28.8469 32.624 31.3348 36.6635C31.4272 36.8135 31.4783 36.9859 31.4828 37.1627C31.4874 37.3395 31.4451 37.5143 31.3605 37.669C31.2759 37.8237 31.1519 37.9526 31.0016 38.0424C30.8512 38.1322 30.6798 38.1796 30.5053 38.1796L30.5059 38.1758Z" fill="#000072"/>
<path d="M31.0413 30.606C30.9699 30.5746 30.891 30.5653 30.8144 30.5791C30.7681 30.587 30.7239 30.6044 30.6844 30.6304C30.6694 30.6394 30.6556 30.6504 30.6435 30.6633C30.6627 30.6369 30.6799 30.6092 30.6953 30.5803C30.7404 30.5004 30.7886 30.3973 30.8349 30.2997C30.9282 30.096 31.0209 29.8807 31.1141 29.6653C31.3013 29.2341 31.4897 28.7967 31.6907 28.3654C32.0897 27.501 32.5248 26.6507 32.9973 25.8211C33.4697 24.9915 33.9758 24.1796 34.5235 23.3969C34.7967 23.0047 35.076 22.6167 35.366 22.2379L35.5845 21.9536L35.6952 21.8127L35.7428 21.7517C35.7566 21.7322 35.7723 21.7133 35.7855 21.6907C35.8945 21.5409 35.9872 21.3796 36.0617 21.2094C36.2014 20.893 36.2544 20.5443 36.2152 20.1999C36.1667 19.8323 36.0495 19.4774 35.8698 19.1543C35.6754 18.7942 35.4425 18.4569 35.1753 18.1484C34.8947 17.8232 34.5949 17.5156 34.2773 17.2273C33.6187 16.6356 32.9178 16.0939 32.1806 15.6066C31.8105 15.3571 31.4295 15.1216 31.0455 14.8922C30.6616 14.6629 30.2698 14.4475 29.8744 14.2401C29.479 14.0327 29.0782 13.8375 28.6828 13.6667C28.4842 13.5826 28.2868 13.5002 28.0978 13.4343C28.0039 13.4014 27.9118 13.3733 27.8318 13.3501C27.7921 13.3392 27.7566 13.3306 27.7307 13.3257C27.7048 13.3209 27.6861 13.3209 27.7265 13.3203H27.7487H27.7626L27.7945 13.316C27.8689 13.3053 27.9413 13.2835 28.0093 13.2513C28.0582 13.2284 28.1043 13.1998 28.1465 13.1659C28.1726 13.1456 28.1967 13.1229 28.2188 13.0982C28.2389 13.0769 28.2568 13.0536 28.2723 13.0287C28.2789 13.0171 28.2789 13.0146 28.2777 13.0165C28.2526 13.0704 28.2324 13.1265 28.2176 13.1842C28.1673 13.3754 28.1288 13.5696 28.102 13.7656C28.0418 14.1883 27.9979 14.6379 27.9696 15.0899C27.9094 15.9957 27.8902 16.9199 27.8992 17.8428C27.9082 18.7658 27.9347 19.6936 27.9949 20.6165C28.1086 22.4661 28.3199 24.3168 28.7243 26.1114C28.8278 26.5586 28.9416 27.0027 29.0788 27.437C29.2102 27.8687 29.3668 28.2922 29.5476 28.7052C29.72 29.1055 29.9336 29.4862 30.1849 29.841C30.4305 30.1777 30.7236 30.4632 31.0413 30.606ZM30.6694 31.46C30.4133 31.3434 30.1769 31.1868 29.9689 30.9957C29.7736 30.818 29.596 30.6212 29.4387 30.4083C29.1426 30.0032 28.8881 29.5684 28.6792 29.1108C28.2627 28.219 27.9642 27.2991 27.7066 26.3737C27.449 25.4484 27.2396 24.5151 27.0651 23.5763C26.8905 22.6375 26.7377 21.6956 26.6173 20.7495C26.3766 18.8548 26.2279 16.9547 26.2562 15.0118C26.2682 14.5238 26.2875 14.0358 26.3471 13.5258C26.3766 13.255 26.4224 12.9863 26.4843 12.7212C26.5018 12.648 26.5222 12.573 26.5481 12.4919C26.5771 12.4003 26.6117 12.3107 26.6516 12.2235C26.6778 12.1662 26.7074 12.1106 26.7401 12.0569C26.7856 11.9816 26.8382 11.9109 26.8972 11.8459C26.939 11.7999 26.9845 11.7575 27.0332 11.719C27.1804 11.6007 27.3558 11.5239 27.5417 11.4963C27.5754 11.4915 27.5838 11.4915 27.5953 11.4902H27.6308C27.6555 11.4902 27.6789 11.4872 27.6964 11.4872C27.8109 11.4862 27.9254 11.4958 28.0382 11.5159C28.1267 11.5311 28.2043 11.5482 28.2789 11.5659C28.424 11.6019 28.5534 11.6421 28.6798 11.6836C28.9307 11.7672 29.1654 11.8562 29.3941 11.9532C29.8515 12.1466 30.2896 12.3571 30.7181 12.5803C31.5753 13.0284 32.4031 13.5319 33.1965 14.0876C33.5949 14.3652 33.9818 14.661 34.3604 14.9709C34.7389 15.2808 35.1061 15.612 35.4593 15.9634C35.8182 16.3192 36.1518 16.7002 36.4577 17.1035C36.7796 17.5224 37.0547 17.9762 37.278 18.4565C37.521 18.9726 37.6609 19.5324 37.6897 20.1035C37.7083 20.5536 37.6377 21.0028 37.4821 21.4248C37.4301 21.5624 37.3698 21.6967 37.3015 21.8268C37.1702 22.0784 37.0124 22.3148 36.8309 22.5319C36.8092 22.5588 36.7863 22.5844 36.7641 22.6106L36.7003 22.6832L36.5859 22.8113L36.3584 23.0681C36.0575 23.4134 35.7638 23.7641 35.481 24.1247C34.914 24.8459 34.3839 25.5962 33.8928 26.3725C33.4022 27.1517 32.9538 27.9572 32.5495 28.7857C32.3473 29.2011 32.1529 29.6208 31.9639 30.0484C31.8688 30.2631 31.7749 30.4754 31.6714 30.6999C31.6191 30.8115 31.5655 30.9232 31.4957 31.0476C31.4545 31.1214 31.4076 31.1917 31.3555 31.2581C31.3079 31.3175 31.2519 31.3695 31.1894 31.4124C31.1258 31.4548 31.0547 31.484 30.9799 31.4984C30.8751 31.5172 30.767 31.5043 30.6694 31.4612V31.46Z" fill="#000072"/>
<path d="M30.6196 31.5001C31.1078 31.6936 32.0061 27.5357 36.8339 22.4893C41.0688 18.0638 28.3361 12.3054 26.93 12.4427C25.524 12.5799 26.1028 29.7185 30.6196 31.5001Z" fill="white"/>
<g opacity="0.3">
<path d="M28.9098 27.9529C29.5032 29.7173 30.2764 31.0356 31.2564 31.4666C31.6978 31.6607 32.5089 27.4626 36.8741 22.366C40.7033 17.8982 29.1917 12.0832 27.9191 12.2205C27.6176 12.2546 27.4183 13.2527 27.3401 14.7827C27.8384 14.588 28.6418 14.6258 29.8627 15.5515C31.87 17.079 35.3146 20.6929 31.9154 25.8639C30.615 27.8382 29.6306 28.227 28.9098 27.9529Z" fill="#000072"/>
</g>
<path d="M30.9675 30.7564C30.9102 30.7317 30.8469 30.7242 30.7854 30.7348C30.7494 30.7412 30.715 30.7546 30.6841 30.7743C30.6533 30.7953 30.6576 30.7978 30.6619 30.7904C30.6847 30.7599 30.7053 30.7279 30.7237 30.6946C30.7718 30.6093 30.8218 30.5092 30.87 30.4036C30.9669 30.196 31.0619 29.9779 31.1576 29.7598C31.3502 29.323 31.5434 28.8819 31.7502 28.4469C32.1601 27.5745 32.6077 26.7169 33.0935 25.8816C33.5794 25.0463 34.1016 24.2301 34.6652 23.443C34.9461 23.0488 35.2337 22.659 35.5294 22.2778L35.7541 21.9923L35.8683 21.8508L35.9184 21.789C35.9338 21.7687 35.9505 21.7489 35.9653 21.7273C36.0836 21.5691 36.1846 21.3986 36.2665 21.2188C36.4224 20.8782 36.4844 20.5022 36.4462 20.1295C36.3977 19.7393 36.2753 19.3618 36.0856 19.0174C35.8828 18.642 35.6398 18.2899 35.3609 17.9671C35.071 17.6302 34.7603 17.3118 34.4306 17.0138C33.7512 16.4041 33.0269 15.8464 32.2639 15.3456C31.4963 14.8363 30.7012 14.3697 29.8823 13.948C29.4748 13.7367 29.0606 13.5378 28.6476 13.3623C28.4414 13.2758 28.2353 13.1924 28.0353 13.1232C27.9365 13.0892 27.8383 13.0584 27.7501 13.0349C27.7062 13.0231 27.6661 13.0139 27.6334 13.0077C27.6007 13.0015 27.5717 13.0003 27.5976 13.0003H27.6118H27.6217L27.6457 12.9972C27.7053 12.989 27.7634 12.9719 27.818 12.9465C27.8564 12.9284 27.8926 12.906 27.926 12.8798C27.9455 12.8647 27.9637 12.848 27.9803 12.8298C27.9934 12.8162 28.005 12.8013 28.0149 12.7853C28.0149 12.7803 28.0149 12.7853 28.0149 12.7896C27.9849 12.8541 27.9612 12.9214 27.9439 12.9904C27.8905 13.1908 27.8493 13.3942 27.8204 13.5996C27.7587 14.0364 27.7161 14.4954 27.6889 14.9588C27.6328 15.8856 27.6167 16.821 27.6309 17.7595C27.6451 18.698 27.6784 19.639 27.7426 20.5781C27.8729 22.4551 28.1007 24.3327 28.5248 26.1553C28.6334 26.6101 28.7532 27.0617 28.8952 27.5035C29.0329 27.9434 29.1962 28.375 29.3841 28.796C29.5639 29.2072 29.7869 29.598 30.0495 29.9618C30.3113 30.3029 30.6212 30.6025 30.9675 30.7564ZM30.6588 31.4632C30.4046 31.3485 30.1698 31.1946 29.9631 31.0072C29.7673 30.8309 29.5893 30.6358 29.4316 30.4246C29.1321 30.0195 28.8748 29.5847 28.6637 29.1271C28.2421 28.2306 27.9402 27.302 27.6803 26.3685C27.4204 25.4349 27.2124 24.4902 27.0383 23.5412C26.8642 22.5922 26.7148 21.6401 26.5969 20.6837C26.3636 18.7684 26.2216 16.8476 26.2586 14.8921C26.2728 14.4015 26.2944 13.9097 26.3562 13.4019C26.3859 13.1344 26.432 12.8691 26.4944 12.6073C26.533 12.4448 26.587 12.2864 26.6556 12.1341C26.68 12.0819 26.7074 12.0311 26.7377 11.9821C26.7787 11.9158 26.826 11.8538 26.879 11.7967C26.9161 11.7567 26.9561 11.7195 26.9988 11.6855C27.056 11.6409 27.1181 11.603 27.184 11.5724C27.2653 11.5342 27.3519 11.5082 27.4408 11.4952C27.4698 11.4915 27.4772 11.4909 27.4877 11.4903L27.5192 11.4872C27.5408 11.4872 27.5624 11.4872 27.5809 11.4872C27.6877 11.4863 27.7943 11.4952 27.8994 11.5138C27.984 11.528 28.0599 11.5446 28.1309 11.5626C28.2735 11.5978 28.4032 11.6367 28.5297 11.6781C28.781 11.7615 29.018 11.8511 29.2501 11.9481C29.7137 12.1421 30.1588 12.354 30.5977 12.5777C31.4708 13.0286 32.3145 13.5344 33.1238 14.092C33.9437 14.6509 34.7148 15.2784 35.4288 15.9678C35.7931 16.3216 36.132 16.7006 36.4431 17.1021C36.7683 17.5159 37.0468 17.9645 37.2734 18.4397C37.5171 18.9452 37.6585 19.4938 37.6894 20.0542C37.7022 20.3456 37.6764 20.6375 37.6129 20.9222C37.5806 21.0641 37.5393 21.2038 37.4894 21.3405C37.439 21.4748 37.3807 21.606 37.3147 21.7334C37.1853 21.9806 37.0297 22.213 36.8505 22.4267C36.8289 22.4532 36.8067 22.4786 36.7844 22.5045L36.7227 22.5774L36.6054 22.7078L36.3733 22.971C36.0647 23.3238 35.7653 23.6821 35.4764 24.051C34.8965 24.7869 34.3544 25.552 33.8522 26.3431C33.3507 27.137 32.8918 27.957 32.4774 28.7997C32.2717 29.2215 32.0719 29.6488 31.878 30.0817C31.7805 30.2992 31.6848 30.5173 31.5793 30.7403C31.5262 30.8521 31.4718 30.9646 31.4021 31.0857C31.3626 31.1564 31.3174 31.2238 31.2669 31.2871C31.2237 31.3407 31.1727 31.3876 31.1157 31.4261C31.0596 31.4632 30.9966 31.4884 30.9305 31.5003C30.8373 31.516 30.7415 31.5031 30.6558 31.4632H30.6588Z" fill="#000072"/>
<path d="M63.4329 15.1939C67.6461 11.0752 75.4617 1.42829 78.8247 1.97547C83.958 2.81112 86.5597 18.163 82.1871 30.5527" fill="#6E787A"/>
<g opacity="0.7">
<path d="M82.4228 5.53643C81.6572 4.41917 80.7662 3.71655 79.7836 3.55775C76.5396 3.02212 69.158 12.0919 64.8539 16.4992L63.4621 15.3416C67.6792 11.1593 75.5073 1.35978 78.8724 1.91936C80.273 2.1481 81.4863 3.47331 82.4228 5.53643Z" fill="white"/>
</g>
<g opacity="0.3">
<path d="M82.3557 30.5981C79.4907 27.5104 74.2539 21.1679 74.2539 16.1336C74.2539 10.4232 78.2351 4.07756 81.428 3.78265C84.7004 8.36637 85.7832 20.4079 82.3557 30.5981Z" fill="#000072"/>
</g>
<path d="M82.1701 31.5062C82.0141 31.5059 81.8603 31.4689 81.7216 31.3982C81.583 31.3275 81.4634 31.2251 81.373 31.0996C81.2825 30.9741 81.2238 30.829 81.2016 30.6766C81.1794 30.5241 81.1945 30.3687 81.2455 30.2231C82.7889 25.8421 83.5477 20.6969 83.3812 15.7351C83.2299 11.2072 82.331 7.26196 80.9151 4.91092C80.427 4.1008 79.6386 3.10101 78.6537 2.94109C78.2837 2.87911 77.1009 3.02539 74.1215 5.66836C72.0247 7.52786 69.6954 10.0264 67.6407 12.2312C66.3624 13.6016 65.1551 14.8965 64.1506 15.8808C63.9664 16.0616 63.7169 16.1628 63.457 16.1621C63.1971 16.1614 62.9482 16.0589 62.7649 15.877C62.5816 15.6952 62.4791 15.449 62.4798 15.1926C62.4805 14.9362 62.5844 14.6905 62.7687 14.5097C63.7423 13.557 64.9346 12.2783 66.1972 10.9233C71.872 4.83902 76.109 0.566503 78.9734 1.0351C80.3585 1.26072 81.5772 2.23324 82.596 3.92415C84.1752 6.54605 85.1715 10.8279 85.3361 15.6713C85.5095 20.8642 84.7123 26.2574 83.0917 30.8572C83.0251 31.0463 82.9007 31.2102 82.7357 31.3265C82.5706 31.4428 82.373 31.5055 82.1701 31.5062Z" fill="#000072"/>
<path d="M24.5751 56.3461C26.6649 67.6835 42.5581 74.403 58.0359 73.3428C78.5511 71.9371 89.3139 59.3346 90.0626 52.1757C90.8841 44.3165 83.5465 27.7567 74.4926 19.8397C67.8573 14.0362 59.281 13.8392 51.1414 14.7589C45.3401 15.4145 37.6989 18.5664 34.1769 23.1028C29.784 28.7615 28.3926 34.7478 26.7453 43.9393C26.3373 46.2131 23.539 50.7216 24.5751 56.3461Z" fill="#6E787A"/>
<path d="M24.5751 56.3461C26.6649 67.6835 42.5581 74.403 58.0359 73.3428C78.5511 71.9371 89.3139 59.3346 90.0626 52.1757C90.8841 44.3165 83.5465 27.7567 74.4926 19.8397C67.8573 14.0362 59.281 13.8392 51.1414 14.7589C45.3401 15.4145 37.6989 18.5664 34.1769 23.1028C29.784 28.7615 28.3926 34.7478 26.7453 43.9393C26.3373 46.2131 23.539 50.7216 24.5751 56.3461Z" fill="#6E787A"/>
<g opacity="0.3">
<path d="M89.9461 50.6251C89.953 51.1029 89.9319 51.5807 89.8831 52.0561C89.132 59.3161 78.3159 72.0949 57.7004 73.5203C43.2802 74.5191 28.5019 68.7312 24.749 58.72C31.5025 65.7777 44.2174 69.5737 56.6882 68.7098C74.6746 67.4671 85.8085 58.2909 89.9461 50.6251Z" fill="#000072"/>
</g>
<path d="M88.2186 54.386C87.9479 56.3532 87.2854 58.5955 86.036 61.0454C85.9635 61.1303 85.8865 61.2178 85.8089 61.3052C85.6593 61.4727 85.5066 61.6377 85.3495 61.8052C84.9753 62.2035 84.5791 62.6 84.1658 62.991C84.0207 63.1283 83.8755 63.2625 83.7241 63.3992C83.5727 63.5359 83.425 63.6682 83.2723 63.8025C83.1196 63.9367 82.9631 64.0715 82.8035 64.2033C82.6855 64.3049 82.5643 64.404 82.4438 64.5031C82.2406 64.67 82.0349 64.8331 81.8248 64.9957C81.6557 65.1256 81.4866 65.2573 81.3125 65.3848C81.1818 65.4839 81.0468 65.583 80.9112 65.6822C80.8481 65.7265 80.7932 65.769 80.7326 65.8115C80.578 65.9223 80.4209 66.0307 80.2612 66.1415C80.257 66.1456 80.2521 66.1489 80.2467 66.1513C80.0656 66.2788 79.8795 66.4038 79.6908 66.5263C79.5141 66.6494 79.333 66.7621 79.1494 66.8797C78.9488 67.0071 78.7437 67.1346 78.538 67.2596C78.3786 67.3585 78.2166 67.4552 78.0521 67.5496C77.9752 67.597 77.8976 67.6413 77.818 67.6862C77.6874 67.7644 77.5543 67.8396 77.4193 67.9153C77.3032 67.9769 77.1896 68.0427 77.071 68.1062C76.7977 68.2595 76.5201 68.4078 76.2349 68.5519C76.1283 68.6086 76.0223 68.6627 75.9137 68.7169C75.7831 68.7828 75.65 68.8487 75.5168 68.9152C75.3837 68.9817 75.2512 69.0445 75.1162 69.1085C74.9811 69.1725 74.8455 69.2378 74.7098 69.2994C74.5741 69.3609 74.4341 69.4268 74.2965 69.4878C74.1703 69.5493 74.0378 69.6035 73.9078 69.6626C73.8977 69.6653 73.8879 69.6693 73.8788 69.6743C73.7021 69.7519 73.5231 69.828 73.3418 69.9027C73.1967 69.9643 73.0522 70.0259 72.9045 70.0825C72.803 70.1244 72.6988 70.1669 72.5954 70.2057C72.4141 70.2783 72.2319 70.3489 72.0489 70.4175C71.9524 70.4556 71.8596 70.4907 71.7612 70.5258C71.5971 70.5874 71.4306 70.649 71.2633 70.7105C71.1453 70.753 71.0267 70.7955 70.9081 70.8337C70.845 70.8577 70.7781 70.8811 70.7125 70.902C70.592 70.9445 70.4708 70.9851 70.3503 71.0252C70.1951 71.0769 70.0405 71.1261 69.8834 71.176C69.7263 71.2259 69.5717 71.277 69.4145 71.3244C69.2574 71.3718 69.0991 71.421 68.9388 71.4685C68.8126 71.506 68.6864 71.5411 68.5602 71.5768C68.4807 71.6027 68.4006 71.6236 68.321 71.6452C68.2049 71.6784 68.0888 71.711 67.9708 71.7418C67.7847 71.7935 67.6011 71.8434 67.4149 71.8902C67.2723 71.9284 67.1272 71.9635 66.9821 71.9986C66.6199 72.0909 66.2501 72.1783 65.8804 72.2584L65.462 72.3501C65.2639 72.3926 65.0633 72.4351 64.8651 72.4733C64.7175 72.504 64.5705 72.5348 64.4203 72.5607C64.1307 72.6149 63.8404 72.6691 63.5457 72.7189C63.3564 72.7516 63.1734 72.7805 62.9848 72.8131C62.7456 72.8507 62.504 72.8864 62.2623 72.9215C62.1197 72.943 61.9771 72.9615 61.832 72.9831L61.1726 73.068C61.141 73.0723 61.1095 73.0773 61.0754 73.0797C60.1622 73.1905 59.227 73.2786 58.27 73.3439C55.2294 73.5479 52.1757 73.4642 49.1516 73.0939C48.7333 73.0416 48.3149 72.9849 47.8991 72.924L47.4473 72.8531L46.928 72.7682C46.8725 72.7589 46.8145 72.7491 46.7564 72.7374L46.3261 72.6598C46.1399 72.6266 45.9538 72.5915 45.7702 72.5539C45.4004 72.4831 45.0332 72.4049 44.6659 72.3224C44.6652 72.3218 44.6643 72.3215 44.6634 72.3215C44.6625 72.3215 44.6616 72.3218 44.6609 72.3224C44.1485 72.2071 43.641 72.0839 43.1383 71.953C42.9282 71.8988 42.7156 71.8397 42.5073 71.7806C42.3307 71.7314 42.1546 71.6815 41.9779 71.6298C41.8013 71.578 41.6271 71.5263 41.4536 71.474C41.2801 71.4217 41.1053 71.3656 40.9311 71.309C40.757 71.2523 40.5885 71.1982 40.4169 71.1391C40.2597 71.0873 40.1052 71.0332 39.948 70.979C39.9134 70.9696 39.8794 70.9579 39.8464 70.9439C39.6963 70.8916 39.5493 70.8374 39.3991 70.7832C39.2325 70.7216 39.0659 70.66 38.8987 70.5948C38.7315 70.5295 38.5681 70.4673 38.4034 70.4015C38.2387 70.3356 38.0677 70.2666 37.903 70.1983C37.5875 70.069 37.2796 69.9341 36.9729 69.795C36.9667 69.7913 36.9602 69.7882 36.9534 69.7858C36.6379 69.6417 36.3224 69.4958 36.0182 69.3449C35.8365 69.2575 35.6605 69.1676 35.4838 69.0783C35.2156 68.9392 34.95 68.8 34.6888 68.656C34.6742 68.6492 34.6597 68.64 34.6452 68.6326C34.2079 68.3918 33.7827 68.1443 33.3694 67.8851C33.2318 67.8002 33.0961 67.7152 32.9611 67.6278C32.9555 67.626 32.9505 67.6228 32.9466 67.6185C32.8109 67.5311 32.6778 67.4443 32.5453 67.3544C32.4128 67.2645 32.2929 67.182 32.1667 67.0977C32.014 66.9911 31.8645 66.8852 31.7168 66.7769C31.5982 66.6894 31.4846 66.6045 31.3691 66.517C31.1167 66.3262 30.8688 66.1304 30.6271 65.9328C30.3854 65.7351 30.1482 65.5313 29.9191 65.3263C29.803 65.2229 29.6894 65.1188 29.5778 65.0185C29.5077 64.9569 29.4402 64.8885 29.3727 64.8227C29.3096 64.766 29.2465 64.7044 29.1834 64.6435C29.0913 64.5536 29.0048 64.4662 28.9152 64.3744C28.8111 64.2685 28.7095 64.162 28.6079 64.0537C28.5063 63.9453 28.4054 63.8345 28.3063 63.7212C28.2072 63.6079 28.1082 63.4995 28.0135 63.3863C27.9189 63.273 27.835 63.172 27.7479 63.0655C27.5788 62.8555 27.4141 62.6456 27.2595 62.4313C27.2065 62.363 27.156 62.2946 27.1074 62.2238C27.0323 62.1179 26.9598 62.0139 26.8872 61.908C26.8241 61.8156 26.7642 61.7233 26.7036 61.6297C26.5465 61.3865 26.3969 61.1371 26.2543 60.8908C26.1843 60.7677 26.1143 60.6409 26.0461 60.5159C25.8436 60.1385 25.6574 59.7518 25.4927 59.3602C25.4252 59.2045 25.3602 59.0444 25.2997 58.8861C25.2997 58.8861 25.3047 58.8911 25.3047 58.8935C32.0664 65.7893 44.7833 69.4908 57.2567 68.6467C72.5745 67.6111 82.9259 60.961 88.2186 54.386Z" fill="#E2E2E2"/>
<path d="M85.8869 60.6075C81.2244 66.0078 72.9322 71.2786 61.0682 72.7554C60.1231 72.8731 59.2882 73.223 58.2997 73.2908C57.1542 73.3693 55.9281 73.4564 54.7839 73.4515C52.8761 73.4427 50.9254 73.0157 49.063 72.7816C36.8908 71.2712 26.2623 65.1318 24.5757 56.006C24.1567 53.736 24.3633 51.6479 24.7855 49.815C25.757 48.4633 27.2736 47.273 29.4649 46.3434C31.8976 44.4695 30.829 31.1523 38.7533 27.0296C43.1303 24.754 44.5058 37.9485 46.813 42.0507C47.685 43.6041 48.2231 34.4483 49.39 34.3163C50.5569 34.1843 51.8674 43.3525 52.5151 41.6796C54.0808 37.6397 55.0983 23.1328 60.8142 23.9092C71.0288 25.2963 73.7462 41.5072 76.7441 42.7542C78.4793 43.4764 82.9382 41.9673 86.5611 45.9375C88.1047 47.6253 89.6295 53.1863 85.8869 60.6075Z" fill="white"/>
<g opacity="0.3">
<path d="M87.6292 54.1171C87.3586 56.1305 86.6964 58.4255 85.4478 60.9328C85.4478 60.9328 85.4478 60.9404 85.4427 60.9429C85.3708 61.0274 85.2958 61.1143 85.2208 61.1988C85.0713 61.3702 84.9187 61.539 84.7617 61.7104C84.5746 61.9146 84.3822 62.1177 84.1846 62.3198C83.987 62.5219 83.785 62.7233 83.5786 62.9241C83.4335 63.0646 83.2885 63.202 83.1371 63.3419C82.9858 63.4818 82.8382 63.6173 82.6856 63.7547C82.533 63.892 82.3766 64.03 82.217 64.1649C82.0991 64.2689 81.978 64.3703 81.8576 64.4718C81.6545 64.6425 81.4489 64.8095 81.2389 64.9759C81.0699 65.1089 80.9009 65.2437 80.7268 65.3741C80.5963 65.4756 80.4613 65.5771 80.3258 65.6785C80.2627 65.7239 80.2078 65.7674 80.1473 65.8108C79.9928 65.9243 79.8357 66.0352 79.6762 66.1486C79.672 66.1528 79.6671 66.1562 79.6617 66.1587C79.4807 66.2891 79.2947 66.417 79.1061 66.5424C78.9295 66.6685 78.7485 66.7838 78.565 66.9042C78.3645 67.0346 78.1595 67.165 77.9539 67.293C77.7946 67.3942 77.6327 67.4931 77.4683 67.5898C77.3914 67.6383 77.3138 67.6837 77.2344 67.7297C77.1038 67.8097 76.9708 67.8866 76.8358 67.9641C76.7198 68.0271 76.6063 68.0945 76.4877 68.1594C76.2146 68.3163 75.9371 68.4682 75.6521 68.6156C75.5455 68.6736 75.4396 68.7291 75.3311 68.7845C75.2006 68.852 75.0675 68.9194 74.9344 68.9874C74.8014 69.0555 74.6689 69.1198 74.534 69.1853C74.399 69.2508 74.2634 69.3176 74.1278 69.3807C73.9923 69.4437 73.8523 69.5111 73.7148 69.5735C73.5887 69.6365 73.4562 69.6919 73.3263 69.7524C73.3162 69.7552 73.3064 69.7592 73.2973 69.7644C73.1207 69.8438 72.9418 69.9217 72.7606 69.9982C72.6156 70.0612 72.4712 70.1242 72.3236 70.1822C72.2221 70.2251 72.118 70.2685 72.0146 70.3082C71.8334 70.3826 71.6513 70.4548 71.4684 70.525C71.372 70.5641 71.2793 70.6 71.1809 70.6359C71.0169 70.6989 70.8504 70.7619 70.6833 70.825C70.5654 70.8684 70.4468 70.9119 70.3283 70.951C70.2652 70.9756 70.1983 70.9995 70.1328 71.0209C70.0123 71.0644 69.8912 71.106 69.7708 71.147C69.6156 71.1999 69.4611 71.2503 69.3041 71.3014C69.1471 71.3524 68.9926 71.4047 68.8355 71.4532C68.6785 71.5017 68.5202 71.5522 68.36 71.6007C68.2339 71.6391 68.1078 71.675 67.9817 71.7116C67.9022 71.738 67.8221 71.7595 67.7426 71.7815C67.6266 71.8156 67.5106 71.8489 67.3926 71.8805C67.2066 71.9334 67.0231 71.9844 66.8371 72.0323C66.6945 72.0714 66.5495 72.1073 66.4044 72.1432C66.0425 72.2378 65.6729 72.3272 65.3033 72.4092L64.8852 72.503C64.6872 72.5465 64.4867 72.59 64.2886 72.6291C64.1411 72.6606 63.9941 72.6921 63.8441 72.7186C63.5546 72.774 63.2645 72.8295 62.97 72.8805C62.7808 72.9139 62.5979 72.9435 62.4094 72.9769C62.1703 73.0154 61.9288 73.0519 61.6873 73.0878C61.5447 73.1099 61.4022 73.1288 61.2572 73.1508L60.5982 73.2378C60.5666 73.2422 60.5351 73.2473 60.501 73.2498C59.5954 73.3821 58.7838 73.7155 57.8271 73.7804C56.68 73.8604 55.4528 73.9474 54.3082 73.9423C52.3999 73.9347 50.4462 73.5012 48.5839 73.2643C48.1658 73.2107 47.7477 73.1527 47.3321 73.0904L46.8805 73.0179L46.3615 72.9309C46.306 72.9215 46.248 72.9114 46.19 72.8994L45.7599 72.82C45.5739 72.786 45.3878 72.7501 45.2043 72.7116C44.8348 72.6366 44.4677 72.5566 44.1007 72.4747C44.1 72.4741 44.0991 72.4737 44.0982 72.4737C44.0972 72.4737 44.0963 72.4741 44.0956 72.4747C43.5836 72.3569 43.0765 72.2289 42.5739 72.0966C42.3639 72.0411 42.1514 71.9807 41.9433 71.9202C41.7667 71.8697 41.5908 71.8187 41.4142 71.7658C41.2376 71.7128 41.0635 71.6599 40.8901 71.6063C40.7167 71.5528 40.542 71.4954 40.368 71.4375C40.1939 71.3795 40.0255 71.324 39.854 71.2635C39.697 71.2106 39.5424 71.1552 39.3854 71.0997C39.3508 71.0901 39.3169 71.0781 39.2839 71.0638C39.1338 71.0102 38.9869 70.9548 38.8368 70.8993C38.6703 70.8363 38.5038 70.7733 38.3367 70.7065C38.1695 70.6397 38.0062 70.576 37.8416 70.5086C37.677 70.4412 37.5061 70.3706 37.3415 70.3007C37.0262 70.1658 36.7185 70.0278 36.412 69.8879C36.4058 69.8841 36.3992 69.881 36.3924 69.8785C36.0771 69.731 35.7618 69.5817 35.4578 69.4273C35.2762 69.3378 35.1002 69.2458 34.9237 69.1544C34.6556 69.012 34.3901 68.8696 34.1291 68.7221C34.1146 68.7152 34.1 68.7058 34.0855 68.6982C33.6508 68.4516 33.2258 68.1966 32.8104 67.9332C32.6729 67.8462 32.5373 67.7593 32.4024 67.6698C32.3968 67.6679 32.3918 67.6647 32.3879 67.6603C32.2523 67.5709 32.1192 67.482 31.9868 67.39C31.8544 67.298 31.7345 67.2136 31.6084 67.1272C31.4558 67.0182 31.3063 66.9098 31.1588 66.7989C31.0402 66.7094 30.9267 66.6225 30.8113 66.533C30.559 66.3376 30.3112 66.1373 30.0696 65.935C29.8281 65.7327 29.591 65.5241 29.3621 65.3143C29.246 65.2084 29.1325 65.1019 29.0209 64.9992C28.9509 64.9362 28.8834 64.8662 28.8159 64.7988C28.7529 64.7408 28.6898 64.6778 28.6267 64.6154C28.5347 64.5234 28.4483 64.434 28.3587 64.3401C28.2547 64.2317 28.1531 64.1227 28.0516 64.0118C27.9501 63.9009 27.8492 63.7874 27.7502 63.6715C27.6512 63.5555 27.5521 63.4446 27.4575 63.3287C27.363 63.2127 27.2791 63.1094 27.192 63.0004C27.023 62.7855 26.8584 62.5706 26.7039 62.3513C26.651 62.2814 26.6005 62.2114 26.552 62.139C26.4769 62.0306 26.4044 61.9241 26.3319 61.8157C26.2688 61.7212 26.2089 61.6266 26.1483 61.5309C25.9913 61.2819 25.8419 61.0267 25.6993 60.7747C25.6293 60.6486 25.5593 60.5188 25.4912 60.3909C25.2913 60.0046 25.1053 59.6089 24.9382 59.2081C24.8751 59.0512 24.812 58.893 24.749 58.7305C31.5069 65.7882 44.2167 69.5766 56.6832 68.7127C71.9938 67.6528 82.3394 60.8465 87.6292 54.1171Z" fill="#000072"/>
</g>
<path d="M60.9936 72.5077C63.6053 72.0705 66.1776 71.4305 68.6864 70.5937C68.8439 70.5452 68.9976 70.488 69.1526 70.4314L69.6162 70.2623L70.0792 70.0937C70.1564 70.0651 70.2342 70.0384 70.3107 70.0079L70.539 69.9153L71.4518 69.5465C71.5277 69.5155 71.6048 69.4844 71.6795 69.4539L71.9047 69.3544L72.3544 69.156C72.9584 68.9011 73.5416 68.6032 74.1311 68.3209C74.4227 68.1729 74.7093 68.0162 74.9983 67.8645L75.4304 67.635L75.8541 67.3907L76.2779 67.1469C76.419 67.0654 76.5613 66.9865 76.6979 66.8982L77.5259 66.3814C77.6651 66.2975 77.7973 66.203 77.9326 66.1128L78.3362 65.8404C78.4703 65.7497 78.6069 65.662 78.7397 65.5687L79.1344 65.2852C79.6676 64.9158 80.1825 64.5247 80.6986 64.1348L81.4577 63.5304C81.5842 63.4321 81.705 63.3233 81.8283 63.2194L82.1946 62.9029C83.1615 62.0531 84.0662 61.1371 84.9018 60.1619C85.7333 59.1966 86.4793 58.1631 87.1314 57.0727L87.3718 56.6654L87.5919 56.25L87.702 56.0423L87.757 55.9385C87.7747 55.9036 87.7905 55.8682 87.807 55.8327L88.0049 55.4099C88.0372 55.339 88.072 55.2687 88.103 55.1979L88.1903 54.9833L88.3648 54.5536C88.418 54.4094 88.4648 54.2639 88.5154 54.1184L88.59 53.9013C88.6166 53.8292 88.6324 53.7558 88.6533 53.6831L88.7753 53.2478C88.8101 53.1017 88.8386 52.9555 88.869 52.8125C88.8841 52.7398 88.9019 52.6664 88.9145 52.5936L88.9442 52.3754L88.9746 52.1577L88.9898 52.0489C88.9948 52.0122 88.9955 51.9743 88.9986 51.937C89.0087 51.7865 89.0233 51.6379 89.0303 51.4868L89.0429 51.0304L89.0372 50.569V50.4533L89.0309 50.337L89.0189 50.1045C88.9822 49.4826 88.9202 48.8608 88.8222 48.2328L88.788 47.9983L88.7469 47.7639L88.6647 47.2944C88.6014 46.9835 88.5432 46.6726 88.4711 46.3573C88.3389 45.7324 88.1757 45.1106 88.0094 44.4918C87.843 43.8731 87.6507 43.255 87.4515 42.64C86.6451 40.1705 85.6747 37.7557 84.5463 35.4113C83.9897 34.234 83.4162 33.0622 82.8258 31.8961C82.2401 30.7271 81.6348 29.5655 81.0427 28.384C80.9905 28.279 80.979 28.1588 81.0105 28.0461C81.042 27.9334 81.1142 27.8358 81.2136 27.7717C81.3131 27.7076 81.4329 27.6813 81.5506 27.6979C81.6683 27.7145 81.7759 27.7727 81.853 27.8617C82.7258 28.8882 83.5287 29.9703 84.2566 31.1008C84.9882 32.2279 85.6608 33.3903 86.2743 34.588C86.8866 35.7838 87.4515 37.0032 87.9822 38.2387C88.1118 38.5497 88.2428 38.8606 88.368 39.1715C88.4932 39.4824 88.6159 39.797 88.733 40.1123C88.85 40.4276 88.9702 40.7422 89.0802 41.0606L89.2485 41.5369L89.4098 42.0163C89.6267 42.655 89.8165 43.3035 90.0024 43.954C90.1783 44.6075 90.351 45.2598 90.4933 45.9276C90.5705 46.2585 90.6293 46.5949 90.6951 46.9294C90.7254 47.0973 90.7526 47.2664 90.7811 47.4343L90.8235 47.6874L90.8595 47.9424C90.9607 48.6202 91.0282 49.3075 91.0619 50.0043L91.0727 50.2655L91.0784 50.3961V50.5279V51.0552L91.0581 51.5869C91.0486 51.7647 91.0297 51.9438 91.0151 52.1223C91.0107 52.1671 91.0088 52.2118 91.0025 52.2566L90.9829 52.3928L90.943 52.6645L90.9019 52.9356C90.8854 53.0252 90.8639 53.1122 90.845 53.2012C90.8051 53.3771 90.7691 53.5544 90.7254 53.7291L90.5768 54.244C90.5502 54.3292 90.5293 54.4162 90.499 54.4995L90.4104 54.7483C90.3472 54.9149 90.2934 55.0828 90.2302 55.2457L90.0271 55.7326L89.9253 55.9758C89.8892 56.056 89.85 56.1337 89.8127 56.2133L89.5856 56.6859C89.5666 56.7251 89.5483 56.7649 89.5281 56.804L89.4648 56.9185L89.3383 57.1485L89.0897 57.6074L88.8222 58.0539C88.1037 59.2312 87.2877 60.3483 86.3825 61.3938C85.4834 62.43 84.5177 63.4085 83.4912 64.3232L83.1048 64.6627C82.9783 64.7753 82.8518 64.8928 82.7164 64.9997L81.9213 65.652C81.65 65.8616 81.3742 66.0655 81.099 66.2739L80.8941 66.4281C80.8252 66.4797 80.753 66.5263 80.6828 66.5754L80.2584 66.8658C79.1219 67.6296 77.939 68.3244 76.7163 68.9465L76.2615 69.1834L75.7991 69.4048C75.4898 69.5503 75.183 69.7014 74.8718 69.84C74.2437 70.1099 73.6226 70.3935 72.9831 70.6329C71.7181 71.1453 70.4151 71.5563 69.1089 71.9387C66.4938 72.6724 63.818 73.1778 61.1125 73.4491C60.9868 73.4635 60.8603 73.4289 60.7602 73.3527C60.6601 73.2765 60.5943 73.1649 60.5768 73.0416C60.5594 72.9183 60.5917 72.7933 60.6669 72.6931C60.7421 72.593 60.8541 72.5258 60.9791 72.5058L60.9936 72.5077Z" fill="#000072"/>
<path d="M67.5869 15.2178C66.5322 14.9851 65.4762 14.7915 64.4105 14.6503L63.6132 14.5513L62.8126 14.475C62.5468 14.4441 62.2778 14.4353 62.0107 14.4119L61.6101 14.3829C61.4765 14.3754 61.3424 14.3716 61.2082 14.3653C60.9398 14.3565 60.6734 14.3363 60.4044 14.3325L59.5992 14.3155C59.3309 14.3155 59.0618 14.3155 58.7935 14.3155C58.5251 14.3155 58.2561 14.3205 57.9871 14.3249C56.9116 14.3464 55.8342 14.3937 54.7556 14.4737C53.6769 14.5538 52.5995 14.6566 51.5202 14.7827L51.3179 14.8048L51.1235 14.83L50.7345 14.8804C50.4752 14.9208 50.2159 14.9561 49.9566 15.0066C49.438 15.0936 48.9194 15.2033 48.4009 15.3218C47.3644 15.5572 46.3408 15.8434 45.334 16.1794C44.326 16.5136 43.331 16.8881 42.3625 17.3144C41.3935 17.7359 40.4494 18.2098 39.5348 18.7338L39.1939 18.9305L38.8561 19.1317L38.6882 19.2338L38.5236 19.3398L38.1949 19.5523C37.7639 19.8442 37.3354 20.1406 36.9309 20.4603C36.7234 20.6154 36.5296 20.7837 36.3299 20.9458L36.0415 21.198L35.8976 21.3241L35.7588 21.4559C35.3877 21.8 35.0371 22.1644 34.7087 22.5474L34.4688 22.835C34.3891 22.934 34.3107 23.0418 34.2316 23.1446L33.7584 23.7688C33.7195 23.8212 33.6786 23.8722 33.641 23.9258L33.5308 24.0873L33.3098 24.4095L33.0868 24.7348C33.0142 24.8427 32.9364 24.9473 32.8703 25.0596C31.7483 26.8217 30.8213 28.6944 30.1049 30.6463C29.3827 32.6074 28.8259 34.6403 28.3546 36.6997C27.8833 38.7591 27.4821 40.8538 27.1016 42.9542L27.0303 43.3483L26.994 43.5451L26.9849 43.5962L26.9726 43.6554L26.9486 43.774C26.8799 44.0848 26.7969 44.3699 26.7094 44.6429C26.5331 45.1877 26.3412 45.6953 26.1564 46.1985C25.785 47.2004 25.4388 48.1791 25.1698 49.169C24.8971 50.1452 24.7119 51.1425 24.6162 52.1497C24.5704 52.6463 24.5526 53.145 24.5631 53.6435C24.5631 53.8957 24.5812 54.1397 24.5955 54.3876L24.6292 54.7577C24.6389 54.8838 24.6596 55.0042 24.6745 55.1272L24.6979 55.3113L24.729 55.4948C24.7504 55.6165 24.7672 55.7395 24.7938 55.8612L24.9552 56.5876L25.1614 57.3033C25.1769 57.3663 25.1996 57.4218 25.2204 57.4805L25.2852 57.6564L25.411 58.0076C25.7698 58.9433 26.2267 59.8407 26.7742 60.6856C27.8762 62.3799 29.316 63.8794 30.9528 65.1626C31.775 65.8075 32.6356 66.4046 33.5302 66.9508C34.4312 67.4944 35.366 67.9894 36.3209 68.4497C38.2465 69.3618 40.2486 70.1126 42.3054 70.6938L43.0833 70.9095C43.3426 70.9763 43.6019 71.0406 43.8612 71.11C43.9909 71.1434 44.1205 71.1819 44.2502 71.214L44.6391 71.3137C44.8984 71.3767 45.1577 71.4574 45.417 71.523C45.5466 71.5571 45.6763 71.5924 45.8059 71.6283C45.9356 71.6643 46.0652 71.699 46.1949 71.738C46.4542 71.8137 46.7135 71.8806 46.9773 71.9587C47.4959 72.1195 48.0236 72.262 48.5448 72.4632L48.5571 72.4682C48.6639 72.5091 48.7534 72.5841 48.8109 72.6808C48.8684 72.7775 48.8905 72.8903 48.8737 73.0008C48.8569 73.1113 48.802 73.2129 48.7182 73.2893C48.6343 73.3656 48.5263 73.412 48.4119 73.421C48.1286 73.4424 47.846 73.4488 47.564 73.4519C47.282 73.4551 47 73.4469 46.7213 73.4317C46.4425 73.4166 46.1586 73.4021 45.8785 73.3687C45.7385 73.3554 45.5992 73.3378 45.4598 73.322C45.3204 73.3063 45.181 73.2892 45.0417 73.2709C43.9294 73.1084 42.8298 72.8725 41.7505 72.5647C39.5735 71.9778 37.4519 71.2114 35.4088 70.2739C34.3872 69.7963 33.3891 69.2696 32.4146 68.6937C31.442 68.1087 30.506 67.4679 29.6116 66.7749L29.2771 66.5107L29.1105 66.3789C29.0547 66.3348 29.0016 66.2869 28.9478 66.2408C28.7325 66.0554 28.5147 65.8719 28.2995 65.6828L27.6772 65.0976C27.4737 64.8984 27.2785 64.6903 27.0789 64.4866C26.2897 63.6537 25.5786 62.7538 24.9539 61.7979C24.3257 60.8318 23.8044 59.8038 23.3988 58.7309L23.2555 58.3241L23.1836 58.1205C23.1603 58.053 23.135 57.9855 23.1188 57.9155L22.8828 57.0864L22.6987 56.2439C22.6702 56.1033 22.6501 55.9608 22.6255 55.8196L22.5911 55.6064L22.5639 55.3927C22.5477 55.2502 22.525 55.1083 22.514 54.9651L22.4764 54.5364C22.4602 54.2501 22.442 53.9638 22.442 53.6775C22.4333 53.1065 22.4571 52.5354 22.5133 51.9668C22.6267 50.8433 22.8399 49.7315 23.1505 48.6438C23.4513 47.5668 23.8299 46.5226 24.2104 45.5149C24.399 45.0105 24.5883 44.5168 24.7452 44.042C24.8236 43.8055 24.8904 43.5753 24.9397 43.3635L24.9565 43.2853L24.965 43.2462L24.974 43.1989L25.011 43.0009L25.0855 42.6049C25.4836 40.4951 25.8952 38.3802 26.3911 36.2697L26.5797 35.4783C26.6407 35.2147 26.7146 34.9518 26.782 34.6889L26.9875 33.8994L27.2131 33.1118C27.508 32.0613 27.8613 31.0203 28.234 29.9855C29.0053 27.9074 29.9945 25.9121 31.1861 24.0311C31.2568 23.9113 31.3398 23.7985 31.4169 23.6824L31.6529 23.3369L31.8882 22.9913L32.0062 22.8186C32.0464 22.7612 32.0898 22.7063 32.1313 22.6502L32.633 21.9812C32.7173 21.8696 32.7977 21.7586 32.8858 21.6464L33.1633 21.3084C33.5359 20.8665 33.9339 20.4455 34.3554 20.0473L34.511 19.8978L34.6717 19.754L34.9959 19.4678C35.2163 19.2855 35.4315 19.0957 35.6584 18.9223C36.1037 18.5635 36.5659 18.235 37.0365 17.9134L37.3924 17.6789L37.5707 17.5616L37.7509 17.4487L38.112 17.2236L38.4782 17.0073C39.4532 16.4359 40.4606 15.9186 41.4958 15.458C43.5596 14.5357 45.7144 13.8197 47.927 13.3211C48.4825 13.2013 49.04 13.089 49.604 13.0001C49.8847 12.9516 50.1693 12.9156 50.4519 12.874L50.8791 12.8229L51.0917 12.7983L51.2998 12.7775L52.1302 12.6962L52.9638 12.6281C53.2413 12.6029 53.5207 12.5884 53.7988 12.565L54.2162 12.5373L54.635 12.5152C54.9144 12.502 55.1931 12.4843 55.4732 12.4755L56.3159 12.4496C56.5966 12.444 56.8773 12.4446 57.1586 12.4414C57.4399 12.4383 57.72 12.4414 58.0013 12.4503C58.5627 12.4553 59.1254 12.4875 59.6867 12.5177L60.5295 12.5839C60.6695 12.594 60.8095 12.6098 60.9495 12.6256L61.3702 12.6722C61.5103 12.6886 61.6503 12.7031 61.7896 12.7214L62.2084 12.7845L62.6272 12.8475C62.6965 12.8582 62.7666 12.8677 62.8359 12.8797L63.044 12.9181L63.8653 13.0783L64.6899 13.2675C65.7848 13.5313 66.8571 13.8768 67.8974 14.301C68.0116 14.3486 68.1035 14.436 68.1549 14.5461C68.2063 14.6562 68.2135 14.7811 68.1752 14.8961C68.1369 15.0111 68.0558 15.1081 67.9478 15.168C67.8398 15.2278 67.7127 15.2463 67.5914 15.2197L67.5869 15.2178Z" fill="#000072"/>
<path d="M46.2726 53.4329C47.8209 55.1719 47.354 59.6869 50.8679 59.1007C53.7502 58.6197 53.3902 55.8248 53.8991 53.6581" fill="#000072"/>
<path d="M49.7826 60.1063C48.8482 60.1063 48.0843 59.6975 47.5097 58.8854C46.9607 58.1085 46.671 57.084 46.3907 56.0927C46.1466 55.2308 45.8943 54.3349 45.5112 53.8467C45.4427 53.7636 45.3907 53.6669 45.3583 53.5622C45.3258 53.4576 45.3135 53.3472 45.3221 53.2375C45.3307 53.1278 45.36 53.021 45.4083 52.9234C45.4566 52.8258 45.5229 52.7394 45.6034 52.6692C45.6839 52.5991 45.7768 52.5466 45.8768 52.5149C45.9768 52.4831 46.0818 52.4728 46.1856 52.4844C46.2894 52.4961 46.39 52.5296 46.4814 52.5828C46.5728 52.636 46.6531 52.708 46.7178 52.7945C47.3018 53.5413 47.6025 54.5991 47.8916 55.6217C48.5066 57.7988 48.8844 58.6607 50.1949 58.4132C51.6474 58.1386 51.8611 56.9744 52.1146 54.9401C52.1788 54.4242 52.2454 53.8935 52.3517 53.3788C52.3961 53.1649 52.5192 52.9785 52.694 52.8603C52.8688 52.7422 53.0809 52.7021 53.2838 52.7489C53.4866 52.7957 53.6635 52.9255 53.7755 53.1098C53.8876 53.2941 53.9256 53.5177 53.8812 53.7316C53.7895 54.1749 53.7299 54.6508 53.6674 55.155C53.5431 56.1493 53.4152 57.1782 53.0104 58.0573C52.5088 59.1477 51.655 59.8145 50.4718 60.038C50.2444 60.0824 50.0138 60.1053 49.7826 60.1063Z" fill="#000072"/>
<path d="M44.4299 52.5576C44.4299 52.5576 43.97 54.134 45.5231 54.7792C47.456 55.58 49.1838 53.9549 49.5672 53.2823C49.6561 53.1256 49.9725 53.1164 50.0458 53.2823C50.4417 54.1723 51.9588 55.93 54.3342 55.1407C55.2664 54.8307 56.1303 53.7954 55.6859 52.7463L50.8712 47.7128L44.4299 52.5576Z" fill="white"/>
<path d="M55.8061 53.5768C55.5908 54.2883 55.0093 54.8733 54.4 55.1076C51.9983 56.0261 50.4607 53.9828 50.0572 52.9445C49.9836 52.7548 49.6639 52.7661 49.5726 52.9491C49.1861 53.7319 47.4327 55.6248 45.4816 54.691C44.7685 54.3522 44.4745 53.7898 44.3663 53.2759C46.7271 53.8197 48.7481 52.2376 48.8576 50.6429C48.8771 50.3634 51.0982 49.389 51.0857 49.6692C50.9635 52.404 52.5175 54.8387 55.7985 53.5841C55.7998 53.5808 55.8036 53.5775 55.8061 53.5768Z" fill="#E2E2E2"/>
<path d="M55.5158 52.1713C55.5425 52.2332 55.5679 52.2966 55.5928 52.3617C55.6198 52.4254 55.6431 52.4917 55.6626 52.56C55.7036 52.6988 55.7361 52.8417 55.7596 52.9874C55.7705 53.0612 55.7814 53.1357 55.7899 53.2111L55.8014 53.4379L55.8063 53.5529C55.8063 53.591 55.8063 53.6322 55.8032 53.6663C55.8032 53.7456 55.796 53.8186 55.7911 53.8955C55.7304 54.4953 55.5538 55.0649 55.2781 55.5507C55.2098 55.6701 55.1367 55.7847 55.0592 55.8941C55.0197 55.9488 54.9803 56.0035 54.9379 56.0527L54.8087 56.2026L54.7426 56.2771L54.6729 56.3461C54.6256 56.3921 54.5789 56.4381 54.5303 56.4826L54.3769 56.6047C54.3514 56.6245 54.326 56.6451 54.2993 56.6642L54.2162 56.7181C54.1622 56.7522 54.1028 56.7911 54.0513 56.8196L53.9051 56.8989C53.8087 56.9513 53.7056 56.9925 53.6019 57.0361C53.4982 57.0797 53.3927 57.1083 53.2878 57.144C53.2338 57.1575 53.1792 57.1694 53.1252 57.1821C53.0713 57.1947 53.0161 57.2066 52.9609 57.213C52.7369 57.2478 52.5109 57.2545 52.2859 57.2328C52.0589 57.2075 51.8341 57.1544 51.6146 57.0742C51.186 56.9118 50.7814 56.6557 50.4181 56.3168C50.0736 55.9939 49.7602 55.6176 49.4849 55.1962C49.2068 54.7772 48.9708 54.3134 48.7826 53.8162C48.7577 53.752 48.7347 53.6798 48.711 53.6116L48.7068 53.5997L48.7195 53.6401C48.7292 53.6679 48.7395 53.6941 48.7511 53.7194C48.7737 53.7702 48.7995 53.8185 48.8281 53.8638C48.8556 53.9059 48.8854 53.9454 48.9172 53.982C48.9324 53.9986 48.9506 54.0161 48.9645 54.0295C48.9788 54.0435 48.9935 54.0565 49.0088 54.0684C49.0993 54.1432 49.2023 54.1883 49.309 54.2001C49.3888 54.2085 49.4691 54.1966 49.5455 54.1652C49.6526 54.1205 49.7495 54.0417 49.8275 53.936C49.8534 53.9005 49.8775 53.8629 49.8996 53.8233C49.9112 53.8019 49.9221 53.7797 49.9324 53.7575C49.9427 53.7353 49.9573 53.6972 49.9476 53.721L49.8996 53.8376C49.8412 53.9724 49.7774 54.1032 49.7086 54.2294C49.5851 54.457 49.4499 54.6735 49.3041 54.8773C49.1629 55.0765 49.0122 55.2637 48.8529 55.4381C48.5278 55.7984 48.1659 56.0979 47.7778 56.3279C47.5738 56.4481 47.3619 56.5436 47.1446 56.6134C46.9204 56.6876 46.691 56.7317 46.46 56.7451C46.2254 56.7582 45.9904 56.739 45.7589 56.688C45.6983 56.6769 45.6443 56.657 45.5873 56.6412C45.5302 56.6259 45.4738 56.6068 45.4181 56.5841C45.3629 56.5627 45.3072 56.5412 45.2526 56.5174C45.198 56.4937 45.1452 56.4651 45.0919 56.4381C44.6441 56.2107 44.2477 55.8385 43.9397 55.3564C43.7832 55.1043 43.6583 54.8214 43.5697 54.5181C43.4869 54.2315 43.4362 53.9307 43.4193 53.6251C43.4044 53.3413 43.4166 53.0562 43.4557 52.7765C43.4759 52.6411 43.5008 52.5089 43.5303 52.3799C43.5449 52.3149 43.5631 52.2506 43.5819 52.1856L43.611 52.0881L43.6279 52.0373C43.634 52.0183 43.6389 52.0064 43.648 51.9747C43.6639 51.8976 43.6913 51.8254 43.7285 51.7621C43.7658 51.6989 43.8122 51.6459 43.8652 51.6061C43.9181 51.5664 43.9765 51.5406 44.037 51.5304C44.0976 51.5201 44.1591 51.5256 44.218 51.5464C44.2769 51.5672 44.3322 51.603 44.3805 51.6518C44.4289 51.7005 44.4694 51.7612 44.4998 51.8304C44.5302 51.8997 44.5499 51.976 44.5577 52.0552C44.5656 52.1344 44.5614 52.2148 44.5455 52.2919C44.5491 52.2871 44.5491 52.3022 44.5503 52.3109L44.554 52.3419L44.56 52.4077C44.5643 52.4521 44.5703 52.4981 44.5752 52.5433C44.585 52.633 44.5984 52.7219 44.6152 52.8098C44.6438 52.9731 44.6844 53.1325 44.7365 53.2856C44.7824 53.4169 44.8403 53.5404 44.9087 53.6536C44.9694 53.7505 45.0402 53.8357 45.1192 53.9066C45.2904 54.0562 45.4821 54.1612 45.6837 54.2159C45.8928 54.2826 46.1095 54.2982 46.3229 54.2619C46.5468 54.2193 46.7643 54.1316 46.9676 54.0018C47.1975 53.8584 47.4136 53.68 47.6116 53.4704C47.7147 53.3618 47.8147 53.246 47.9087 53.1254C47.9992 53.0092 48.0839 52.8855 48.1622 52.755C48.1942 52.7023 48.2242 52.6475 48.252 52.5909L48.2665 52.5615C48.2617 52.5734 48.2835 52.5203 48.2981 52.4902C48.3126 52.46 48.3308 52.422 48.3484 52.3886C48.3822 52.326 48.42 52.2671 48.4612 52.2126C48.5998 52.0294 48.7705 51.8933 48.9585 51.816C49.115 51.7506 49.2797 51.7253 49.4436 51.7415C49.6353 51.7604 49.8209 51.8384 49.9852 51.9691C50.0094 51.9881 50.0331 52.0088 50.0567 52.0302C50.0804 52.0516 50.1052 52.0786 50.1283 52.1039C50.2276 52.2139 50.3116 52.3457 50.3763 52.4933C50.3927 52.5314 50.4084 52.5726 50.4224 52.6099L50.443 52.6694V52.6765C50.4539 52.7091 50.4618 52.7408 50.4751 52.7757C50.5267 52.9249 50.5876 53.0684 50.6571 53.2047C50.7293 53.3488 50.8081 53.487 50.893 53.6187C51.059 53.8756 51.2539 54.098 51.4709 54.2786C51.5734 54.3608 51.6802 54.4334 51.7905 54.4959L51.8718 54.5379C51.899 54.5514 51.9263 54.5617 51.9536 54.5744C51.9802 54.5874 52.0074 54.5985 52.0349 54.6077C52.0628 54.6172 52.0895 54.6307 52.1168 54.6378C52.2259 54.6734 52.3367 54.6999 52.4485 54.7171C52.5055 54.7171 52.5607 54.733 52.6189 54.7306C52.6474 54.7306 52.6759 54.7354 52.705 54.7354C52.7341 54.7354 52.7656 54.7354 52.7929 54.7354C52.8536 54.7354 52.9142 54.7243 52.9749 54.7235C53.0355 54.7227 53.0961 54.7068 53.1568 54.6926C53.2174 54.6783 53.2823 54.6688 53.346 54.6466L53.4418 54.618L53.5128 54.5942L53.5479 54.5839C53.5595 54.5799 53.5716 54.5728 53.5831 54.5673L53.6553 54.5339L53.728 54.4911L53.7656 54.4705L53.8014 54.4435L53.8748 54.3912L53.9451 54.3309C54.1837 54.1273 54.3786 53.8475 54.5115 53.518C54.6154 53.2392 54.661 52.9295 54.6437 52.6202L54.6389 52.5108C54.6328 52.3734 54.6625 52.2374 54.7232 52.1249C54.7838 52.0125 54.8719 51.9302 54.9729 51.8917C55.0739 51.8531 55.1819 51.8605 55.2793 51.9126C55.3767 51.9646 55.4577 52.0584 55.5091 52.1785L55.5158 52.1713Z" fill="#000072"/>
<path d="M45.3195 47.321C45.3282 48.5403 46.601 49.6062 47.578 50.2459C47.91 50.4631 48.2918 50.5764 48.6805 50.573C49.0691 50.5697 49.4492 50.4499 49.7779 50.2271C50.7451 49.5709 52.0019 48.4825 51.9926 47.2633C51.9778 45.2828 45.3046 45.3406 45.3195 47.321Z" fill="#000072"/>
<g opacity="0.35">
<path d="M46.7343 47.1267C46.7343 47.368 47.276 47.5766 47.6904 47.7014C47.9965 47.7874 48.3209 47.7848 48.6256 47.6938C49.038 47.5627 49.5716 47.3453 49.5716 47.104C49.5722 46.7127 46.7343 46.7354 46.7343 47.1267Z" fill="white"/>
</g>
<path d="M48.1596 53.4325C47.9639 53.2557 46.9994 52.2323 47.2747 49.4176C47.2953 49.2048 47.4395 49.0062 47.6758 48.8656C47.9121 48.7249 48.2211 48.6538 48.5348 48.6677C48.8484 48.6816 49.1411 48.7795 49.3484 48.9398C49.5557 49.1001 49.6606 49.3098 49.6401 49.5226C49.4251 51.7384 50.0794 52.4889 50.0856 52.4963C50.0763 52.4854 50.0657 52.475 50.0539 52.4653L48.1596 53.4325Z" fill="#000072"/>
<path d="M66.2815 35.4227C66.5405 34.3364 62.2176 30.7557 59.6037 31.6465C56.9899 32.5372 57.39 34.8801 58.9686 35.5622C61.2649 36.5512 66.0233 36.5089 66.2815 35.4227Z" fill="#6E787A"/>
<path d="M35.816 37.684C35.489 36.7271 37.972 32.96 39.893 33.4583C41.814 33.9567 41.86 36.134 40.8665 36.9412C39.4231 38.1142 36.1431 38.641 35.816 37.684Z" fill="#6E787A"/>
<path d="M52.9456 58.0796C51.225 60.2168 53.6565 64.7479 50.1626 64.8706C48.8003 64.9184 47.8664 63.7139 47.4589 62.2571C47.0146 60.6685 47.1912 58.7773 48.1092 57.8691C48.3707 57.6108 48.9248 57.3168 49.8677 57.6157C51.3093 56.9407 52.1696 57.3266 52.6003 57.6875C52.7351 57.796 52.8518 57.9286 52.9456 58.0796Z" fill="#FF8080"/>
<path d="M52.9456 57.6617C51.1518 59.9304 53.6867 64.7402 50.0443 64.8705C48.6241 64.9213 47.6505 63.6426 47.2257 62.0963C47.2257 62.0963 48.5928 64.124 49.8809 63.601C51.4781 62.9535 51.1442 61.7771 51.415 59.4764C51.5253 58.5567 52.0369 57.6773 52.5815 57.2454C52.7235 57.3603 52.8466 57.501 52.9456 57.6617Z" fill="#F26666"/>
<path d="M50.0852 64.8723C48.643 64.8723 47.3964 63.8566 46.7347 62.1345C46.0234 60.283 46.0365 57.5723 47.4621 56.1967C47.7384 55.9297 48.4974 55.3761 49.7976 55.6728C52.0192 54.7833 53.3707 55.8735 53.7849 56.6033C53.872 56.7567 53.9109 56.9354 53.896 57.1137C53.8811 57.292 53.8131 57.4608 53.7019 57.5956C53.1506 58.2629 53.147 59.4118 53.1428 60.5229C53.1428 61.4698 53.1362 62.4539 52.7943 63.2607C52.3599 64.2846 51.4845 64.8263 50.1915 64.8705C50.1545 64.8717 50.1187 64.8723 50.0852 64.8723ZM49.0708 57.2819C48.7486 57.2819 48.5935 57.4006 48.5403 57.4498C47.7968 58.1676 47.6489 60.0223 48.2169 61.5007C48.4646 62.1446 49.044 63.2203 50.1395 63.1818C51.3974 63.1389 51.5358 62.6048 51.543 60.5197C51.5472 59.4226 51.5508 58.2074 52.0526 57.1777C51.7161 57.0041 51.1253 56.9063 50.1724 57.3412C50.0016 57.4195 49.8104 57.4322 49.6317 57.3772C49.45 57.3174 49.2611 57.2853 49.0708 57.2819Z" fill="#000072"/>
<path d="M48.4905 60.7386C48.491 60.7515 48.4924 60.7643 48.4944 60.7769L48.4974 60.7911V60.7878L48.4929 60.7742L48.4831 60.743L48.4639 60.6791L48.4274 60.5502C48.4037 60.4638 48.381 60.377 48.3608 60.2896C48.3194 60.1155 48.2843 59.9385 48.2557 59.7585C48.1945 59.3909 48.1697 59.017 48.1818 58.6435C48.1884 58.4466 48.2098 58.2507 48.2459 58.0578C48.2823 57.8539 48.3385 57.655 48.4135 57.4645C48.4935 57.2636 48.5956 57.0744 48.7173 56.9012C48.8457 56.7263 48.9933 56.5697 49.1567 56.4352L49.1611 56.4314C49.2206 56.3783 49.2892 56.3391 49.3627 56.3161C49.4362 56.293 49.5131 56.2867 49.5889 56.2973C49.6647 56.308 49.7377 56.3354 49.8037 56.3781C49.8696 56.4207 49.9272 56.4777 49.9728 56.5455C50.0185 56.6134 50.0513 56.6907 50.0693 56.7729C50.0874 56.8552 50.0903 56.9406 50.0779 57.0241C50.0654 57.1076 50.0379 57.1874 49.997 57.2589C49.9561 57.3303 49.9026 57.3919 49.8397 57.4399C49.8192 57.4567 49.7978 57.472 49.7756 57.4858C49.6844 57.5414 49.5992 57.6083 49.5216 57.6852C49.4431 57.7697 49.3742 57.8646 49.3165 57.9677C49.2536 58.0808 49.2024 58.2014 49.1636 58.3271C49.1201 58.4625 49.0871 58.6018 49.065 58.7434C49.0182 59.0468 49.0017 59.355 49.0157 59.6624C49.0216 59.8203 49.0339 59.9793 49.0517 60.1382C49.0605 60.2176 49.0709 60.2968 49.0827 60.3759L49.1015 60.4939L49.1118 60.5529L49.1173 60.5835L49.1202 60.6004L49.1256 60.6272C49.1291 60.6452 49.1316 60.6635 49.133 60.6818C49.1373 60.775 49.1086 60.8663 49.0532 60.9365C48.9977 61.0066 48.9198 61.0501 48.8359 61.0577C48.752 61.0653 48.6687 61.0364 48.6037 60.9772C48.5386 60.9179 48.497 60.833 48.4875 60.7403L48.4905 60.7386Z" fill="#000072"/>
<path d="M67.2163 47.2609C67.216 47.2637 67.216 47.2666 67.2163 47.2693C67.2163 47.2693 67.2164 47.2693 67.2124 47.2693C67.2084 47.2654 67.2049 47.2608 67.2021 47.2558C67.1941 47.2435 67.1861 47.228 67.1764 47.2118L67.1194 47.1085L66.9956 46.8895C66.9088 46.7428 66.8244 46.5936 66.7348 46.4476C66.5563 46.1549 66.3754 45.8661 66.19 45.5864C65.8315 45.0388 65.4381 44.5217 65.013 44.0391C64.8169 43.8166 64.6072 43.61 64.3855 43.4208C64.1844 43.25 63.9677 43.1043 63.7391 42.986C63.6854 42.9602 63.6324 42.935 63.5799 42.9124L63.399 42.8394C63.2697 42.7911 63.1402 42.748 63.0105 42.7101C62.7591 42.6354 62.5023 42.5864 62.2432 42.5635C61.7476 42.5099 61.2476 42.5842 60.781 42.7806C60.3143 42.9771 59.893 43.2907 59.5487 43.698C59.1603 44.1486 58.8265 44.6557 58.556 45.2059C58.261 45.7795 58.0157 46.414 57.7572 47.0794L57.7515 47.093C57.7047 47.2108 57.6246 47.3075 57.5238 47.368C57.4231 47.4285 57.3074 47.4493 57.195 47.4271C57.0826 47.4049 56.98 47.3409 56.9033 47.2453C56.8266 47.1497 56.7802 47.0279 56.7714 46.8992C56.7269 46.0834 56.8092 45.2652 57.0144 44.4816C57.228 43.6495 57.5863 42.8742 58.0682 42.2011C58.585 41.4839 59.245 40.9161 59.9937 40.5446C60.3753 40.3589 60.7761 40.2287 61.1866 40.1569C61.5908 40.0861 62.0009 40.0686 62.4086 40.1046C62.8047 40.1418 63.1965 40.2225 63.5788 40.3456C63.7659 40.4102 63.949 40.478 64.1287 40.5549C64.323 40.6371 64.5121 40.7342 64.6947 40.8456C65.0511 41.0675 65.3829 41.3364 65.6834 41.6467C65.9655 41.9352 66.2254 42.2503 66.4604 42.5887C66.9026 43.2312 67.2728 43.9332 67.5626 44.6787C67.7061 45.041 67.8309 45.4125 67.9363 45.7912C67.9883 45.9811 68.039 46.1704 68.0795 46.3668C68.1001 46.465 68.1218 46.5606 68.1366 46.6653L68.1623 46.8249L68.1748 46.9134L68.1908 47.0426C68.2153 47.1892 68.1876 47.3408 68.1138 47.4644C68.04 47.588 67.926 47.6735 67.7967 47.7023C67.6674 47.7311 67.5333 47.7009 67.4237 47.6182C67.314 47.5356 67.2376 47.4071 67.2112 47.2609H67.2163Z" fill="#000072"/>
<path d="M31.9792 47.0334C31.9997 46.85 32.0257 46.666 32.057 46.4813C32.0861 46.2957 32.1239 46.1115 32.1639 45.9265C32.2446 45.5517 32.3455 45.1831 32.4661 44.8231C32.7147 44.0705 33.0577 43.3651 33.4839 42.73C33.9349 42.0605 34.4843 41.4898 35.1066 41.0446C35.1868 40.9898 35.2646 40.9308 35.3471 40.8814C35.4296 40.8319 35.5116 40.7777 35.5941 40.7337C35.7573 40.6416 35.927 40.5569 36.1007 40.479C36.2775 40.3999 36.4579 40.3321 36.641 40.2758C36.8284 40.2171 37.0188 40.1719 37.2109 40.1403C37.4081 40.1076 37.6068 40.0899 37.8059 40.0875C38.0086 40.0825 38.2114 40.0954 38.4124 40.1261C38.8197 40.1863 39.2172 40.3157 39.5924 40.5102C39.9589 40.701 40.3015 40.949 40.6109 41.2472C40.9064 41.5337 41.173 41.8584 41.4056 42.2151C42.0574 43.2293 42.4247 44.4533 42.4572 45.7199C42.4686 46.1273 42.4356 46.5347 42.359 46.9325C42.3331 47.0629 42.271 47.1797 42.1824 47.2649C42.0939 47.3501 41.9837 47.3989 41.869 47.4038C41.7542 47.4087 41.6413 47.3695 41.5476 47.2922C41.4538 47.2148 41.3846 47.1036 41.3504 46.9758L41.3423 46.9453C41.1835 46.3314 40.975 45.7364 40.7195 45.1685C40.4852 44.6424 40.1921 44.1547 39.848 43.7183C39.5485 43.3294 39.1751 43.0278 38.7575 42.8377C38.3618 42.6716 37.9365 42.6249 37.5212 42.7022C37.2915 42.7393 37.0656 42.8029 36.8467 42.8919C36.7305 42.9366 36.6143 42.9867 36.4981 43.0449C36.3819 43.1032 36.2744 43.1601 36.164 43.2231C36.0536 43.2861 35.9479 43.3586 35.8421 43.4317C35.7893 43.469 35.7376 43.509 35.6847 43.5476L35.5307 43.6715C35.3246 43.8478 35.1289 44.0402 34.9451 44.2473C34.5554 44.6911 34.2031 45.1774 33.8929 45.6996C33.7297 45.9706 33.5711 46.2517 33.4119 46.5416C33.2527 46.8315 33.0999 47.1336 32.9314 47.4405C32.8665 47.5545 32.7705 47.6398 32.659 47.6825C32.5474 47.7252 32.4268 47.7229 32.3165 47.676C32.2062 47.6291 32.1127 47.5402 32.051 47.4238C31.9893 47.3073 31.9629 47.1701 31.9763 47.0341L31.9792 47.0334Z" fill="#000072"/>
<path d="M79.6939 26.6298C79.6059 26.6966 79.5004 26.7348 79.391 26.7395C79.3134 26.7426 79.2361 26.7295 79.1636 26.7011C79.0916 26.6729 79.0242 26.6335 78.9639 26.5844C78.8978 26.5296 78.8362 26.4695 78.7795 26.4046C78.6824 26.2961 78.6044 26.1958 78.5269 26.0949C78.3745 25.8956 78.2332 25.7 78.0906 25.5064C77.8073 25.1185 77.5197 24.7407 77.226 24.371C76.6385 23.6294 76.0122 22.921 75.3498 22.2492C74.6872 21.5809 73.9916 20.9478 73.2659 20.3525C72.904 20.0542 72.5322 19.7691 72.1561 19.4903L71.8728 19.284L71.7302 19.1818L71.6503 19.1232C71.6221 19.1017 71.5938 19.0815 71.5661 19.0601C71.3372 18.8829 71.1273 18.6812 70.9399 18.4583C70.8441 18.3422 70.7548 18.2205 70.6726 18.0938C70.5907 17.9642 70.5166 17.8296 70.4508 17.6907C70.3205 17.4101 70.2265 17.1133 70.1712 16.8077C70.0721 16.2241 70.0865 15.6263 70.2136 15.0485C70.3291 14.5124 70.5018 13.991 70.7285 13.4937C70.9423 13.0162 71.1888 12.5548 71.466 12.113C71.7388 11.6765 72.0297 11.2579 72.3386 10.8571C72.6459 10.4566 72.966 10.0681 73.301 9.69654C73.9669 8.95172 74.6787 8.25161 75.4322 7.60054C75.8113 7.27633 76.2009 6.96222 76.6127 6.66135C76.8192 6.50996 77.033 6.36552 77.2641 6.21982C77.3802 6.14854 77.5007 6.07853 77.6371 6.00851C77.7053 5.97319 77.7784 5.93787 77.8633 5.90255C77.971 5.85617 78.0827 5.82006 78.1969 5.79469C78.2148 5.79027 78.2387 5.78586 78.2633 5.78207L78.2996 5.77703C78.3112 5.77703 78.3192 5.77387 78.3536 5.77072C78.4598 5.76163 78.5667 5.76908 78.6707 5.7928C78.7535 5.8113 78.8339 5.83945 78.9104 5.87669C78.9673 5.90452 79.022 5.937 79.0739 5.97382C79.1472 6.02545 79.2153 6.0844 79.2773 6.1498C79.3211 6.19646 79.3621 6.24574 79.4002 6.2974C79.4595 6.37598 79.5139 6.45836 79.563 6.54403C79.6067 6.61972 79.6436 6.69099 79.678 6.76037C79.7988 7.0133 79.9043 7.27367 79.9938 7.53999C80.1665 8.03954 80.2956 8.52838 80.416 9.01721C80.8775 10.9726 81.1535 12.9203 81.3378 14.8864C81.4288 15.8683 81.4902 16.8531 81.5222 17.8408C81.5572 18.828 81.5547 19.8176 81.5074 20.8104C81.4601 21.8032 81.3655 22.7998 81.1498 23.7964C81.0434 24.3062 80.8867 24.8035 80.6821 25.2806C80.5728 25.5316 80.4401 25.7711 80.2857 25.9959C80.1219 26.2376 79.9222 26.4515 79.6939 26.6298ZM79.1323 25.8514C79.4168 25.6338 79.6454 25.2781 79.8175 24.8807C79.9886 24.4645 80.1163 24.0308 80.1985 23.587C80.2863 23.1286 80.3479 22.6652 80.3828 22.1994C80.4222 21.7301 80.4363 21.2532 80.44 20.7808C80.44 18.8772 80.2396 16.9622 79.9404 15.0706C79.791 14.1244 79.6128 13.1833 79.4125 12.2498C79.2121 11.3163 78.9885 10.3904 78.7279 9.49028C78.5995 9.04181 78.4563 8.59839 78.3014 8.18588C78.2304 7.99455 78.1483 7.80772 78.0556 7.6264C78.0281 7.57177 77.9958 7.51983 77.9591 7.47123C77.9591 7.47123 77.9591 7.47123 77.9671 7.48196C77.9878 7.50375 78.0106 7.5232 78.0353 7.53999C78.0629 7.55964 78.0921 7.57673 78.1226 7.59108C78.1723 7.61569 78.2247 7.63412 78.2787 7.64595C78.3535 7.66264 78.4304 7.66774 78.5067 7.66109L78.5392 7.65794H78.5534L78.5761 7.65415C78.6161 7.64532 78.5952 7.64911 78.5761 7.66046C78.5571 7.67181 78.5147 7.68821 78.4809 7.7084C78.4059 7.74877 78.3211 7.79986 78.235 7.85473C78.0617 7.96575 77.8835 8.09442 77.7041 8.22562C77.3464 8.4899 76.9918 8.77942 76.6459 9.07966C76.2999 9.3799 75.957 9.68897 75.6251 10.0094C75.2933 10.3298 74.967 10.6559 74.6542 10.9934C74.0287 11.6558 73.4515 12.3646 72.9273 13.114C72.6757 13.4777 72.4458 13.8569 72.2391 14.2493C72.0422 14.6227 71.8854 15.0169 71.7714 15.425C71.6648 15.7929 71.6273 16.1782 71.6608 16.5604C71.699 16.9168 71.8298 17.2562 72.0393 17.5431C72.1515 17.6973 72.2797 17.8386 72.4216 17.9645C72.4394 17.9809 72.4591 17.9966 72.4775 18.013C72.4959 18.0294 72.5131 18.0439 72.5389 18.0648L72.6803 18.1814L72.9617 18.4174C73.3348 18.7327 73.6992 19.0601 74.0593 19.3912C74.7789 20.0542 75.4641 20.7549 76.1192 21.4816C76.7743 22.2082 77.398 22.9651 77.9886 23.7441C78.2848 24.1326 78.57 24.5294 78.849 24.9211C78.9903 25.1166 79.1304 25.3121 79.2693 25.4957C79.3381 25.5865 79.4076 25.6761 79.4703 25.748C79.4922 25.7731 79.5156 25.7969 79.5403 25.8193C79.5256 25.8092 79.5097 25.8012 79.493 25.7953C79.4476 25.7789 79.3997 25.7716 79.3516 25.7738C79.2727 25.7773 79.1965 25.8042 79.1323 25.8514Z" fill="#000072"/>
<path d="M79.9159 25.7718C79.5226 26.0537 77.7829 22.2295 72.3382 18.3192C67.5622 14.8895 77.6083 6.86387 78.8922 6.72107C80.176 6.57827 83.5381 23.175 79.9159 25.7718Z" fill="white"/>
<g opacity="0.3">
<path d="M81.597 21.9319C81.4078 23.7808 80.9474 25.2415 80.0873 25.8785C79.6988 26.1653 77.979 22.2508 72.5921 18.2468C67.868 14.7375 77.805 6.51967 79.0751 6.3741C79.3772 6.3407 79.7927 7.26955 80.2102 8.74473C79.6811 8.6647 78.9054 8.87958 77.9204 10.0529C76.3022 11.9837 73.7437 16.27 78.2054 20.5588C79.9075 22.1978 80.9544 22.3591 81.597 21.9319Z" fill="#000072"/>
</g>
<path d="M79.8614 26.6463C79.7921 26.7029 79.7091 26.7354 79.6231 26.7396C79.5611 26.7422 79.4992 26.7309 79.4412 26.7064C79.3815 26.6811 79.3258 26.6455 79.276 26.601C79.2167 26.5489 79.1615 26.4915 79.1108 26.4292C79.0228 26.3231 78.9502 26.2222 78.8806 26.1213C78.7384 25.9207 78.6066 25.7227 78.4731 25.5266C78.2077 25.1332 77.9389 24.7493 77.6632 24.3712C77.1128 23.6162 76.5263 22.8945 75.9064 22.2091C75.2862 21.5265 74.6352 20.8795 73.9557 20.2705C73.6172 19.9652 73.2695 19.6727 72.9196 19.3871L72.6542 19.1751L72.5166 19.0703L72.4429 19.0116C72.4176 18.9911 72.3917 18.9707 72.367 18.9477C72.16 18.7731 71.9705 18.5744 71.8017 18.3549C71.7155 18.2414 71.6354 18.1224 71.5617 17.9985C71.4885 17.872 71.4224 17.7406 71.3637 17.6051C71.2475 17.3326 71.1639 17.0444 71.115 16.7479C71.0277 16.1753 71.0432 15.5893 71.1605 15.0233C71.2687 14.4924 71.4293 13.9764 71.6394 13.4846C71.8401 13.0085 72.0709 12.5487 72.3301 12.1088C72.8372 11.2502 73.4089 10.4408 74.0391 9.68928C74.66 8.94098 75.3229 8.23698 76.0238 7.58146C76.3761 7.25507 76.7376 6.94273 77.1175 6.63806C77.3086 6.48668 77.506 6.34232 77.7173 6.20053C77.8238 6.13027 77.9331 6.06064 78.0557 5.99294C78.1168 5.95845 78.1824 5.92459 78.2566 5.89074C78.3483 5.84812 78.4433 5.81477 78.5404 5.7911C78.5548 5.78727 78.5744 5.78343 78.5945 5.78024L78.6244 5.77513C78.6337 5.77513 78.6406 5.77513 78.6676 5.77002C78.7513 5.76256 78.8354 5.7688 78.9174 5.78854C78.9832 5.80459 79.0471 5.8288 79.108 5.86072C79.1535 5.88517 79.1974 5.91335 79.2392 5.94503C79.2995 5.99094 79.3556 6.04336 79.4067 6.10152C79.4443 6.14416 79.4797 6.18916 79.5126 6.2363C79.6065 6.37407 79.6884 6.52143 79.7572 6.67638C79.8672 6.92512 79.9633 7.18109 80.0451 7.44286C80.2056 7.94107 80.3271 8.43162 80.4411 8.9228C80.878 10.8863 81.1456 12.8555 81.3281 14.8394C81.4187 15.8307 81.4816 16.8248 81.5169 17.8216C81.5543 18.8174 81.5566 19.817 81.5169 20.8185C81.4772 21.8201 81.3903 22.8242 81.1917 23.825C81.0945 24.3351 80.9502 24.8328 80.7611 25.3101C80.6613 25.5592 80.5399 25.7969 80.3985 26.0197C80.2502 26.2586 80.069 26.47 79.8614 26.6463ZM79.4326 26.0076C79.7152 25.7732 79.9351 25.4002 80.1003 24.9895C80.2634 24.5624 80.3856 24.1176 80.4647 23.6622C80.5484 23.1946 80.6076 22.722 80.642 22.2467C80.68 21.769 80.6961 21.2886 80.6995 20.8032C80.7093 18.8685 80.5268 16.9236 80.2603 15.0016C80.1253 14.0397 79.9652 13.0837 79.7803 12.1337C79.5995 11.1845 79.3912 10.2418 79.1471 9.32328C79.0268 8.86531 78.8938 8.41181 78.7442 7.98642C78.6766 7.7856 78.598 7.58957 78.5087 7.39943C78.4789 7.33386 78.4434 7.27161 78.4028 7.21355C78.3982 7.20781 78.3953 7.20525 78.3988 7.20972C78.4115 7.22331 78.4251 7.2357 78.4397 7.24677C78.4578 7.26116 78.4771 7.27377 78.4972 7.28445C78.5328 7.30351 78.5703 7.31787 78.6089 7.32725C78.6637 7.34007 78.7199 7.34416 78.7758 7.33938H78.7989H78.8081H78.8213C78.842 7.33427 78.8161 7.33938 78.7902 7.35535C78.7643 7.37132 78.7269 7.38729 78.6895 7.40901C78.6141 7.45244 78.5312 7.50673 78.4483 7.56358C78.2808 7.67855 78.111 7.81013 77.9406 7.94682C77.601 8.21828 77.2654 8.51401 76.9385 8.81996C76.2809 9.43298 75.6543 10.0857 75.0614 10.7751C74.4708 11.4538 73.9271 12.1808 73.4347 12.95C73.2 13.3229 72.9862 13.7116 72.7946 14.1138C72.6076 14.5031 72.4594 14.9139 72.3526 15.3389C72.2508 15.7306 72.2176 16.1404 72.2547 16.5461C72.2968 16.9305 72.4307 17.2955 72.6427 17.6032C72.7543 17.7657 72.8815 17.9143 73.022 18.0464C73.0393 18.0643 73.0583 18.0803 73.0796 18.0975L73.1371 18.1506L73.2695 18.2674L73.5332 18.5031C73.8831 18.8193 74.2239 19.1463 74.5624 19.4791C75.237 20.144 75.8799 20.8473 76.4941 21.578C77.1083 22.3087 77.6925 23.0707 78.2451 23.8557C78.5226 24.2472 78.7896 24.6477 79.0544 25.0437C79.1868 25.2418 79.3181 25.4398 79.4493 25.6275C79.5143 25.7202 79.5805 25.8121 79.6421 25.8869C79.6657 25.9163 79.6911 25.9438 79.7181 25.9693C79.7239 25.9757 79.7273 25.9725 79.6945 25.9584C79.6625 25.9454 79.6284 25.9398 79.5943 25.9418C79.536 25.9448 79.4798 25.9668 79.4326 26.005V26.0076Z" fill="#000072"/>
<path d="M87.842 139.03C87.4107 140.047 86.6094 140.93 85.4775 141.083C83.2175 141.385 79.484 140.42 73.4996 138.952C69.8552 138.059 67.6334 133.17 65.3392 127.792C66.925 128.616 74.3248 132.208 85.0713 133.406C86.1574 134.201 87.3268 134.508 88.0487 136.273C88.3354 136.975 88.2553 138.062 87.842 139.03Z" fill="#FFAD40"/>
<path d="M87.2655 139.029C86.8451 140.046 86.0642 140.929 84.961 141.083C82.7585 141.385 79.12 140.42 73.2877 138.951C73.2405 138.94 73.1933 138.928 73.1486 138.915C73.1165 138.904 73.0857 138.897 73.0555 138.887L72.9586 138.856C72.9183 138.843 72.8762 138.828 72.8327 138.814L72.7377 138.777C72.6918 138.761 72.6477 138.743 72.6031 138.723C72.3475 138.618 72.1011 138.492 71.8662 138.347C71.8171 138.317 71.7661 138.284 71.7176 138.253C71.6692 138.221 71.6188 138.187 71.571 138.153C71.5232 138.12 71.4747 138.086 71.425 138.05C71.015 137.743 70.6357 137.397 70.2923 137.019C70.2174 136.937 70.1451 136.854 70.0708 136.77C69.7682 136.417 69.4852 136.048 69.2231 135.665C69.1879 135.615 69.1527 135.565 69.1199 135.514C68.1678 134.102 67.3126 132.365 66.4826 130.483C66.3341 130.147 66.1872 129.806 66.0421 129.461L65.8653 129.045C65.6903 128.633 65.5147 128.214 65.3392 127.792C66.0647 128.179 68.0313 129.172 70.9933 130.243C72.0468 133.082 73.1329 135.313 74.2228 135.833C76.5997 136.97 82.9215 138.613 87.2655 139.029Z" fill="#F9D3B7"/>
<path d="M84.7755 141.542C83.1453 142.197 77.81 142.729 72.9341 140.273C70.5307 139.061 68.5011 136.024 66.7463 132.394C66.4037 131.684 66.0682 130.948 65.7455 130.203C63.8853 125.906 62.1107 120.965 59.619 117.321L64.1473 114.566L77.8905 101.099C79.9099 108.323 83.1945 132.753 84.3691 133.763L84.4279 133.813C85.3066 134.567 86.5035 135.487 87.0735 136.819C87.6953 138.264 86.7725 140.738 84.7755 141.542Z" fill="#6E787A"/>
<path d="M81.5452 118.259C71.4878 113.807 74.2724 104.69 74.2724 104.69L75.8705 102.821L78.1044 101.099C79.0825 104.452 80.3495 111.565 81.5452 118.259Z" fill="#6E787A"/>
<path d="M84.836 141.551C83.2454 142.195 78.0399 142.718 73.2827 140.303C70.9378 139.112 68.9576 136.126 67.2455 132.557C69.273 133.375 72.3799 134.165 76.5492 133.945C79.7446 133.777 82.3763 133.796 84.4968 133.952C85.3541 134.694 86.5219 135.598 87.078 136.907C87.6847 138.328 86.7844 140.76 84.836 141.551Z" fill="white"/>
<g opacity="0.3">
<path d="M74.1867 136.147C71.0285 132.276 68.9423 123.762 67.215 118.429C66.3062 115.626 65.494 113.703 64.6786 113.791C64.662 113.797 64.6448 113.801 64.6275 113.803C51.2252 116.157 34.3651 109.954 32.6113 96.5499C32.3546 97.9734 32.279 99.419 32.46 100.888C33.9665 113.203 49.2141 119.394 61.5992 119.074C63.3265 122.311 64.7183 126.098 66.1612 129.483C68.1086 134.053 70.4155 138.12 73.2533 139.572C78.0664 142.036 83.3322 141.502 84.9384 140.845C86.3725 140.259 87.3506 138.718 87.5587 137.357C84.1262 139.263 76.4028 138.865 74.1867 136.147Z" fill="#000072"/>
</g>
<path d="M78.6946 100.596C78.8597 101.008 78.9991 101.424 79.1285 101.841C79.2578 102.259 79.3759 102.677 79.4857 103.097C79.7055 103.937 79.8888 104.781 80.0609 105.627C80.4093 107.317 80.7139 109.01 80.9989 110.706L81.8403 115.79L82.6954 120.865C82.9818 122.554 83.2748 124.241 83.5745 125.924C83.7252 126.767 83.88 127.606 84.0391 128.442C84.1998 129.279 84.3656 130.113 84.5489 130.933C84.6406 131.343 84.7373 131.75 84.8422 132.14C84.8949 132.335 84.9508 132.526 85.0092 132.699C85.0381 132.785 85.0682 132.867 85.0952 132.931C85.1084 132.962 85.1216 132.989 85.1285 133.003C85.1354 133.017 85.1341 133.012 85.1285 133.006C85.1175 132.989 85.1055 132.973 85.0927 132.958C85.0877 132.952 85.077 132.939 85.0676 132.93C85.0582 132.921 85.0437 132.905 85.0293 132.891L85.0437 132.904L85.1021 132.955L85.2208 133.057L85.4644 133.266C85.6289 133.409 85.7965 133.555 85.9667 133.709C86.3181 134.024 86.648 134.362 86.9543 134.721C87.2827 135.106 87.565 135.528 87.7957 135.98C87.8252 136.038 87.8528 136.098 87.8811 136.157L87.9213 136.247L87.9414 136.292L87.9508 136.315L87.9621 136.343C88.0203 136.487 88.0686 136.635 88.1065 136.785C88.1762 137.069 88.2137 137.36 88.2183 137.652C88.2244 138.196 88.1395 138.737 87.9671 139.252C87.7206 140.01 87.3108 140.703 86.7672 141.282C86.5811 141.478 86.38 141.658 86.1657 141.821C85.9493 141.987 85.7181 142.133 85.4751 142.256C85.4123 142.288 85.3495 142.319 85.2867 142.345C85.2239 142.371 85.1611 142.404 85.0983 142.427C85.0355 142.45 84.9684 142.478 84.91 142.498L84.726 142.561C84.2687 142.697 83.8023 142.8 83.3302 142.869C82.8738 142.939 82.4204 142.983 81.9684 143.011C81.0676 143.065 80.1642 143.052 79.2653 142.973C78.8179 142.931 78.3713 142.876 77.9255 142.808C77.4809 142.735 77.0383 142.651 76.5987 142.547C76.1592 142.443 75.7229 142.326 75.2915 142.187C75.0749 142.123 74.862 142.044 74.6479 141.97C74.5406 141.933 74.4351 141.891 74.329 141.851C74.2229 141.811 74.1167 141.772 74.015 141.724C73.8053 141.637 73.5956 141.551 73.3872 141.454C73.1787 141.358 72.9753 141.261 72.7712 141.16C72.6726 141.113 72.5596 141.05 72.4504 140.99C72.3411 140.931 72.2369 140.864 72.1308 140.8C71.9217 140.67 71.722 140.529 71.5293 140.384C70.7595 139.797 70.114 139.119 69.5364 138.408C69.2476 138.053 68.9769 137.689 68.7201 137.318C68.4633 136.947 68.2178 136.572 67.9861 136.192C67.5196 135.433 67.0996 134.655 66.7034 133.871C66.3072 133.087 65.9386 132.29 65.5889 131.494C65.4131 131.096 65.2423 130.694 65.0759 130.293C64.9095 129.891 64.745 129.494 64.5843 129.091L63.6312 126.7C63.3172 125.906 62.9964 125.115 62.6699 124.331C62.3434 123.548 62.0037 122.773 61.6653 122.001L60.6607 119.688L60.1584 118.531C59.9895 118.145 59.8193 117.76 59.6561 117.364V117.356C59.6128 117.25 59.6073 117.132 59.6406 117.023C59.6738 116.914 59.7438 116.82 59.8386 116.757C59.9333 116.694 60.0468 116.666 60.1597 116.678C60.2725 116.69 60.3778 116.741 60.4573 116.823C61.0668 117.464 61.6135 118.163 62.0897 118.909C62.5648 119.645 62.9971 120.407 63.3844 121.193C63.7712 121.974 64.1197 122.769 64.4644 123.562C64.8091 124.355 65.1406 125.152 65.469 125.945L66.4522 128.318C66.7819 129.105 67.1084 129.888 67.4531 130.655C68.1437 132.191 68.889 133.693 69.7499 135.094C70.1704 135.787 70.6356 136.452 71.1425 137.083C71.6448 137.699 72.1892 138.264 72.7806 138.712C72.9282 138.824 73.0789 138.929 73.2308 139.025C73.308 139.07 73.3834 139.122 73.4612 139.163C73.5391 139.203 73.6119 139.248 73.7061 139.292C73.8838 139.381 74.0615 139.471 74.2436 139.551C74.4257 139.631 74.6077 139.712 74.7911 139.789C74.8828 139.829 74.9795 139.863 75.0692 139.899C75.159 139.935 75.2576 139.972 75.3493 140.005C75.5376 140.068 75.726 140.139 75.9144 140.195C76.2911 140.321 76.6816 140.422 77.0709 140.517C78.6356 140.887 80.2446 141.031 81.8497 140.945C82.2478 140.923 82.6433 140.882 83.0295 140.828C83.4012 140.776 83.7688 140.698 84.1295 140.594C84.2792 140.549 84.4248 140.492 84.5646 140.422C84.7023 140.354 84.8331 140.273 84.9552 140.179C85.0812 140.083 85.1996 139.978 85.3093 139.863C85.4206 139.744 85.5233 139.618 85.6163 139.484C85.8057 139.213 85.9551 138.916 86.0596 138.602C86.1625 138.304 86.2149 137.99 86.2147 137.674C86.2141 137.537 86.1978 137.4 86.1664 137.267C86.1524 137.209 86.1348 137.153 86.1136 137.098L86.1098 137.088L86.1036 137.074L86.0916 137.045L86.0672 136.988C86.0489 136.951 86.032 136.913 86.0132 136.876C85.8542 136.563 85.6595 136.27 85.433 136.003C85.1853 135.712 84.9184 135.437 84.6343 135.181C84.488 135.046 84.3342 134.91 84.1766 134.773L83.9349 134.563L83.8093 134.455L83.7465 134.4L83.7 134.358C83.6756 134.336 83.6498 134.31 83.6329 134.292C83.6159 134.274 83.5946 134.25 83.5814 134.234C83.5355 134.177 83.4935 134.117 83.4558 134.054C83.4244 134.002 83.4012 133.959 83.3792 133.918C83.3378 133.836 83.3064 133.766 83.2781 133.698C83.2229 133.564 83.1802 133.445 83.1412 133.327C83.064 133.093 83.0019 132.872 82.9435 132.653C82.8273 132.215 82.7281 131.787 82.6333 131.359C82.4449 130.504 82.2792 129.655 82.1191 128.807C81.9589 127.958 81.8051 127.11 81.6576 126.263C81.3593 124.568 81.0749 122.874 80.793 121.18L79.9516 116.102L79.5159 113.568L79.0657 111.039L78.1515 106.003C77.8376 104.327 77.5544 102.646 77.3032 100.985C77.2767 100.808 77.3156 100.627 77.4126 100.477C77.5095 100.327 77.6578 100.218 77.8293 100.17C78.0009 100.123 78.1837 100.141 78.3432 100.22C78.5026 100.299 78.6277 100.435 78.6946 100.601V100.596Z" fill="#000072"/>
<path d="M77.9249 134.465C78.1676 134.699 78.3955 134.965 78.6057 135.259C78.8234 135.559 79.0185 135.893 79.1874 136.255C79.2747 136.444 79.3521 136.642 79.4188 136.848C79.4537 136.955 79.4835 137.066 79.5081 137.18C79.5331 137.294 79.5544 137.409 79.5715 137.525C79.6405 137.993 79.6561 138.474 79.6178 138.95C79.5785 139.452 79.4713 139.937 79.3026 140.377C79.1176 140.851 78.8539 141.249 78.5363 141.533C78.219 141.809 77.866 141.985 77.5001 142.048C77.1592 142.109 76.8144 142.106 76.4741 142.039L76.4532 142.036C76.2653 142.003 76.0941 141.861 75.9772 141.641C75.8604 141.422 75.8074 141.143 75.8301 140.866C75.8527 140.589 75.9491 140.336 76.098 140.164C76.2469 139.992 76.4361 139.914 76.624 139.947C76.6711 139.956 76.7176 139.971 76.7628 139.993C77.2173 140.214 77.6699 140.292 78.0397 140.102C78.2322 140.003 78.404 139.832 78.5381 139.606C78.6886 139.346 78.8017 139.045 78.8708 138.719C78.9476 138.37 78.9843 138.005 78.9796 137.638C78.9796 137.546 78.9741 137.455 78.9667 137.365C78.9592 137.276 78.9481 137.19 78.9356 137.092C78.9089 136.902 78.8721 136.715 78.8255 136.532C78.7273 136.152 78.6013 135.789 78.4497 135.449C78.2952 135.098 78.1196 134.769 77.9249 134.465Z" fill="#000072"/>
<path d="M42.1803 61.682C39.0046 62.9084 32.7421 63.9269 29.1295 65.5837C28.5842 65.8262 28.066 66.121 27.5829 66.4636L33.0362 78.219C24.1727 75.2444 16.9121 68.7226 17.7373 60.7199C17.8571 59.5999 18.1191 58.4981 18.5176 57.4388C22.0989 47.7971 35.8653 45.6552 42.7985 49.5532C49.6029 53.3795 47.9007 59.4721 42.1803 61.682Z" fill="#6E787A"/>
<g opacity="0.3">
<path d="M33.3255 78.1729C24.6013 75.1173 17.4536 68.415 18.2653 60.1896C18.3841 59.0437 18.6411 57.9164 19.0309 56.8322C19.5625 60.3364 21.6903 65.106 29.3103 65.2699C28.8341 65.5004 28.3811 65.7759 27.9575 66.0929L33.3255 78.1729Z" fill="#000072"/>
</g>
<path d="M42.2986 61.8497C39.8113 62.8455 35.386 63.7061 31.9091 64.8725C29.2549 64.6157 26.2403 63.4585 24.8628 59.8469C23.4033 56.0236 25.3132 51.6196 27.1774 49.3612C32.439 47.0438 38.8579 47.22 42.8997 49.5746C49.5495 53.4487 47.8836 59.6136 42.2986 61.8497Z" fill="white"/>
<g opacity="0.5">
<path d="M47.2201 55.7956C46.8619 53.9619 45.523 52.1187 42.9614 50.6126C36.1385 46.6068 22.5867 48.8098 19.0602 58.7183C18.6088 59.9643 18.3373 61.2681 18.2536 62.5906C18.0871 60.7505 18.3205 58.8153 19.0331 56.814C22.5584 46.9055 36.1095 44.7043 42.9342 48.7102C46.3939 50.745 47.6193 53.3967 47.2201 55.7956Z" fill="white"/>
</g>
<path d="M27.2793 65.7022C27.4595 65.524 27.6516 65.3579 27.8542 65.205C27.9538 65.1285 28.0541 65.054 28.1563 64.9819C28.2585 64.9099 28.362 64.8429 28.4661 64.7753C28.8806 64.5131 29.3099 64.2746 29.7519 64.0608C30.6194 63.6458 31.5122 63.2848 32.4251 62.9798C33.327 62.6708 34.2366 62.4112 35.1424 62.1553C36.0482 61.8994 36.952 61.6536 37.8488 61.4117C38.7456 61.1697 39.6373 60.9151 40.4952 60.6428C40.9244 60.5057 41.346 60.3603 41.7459 60.2005C42.1358 60.0446 42.5149 59.8637 42.881 59.659C43.5992 59.2605 44.2465 58.7483 44.7972 58.1427C45.3259 57.5625 45.721 56.8757 45.9553 56.1298C46.1752 55.404 46.2003 54.6341 46.0281 53.8958C45.8403 53.1343 45.4863 52.4226 44.9908 51.8109C44.4926 51.1702 43.8595 50.6041 43.1627 50.105C42.9881 49.9812 42.809 49.8615 42.6255 49.7461C42.5354 49.6868 42.4415 49.6318 42.3489 49.5756C42.2563 49.5193 42.163 49.4669 42.0704 49.4151C41.6963 49.2058 41.3103 49.0183 40.9142 48.8534C39.3173 48.1913 37.5518 47.8501 35.778 47.7617C33.9948 47.6752 32.2081 47.8315 30.468 48.226C28.7325 48.6114 27.0647 49.2502 25.5195 50.1214C23.9916 50.9927 22.6189 52.1141 21.5285 53.4567C21.3899 53.6228 21.2622 53.7966 21.1318 53.9684C21.068 54.0556 21.0073 54.1453 20.9453 54.2332C20.8834 54.321 20.8233 54.4107 20.7646 54.501C20.6445 54.6798 20.5352 54.8656 20.4241 55.0501C20.3692 55.143 20.3187 55.2396 20.2657 55.3319L20.1878 55.4734L20.1143 55.6174C19.72 56.3877 19.4031 57.1943 19.1683 58.0258C19.0488 58.4422 18.9537 58.8636 18.8738 59.2894C18.7974 59.7125 18.7428 60.1391 18.7103 60.5676C18.6461 61.422 18.6754 62.2807 18.7978 63.1289C19.0412 64.8246 19.6748 66.4616 20.5819 67.9508C21.4889 69.4399 22.6693 70.785 23.9992 71.9703C25.3455 73.1576 26.8174 74.1977 28.3894 75.0724C29.9696 75.956 31.6263 76.6986 33.3398 77.2913C33.5847 77.3765 33.7853 77.5544 33.8976 77.7859C34.0098 78.0174 34.0245 78.2836 33.9383 78.5258C33.8522 78.768 33.6723 78.9664 33.4382 79.0775C33.2042 79.1885 32.9351 79.203 32.6902 79.1178C30.8663 78.4869 29.1029 77.6964 27.4211 76.7555C25.726 75.8112 24.1391 74.6885 22.6879 73.407C21.2385 72.1143 19.9335 70.6308 18.9051 68.9484C17.8767 67.2659 17.1428 65.3793 16.8611 63.4031C16.7886 62.9098 16.7445 62.4128 16.7289 61.9146C16.7108 61.417 16.7208 60.9187 16.7589 60.4223C16.7974 59.927 16.8614 59.434 16.9505 58.9451C17.0419 58.4586 17.1517 57.9753 17.2878 57.5008C17.3204 57.3814 17.3593 57.2645 17.3945 57.1464L17.4488 56.9701L17.5082 56.7951L17.6282 56.4457L17.7605 56.0976C17.9407 55.6345 18.1454 55.1811 18.3737 54.7392L18.4586 54.5731L18.5487 54.4094C18.6094 54.3014 18.6681 54.1915 18.7314 54.0841C18.8591 53.8705 18.9869 53.6563 19.1255 53.4523C19.1894 53.3474 19.2609 53.2431 19.3337 53.1421C19.4066 53.041 19.4762 52.9373 19.549 52.8369C19.6991 52.6379 19.8473 52.4382 20.007 52.2468C21.2634 50.6989 22.8309 49.4246 24.5422 48.4478C26.2563 47.4807 28.1064 46.7712 30.0317 46.3426C31.9475 45.9084 33.9145 45.7366 35.8776 45.8322C36.3686 45.8549 36.8583 45.897 37.3468 45.9585C37.8367 46.0217 38.3247 46.0956 38.8102 46.1961C39.7891 46.3934 40.7472 46.6811 41.6718 47.0553C42.1405 47.2458 42.5975 47.4631 43.0407 47.7061C43.1524 47.7692 43.2642 47.8286 43.3703 47.8956C43.4763 47.9626 43.5849 48.022 43.6896 48.0902C43.9017 48.2222 44.1119 48.3606 44.3175 48.5059C44.7349 48.7944 45.1334 49.1086 45.5107 49.4467C45.8961 49.7963 46.2519 50.1767 46.5743 50.5839C47.2559 51.4212 47.7441 52.3959 48.0045 53.4396C48.1334 53.975 48.1916 54.5246 48.1776 55.0747C48.17 55.3498 48.1448 55.6241 48.1022 55.8961C48.0582 56.1665 47.9983 56.4342 47.9227 56.6978C47.611 57.7311 47.075 58.6846 46.352 59.4916C45.6528 60.2698 44.8291 60.9291 43.9138 61.4432C43.4661 61.6967 43.0017 61.9205 42.5239 62.1129C42.0551 62.2993 41.5913 62.4566 41.1301 62.6039C40.2078 62.8983 39.2911 63.139 38.379 63.3746C37.4668 63.6103 36.5579 63.8295 35.6553 64.0564C34.7528 64.2832 33.8585 64.5157 32.9725 64.7513C32.0866 64.987 31.2032 65.2264 30.3421 65.4969C29.9122 65.6321 29.4875 65.7767 29.0742 65.9391C28.9707 65.9789 28.8672 66.0187 28.7663 66.0617C28.6654 66.1046 28.5632 66.1457 28.4629 66.188C28.2636 66.2778 28.0669 66.3713 27.8765 66.473L27.865 66.4787C27.7608 66.5341 27.64 66.5506 27.5245 66.5253C27.409 66.5 27.3065 66.4345 27.2357 66.3407C27.1649 66.247 27.1305 66.1312 27.1387 66.0145C27.1469 65.8978 27.1973 65.7878 27.2805 65.7047L27.2793 65.7022Z" fill="#000072"/>
<path d="M36.6307 59.1365C38.6072 58.6871 39.9595 57.2251 39.6512 55.8711C39.3428 54.5171 37.4906 53.7839 35.514 54.2333C33.5375 54.6827 32.1852 56.1447 32.4935 57.4987C32.8019 58.8527 34.6542 59.586 36.6307 59.1365Z" fill="#6E787A"/>
<path d="M40.681 53.6746C41.5205 53.4837 42.0949 52.8626 41.9639 52.2874C41.8329 51.7123 41.0461 51.4007 40.2066 51.5916C39.3671 51.7825 38.7927 52.4035 38.9237 52.9787C39.0547 53.5539 39.8415 53.8655 40.681 53.6746Z" fill="#6E787A"/>
<path d="M42.7701 56.2823C43.6283 56.0872 44.2155 55.4525 44.0816 54.8647C43.9478 54.277 43.1436 53.9587 42.2854 54.1539C41.4272 54.349 40.84 54.9837 40.9738 55.5714C41.1077 56.1592 41.9119 56.4774 42.7701 56.2823Z" fill="#6E787A"/>
<path d="M41.2494 59.1033C40.4709 59.2692 39.7383 58.9982 39.6166 58.4985C39.4949 57.9988 40.0285 57.4602 40.8085 57.2943C41.5884 57.1284 42.3202 57.3987 42.442 57.8984C42.5637 58.3981 42.0294 58.9347 41.2494 59.1033Z" fill="#6E787A"/>
</g>
<defs>
<clipPath id="clip0_402_1452">
<rect width="123" height="143" fill="white"/>
</clipPath>
</defs>
</svg>
