<svg width="111" height="125" viewBox="0 0 111 125" fill="none" xmlns="http://www.w3.org/2000/svg">
<path d="M48.5953 97.0423C48.5953 97.0423 36.0602 102.061 25.0785 94.65C14.2057 87.3152 18.7248 72.0319 20.7165 66.6475C22.9754 60.537 21.9122 51.6761 15.6671 52.7017C9.37717 53.7346 15.4458 63.3725 8.89067 65.5433C6.01459 66.4963 -0.0669817 63.5444 0.918507 53.5451C2.24728 40.068 20.985 37.6309 27.7619 50.7896C34.5388 63.9483 22.9218 72.6808 25.0785 82.6565C26.9007 91.0862 34.506 94.1185 46.214 90" fill="white"/>
<path d="M38.8249 98.7976C34.6506 98.7976 29.6769 97.8936 25.0105 94.7457C14.3143 87.5292 18.3676 72.6618 20.6066 66.6049C22.2814 62.0756 21.9982 56.7822 19.9482 54.2952C18.8962 53.0196 17.4616 52.5218 15.6847 52.813C12.6617 53.3099 12.5808 55.8897 12.4967 58.6212C12.4043 61.5265 12.3119 64.5302 8.92761 65.651C7.52168 66.1164 5.64449 65.6431 4.14616 64.4438C2.61687 63.2199 0.149224 60.1751 0.803906 53.5317C1.38143 47.6731 5.36543 43.3411 11.1994 42.2268C16.7658 41.1638 24.0759 43.3822 27.8612 50.7346C31.8466 58.4752 29.5439 64.5917 27.3174 70.5066C25.7655 74.6284 24.2995 78.5213 25.1879 82.6301C25.9494 86.151 27.6967 88.6981 30.382 90.1997C34.1484 92.3063 39.6085 92.1986 46.1724 89.8886L46.2491 90.1068C39.6215 92.4394 34.0957 92.5415 30.2692 90.4012C27.5235 88.8658 25.7382 86.2674 24.962 82.6786C24.0597 78.5033 25.5368 74.5794 27.1012 70.4248C29.3101 64.5552 31.5943 58.49 27.6556 50.84C23.9266 43.5939 16.7256 41.405 11.2446 42.4537C5.51559 43.5482 1.60089 47.8021 1.03399 53.5543C0.389936 60.0891 2.79799 63.0688 4.29031 64.2631C5.7295 65.4148 7.52122 65.8733 8.85507 65.4314C12.0851 64.3615 12.177 61.4396 12.2657 58.6143C12.3544 55.789 12.4385 53.1144 15.6491 52.5852C17.4879 52.2838 19.0361 52.8236 20.1284 54.1483C22.5189 57.0484 22.2717 62.7721 20.8251 66.6853C18.6074 72.6909 14.5813 87.4289 25.1413 94.5548C35.9465 101.845 48.4271 96.9854 48.5528 96.9355L48.6387 97.1499C48.5666 97.1786 44.4103 98.7976 38.8249 98.7976Z" fill="#390075"/>
<path d="M48.5953 97.0423C48.5953 97.0423 36.0602 102.061 25.0785 94.65C14.2057 87.3152 18.7248 72.0319 20.7165 66.6475C22.9754 60.537 21.9122 51.6761 15.6671 52.7017C9.37717 53.7346 15.4458 63.3725 8.89067 65.5433C6.01459 66.4963 -0.0669817 63.5444 0.918507 53.5451C2.24728 40.068 20.985 37.6309 27.7619 50.7896C34.5388 63.9483 22.9218 72.6808 25.0785 82.6565C26.9007 91.0862 34.506 94.1185 46.214 90" fill="white"/>
<path d="M38.8249 98.7976C34.6506 98.7976 29.6769 97.8936 25.0105 94.7457C14.3143 87.5292 18.3676 72.6618 20.6066 66.6049C22.2814 62.0756 21.9982 56.7822 19.9482 54.2952C18.8962 53.0196 17.4616 52.5218 15.6847 52.813C12.6617 53.3099 12.5808 55.8897 12.4967 58.6212C12.4043 61.5265 12.3119 64.5302 8.92761 65.651C7.52168 66.1164 5.64449 65.6431 4.14616 64.4438C2.61687 63.2199 0.149224 60.1751 0.803906 53.5317C1.38143 47.6731 5.36543 43.3411 11.1994 42.2268C16.7658 41.1638 24.0759 43.3822 27.8612 50.7346C31.8466 58.4752 29.5439 64.5917 27.3174 70.5066C25.7655 74.6284 24.2995 78.5213 25.1879 82.6301C25.9494 86.151 27.6967 88.6981 30.382 90.1997C34.1484 92.3063 39.6085 92.1986 46.1724 89.8886L46.2491 90.1068C39.6215 92.4394 34.0957 92.5415 30.2692 90.4012C27.5235 88.8658 25.7382 86.2674 24.962 82.6786C24.0597 78.5033 25.5368 74.5794 27.1012 70.4248C29.3101 64.5552 31.5943 58.49 27.6556 50.84C23.9266 43.5939 16.7256 41.405 11.2446 42.4537C5.51559 43.5482 1.60089 47.8021 1.03399 53.5543C0.389936 60.0891 2.79799 63.0688 4.29031 64.2631C5.7295 65.4148 7.52122 65.8733 8.85507 65.4314C12.0851 64.3615 12.177 61.4396 12.2657 58.6143C12.3544 55.789 12.4385 53.1144 15.6491 52.5852C17.4879 52.2838 19.0361 52.8236 20.1284 54.1483C22.5189 57.0484 22.2717 62.7721 20.8251 66.6853C18.6074 72.6909 14.5813 87.4289 25.1413 94.5548C35.9465 101.845 48.4271 96.9854 48.5528 96.9355L48.6387 97.1499C48.5666 97.1786 44.4103 98.7976 38.8249 98.7976Z" fill="#390075"/>
<path d="M48.5961 97.0417C48.5961 97.0417 36.061 102.062 25.0793 94.6495C14.2093 87.3147 18.7283 72.0313 20.7187 66.6446C22.6948 61.2967 22.1288 53.8459 17.7729 52.7547C17.151 52.5985 16.4506 52.5698 15.6707 52.6992C9.37935 53.7322 15.4498 63.3696 8.89285 65.5409C6.01492 66.4949 -0.0661866 63.5429 0.919764 53.5436C1.67193 45.9237 7.98867 41.8315 14.5604 42.095C19.6131 42.2946 24.8173 45.0682 27.7599 50.7872C34.5354 63.9459 22.9216 72.6788 25.077 82.6545C26.9005 91.0828 34.5054 94.1166 46.2135 89.9981L48.5961 97.0417Z" fill="white"/>
<path d="M38.8236 98.7984C34.6493 98.7984 29.6756 97.8939 25.012 94.7456C14.3172 87.5295 18.3691 72.6621 20.6076 66.6048C22.0542 62.6883 22.0523 58.0341 20.602 55.2869C19.915 53.985 18.9526 53.1706 17.7417 52.8674C17.1161 52.7098 16.4249 52.6918 15.6861 52.8134C12.6627 53.3102 12.5818 55.8901 12.4982 58.6211C12.4058 61.5264 12.3134 64.5301 8.92817 65.6509C7.52317 66.1172 5.64783 65.6439 4.14904 64.446C2.61744 63.2221 0.148865 60.1773 0.80401 53.533C1.16161 49.9081 2.78099 46.8776 5.48612 44.7724C7.97225 42.8367 11.1911 41.8431 14.5648 41.9799C20.183 42.2017 25.1539 45.4744 27.8618 50.7345C31.8476 58.476 29.5454 64.5925 27.3184 70.5079C25.767 74.6292 24.3014 78.5221 25.1894 82.6304C25.9513 86.1513 27.6991 88.6984 30.3844 90.2C34.1517 92.3066 39.6114 92.199 46.1744 89.8894L46.2844 89.8506L48.7395 97.1068L48.6383 97.1475C48.5663 97.1785 44.4099 98.7984 38.8236 98.7984ZM16.6231 52.5051C17.019 52.5028 17.4136 52.5494 17.798 52.6437C19.0751 52.9636 20.0873 53.8168 20.8067 55.1797C22.2852 57.9805 22.2921 62.7133 20.8243 66.688C18.6066 72.6963 14.5824 87.432 25.1409 94.5575C35.4292 101.5 47.231 97.4276 48.4503 96.977L46.1402 90.1492C39.5624 92.4407 34.0769 92.5299 30.2717 90.4038C27.5259 88.8685 25.7402 86.2706 24.9635 82.6818C24.0616 78.5069 25.5383 74.583 27.1022 70.4289C29.3116 64.5592 31.5953 58.4931 27.6566 50.8426C24.9871 45.6551 20.0897 42.4296 14.5556 42.211C8.41487 41.9637 1.79966 45.7827 1.0341 53.5552C0.389578 60.0918 2.79809 63.071 4.29134 64.2653C5.72961 65.4161 7.5204 65.8741 8.85379 65.4318C12.0852 64.3614 12.1766 61.4395 12.2653 58.6142C12.3541 55.7889 12.4381 53.1142 15.6487 52.5855C15.9708 52.5323 16.2967 52.5054 16.6231 52.5051Z" fill="#390075"/>
<path d="M17.7706 52.7547C17.1487 52.5985 16.4483 52.5698 15.6684 52.6992C9.37704 53.7322 15.4475 63.3696 8.89054 65.5409C6.01492 66.4948 -0.0661856 63.5429 0.919765 53.5436C1.67193 45.9237 7.98867 41.8315 14.5604 42.095L13.9353 43.6012C13.767 44.0068 13.7657 44.4624 13.9318 44.8689C14.0979 45.2754 14.4178 45.5997 14.822 45.7712C15.0489 45.8675 15.2516 46.013 15.4154 46.1973C15.5793 46.3816 15.7001 46.6 15.7691 46.8368C15.8382 47.0735 15.8538 47.3226 15.8148 47.5661C15.7758 47.8097 15.6832 48.0414 15.5436 48.2447L15.3588 48.5147C15.1354 48.8402 15.0351 49.2347 15.0757 49.6275C15.1163 50.0203 15.2953 50.3858 15.5806 50.6587L17.7706 52.7547Z" fill="#F0835C"/>
<path d="M38.8796 99.514C34.8138 99.514 29.5694 98.6622 24.6221 95.3239C13.5161 87.8305 17.6576 72.574 19.9557 66.3623C21.5266 62.1172 21.2868 57.0115 19.4133 54.7389C18.5313 53.669 17.3162 53.2539 15.8012 53.5017C13.4592 53.8867 13.2911 55.6171 13.1964 58.643C13.1067 61.4928 12.9954 65.0395 9.1486 66.3151C7.5246 66.8527 5.39006 66.3327 3.71201 64.9905C2.07276 63.6779 -0.575541 60.4362 0.111483 53.4647C0.720887 47.2858 4.92065 42.7172 11.0725 41.5404C16.8939 40.4275 24.5348 42.7421 28.4855 50.4143C32.6132 58.4308 30.1488 64.9767 27.9741 70.7502C26.4596 74.7712 25.0292 78.5726 25.8737 82.4799C26.5908 85.7969 28.2236 88.1883 30.7249 89.5878C34.3116 91.5936 39.5745 91.4693 45.9434 89.2277C46.1461 89.1594 46.3676 89.1737 46.5598 89.2675C46.7521 89.3613 46.8997 89.527 46.9707 89.7289C47.0417 89.9307 47.0303 90.1524 46.9392 90.3459C46.848 90.5395 46.6843 90.6893 46.4835 90.7631C39.6609 93.1664 33.9378 93.2491 29.9307 91.008C27.0436 89.3959 25.0906 86.5669 24.2821 82.8256C23.3359 78.4497 24.8485 74.4319 26.4499 70.1785C28.6052 64.4535 30.834 58.5316 27.0371 51.1593C23.4708 44.2336 16.6001 42.1399 11.3746 43.1391C5.95973 44.1735 2.26357 48.1903 1.72763 53.6223C1.11591 59.8294 3.3447 62.6117 4.72568 63.7177C6.15794 64.8639 7.72142 65.071 8.63483 64.7682C11.2157 63.9132 11.4647 61.8643 11.5673 58.5917C11.6569 55.7442 11.7581 52.5163 15.5351 51.8961C17.6327 51.5513 19.4068 52.1761 20.6658 53.7036C23.2227 56.8049 22.993 62.8312 21.479 66.9271C19.3158 72.7778 15.3803 87.1266 25.5309 93.9748C36.0146 101.046 48.1699 96.3319 48.2933 96.2857C48.4928 96.2097 48.7141 96.2152 48.9096 96.3009C49.1051 96.3867 49.2591 96.5459 49.3383 96.7442C49.4175 96.9425 49.4157 97.164 49.3332 97.3609C49.2506 97.5579 49.094 97.7145 48.8971 97.797C48.7641 97.8501 45.5937 99.1022 41.0137 99.4359C40.3497 99.4849 39.635 99.514 38.8796 99.514Z" fill="#390075"/>
<g opacity="0.3">
<path d="M48.5953 97.0416C48.5953 97.0416 36.0602 102.062 25.0785 94.6494C14.2085 87.3146 18.7276 72.0312 20.7179 66.6445C22.694 61.2966 22.128 53.8458 17.7721 52.7546C17.1502 52.5984 16.4498 52.5697 15.6699 52.6991C9.37858 53.7321 15.4491 63.3695 8.89208 65.5408C6.01415 66.4948 -0.0669572 63.5428 0.918994 53.5435C1.12043 51.51 1.71598 49.7301 2.60722 48.2169C2.48672 48.7626 2.39954 49.3152 2.34617 49.8715C1.36022 59.8713 6.04649 62.0426 8.49566 60.259C12.4298 57.3935 9.28618 49.4496 17.0948 49.028C23.0581 48.7045 25.4573 58.1852 23.7072 63.7281C21.9779 69.2027 15.6334 83.6435 26.5034 90.9787C34.5518 96.4103 43.4336 95.167 47.6052 94.1123L48.5953 97.0416Z" fill="#390075"/>
</g>
<path d="M38.3457 27.5287C38.324 27.4307 38.2815 27.3385 38.2211 27.2583C38.1606 27.1782 38.0837 27.112 37.9954 27.0642C37.9072 27.0164 37.8097 26.9882 37.7096 26.9814C37.6095 26.9746 37.5091 26.9895 37.4152 27.0249C35.7385 27.6516 31.4029 28.8524 25.9903 27.1344C19.9037 25.2016 14.182 28.4082 15.0964 28.9753C15.0964 28.9753 18.9741 30.3886 20.1384 32.553C20.8573 33.8887 21.0624 35.7814 21.0957 37.2996C21.1096 37.9508 21.9306 38.2332 22.3385 37.7253C23.4058 36.3965 25.1107 34.8801 27.467 34.6264C33.0186 34.0278 36.3327 33.1303 38.5254 29.1181C38.6054 28.9698 38.629 28.7976 38.5919 28.6333L38.3457 27.5287Z" fill="#F22525"/>
<g opacity="0.35">
<path d="M38.5249 29.1182C38.2683 29.5917 37.9769 30.0455 37.653 30.4757C37.6893 30.361 37.6941 30.2388 37.6669 30.1216L37.422 29.017C37.4002 28.919 37.3576 28.8268 37.2971 28.7466C37.2366 28.6664 37.1596 28.6002 37.0713 28.5524C36.983 28.5045 36.8855 28.4762 36.7853 28.4693C36.6851 28.4624 36.5846 28.4771 36.4906 28.5123C34.8149 29.1409 30.4793 30.3412 25.0658 28.6223C21.2162 27.3999 17.515 28.2318 15.5445 29.1552C15.2672 29.0374 15.0972 28.9764 15.0972 28.9764C14.1824 28.4088 19.905 25.2027 25.9917 27.135C31.4051 28.852 35.7403 27.6517 37.4165 27.0255C37.5104 26.9902 37.6107 26.9755 37.7107 26.9824C37.8108 26.9893 37.9081 27.0176 37.9963 27.0654C38.0844 27.1133 38.1613 27.1795 38.2216 27.2596C38.282 27.3397 38.3244 27.4318 38.3461 27.5297L38.59 28.6325C38.6285 28.7969 38.6054 28.9698 38.5249 29.1182Z" fill="white"/>
</g>
<g opacity="0.3">
<path d="M38.525 29.1187C36.3327 33.1309 33.0201 34.028 27.4661 34.6279C25.1144 34.8803 23.4086 36.3967 22.3409 37.7245C21.9302 38.2329 21.111 37.9556 21.0967 37.3003C21.0644 35.7825 20.8569 33.8898 20.1389 32.5532C19.5572 31.4708 18.2964 30.5755 17.182 29.953C16.5114 29.5784 15.8149 29.2522 15.0978 28.9769C14.8668 28.834 15.0581 28.5248 15.5672 28.1722C17.2716 26.9927 19.6279 27.4549 20.8093 29.1603C20.8287 29.1885 20.8481 29.2167 20.8671 29.2454C20.8735 29.2546 20.8795 29.2643 20.886 29.2745C22.255 31.3867 24.8594 32.2939 27.255 31.5267C27.5604 31.4267 27.8751 31.3575 28.1943 31.3201C32.9692 30.8057 36.0888 30.069 38.2663 27.3209C38.3062 27.3852 38.3345 27.4561 38.3499 27.5302L38.5939 28.633C38.6313 28.7979 38.6068 28.9708 38.525 29.1187Z" fill="#390075"/>
</g>
<path d="M21.8059 38.801C21.6375 38.8006 21.4703 38.7727 21.311 38.7182C21.0151 38.6207 20.7569 38.4333 20.5723 38.1822C20.3877 37.931 20.286 37.6286 20.2812 37.3169C20.2415 35.4252 19.9439 33.9116 19.4209 32.9387C18.6392 31.4865 16.159 30.2446 14.8164 29.7399L14.6251 29.6678L14.5466 29.5805C14.1931 29.2865 14.0846 28.804 14.2911 28.3594C14.9841 26.8522 20.6804 24.5963 26.2385 26.3605C31.4316 28.0081 35.587 26.8421 37.1324 26.2643C37.3354 26.1881 37.5523 26.1564 37.7685 26.1713C37.9848 26.1863 38.1953 26.2475 38.3858 26.3509C38.5763 26.4542 38.7424 26.5974 38.8728 26.7705C39.0033 26.9437 39.095 27.1429 39.1418 27.3546L39.3866 28.4583C39.4665 28.8149 39.4143 29.1883 39.2397 29.5093C36.7291 34.1029 32.6393 34.8872 27.5534 35.4358C25.4429 35.6632 23.8979 37.0835 22.9734 38.2348C22.8339 38.4109 22.6564 38.5533 22.4543 38.6513C22.2521 38.7493 22.0305 38.8005 21.8059 38.801ZM16.3563 28.6215C17.7068 29.2385 19.9398 30.4665 20.855 32.1678C21.4783 33.326 21.8299 34.9408 21.901 36.9781C23.0376 35.6378 24.8635 34.089 27.3792 33.8177C32.9798 33.2137 35.8203 32.3388 37.7894 28.7689L37.5815 27.8316C35.7903 28.4809 31.2934 29.6706 25.7464 27.9102C21.6497 26.61 17.8376 27.7905 16.3563 28.6215Z" fill="#390075"/>
<path d="M37.9125 25.8272C37.9651 25.7302 37.9963 25.623 38.004 25.5129C38.0116 25.4028 37.9955 25.2924 37.9568 25.189C37.9181 25.0857 37.8576 24.9919 37.7795 24.914C37.7014 24.836 37.6074 24.7758 37.504 24.7373C35.6606 24.0478 31.1961 21.9148 27.9435 16.5826C24.2847 10.5845 17.2246 9.11703 17.5734 10.2461C17.5734 10.2489 19.7717 14.2177 19.1771 16.8553C18.8102 18.4831 17.6168 20.2024 16.5487 21.4854C16.0899 22.0364 16.5681 22.8632 17.2731 22.7361C19.1166 22.4033 21.6267 22.377 23.7626 23.8652C28.8028 27.3745 32.2005 29.0222 36.9131 27.2742C37.0864 27.2089 37.2302 27.083 37.3178 26.9197L37.9125 25.8272Z" fill="#F22525"/>
<g opacity="0.35">
<path d="M36.9138 27.2723C36.3589 27.4805 35.7892 27.6469 35.2094 27.7701C35.3223 27.7013 35.4145 27.6035 35.4765 27.4867L36.0706 26.3937C36.1232 26.2966 36.1543 26.1893 36.1619 26.0792C36.1695 25.969 36.1534 25.8585 36.1146 25.7551C36.0759 25.6517 36.0154 25.5579 35.9372 25.4799C35.8591 25.4019 35.7652 25.3415 35.6618 25.3029C33.8183 24.6152 29.3552 22.4818 26.1026 17.1478C23.7897 13.3547 20.118 11.3738 17.8162 10.7179C17.6702 10.4189 17.5741 10.2465 17.5741 10.2465C17.2258 9.11648 24.2854 10.5848 27.9428 16.5816C31.1973 21.9133 35.6585 24.0467 37.5034 24.7363C37.6071 24.7745 37.7013 24.8347 37.7797 24.9126C37.8581 24.9905 37.9188 25.0844 37.9577 25.1879C37.9965 25.2914 38.0126 25.4021 38.0048 25.5124C37.9971 25.6227 37.9657 25.73 37.9127 25.8271L37.3199 26.9183C37.2324 27.082 37.0879 27.208 36.9138 27.2723Z" fill="white"/>
</g>
<g opacity="0.3">
<path d="M36.9148 27.273C32.2022 29.0215 28.804 27.3752 23.762 23.8649C21.6284 22.3767 19.1192 22.404 17.2752 22.7353C16.5665 22.8629 16.0883 22.0393 16.549 21.4875C17.6167 20.2044 18.8096 18.4833 19.1778 16.8559C19.4759 15.5383 19.0753 13.8855 18.5994 12.5646C18.3131 11.7694 17.9704 10.9958 17.5737 10.2495C17.4864 9.96577 17.8666 9.84607 18.544 9.92094C20.8079 10.1724 22.4305 12.2577 22.1819 14.5243C22.1777 14.5617 22.1731 14.5991 22.1685 14.6366C22.1685 14.649 22.1653 14.6615 22.1634 14.6745C21.7767 17.4133 23.2852 20.0455 25.8263 21.139C26.152 21.2768 26.463 21.4472 26.7545 21.6474C31.0883 24.6663 34.2083 26.3071 37.9964 25.5967C37.9827 25.6788 37.9551 25.7579 37.9146 25.8306L37.3218 26.9218C37.2336 27.0846 37.0888 27.2096 36.9148 27.273Z" fill="#390075"/>
</g>
<path d="M33.288 28.7785C29.7544 28.7785 26.7069 26.9053 23.2986 24.5315C21.3604 23.181 19.0309 23.2443 17.418 23.5355C17.0984 23.5925 16.7691 23.5498 16.4746 23.4132C16.1801 23.2766 15.9347 23.0527 15.7716 22.7719C15.6086 22.4911 15.5358 22.167 15.5631 21.8434C15.5904 21.5198 15.7165 21.2125 15.9243 20.963C17.2642 19.3546 18.1148 17.8719 18.3846 16.6749C18.7884 14.883 17.6181 12.0397 16.8622 10.6411L16.7458 10.4253L16.755 10.2922C16.7024 9.84619 16.9421 9.42469 17.3834 9.22595C19.0249 8.48646 25.3186 10.7169 28.6377 16.1586C31.7721 21.2953 36.0823 23.3358 37.7917 23.9746C38.0042 24.0538 38.1972 24.1778 38.3576 24.338C38.5181 24.4983 38.6423 24.6912 38.7218 24.9036C38.8013 25.116 38.8344 25.343 38.8187 25.5693C38.803 25.7956 38.7389 26.0158 38.6308 26.2152L38.0371 27.3078C37.8555 27.6439 37.5585 27.9028 37.2008 28.0367C35.8124 28.5502 34.5202 28.7785 33.288 28.7785ZM19.2684 21.7362C20.8448 21.7362 22.6241 22.0778 24.2287 23.1958C29.3474 26.7615 32.3533 28.0894 36.6108 26.5184L37.1736 25.4822C35.2793 24.7654 30.6193 22.5316 27.2484 17.0058C24.7022 12.8319 20.4983 11.0964 18.7394 10.7636C19.4112 12.2135 20.4461 14.9232 19.9702 17.0331C19.6468 18.476 18.7297 20.1172 17.2499 21.9123C17.9166 21.797 18.5918 21.7381 19.2684 21.7362Z" fill="#390075"/>
<path d="M92.2672 94.867C91.6268 106.333 83.9739 114.551 83.9739 114.551C83.9739 114.551 86.9308 115.216 88.6514 116.673C89.2696 117.196 89.727 117.823 89.8291 118.557C90.2029 121.269 87.1364 123.856 79.4027 123.856C72.5648 123.856 69.0881 120.667 68.9148 117.848C68.7416 115.029 70.5767 109.537 70.1923 104.407C69.011 104.751 67.7867 104.926 66.5562 104.926C65.3257 104.926 64.1015 104.751 62.9201 104.407C62.8831 104.895 62.867 105.388 62.867 105.882C62.867 110.559 64.3514 115.297 64.1971 117.85C64.0243 120.669 60.5472 123.858 53.7093 123.858C45.9755 123.858 42.9068 121.27 43.2833 118.559C43.385 117.824 43.8424 117.198 44.4587 116.675C46.1751 115.216 49.1357 114.549 49.1357 114.549C49.1357 114.549 41.4833 106.33 40.8429 94.8647C40.5274 89.2261 41.0199 83.79 41.9167 78.8405C43.0066 72.8067 44.6985 67.4972 46.2624 63.4268C46.9601 61.6058 47.6309 60.0353 48.2126 58.756C49.3168 56.3226 50.0935 54.9495 50.0935 54.9495H83.0157C83.0157 54.9495 83.9573 56.6179 85.2444 59.5329C85.6695 60.497 86.1334 61.5979 86.6134 62.8204C88.2305 66.9338 90.0236 72.4286 91.1685 78.7106C92.0823 83.6966 92.5846 89.1794 92.2672 94.867Z" fill="white"/>
<path d="M79.4025 123.975C72.6861 123.975 68.9858 120.897 68.8019 117.857C68.7294 116.663 69.008 115.016 69.3309 113.108C69.7777 110.468 70.2831 107.481 70.0868 104.558C67.776 105.201 65.3337 105.201 63.023 104.558C62.9948 104.981 62.9804 105.425 62.9804 105.883C62.9804 108.387 63.4055 110.895 63.7807 113.108C64.1041 115.016 64.3813 116.663 64.3101 117.858C64.1253 120.898 60.4227 123.976 53.7096 123.976C49.0062 123.976 45.5614 122.994 44.0099 121.211C43.3266 120.426 43.036 119.504 43.169 118.545C43.2651 117.849 43.674 117.191 44.3841 116.589C45.8714 115.325 48.2341 114.66 48.9212 114.486C47.9047 113.331 41.3172 105.427 40.7277 94.8758C40.4408 89.7456 40.803 84.3445 41.8033 78.8242C42.7324 73.6788 44.1966 68.4857 46.1551 63.3874C46.7714 61.7786 47.4279 60.2053 48.1076 58.7102C49.2012 56.3004 49.9857 54.9087 49.9935 54.8949L50.0263 54.8362H83.0834L83.1167 54.8949C83.1264 54.9115 84.0758 56.6017 85.3505 59.4885C85.8246 60.5635 86.2857 61.6714 86.7214 62.7806C88.7801 68.0282 90.315 73.3816 91.2824 78.6921C92.2989 84.2521 92.6713 89.6966 92.3825 94.8739C91.793 105.425 85.2032 113.328 84.1886 114.484C84.8756 114.658 87.2379 115.322 88.7261 116.584L88.7667 116.621C89.4528 117.214 89.8488 117.86 89.943 118.543C90.0756 119.503 89.7841 120.425 89.1003 121.21C87.5479 122.994 84.104 123.975 79.4025 123.975ZM70.2965 104.257L70.3072 104.399C70.5317 107.396 70.0147 110.451 69.5587 113.147C69.2385 115.042 68.9618 116.676 69.0325 117.843C69.2099 120.775 72.8289 123.744 79.4025 123.744C84.0361 123.744 87.4185 122.791 88.9261 121.061C89.5651 120.327 89.8372 119.468 89.7143 118.576C89.6261 117.938 89.2431 117.328 88.5764 116.765L88.5357 116.728C86.8526 115.33 83.9779 114.672 83.9488 114.665L83.7524 114.619L83.891 114.472C83.9673 114.39 91.5227 106.15 92.1538 94.86C92.4412 89.7016 92.0725 84.2761 91.057 78.7327C90.0918 73.4371 88.562 68.0984 86.5079 62.8642C86.0736 61.7582 85.6134 60.6536 85.1412 59.5828C84.0038 57.0066 83.1268 55.3889 82.9499 55.0682H50.1617C50.0032 55.3552 49.2839 56.6858 48.3178 58.8068C47.6404 60.2973 46.9853 61.8669 46.3704 63.4711C44.4174 68.5551 42.9574 73.7315 42.0306 78.8645C41.0336 84.3667 40.6727 89.7488 40.9583 94.8614C41.5894 106.152 49.1443 114.391 49.2206 114.474L49.3592 114.621L49.1628 114.667C49.1332 114.673 46.2091 115.343 44.5348 116.766C43.8694 117.33 43.4874 117.94 43.3991 118.577C43.2757 119.469 43.5474 120.328 44.1845 121.061C45.6916 122.792 49.0746 123.745 53.71 123.745C60.2804 123.745 63.9003 120.777 64.0801 117.845C64.1507 116.677 63.874 115.041 63.5529 113.148C63.1763 110.925 62.7499 108.407 62.7499 105.884C62.7499 105.369 62.7679 104.87 62.803 104.4L62.8141 104.258L62.9527 104.298C65.3068 104.98 67.8061 104.98 70.1602 104.298L70.2965 104.257Z" fill="#390075"/>
<g opacity="0.3">
<path d="M79.403 123.859C72.5651 123.859 69.0884 120.67 68.9152 117.85C68.7419 115.031 70.577 109.537 70.1926 104.407C69.0699 104.735 67.7342 104.908 66.5547 104.924C66.5322 104.925 66.5097 104.925 66.4872 104.924C66.4426 104.927 66.3979 104.927 66.3533 104.924C65.1904 104.908 64.035 104.735 62.9186 104.409C62.8816 104.898 62.8655 105.39 62.8655 105.884C62.8655 110.561 64.3499 115.299 64.1956 117.852C64.0228 120.671 60.5457 123.86 53.7078 123.86C45.974 123.86 42.9053 121.272 43.2818 118.561C43.3835 117.827 43.8409 117.2 44.4572 116.677C44.3939 117.591 44.7723 119.243 47.9713 120.256C52.567 121.71 61.0756 119.827 60.9047 115.727C60.7337 111.627 56.2743 106.039 55.6884 101.507C55.6884 101.507 62.9121 101.817 66.4849 101.836C70.0624 101.815 77.42 101.507 77.42 101.507C76.8323 106.039 72.3725 111.626 72.1992 115.727C72.0259 119.827 80.5373 121.712 85.133 120.256C88.332 119.243 88.71 117.591 88.6471 116.677C89.2653 117.2 89.7227 117.827 89.8248 118.561C90.2032 121.271 87.1359 123.859 79.403 123.859Z" fill="#390075"/>
</g>
<g opacity="0.3">
<path d="M66.5541 104.923V104.926C66.5318 104.926 66.5095 104.925 66.4873 104.923C66.5095 104.924 66.5318 104.924 66.5541 104.923Z" fill="#6B184E"/>
<path d="M66.6682 105.041H66.5527C66.5273 105.041 66.5014 105.041 66.4755 105.039L66.4857 104.926L66.4963 104.809C66.5065 104.81 66.5167 104.81 66.5268 104.809H66.6682V105.041Z" fill="#390075"/>
</g>
<g opacity="0.3">
<path d="M66.4868 104.923C66.4406 104.926 66.3977 104.926 66.3528 104.926V104.922C66.3974 104.925 66.4422 104.926 66.4868 104.923Z" fill="#6B184E"/>
<path d="M66.3526 105.041H66.2371V104.799L66.3628 104.806C66.4009 104.809 66.4392 104.809 66.4773 104.806H66.4815L66.4921 105.037C66.4445 105.041 66.3983 105.041 66.3526 105.041Z" fill="#390075"/>
</g>
<path d="M79.4015 124.673C72.2541 124.673 68.3084 121.265 68.1047 117.898C68.0275 116.624 68.3126 114.94 68.6429 112.991C69.0403 110.642 69.4852 108.016 69.4284 105.437C67.5346 105.84 65.5773 105.84 63.6836 105.437C63.6263 108.016 64.0708 110.642 64.469 112.991C64.7994 114.94 65.0845 116.624 65.0073 117.898C64.8036 121.265 60.8579 124.673 53.7109 124.673C47.4214 124.673 44.6789 123.039 43.4855 121.669C42.6654 120.727 42.317 119.612 42.4783 118.447C42.8119 116.039 45.8815 114.698 47.694 114.11C45.6371 111.558 40.5604 104.359 40.0323 94.912C38.8352 73.5006 49.2815 54.7379 49.3873 54.5508C49.4956 54.3671 49.6716 54.2333 49.8775 54.1781C50.0834 54.1229 50.3027 54.1507 50.4883 54.2556C50.6739 54.3604 50.811 54.534 50.87 54.7389C50.929 54.9438 50.9052 55.1637 50.8039 55.3513C50.7004 55.5361 40.487 73.8985 41.6559 94.8214C42.2736 105.868 49.6581 113.917 49.7324 113.997L50.699 115.035L49.3157 115.345C48.0396 115.634 44.3388 116.864 44.0889 118.67C43.9928 119.364 44.2021 120.015 44.7117 120.6C45.5068 121.513 47.7333 123.045 53.71 123.045C59.7865 123.045 63.2276 120.343 63.3824 117.799C63.4484 116.712 63.1777 115.113 62.8645 113.262C62.4241 110.663 61.8762 107.427 62.1072 104.345L62.1825 103.344L63.1458 103.625C65.3727 104.275 67.7388 104.275 69.9657 103.625L70.929 103.344L71.0043 104.345C71.2353 107.427 70.6874 110.663 70.2475 113.262C69.9338 115.113 69.6631 116.712 69.7291 117.799C69.8835 120.341 73.3255 123.045 79.402 123.045C85.3782 123.045 87.6047 121.513 88.4003 120.6C88.9085 120.015 89.1187 119.365 89.0226 118.67C88.7727 116.864 85.0724 115.634 83.7953 115.345L82.4148 115.033L83.3791 113.997C83.453 113.917 90.8393 105.844 91.4556 94.8214C92.6255 73.899 82.4121 55.5361 82.3076 55.3513C82.2015 55.1634 82.1744 54.9411 82.2321 54.7332C82.2899 54.5253 82.4278 54.3489 82.6156 54.2427C82.8034 54.1366 83.0256 54.1094 83.2334 54.1672C83.4413 54.2249 83.6176 54.3629 83.7237 54.5508C83.8295 54.7356 94.2758 73.5001 93.0787 94.912C92.5506 104.359 87.4744 111.558 85.417 114.11C87.2295 114.698 90.2992 116.039 90.6328 118.446C90.794 119.612 90.448 120.727 89.6256 121.669C88.4331 123.039 85.6906 124.673 79.4015 124.673Z" fill="#390075"/>
<path d="M55.6903 101.502C56.3764 101.595 57.0131 101.756 57.6465 101.918C58.2799 102.081 58.888 102.288 59.5001 102.478C60.1123 102.668 60.7199 102.858 61.3251 103.046C61.9281 103.24 62.5315 103.411 63.127 103.618L63.1459 103.624C63.3409 103.692 63.5028 103.832 63.5987 104.015C63.6947 104.198 63.7176 104.41 63.6628 104.61C63.6081 104.809 63.4797 104.98 63.3037 105.088C63.1277 105.196 62.9172 105.233 62.7149 105.192C62.0573 105.053 61.4117 104.862 60.7841 104.622C60.1622 104.383 59.553 104.112 58.9587 103.811C58.3632 103.515 57.7874 103.182 57.2349 102.812C56.6887 102.429 56.1533 102.02 55.6903 101.502Z" fill="#390075"/>
<path d="M77.4278 101.502C76.9658 102.02 76.4312 102.427 75.8851 102.813C75.3326 103.183 74.7568 103.516 74.1613 103.812C73.567 104.113 72.9577 104.384 72.3359 104.623C71.7084 104.863 71.0629 105.054 70.4056 105.193C70.2031 105.234 69.9924 105.197 69.8162 105.089C69.64 104.981 69.5114 104.81 69.4566 104.611C69.4017 104.412 69.4246 104.199 69.5207 104.016C69.6168 103.833 69.7788 103.693 69.974 103.625L69.993 103.619C70.5862 103.412 71.1901 103.241 71.7949 103.047C72.3996 102.859 73.0095 102.677 73.6194 102.479C74.2292 102.281 74.8428 102.089 75.473 101.919C76.1032 101.75 76.7408 101.594 77.4278 101.502Z" fill="#390075"/>
<path d="M33.5278 75.5831C33.5278 75.5831 41.4284 81.6889 50.6559 77.5094Z" fill="white"/>
<path d="M44.0011 79.0759C37.9487 79.0759 33.5165 75.7205 33.4574 75.6747L33.596 75.4899C33.6745 75.5509 41.5496 81.5037 50.6057 77.4024L50.7009 77.6131C48.5985 78.5761 46.3134 79.075 44.0011 79.0759Z" fill="#390075"/>
<path d="M50.6549 77.5089C47.4989 78.9389 44.4971 79.1649 41.9167 78.8432C36.9486 78.2248 33.5278 75.5826 33.5278 75.5826C34.5161 69.4291 39.4029 64.8452 43.6817 61.7486C45.3819 60.5178 46.9865 59.5232 48.2127 58.7583C48.3365 58.683 48.4548 58.6076 48.5685 58.5364L49.2846 65.0462L50.6549 77.5089Z" fill="white"/>
<path d="M43.926 79.8007C37.7488 79.8007 33.2802 76.4203 33.0302 76.2266L32.6477 75.9308L32.7244 75.4539C34.1502 66.5726 43.2741 60.8813 47.6587 58.1461L48.1364 57.8476C48.3193 57.7354 48.539 57.7001 48.7477 57.7491C48.9565 57.7982 49.1375 57.9277 49.2513 58.1095C49.3651 58.2913 49.4025 58.5108 49.3555 58.7201C49.3084 58.9294 49.1806 59.1116 48.9999 59.2272L48.5199 59.5271C44.4246 62.0816 35.9936 67.338 34.4204 75.214C36.0865 76.3149 42.7909 80.1778 50.3199 76.7678C50.4176 76.7212 50.5236 76.6946 50.6317 76.6895C50.7398 76.6844 50.8478 76.7009 50.9494 76.738C51.0511 76.7752 51.1443 76.8323 51.2236 76.9059C51.3029 76.9795 51.3667 77.0683 51.4113 77.1669C51.456 77.2655 51.4805 77.372 51.4834 77.4802C51.4864 77.5884 51.4677 77.6961 51.4286 77.7971C51.3894 77.898 51.3305 77.99 51.2553 78.0679C51.1802 78.1458 51.0902 78.2078 50.9908 78.2505C48.4968 79.3801 46.1072 79.8007 43.926 79.8007Z" fill="#390075"/>
<path d="M98.6918 75.5831C98.6918 75.5831 90.7913 81.6889 81.5638 77.5094Z" fill="white"/>
<path d="M88.2201 79.0748C85.907 79.0748 83.621 78.5766 81.5176 77.6139L81.6128 77.4031C90.6744 81.5068 98.544 75.5516 98.6225 75.4906L98.7639 75.6755C98.7047 75.7194 94.2693 79.0748 88.2201 79.0748Z" fill="#390075"/>
<path d="M98.6927 75.5828C98.6927 75.5828 95.6647 77.9219 91.1683 78.7136C88.4008 79.2017 85.0798 79.1019 81.5638 77.5092L82.9466 64.9495L83.6521 58.5372C84.122 58.8302 84.6589 59.1639 85.2443 59.5359C86.172 60.122 87.2189 60.8055 88.313 61.5866C92.6449 64.6846 97.6883 69.3212 98.6927 75.5828Z" fill="white"/>
<path d="M88.2946 79.8007C86.1153 79.8007 83.7243 79.3801 81.2299 78.2505C81.0377 78.1588 80.889 77.9954 80.8159 77.7953C80.7428 77.5951 80.751 77.3743 80.8388 77.1802C80.9267 76.9861 81.0871 76.8342 81.2856 76.7571C81.4842 76.68 81.705 76.6839 81.9007 76.7678C89.4317 80.1773 96.131 76.3158 97.8003 75.214C96.2271 67.3403 87.7961 62.0816 83.7008 59.5271L83.2207 59.2272C83.0379 59.1123 82.9081 58.9295 82.8599 58.7189C82.8118 58.5083 82.8493 58.2873 82.9641 58.1043C83.0789 57.9214 83.2617 57.7915 83.4722 57.7434C83.6827 57.6952 83.9037 57.7327 84.0866 57.8476L84.5643 58.1461C88.9489 60.8809 98.0728 66.5721 99.4986 75.4539L99.5753 75.9308L99.1932 76.2266C98.9405 76.4203 94.4714 79.8002 88.2946 79.8007Z" fill="#390075"/>
<g opacity="0.3">
<path d="M88.3139 61.5864C87.7694 62.0134 87.2028 62.4257 86.6142 62.8232C85.4425 63.6156 84.2174 64.326 82.9476 64.9492C82.7868 65.0284 82.624 65.1063 82.4592 65.183C78.7377 66.9264 64.0778 72.0996 49.2862 65.0444C48.2771 64.5643 47.2698 64.0251 46.2641 63.4268C45.4017 62.9137 44.5414 62.3536 43.6833 61.7463C45.3835 60.5155 46.9881 59.5209 48.2143 58.756C49.3185 56.3226 50.0952 54.9495 50.0952 54.9495H83.0173C83.0173 54.9495 83.9589 56.6179 85.2461 59.5329C86.1729 60.1217 87.2199 60.8053 88.3139 61.5864Z" fill="#390075"/>
</g>
<path d="M100.106 40.2731C100.551 42.7767 101.831 45.2281 101.74 46.0383C101.551 47.6767 97.8932 45.7235 97.8932 45.7235C97.8932 45.7235 97.6765 46.237 98.407 47.7035C98.9494 48.7947 99.4257 49.5929 99.1998 50.1776C98.9591 50.7997 97.8955 50.9263 96.6564 50.7826C95.7873 50.6813 95.0504 50.7932 94.089 51.8299C93.8773 52.0558 93.6798 52.2946 93.4976 52.5449C93.4966 52.5453 93.4956 52.5455 93.4946 52.5455C93.4935 52.5455 93.4925 52.5453 93.4916 52.5449C90.6109 55.8726 87.1046 58.935 82.4599 61.1095C78.1511 63.1265 59.1695 69.7467 42.3034 56.6499C40.155 54.9815 38.227 53.0593 36.7481 50.7012C36.384 50.5972 36.0255 50.5986 35.6393 50.6398C34.3987 50.7784 33.3356 50.6508 33.0981 50.0246C32.8764 49.4409 33.2806 48.5743 33.7773 47.4535C34.1784 46.5499 34.3377 45.9842 34.395 45.7314C34.4089 45.6676 34.3558 45.6149 34.3026 45.639C33.6655 45.9588 30.7381 47.3356 30.5746 45.8761C30.4822 45.0649 31.7786 42.6205 32.2323 40.1168C32.9729 36.0367 33.5569 33.1615 33.9279 31.4288C33.9363 31.3826 33.9469 31.3363 33.9594 31.2869C33.9718 31.2374 33.9778 31.1945 33.9866 31.1515C33.9954 31.1085 34.0074 31.0632 34.0162 31.0202C34.1271 30.515 34.2523 30.0154 34.3918 29.5172C35.0285 27.2142 35.94 24.931 37.1034 22.3469C35.4263 19.4384 28.355 6.50249 32.2157 1.59136C34.4204 -1.21361 49.4888 4.38801 52.7867 5.66224C56.3964 3.92722 60.4895 2.8619 65.0357 2.66917C65.9546 2.63004 66.8543 2.6288 67.7349 2.66547C67.7573 2.66245 67.7799 2.66245 67.8023 2.66547C70.762 2.77593 73.4154 3.53945 75.9634 4.43146C76.2628 4.53776 76.5599 4.64452 76.857 4.75129C78.037 5.18152 79.1864 5.69156 80.2972 6.27787C83.6358 5.11318 99.2599 -0.167694 101.371 2.70568C105.059 7.72218 97.6327 20.3531 95.8349 23.263C96.2702 24.2137 96.6564 25.1514 96.9983 26.0998C97.4092 27.2321 97.7499 28.3887 98.0184 29.563C98.0184 29.563 98.0212 29.5833 98.0314 29.6254C98.1067 29.9526 98.4694 31.5536 99.045 34.5143C99.3421 36.0607 99.702 37.9756 100.106 40.2731Z" fill="white"/>
<g opacity="0.3">
<path d="M98.4082 47.7028C98.9511 48.7954 99.427 49.5927 99.201 50.1764C98.9612 50.799 97.8977 50.9251 96.6572 50.7828C95.789 50.6811 95.0526 50.793 94.0906 51.8306C93.8788 52.0561 93.6811 52.2946 93.4988 52.5446C93.4978 52.545 93.4968 52.5453 93.4958 52.5453C93.4948 52.5453 93.4937 52.545 93.4928 52.5446C90.6112 55.8723 87.1049 58.9366 82.4602 61.1093C78.1532 63.1272 59.1716 69.747 42.3046 56.6502C40.1572 54.9817 38.2273 53.0595 36.7488 50.7019C36.3848 50.5979 36.0267 50.6002 35.64 50.6409C34.3995 50.7796 33.3359 50.6511 33.0989 50.0262C32.8771 49.4406 33.2837 48.574 33.7781 47.4551C33.8492 47.2924 33.9167 47.1417 33.9693 46.9994C34.4226 47.0988 35.0084 47.0969 35.6409 47.0257C36.0272 46.9851 36.3852 46.9832 36.7498 47.0867C38.2282 49.4466 40.1581 51.3688 42.3056 53.0373C59.1725 66.1341 78.1542 59.5125 82.4611 57.4964C87.1058 55.3242 90.6121 52.2599 93.4937 48.9318C93.4946 48.9322 93.4957 48.9325 93.4967 48.9325C93.4978 48.9325 93.4988 48.9322 93.4997 48.9318C93.6828 48.6817 93.8804 48.4427 94.0916 48.2158C95.0535 47.1783 95.7899 47.0664 96.6581 47.1681C97.2171 47.2333 97.7401 47.2434 98.1689 47.1783C98.2313 47.3368 98.3107 47.5124 98.4082 47.7028Z" fill="#390075"/>
</g>
<path d="M98.0294 29.6269C98.1048 29.9541 98.4674 31.5551 99.0431 34.5158C91.6462 36.0096 83.4268 35.8561 77.7754 30.4861C67.8503 21.053 72.7666 9.67271 75.9638 4.43113C76.2632 4.53743 76.5603 4.6442 76.8574 4.75096C78.0374 5.18149 79.1868 5.69184 80.2976 6.27846C83.6361 5.11377 99.2603 -0.167097 101.371 2.70628C105.059 7.72278 97.633 20.3537 95.8353 23.2636C96.2705 24.2143 96.6568 25.152 96.9987 26.1004C97.4096 27.2327 97.7503 28.3893 98.0188 29.5635C98.0188 29.5635 98.0193 29.5839 98.0294 29.6269Z" fill="#F0835C"/>
<path d="M50.7895 61.9488C49.3258 61.4931 47.906 60.8918 46.5306 60.1995C45.8463 59.8468 45.1699 59.4757 44.5093 59.0778C43.8486 58.6798 43.2022 58.2574 42.5688 57.8137C41.9353 57.37 41.319 56.9037 40.7156 56.4105C40.1122 55.9174 39.5328 55.3937 38.9761 54.8391C37.8501 53.7321 36.8527 52.5014 36.003 51.1703L36.5038 51.5465C36.317 51.4973 36.1231 51.4802 35.9305 51.4962C35.8746 51.4994 35.8136 51.504 35.7549 51.51L35.5281 51.5322C35.37 51.5461 35.2088 51.5572 35.0452 51.5627C34.7021 51.5772 34.3583 51.5607 34.0182 51.5133C33.8226 51.4846 33.6301 51.4382 33.443 51.3746C33.2111 51.2992 32.994 51.1843 32.8012 51.0349C32.5566 50.8438 32.3708 50.5875 32.2653 50.2954C32.1808 50.0501 32.1468 49.7902 32.1655 49.5314C32.1955 49.0841 32.3082 48.7499 32.4168 48.4402C32.5254 48.1306 32.6515 47.8533 32.7712 47.5815L33.1195 46.7995C33.2263 46.5481 33.3261 46.2953 33.4115 46.0461C33.454 45.9223 33.4933 45.7984 33.5261 45.6801L33.5492 45.5941L33.5585 45.5562C33.5495 45.602 33.5441 45.6483 33.5423 45.6949C33.5399 45.773 33.5497 45.8509 33.5714 45.926C33.6223 46.1052 33.7364 46.2598 33.8925 46.3613C33.9932 46.426 34.107 46.4674 34.2258 46.4823C34.3445 46.4973 34.465 46.4855 34.5786 46.4478C34.6063 46.4381 34.6334 46.427 34.6599 46.4145H34.6641L34.653 46.42L34.6299 46.4311L34.5809 46.4552C34.0184 46.7294 33.4354 46.9593 32.8372 47.1429C32.5109 47.2428 32.1763 47.3136 31.8374 47.3546C31.6381 47.3781 31.4368 47.3812 31.2368 47.3638C30.9728 47.3438 30.7161 47.2669 30.4846 47.1383C30.1926 46.9702 29.9677 46.7064 29.848 46.3914C29.7979 46.2573 29.7641 46.1176 29.7473 45.9754C29.7436 45.907 29.7417 45.8368 29.7422 45.7693V45.6662C29.7422 45.6348 29.7482 45.6131 29.751 45.5863C29.8036 45.1601 29.902 44.8713 29.9958 44.5727C30.188 43.9857 30.3945 43.4496 30.5858 42.9089C30.7771 42.3681 30.9587 41.8375 31.1134 41.3037C31.1878 41.037 31.2581 40.7699 31.3186 40.5037C31.3791 40.2375 31.4272 39.9791 31.4849 39.6856L31.819 37.9756L33.1708 31.078L33.1579 31.1353C33.2406 30.7193 33.351 30.3357 33.4471 29.9336L33.5963 29.3379L33.7622 28.7541C33.9917 27.9761 34.2458 27.2088 34.5245 26.452C35.0767 24.937 35.7069 23.464 36.3597 22.0105L36.3967 22.75C35.4778 21.1477 34.6259 19.5147 33.8408 17.8508C33.0553 16.1833 32.3332 14.4806 31.7238 12.7253C31.1144 10.9699 30.6149 9.16002 30.3728 7.26462C30.2569 6.31668 30.2194 5.34102 30.3317 4.34826C30.444 3.3555 30.7378 2.33362 31.3361 1.43375L31.5672 1.10144C31.6134 1.03905 31.685 0.96279 31.746 0.898085C31.8069 0.83338 31.8781 0.778843 31.946 0.72107C32.1984 0.528303 32.481 0.378689 32.7823 0.278302C33.3367 0.0883457 33.8509 0.0379681 34.3531 0.00885078C35.3525 -0.0308967 36.2973 0.0675476 37.2283 0.200193C39.0861 0.477501 40.8782 0.918421 42.6543 1.4051C46.1998 2.39601 49.6557 3.59121 53.0793 4.9001L52.4324 4.92552C53.6224 4.35681 54.8467 3.86286 56.0981 3.44655C57.3514 3.03767 58.6283 2.70506 59.9218 2.45055C61.213 2.20004 62.5176 2.02473 63.8291 1.92551C65.1398 1.82242 66.4555 1.79711 67.7692 1.84971L67.6306 1.85572C67.7306 1.84609 67.8313 1.8478 67.9309 1.86081L67.8325 1.8511C68.9651 1.89685 70.0926 2.02849 71.2052 2.24488C72.3056 2.4622 73.3931 2.73993 74.4629 3.0768C74.9961 3.24088 75.5205 3.41558 76.0449 3.59768C76.5693 3.77978 77.0747 3.95957 77.6093 4.16339C78.6572 4.56841 79.6806 5.03415 80.6744 5.55825L80.0275 5.51203C83.5172 4.30389 87.0378 3.20113 90.6355 2.30311C92.4374 1.85942 94.254 1.46426 96.1266 1.22022C97.065 1.10422 98.0149 1.01964 99.0105 1.06077C99.5104 1.08804 100.019 1.13287 100.562 1.29186C100.855 1.373 101.134 1.49432 101.394 1.65236C101.542 1.74535 101.679 1.8538 101.804 1.97589C101.87 2.04155 101.932 2.11132 101.989 2.18479C102.014 2.21463 102.037 2.2463 102.058 2.27954L102.113 2.36504C102.729 3.26861 103.026 4.3136 103.135 5.31421C103.244 6.31483 103.182 7.30621 103.048 8.26154C102.767 10.1722 102.208 11.9839 101.543 13.7342C100.878 15.4845 100.096 17.1802 99.2531 18.8367C98.4099 20.4931 97.4974 22.1094 96.5239 23.6942L96.5701 22.9274C97.515 24.9888 98.2999 27.1494 98.8072 29.3846L98.8197 29.4539L99.8875 34.6243L100.858 39.87L100.979 40.4986C101.023 40.702 101.071 40.9062 101.122 41.1105C101.226 41.5186 101.353 41.9281 101.483 42.3376C101.749 43.1644 102.065 43.9659 102.35 44.8717C102.431 45.1246 102.492 45.3835 102.532 45.6459C102.561 45.8348 102.561 46.0269 102.532 46.2158C102.516 46.3246 102.488 46.4313 102.448 46.5337C102.405 46.6504 102.347 46.7609 102.275 46.8623C102.129 47.0672 101.931 47.2304 101.703 47.3356C101.606 47.3811 101.506 47.4173 101.403 47.4438C101.313 47.4655 101.222 47.482 101.131 47.4932C100.833 47.5214 100.533 47.5079 100.239 47.453C99.749 47.3609 99.2692 47.2205 98.8068 47.0338C98.363 46.8611 97.929 46.6644 97.5067 46.4445L98.6391 46.0429L98.6548 46.0032L98.6599 45.9879L98.6659 45.968L98.6714 45.9486L98.6742 45.9338C98.6742 45.9283 98.6742 45.9366 98.6742 45.9426C98.6742 45.9597 98.6742 45.9888 98.6742 46.0193C98.6812 46.0971 98.6934 46.1743 98.7107 46.2504C98.7552 46.4396 98.8146 46.6251 98.8881 46.805C98.9629 46.9973 99.0526 47.1873 99.151 47.3865L99.4698 48.0201C99.5784 48.2378 99.6888 48.4629 99.7932 48.7134C99.9175 48.9984 100.004 49.2984 100.051 49.6059C100.077 49.8133 100.069 50.0234 100.029 50.2284C99.9769 50.4711 99.8689 50.6983 99.7133 50.8916C99.3899 51.2762 99.0133 51.4199 98.7042 51.516C98.0745 51.6889 97.5418 51.6755 97.0151 51.6515C96.8845 51.6431 96.755 51.6324 96.6265 51.6191L96.462 51.6029C96.4117 51.5974 96.3696 51.5974 96.3202 51.5942C96.1585 51.5841 95.9963 51.5971 95.8383 51.633C95.5611 51.6963 95.289 51.8641 95.003 52.1257C94.869 52.2523 94.7114 52.4173 94.583 52.5656C94.4546 52.714 94.3173 52.8892 94.1875 53.0639L94.1598 53.1022L94.1242 53.1401C94.0462 53.2226 93.953 53.2893 93.8498 53.3366C93.7465 53.384 93.6349 53.4109 93.5213 53.4156L94.1219 53.1383C93.7578 53.5579 93.348 54.0164 92.9405 54.4518C92.7331 54.6676 92.5298 54.8881 92.3177 55.0989C92.1057 55.3096 91.8922 55.5213 91.6709 55.7256C91.2363 56.14 90.7884 56.5405 90.3273 56.9272C89.8685 57.315 89.3977 57.6903 88.9112 58.0429C88.4247 58.3956 87.9336 58.7431 87.4231 59.0597C86.9172 59.3833 86.396 59.6823 85.8656 59.9619C84.8098 60.5259 83.7056 60.9941 82.5663 61.3609C82.5033 61.3807 82.4352 61.3769 82.3747 61.3504C82.3142 61.3238 82.2653 61.2762 82.2372 61.2165C82.209 61.1567 82.2034 61.0887 82.2215 61.0251C82.2395 60.9615 82.2799 60.9066 82.3353 60.8706C83.3199 60.2323 84.2869 59.5959 85.2211 58.9206C85.6877 58.5817 86.1477 58.2374 86.6011 57.8877C87.0516 57.5322 87.4993 57.175 87.9373 56.8061C88.3753 56.4373 88.8041 56.0588 89.2273 55.6738C89.6505 55.2888 90.0617 54.8881 90.4706 54.4892C90.8794 54.0904 91.2749 53.673 91.6718 53.2589C92.0687 52.8448 92.4411 52.427 92.8486 51.9607L93.4492 51.6833C93.3377 51.6874 93.2281 51.7135 93.1267 51.7601C93.0253 51.8066 92.9341 51.8728 92.8583 51.9546L92.795 52.0304C92.947 51.828 93.1055 51.6228 93.2861 51.4227C93.4671 51.2222 93.6582 51.0311 93.8586 50.85C94.0802 50.6536 94.321 50.48 94.5775 50.3319C94.858 50.1715 95.1616 50.0554 95.4775 49.9876C96.1169 49.8397 96.7651 49.9728 97.1227 49.9941C97.5362 50.0237 97.9645 50.0149 98.2496 49.934C98.3177 49.9151 98.3833 49.8883 98.445 49.854C98.4386 49.8628 98.4224 49.8933 98.4312 49.8832C98.4342 49.8555 98.4342 49.8276 98.4312 49.8C98.4031 49.6405 98.3551 49.4853 98.2884 49.3378C98.2112 49.1529 98.1142 48.9523 98.0112 48.7471L97.6924 48.1139C97.5815 47.8889 97.4688 47.6518 97.3722 47.4026C97.2669 47.1444 97.1826 46.8781 97.12 46.6063C97.0851 46.4521 97.0614 46.2957 97.0488 46.1381C97.0418 46.0458 97.0404 45.9532 97.0446 45.8608C97.0471 45.8046 97.0525 45.7486 97.0608 45.693C97.0659 45.6607 97.0696 45.6334 97.0798 45.5914L97.095 45.5285L97.1075 45.4874L97.1163 45.4619L97.1357 45.4116L97.4508 44.593L98.2681 45.009C98.9787 45.3714 99.8052 45.7226 100.507 45.8488C100.649 45.8765 100.794 45.8858 100.939 45.8765C100.961 45.8748 100.984 45.8702 101.006 45.8627C101.006 45.8627 100.959 45.8881 100.942 45.9218C100.929 45.9352 100.926 45.9542 100.921 45.9556C100.921 45.9685 100.919 45.9588 100.921 45.9556C100.921 45.9245 100.918 45.8935 100.912 45.8631C100.901 45.7838 100.885 45.7051 100.866 45.6274L100.786 45.345C100.54 44.5593 100.208 43.7057 99.93 42.8437C99.7914 42.4088 99.6527 41.9697 99.5405 41.5182C99.4823 41.2931 99.4291 41.0648 99.3802 40.8351L99.2499 40.1566L98.2852 34.9339L97.2031 29.6794L97.2161 29.7483C96.7374 27.6384 95.9954 25.591 95.0857 23.6059L94.905 23.2107L95.1333 22.841C96.0823 21.2992 96.974 19.713 97.7973 18.0995C98.6206 16.486 99.3783 14.8393 100.015 13.1588C100.652 11.4783 101.177 9.76039 101.43 8.03599C101.553 7.17588 101.601 6.31345 101.511 5.494C101.42 4.67456 101.187 3.9078 100.765 3.29033C100.599 2.90164 99.7535 2.72462 98.9292 2.68949C98.0897 2.65391 97.204 2.72786 96.323 2.83785C94.5548 3.06894 92.7797 3.45117 91.0181 3.88608C87.4933 4.76746 84.0004 5.85866 80.5547 7.05201L80.2276 7.16478L79.9152 7.00025C78.978 6.50543 78.0126 6.06591 77.0239 5.68396C76.5383 5.49909 76.0135 5.31422 75.509 5.13674C75.0044 4.95926 74.4925 4.79057 73.9811 4.63342C72.9683 4.31512 71.9387 4.05282 70.8971 3.84772C69.866 3.647 68.8211 3.52478 67.7715 3.48213L67.6736 3.47243C67.7283 3.48357 67.7847 3.48357 67.8394 3.47243L67.7008 3.47844C66.4504 3.42833 65.1982 3.45241 63.9506 3.55054C62.7027 3.64494 61.4613 3.81176 60.2327 4.05015C59.007 4.29253 57.7971 4.60878 56.6096 4.99716C55.4247 5.39069 54.2656 5.85778 53.1389 6.39572L52.8219 6.54731L52.4934 6.4216C49.1207 5.12981 45.6879 3.94431 42.2204 2.97651C40.4865 2.49677 38.7368 2.07017 36.9927 1.81181C36.1241 1.6861 35.2495 1.60152 34.4284 1.63572C34.0246 1.65652 33.6236 1.7069 33.3159 1.81644C33.1846 1.85819 33.0608 1.92059 32.9491 2.00131C32.932 2.01887 32.9102 2.03412 32.8936 2.04753C32.877 2.06093 32.8691 2.07341 32.8474 2.10114L32.6917 2.33223C32.2759 2.95063 32.0389 3.71877 31.9492 4.53637C31.8596 5.35396 31.8836 6.21131 31.9899 7.06911C32.2075 8.7875 32.676 10.5082 33.2623 12.1901C33.8486 13.8719 34.5472 15.5302 35.3132 17.1576C36.0792 18.7849 36.9132 20.3831 37.8077 21.9388L38.0151 22.3003L37.8446 22.6792C37.201 24.112 36.5856 25.5517 36.0538 27.0108C35.7868 27.7401 35.5435 28.4748 35.3238 29.2149L35.1658 29.7728L35.0272 30.3274C34.9394 30.6971 34.8309 31.0734 34.7588 31.4339L34.7459 31.4907L33.4208 38.2653L33.0877 39.9717C33.0331 40.249 32.9745 40.561 32.9075 40.8591C32.8405 41.1572 32.7615 41.4525 32.6806 41.7446C32.5161 42.327 32.3276 42.8941 32.1331 43.4496C31.9386 44.0052 31.7344 44.5528 31.5695 45.07C31.4868 45.3228 31.4151 45.5927 31.4004 45.7439C31.4004 45.7531 31.3962 45.767 31.3967 45.7716C31.3969 45.7736 31.3969 45.7756 31.3967 45.7776C31.3969 45.7797 31.3967 45.7817 31.3959 45.7837C31.3952 45.7856 31.394 45.7873 31.3925 45.7887C31.3976 45.7966 31.3967 45.8072 31.3925 45.7929C31.3743 45.7522 31.3448 45.7177 31.3075 45.6935C31.2835 45.6815 31.3172 45.6986 31.3851 45.7027C31.4742 45.709 31.5637 45.706 31.6522 45.694C31.8892 45.662 32.1228 45.6088 32.3503 45.535C32.8605 45.3701 33.3573 45.1662 33.8361 44.9249L33.8846 44.9009L33.9105 44.8875L33.9235 44.8814L33.9401 44.8731C33.9706 44.8593 34.002 44.8463 34.0325 44.8352C34.1503 44.7957 34.2749 44.7806 34.3988 44.7908C34.5226 44.801 34.6431 44.8363 34.7528 44.8945C34.8626 44.9528 34.9594 45.0327 35.0373 45.1296C35.1152 45.2264 35.1726 45.3381 35.206 45.4578C35.2318 45.5496 35.2436 45.6448 35.2411 45.7402C35.2389 45.8044 35.2307 45.8683 35.2167 45.9311L35.2009 45.999L35.1695 46.1233C35.1266 46.2851 35.0799 46.4385 35.0309 46.5897C34.932 46.8905 34.8216 47.1789 34.7075 47.4627L34.3578 48.2752C34.2455 48.535 34.1411 48.7901 34.0547 49.0277C33.9683 49.2652 33.911 49.4898 33.9054 49.6239C33.9005 49.6547 33.9021 49.6862 33.9101 49.7163C33.9039 49.6979 33.8944 49.6808 33.8819 49.6659C33.8925 49.6863 34.0755 49.7584 34.2787 49.7866C34.5137 49.8168 34.7509 49.8264 34.9875 49.8152C35.1141 49.8106 35.2421 49.8018 35.3728 49.7898L35.5789 49.769C35.6639 49.7602 35.7475 49.7533 35.8367 49.7482C36.2239 49.7208 36.613 49.7589 36.9876 49.861L37.3138 49.9534L37.4884 50.2358C38.2494 51.4652 39.1642 52.5999 40.1732 53.6559C40.6787 54.1837 41.2146 54.6852 41.7672 55.171C42.3197 55.6567 42.8903 56.1277 43.4766 56.5843C44.0629 57.0409 44.6534 57.493 45.2633 57.9195C45.8731 58.3461 46.4853 58.7713 47.1155 59.1711C48.3681 59.9841 49.6682 60.7291 50.9965 61.4437C51.0564 61.4755 51.1022 61.5286 51.125 61.5925C51.1478 61.6564 51.146 61.7266 51.1198 61.7892C51.0936 61.8518 51.0449 61.9023 50.9834 61.9309C50.9219 61.9595 50.8519 61.9641 50.7872 61.9437L50.7895 61.9488Z" fill="#390075"/>
<path d="M98.5892 32.2378C77.0256 30.1725 55.3136 30.1813 33.7516 32.2641C33.8145 31.9609 33.8736 31.6804 33.9286 31.4262C33.9365 31.3799 33.9466 31.3337 33.9591 31.2875C33.9716 31.2413 33.9794 31.1951 33.9873 31.1512C33.9951 31.1073 34.0076 31.0638 34.0159 31.0208C34.1277 30.5124 34.2539 30.0161 34.392 29.5178C34.8882 27.7236 35.5512 25.9392 36.3708 24.0179C56.2631 22.2531 76.2724 22.2511 96.165 24.0119H96.1673C96.4681 24.7093 96.7449 25.403 96.999 26.1028C97.4085 27.2354 97.7493 28.3917 98.0196 29.5654C98.0226 29.5866 98.0268 29.6076 98.032 29.6283C98.0829 29.858 98.2783 30.7163 98.5892 32.2378Z" fill="#F22525"/>
<g opacity="0.35">
<path d="M98.5886 32.2367C98.3788 32.2164 98.1695 32.196 97.9597 32.178C97.8928 31.873 97.8479 31.6733 97.8258 31.5772C97.8204 31.5565 97.8164 31.5355 97.8137 31.5143C97.5435 30.3405 97.2026 29.1842 96.7927 28.0516C96.7899 28.0447 96.7876 28.0378 96.7853 28.0309C96.5602 27.4159 96.1577 26.8817 95.6287 26.496C95.0997 26.1102 94.4681 25.8903 93.814 25.8642C85.7472 25.5171 56.9402 24.4092 41.4307 25.5406C38.0306 25.7902 35.1204 28.1214 34.2051 31.4062C34.1991 31.427 34.1936 31.4473 34.188 31.4681C34.1169 31.7241 34.0494 31.9825 33.9847 32.2408C33.9071 32.2492 33.8281 32.2552 33.7505 32.2635C33.8138 31.9603 33.8725 31.6793 33.9274 31.4251C33.9358 31.3786 33.9459 31.3324 33.9579 31.2864C33.9681 31.2402 33.9783 31.194 33.9866 31.1501C33.9949 31.1062 34.0069 31.0623 34.0152 31.0198C34.127 30.5114 34.2532 30.015 34.3913 29.5163C34.8875 27.7221 35.5505 25.9381 36.3701 24.0164C56.2624 22.2516 76.2717 22.2496 96.1643 24.0103C96.4656 24.7082 96.7419 25.402 96.996 26.1017C97.4059 27.2341 97.7468 28.3903 98.017 29.5639C98.0197 29.5852 98.0237 29.6064 98.0291 29.6272C98.084 29.8546 98.2771 30.7152 98.5886 32.2367Z" fill="white"/>
</g>
<g opacity="0.3">
<path d="M98.5886 32.2368C77.0247 30.1717 55.3126 30.1807 33.7505 32.2636C33.8138 31.9604 33.8725 31.6794 33.9275 31.4252C33.9358 31.3787 33.9459 31.3325 33.9579 31.2866C33.9681 31.2404 33.9783 31.1942 33.9866 31.1502C33.9949 31.1063 34.0069 31.0624 34.0152 31.0199C34.127 30.5115 34.2532 30.0151 34.3913 29.5164C34.4375 29.3454 34.487 29.1749 34.5396 29.0016C55.6048 27.0138 76.81 27.0063 97.8766 28.9794C97.9256 29.1726 97.9722 29.3658 98.0152 29.5608C98.0179 29.5821 98.0219 29.6033 98.0272 29.6241C98.084 29.8548 98.2772 30.7153 98.5886 32.2368Z" fill="#390075"/>
</g>
<path d="M32.7305 33.1798L32.955 32.0982C33.0174 31.7988 33.0761 31.521 33.1301 31.2663C33.1408 31.2086 33.1532 31.1508 33.168 31.093C33.1754 31.0588 33.1828 31.0228 33.1893 30.9909C33.1957 30.959 33.2022 30.9275 33.211 30.891L33.2216 30.8416C33.332 30.3424 33.4582 29.8373 33.6079 29.2961C34.0791 27.5929 34.7195 25.8144 35.6204 23.6954L35.8117 23.247L36.2973 23.2041C56.2255 21.4408 76.2703 21.4377 96.1991 23.1948H96.6995L96.9134 23.6861C97.2313 24.4233 97.509 25.1226 97.7617 25.8237C98.183 26.9866 98.5331 28.1742 98.81 29.3797L98.8317 29.4721V29.4749C98.8969 29.7601 99.0886 30.611 99.3861 32.0724L99.6065 33.1502L98.5115 33.0453C76.9991 30.9903 55.3395 30.9991 33.8287 33.0716L32.7305 33.1798ZM34.8123 31.1854C34.8068 31.2122 34.8008 31.2386 34.7943 31.2654L34.7879 31.2945C34.7842 31.313 34.7805 31.331 34.7772 31.3491C55.6622 29.4054 76.6821 29.397 97.5686 31.3241C97.3884 30.4695 97.2752 29.9718 97.2373 29.8086C97.228 29.7689 97.2211 29.736 97.217 29.7106C96.9559 28.5803 96.6268 27.4667 96.2315 26.376C96.0416 25.8487 95.8364 25.3213 95.6091 24.7764C76.0859 23.0817 56.4526 23.0837 36.9298 24.7824C36.1545 26.6376 35.5941 28.2206 35.1741 29.7323C35.0346 30.2421 34.9154 30.7177 34.8123 31.1854Z" fill="#390075"/>
<path d="M46.1334 11.0166C45.4103 11.5398 43.6232 14.2593 42.257 16.4394C40.2403 13.3636 39.247 8.68539 39.0788 6.51731C39.0765 6.49281 39.0746 6.46878 39.0728 6.44659C41.0216 7.03033 43.2342 7.86318 43.7055 8.40809C44.5561 9.38282 47.3762 10.1223 46.1334 11.0166Z" fill="#FC7E81"/>
<path d="M42.2589 16.6538L42.1605 16.5031C40.1581 13.4486 39.1366 8.76302 38.9633 6.52745L38.9453 6.28943L39.1056 6.33565C40.9472 6.8861 43.2795 7.73929 43.7942 8.33088C44.082 8.6618 44.6208 8.97146 45.1415 9.27141C45.8899 9.70217 46.5363 10.0747 46.5594 10.5309C46.57 10.7356 46.449 10.9302 46.2004 11.109C45.646 11.5098 44.2816 13.4236 42.3545 16.4994L42.2589 16.6538ZM39.2013 6.61018C39.393 8.82865 40.3716 13.2536 42.2557 16.2268C43.6159 14.0614 45.3438 11.4483 46.0655 10.926C46.2461 10.7961 46.3348 10.6686 46.3288 10.5475C46.3122 10.217 45.6585 9.84036 45.0259 9.47616C44.4891 9.16696 43.9333 8.84713 43.62 8.48709C43.1811 7.98008 41.1126 7.18837 39.2013 6.61018Z" fill="#390075"/>
<path d="M41.2954 18.2805C42.8311 15.4025 44.4348 13.3268 45.5838 12.0276C45.7848 11.801 45.9335 11.5329 46.0193 11.2424C46.1051 10.9518 46.126 10.646 46.0804 10.3464C46.0349 10.0469 45.924 9.7611 45.7557 9.50923C45.5874 9.25735 45.3658 9.0456 45.1066 8.88898C42.5571 7.34438 39.7185 6.41216 37.9018 5.92133C37.6661 5.8581 37.419 5.8502 37.1797 5.89825C36.9404 5.94629 36.7155 6.04899 36.5224 6.19832C36.3293 6.34766 36.1734 6.53959 36.0667 6.75915C35.96 6.97871 35.9054 7.21996 35.9073 7.46408C35.9165 9.25318 36.1739 12.0457 37.3788 14.9787C38.0145 16.5265 38.641 17.626 39.1631 18.3877C39.6931 19.1614 40.8537 19.1082 41.2954 18.2805Z" fill="#F95288"/>
<path d="M40.9381 18.09C41.6 16.7101 42.3565 15.3775 43.202 14.1019C43.6262 13.4618 44.0715 12.8346 44.5419 12.225L44.9046 11.7734C44.9628 11.7023 45.0362 11.6172 45.0811 11.5571C45.12 11.5072 45.1555 11.4547 45.1873 11.4C45.3145 11.1865 45.3785 10.9413 45.3721 10.6929C45.3698 10.4489 45.2989 10.2106 45.1675 10.0051C45.1044 9.90503 45.0283 9.81379 44.9411 9.73383C44.8949 9.69917 44.8487 9.6585 44.8025 9.62661C44.7563 9.59472 44.7216 9.56791 44.6292 9.52169C43.999 9.16489 43.342 8.85153 42.6786 8.55111C41.3479 7.95536 39.9605 7.47192 38.5559 7.0518C38.2062 6.95012 37.8444 6.85029 37.5016 6.76248C37.3634 6.7266 37.2167 6.74478 37.0913 6.81332C36.9657 6.88284 36.8724 6.99906 36.8317 7.13684C36.821 7.17121 36.8147 7.20676 36.8127 7.24268L36.81 7.27041V7.28428V7.45297C36.81 7.63276 36.8132 7.81255 36.8164 7.9928C36.8482 9.4383 37.0271 10.8768 37.3505 12.286C37.5098 12.9915 37.7104 13.687 37.9512 14.369C38.187 15.0595 38.458 15.7375 38.7629 16.4003C38.9159 16.7308 39.072 17.0594 39.2425 17.3792C39.3271 17.5391 39.4144 17.6977 39.5054 17.8534L39.6403 18.079C39.6675 18.1245 39.6984 18.1678 39.7327 18.2084C39.8086 18.29 39.902 18.3533 40.0058 18.3938C40.1097 18.4342 40.2213 18.4506 40.3324 18.4418C40.4547 18.4341 40.5736 18.3985 40.68 18.3377C40.7863 18.2769 40.8773 18.1925 40.946 18.091L40.9381 18.09ZM41.6459 18.4676C41.5364 18.6995 41.3754 18.9032 41.1752 19.0634C40.9751 19.2236 40.741 19.336 40.4909 19.392C40.2297 19.4466 39.9596 19.4418 39.7005 19.3778C39.4415 19.3138 39.2001 19.1923 38.9944 19.0223C38.9436 18.976 38.8914 18.9331 38.8442 18.8836L38.713 18.7292L38.5305 18.488C38.4146 18.329 38.3028 18.1672 38.1937 18.0041C37.977 17.6773 37.7687 17.3459 37.5779 17.0053C37.1964 16.3257 36.8513 15.6264 36.5439 14.9102C36.2403 14.1868 35.9799 13.446 35.764 12.6918C35.3397 11.1782 35.0916 9.62065 35.0247 8.05011C35.0187 7.85322 35.0113 7.6568 35.0109 7.45944V7.31201V7.27503V7.21865L35.0169 7.10541C35.0266 6.953 35.052 6.80199 35.0926 6.65479C35.257 6.05734 35.6492 5.54829 36.1849 5.23714C36.7206 4.92598 37.357 4.83758 37.9572 4.99094C38.343 5.09493 38.7056 5.20123 39.078 5.31447C40.5622 5.76575 42.0075 6.3364 43.3998 7.02084C44.1002 7.36663 44.7811 7.75051 45.4396 8.17074C45.5117 8.21234 45.6355 8.30246 45.7348 8.37456C45.8362 8.45497 45.9334 8.54058 46.0259 8.63107C46.2062 8.81709 46.3605 9.02666 46.4847 9.25409C46.7325 9.705 46.8506 10.2158 46.8256 10.7298C46.7949 11.3666 46.5473 11.9736 46.1238 12.4501C46.0495 12.5356 45.9959 12.5887 45.9307 12.6613L45.5611 13.0712C45.069 13.6194 44.5978 14.1892 44.145 14.7753C43.2395 15.9556 42.4072 17.1904 41.6529 18.4727L41.6459 18.4676Z" fill="#390075"/>
<path d="M91.6454 18.7083C90.2594 15.9815 88.8119 13.9844 87.7547 12.7083C87.5613 12.4753 87.4214 12.2025 87.345 11.9094C87.2686 11.6163 87.2577 11.3099 87.3128 11.0121C87.368 10.7142 87.4879 10.4321 87.6642 10.1858C87.8404 9.93951 88.0687 9.73498 88.3327 9.58673C91.0878 8.0375 94.144 7.18617 95.9491 6.77945C96.1579 6.73194 96.3745 6.73115 96.5836 6.77713C96.7927 6.82311 96.9891 6.91472 97.1586 7.04542C97.3282 7.17612 97.4669 7.34268 97.5646 7.53319C97.6624 7.72371 97.7169 7.93347 97.7242 8.1475C97.7847 9.99622 97.4807 13.1968 95.3619 16.8827C94.8999 17.6897 94.4688 18.3557 94.0941 18.8936C93.475 19.782 92.1356 19.6743 91.6454 18.7083Z" fill="#F95288"/>
<path d="M91.2857 18.892C90.5618 17.6024 89.7595 16.3585 88.8832 15.1673C88.4438 14.5761 87.9859 14.0003 87.5064 13.447L87.3276 13.239L87.2375 13.1346L87.1233 12.9885C86.7422 12.4779 86.548 11.8518 86.5732 11.2151C86.5984 10.5783 86.8416 9.96959 87.262 9.49077C87.4311 9.29732 87.6262 9.12825 87.8418 8.98838C87.9582 8.90888 88.0344 8.86821 88.119 8.81876L88.3717 8.67225C89.0461 8.28856 89.7401 7.94037 90.4508 7.62911C91.8639 7.01092 93.324 6.50662 94.8174 6.12101L95.3769 5.97866C95.5783 5.93568 95.7003 5.88623 96.0486 5.84001C96.6633 5.78189 97.2763 5.96712 97.7561 6.35595C98.2358 6.74478 98.5441 7.30622 98.6147 7.91982C98.6212 7.99146 98.629 8.07881 98.6309 8.13704L98.6332 8.28771C98.6332 8.38801 98.6374 8.4883 98.6332 8.58813C98.6332 8.78825 98.6272 8.98792 98.6161 9.18896C98.5771 9.98197 98.4725 10.7704 98.3033 11.5461C98.1428 12.3177 97.9257 13.0765 97.6537 13.8163C97.3792 14.5492 97.0619 15.2653 96.7033 15.9608C96.5185 16.3047 96.33 16.6444 96.1253 16.9748C95.9281 17.3118 95.7188 17.6274 95.5072 17.9487C95.2956 18.2699 95.0692 18.5795 94.8405 18.8887L94.6667 19.1198L94.5785 19.2349L94.4505 19.3847C94.2743 19.5816 94.0584 19.7391 93.8171 19.8468C93.3452 20.0566 92.8096 20.0718 92.3266 19.8889C91.8644 19.7075 91.4932 19.3499 91.2945 18.8947L91.2857 18.892ZM92.0014 18.5282C92.2947 19.0066 92.9379 19.1147 93.3213 18.8573C93.417 18.7975 93.4995 18.7188 93.5639 18.6262L93.6101 18.5564L93.6822 18.4404L93.824 18.2056C94.0125 17.8918 94.1909 17.5711 94.3697 17.2512C95.0826 15.9645 95.6763 14.6579 96.0999 13.2876C96.5236 11.9172 96.78 10.5145 96.8216 9.10901C96.8295 8.93338 96.8304 8.75821 96.8304 8.58351C96.8304 8.49616 96.8272 8.40927 96.8258 8.32191L96.8225 8.19112L96.8161 8.12826C96.8072 8.05864 96.7846 7.99146 96.7497 7.93061C96.7147 7.86976 96.668 7.81646 96.6123 7.77377C96.5001 7.68833 96.36 7.64794 96.2196 7.66053C96.1965 7.65822 95.9558 7.7123 95.7913 7.74974L95.2595 7.8773C93.8446 8.22525 92.4534 8.66337 91.0944 9.18896C90.4208 9.45842 89.7546 9.7385 89.1077 10.0611L88.8665 10.1831C88.7866 10.2238 88.6956 10.2686 88.6573 10.2945C88.5536 10.3519 88.4586 10.4236 88.375 10.5076C88.2059 10.6803 88.0864 10.8953 88.0289 11.1301C87.9733 11.3714 87.9821 11.6231 88.0543 11.8599C88.0947 11.9788 88.1501 12.092 88.2193 12.1968L88.2719 12.2763L88.3592 12.39L88.5348 12.6183C88.9968 13.234 89.4256 13.8662 89.8354 14.5133C90.6506 15.7994 91.3762 17.1403 92.0069 18.5264L92.0014 18.5282Z" fill="#390075"/>
<path d="M70.2679 45.9283C70.2435 46.6105 69.1037 47.4198 68.0623 48.0192C67.5521 48.3123 66.97 48.4565 66.382 48.4355C65.7941 48.4145 65.2237 48.2292 64.7357 47.9004C63.7396 47.228 62.6603 46.3397 62.6848 45.658C62.731 44.3971 64.4169 44.5515 66.5113 44.6264C68.6056 44.7012 70.3128 44.668 70.2679 45.9283Z" fill="#390075"/>
<g opacity="0.35">
<path d="M68.2701 45.6856C68.2669 45.7757 67.9065 45.8705 67.5078 45.9499C66.9071 46.0683 66.0099 46.0364 65.4171 45.8751C65.0249 45.7683 64.6724 45.6472 64.6751 45.5571C64.6825 45.3547 65.4832 45.3981 66.477 45.4337C67.4708 45.4693 68.2775 45.4827 68.2701 45.6856Z" fill="white"/>
</g>
<g opacity="0.2">
<path d="M46.1321 11.017C45.409 11.5402 43.6219 14.2597 42.2558 16.4398C40.239 13.3639 39.2457 8.68576 39.0775 6.51767C39.0752 6.49318 39.0734 6.46915 39.0715 6.44696C41.0203 7.03069 43.2329 7.86354 43.7042 8.40845C44.5548 9.38319 47.3749 10.1227 46.1321 11.017Z" fill="#390075"/>
</g>
<g opacity="0.2">
<path d="M87.2368 11.6816C87.9427 12.2279 89.6393 15.0033 90.9362 17.2277C93.0504 14.2189 94.1948 9.57543 94.4332 7.41473C94.436 7.39024 94.4387 7.3662 94.441 7.34448C92.4747 7.86397 90.2367 8.62472 89.746 9.15392C88.8663 10.0986 86.0253 10.7475 87.2368 11.6816Z" fill="#390075"/>
</g>
<path d="M71.7576 47.64C71.9191 47.8236 72.0511 48.0313 72.1489 48.2556C72.3112 48.6165 72.3942 49.0081 72.3923 49.4039C72.3905 49.7996 72.3039 50.1904 72.1383 50.5498C71.8962 51.0844 71.4897 51.5276 70.9781 51.8148C70.466 52.1011 69.8836 52.2369 69.2978 52.2068C68.7261 52.178 68.1704 52.0078 67.6807 51.7113C67.5568 51.6396 67.4387 51.5581 67.3277 51.4677C67.2134 51.3807 67.1063 51.2846 67.0075 51.1803L66.8583 51.0245C66.8121 50.9723 66.7733 50.92 66.7312 50.8674C66.6466 50.7644 66.5684 50.6564 66.497 50.5438C66.2118 50.1045 65.9976 49.6231 65.8622 49.1171C65.7934 48.8712 65.7423 48.6206 65.7093 48.3674C65.6903 48.2413 65.6774 48.1146 65.6686 47.9847C65.6635 47.921 65.6617 47.8544 65.6589 47.7883C65.6561 47.7222 65.6561 47.6635 65.6589 47.5609L65.6922 46.7969L66.4776 46.7919H66.4827L67.2603 46.7863L67.3 47.5609C67.3051 47.6635 67.3041 47.7158 67.3037 47.7883C67.3032 47.8609 67.3009 47.921 67.2963 47.9852C67.2894 48.1151 67.2801 48.2422 67.264 48.3693C67.2343 48.6237 67.1856 48.8755 67.1184 49.1226C66.9877 49.6328 66.7735 50.1179 66.4845 50.5582C66.4124 50.6716 66.3334 50.7806 66.248 50.8845C66.2055 50.9371 66.1653 50.9898 66.12 51.0421L65.9684 51.1974C65.8687 51.3013 65.7605 51.3969 65.645 51.483C65.5329 51.5728 65.4141 51.6541 65.2897 51.7261C64.7956 52.0193 64.2376 52.1879 63.6639 52.2174C63.0758 52.2503 62.4902 52.1179 61.9734 51.8352C61.4505 51.5547 61.0313 51.1139 60.7772 50.5776C60.6566 50.3257 60.5751 50.0568 60.5356 49.7803C60.5018 49.5137 60.5054 49.2436 60.5462 48.978C60.5869 48.7256 60.6648 48.4806 60.7772 48.251C60.882 48.0246 61.0256 47.8183 61.2013 47.6413C61.2211 47.6215 61.2463 47.6079 61.2737 47.6022C61.3012 47.5965 61.3297 47.5991 61.3557 47.6095C61.3817 47.62 61.4041 47.6379 61.42 47.661C61.436 47.684 61.4447 47.7113 61.4453 47.7393V47.7597C61.4456 48.1632 61.5009 48.5649 61.6097 48.9535C61.7013 49.2737 61.8586 49.5712 62.0718 49.827C62.2454 50.0469 62.4708 50.2203 62.7278 50.3317C62.9902 50.435 63.2734 50.4741 63.5539 50.4459C63.8466 50.4166 64.13 50.3263 64.3856 50.1806C64.6415 50.0364 64.8425 49.8487 65.0504 49.5719C65.2523 49.2966 65.4063 48.9893 65.506 48.6628C65.5593 48.4942 65.5996 48.3217 65.6265 48.147C65.6413 48.0596 65.6529 47.9709 65.6589 47.8849L65.6658 47.7574V47.6603L66.4827 48.4294H66.4776L67.2949 47.6603V47.7574L67.2995 47.8854C67.3037 47.9713 67.3115 48.0605 67.3235 48.1484C67.3473 48.3246 67.3853 48.4987 67.4372 48.6688C67.5323 48.9994 67.6862 49.3101 67.8914 49.5862C68.069 49.8361 68.2997 50.0437 68.5668 50.194C68.8268 50.3358 69.1123 50.4244 69.4068 50.4546C69.9991 50.5064 70.5332 50.3266 70.9352 49.8538C71.046 49.7401 71.1255 49.5954 71.2124 49.4494C71.2903 49.2904 71.3546 49.1252 71.4046 48.9553C71.5016 48.5648 71.5388 48.1618 71.515 47.7601V47.7426C71.5124 47.7131 71.5192 47.6835 71.5346 47.6582C71.5499 47.6329 71.573 47.6132 71.6003 47.6019C71.6277 47.5907 71.6579 47.5885 71.6866 47.5956C71.7154 47.6028 71.741 47.619 71.7599 47.6418L71.7576 47.64Z" fill="#390075"/>
<path d="M109.224 69.1209C108.208 70.6997 105.528 70.078 103.238 69.0802C102.407 68.7174 101.689 68.2446 101.142 67.7297C98.4619 71.4105 96.6379 75.1902 89.0132 78.5364C83.7092 80.8644 77.0413 80.8473 73.9116 79.1035C73.8317 79.06 73.7624 78.9992 73.709 78.9256C73.6555 78.852 73.6191 78.7674 73.6024 78.6779C73.5857 78.5884 73.5892 78.4964 73.6125 78.4084C73.6359 78.3205 73.6785 78.2388 73.7374 78.1694L76.3667 75.0728C76.436 74.9909 76.4826 74.8922 76.5017 74.7866C76.5209 74.6809 76.5119 74.5722 76.4758 74.4711C76.4397 74.37 76.3777 74.2802 76.2959 74.2107C76.2142 74.1412 76.1156 74.0944 76.0101 74.075L71.5659 72.2313C71.1963 72.058 70.9592 71.6813 71.1311 71.3333C72.8064 67.9446 78.0702 64.5365 83.5063 63.1356C89.4077 61.6146 95.8284 62.642 99.8115 64.0942C99.9039 63.3321 100.16 62.49 100.584 61.6604C101.723 59.4363 104.318 56.6928 105.955 57.6805C107.883 58.8443 106.133 61.6936 104.996 63.92L104.993 63.9255C104.965 63.9794 104.948 64.0384 104.944 64.099C104.94 64.1596 104.948 64.2204 104.968 64.2776C104.989 64.3348 105.021 64.3873 105.062 64.4317C105.103 64.476 105.154 64.5114 105.209 64.5356L105.217 64.5388C107.507 65.5376 110.209 67.5915 109.224 69.1209Z" fill="#F4B75D"/>
<g opacity="0.5">
<path d="M105.954 57.6801C106.481 57.9972 106.733 58.4409 106.798 58.9618C105.156 58.1844 102.665 60.8428 101.558 63.0105C101.133 63.8424 100.875 64.6817 100.785 65.4452C96.8011 63.9912 90.3799 62.9642 84.4781 64.4857C79.1445 65.8607 73.975 69.1681 72.2013 72.4939L71.5656 72.23C71.1959 72.0567 70.9585 71.6791 71.1303 71.3311C72.8061 67.9438 78.0694 64.537 83.5065 63.1348C89.4078 61.6133 95.829 62.6403 99.8107 64.0929C99.9031 63.3303 100.159 62.4887 100.584 61.6581C101.723 59.4364 104.318 56.6925 105.954 57.6801Z" fill="white"/>
</g>
<g opacity="0.3">
<path d="M108.256 66.4458C109.219 67.3239 109.753 68.3001 109.223 69.1204C108.207 70.6997 105.527 70.0776 103.238 69.0802C102.406 68.7188 101.688 68.2446 101.141 67.7297C98.4615 71.4101 96.6384 75.1902 89.0123 78.5373C83.7083 80.8653 77.04 80.8482 73.9103 79.1044C73.8305 79.0608 73.7615 78.9999 73.7082 78.9262C73.6549 78.8525 73.6187 78.7679 73.6021 78.6785C73.5856 78.589 73.5892 78.497 73.6126 78.4092C73.636 78.3213 73.6786 78.2397 73.7375 78.1704L74.3339 77.4683C77.7991 78.5221 83.3341 78.2489 87.8711 76.2569C94.6813 73.268 97.3218 69.718 99.7169 66.3714C100.129 65.7955 100.962 65.7738 101.426 66.3067C101.609 66.5202 101.837 66.6895 102.095 66.8017C104.385 67.7991 107.063 68.4193 108.08 66.8419C108.161 66.7207 108.22 66.5868 108.256 66.4458Z" fill="#390075"/>
</g>
<path d="M80.0582 81.1806C77.5014 81.1806 75.1608 80.7309 73.516 79.8149C73.331 79.7128 73.1709 79.5709 73.0474 79.3994C72.924 79.2279 72.8402 79.031 72.8021 78.8231C72.764 78.6152 72.7726 78.4014 72.8273 78.1973C72.882 77.9931 72.9813 77.8037 73.1182 77.6426L75.5577 74.7683L71.2198 72.9658C70.7998 72.7675 70.4805 72.4241 70.3419 72.0234C70.2814 71.8526 70.2559 71.6714 70.2668 71.4905C70.2778 71.3097 70.325 71.1328 70.4057 70.9706C72.1738 67.3947 77.4787 63.8479 83.3071 62.3459C88.9706 60.8863 95.0554 61.6909 99.1955 63.0206C99.3559 62.4208 99.58 61.8399 99.8641 61.2879C100.822 59.4156 102.697 57.2633 104.426 56.7706C105.138 56.5672 105.812 56.6412 106.378 56.9818C108.783 58.4326 107.204 61.4534 106.05 63.6584C105.999 63.7564 105.948 63.8535 105.898 63.9496C107.644 64.7751 109.676 66.1958 110.145 67.7487C110.34 68.393 110.259 69.0193 109.91 69.56C109.15 70.74 107.32 71.7429 102.916 69.8244C102.345 69.5781 101.803 69.2711 101.299 68.9088C101.124 69.1561 100.953 69.4033 100.784 69.6483C98.5201 72.9094 96.1739 76.2824 89.3407 79.2815C86.4766 80.5391 83.1122 81.1806 80.0582 81.1806ZM74.5227 78.5051C77.3873 79.9378 83.4859 80.0765 88.6887 77.7919C95.102 74.9772 97.2139 71.9375 99.4501 68.7193C99.7837 68.2386 100.129 67.7418 100.486 67.2514L101.03 66.5046L101.702 67.1377C102.199 67.6064 102.844 68.0205 103.565 68.3348C106.106 69.444 107.969 69.572 108.543 68.6805C108.608 68.5797 108.658 68.4545 108.589 68.222C108.325 67.3499 106.738 66.0863 104.897 65.2835C104.738 65.2155 104.595 65.1154 104.476 64.9895C104.358 64.8635 104.266 64.7145 104.208 64.5517C104.15 64.3889 104.126 64.2158 104.137 64.0432C104.149 63.8707 104.196 63.7024 104.276 63.5489C104.383 63.3391 104.495 63.1246 104.609 62.9065C105.756 60.7144 106.55 58.989 105.539 58.3771C105.428 58.3101 105.239 58.2334 104.872 58.3378C103.649 58.6859 102.1 60.4893 101.315 62.0311C100.945 62.7503 100.708 63.4971 100.625 64.1913L100.504 65.2109L99.5388 64.8592C95.6449 63.4389 89.4432 62.4475 83.7156 63.9237C78.5007 65.2678 73.6075 68.436 71.9599 71.5118L76.2613 73.2958C76.4949 73.3563 76.7093 73.4752 76.8845 73.6412C77.0597 73.8073 77.1898 74.015 77.2628 74.2451C77.3358 74.4752 77.3492 74.7201 77.3018 74.9567C77.2544 75.1934 77.1477 75.4142 76.9918 75.5984L74.5227 78.5051ZM105.726 64.2856C105.726 64.2856 105.726 64.2856 105.726 64.2893C105.726 64.293 105.723 64.287 105.723 64.2856H105.726Z" fill="#390075"/>
<path d="M84.7159 80.2879C84.6771 80.2877 84.6386 80.2822 84.6013 80.2717C84.55 80.2568 84.5021 80.2319 84.4604 80.1984C84.4186 80.165 84.3839 80.1237 84.3582 80.0768C84.3324 80.0299 84.3162 79.9784 84.3103 79.9253C84.3045 79.8721 84.3091 79.8183 84.3241 79.767C86.7691 71.3817 80.8155 64.2456 80.7545 64.1758L81.0604 63.9091L81.0576 63.9045L81.3052 63.581C81.3755 63.6346 87.7273 70.9948 85.1049 79.9944C85.0804 80.0787 85.0292 80.1529 84.9591 80.2058C84.889 80.2587 84.8037 80.2875 84.7159 80.2879Z" fill="#390075"/>
<path d="M85.7949 73.8064C85.6147 73.8064 85.4299 73.8013 85.2405 73.7911L85.1781 73.7884L85.186 73.3955L84.8709 73.1076C85.0021 72.9638 85.1518 72.9717 85.2835 72.9786C86.8853 73.0614 88.0939 72.754 88.6798 72.1083C89.06 71.6887 89.188 71.1239 89.0776 70.3816C88.9879 69.7905 88.7481 69.4051 88.3443 69.204C87.2355 68.6531 85.1264 69.5469 84.4065 69.9384C84.312 69.9861 84.2027 69.9951 84.1016 69.9635C84.0006 69.9319 83.9158 69.8622 83.8654 69.7691C83.8149 69.676 83.8026 69.5669 83.8312 69.465C83.8598 69.363 83.9269 69.2762 84.0184 69.223C84.1395 69.1573 86.9994 67.6261 88.7061 68.4756C89.3557 68.7991 89.7512 69.4 89.8819 70.2596C90.0312 71.245 89.8293 72.051 89.2813 72.6551C88.5957 73.4122 87.3972 73.8064 85.7949 73.8064Z" fill="#390075"/>
<path d="M87.8339 71.8467C87.8118 71.8522 87.7895 71.8565 87.7669 71.8596L87.7207 71.867L87.632 71.8809L87.4555 71.9072L87.1025 71.9576L86.3975 72.0561L84.9878 72.2493C84.934 72.258 84.8789 72.2559 84.8258 72.243C84.7727 72.2301 84.7228 72.2068 84.6789 72.1743C84.635 72.1418 84.598 72.1009 84.5702 72.0539C84.5423 72.007 84.5241 71.9549 84.5167 71.9008C84.5093 71.8467 84.5128 71.7916 84.5269 71.7389C84.5411 71.6861 84.5656 71.6367 84.5992 71.5936C84.6327 71.5505 84.6745 71.5145 84.7221 71.4878C84.7698 71.4611 84.8222 71.4442 84.8765 71.4381C84.905 71.4345 84.9338 71.4335 84.9624 71.4354H84.9666L87.7738 71.6577L87.8173 71.6609C87.8418 71.6589 87.8661 71.6667 87.8848 71.6826C87.9036 71.6985 87.9153 71.7212 87.9173 71.7457C87.9193 71.7702 87.9115 71.7945 87.8956 71.8133C87.8797 71.8321 87.857 71.8438 87.8325 71.8458L87.8339 71.8467Z" fill="#390075"/>
<path d="M106.945 68.1263C106.627 68.1384 106.308 68.1229 105.993 68.08C105.679 68.0368 105.368 67.9751 105.062 67.8952C104.755 67.8184 104.454 67.723 104.159 67.6095C103.863 67.4966 103.577 67.3565 103.306 67.1908C103.292 67.1818 103.281 67.168 103.275 67.1518C103.27 67.1356 103.27 67.118 103.276 67.102C103.282 67.086 103.293 67.0725 103.308 67.0639C103.323 67.0553 103.34 67.0522 103.357 67.0549C103.669 67.1011 103.971 67.1756 104.273 67.2472C104.574 67.3188 104.873 67.3997 105.167 67.4824L106.061 67.7135L106.96 67.9294H106.962C106.986 67.9346 107.007 67.9483 107.021 67.9679C107.036 67.9876 107.042 68.0118 107.04 68.036C107.038 68.0602 107.027 68.0827 107.009 68.0993C106.991 68.1158 106.968 68.1253 106.943 68.1258L106.945 68.1263Z" fill="#390075"/>
<path d="M106 66.839C105.699 66.8256 105.399 66.797 105.103 66.7577C104.806 66.7184 104.509 66.6726 104.215 66.6162C103.921 66.5599 103.627 66.4993 103.337 66.4254C103.045 66.3511 102.758 66.2566 102.478 66.1425C102.463 66.1359 102.45 66.1241 102.442 66.1092C102.434 66.0942 102.431 66.077 102.434 66.0603C102.438 66.0437 102.446 66.0286 102.459 66.0176C102.472 66.0065 102.488 66.0002 102.505 65.9997H102.507C102.809 65.9962 103.111 66.0138 103.41 66.0524C103.707 66.0898 104.002 66.137 104.294 66.197C104.587 66.2571 104.879 66.3181 105.169 66.3902C105.459 66.4623 105.747 66.5464 106.034 66.6444H106.038C106.061 66.6519 106.08 66.6676 106.093 66.6884C106.105 66.7092 106.109 66.7338 106.105 66.7575C106.1 66.7813 106.087 66.8026 106.068 66.8174C106.049 66.8322 106.025 66.8396 106.001 66.8381L106 66.839Z" fill="#390075"/>
<path d="M101.944 64.2983L102.513 63.5689L103.067 62.8294C103.248 62.5799 103.433 62.3335 103.622 62.0872C103.81 61.8408 104.004 61.5982 104.218 61.3666C104.23 61.3542 104.246 61.3461 104.262 61.3437C104.279 61.3414 104.296 61.3449 104.311 61.3536C104.326 61.3624 104.337 61.3759 104.343 61.3919C104.348 61.4079 104.349 61.4254 104.343 61.4415C104.234 61.7399 104.098 62.0275 103.936 62.3007C103.776 62.573 103.6 62.8354 103.409 63.0864C103.219 63.3397 103.014 63.5817 102.795 63.8111C102.575 64.0417 102.336 64.2526 102.079 64.4415C102.06 64.4566 102.036 64.464 102.011 64.4623C101.987 64.4606 101.964 64.45 101.947 64.4325C101.929 64.4149 101.919 64.3917 101.918 64.3672C101.917 64.3427 101.925 64.3186 101.941 64.2996L101.944 64.2983Z" fill="#390075"/>
<path d="M101.871 62.7145C102.034 62.4594 102.208 62.2149 102.39 61.975C102.571 61.7351 102.759 61.5045 102.953 61.2785C103.146 61.0525 103.345 60.8292 103.553 60.6148C103.764 60.3982 103.989 60.1964 104.227 60.0107C104.234 60.0048 104.243 60.0005 104.253 59.998C104.262 59.9955 104.272 59.9949 104.281 59.9962C104.291 59.9976 104.3 60.0008 104.309 60.0057C104.317 60.0107 104.325 60.0173 104.33 60.025C104.339 60.0365 104.344 60.0501 104.345 60.0643C104.346 60.0786 104.344 60.0928 104.337 60.1055C104.189 60.3687 104.023 60.6215 103.841 60.8621C103.66 61.101 103.471 61.3344 103.272 61.5586C103.074 61.7827 102.874 62.0064 102.666 62.2227C102.458 62.439 102.242 62.6475 102.015 62.8457C101.997 62.8617 101.974 62.8706 101.95 62.8708C101.926 62.871 101.903 62.8625 101.885 62.8468C101.866 62.8311 101.854 62.8093 101.851 62.7855C101.848 62.7617 101.853 62.7374 101.866 62.7172L101.871 62.7145Z" fill="#390075"/>
<path d="M87.159 70.0603L84.8411 71.2037C84.7437 71.2519 84.6311 71.2595 84.5281 71.2247C84.4251 71.1899 84.3402 71.1156 84.292 71.0181C84.2437 70.9207 84.2362 70.8081 84.271 70.7051C84.3058 70.602 84.38 70.5171 84.4775 70.4688C84.507 70.4547 84.538 70.4438 84.5699 70.4365L87.1004 69.8712C87.1238 69.8662 87.1484 69.8698 87.1693 69.8815C87.1903 69.8932 87.2063 69.9122 87.2144 69.9348C87.2224 69.9575 87.2219 69.9823 87.213 70.0046C87.2041 70.0269 87.1874 70.0452 87.166 70.0561L87.159 70.0603Z" fill="#390075"/>
<path d="M80.1021 68.0515C80.3184 68.1648 80.1858 68.8654 79.8097 69.7052C80.5951 70.1817 81.1033 70.6827 80.9906 70.899C80.8779 71.1153 80.1765 70.9827 79.3375 70.606C78.8612 71.3917 78.3603 71.9001 78.1441 71.7873C77.9279 71.6746 78.0605 70.9734 78.4366 70.1337C77.6479 69.6562 77.1429 69.158 77.2556 68.9399C77.3684 68.7217 78.0679 68.8553 78.9087 69.2329C79.3851 68.4458 79.8841 67.9369 80.1021 68.0515Z" fill="#390075"/>
<path d="M22.998 69.1208C24.0144 70.6997 26.6941 70.078 28.9834 69.0802C29.8151 68.7174 30.533 68.2446 31.0801 67.7297C33.7598 71.4105 35.5843 75.1902 43.2086 78.5364C48.513 80.8644 55.1804 80.8473 58.3102 79.1035C58.3901 79.06 58.4593 78.9992 58.5128 78.9256C58.5662 78.852 58.6026 78.7673 58.6193 78.6779C58.636 78.5884 58.6325 78.4964 58.6092 78.4084C58.5858 78.3204 58.5432 78.2388 58.4843 78.1694L55.8554 75.0728C55.786 74.9909 55.7393 74.8922 55.7201 74.7865C55.7009 74.6809 55.7098 74.572 55.7459 74.4709C55.7821 74.3698 55.8442 74.28 55.926 74.2105C56.0078 74.141 56.1065 74.0942 56.2121 74.075L60.6549 72.2318C61.0245 72.0585 61.2615 71.6818 61.0892 71.3338C59.4144 67.9446 54.1501 64.5365 48.714 63.1342C42.8126 61.6132 36.3919 62.6406 32.4089 64.0928C32.3164 63.3307 32.0605 62.4886 31.6359 61.6589C30.4975 59.4368 27.9046 56.6928 26.2663 57.6805C24.3374 58.8443 26.088 61.6936 27.2245 63.9199L27.2273 63.9255C27.2553 63.9793 27.272 64.0384 27.2762 64.099C27.2804 64.1596 27.2722 64.2203 27.2519 64.2776C27.2316 64.3348 27.1997 64.3873 27.1583 64.4316C27.1169 64.476 27.0668 64.5114 27.0111 64.5356L27.0032 64.5388C24.7167 65.5376 22.0129 67.5915 22.998 69.1208Z" fill="#F4B75D"/>
<g opacity="0.5">
<path d="M26.266 57.6801C25.7398 57.9972 25.4875 58.4409 25.4229 58.9618C27.064 58.1844 29.5552 60.8428 30.6626 63.0105C31.0877 63.8424 31.3455 64.6817 31.436 65.4452C35.4196 63.9912 41.8407 62.9642 47.7421 64.4857C53.0761 65.8607 58.2452 69.1681 60.0189 72.4939L60.6547 72.23C61.0243 72.0567 61.2622 71.6791 61.0899 71.3311C59.4141 67.9438 54.1508 64.537 48.7142 63.1348C42.8128 61.6133 36.3917 62.6403 32.4095 64.0929C32.3171 63.3303 32.0616 62.4887 31.6366 61.6581C30.4982 59.4364 27.9048 56.6925 26.266 57.6801Z" fill="white"/>
</g>
<g opacity="0.3">
<path d="M23.964 66.4458C23.0016 67.3239 22.4675 68.3001 22.9974 69.1204C24.0139 70.6997 26.6936 70.0776 28.9824 69.0802C29.8141 68.7188 30.5325 68.2446 31.0791 67.7297C33.7588 71.4101 35.5824 75.1902 43.2085 78.5373C48.512 80.8653 55.1804 80.8482 58.3106 79.1044C58.3903 79.0607 58.4592 78.9998 58.5125 78.9261C58.5657 78.8524 58.6019 78.7678 58.6184 78.6783C58.6349 78.5889 58.6313 78.4969 58.6079 78.4091C58.5844 78.3212 58.5417 78.2397 58.4829 78.1704L57.8869 77.4683C54.4217 78.5221 48.8863 78.2489 44.3474 76.2569C37.5372 73.268 34.8972 69.718 32.5017 66.3714C32.0895 65.7955 31.2574 65.7738 30.7922 66.3067C30.6089 66.5203 30.3795 66.6896 30.1213 66.8017C27.8311 67.7991 25.1532 68.4193 24.1363 66.8419C24.0574 66.7203 23.9991 66.5864 23.964 66.4458Z" fill="#390075"/>
</g>
<path d="M52.1642 81.1812C49.1107 81.1812 45.7454 80.5393 42.8813 79.2821C36.048 76.283 33.7042 72.91 31.438 69.6489C31.2689 69.4058 31.097 69.1585 30.9233 68.9094C30.4185 69.2715 29.8764 69.5785 29.3062 69.825C24.9018 71.7444 23.0717 70.7401 22.3117 69.5606C21.9633 69.0199 21.882 68.3936 22.077 67.7493C22.5469 66.1941 24.5825 64.772 26.3234 63.9502C26.2731 63.8532 26.2222 63.7566 26.1714 63.6586C25.0164 61.4535 23.4386 58.4332 25.8438 56.9824C26.4089 56.6418 27.0844 56.5664 27.7959 56.7712C29.5248 57.2639 31.3996 59.4162 32.3579 61.2885C32.642 61.8405 32.866 62.4214 33.0259 63.0213C37.1666 61.6911 43.2509 60.8869 48.9148 62.3465C54.7423 63.8485 60.0495 67.3953 61.8158 70.9712C61.8964 71.1335 61.9437 71.3103 61.9547 71.4911C61.9657 71.672 61.9403 71.8532 61.88 72.0241C61.7414 72.4248 61.418 72.7682 60.999 72.9664L60.9638 72.9822L56.6615 74.7666L59.1019 77.6419C59.2387 77.8031 59.3379 77.9928 59.3924 78.1971C59.4468 78.4015 59.4551 78.6154 59.4167 78.8233C59.3782 79.0313 59.294 79.2281 59.1701 79.3994C59.0462 79.5708 58.8858 79.7124 58.7004 79.8141C57.0575 80.732 54.7201 81.1812 52.1642 81.1812ZM31.194 66.5047L31.7388 67.2516C32.0954 67.742 32.441 68.2388 32.7751 68.7195C35.0112 71.9376 37.1231 74.9774 43.5364 77.7921C48.7411 80.0762 54.8435 79.937 57.7024 78.5052L55.2357 75.5999C55.0797 75.4157 54.9729 75.1949 54.9254 74.9581C54.878 74.7213 54.8914 74.4764 54.9644 74.2462C55.0374 74.016 55.1676 73.8081 55.3428 73.642C55.518 73.4759 55.7325 73.357 55.9662 73.2964L60.2671 71.5124C58.6196 68.4366 53.7263 65.2679 48.5119 63.9243C42.7829 62.4477 36.5821 63.4391 32.6882 64.8598L31.724 65.2115L31.6002 64.192C31.517 63.4987 31.2767 62.7509 30.9108 62.0317C30.1217 60.4899 28.5744 58.6865 27.3533 58.3384C26.9864 58.2344 26.7988 58.3112 26.6866 58.3777C25.6734 58.9892 26.4694 60.7145 27.6157 62.9071C27.7298 63.1252 27.8421 63.3402 27.9493 63.5495C28.0286 63.7024 28.0758 63.8701 28.0877 64.0419C28.0996 64.2138 28.0761 64.3864 28.0186 64.5488C27.9611 64.7112 27.8709 64.8601 27.7535 64.9862C27.6361 65.1123 27.4941 65.2129 27.3362 65.2818C25.4881 66.0873 23.9006 67.3509 23.6368 68.2231C23.5665 68.4542 23.6169 68.5808 23.683 68.6816C24.2568 69.5731 26.1174 69.4437 28.6599 68.3359C29.3815 68.0216 30.026 67.6075 30.5236 67.1388L31.194 66.5047Z" fill="#390075"/>
<path d="M47.5056 80.288C47.4176 80.2878 47.3321 80.2592 47.2617 80.2064C47.1914 80.1536 47.1399 80.0794 47.1151 79.995C44.5167 71.0842 50.8418 63.6394 50.9116 63.5848L51.1624 63.9047L51.4655 64.1764C51.4045 64.2458 45.4496 71.3777 47.8964 79.7671C47.9114 79.8185 47.916 79.8723 47.9102 79.9254C47.9043 79.9786 47.8881 80.0301 47.8623 80.0769C47.8366 80.1238 47.8019 80.1651 47.7601 80.1986C47.7184 80.232 47.6705 80.2569 47.6192 80.2718C47.5822 80.2823 47.544 80.2878 47.5056 80.288Z" fill="#390075"/>
<path d="M46.4245 73.8064C44.8232 73.8064 43.6252 73.4122 42.9386 72.6551C42.3911 72.051 42.1897 71.245 42.338 70.2596C42.4687 69.399 42.8642 68.7987 43.5138 68.4756C45.2233 67.6261 48.0809 69.1573 48.2015 69.223C48.2484 69.2484 48.2899 69.2829 48.3236 69.3244C48.3572 69.3659 48.3823 69.4136 48.3976 69.4648C48.4128 69.516 48.4177 69.5698 48.4122 69.6229C48.4067 69.6761 48.3907 69.7276 48.3652 69.7746C48.3398 69.8215 48.3053 69.863 48.2639 69.8967C48.2224 69.9304 48.1747 69.9555 48.1235 69.9707C48.0723 69.9859 48.0186 69.9909 47.9654 69.9854C47.9123 69.9798 47.8608 69.9639 47.8138 69.9384C47.0922 69.5479 44.9784 68.6554 43.8751 69.2045C43.4718 69.4055 43.232 69.7905 43.1428 70.3816C43.0301 71.1239 43.1604 71.6887 43.5406 72.1083C44.126 72.7554 45.3323 73.0614 46.9364 72.9786C47.0677 72.9712 47.2164 72.9638 47.3481 73.1062L46.7475 73.6534L47.051 73.3821L47.0436 73.7884L46.9813 73.7911C46.79 73.8013 46.6043 73.8064 46.4245 73.8064Z" fill="#390075"/>
<path d="M44.4442 71.6574L47.2514 71.435C47.3581 71.4293 47.4628 71.4655 47.5431 71.5359C47.6235 71.6063 47.6732 71.7053 47.6816 71.8118C47.69 71.9183 47.6564 72.0239 47.588 72.106C47.5196 72.1881 47.4219 72.2402 47.3157 72.2513C47.2865 72.2533 47.2573 72.2524 47.2283 72.2485L45.8215 72.0544L45.1164 71.9559L44.7639 71.9055L44.5874 71.8792L44.4982 71.8653L44.452 71.8579C44.4295 71.8548 44.4071 71.8505 44.3851 71.845C44.3605 71.843 44.3378 71.8313 44.3219 71.8125C44.306 71.7938 44.2983 71.7695 44.3003 71.7449C44.3023 71.7204 44.314 71.6977 44.3327 71.6818C44.3515 71.6659 44.3758 71.6581 44.4003 71.6601L44.4442 71.6574Z" fill="#390075"/>
<path d="M25.2579 67.9291L26.1575 67.7133L27.0506 67.4822C27.3472 67.3995 27.6457 67.3228 27.9455 67.247C28.2454 67.1712 28.5494 67.1028 28.8612 67.0547C28.878 67.0523 28.895 67.0557 28.9096 67.0643C28.9241 67.0729 28.9353 67.0863 28.9413 67.1021C28.9473 67.1179 28.9477 67.1353 28.9424 67.1514C28.9372 67.1675 28.9267 67.1813 28.9125 67.1906C28.6416 67.3562 28.3559 67.4964 28.0592 67.6093C27.7646 67.7227 27.4634 67.8181 27.1573 67.8949C26.8507 67.9749 26.5397 68.0366 26.2259 68.0798C25.9102 68.1227 25.5915 68.1382 25.2732 68.126C25.2494 68.1247 25.2269 68.1149 25.2097 68.0983C25.1925 68.0818 25.1818 68.0597 25.1795 68.0359C25.1772 68.0122 25.1835 67.9884 25.1972 67.9689C25.2109 67.9494 25.2311 67.9355 25.2542 67.9296L25.2579 67.9291Z" fill="#390075"/>
<path d="M26.1879 66.6444C26.4744 66.5464 26.7627 66.4633 27.0533 66.3902C27.3439 66.3172 27.6345 66.2516 27.9274 66.197C28.2203 66.1425 28.5146 66.0898 28.8112 66.0524C29.1106 66.0139 29.4122 65.9962 29.714 65.9997H29.7163C29.7333 66.0001 29.7496 66.0064 29.7625 66.0174C29.7755 66.0284 29.7843 66.0434 29.7875 66.0601C29.7906 66.0768 29.788 66.0941 29.78 66.109C29.7721 66.124 29.7592 66.1358 29.7436 66.1425C29.464 66.2565 29.1769 66.351 28.8842 66.4254C28.5936 66.4993 28.3007 66.564 28.0064 66.6162C27.7121 66.6685 27.4155 66.7179 27.1184 66.7577C26.8213 66.7974 26.5224 66.8256 26.2212 66.839C26.1971 66.8404 26.1733 66.8329 26.1543 66.8181C26.1353 66.8032 26.1224 66.7819 26.1179 66.7582C26.1135 66.7345 26.1178 66.71 26.1301 66.6892C26.1423 66.6684 26.1617 66.6529 26.1847 66.6454L26.1879 66.6444Z" fill="#390075"/>
<path d="M30.1418 64.4427C29.8852 64.2538 29.6456 64.0428 29.4257 63.8122C29.2075 63.5832 29.0027 63.3417 28.8126 63.0889C28.6211 62.8379 28.4449 62.5755 28.2849 62.3032C28.1231 62.03 27.987 61.7424 27.8784 61.444C27.8752 61.4348 27.8738 61.425 27.8744 61.4152C27.875 61.4054 27.8775 61.3959 27.8818 61.3871C27.8861 61.3783 27.8921 61.3704 27.8994 61.3639C27.9068 61.3574 27.9153 61.3525 27.9246 61.3493C27.9383 61.3447 27.953 61.3441 27.967 61.3476C27.981 61.3511 27.9937 61.3586 28.0036 61.3692C28.2175 61.6002 28.4088 61.8461 28.6 62.0897C28.7913 62.3333 28.9729 62.5824 29.1545 62.832L29.7089 63.5714L30.2781 64.3008C30.2936 64.3198 30.3015 64.3438 30.3004 64.3683C30.2993 64.3928 30.2893 64.4161 30.2721 64.4336C30.255 64.4512 30.232 64.4618 30.2075 64.4634C30.1831 64.4651 30.1588 64.4577 30.1395 64.4427H30.1418Z" fill="#390075"/>
<path d="M30.2034 62.8468C29.9766 62.6485 29.7608 62.4396 29.5525 62.2237C29.3441 62.0079 29.1413 61.7875 28.9463 61.5596C28.7513 61.3317 28.5596 61.102 28.378 60.8631C28.1954 60.6227 28.0298 60.3699 27.8823 60.1065C27.8741 60.0916 27.8713 60.0743 27.8743 60.0576C27.8773 60.0408 27.886 60.0256 27.8988 60.0145C27.9117 60.0034 27.928 59.997 27.945 59.9964C27.9619 59.9958 27.9786 60.0011 27.9922 60.0113C28.2302 60.1971 28.4553 60.3989 28.6658 60.6154C28.8742 60.8298 29.0757 61.0498 29.2665 61.279C29.4573 61.5083 29.6476 61.7385 29.8301 61.9756C30.0126 62.2127 30.1854 62.4581 30.3485 62.715V62.7187C30.3611 62.739 30.366 62.7631 30.3624 62.7866C30.3587 62.8102 30.3468 62.8316 30.3287 62.8472C30.3106 62.8627 30.2876 62.8712 30.2638 62.8712C30.24 62.8712 30.2169 62.8627 30.1988 62.8472L30.2034 62.8468Z" fill="#390075"/>
<path d="M45.1197 69.8713L47.6502 70.4375C47.7541 70.4632 47.8438 70.5286 47.9001 70.6197C47.9565 70.7107 47.975 70.8202 47.9517 70.9247C47.9284 71.0292 47.8651 71.1204 47.7755 71.1789C47.6858 71.2373 47.5769 71.2584 47.4719 71.2375C47.44 71.2299 47.409 71.2189 47.3795 71.2047L45.061 70.0613L45.0541 70.0581C45.0334 70.0467 45.0175 70.0284 45.0091 70.0063C45.0007 69.9843 45.0004 69.9599 45.0083 69.9377C45.0162 69.9155 45.0317 69.8968 45.0521 69.8849C45.0726 69.8731 45.0965 69.869 45.1197 69.8732V69.8713Z" fill="#390075"/>
<path d="M52.1183 68.0515C51.9021 68.1648 52.0347 68.8654 52.4112 69.7052C51.6258 70.1817 51.1176 70.6827 51.2303 70.899C51.343 71.1153 52.0439 70.9827 52.8834 70.606C53.3598 71.3917 53.8606 71.9001 54.0768 71.7873C54.293 71.6746 54.16 70.9734 53.7839 70.1337C54.5726 69.6562 55.0775 69.158 54.9648 68.9399C54.8521 68.7217 54.1526 68.8553 53.3117 69.2329C52.8354 68.4458 52.3364 67.9369 52.1183 68.0515Z" fill="#390075"/>
<path d="M86.7312 84.2918C85.1881 83.5986 80.725 80.3494 81.394 75.1952C82.1434 69.4087 87.6206 68.6785 89.3306 68.9655C94.751 69.87 95.4565 76.8225 98.6929 75.5825C98.6929 75.5825 100.144 81.1555 95.1585 84.0598C91.7095 86.0675 88.2739 84.9865 86.7312 84.2918Z" fill="white"/>
<path d="M90.8914 85.3194C89.0341 85.3194 87.4859 84.7569 86.6843 84.395C85.0672 83.6671 80.6022 80.411 81.2786 75.1782C81.5517 73.0707 82.4623 71.4295 83.9842 70.2995C85.8785 68.8949 88.2302 68.6624 89.3488 68.8496C92.1957 69.3243 93.7772 71.4605 95.0482 73.177C96.2333 74.7771 97.1698 76.0425 98.652 75.4726L98.7721 75.4264L98.8049 75.5512C98.8197 75.6081 100.22 81.243 95.2169 84.1575C93.9051 84.9252 92.4112 85.3265 90.8914 85.3194ZM86.7795 84.1852C88.4515 84.9376 91.7549 85.9077 95.1014 83.9587C99.5437 81.3705 98.78 76.5638 98.6095 75.7319C97.0349 76.2468 96.0273 74.8843 94.8644 73.3138C93.6169 71.6305 92.0677 69.5359 89.3127 69.0765C88.2736 68.9032 85.946 69.1315 84.1242 70.4839C82.6541 71.5751 81.7744 73.1645 81.5097 75.2069C80.8499 80.301 85.2026 83.4739 86.7795 84.1833V84.1852Z" fill="#390075"/>
<g opacity="0.3">
<path d="M95.159 84.0596C91.7119 86.0673 88.2749 84.9872 86.7318 84.2906C85.2006 83.6029 80.7976 80.4009 81.3793 75.3193C82.6383 77.7462 84.8689 79.2737 85.8715 79.7234C87.4151 80.4167 90.8521 81.4995 94.2987 79.4923C96.1006 78.4427 97.0644 77.0427 97.5546 75.6844C97.9025 75.7657 98.2767 75.7412 98.6935 75.5827C98.6935 75.5827 100.143 81.1566 95.159 84.0596Z" fill="#390075"/>
</g>
<path d="M90.8947 86.0194C88.908 86.0194 87.2531 85.4185 86.3974 85.034C84.6579 84.2506 79.8557 80.7427 80.5875 75.0907C80.8855 72.7881 81.889 70.9884 83.5698 69.7405C85.6369 68.2065 88.2265 67.9565 89.4643 68.1626C92.5899 68.6844 94.2647 70.9458 95.6092 72.7636C96.9195 74.5333 97.5002 75.1669 98.4012 74.8226L99.2499 74.4968L99.4809 75.3772C99.4971 75.4391 101.024 81.5847 95.5685 84.7627C94.1512 85.5927 92.537 86.0267 90.8947 86.0194ZM87.0646 83.5499C88.6137 84.2469 91.6718 85.1491 94.7484 83.3563C98.1087 81.3994 98.1859 78.0481 98.0288 76.5498C96.4385 76.6159 95.3541 75.1521 94.3026 73.7305C93.0704 72.0666 91.6737 70.1795 89.1968 69.7663C88.2727 69.612 86.1872 69.8227 84.5392 71.0461C83.227 72.0199 82.4402 73.4495 82.2009 75.2982C81.585 80.0531 85.8813 83.0166 87.065 83.5485L87.0646 83.5499Z" fill="#390075"/>
<path d="M59.4547 38.6633C59.3646 38.6633 59.2749 38.6492 59.1891 38.6217L58.5062 38.4031L48.4725 34.6775C48.3623 34.6394 48.2608 34.5798 48.1739 34.5019C48.0871 34.4241 48.0166 34.3297 47.9668 34.2243C47.9169 34.1189 47.8886 34.0045 47.8835 33.888C47.8785 33.7715 47.8967 33.6551 47.9372 33.5457C47.9778 33.4364 48.0397 33.3362 48.1195 33.2511C48.1992 33.166 48.2952 33.0978 48.4017 33.0503C48.5082 33.0028 48.6231 32.9771 48.7397 32.9747C48.8563 32.9723 48.9721 32.9932 49.0805 33.0363L59.0962 36.755L59.7204 36.9542C59.9198 37.0172 60.0901 37.1496 60.2003 37.3274C60.3106 37.5051 60.3536 37.7166 60.3214 37.9233C60.2893 38.13 60.1843 38.3184 60.0253 38.4543C59.8663 38.5903 59.6639 38.6647 59.4547 38.6642V38.6633Z" fill="#390075"/>
<path d="M48.4343 40.4832C48.6778 44.024 51.1473 46.395 53.9499 45.7784C56.7526 45.1619 58.8266 41.7926 58.5822 38.2518C58.5664 38.0253 58.5418 37.8038 58.5082 37.5872L50.397 34.5747C49.0724 36.0236 48.2791 38.2181 48.4343 40.4832Z" fill="#390075"/>
<path d="M53.1815 38.8774C53.3996 37.7519 53.0295 36.7335 52.3548 36.6027C51.6802 36.4718 50.9564 37.2781 50.7383 38.4035C50.5202 39.5289 50.8903 40.5474 51.565 40.6782C52.2396 40.8091 52.9634 40.0028 53.1815 38.8774Z" fill="white"/>
<path d="M55.816 41.939C55.8883 41.369 55.6704 40.8718 55.3292 40.8285C54.988 40.7851 54.6527 41.212 54.5803 41.782C54.5079 42.352 54.7258 42.8492 55.067 42.8926C55.4083 42.936 55.7436 42.509 55.816 41.939Z" fill="white"/>
<path d="M45.4679 84.2918C47.011 83.5986 51.4741 80.3494 50.8051 75.1952C50.0557 69.4087 44.5785 68.6785 42.8686 68.9655C37.4481 69.87 36.7426 76.8225 33.5062 75.5825C33.5062 75.5825 32.0554 81.1555 37.0406 84.0598C40.4873 86.0675 43.9252 84.9865 45.4679 84.2918Z" fill="white"/>
<path d="M41.3091 85.319C39.7892 85.3266 38.2952 84.9257 36.9832 84.158C31.98 81.2435 33.3795 75.6077 33.3952 75.5518L33.4275 75.427L33.5481 75.4732C35.0307 76.0408 35.9659 74.78 37.1519 73.1776C38.4229 71.461 40.0044 69.3248 42.8514 68.8502C43.9695 68.6653 46.323 68.8964 48.2159 70.3C49.7405 71.4301 50.6484 73.0731 50.9215 75.1788C51.5992 80.4111 47.1329 83.6677 45.5158 84.3956C44.7147 84.758 43.166 85.319 41.3091 85.319ZM33.5934 75.7334C33.4229 76.5653 32.6592 81.372 37.102 83.9602C40.4484 85.9097 43.7523 84.9391 45.4239 84.1867C47.0008 83.4768 51.3535 80.3044 50.6937 75.2102C50.4294 73.1674 49.5493 71.5784 48.0791 70.4877C46.2574 69.1353 43.9306 68.9066 42.8906 69.0799C40.1356 69.5393 38.5851 71.6339 37.339 73.3167C36.1742 74.8872 35.1647 76.2501 33.5911 75.7348L33.5934 75.7334Z" fill="#390075"/>
<g opacity="0.3">
<path d="M37.0427 84.0596C40.4893 86.0673 43.9268 84.9872 45.4699 84.2906C47.001 83.6029 51.4041 80.4009 50.8224 75.3193C49.5634 77.7462 47.3328 79.2737 46.3302 79.7234C44.7866 80.4167 41.3496 81.4995 37.9029 79.4923C36.1011 78.4427 35.1368 77.0427 34.6471 75.6844C34.2992 75.7657 33.925 75.7412 33.5082 75.5827C33.5082 75.5827 32.0579 81.1566 37.0427 84.0596Z" fill="#390075"/>
</g>
<path d="M41.3053 86.0196C39.6635 86.0277 38.0496 85.5943 36.6325 84.7648C31.1769 81.5869 32.7053 75.4413 32.7201 75.3793L32.9511 74.4989L33.8003 74.8247C34.7031 75.1713 35.2824 74.5345 36.5923 72.7652C37.9381 70.9479 39.6125 68.6865 42.7371 68.1647C43.9744 67.9586 46.565 68.2109 48.632 69.743C50.3129 70.9909 51.3164 72.7902 51.6144 75.0928C52.3467 80.7448 47.544 84.2527 45.8045 85.0361C44.947 85.4193 43.2929 86.0196 41.3053 86.0196ZM34.1657 76.5496C33.9985 78.0475 34.0627 81.3826 37.4512 83.3566C40.5277 85.1493 43.5863 84.2472 45.1355 83.5502C46.3196 83.0173 50.6155 80.0543 49.9996 75.2998C49.7603 73.4511 48.9735 72.022 47.6613 71.0478C46.0129 69.8244 43.9301 69.615 43.0033 69.768C40.5268 70.1812 39.1301 72.0678 37.8979 73.7321C36.845 75.1542 35.7634 76.6198 34.1657 76.5496Z" fill="#390075"/>
<path d="M82.7039 73.5978C82.714 73.6883 82.7294 73.7781 82.7501 73.8668C82.7695 73.9639 82.7963 74.0637 82.818 74.1621C82.8688 74.3604 82.9247 74.5605 82.9889 74.7593C83.1174 75.1618 83.2669 75.5574 83.4366 75.9443C83.6088 76.3381 83.8009 76.7228 84.0123 77.097C84.2216 77.4773 84.4586 77.8425 84.7053 78.2062C84.3602 77.9358 84.0165 77.6548 83.6926 77.3489C83.363 77.0435 83.0492 76.7216 82.7524 76.3843C82.4499 76.0421 82.1657 75.6841 81.9009 75.312C81.766 75.1272 81.6384 74.9307 81.5132 74.7325C81.4513 74.6317 81.3899 74.5314 81.3284 74.426C81.267 74.3207 81.2138 74.2245 81.1496 74.084L81.1094 73.9962C81.061 73.8961 81.033 73.7872 81.0272 73.6761C81.0214 73.565 81.0378 73.4539 81.0756 73.3492C81.1133 73.2446 81.1715 73.1485 81.2469 73.0666C81.3222 72.9848 81.4132 72.9189 81.5143 72.8727C81.6155 72.8265 81.7249 72.801 81.8361 72.7977C81.9473 72.7944 82.058 72.8133 82.1617 72.8534C82.2655 72.8935 82.3602 72.9539 82.4403 73.0311C82.5203 73.1083 82.5842 73.2007 82.6281 73.3029C82.6709 73.3958 82.6966 73.4957 82.7039 73.5978Z" fill="#390075"/>
<path d="M84.2516 70.8033C84.399 71.2031 84.5967 71.6427 84.7972 72.0563C84.9977 72.47 85.2223 72.8882 85.4598 73.2903C85.6972 73.6924 85.9546 74.089 86.2295 74.474C86.508 74.8607 86.8087 75.2311 87.13 75.5832C86.7166 75.3314 86.3183 75.0558 85.937 74.7577C85.5549 74.4573 85.1807 74.1393 84.8254 73.801C84.4701 73.4627 84.1227 73.1124 83.79 72.7459C83.4574 72.3794 83.1432 72.0115 82.8225 71.5826C82.6923 71.4076 82.6368 71.1881 82.6684 70.9723C82.6999 70.7565 82.8159 70.562 82.9907 70.4317C83.1656 70.3014 83.385 70.246 83.6008 70.2775C83.8165 70.3091 84.0109 70.4251 84.1411 70.6C84.187 70.6625 84.2241 70.7309 84.2516 70.8033Z" fill="#390075"/>
<path d="M87.222 69.0446C87.3582 69.4258 87.5145 69.7996 87.69 70.1645C87.8674 70.5407 88.0596 70.9136 88.2671 71.2797C88.6838 72.0223 89.158 72.7312 89.6855 73.3997C88.9599 72.9169 88.2733 72.3781 87.6318 71.7881C87.3065 71.4917 86.9913 71.1817 86.686 70.8582C86.3701 70.5289 86.0715 70.1833 85.7916 69.8229L85.7846 69.8132C85.6574 69.6389 85.6034 69.4218 85.6342 69.2082C85.6651 68.9946 85.7784 68.8016 85.9497 68.6705C86.1211 68.5394 86.337 68.4807 86.5511 68.5069C86.7653 68.5331 86.9606 68.6422 87.0954 68.8107C87.1497 68.8815 87.1924 68.9604 87.222 69.0446Z" fill="#390075"/>
<path d="M50.9813 74.0847C50.917 74.2234 50.863 74.3186 50.802 74.4267C50.741 74.5349 50.6814 74.6324 50.6195 74.7331C50.4947 74.9314 50.3668 75.1255 50.2319 75.3127C49.967 75.6847 49.683 76.0426 49.3808 76.385C49.0838 76.7221 48.77 77.0441 48.4406 77.3496C48.1172 77.6555 47.7725 77.9365 47.4274 78.2069C47.675 77.8427 47.9121 77.4776 48.1204 77.0977C48.3314 76.7233 48.5236 76.3386 48.6961 75.945C48.8657 75.558 49.015 75.1625 49.1433 74.76C49.208 74.5612 49.2635 74.3611 49.3143 74.1628C49.3383 74.0644 49.3605 73.9645 49.3822 73.8675C49.403 73.7788 49.4185 73.689 49.4284 73.5985C49.4362 73.4764 49.4707 73.3576 49.5295 73.2503C49.5882 73.143 49.6698 73.05 49.7685 72.9778C49.8672 72.9055 49.9805 72.8558 50.1005 72.8322C50.2204 72.8086 50.3441 72.8117 50.4628 72.8411C50.5815 72.8706 50.6922 72.9258 50.7872 73.0028C50.8822 73.0798 50.9591 73.1768 51.0126 73.2868C51.066 73.3968 51.0946 73.5173 51.0964 73.6396C51.0981 73.7619 51.073 73.8831 51.0228 73.9946L50.9813 74.0847Z" fill="#390075"/>
<path d="M49.3095 71.5818C48.9903 72.0107 48.6775 72.3735 48.3425 72.7451C48.0075 73.1167 47.6638 73.4633 47.3067 73.8002C46.9495 74.1372 46.5776 74.4565 46.195 74.7569C45.8139 75.055 45.4157 75.3306 45.0026 75.5824C45.3238 75.2304 45.6243 74.86 45.9026 74.4732C46.1798 74.0882 46.4371 73.6958 46.6728 73.2895C46.9084 72.8833 47.1311 72.4733 47.3353 72.0555C47.5395 71.6377 47.7336 71.2023 47.881 70.8025C47.9216 70.692 47.9856 70.5914 48.0685 70.5077C48.1513 70.424 48.2513 70.3592 48.3614 70.3175C48.4715 70.2758 48.5894 70.2582 48.7069 70.266C48.8244 70.2739 48.9388 70.3068 49.0425 70.3628C49.1462 70.4187 49.2366 70.4963 49.3077 70.5902C49.3788 70.6841 49.4288 70.7922 49.4545 70.9072C49.4802 71.0222 49.4808 71.1414 49.4565 71.2566C49.4321 71.3719 49.3832 71.4806 49.3132 71.5753L49.3095 71.5818Z" fill="#390075"/>
<path d="M46.3394 69.8229C46.0598 70.1835 45.7614 70.529 45.4454 70.8582C45.1396 71.1811 44.8242 71.4911 44.4992 71.7881C43.8578 72.378 43.1713 72.9168 42.446 73.3997C42.9734 72.7313 43.4475 72.0225 43.8639 71.2797C44.0718 70.9137 44.264 70.5402 44.4415 70.1645C44.6171 69.7995 44.7738 69.4257 44.9109 69.0446C44.9455 68.9414 45.0001 68.846 45.0717 68.764C45.1433 68.682 45.2304 68.615 45.328 68.5668C45.4255 68.5186 45.5317 68.4902 45.6403 68.4832C45.7489 68.4762 45.8578 68.4908 45.9608 68.5261C46.0637 68.5614 46.1587 68.6167 46.2402 68.6889C46.3217 68.761 46.3881 68.8486 46.4356 68.9465C46.4831 69.0445 46.5108 69.1508 46.5171 69.2595C46.5233 69.3682 46.508 69.4771 46.472 69.5798C46.4434 69.6628 46.402 69.7408 46.3491 69.8109L46.3394 69.8229Z" fill="#390075"/>
<path d="M54.1228 118.504C53.8345 118.961 53.5901 119.367 53.3836 119.783C53.1771 120.198 52.9775 120.582 52.843 120.994C52.8019 121.093 52.7788 121.2 52.7451 121.301C52.7105 121.402 52.6825 121.505 52.6614 121.609C52.6411 121.714 52.6152 121.817 52.5885 121.918C52.5617 122.02 52.5552 122.128 52.5381 122.233C52.4863 122.438 52.4896 122.655 52.4517 122.864C52.43 123.077 52.4254 123.293 52.3916 123.511L52.3736 123.626C52.3428 123.825 52.239 124.005 52.0826 124.132C51.9261 124.258 51.7281 124.322 51.5273 124.31C51.3264 124.299 51.137 124.213 50.9961 124.069C50.8551 123.926 50.7727 123.735 50.7649 123.534C50.7475 123.26 50.7489 122.985 50.769 122.711C50.8018 122.434 50.8314 122.161 50.9076 121.891C51.0319 121.349 51.2712 120.833 51.5545 120.358C51.8388 119.886 52.2088 119.472 52.6453 119.136C53.08 118.81 53.5739 118.554 54.1228 118.504Z" fill="#390075"/>
<path d="M48.6899 117.373C48.3743 117.826 48.0985 118.227 47.8582 118.639C47.6175 119.044 47.399 119.437 47.241 119.848C47.077 120.248 46.9575 120.665 46.8848 121.091C46.8284 121.298 46.8242 121.516 46.7859 121.728C46.7586 121.942 46.7568 122.161 46.7203 122.379L46.7018 122.491C46.669 122.688 46.5645 122.866 46.4085 122.991C46.2524 123.116 46.0558 123.178 45.8564 123.167C45.657 123.155 45.4688 123.071 45.3281 122.929C45.1874 122.787 45.104 122.598 45.094 122.399C45.0866 122.258 45.0838 122.116 45.0852 121.974C45.0807 121.832 45.0874 121.69 45.1051 121.549C45.1335 121.263 45.1864 120.981 45.2631 120.704C45.415 120.15 45.659 119.625 45.9847 119.151C46.2955 118.681 46.693 118.274 47.156 117.953C47.6171 117.647 48.1304 117.411 48.6899 117.373Z" fill="#390075"/>
<path d="M78.431 118.504C78.9799 118.556 79.4733 118.812 79.9094 119.132C80.3459 119.468 80.7159 119.882 81.0003 120.354C81.2835 120.828 81.5228 121.345 81.6471 121.887C81.7229 122.157 81.7529 122.432 81.7857 122.707C81.8056 122.981 81.807 123.255 81.7899 123.529C81.782 123.73 81.6996 123.921 81.5586 124.065C81.4177 124.209 81.2283 124.295 81.0274 124.306C80.8266 124.318 80.6286 124.254 80.4722 124.127C80.3157 124.001 80.2119 123.821 80.1811 123.622L80.1631 123.507C80.1289 123.291 80.1248 123.075 80.1026 122.86C80.0652 122.651 80.0679 122.434 80.0166 122.229C79.9991 122.124 79.9866 122.018 79.9663 121.914C79.9459 121.81 79.9131 121.71 79.8933 121.605C79.8722 121.5 79.8443 121.397 79.8097 121.297C79.7755 121.196 79.7524 121.089 79.7117 120.99C79.5773 120.578 79.3795 120.188 79.1711 119.779C78.9628 119.369 78.7193 118.959 78.431 118.504Z" fill="#390075"/>
<path d="M83.8646 117.373C84.4237 117.411 84.9374 117.647 85.3985 117.952C85.8614 118.273 86.2587 118.68 86.5693 119.15C86.8946 119.625 87.1379 120.15 87.2891 120.705C87.3656 120.982 87.4183 121.264 87.4467 121.55C87.4647 121.691 87.4715 121.833 87.467 121.975C87.467 122.117 87.467 122.259 87.4582 122.4C87.4477 122.599 87.3641 122.787 87.2233 122.929C87.0826 123.07 86.8946 123.155 86.6954 123.166C86.4963 123.178 86.2999 123.115 86.1439 122.991C85.9879 122.866 85.8832 122.689 85.8499 122.492L85.8314 122.38C85.7954 122.162 85.7931 121.942 85.7663 121.728C85.7275 121.516 85.7238 121.298 85.6674 121.092C85.5945 120.666 85.4749 120.249 85.3107 119.849C85.1527 119.438 84.9342 119.045 84.6939 118.64C84.456 118.227 84.1788 117.826 83.8646 117.373Z" fill="#390075"/>
<path d="M73.5948 38.6629C73.3857 38.6634 73.1833 38.5889 73.0243 38.453C72.8653 38.3171 72.7602 38.1287 72.7281 37.9219C72.696 37.7152 72.7389 37.5038 72.8492 37.326C72.9594 37.1482 73.1297 37.0158 73.3291 36.9528L73.9533 36.7536L83.969 33.0349C84.0773 32.9925 84.1929 32.972 84.3091 32.9748C84.4254 32.9776 84.5399 33.0035 84.646 33.051C84.7521 33.0985 84.8477 33.1668 84.9271 33.2517C85.0066 33.3366 85.0684 33.4365 85.1088 33.5455C85.1492 33.6546 85.1675 33.7706 85.1626 33.8868C85.1577 34.003 85.1297 34.1171 85.0803 34.2223C85.0308 34.3276 84.9609 34.4219 84.8745 34.4998C84.7882 34.5778 84.6872 34.6377 84.5775 34.6761L74.5054 38.4152L73.8618 38.6204C73.7756 38.6483 73.6855 38.6627 73.5948 38.6629Z" fill="#390075"/>
<path d="M84.6166 40.4832C84.3727 44.024 81.9032 46.395 79.1006 45.7784C76.298 45.1619 74.224 41.7926 74.4674 38.2518C74.4832 38.0253 74.5078 37.8038 74.5414 37.5872L82.6544 34.5747C83.9781 36.0236 84.7723 38.2181 84.6166 40.4832Z" fill="#390075"/>
<path d="M81.5417 40.4499C82.218 40.321 82.5922 39.3021 82.3774 38.174C82.1627 37.0458 81.4404 36.2357 80.7641 36.3645C80.0878 36.4934 79.7137 37.5123 79.9284 38.6404C80.1431 39.7686 80.8654 40.5787 81.5417 40.4499Z" fill="white"/>
<path d="M77.9859 42.8876C78.3271 42.8442 78.545 42.347 78.4726 41.777C78.4003 41.207 78.065 40.7801 77.7237 40.8235C77.3825 40.8668 77.1646 41.364 77.237 41.934C77.3094 42.504 77.6446 42.931 77.9859 42.8876Z" fill="white"/>
</svg>
