<svg width="18" height="18" viewBox="0 0 18 18" fill="none" xmlns="http://www.w3.org/2000/svg">
<g clip-path="url(#clip0_402_744)">
<path d="M14.8966 6.18486V12.7459C14.8966 13.5909 14.2116 14.2759 13.3669 14.2759H6.82759L3.72414 17.6897V14.2759H1.52969C0.684931 14.2759 0 13.5909 0 12.7462V6.18517C0 5.34011 0.684931 4.65517 1.52969 4.65517H13.3666C14.2116 4.65517 14.8966 5.34011 14.8966 6.18486Z" fill="#27AE60"/>
<path d="M16.4703 0.310349H4.63314C3.78839 0.310349 3.10345 0.995279 3.10345 1.84035V4.65518H13.3669C14.2116 4.65518 14.8966 5.34011 14.8966 6.18518V9.93104H16.4703C17.3151 9.93104 18 9.24611 18 8.40104V1.84035C18 0.995279 17.3151 0.310349 16.4703 0.310349Z" fill="#14D15D"/>
<path d="M7.75863 8.07362H3.4138C3.24218 8.07362 3.10345 7.93459 3.10345 7.76328C3.10345 7.59197 3.24218 7.45293 3.4138 7.45293H7.75863C7.93025 7.45293 8.06897 7.59197 8.06897 7.76328C8.06897 7.93459 7.93025 8.07362 7.75863 8.07362Z" fill="white"/>
<path d="M11.7931 9.93569H3.4138C3.24218 9.93569 3.10345 9.79666 3.10345 9.62535C3.10345 9.45404 3.24218 9.315 3.4138 9.315H11.7931C11.9647 9.315 12.1035 9.45404 12.1035 9.62535C12.1035 9.79666 11.9647 9.93569 11.7931 9.93569Z" fill="white"/>
<path d="M11.7931 11.7978H3.4138C3.24218 11.7978 3.10345 11.6587 3.10345 11.4874C3.10345 11.3161 3.24218 11.1771 3.4138 11.1771H11.7931C11.9647 11.1771 12.1035 11.3161 12.1035 11.4874C12.1035 11.6587 11.9647 11.7978 11.7931 11.7978Z" fill="white"/>
</g>
<defs>
<clipPath id="clip0_402_744">
<rect width="18" height="18" fill="white"/>
</clipPath>
</defs>
</svg>
