<svg width="20" height="20" viewBox="0 0 20 20" fill="none" xmlns="http://www.w3.org/2000/svg">
<g clip-path="url(#clip0_402_839)">
<path d="M14.978 11.7304L14.6418 12.2475V15.1711C14.6418 15.3349 14.8267 15.4303 14.9602 15.3355L16.0632 14.5519C16.1331 14.5022 16.2268 14.5022 16.2967 14.5519L17.3997 15.3355C17.5332 15.4304 17.7181 15.3349 17.7181 15.1711V9.99492L17.1229 9.93883C16.5213 10.8758 15.2965 11.6006 14.978 11.7304Z" fill="#FF5876"/>
<path d="M14.6418 11.5166V12.2475C14.9649 12.1167 15.2753 11.9589 15.5718 11.7728C16.397 11.255 17.2202 10.6537 17.7181 9.99496V8.84914L14.6418 11.5166Z" fill="#E6485D"/>
<path d="M19.107 2.97895C18.8384 2.6627 18.4463 2.48133 18.0313 2.48133H16.3899L15.853 2.82785L15.7355 3.32813L16.0984 3.69102H18.0312C18.1125 3.69102 18.1625 3.73555 18.185 3.76211C18.2075 3.78864 18.2434 3.84516 18.2302 3.92532C18.0752 4.86996 17.6711 6.67996 16.7047 8.18852C16.1004 9.13199 15.366 9.81949 14.5088 10.2473L13.6253 11.0793L13.5331 11.8502C14.2628 11.7033 14.9409 11.435 15.5592 11.047C16.3925 10.5241 17.1207 9.78192 17.7233 8.84098C18.7526 7.23422 19.2162 5.38746 19.4239 4.1211C19.4912 3.71153 19.3756 3.29524 19.107 2.97895Z" fill="#FF9517"/>
<path d="M15.3727 3.69102H16.0985L16.3899 2.48133H15.6641L15.1555 3.08617L15.3727 3.69102Z" fill="#EF7F0F"/>
<path d="M13.6623 10.5743L12.8817 11.1596L12.6881 11.9643C12.9769 11.9434 13.2585 11.9047 13.533 11.8495C13.973 11.4098 14.3125 10.8648 14.5087 10.247C14.2387 10.3818 13.9565 10.4912 13.6623 10.5743Z" fill="#EF7F0F"/>
<path d="M16.1992 1.08871H3.81325C3.41239 1.08871 3.12286 0.469414 3.18473 0.362578C3.31028 0.14582 3.54473 0 3.81325 0H16.1992C16.4677 0 16.7022 0.14582 16.8277 0.362578C16.8896 0.469414 16.6001 1.08871 16.1992 1.08871Z" fill="#FF9517"/>
<path d="M16.1992 0.725821H3.81322C3.54471 0.725821 3.31084 0.579649 3.18529 0.36293C3.12342 0.469766 3.0874 0.593477 3.0874 0.725821C3.0874 1.12668 3.41236 1.45164 3.81322 1.45164H16.1992C16.6001 1.45164 16.925 1.12668 16.925 0.725821C16.925 0.593477 16.889 0.469766 16.8271 0.36293C16.7015 0.579649 16.4677 0.725821 16.1992 0.725821Z" fill="#EF7F0F"/>
<path d="M5.02206 11.7304L5.35823 12.2475V15.1711C5.35823 15.3349 5.17335 15.4303 5.03987 15.3355L3.93687 14.5519C3.86694 14.5022 3.77327 14.5022 3.70335 14.5519L2.60034 15.3355C2.46687 15.4304 2.28198 15.3349 2.28198 15.1711V9.99492L2.87722 9.93883C3.47886 10.8758 4.70354 11.6006 5.02206 11.7304Z" fill="#FF5876"/>
<path d="M5.35823 11.5166V12.2475C5.03522 12.1167 4.72476 11.9589 4.42831 11.7729C3.60308 11.255 2.77987 10.6537 2.28198 9.99496V8.84914L5.35823 11.5166Z" fill="#E6485D"/>
<path d="M0.892959 2.97895C1.16159 2.6627 1.55366 2.48133 1.96866 2.48133H3.61007L4.14694 2.82785L4.26437 3.32809L3.90147 3.69098H1.96866C1.88741 3.69098 1.83745 3.73551 1.81491 3.76207C1.79233 3.7886 1.75651 3.84512 1.76968 3.92528C1.92464 4.86992 2.32882 6.67992 3.29515 8.18848C3.89948 9.13196 4.63386 9.81946 5.49108 10.2473L6.37456 11.0792L6.46679 11.8501C5.73702 11.7032 5.05901 11.435 4.44065 11.047C3.60733 10.5241 2.87921 9.78188 2.27655 8.84094C1.2473 7.23418 0.783662 5.38742 0.575967 4.12106C0.508779 3.71153 0.624326 3.29524 0.892959 2.97895Z" fill="#FF9517"/>
<path d="M4.62733 3.69102H3.90151L3.61011 2.48133H4.33593L4.84452 3.08617L4.62733 3.69102Z" fill="#EF7F0F"/>
<path d="M6.33778 10.5743L7.11836 11.1596L7.31192 11.9643C7.02313 11.9434 6.74157 11.9047 6.467 11.8495C6.02711 11.4098 5.6875 10.8648 5.49133 10.247C5.76137 10.3818 6.04352 10.4912 6.33778 10.5743Z" fill="#EF7F0F"/>
<path d="M11.8869 18.3998L12.8771 18.5753C13.3689 18.6625 13.8119 18.9022 14.1503 19.2498C14.1583 19.258 14.1666 19.2662 14.1727 19.2742L13.9085 19.6371H6.09635L5.8401 19.2741C6.18025 18.9157 6.63021 18.668 7.13111 18.5786L8.12686 18.4009C8.71424 18.296 9.14197 17.7852 9.14197 17.1885V12.9196C7.68338 12.5972 6.49869 11.4687 6.13939 9.96816L4.27393 2.17742L10.0061 1.81453L15.7372 2.17742L13.8592 9.97347C13.4993 11.4672 12.3213 12.591 10.8703 12.9167V17.1872C10.8703 17.7844 11.2988 18.2956 11.8869 18.3998Z" fill="#FFCF4D"/>
<path d="M15.7373 2.17742L15.9122 1.4516H4.10022L4.27401 2.17742H15.7373Z" fill="#FFB629"/>
<path d="M14.1727 19.2742H5.84029C5.64303 19.482 5.48252 19.727 5.37061 20H14.6418L14.6344 19.9822C14.5231 19.7162 14.3653 19.4777 14.1727 19.2742Z" fill="#FFB629"/>
<path d="M10.3905 4.29347L10.7884 5.09969C10.8519 5.22824 10.9745 5.31734 11.1163 5.33793L12.0061 5.46722C12.3633 5.51914 12.506 5.95816 12.2474 6.21011L11.6036 6.83765C11.501 6.93773 11.4542 7.08187 11.4784 7.22316L11.6304 8.10926C11.6914 8.46504 11.3179 8.73636 10.9984 8.5684L10.2026 8.15004C10.0758 8.08332 9.92416 8.08332 9.79728 8.15004L9.0015 8.5684C8.68197 8.73636 8.30853 8.46508 8.36955 8.10926L8.52154 7.22316C8.54576 7.08187 8.49892 6.93773 8.39627 6.83765L7.75248 6.21011C7.494 5.95812 7.63662 5.51914 7.99385 5.46722L8.88357 5.33793C9.02545 5.3173 9.14806 5.22824 9.2115 5.09969L9.60939 4.29347C9.76916 3.9698 10.2308 3.9698 10.3905 4.29347Z" fill="#FF9517"/>
<path d="M10.2026 7.42426C10.0757 7.35754 9.92412 7.35754 9.79725 7.42426L8.3631 8.17825C8.35748 8.49883 8.70295 8.72535 9.00146 8.56844L9.79725 8.15008C9.92412 8.08336 10.0757 8.08336 10.2026 8.15008L10.9984 8.56844C11.2969 8.72539 11.6424 8.49883 11.6367 8.17825L10.2026 7.42426Z" fill="#EF7F0F"/>
</g>
<defs>
<clipPath id="clip0_402_839">
<rect width="20" height="20" fill="white"/>
</clipPath>
</defs>
</svg>
