<svg width="366" height="366" viewBox="0 0 366 366" fill="none" xmlns="http://www.w3.org/2000/svg">
<g clip-path="url(#clip0_402_1248)">
<path d="M16.3342 299.888C16.866 292.633 18.3715 279.758 22.3281 280.03C27.5729 280.392 25.2368 293.31 24.5134 294.944C25.2919 293.936 29.3551 289.493 31.6261 290.467C33.128 291.11 31.6576 294.12 30.0963 296.614C62.8197 290.078 119.072 285.75 182.989 285.722C246.086 285.696 301.724 289.868 334.628 296.235C336.11 290.681 338.453 284.106 341.124 284.774C345.678 285.912 342.452 292.889 342.452 292.889C342.452 292.889 356.494 273.578 359.91 276.235C363.326 278.891 353.648 298.794 353.648 298.794C353.648 298.794 361.998 290.846 363.895 292.889C365.192 294.284 360.382 299.281 357.2 302.309C362.905 304.631 365.999 307.108 366 309.683C366.006 322.958 284.077 333.754 183.01 333.796C81.9425 333.838 0.00643866 323.111 0.000719905 309.836C-0.00142463 306.29 5.84385 302.922 16.3342 299.888Z" fill="#A5C74A"/>
<path d="M26.921 158.72L25.5535 152.132L130.301 39.7944L186.667 170.88L339.036 182.494L313.684 308.873H156.048L152.503 305.268L148.837 308.873L99.5598 295.305L60.9397 308.873L58.0024 304.889L54.1537 308.873L43.2652 308.872L20.2408 158.204L26.921 158.72Z" fill="#603813"/>
<path d="M175.352 162.983L176.87 163.038L171.6 308.894L170.082 308.839L175.352 162.983Z" fill="#4A2808"/>
<path d="M6.19837 137.614L24.4155 147.198L119.295 32.2043L313.988 70.9153L342.073 174.524C342.073 174.524 366.741 165.919 365.982 167.376C365.223 168.832 359.151 197.422 359.151 197.422L170.078 179.458L126.506 46.2467L28.2106 169.211L11.8914 167.376L6.19837 137.614Z" fill="#DFA363"/>
<path d="M339.004 180.216L339.069 178.699L174.129 171.638L132.288 38.8074L130.841 39.2634L173 173.109L339.004 180.216Z" fill="#FFEBDE"/>
<path d="M303.47 103.595C305.614 103.595 307.421 102.867 308.855 101.426C313.49 96.764 312.508 86.2151 312.465 85.7683L310.953 85.917C310.963 86.0192 311.91 96.2036 307.778 100.356C306.456 101.685 304.786 102.238 302.671 102.039C292.655 101.108 293.482 86.0435 293.491 85.8905L293.694 82.6444L292.074 85.4652C291.978 85.6325 282.39 102.175 274.158 100.533C266.092 98.92 267.662 84.5581 267.68 84.4129L268.033 81.3613L266.299 83.8968C266.198 84.0455 256.08 98.7098 246.507 97.7383C237.258 96.8141 238.821 80.0159 238.837 79.8472L239.175 76.4496L237.43 79.384C237.328 79.5534 227.151 96.3766 215.66 94.9583C213.206 94.6516 211.486 93.6316 210.403 91.8395C207.175 86.5024 210.925 76.3452 210.962 76.2437L213.033 70.7208L209.632 75.5396C209.5 75.7247 196.392 94.1255 186.206 92.683C184.228 92.4042 182.731 91.492 181.628 89.8936C177.872 84.4501 180.354 73.2206 180.379 73.1077L181.504 68.1345L178.979 72.5644C178.868 72.761 167.718 92.1518 159.228 91.1618C157.796 91.0031 156.641 90.3397 155.695 89.1338C151.753 84.1041 153.303 71.8967 153.319 71.7738L151.813 71.5758C151.745 72.1026 150.166 84.5373 154.501 90.0688C155.694 91.5914 157.227 92.4671 159.059 92.6708C166.296 93.4686 174.544 82.322 178.284 76.5825C177.826 80.5935 177.682 86.8441 180.379 90.7536C181.718 92.6944 183.606 93.8489 185.993 94.1856C194.369 95.3536 203.946 85.1013 208.389 79.6485C207.525 83.36 206.844 88.8864 209.104 92.6251C210.426 94.8096 212.569 96.1014 215.471 96.4645C225.31 97.7112 233.83 87.3052 237.204 82.4943C237.192 84.2085 237.289 86.5217 237.716 88.8886C238.859 95.2157 241.846 98.7992 246.357 99.2495C254.56 100.067 262.709 91.0274 266.02 86.8191C265.934 91.407 266.681 100.586 273.864 102.022C281.217 103.492 288.918 93.1683 292.005 88.4568C292.275 93.2127 293.901 102.749 302.532 103.551C302.85 103.58 303.163 103.595 303.47 103.595Z" fill="#FFEBDE"/>
<path d="M314.243 131.153C316.387 131.153 318.194 130.425 319.629 128.983C324.263 124.322 323.282 113.773 323.239 113.326L321.727 113.475C321.737 113.577 322.683 123.761 318.552 127.914C317.229 129.243 315.56 129.795 313.444 129.597C303.428 128.666 304.255 113.601 304.265 113.448L304.468 110.202L302.849 113.023C302.752 113.19 293.159 129.734 284.932 128.091C276.866 126.478 278.436 112.116 278.454 111.971L278.807 108.919L277.073 111.455C276.972 111.603 266.858 126.276 257.282 125.296C248.032 124.372 249.595 107.574 249.611 107.404L249.949 104.007L248.204 106.941C248.102 107.111 237.935 123.944 226.434 122.515C223.981 122.209 222.261 121.189 221.177 119.397C217.949 114.06 221.699 103.902 221.736 103.801L223.807 98.278L220.406 103.097C220.274 103.282 207.165 121.686 196.98 120.24C195.002 119.961 193.505 119.049 192.402 117.451C188.646 112.007 191.128 100.778 191.153 100.666L192.278 95.6924L189.753 100.122C189.642 100.319 178.517 119.707 170.002 118.72C168.57 118.561 167.415 117.898 166.469 116.692C162.528 111.662 164.077 99.4546 164.093 99.3316L162.587 99.1336C162.519 99.6605 160.94 112.095 165.275 117.627C166.468 119.149 168.001 120.025 169.833 120.229C177.086 121.041 185.318 109.879 189.058 104.14C188.6 108.151 188.456 114.402 191.153 118.311C192.492 120.252 194.38 121.407 196.767 121.743C205.145 122.911 214.72 112.659 219.163 107.206C218.299 110.918 217.618 116.444 219.878 120.183C221.201 122.367 223.343 123.659 226.245 124.022C236.087 125.263 244.605 114.862 247.979 110.052C247.966 111.766 248.063 114.08 248.49 116.446C249.633 122.774 252.62 126.357 257.131 126.807C265.346 127.633 273.483 118.585 276.794 114.377C276.708 118.965 277.455 128.144 284.638 129.58C291.994 131.054 299.693 120.728 302.779 116.015C303.049 120.771 304.676 130.307 313.307 131.11C313.623 131.139 313.937 131.153 314.243 131.153Z" fill="#FFEBDE"/>
<path d="M322.049 157.662C324.192 157.662 325.999 156.934 327.434 155.493C332.068 150.831 331.087 140.282 331.044 139.836L329.532 139.984C329.542 140.086 330.488 150.271 326.357 154.423C325.034 155.753 323.361 156.302 321.249 156.106C311.234 155.175 312.061 140.111 312.07 139.958L312.273 136.712L310.654 139.532C310.557 139.7 300.969 156.245 292.738 154.6C284.671 152.987 286.241 138.625 286.259 138.48L286.612 135.428L284.878 137.964C284.777 138.112 274.654 152.785 265.087 151.805C255.838 150.881 257.4 134.083 257.417 133.914L257.755 130.516L256.01 133.45C255.908 133.62 245.73 150.443 234.239 149.025C231.786 148.718 230.066 147.698 228.982 145.906C225.755 140.569 229.504 130.412 229.541 130.31L231.612 124.787L228.212 129.606C228.078 129.792 214.959 148.183 204.786 146.749C202.808 146.471 201.311 145.558 200.208 143.96C196.451 138.517 198.933 127.287 198.958 127.175L200.083 122.202L197.558 126.632C197.448 126.828 186.275 146.208 177.807 145.229C176.376 145.07 175.22 144.407 174.275 143.201C170.333 138.171 171.882 125.964 171.898 125.841L170.392 125.643C170.324 126.17 168.745 138.604 173.08 144.136C174.273 145.659 175.807 146.534 177.639 146.738C184.875 147.535 193.124 136.389 196.864 130.65C196.405 134.661 196.262 140.911 198.958 144.821C200.297 146.762 202.186 147.916 204.573 148.253C212.948 149.419 222.526 139.168 226.969 133.716C226.104 137.427 225.424 142.954 227.683 146.692C229.006 148.877 231.148 150.168 234.051 150.532C243.899 151.769 252.41 141.372 255.784 136.561C255.772 138.276 255.868 140.589 256.295 142.956C257.438 149.283 260.425 152.866 264.937 153.317C273.151 154.132 281.289 145.095 284.599 140.886C284.514 145.474 285.261 154.653 292.443 156.09C299.804 157.563 307.496 147.237 310.585 142.525C310.855 147.281 312.481 156.817 321.112 157.619C321.429 157.648 321.742 157.662 322.049 157.662Z" fill="#FFEBDE"/>
<path d="M260.766 270.467C260.062 271.56 260.802 273.289 262.416 274.328C264.03 275.364 265.907 275.319 266.613 274.225C267.315 273.131 266.575 271.403 264.961 270.367C263.347 269.328 261.467 269.374 260.766 270.467Z" fill="#14D15D"/>
<path d="M262.218 260.329C261.211 261.896 262.041 264.225 264.073 265.53C266.103 266.835 268.565 266.623 269.572 265.057C270.578 263.49 269.748 261.162 267.718 259.857C265.686 258.552 263.224 258.763 262.218 260.329Z" fill="#14D15D"/>
<path d="M255.927 248.968C254.822 250.687 255.615 253.166 257.698 254.505C259.781 255.844 262.367 255.536 263.471 253.817C264.576 252.098 263.783 249.62 261.698 248.281C259.615 246.942 257.031 247.249 255.927 248.968Z" fill="#14D15D"/>
<path d="M244.626 247.891C243.904 249.014 244.626 250.767 246.241 251.805C247.856 252.842 249.75 252.772 250.475 251.648C251.194 250.524 250.472 248.772 248.857 247.734C247.242 246.698 245.348 246.767 244.626 247.891Z" fill="#14D15D"/>
<path d="M256.372 256.572C259.305 260.773 257.943 280.248 251.544 280.666C245.146 281.084 233.397 262.872 235.068 258.616C236.738 254.358 253.318 252.2 256.372 256.572Z" fill="#14D15D"/>
<path d="M60.9397 308.873H148.837C156.417 272.228 148.138 184.141 102.597 182.683C56.8865 181.212 53.8277 270.542 60.9397 308.873Z" fill="#051333"/>
<path d="M54.1537 308.873H60.939C58.4499 272.606 57.1746 185.591 102.885 187.063C148.427 188.521 150.142 273.229 148.836 308.873H156.047C157.945 278.39 159.842 178.41 102.595 176.801C45.2131 175.192 51.0884 277.889 54.1537 308.873Z" fill="#FFEBDE"/>
<path d="M66.6663 251.87L66.9079 251.644C75.188 243.926 85.2987 240.012 96.96 240.012C97.6298 240.012 98.3003 240.027 98.9673 240.053L98.9258 237.156L100.444 237.134L100.487 240.14C122.02 241.563 141.295 255.359 141.499 255.507L141.829 255.747L139.88 298.389L101.313 297.641L101.331 298.87L99.8122 298.892L99.7943 297.611L66.6663 296.968V251.87ZM138.429 296.842L140.275 256.502C137.659 254.695 120.014 242.985 100.508 241.657L101.29 296.121L138.429 296.842ZM68.1846 295.479L99.7722 296.091L98.9894 241.571C98.3153 241.544 97.6376 241.529 96.96 241.529C85.8084 241.529 76.1294 245.23 68.1846 252.531V295.479Z" fill="#051333"/>
<path d="M105.812 259.41L135.035 261.296L134.937 262.811L105.714 260.925L105.812 259.41Z" fill="#051333"/>
<path d="M113.474 265.608H129.161V267.126H113.474V265.608Z" fill="#051333"/>
<path d="M108.669 280.296L135.868 285.488L135.583 286.979L108.384 281.787L108.669 280.296Z" fill="#051333"/>
<path d="M112.966 277.617L132.066 280.29L131.855 281.793L112.755 279.119L112.966 277.617Z" fill="#051333"/>
<path d="M113.528 288.374L131.112 289.509L131.014 291.024L113.43 289.89L113.528 288.374Z" fill="#051333"/>
<path d="M97.0459 273.578L97.0618 275.097L73.0254 275.349L73.0095 273.831L97.0459 273.578Z" fill="#051333"/>
<path d="M76.7871 270.162H90.4499V271.681H76.7871V270.162Z" fill="#051333"/>
<path d="M71.9808 264.721L95.8909 264.86L95.8821 266.378L71.972 266.24L71.9808 264.721Z" fill="#051333"/>
<path d="M74.9528 287.732L96.4591 289.501L96.3346 291.015L74.8282 289.245L74.9528 287.732Z" fill="#051333"/>
<path d="M78.722 284.835L90.4876 285.456L90.4076 286.972L78.642 286.351L78.722 284.835Z" fill="#051333"/>
<path d="M92.9347 252.47L93.0115 253.986L73.0234 254.999L72.9465 253.483L92.9347 252.47Z" fill="#051333"/>
<path d="M89.0799 248.394L89.3056 249.896L75.0098 252.045L74.784 250.544L89.0799 248.394Z" fill="#051333"/>
<path d="M114.602 251.695L123.202 252.969L122.979 254.47L114.379 253.197L114.602 251.695Z" fill="#051333"/>
<path d="M109.296 247.515L127.261 250.539L127.009 252.036L109.044 249.012L109.296 247.515Z" fill="#051333"/>
<path d="M318.922 311.53C318.922 311.53 325.753 304.509 324.804 301.473C323.856 298.437 317.024 306.502 317.024 306.502C317.024 306.502 321.958 298.817 318.542 296.729C315.127 294.642 304.5 305.079 304.5 305.079C304.5 305.079 308.295 293.883 304.5 292.934C300.705 291.985 295.202 306.596 295.202 306.596C295.202 306.596 294.822 298.247 290.268 297.488C285.714 296.729 285.465 312.26 285.465 312.26L318.922 311.53Z" fill="#A5C74A"/>
<path d="M286.224 312.273C286.276 309.094 286.909 300.429 289.194 298.526C289.499 298.271 289.796 298.178 290.144 298.237C293.383 298.777 294.346 304.48 294.444 306.631L294.611 310.317L295.912 306.864C298.444 300.143 302.345 293.205 304.316 293.671C304.621 293.747 304.845 293.934 305.023 294.26C306.208 296.429 304.528 302.629 303.781 304.835L302.759 307.851L305.032 305.621C309.267 301.461 316.134 296.155 318.146 297.377C318.545 297.621 318.795 297.985 318.911 298.489C319.419 300.699 317.26 304.726 316.385 306.092L317.604 306.992C320.496 303.579 323.395 301.312 324.014 301.554C324.013 301.555 324.046 301.591 324.079 301.699C324.641 303.496 321.083 308.22 318.378 311.001L319.466 312.06C320.659 310.833 326.559 304.548 325.529 301.247C325.258 300.379 324.648 300.134 324.309 300.065C323.149 299.822 321.419 301.033 319.847 302.455C320.361 300.996 320.685 299.425 320.392 298.15C320.182 297.239 319.692 296.543 318.938 296.081C315.988 294.284 309.519 299.462 306.017 302.616C306.737 299.82 307.505 295.637 306.356 293.533C305.977 292.838 305.398 292.376 304.684 292.197C301.314 291.34 297.489 299.13 295.567 303.655C295 300.956 293.637 297.279 290.393 296.739C289.624 296.609 288.866 296.822 288.223 297.359C284.994 300.05 284.726 311.007 284.707 312.248L286.224 312.273Z" fill="#051333"/>
<path d="M54.7263 310.174C54.7263 310.174 59.47 298.978 57.5728 298.029C55.6749 297.081 49.2234 305.05 49.2234 305.05C49.2234 305.05 50.172 296.132 48.0847 295.183C45.9973 294.233 43.5304 305.999 43.5304 305.999C43.5304 305.999 40.3043 298.029 36.1296 298.029C31.9549 298.029 37.8374 308.972 37.8374 308.972L54.7263 310.174Z" fill="#A5C74A"/>
<path d="M55.4247 310.47C57.7165 305.062 60.0068 298.397 57.9123 297.35C56.1617 296.47 52.744 299.79 50.1649 302.747C50.3221 299.695 50.2106 295.315 48.3992 294.492C48.0125 294.316 47.5857 294.331 47.1897 294.531C45.532 295.371 44.0658 300.419 43.2745 303.693C41.9477 301.191 39.355 297.27 36.1303 297.27C35.0659 297.27 34.5219 297.805 34.2539 298.254C32.7313 300.802 36.4156 307.928 37.1697 309.331L38.5072 308.612C36.8023 305.438 34.7593 300.367 35.557 299.033C35.6042 298.953 35.7036 298.788 36.1311 298.788C39.1363 298.788 41.9842 304.2 42.8277 306.284L43.7634 308.594L44.2753 306.155C45.3575 300.994 47.0446 296.194 47.8852 295.882C48.6172 296.259 48.9439 300.509 48.4707 304.971L48.199 307.524L49.8153 305.528C52.9313 301.68 56.3683 298.495 57.2454 298.712C57.7158 299.446 56.2732 304.581 54.03 309.877L55.4247 310.47Z" fill="#051333"/>
</g>
<defs>
<clipPath id="clip0_402_1248">
<rect width="366" height="366" fill="white" transform="matrix(-1 0 0 1 366 0)"/>
</clipPath>
</defs>
</svg>
