<svg width="366" height="366" viewBox="0 0 366 366" fill="none" xmlns="http://www.w3.org/2000/svg">
<g clip-path="url(#clip0_408_3770)">
<path d="M349.666 299.888C349.134 292.633 347.629 279.758 343.672 280.03C338.427 280.392 340.763 293.31 341.487 294.944C340.708 293.936 336.645 289.493 334.374 290.467C332.872 291.11 334.342 294.12 335.904 296.614C303.18 290.078 246.928 285.75 183.011 285.722C119.914 285.696 64.2759 289.868 31.3723 296.235C29.8898 290.681 27.5472 284.106 24.8758 284.774C20.3216 285.912 23.5477 292.889 23.5477 292.889C23.5477 292.889 9.50599 273.578 6.08975 276.235C2.67423 278.891 12.3518 298.794 12.3518 298.794C12.3518 298.794 4.00241 290.846 2.1045 292.889C0.808489 294.284 5.61796 299.281 8.79973 302.309C3.09527 304.631 0.00142999 307.108 2.99367e-07 309.683C-0.00571845 322.958 81.9225 333.754 182.99 333.796C284.057 333.838 365.994 323.111 365.999 309.836C366.001 306.29 360.156 302.922 349.666 299.888Z" fill="#A5C74A"/>
<path d="M339.079 158.72L340.446 152.132L235.699 39.7946L179.333 170.881L26.9639 182.494L52.3158 308.873H209.952L213.497 305.268L217.163 308.873L266.44 295.306L305.06 308.873L307.998 304.889L311.846 308.873L322.735 308.873L345.759 158.204L339.079 158.72Z" fill="#603813"/>
<path d="M190.648 162.984L189.13 163.039L194.399 308.894L195.917 308.839L190.648 162.984Z" fill="#4A2808"/>
<path d="M359.802 137.615L341.585 147.198L246.705 32.2044L52.0121 70.9153L23.9273 174.524C23.9273 174.524 -0.741262 165.92 0.0179019 167.376C0.777066 168.832 6.84895 197.422 6.84895 197.422L195.922 179.458L239.494 46.2468L337.789 169.211L354.109 167.376L359.802 137.615Z" fill="#DFA363"/>
<path d="M26.9961 180.216L26.931 178.699L191.871 171.638L233.712 38.8074L235.159 39.2635L193 173.109L26.9961 180.216Z" fill="#FFEBDE"/>
<path d="M62.5303 103.595C60.3864 103.595 58.5793 102.867 57.1446 101.426C52.5103 96.7641 53.4918 86.2151 53.5347 85.7683L55.0466 85.917C55.0366 86.0193 54.0901 96.2036 58.2219 100.356C59.5444 101.685 61.2135 102.238 63.3295 102.039C73.3451 101.108 72.5181 86.0436 72.5095 85.8906L72.3065 82.6445L73.9256 85.4653C74.0221 85.6325 83.6096 102.175 91.8417 100.533C99.908 98.92 98.3382 84.5581 98.3203 84.413L97.9672 81.3613L99.7014 83.8969C99.8022 84.0456 109.92 98.7099 119.493 97.7384C128.742 96.8141 127.179 80.016 127.163 79.8473L126.825 76.4496L128.57 79.3841C128.672 79.5535 138.849 96.3766 150.34 94.9584C152.794 94.6517 154.514 93.6316 155.597 91.8395C158.825 86.5025 155.075 76.3453 155.038 76.2438L152.967 70.7209L156.368 75.5396C156.5 75.7248 169.608 94.1256 179.794 92.683C181.772 92.4042 183.269 91.4921 184.372 89.8937C188.128 84.4502 185.646 73.2207 185.621 73.1078L184.496 68.1346L187.021 72.5645C187.132 72.7611 198.282 92.1519 206.772 91.1618C208.204 91.0031 209.359 90.3398 210.305 89.1338C214.247 84.1042 212.697 71.8968 212.681 71.7738L214.187 71.5758C214.255 72.1027 215.834 84.5374 211.499 90.0688C210.306 91.5915 208.773 92.4671 206.941 92.6709C199.704 93.4686 191.456 82.3221 187.716 76.5826C188.174 80.5936 188.318 86.8442 185.621 90.7537C184.282 92.6945 182.394 93.8489 180.007 94.1856C171.631 95.3537 162.054 85.1014 157.611 79.6486C158.475 83.36 159.156 88.8865 156.896 92.6251C155.574 94.8097 153.431 96.1014 150.529 96.4646C140.69 97.7112 132.17 87.3053 128.796 82.4944C128.808 84.2086 128.711 86.5218 128.284 88.8886C127.141 95.2157 124.154 98.7992 119.643 99.2496C111.44 100.067 103.291 91.0275 99.9802 86.8192C100.066 91.407 99.319 100.586 92.1362 102.022C84.7834 103.492 77.0816 93.1684 73.9949 88.4569C73.7254 93.2127 72.0992 102.749 63.4681 103.552C63.15 103.58 62.8369 103.595 62.5303 103.595Z" fill="#FFEBDE"/>
<path d="M51.7568 131.153C49.613 131.153 47.8059 130.425 46.3712 128.984C41.7369 124.322 42.7183 113.773 42.7612 113.326L44.2731 113.475C44.2631 113.577 43.3174 123.762 47.4485 127.914C48.7709 129.243 50.4401 129.795 52.556 129.597C62.5717 128.666 61.7446 113.602 61.7353 113.449L61.5323 110.202L63.1514 113.023C63.2479 113.191 72.8411 129.734 81.0676 128.091C89.1339 126.478 87.5641 112.116 87.5462 111.971L87.1931 108.919L88.9273 111.455C89.0281 111.603 99.1417 126.276 108.718 125.296C117.968 124.372 116.405 107.574 116.389 107.405L116.051 104.007L117.796 106.941C117.898 107.111 128.065 123.944 139.566 122.516C142.019 122.209 143.739 121.189 144.823 119.397C148.051 114.06 144.301 103.903 144.264 103.801L142.193 98.2781L145.594 103.097C145.726 103.282 158.835 121.686 169.02 120.24C170.998 119.962 172.495 119.049 173.598 117.451C177.354 112.007 174.872 100.778 174.847 100.666L173.722 95.6926L176.247 100.122C176.358 100.319 187.483 119.707 195.998 118.72C197.43 118.561 198.585 117.898 199.531 116.692C203.472 111.662 201.923 99.4548 201.907 99.3318L203.413 99.1338C203.481 99.6607 205.06 112.095 200.725 117.627C199.532 119.149 197.999 120.025 196.167 120.229C188.914 121.041 180.682 109.879 176.942 104.14C177.4 108.152 177.544 114.402 174.847 118.312C173.508 120.252 171.62 121.407 169.233 121.744C160.855 122.912 151.28 112.659 146.837 107.207C147.701 110.918 148.382 116.444 146.122 120.183C144.799 122.368 142.657 123.659 139.755 124.023C129.913 125.264 121.395 114.862 118.021 110.052C118.034 111.767 117.937 114.08 117.51 116.447C116.367 122.774 113.38 126.357 108.869 126.808C100.654 127.633 92.5165 118.585 89.2061 114.377C89.2918 118.965 88.5448 128.144 81.3621 129.58C74.0056 131.054 66.3075 120.728 63.2208 116.016C62.9506 120.771 61.3243 130.307 52.6933 131.11C52.3766 131.139 52.0635 131.153 51.7568 131.153Z" fill="#FFEBDE"/>
<path d="M43.9514 157.662C41.8076 157.662 40.0005 156.935 38.5658 155.493C33.9314 150.831 34.9129 140.282 34.9558 139.836L36.4677 139.984C36.4577 140.086 35.512 150.271 39.643 154.423C40.9655 155.753 42.639 156.302 44.7506 156.106C54.7663 155.175 53.9392 140.111 53.9299 139.958L53.7269 136.712L55.346 139.532C55.4425 139.7 65.0314 156.245 73.2621 154.6C81.3284 152.987 79.7586 138.625 79.7408 138.48L79.3876 135.429L81.1219 137.964C81.2226 138.112 91.3463 152.785 100.913 151.806C110.162 150.881 108.6 134.083 108.583 133.914L108.245 130.516L109.99 133.451C110.092 133.62 120.27 150.443 131.761 149.025C134.214 148.718 135.934 147.698 137.018 145.906C140.245 140.569 136.496 130.412 136.459 130.31L134.388 124.787L137.788 129.606C137.922 129.792 151.041 148.183 161.214 146.75C163.192 146.471 164.689 145.559 165.792 143.96C169.549 138.517 167.067 127.287 167.042 127.175L165.917 122.202L168.441 126.632C168.552 126.828 179.725 146.208 188.193 145.229C189.624 145.07 190.78 144.407 191.725 143.201C195.667 138.171 194.118 125.964 194.101 125.841L195.608 125.643C195.676 126.17 197.255 138.605 192.92 144.136C191.727 145.659 190.193 146.534 188.361 146.738C181.125 147.535 172.876 136.389 169.136 130.65C169.594 134.661 169.738 140.911 167.042 144.821C165.703 146.762 163.814 147.916 161.427 148.253C153.052 149.419 143.474 139.169 139.031 133.716C139.896 137.427 140.576 142.954 138.316 146.692C136.994 148.877 134.852 150.169 131.949 150.532C122.101 151.769 113.59 141.372 110.216 136.562C110.228 138.276 110.132 140.589 109.705 142.956C108.562 149.283 105.575 152.866 101.063 153.317C92.8489 154.132 84.7111 145.095 81.4006 140.886C81.4864 145.474 80.7394 154.654 73.5567 156.09C66.1959 157.563 58.5035 147.237 55.4154 142.525C55.1451 147.281 53.5189 156.817 44.8879 157.619C44.5712 157.648 44.2581 157.662 43.9514 157.662Z" fill="#FFEBDE"/>
<path d="M105.234 280.467C105.938 281.56 105.198 283.289 103.584 284.328C101.97 285.364 100.093 285.319 99.3874 284.225C98.6847 283.131 99.4246 281.403 101.039 280.367C102.653 279.328 104.533 279.374 105.234 280.467Z" fill="#14D15D"/>
<path d="M103.782 270.329C104.789 271.896 103.959 274.225 101.927 275.53C99.8972 276.835 97.4346 276.623 96.4281 275.057C95.4216 273.49 96.2515 271.162 98.2824 269.857C100.314 268.552 102.776 268.763 103.782 270.329Z" fill="#14D15D"/>
<path d="M110.073 258.968C111.178 260.687 110.385 263.166 108.302 264.505C106.219 265.844 103.633 265.536 102.529 263.817C101.424 262.098 102.217 259.62 104.302 258.281C106.385 256.942 108.969 257.249 110.073 258.968Z" fill="#14D15D"/>
<path d="M121.374 257.891C122.096 259.014 121.374 260.767 119.759 261.805C118.144 262.842 116.25 262.772 115.525 261.648C114.806 260.524 115.528 258.772 117.143 257.734C118.758 256.698 120.652 256.767 121.374 257.891Z" fill="#14D15D"/>
<path d="M109.628 266.572C106.695 270.773 108.057 290.248 114.456 290.666C120.854 291.084 132.603 272.872 130.932 268.616C129.262 264.358 112.682 262.2 109.628 266.572Z" fill="#14D15D"/>
<path d="M305.06 308.873H217.163C209.583 272.228 217.862 184.141 263.404 182.683C309.114 181.211 312.172 270.542 305.06 308.873Z" fill="#051333"/>
<path d="M311.846 308.873H305.061C307.55 272.606 308.825 185.591 263.115 187.062C217.573 188.521 215.858 273.229 217.164 308.873H209.953C208.055 278.39 206.158 178.41 263.405 176.801C320.787 175.192 314.912 277.889 311.846 308.873Z" fill="#FFEBDE"/>
<path d="M299.334 251.869L299.092 251.644C290.812 243.925 280.701 240.012 269.04 240.012C268.37 240.012 267.7 240.027 267.033 240.053L267.074 237.156L265.556 237.134L265.513 240.14C243.98 241.563 224.705 255.359 224.501 255.507L224.171 255.747L226.12 298.389L264.687 297.641L264.67 298.87L266.188 298.892L266.206 297.611L299.334 296.968V251.869ZM227.571 296.842L225.725 256.502C228.341 254.695 245.986 242.985 265.492 241.657L264.71 296.121L227.571 296.842ZM297.815 295.479L266.228 296.091L267.011 241.571C267.685 241.544 268.362 241.529 269.04 241.529C280.192 241.529 289.871 245.23 297.815 252.531V295.479Z" fill="#051333"/>
<path d="M260.188 259.41L230.965 261.296L231.063 262.811L260.286 260.925L260.188 259.41Z" fill="#051333"/>
<path d="M252.526 265.608H236.839V267.126H252.526V265.608Z" fill="#051333"/>
<path d="M257.331 280.296L230.132 285.488L230.417 286.979L257.616 281.787L257.331 280.296Z" fill="#051333"/>
<path d="M253.034 277.616L233.934 280.29L234.145 281.793L253.245 279.119L253.034 277.616Z" fill="#051333"/>
<path d="M252.472 288.374L234.889 289.509L234.986 291.024L252.57 289.889L252.472 288.374Z" fill="#051333"/>
<path d="M268.954 273.578L268.938 275.097L292.975 275.349L292.991 273.831L268.954 273.578Z" fill="#051333"/>
<path d="M289.213 270.162H275.55V271.681H289.213V270.162Z" fill="#051333"/>
<path d="M294.019 264.721L270.109 264.86L270.118 266.378L294.028 266.239L294.019 264.721Z" fill="#051333"/>
<path d="M291.047 287.732L269.541 289.501L269.666 291.014L291.172 289.245L291.047 287.732Z" fill="#051333"/>
<path d="M287.278 284.835L275.512 285.456L275.592 286.972L287.358 286.351L287.278 284.835Z" fill="#051333"/>
<path d="M273.065 252.47L272.989 253.986L292.977 254.999L293.054 253.482L273.065 252.47Z" fill="#051333"/>
<path d="M276.92 248.394L276.694 249.896L290.99 252.045L291.216 250.544L276.92 248.394Z" fill="#051333"/>
<path d="M251.398 251.695L242.798 252.968L243.021 254.47L251.621 253.197L251.398 251.695Z" fill="#051333"/>
<path d="M256.705 247.515L238.739 250.539L238.991 252.036L256.957 249.012L256.705 247.515Z" fill="#051333"/>
<path d="M47.0782 311.53C47.0782 311.53 40.2471 304.509 41.1957 301.473C42.1443 298.437 48.9761 306.502 48.9761 306.502C48.9761 306.502 44.0422 298.817 47.4578 296.729C50.8733 294.642 61.5001 305.079 61.5001 305.079C61.5001 305.079 57.705 293.883 61.5001 292.934C65.2953 291.985 70.7981 306.596 70.7981 306.596C70.7981 306.596 71.1777 298.247 75.732 297.488C80.2862 296.729 80.535 312.26 80.535 312.26L47.0782 311.53Z" fill="#A5C74A"/>
<path d="M79.7758 312.273C79.7236 309.094 79.091 300.429 76.8063 298.526C76.5011 298.271 76.2044 298.178 75.8563 298.237C72.6173 298.777 71.6537 304.48 71.5558 306.631L71.3885 310.317L70.0882 306.864C67.5563 300.143 63.6554 293.205 61.6838 293.671C61.3786 293.747 61.1548 293.934 60.9768 294.26C59.7923 296.429 61.4722 302.629 62.2192 304.835L63.2407 307.851L60.9683 305.621C56.7328 301.461 49.866 296.155 47.8537 297.377C47.4548 297.621 47.2047 297.985 47.0888 298.489C46.5806 300.699 48.7401 304.726 49.6151 306.092L48.3963 306.992C45.504 303.579 42.6053 301.312 41.9856 301.554C41.987 301.555 41.9541 301.591 41.9205 301.699C41.3587 303.496 44.9164 308.22 47.6221 311.001L46.5341 312.06C45.3411 310.833 39.4407 304.548 40.4708 301.247C40.7418 300.379 41.3515 300.134 41.6911 300.065C42.8505 299.822 44.5805 301.033 46.1531 302.455C45.6391 300.996 45.3153 299.425 45.6077 298.15C45.8179 297.239 46.3075 296.543 47.0617 296.081C50.0118 294.284 56.4812 299.462 59.9832 302.616C59.2626 299.82 58.4949 295.637 59.6436 293.533C60.0232 292.838 60.6015 292.376 61.3157 292.197C64.6854 291.34 68.5106 299.13 70.4328 303.655C71.0004 300.956 72.3629 297.279 75.6068 296.739C76.376 296.609 77.1337 296.822 77.7771 297.359C81.006 300.05 81.2741 311.007 81.2934 312.248L79.7758 312.273Z" fill="#051333"/>
<path d="M311.274 310.174C311.274 310.174 306.53 298.978 308.427 298.029C310.325 297.08 316.777 305.05 316.777 305.05C316.777 305.05 315.828 296.132 317.915 295.183C320.003 294.233 322.47 305.999 322.47 305.999C322.47 305.999 325.696 298.029 329.87 298.029C334.045 298.029 328.163 308.972 328.163 308.972L311.274 310.174Z" fill="#A5C74A"/>
<path d="M310.575 310.47C308.283 305.062 305.993 298.397 308.088 297.35C309.838 296.47 313.256 299.79 315.835 302.747C315.678 299.695 315.789 295.315 317.601 294.492C317.987 294.316 318.414 294.331 318.81 294.531C320.468 295.371 321.934 300.419 322.725 303.693C324.052 301.191 326.645 297.27 329.87 297.27C330.934 297.27 331.478 297.805 331.746 298.254C333.269 300.802 329.584 307.928 328.83 309.331L327.493 308.612C329.198 305.438 331.241 300.367 330.443 299.033C330.396 298.953 330.296 298.788 329.869 298.788C326.864 298.788 324.016 304.2 323.172 306.284L322.236 308.594L321.725 306.155C320.642 300.994 318.955 296.194 318.115 295.882C317.383 296.259 317.056 300.509 317.529 304.971L317.801 307.524L316.185 305.528C313.069 301.68 309.632 298.495 308.754 298.712C308.284 299.446 309.727 304.581 311.97 309.877L310.575 310.47Z" fill="#051333"/>
</g>
<defs>
<clipPath id="clip0_408_3770">
<rect width="366" height="366" fill="white"/>
</clipPath>
</defs>
</svg>
