<svg width="559" height="375" viewBox="0 0 559 375" fill="none" xmlns="http://www.w3.org/2000/svg">
<path d="M487.916 91.5L470.338 67.7179L482.98 48.9235L468.706 31.2279L482.98 18.2333L212.179 8H13.3198V73.8044L23.4944 145.141L30.8198 157L13.3198 172.5L178.39 175H492.32V137.125L474.742 113.342L487.916 91.5Z" fill="#6E3D1E"/>
<path d="M551.32 88.5L532.431 63.5787L546.016 43.8839L530.656 25.3406L546.016 11.7235L272.82 0L38.3198 8L41.3198 69.9567L52.233 144.711L93.8456 155.574L62.8605 163.835L218.704 176L544.058 174.958L546.016 136.417L537.163 111.389L551.32 88.5Z" fill="#834A27"/>
<path d="M0 9.49761L27.5343 7.48047L54.2478 372.124L26.7135 374.141L0 9.49761Z" fill="#834A27"/>
<path d="M530.465 7.52432L558.034 8.99437L538.566 374.096L510.997 372.626L530.465 7.52432Z" fill="#834A27"/>
<path d="M40.2525 247.458C38.7631 247.567 28.5139 107.663 30.0033 107.554C31.4926 107.445 41.7378 247.349 40.2525 247.458Z" fill="#6E3D1E"/>
<path d="M540.399 248.661C538.907 248.581 546.377 108.501 547.868 108.581C549.359 108.66 541.886 248.74 540.399 248.661Z" fill="#6E3D1E"/>
<path d="M36.337 316.575C34.8466 316.684 24.547 176.036 26.0332 175.927C27.5195 175.818 37.8274 316.466 36.337 316.575Z" fill="#6E3D1E"/>
<path d="M527.801 316.734C526.309 316.654 533.822 175.83 535.31 175.909C536.798 175.988 529.293 316.813 527.801 316.734Z" fill="#6E3D1E"/>
<path d="M28.2084 348.594C28.8249 348.549 26.7496 313.362 23.5731 270.002C20.3966 226.643 17.3217 191.529 16.7052 191.574C16.0888 191.619 18.1641 226.806 21.3406 270.166C24.5171 313.526 27.5919 348.639 28.2084 348.594Z" fill="#6E3D1E"/>
<path d="M515.701 347.472C516.318 347.505 518.695 312.337 521.01 268.923C523.325 225.508 524.701 190.287 524.084 190.254C523.467 190.221 521.09 225.389 518.775 268.803C516.46 312.218 515.084 347.439 515.701 347.472Z" fill="#6E3D1E"/>
<path d="M520.712 22.5506L389.387 15.8352L520.712 47.5472V22.5506Z" fill="#6E3D1E"/>
<path d="M520.712 111.717L414.01 113.857L520.712 126.268V111.717Z" fill="#6E3D1E"/>
<path d="M520.698 119L448.32 126.224L513.555 137.265L520.698 177.201V119Z" fill="#6E3D1E"/>
<path d="M41.674 25.1622L158.822 32.2204L41.674 40.8317V25.1622Z" fill="#6E3D1E"/>
</svg>
