<svg width="32" height="32" viewBox="0 0 32 32" fill="none" xmlns="http://www.w3.org/2000/svg">
<g clip-path="url(#clip0_402_1011)">
<path d="M15.2451 25.5705L15.177 25.4531L15.0442 25.4811C14.6643 25.5621 14.277 25.6033 13.8886 25.6041C11.4373 25.6041 9.73956 23.8897 9.12769 23.1594L10.6731 23.2729L10.3929 22.9342C10.0754 22.5446 9.78901 22.1306 9.53638 21.6961C8.88175 20.5858 8.69025 19.6591 8.64487 19.0774C8.62229 18.8134 8.62816 18.5478 8.66238 18.2851L10.2113 18.9726L9.85538 18.4364C9.84788 18.4251 9.09913 17.2751 8.812 15.3609C8.59275 13.899 8.86462 12.5229 9.00806 11.9457L10.4062 13.2008L10.3401 12.6981C10.3385 12.6859 10.2065 11.6016 10.6047 10.0242C9.00719 9.58225 7.89106 9.63631 7.89106 9.63631L7.83144 11.3644C7.83144 11.3644 6.96138 10.597 4.94581 10.7425C2.29869 10.9337 0.65 11.7843 0.65 11.7843C0.65 11.7843 0.267313 13.5998 0.785375 16.203C1.17981 18.1849 2.15056 18.8202 2.15056 18.8202L0.5 19.3361C0.5 19.3361 0.76375 20.5163 1.7 22.0236C2.65 23.5533 4.092 24.5899 4.092 24.5899L2.535 24.7769C2.535 24.7769 3.66319 26.2294 4.99306 27.0504C6.61 28.0487 7.90306 28.1809 7.90306 28.1809L6.68363 29.025C6.68363 29.025 8.11944 29.8903 9.89163 30.0393C11.6638 30.1883 12.8283 29.7599 12.8283 29.7599L12.1388 30.6647C12.1388 30.6647 13.3759 31.3785 15.5671 30.7026C16.0017 30.5717 16.4253 30.4066 16.8339 30.2089L16.4262 31.5C16.4262 31.5 18.7833 30.6099 19.7068 28.3524C18.2838 28.1834 16.3979 27.5572 15.2451 25.5705Z" fill="#4BA55A"/>
<path d="M9.50157 23.5724C8.8957 23.7706 8.2737 23.9156 7.64263 24.0058C6.72907 24.1346 5.64588 24.1705 5.63507 24.1708C5.50246 24.1729 5.37611 24.2276 5.28381 24.3228C5.1915 24.418 5.14081 24.546 5.14288 24.6786C5.14496 24.8112 5.19962 24.9376 5.29485 25.0299C5.39009 25.1222 5.51809 25.1729 5.6507 25.1708C5.65613 25.1708 5.66151 25.1708 5.66695 25.1708C5.71332 25.1693 6.81401 25.133 7.78232 24.9964C8.66353 24.8705 9.52836 24.6488 10.3614 24.3351C10.0564 24.1024 9.769 23.8475 9.50157 23.5724Z" fill="#2D873C"/>
<path d="M8.58812 18.4619L8.64037 18.5018C8.64605 18.4181 8.65393 18.345 8.66237 18.2848L10.2113 18.9723L9.85537 18.4361C9.76396 18.289 9.68085 18.137 9.60643 17.9806L9.19424 17.6665C9.2053 17.5124 9.21737 17.3023 9.2243 17.0524C9.03561 16.5022 8.89753 15.9359 8.8118 15.3606C8.71221 14.653 8.70278 13.9357 8.78374 13.2258C8.69905 12.8585 8.64624 12.657 8.64262 12.6426C8.60884 12.5145 8.52557 12.4049 8.41108 12.3382C8.2966 12.2714 8.16028 12.2528 8.03209 12.2864C7.9039 12.3201 7.79432 12.4033 7.72744 12.5177C7.66056 12.6322 7.64185 12.7685 7.67543 12.8967C7.67693 12.9024 7.8288 13.4837 8.0358 14.496C8.21312 15.3634 8.23887 16.2756 8.22549 16.9284L6.13637 15.3364C6.10431 14.9255 6.04771 14.5169 5.96687 14.1128C5.75368 13.0703 5.60043 12.4842 5.59399 12.4598C5.56022 12.3316 5.47694 12.2221 5.36246 12.1553C5.24797 12.0885 5.11166 12.0699 4.98346 12.1036C4.85527 12.1372 4.74569 12.2204 4.67881 12.3349C4.61194 12.4493 4.59323 12.5856 4.6268 12.7138C4.6283 12.7196 4.78012 13.3008 4.98712 14.3132C4.99874 14.3698 5.00968 14.4276 5.02024 14.486L2.08124 12.2464C2.02902 12.2066 1.96946 12.1775 1.90598 12.1607C1.8425 12.1439 1.77633 12.1398 1.71125 12.1486C1.64617 12.1574 1.58346 12.1789 1.5267 12.2119C1.46994 12.2449 1.42024 12.2888 1.38043 12.341C1.34062 12.3932 1.31149 12.4528 1.2947 12.5163C1.27791 12.5797 1.27379 12.6459 1.28257 12.711C1.29135 12.7761 1.31286 12.8388 1.34588 12.8955C1.37889 12.9523 1.42277 13.002 1.47499 13.0418L4.41249 15.2803C4.3543 15.2854 4.29524 15.2916 4.23849 15.2954C3.20724 15.3642 2.6068 15.3722 2.60099 15.3723C2.46838 15.373 2.34151 15.4264 2.24828 15.5207C2.15505 15.615 2.1031 15.7425 2.10387 15.8751C2.10463 16.0077 2.15804 16.1346 2.25235 16.2278C2.34665 16.3211 2.47413 16.373 2.60674 16.3723H2.61249C2.6378 16.3723 3.24374 16.3643 4.30524 16.2932C4.71643 16.2639 5.12549 16.2101 5.53024 16.1319L7.61949 17.7239C6.99355 17.9101 6.10699 18.1273 5.22387 18.1864C4.19299 18.2555 3.59262 18.2633 3.58637 18.2634C3.52071 18.2637 3.45576 18.2771 3.39524 18.3025C3.33472 18.328 3.27981 18.3651 3.23365 18.4118C3.14041 18.5061 3.08846 18.6336 3.08921 18.7662C3.08958 18.8319 3.10289 18.8968 3.12836 18.9573C3.15383 19.0179 3.19097 19.0728 3.23767 19.1189C3.33197 19.2122 3.45945 19.2641 3.59205 19.2634H3.59793C3.62293 19.2634 4.22918 19.2554 5.29068 19.1844C6.67837 19.0912 8.02793 18.6604 8.58812 18.4619Z" fill="#2D873C"/>
<path d="M13.8886 25.6041C13.6462 25.6039 13.4041 25.5868 13.1641 25.5529C12.3838 26.0353 11.5601 26.4436 10.7037 26.7725C10.2029 26.9654 9.52537 27.0913 9.16619 27.1494C9.04198 27.1692 8.9298 27.2351 8.85203 27.334C8.77426 27.4328 8.7366 27.5574 8.74657 27.6827C8.75654 27.8081 8.8134 27.9252 8.90581 28.0105C8.99822 28.0958 9.1194 28.1432 9.24519 28.1431C9.27204 28.1432 9.29885 28.1411 9.32537 28.1369C9.81131 28.0585 10.5072 27.9201 11.0634 27.7056C12.4799 27.1688 13.8075 26.4218 15.0015 25.4896C14.6353 25.5649 14.2625 25.6032 13.8886 25.6041Z" fill="#2D873C"/>
<path d="M9.37291 21.4033C9.21464 21.1086 9.07762 20.8029 8.96291 20.4886C8.37023 20.7312 7.75388 20.9113 7.12385 21.0261C5.44741 21.3136 4.49185 21.2881 4.46897 21.2872C4.33645 21.2824 4.20745 21.3305 4.11036 21.4208C4.01327 21.5111 3.95604 21.6363 3.95125 21.7688C3.94647 21.9014 3.99453 22.0304 4.08486 22.1275C4.17519 22.2245 4.30038 22.2818 4.43291 22.2866C4.44091 22.2866 4.4836 22.2882 4.55978 22.2882C4.88678 22.2882 5.83053 22.2624 7.29278 22.0117C8.00562 21.8826 8.70285 21.6787 9.37291 21.4033Z" fill="#2D873C"/>
<path d="M16.4983 27.0572C16.2709 27.2482 16.0233 27.4419 15.7464 27.6423C15.1768 28.0548 14.4589 28.3591 14.0815 28.5037C14.0202 28.5273 13.9641 28.5626 13.9165 28.6078C13.8688 28.653 13.8305 28.7071 13.8038 28.7671C13.7498 28.8882 13.7462 29.0258 13.7936 29.1496C13.8411 29.2734 13.9358 29.3733 14.057 29.4273C14.1781 29.4813 14.3157 29.485 14.4395 29.4375C14.8625 29.275 15.6708 28.9316 16.3329 28.4523C16.722 28.1706 17.0585 27.9015 17.3611 27.6352C17.0556 27.4708 16.7667 27.2772 16.4983 27.0572Z" fill="#2D873C"/>
<path d="M27.0595 23.5709C28.7369 22.4634 29.6914 20.8293 29.6914 20.8293L28.0227 20.6543C28.0227 20.6543 29.2338 19.823 30.2959 17.9591C31.1694 16.4263 31.4998 14.3779 31.4998 14.3779L29.8538 15.0363C29.8538 15.0363 30.7216 13.2291 30.8331 11.2009C30.9429 9.20231 30.5634 7.8915 30.5634 7.8915L28.6461 8.275C28.6461 8.275 29.2641 7.12044 28.5789 4.94556C27.6789 2.08925 26.3131 0.5 26.3131 0.5C26.3131 0.5 24.215 0.551625 21.4846 1.79663C19.4058 2.7445 18.9594 3.975 18.9594 3.975L17.9616 2.29756C17.9616 2.29756 16.7313 2.89375 15.3158 4.31281C13.8794 5.75288 13.114 7.6055 13.114 7.6055L12.5028 5.94513C12.5028 5.94513 11.1979 7.561 10.6406 9.23425C9.96301 11.2687 10.1543 12.7226 10.1543 12.7226L8.90745 11.6031C8.90745 11.6031 8.32901 13.4043 8.62664 15.3884C8.92426 17.3726 9.69914 18.5398 9.69914 18.5398L8.52357 18.0179C8.52357 18.0179 8.06014 19.5617 9.37482 21.7913C9.6323 22.2345 9.92444 22.6567 10.2485 23.0538L8.72107 22.9417C8.72107 22.9417 11.1273 26.5 15.083 25.6647C17.108 29.1549 21.3696 28.5564 21.3696 28.5564L20.2637 27.4996C20.7764 27.4739 21.2863 27.4078 21.7887 27.302C24.3298 26.7838 25.1695 25.4073 25.1695 25.4073L23.9939 24.8854C23.9939 24.8854 25.3822 24.6784 27.0595 23.5709Z" fill="#87E196"/>
<path d="M28.7969 15.7354C28.7673 15.6768 28.7264 15.6246 28.6766 15.5818C28.6268 15.539 28.5691 15.5064 28.5067 15.4858C28.4443 15.4653 28.3785 15.4573 28.313 15.4623C28.2475 15.4672 28.1836 15.485 28.125 15.5146C28.114 15.5202 27.0168 16.0731 26.0369 16.4418C23.2462 17.4918 20.5913 17.2926 19.44 17.1277L20.4905 14.7738C20.6443 14.78 20.8418 14.7854 21.0745 14.7854C22.0728 14.7854 23.7117 14.6879 25.2555 14.1586C27.2058 13.4898 28.189 12.9112 28.2298 12.8869C28.3429 12.8187 28.4245 12.7087 28.4567 12.5806C28.4889 12.4526 28.4692 12.317 28.4018 12.2035C28.3345 12.0899 28.2249 12.0076 28.0971 11.9745C27.9693 11.9415 27.8336 11.9603 27.7196 12.0269C27.7103 12.0324 26.7718 12.5814 24.9311 13.2126C23.4552 13.7189 21.8373 13.7904 20.9328 13.7828L22.0181 11.3508C22.6556 11.2498 24.2525 10.9479 25.6997 10.2788C26.7901 9.77469 27.3935 9.455 27.4188 9.44131C27.5338 9.37795 27.6192 9.27196 27.6566 9.14619C27.6941 9.02042 27.6806 8.88496 27.6191 8.76905C27.5576 8.65313 27.4529 8.56605 27.3278 8.52659C27.2026 8.48713 27.067 8.49846 26.9501 8.55813C26.9438 8.56125 26.3427 8.87963 25.2803 9.37063C24.3125 9.81875 23.2457 10.0911 22.513 10.2423L23.7838 7.39444C24.2348 7.25133 24.6767 7.08095 25.107 6.88425C26.1974 6.38019 26.8008 6.06044 26.8262 6.04706C26.9411 5.9837 27.0265 5.8777 27.064 5.75194C27.1015 5.62617 27.088 5.49071 27.0265 5.37479C26.9649 5.25888 26.8603 5.1718 26.7352 5.13234C26.61 5.09288 26.4743 5.10421 26.3575 5.16388C26.3515 5.167 25.75 5.48544 24.6877 5.97638C24.5793 6.02638 24.4672 6.07542 24.3512 6.1235L26.2544 1.85881C26.2816 1.79879 26.2967 1.73398 26.2987 1.66811C26.3008 1.60224 26.2898 1.53661 26.2664 1.475C26.243 1.41339 26.2077 1.35702 26.1624 1.30911C26.1172 1.26121 26.0629 1.22272 26.0027 1.19586C25.9425 1.16901 25.8776 1.15432 25.8118 1.15263C25.7459 1.15094 25.6803 1.1623 25.6189 1.18603C25.5574 1.20977 25.5012 1.24543 25.4536 1.29096C25.4059 1.33648 25.3677 1.39098 25.3412 1.45131L23.4363 5.71938C23.3947 5.60125 23.356 5.48502 23.3204 5.37069C22.9753 4.25481 22.8099 3.59606 22.8083 3.58944C22.7762 3.46077 22.6943 3.35014 22.5806 3.28187C22.4669 3.2136 22.3308 3.19329 22.2021 3.22541C22.0735 3.25752 21.9628 3.33943 21.8946 3.45312C21.8263 3.56681 21.806 3.70296 21.8381 3.83163C21.845 3.85919 22.0108 4.52056 22.3651 5.66606C22.5065 6.1164 22.6752 6.55769 22.8703 6.9875L21.5985 9.8375C21.2207 9.19375 20.7094 8.22006 20.3949 7.20331C20.0498 6.08744 19.8844 5.42869 19.8828 5.42206C19.8669 5.35835 19.8386 5.2984 19.7995 5.24563C19.7604 5.19286 19.7113 5.1483 19.655 5.11451C19.5987 5.08072 19.5363 5.05834 19.4714 5.04867C19.4064 5.03899 19.3402 5.04221 19.2765 5.05813C19.2128 5.07404 19.1528 5.10236 19.1 5.14144C19.0473 5.18053 19.0027 5.22963 18.9689 5.28594C18.9351 5.34225 18.9127 5.40466 18.9031 5.46961C18.8934 5.53457 18.8966 5.60079 18.9125 5.6645C18.9194 5.69206 19.0852 6.35344 19.4395 7.49894C19.9095 9.01831 20.7528 10.4033 21.1047 10.9441L20.0188 13.3776C19.408 12.713 18.3779 11.4661 17.7667 10.0329C17.0062 8.24938 16.7865 7.18713 16.7838 7.17356C16.7579 7.04352 16.6813 6.92911 16.571 6.85551C16.4607 6.78192 16.3256 6.75516 16.1956 6.78113C16.0655 6.80709 15.9511 6.88366 15.8775 6.99397C15.8039 7.10429 15.7772 7.23933 15.8032 7.36938C15.8125 7.41594 16.0395 8.53188 16.8469 10.4251C17.6347 12.2726 19.0073 13.7867 19.5772 14.3673L18.5262 16.7224C17.6332 15.9803 15.7069 14.1464 14.621 11.3749C14.2398 10.4021 13.9174 9.21913 13.9142 9.20731C13.8975 9.14344 13.8683 9.08352 13.8282 9.031C13.7882 8.97848 13.7382 8.93441 13.6811 8.90133C13.6239 8.86825 13.5608 8.84681 13.4953 8.83826C13.4298 8.82971 13.3633 8.83421 13.2996 8.8515C13.2359 8.86879 13.1762 8.89853 13.124 8.93901C13.0719 8.97948 13.0282 9.02989 12.9957 9.08732C12.9631 9.14474 12.9422 9.20806 12.9342 9.2736C12.9262 9.33914 12.9313 9.40562 12.9492 9.46919C12.9628 9.51956 13.2886 10.7153 13.69 11.7396C14.9616 14.9853 17.2417 16.9953 18.1033 17.6698L17.0777 19.968C16.6434 19.718 16.226 19.4397 15.8283 19.1349C14.9403 18.4599 13.6211 17.2759 12.3797 15.4669C12.0338 14.9628 11.7164 14.2469 11.5581 13.8652C11.5329 13.8045 11.4961 13.7494 11.4496 13.703C11.4032 13.6566 11.348 13.6198 11.2874 13.5947C11.2267 13.5696 11.1617 13.5567 11.096 13.5567C11.0303 13.5568 10.9653 13.5697 10.9047 13.5949C10.844 13.62 10.7889 13.6569 10.7425 13.7033C10.6961 13.7498 10.6593 13.8049 10.6342 13.8656C10.6091 13.9263 10.5962 13.9913 10.5962 14.057C10.5962 14.1226 10.6092 14.1877 10.6343 14.2483C10.8461 14.7587 11.1777 15.4826 11.5552 16.0327C13.5716 18.9712 15.7765 20.3942 16.668 20.8863L15.653 23.1607C14.6013 22.6564 13.6235 22.0106 12.7469 21.2413C11.902 20.5144 11.2089 19.4061 11.1957 19.385C11.1252 19.2738 11.0138 19.195 10.8855 19.1655C10.7572 19.136 10.6225 19.1582 10.5105 19.2274C10.3986 19.2966 10.3184 19.4072 10.2875 19.5351C10.2565 19.663 10.2772 19.798 10.3452 19.9108C10.3764 19.9617 11.1264 21.1666 12.0952 21.9994C13.0445 22.833 14.1045 23.5312 15.2452 24.0744L14.8327 24.9994C14.7786 25.1205 14.7749 25.2582 14.8223 25.382C14.8697 25.5059 14.9644 25.6058 15.0855 25.6598C15.2066 25.7139 15.3442 25.7176 15.4681 25.6702C15.5919 25.6228 15.6919 25.5281 15.7459 25.407L16.1595 24.4803C17.3287 24.9625 18.559 25.281 19.8153 25.4266C20.1199 25.4633 20.4265 25.4811 20.7333 25.4798C21.3391 25.4773 21.9438 25.4256 22.5413 25.325C22.6712 25.3007 22.7861 25.2259 22.8611 25.117C22.936 25.0081 22.9647 24.874 22.9411 24.744C22.9174 24.614 22.8432 24.4986 22.7347 24.4231C22.6262 24.3477 22.4923 24.3182 22.3622 24.3412C22.3492 24.3436 21.0525 24.5746 19.9402 24.4343C18.7815 24.2999 17.6465 24.0079 16.5668 23.5664L17.5818 21.2921C18.3095 21.5425 19.939 21.9944 22.2242 21.9944C23.0257 21.9937 23.8262 21.9397 24.6206 21.8328C25.2831 21.7444 26.0438 21.5057 26.5656 21.3211C26.6275 21.2992 26.6845 21.2653 26.7333 21.2213C26.7821 21.1774 26.8218 21.1243 26.85 21.065C26.8783 21.0058 26.8946 20.9415 26.8981 20.8759C26.9015 20.8104 26.892 20.7447 26.8701 20.6828C26.8482 20.6209 26.8143 20.564 26.7704 20.5152C26.7265 20.4664 26.6734 20.4267 26.6141 20.3984C26.5548 20.3701 26.4906 20.3538 26.425 20.3503C26.3594 20.3469 26.2938 20.3564 26.2319 20.3783C25.8414 20.5166 25.0957 20.7605 24.4882 20.8416C21.2702 21.2713 18.9135 20.6736 17.9921 20.3729L19.0171 18.0763C19.7936 18.2061 20.5798 18.27 21.3671 18.2674C23.0809 18.2739 24.7819 17.9727 26.3892 17.3781C27.4204 16.9899 28.5294 16.4311 28.5761 16.4075C28.6347 16.3779 28.687 16.337 28.7298 16.2872C28.7727 16.2374 28.8053 16.1796 28.8258 16.1172C28.8463 16.0548 28.8543 15.989 28.8493 15.9235C28.8444 15.858 28.8266 15.7941 28.7969 15.7354Z" fill="#69C378"/>
</g>
<defs>
<clipPath id="clip0_402_1011">
<rect width="32" height="32" fill="white"/>
</clipPath>
</defs>
</svg>
