<svg width="24" height="24" viewBox="0 0 24 24" fill="none" xmlns="http://www.w3.org/2000/svg">
<path d="M15.8707 4.16142C15.8707 4.97818 15.606 5.77268 15.1159 6.4259L12.6191 9.75487C12.5461 9.85261 12.4522 9.93003 12.3462 9.98277C12.2398 10.036 12.1217 10.0645 11.9998 10.0645C11.7559 10.0645 11.5266 9.94987 11.3805 9.75487L8.88373 6.4259C8.39358 5.77268 8.12891 4.97818 8.12891 4.16142C8.12891 2.07695 9.81855 0.387299 11.903 0.387299H12.0966C13.1388 0.387299 14.0823 0.80971 14.7656 1.49244C15.4483 2.17565 15.8707 3.11918 15.8707 4.16142Z" fill="#FCD770"/>
<path d="M11.9998 6.58075C13.2825 6.58075 14.3223 5.54091 14.3223 4.25821C14.3223 2.9755 13.2825 1.93567 11.9998 1.93567C10.7171 1.93567 9.67725 2.9755 9.67725 4.25821C9.67725 5.54091 10.7171 6.58075 11.9998 6.58075Z" fill="#E6E9ED"/>
<path d="M22.0641 9.67743V12.044L20.5157 10.9379V9.67743H22.0641Z" fill="#FC6E51"/>
<path d="M3.48378 9.67743V10.9379L1.93542 12.044V9.67743H3.48378Z" fill="#FC6E51"/>
<path d="M23.5932 13.377C23.6493 13.6267 23.5821 13.8822 23.4074 14.0738C23.2913 14.2006 23.1335 14.2857 22.9642 14.3124C22.7576 14.3453 22.5544 14.2969 22.3884 14.1783L22.0642 13.947L17.2841 10.5324C17.2106 10.4797 17.122 10.4516 17.032 10.4516C16.9416 10.4516 16.853 10.4797 16.7795 10.5324L13.3208 13.003C13.286 12.9677 13.2478 12.9353 13.2076 12.9063L11.9999 12.044L15.8795 9.27245C16.2158 9.03245 16.6188 8.90326 17.032 8.90326C17.2382 8.90326 17.4424 8.93568 17.6369 8.9981C17.8314 9.06003 18.0162 9.15245 18.1841 9.27245L20.5159 10.9379L22.0642 12.044L23.2714 12.9063C23.4311 13.0204 23.5502 13.1859 23.5932 13.377Z" fill="#FF826E"/>
<path d="M13.5293 13.377C13.5849 13.6267 13.5177 13.8822 13.343 14.0738C13.2269 14.2006 13.0696 14.2857 12.8998 14.3124C12.8572 14.3191 12.8151 14.3225 12.7735 14.3225C12.6114 14.3225 12.4561 14.2727 12.324 14.1783L7.21974 10.5324C7.1462 10.4797 7.05813 10.4516 6.96765 10.4516C6.87717 10.4516 6.78911 10.4797 6.71556 10.5324L1.93548 13.9466L1.6113 14.1783C1.43807 14.3022 1.22421 14.3496 1.00792 14.3075C0.868085 14.2809 0.736474 14.2136 0.633412 14.1154C0.439383 13.9311 0.355191 13.6751 0.397771 13.4211C0.431641 13.2169 0.542929 13.0383 0.711313 12.9183L1.93548 12.044L3.48384 10.9379L5.81558 9.27245C6.15186 9.03245 6.55443 8.90326 6.96765 8.90326C7.17426 8.90326 7.37797 8.93568 7.57248 8.9981C7.76699 9.06003 7.95183 9.15245 8.11973 9.27245L11.9998 12.044L13.2075 12.9063C13.2477 12.9353 13.2859 12.9677 13.3208 13.003C13.4229 13.1066 13.4974 13.2348 13.5293 13.377Z" fill="#FF826E"/>
<path d="M12.8998 14.3124C13.0697 14.2858 13.2269 14.2006 13.3431 14.0739C13.5177 13.8822 13.585 13.6268 13.5294 13.3771C13.4974 13.2348 13.4229 13.1066 13.3208 13.0031L16.7795 10.5325C16.853 10.4797 16.9415 10.4517 17.032 10.4517C17.122 10.4517 17.2106 10.4797 17.2841 10.5325L22.0642 13.9471V19.7418H19.3546V15.8709H14.7095V19.7418H13.1611V16.6451V14.3226H12.7736C12.8152 14.3226 12.8573 14.3192 12.8998 14.3124Z" fill="#E6E9ED"/>
<path d="M12.7735 14.3226H10.8385V18.1935V19.7418H9.29013V15.8709H4.64505V19.7418H1.93542V13.9466L6.7155 10.5325C6.78905 10.4797 6.87711 10.4517 6.96759 10.4517C7.05807 10.4517 7.14614 10.4797 7.21968 10.5325L12.3239 14.1784C12.456 14.2727 12.6114 14.3226 12.7735 14.3226Z" fill="#E6E9ED"/>
<path d="M14.7095 15.8709H19.3545V19.7418H14.7095V15.8709Z" fill="#AAB2BD"/>
<path d="M4.64514 15.8709H9.29022V19.7418H4.64514V15.8709Z" fill="#AAB2BD"/>
<path d="M13.161 16.645V19.7418V20.903C13.161 20.5827 13.0309 20.2924 12.8209 20.0819C12.6104 19.8719 12.3201 19.7418 11.9998 19.7418C11.6795 19.7418 11.3891 19.8719 11.1787 20.0819C10.9687 20.2924 10.8385 20.5827 10.8385 20.903V19.7418V18.1934V14.3225H12.7735H13.161V16.645Z" fill="#CF9E76"/>
<path d="M23.6125 21.2902V23.6127H15.4836V23.2256C15.4836 22.5845 14.9635 22.0643 14.3224 22.0643C14.3224 21.7672 14.2106 21.4958 14.0262 21.2902H23.6125Z" fill="#CF9E76"/>
<path d="M0.387085 21.2902H9.97336C9.78901 21.4958 9.67724 21.7672 9.67724 22.0643C9.35692 22.0643 9.06661 22.1945 8.85612 22.4045C8.64613 22.615 8.51597 22.9053 8.51597 23.2256V23.6127H0.387085V21.2902Z" fill="#CF9E76"/>
<path d="M23.6126 19.7418V21.2901H14.0263C14.0122 21.2742 13.9972 21.2587 13.9822 21.2432C13.7718 21.0332 13.4814 20.903 13.1611 20.903V19.7418H14.7095H19.3546H22.0642H23.6126Z" fill="#D3A06C"/>
<path d="M10.8385 19.7418V20.903C10.5182 20.903 10.2279 21.0332 10.0174 21.2432C10.0024 21.2587 9.98739 21.2742 9.97336 21.2901H0.387085V19.7418H1.93544H4.64507H9.29015H10.8385Z" fill="#D3A06C"/>
<path d="M15.4836 23.2256V23.6127H8.51599V23.2256C8.51599 22.9053 8.64615 22.6149 8.85615 22.4045C9.06663 22.1945 9.35694 22.0643 9.67726 22.0643C9.67726 21.7672 9.78903 21.4958 9.97338 21.2901C9.98742 21.2742 10.0024 21.2587 10.0174 21.2432C10.2279 21.0332 10.5182 20.903 10.8385 20.903C10.8385 20.5827 10.9687 20.2924 11.1787 20.0819C11.3892 19.8719 11.6795 19.7418 11.9998 19.7418C12.3201 19.7418 12.6104 19.8719 12.8209 20.0819C13.0309 20.2924 13.1611 20.5827 13.1611 20.903C13.4814 20.903 13.7717 21.0332 13.9822 21.2432C13.9972 21.2587 14.0122 21.2742 14.0262 21.2901C14.2106 21.4958 14.3223 21.7672 14.3223 22.0643C14.9635 22.0643 15.4836 22.5845 15.4836 23.2256Z" fill="#B4DD7F"/>
<path d="M17.032 13.5484C17.4596 13.5484 17.8062 13.2017 17.8062 12.7742C17.8062 12.3466 17.4596 12 17.032 12C16.6044 12 16.2578 12.3466 16.2578 12.7742C16.2578 13.2017 16.6044 13.5484 17.032 13.5484Z" fill="#69D6F4"/>
<path d="M6.96766 13.5484C7.39523 13.5484 7.74184 13.2017 7.74184 12.7742C7.74184 12.3466 7.39523 12 6.96766 12C6.54009 12 6.19348 12.3466 6.19348 12.7742C6.19348 13.2017 6.54009 13.5484 6.96766 13.5484Z" fill="#69D6F4"/>
<path d="M11.0708 9.98708C11.2889 10.278 11.6362 10.4516 11.9998 10.4516C12.3634 10.4516 12.7107 10.278 12.9288 9.98708L15.4256 6.65811C15.9623 5.94262 16.2578 5.0559 16.2578 4.16143C16.2578 1.86691 14.3911 0.000213623 12.0966 0.000213623H11.903C9.60851 0.000213623 7.74182 1.86691 7.74182 4.16143C7.74182 5.0559 8.03736 5.94262 8.57402 6.65816L11.0708 9.98708ZM11.903 0.774393H12.0966C13.9642 0.774393 15.4836 2.29382 15.4836 4.16143C15.4836 4.8895 15.243 5.61122 14.8062 6.19365L12.3094 9.52262C12.2367 9.61959 12.121 9.67746 11.9998 9.67746C11.8786 9.67746 11.7629 9.61959 11.6902 9.52262L9.19341 6.19365C8.75658 5.61122 8.516 4.8895 8.516 4.16143C8.516 2.29382 10.0354 0.774393 11.903 0.774393Z" fill="black"/>
<path d="M22.4512 14.6426C22.5749 14.6864 22.7052 14.7096 22.8379 14.7096C22.8997 14.7096 22.9621 14.7047 23.0243 14.6949C23.2803 14.6543 23.5177 14.5264 23.6929 14.3346C23.9541 14.0487 24.0554 13.6687 23.9708 13.2923C23.9084 13.0143 23.7399 12.7654 23.4963 12.5915L22.4512 11.8449V9.29035H20.1287V10.1859L18.4088 8.95751C18.0046 8.66878 17.5284 8.51617 17.0317 8.51617C16.535 8.51617 16.0588 8.66878 15.6545 8.95751L11.9997 11.5682L8.34474 8.95751C7.94052 8.66878 7.46435 8.51617 6.96762 8.51617C6.47088 8.51617 5.99471 8.66878 5.59045 8.95751L3.8709 10.1858V9.29035H1.54836V11.8448L0.48633 12.6034C0.233899 12.7837 0.0668214 13.0515 0.0158707 13.3574C-0.0476604 13.7384 0.0833695 14.1266 0.366477 14.3958C0.523878 14.5455 0.720422 14.6465 0.934773 14.6878C1.01098 14.7025 1.08724 14.7098 1.16272 14.7098C1.29515 14.7098 1.42497 14.6866 1.54836 14.6428V19.3547H0V23.9998H23.9996V19.3547H22.4512V14.6426ZM20.9028 20.903V20.1289H21.677V20.903H20.9028ZM14.1836 20.903C14.0039 20.7445 13.787 20.6277 13.5481 20.5659V20.1289H15.4836V20.903H14.1836ZM9.81592 20.903H8.51597V20.1289H10.4514V20.5659C10.2125 20.6277 9.99567 20.7445 9.81592 20.903ZM3.09672 20.1289V20.903H2.32254V20.1289H3.09672ZM3.8709 20.1289H4.64508V20.903H3.8709V20.1289ZM8.90306 19.3547H5.03217V16.258H8.90306V19.3547ZM5.41926 20.1289H6.19344V20.903H5.41926V20.1289ZM6.96762 20.1289H7.74179V20.903H6.96762V20.1289ZM11.2256 18.5805H11.9998V17.8063H11.2256V14.7096H12.774V16.258H11.9998V17.0321H12.774V19.5628C12.5461 19.4307 12.2817 19.3547 11.9998 19.3547C11.7179 19.3547 11.4535 19.4307 11.2256 19.5628V18.5805ZM18.9674 19.3547H15.0965V16.258H18.9674V19.3547ZM16.2578 20.1289H17.0319V20.903H16.2578V20.1289ZM17.8061 20.1289H18.5803V20.903H17.8061V20.1289ZM19.3545 20.1289H20.1287V20.903H19.3545V20.1289ZM19.7416 19.3547V15.4838H14.3223V19.3547H13.5481V14.4139C13.5762 14.3887 13.6033 14.3626 13.6288 14.3347C13.89 14.0488 13.9913 13.6688 13.9067 13.2923C13.8922 13.2276 13.8714 13.1647 13.8458 13.1037L17.0046 10.8474C17.0206 10.836 17.0431 10.8361 17.0589 10.8474L21.677 14.1461V19.3547H19.7416ZM20.9028 10.0645H21.677V11.2919L20.9028 10.7389V10.0645ZM16.1045 9.58749C16.3767 9.39308 16.6973 9.29035 17.0317 9.29035C17.3661 9.29035 17.6867 9.39308 17.9588 9.58749L23.0464 13.2215C23.1348 13.2846 23.1948 13.37 23.2155 13.462C23.2443 13.5901 23.2108 13.7146 23.1214 13.8125C23.0641 13.8753 22.9866 13.9171 22.9033 13.9303C22.7978 13.9469 22.6977 13.9237 22.6132 13.8634L17.5088 10.2174C17.3688 10.1174 17.2038 10.0645 17.0317 10.0645C16.8596 10.0645 16.6946 10.1174 16.5546 10.2174L13.3317 12.5196L12.6657 12.0439L16.1045 9.58749ZM2.32254 10.0645H3.09672V10.7388L2.32254 11.2918V10.0645ZM1.08143 13.9276C1.01359 13.9146 0.949192 13.8816 0.899935 13.8348C0.801905 13.7415 0.75797 13.614 0.77955 13.4847C0.796534 13.3828 0.852226 13.2935 0.93637 13.2334L6.04044 9.58749C6.31261 9.39308 6.63322 9.29035 6.96762 9.29035C7.30201 9.29035 7.62262 9.39308 7.89474 9.58749L12.9823 13.2215C13.0707 13.2846 13.1307 13.37 13.1514 13.462C13.1802 13.5901 13.1467 13.7146 13.0572 13.8126C13 13.8753 12.9226 13.9171 12.8392 13.9303C12.734 13.9469 12.6336 13.9238 12.5491 13.8634L7.4447 10.2174C7.30463 10.1174 7.13968 10.0645 6.96762 10.0645C6.79555 10.0645 6.63056 10.1174 6.49048 10.2174L1.38622 13.8634C1.29752 13.9267 1.19233 13.9491 1.08143 13.9276ZM2.32254 14.146L6.94042 10.8474C6.95639 10.8361 6.97884 10.8361 6.99471 10.8474L11.318 13.9354H10.4514V19.3547H9.67724V15.4838H4.25799V19.3547H2.32254V14.146ZM1.54836 20.1289V20.903H0.774179V20.1289H1.54836ZM0.774179 21.6772H9.34009C9.33665 21.6904 9.33259 21.7033 9.32949 21.7166C8.64265 21.8748 8.12888 22.4914 8.12888 23.2256H0.774179V21.6772ZM9.67724 22.4514H10.0643V22.0643C10.0643 21.6375 10.4116 21.2901 10.8385 21.2901H11.2256V20.903C11.2256 20.4762 11.5729 20.1289 11.9998 20.1289C12.4266 20.1289 12.774 20.4762 12.774 20.903V21.2901H13.1611C13.5879 21.2901 13.9352 21.6375 13.9352 22.0643V22.4514H14.3223C14.7492 22.4514 15.0965 22.7987 15.0965 23.2256H8.90306C8.90306 22.7987 9.25038 22.4514 9.67724 22.4514ZM15.8707 23.2256C15.8707 22.4914 15.3569 21.8748 14.6701 21.7166C14.667 21.7033 14.6629 21.6904 14.6595 21.6772H23.2254V23.2256H15.8707ZM23.2254 20.903H22.4512V20.1289H23.2254V20.903Z" fill="black"/>
<path d="M17.032 11.6129C16.3917 11.6129 15.8707 12.1339 15.8707 12.7742C15.8707 13.4145 16.3917 13.9355 17.032 13.9355C17.6723 13.9355 18.1933 13.4145 18.1933 12.7742C18.1933 12.1339 17.6723 11.6129 17.032 11.6129ZM17.032 13.1613C16.8186 13.1613 16.6449 12.9876 16.6449 12.7742C16.6449 12.5608 16.8186 12.3871 17.032 12.3871C17.2454 12.3871 17.4191 12.5608 17.4191 12.7742C17.4191 12.9876 17.2454 13.1613 17.032 13.1613Z" fill="black"/>
<path d="M6.96767 13.9355C7.60796 13.9355 8.12893 13.4145 8.12893 12.7742C8.12893 12.1339 7.60796 11.6129 6.96767 11.6129C6.32737 11.6129 5.8064 12.1339 5.8064 12.7742C5.8064 13.4145 6.32737 13.9355 6.96767 13.9355ZM6.96767 12.3871C7.1811 12.3871 7.35476 12.5608 7.35476 12.7742C7.35476 12.9876 7.1811 13.1613 6.96767 13.1613C6.75423 13.1613 6.58058 12.9876 6.58058 12.7742C6.58058 12.5608 6.75423 12.3871 6.96767 12.3871Z" fill="black"/>
<path d="M11.9998 6.96784C13.4939 6.96784 14.7094 5.75233 14.7094 4.25821C14.7094 2.76409 13.4939 1.54858 11.9998 1.54858C10.5057 1.54858 9.29016 2.76409 9.29016 4.25821C9.29016 5.75233 10.5057 6.96784 11.9998 6.96784ZM11.9998 2.32276C13.067 2.32276 13.9352 3.19101 13.9352 4.25821C13.9352 5.32542 13.067 6.19366 11.9998 6.19366C10.9326 6.19366 10.0643 5.32542 10.0643 4.25821C10.0643 3.19101 10.9326 2.32276 11.9998 2.32276Z" fill="black"/>
</svg>
