<svg width="264" height="384" viewBox="0 0 264 384" fill="none" xmlns="http://www.w3.org/2000/svg">
<path d="M6.51555 367.578C6.7277 364.064 7.32824 357.828 8.90658 357.96C10.9988 358.135 10.0669 364.392 9.77831 365.183C10.0888 364.695 11.7097 362.543 12.6156 363.014C13.2147 363.326 12.6282 364.784 12.0054 365.992C25.059 362.826 47.4983 360.73 72.9956 360.717C98.1652 360.704 120.36 362.724 133.485 365.808C134.077 363.118 135.011 359.934 136.077 360.257C137.894 360.809 136.607 364.187 136.607 364.187C136.607 364.187 142.208 354.835 143.571 356.122C144.933 357.408 141.073 367.047 141.073 367.047C141.073 367.047 144.403 363.198 145.16 364.188C145.677 364.863 143.759 367.283 142.49 368.75C144.765 369.875 145.999 371.074 146 372.321C146.002 378.751 113.32 383.98 73.0038 384C32.6872 384.02 0.00227851 378.825 -2.74124e-06 372.395C-0.000858212 370.678 2.33087 369.047 6.51555 367.578Z" fill="#A5C74A"/>
<path d="M127.39 174.452H135.077V215.04H127.39V174.452Z" fill="#6E3D1E"/>
<path d="M127.39 26.7627H135.077V67.3502H127.39V26.7627Z" fill="#6E3D1E"/>
<path d="M226.085 174.452H233.772V215.04H226.085V174.452Z" fill="#6E3D1E"/>
<path d="M226.085 26.7627H233.772V67.3502H226.085V26.7627Z" fill="#6E3D1E"/>
<path d="M248.53 242.707L243.611 229.484L247.149 219.035L243.154 209.196L247.149 201.971L171.361 196.281H115.707V232.868L118.555 272.532L129.392 278.296L121.317 282.678L161.905 289.133H249.763V268.074L244.843 254.852L248.53 242.707Z" fill="#6E3D1E"/>
<path d="M248.53 95.0177L243.611 81.7949L247.149 71.3452L243.154 61.5065L247.149 54.2815L171.361 48.5918H115.707V85.179L118.555 124.842L129.392 130.606L121.317 134.989L161.905 141.444H249.763V120.385L244.843 107.162L248.53 95.0177Z" fill="#6E3D1E"/>
<path d="M256.526 242.707L251.607 229.484L255.145 219.035L251.145 209.196L255.145 201.971L179.352 196.281H123.703V232.868L126.545 272.532L137.383 278.296L129.313 282.678L169.901 289.133H257.759V268.074L252.839 254.852L256.526 242.707Z" fill="#834A27"/>
<path d="M256.526 95.0177L251.607 81.7949L255.145 71.3452L251.145 61.5065L255.145 54.2815L179.352 48.5918H123.703V85.179L126.545 124.842L137.383 130.606L129.313 134.989L169.901 141.444H257.759V120.385L252.839 107.162L256.526 95.0177Z" fill="#834A27"/>
<path d="M251.144 209.196H220.13L255.145 219.035L251.144 209.196Z" fill="#6E3D1E"/>
<path d="M251.144 61.5068H220.13L255.145 71.3456L251.144 61.5068Z" fill="#6E3D1E"/>
<path d="M256.526 242.708L225.203 243.478L254.815 248.35L256.526 242.708Z" fill="#6E3D1E"/>
<path d="M256.526 95.0186L225.203 95.7889L254.815 100.66L256.526 95.0186Z" fill="#6E3D1E"/>
<path d="M257.759 268.075L237.465 270.689L255.756 274.684L257.759 289.134V268.075Z" fill="#6E3D1E"/>
<path d="M257.759 120.386L237.465 122.999L255.756 126.994L257.759 141.444V120.386Z" fill="#6E3D1E"/>
<path d="M119.092 211.04L152.141 213.617L121.243 217.033L119.092 211.04Z" fill="#6E3D1E"/>
<path d="M119.092 63.3506L152.141 65.9272L121.243 69.3431L119.092 63.3506Z" fill="#6E3D1E"/>
<path d="M56.4521 0H93.4521V371L75 373.5L56.4521 371V0Z" fill="#834A27"/>
<path d="M38.0762 163.689H260.835V185.21H38.0762V163.689Z" fill="#834A27"/>
<path d="M38.0762 16H260.835V37.5209H38.0762V16Z" fill="#834A27"/>
<path d="M260.829 185.216C262.528 185.216 263.905 180.397 263.905 174.453C263.905 168.508 262.528 163.689 260.829 163.689C259.13 163.689 257.753 168.508 257.753 174.453C257.753 180.397 259.13 185.216 260.829 185.216Z" fill="#834A27"/>
<path d="M38.0759 185.216C39.7747 185.216 41.1519 180.397 41.1519 174.453C41.1519 168.508 39.7747 163.689 38.0759 163.689C36.3771 163.689 35 168.508 35 174.453C35 180.397 36.3771 185.216 38.0759 185.216Z" fill="#834A27"/>
<path d="M38.0759 37.5262C39.7747 37.5262 41.1519 32.7074 41.1519 26.7631C41.1519 20.8188 39.7747 16 38.0759 16C36.3771 16 35 20.8188 35 26.7631C35 32.7074 36.3771 37.5262 38.0759 37.5262Z" fill="#834A27"/>
<path d="M56.0959 155.54H93.4534V163.689H56.0959V155.54Z" fill="#6E3D1E"/>
<path d="M56.0957 185.21H93.4532V196.281H56.0957V185.21Z" fill="#6E3D1E"/>
<path d="M56.0957 42.668H93.4532V53.7392H56.0957V42.668Z" fill="#6E3D1E"/>
<path d="M97.3452 189.47L98.864 186.88C99.4326 185.91 99.1074 184.663 98.1376 184.094L54.9224 158.756C53.9526 158.188 52.7055 158.513 52.1369 159.483L50.6181 162.073C50.0495 163.043 50.3747 164.29 51.3445 164.858L94.5597 190.197C95.5295 190.765 96.7766 190.44 97.3452 189.47Z" fill="#D7981A"/>
<path d="M97.3452 46.9283L98.864 44.338C99.4326 43.3682 99.1074 42.1211 98.1376 41.5525L54.9224 16.2142C53.9526 15.6456 52.7055 15.9708 52.1369 16.9406L50.6181 19.5309C50.0495 20.5007 50.3747 21.7478 51.3445 22.3164L94.5597 47.6547C95.5295 48.2233 96.7766 47.8981 97.3452 46.9283Z" fill="#D7981A"/>
<path d="M99.6803 185.383L101.235 182.817C101.817 181.856 101.51 180.605 100.549 180.023L55.9905 153.027C55.0298 152.445 53.779 152.752 53.1969 153.713L51.6421 156.279C51.06 157.24 51.367 158.491 52.3278 159.073L96.8867 186.069C97.8474 186.651 99.0982 186.344 99.6803 185.383Z" fill="#EFBD42"/>
<path d="M99.6803 42.8412L101.235 40.2748C101.817 39.314 101.51 38.0633 100.549 37.4812L55.9905 10.4853C55.0298 9.90321 53.779 10.2102 53.1969 11.171L51.6421 13.7373C51.06 14.6981 51.367 15.9489 52.3278 16.5309L96.8867 43.5268C97.8474 44.1089 99.0982 43.8019 99.6803 42.8412Z" fill="#EFBD42"/>
<path d="M100.516 160.354L98.8233 157.875C98.1896 156.947 96.9233 156.708 95.9951 157.342L54.6327 185.585C53.7045 186.218 53.4658 187.485 54.0996 188.413L55.7925 190.892C56.4262 191.82 57.6925 192.059 58.6207 191.425L99.9831 163.182C100.911 162.549 101.15 161.282 100.516 160.354Z" fill="#D7981A"/>
<path d="M100.516 17.8123L98.8233 15.333C98.1896 14.4048 96.9233 14.1661 95.9951 14.7999L54.6327 43.0426C53.7045 43.6763 53.4658 44.9426 54.0996 45.8708L55.7925 48.3501C56.4262 49.2783 57.6925 49.5169 58.6207 48.8832L99.9831 20.6405C100.911 20.0067 101.15 18.7405 100.516 17.8123Z" fill="#D7981A"/>
<path d="M99.186 154.662L97.4571 152.206C96.8099 151.287 95.54 151.067 94.6208 151.714L51.9902 181.733C51.071 182.38 50.8505 183.65 51.4978 184.569L53.2267 187.024C53.874 187.943 55.1439 188.164 56.0631 187.517L98.6936 157.498C99.6129 156.851 99.8333 155.581 99.186 154.662Z" fill="#EFBD42"/>
<path d="M99.186 12.1197L97.4571 9.66438C96.8099 8.74517 95.54 8.52471 94.6208 9.17198L51.9902 39.1906C51.071 39.8378 50.8505 41.1077 51.4978 42.0269L53.2267 44.4822C53.874 45.4014 55.1439 45.6219 56.0631 44.9746L98.6936 14.956C99.6129 14.3087 99.8333 13.0389 99.186 12.1197Z" fill="#EFBD42"/>
<path d="M86.3879 290.69C84.4541 290.69 84.4541 200.378 86.3879 200.378C88.3216 200.378 88.3163 290.69 86.3879 290.69Z" fill="#6E3D1E"/>
<path d="M74.7697 334.295C72.8359 334.295 72.8412 243.982 74.7697 243.982C76.6981 243.982 76.7034 334.295 74.7697 334.295Z" fill="#6E3D1E"/>
<path d="M60.8825 354.445C61.7803 354.445 62.5081 331.911 62.5081 304.115C62.5081 276.318 61.7803 253.784 60.8825 253.784C59.9847 253.784 59.2569 276.318 59.2569 304.115C59.2569 331.911 59.9847 354.445 60.8825 354.445Z" fill="#6E3D1E"/>
<path d="M212.49 168.97C212.49 170.744 102.245 170.739 102.245 168.97C102.245 167.201 212.49 167.201 212.49 168.97Z" fill="#6E3D1E"/>
<path d="M212.49 21.2807C212.49 23.055 102.245 23.0497 102.245 21.2807C102.245 19.5116 212.49 19.5116 212.49 21.2807Z" fill="#6E3D1E"/>
<path d="M256.526 178.75C256.526 180.525 146.281 180.519 146.281 178.75C146.281 176.981 256.526 176.976 256.526 178.75Z" fill="#6E3D1E"/>
<path d="M256.526 31.061C256.526 32.8353 146.281 32.83 146.281 31.061C146.281 29.2919 256.526 29.2866 256.526 31.061Z" fill="#6E3D1E"/>
</svg>
