<svg width="20" height="20" viewBox="0 0 20 20" fill="none" xmlns="http://www.w3.org/2000/svg">
<g clip-path="url(#clip0_402_790)">
<path d="M2.92535 2.92632C6.82658 -0.975283 13.1738 -0.975282 17.0743 2.92538C20.9755 6.82604 20.9751 13.1734 17.0739 17.0749C13.1738 20.9753 6.82658 20.9753 2.92573 17.0741C-0.975118 13.1734 -0.974929 6.82641 2.92535 2.92632ZM4.01701 15.9832C7.31593 19.2821 12.6839 19.2825 15.983 15.9836C19.2827 12.6841 19.2823 7.31557 15.983 4.01666C12.6841 0.717926 7.3163 0.717549 4.01663 4.01703C0.717713 7.31595 0.71809 12.6845 4.01701 15.9832ZM13.7318 7.29238C13.7318 6.6467 13.2081 6.12303 12.5624 6.12303C11.917 6.12303 11.3933 6.64651 11.3933 7.29238C11.3933 7.93844 11.917 8.46192 12.5624 8.46192C13.2081 8.46192 13.7318 7.93844 13.7318 7.29238ZM8.42965 7.29238C8.42965 6.6467 7.9056 6.12303 7.25992 6.12303C6.61443 6.12303 6.09076 6.64651 6.09076 7.29238C6.09076 7.93844 6.61424 8.46192 7.25992 8.46192C7.9056 8.46192 8.42965 7.93844 8.42965 7.29238ZM5.66515 12.0816C6.38984 13.7575 8.08701 14.8403 9.98859 14.8403C11.9311 14.8403 13.6383 13.752 14.3379 12.0676C14.4578 11.7793 14.3211 11.4482 14.0324 11.3282C13.9615 11.299 13.8879 11.2851 13.8155 11.2851C13.5938 11.2851 13.3833 11.4161 13.293 11.6339C12.7693 12.8947 11.4723 13.709 9.98859 13.709C8.53845 13.709 7.24898 12.8942 6.70363 11.6326C6.57954 11.3458 6.24652 11.2136 5.95989 11.3379C5.67326 11.4621 5.54107 11.795 5.66515 12.0816Z" fill="#777777"/>
</g>
<defs>
<clipPath id="clip0_402_790">
<rect width="20" height="20" fill="white" transform="matrix(-1 0 0 1 20 0)"/>
</clipPath>
</defs>
</svg>
