<svg width="33" height="13" viewBox="0 0 33 13" fill="none" xmlns="http://www.w3.org/2000/svg">
<path d="M31.4585 7.2404H0.935463C0.572386 7.2404 0.279053 6.94706 0.279053 6.58399C0.279053 6.22091 0.572386 5.92758 0.935463 5.92758H29.8729L25.8893 1.94399C25.6329 1.68758 25.6329 1.27117 25.8893 1.01476C26.1457 0.758346 26.5621 0.758346 26.8185 1.01476L31.9242 6.1204C32.1129 6.30912 32.1683 6.59014 32.0657 6.83629C31.9632 7.0804 31.7232 7.2404 31.4585 7.2404Z" fill="white"/>
<path d="M26.3468 12.3522C26.1786 12.3522 26.0104 12.2886 25.8832 12.1594C25.6268 11.9029 25.6268 11.4865 25.8832 11.2301L30.995 6.11833C31.2514 5.86192 31.6678 5.86192 31.9243 6.11833C32.1807 6.37474 32.1807 6.79115 31.9243 7.04756L26.8125 12.1594C26.6832 12.2886 26.515 12.3522 26.3468 12.3522Z" fill="white"/>
</svg>
