<svg width="47" height="25" viewBox="0 0 47 25" fill="none" xmlns="http://www.w3.org/2000/svg">
<path fill-rule="evenodd" clip-rule="evenodd" d="M5.46535 0C2.44693 0 0 2.44693 0 5.46535V18.886C0 21.9045 2.44693 24.3513 5.46535 24.3513H36.4863C39.5048 24.3513 41.9516 21.9045 41.9516 18.886V5.46535C41.9516 2.44693 39.5048 0 36.4863 0H5.46535ZM36.4863 2.73267H5.46535C3.95609 2.73267 2.73267 3.95618 2.73267 5.46535V18.886C2.73267 20.3952 3.95609 21.6186 5.46535 21.6186H36.4863C37.9955 21.6186 39.219 20.3952 39.219 18.886V5.46535C39.219 3.95618 37.9955 2.73267 36.4863 2.73267Z" fill="url(#paint0_linear_602_34)"/>
<path d="M46.094 7.40979C46.094 6.65521 45.4822 6.04346 44.7277 6.04346C43.9731 6.04346 43.3613 6.65521 43.3613 7.40979V16.942C43.3613 17.6966 43.9731 18.3083 44.7277 18.3083C45.4822 18.3083 46.094 17.6966 46.094 16.942V7.40979Z" fill="url(#paint1_linear_602_34)"/>
<g clip-path="url(#clip0_602_34)">
<path d="M25.7929 20.4498L20.5 15.1568L15.2071 20.4498C14.4734 21.1834 13.2839 21.1834 12.5502 20.4498C11.8166 19.7161 11.8166 18.5266 12.5502 17.7929L17.8432 12.5L12.5502 7.20713C11.8166 6.47341 11.8166 5.28392 12.5502 4.55019C13.2839 3.8166 14.4734 3.8166 15.2071 4.55019L20.5 9.84319L25.7929 4.55019C26.5266 3.8166 27.7161 3.8166 28.4498 4.55019C29.1834 5.28392 29.1834 6.47341 28.4498 7.20713L23.1568 12.5L28.4498 17.7929C29.1834 18.5266 29.1834 19.7161 28.4498 20.4498C27.7161 21.1834 26.5266 21.1834 25.7929 20.4498Z" fill="#FA3602"/>
</g>
<defs>
<linearGradient id="paint0_linear_602_34" x1="46.094" y1="24.3509" x2="25.9788" y2="-13.7243" gradientUnits="userSpaceOnUse">
<stop stop-color="#FF3D00"/>
<stop offset="1" stop-color="#DD0D0D"/>
</linearGradient>
<linearGradient id="paint1_linear_602_34" x1="46.3638" y1="18.3082" x2="40.6985" y2="16.9213" gradientUnits="userSpaceOnUse">
<stop stop-color="#FF3D00"/>
<stop offset="1" stop-color="#DD0D0D"/>
</linearGradient>
<clipPath id="clip0_602_34">
<rect width="17" height="17" fill="white" transform="translate(12 4)"/>
</clipPath>
</defs>
</svg>
