<svg width="95" height="95" viewBox="0 0 95 95" fill="none" xmlns="http://www.w3.org/2000/svg">
<path d="M21.3847 0.0013587C20.2687 0.0346175 19.2095 0.501175 18.4315 1.30194L1.24924 18.4844C0.44911 19.2893 0 20.3782 0 21.5132C0 22.6481 0.44911 23.737 1.24924 24.5419L18.4315 41.7323C19.2397 42.5376 20.3344 42.9893 21.4753 42.9883C22.6162 42.9873 23.7101 42.5336 24.5168 41.7269C25.3236 40.9201 25.7773 39.8262 25.7783 38.6852C25.7794 37.5443 25.3277 36.4494 24.5224 35.6412L14.698 25.8172H81.6315V38.9721C81.5782 39.5663 81.6491 40.1653 81.8399 40.7305C82.0307 41.2957 82.3371 41.8147 82.7396 42.255C83.1421 42.6953 83.6319 43.047 84.1778 43.2876C84.7237 43.5281 85.3137 43.6527 85.9103 43.6527C86.5068 43.6527 87.0968 43.5281 87.6427 43.2876C88.1886 43.047 88.6785 42.6953 89.081 42.255C89.4835 41.8147 89.7899 41.2957 89.9807 40.7305C90.1714 40.1653 90.2424 39.5663 90.189 38.9721V25.8172C90.189 21.1321 86.3167 17.2175 81.6315 17.2175H14.6561L24.5224 7.35941C25.1382 6.75404 25.5573 5.97746 25.725 5.13034C25.8927 4.28323 25.8012 3.40528 25.4625 2.61094C25.1237 1.8166 24.5535 1.14256 23.826 0.677164C23.0986 0.211771 22.2478 -0.0240011 21.3847 0.0013587ZM72.9733 51.5315C72.1184 51.5333 71.2836 51.7902 70.5755 52.2692C69.8674 52.7482 69.3184 53.4276 68.9985 54.2203C68.6787 55.0131 68.6027 55.8832 68.7802 56.7194C68.9577 57.5557 69.3806 58.3198 69.9949 58.9143L79.8529 68.7809H12.8858V56.003C12.8925 55.4304 12.7847 54.8626 12.5687 54.3323C12.3526 53.802 12.0328 53.3202 11.6279 52.9153C11.223 52.5104 10.7412 52.1905 10.2109 51.9744C9.68063 51.7584 9.1125 51.6506 8.53992 51.6573C7.40066 51.6707 6.31338 52.1359 5.51725 52.951C4.72113 53.766 4.28136 54.8637 4.29471 56.003V68.7809C4.29471 73.466 8.20066 77.3384 12.8858 77.3384H79.8529L69.9949 87.2045C69.5675 87.5957 69.2237 88.0692 68.9841 88.5967C68.7445 89.1242 68.6141 89.6951 68.6007 90.2743C68.5873 90.8536 68.6912 91.4293 68.9061 91.9673C69.1211 92.5053 69.4426 92.9946 69.8515 93.4051C70.2603 93.8157 70.7479 94.1392 71.2851 94.3564C71.8222 94.5736 72.3977 94.6796 72.977 94.6686C73.5563 94.6576 74.1273 94.5299 74.6558 94.2925C75.1843 94.0551 75.6594 93.713 76.0523 93.2872L93.2346 76.1047C93.6358 75.7055 93.9542 75.2312 94.1714 74.7085C94.3887 74.1859 94.5005 73.6256 94.5005 73.0596C94.5005 72.4937 94.3887 71.9334 94.1714 71.4108C93.9542 70.8881 93.6358 70.4133 93.2346 70.0141L76.0523 52.8321C75.652 52.4206 75.1733 52.0932 74.6445 51.8699C74.1156 51.6465 73.5473 51.5315 72.9733 51.5315Z" fill="#6D87F7"/>
</svg>
