<svg width="36" height="29" viewBox="0 0 36 29" fill="none" xmlns="http://www.w3.org/2000/svg">
<path d="M12.875 28.8125H12.8073C12.4346 28.8021 12.0685 28.7108 11.7346 28.5448C11.4006 28.3789 11.1067 28.1424 10.8732 27.8516L0.623168 15.0391C0.412848 14.7762 0.25637 14.4744 0.162667 14.1511C0.0689643 13.8277 0.0398718 13.489 0.0770515 13.1544C0.114231 12.8198 0.216954 12.4958 0.379356 12.2009C0.541758 11.9059 0.760658 11.6459 1.02356 11.4356C1.28646 11.2253 1.58821 11.0688 1.91159 10.9751C2.23496 10.8814 2.57362 10.8523 2.90824 10.8895C3.24286 10.9266 3.56688 11.0294 3.86179 11.1918C4.15671 11.3542 4.41675 11.5731 4.62707 11.836L12.9775 22.2761L31.4605 1.48578C31.6808 1.22329 31.9515 1.00764 32.2565 0.851586C32.5616 0.695535 32.8949 0.602254 33.2366 0.57726C33.5784 0.552267 33.9217 0.596068 34.2462 0.706075C34.5707 0.816082 34.8699 0.990058 35.126 1.21771C35.3821 1.44537 35.5899 1.72207 35.7372 2.03146C35.8845 2.34085 35.9683 2.67664 35.9835 3.01896C35.9987 3.36129 35.9452 3.70319 35.826 4.02444C35.7067 4.3457 35.5243 4.63978 35.2894 4.88929L14.7894 27.9518C14.5493 28.2224 14.2545 28.4391 13.9245 28.5874C13.5945 28.7358 13.2368 28.8125 12.875 28.8125Z" fill="#F2F2F2"/>
</svg>
