<svg width="26" height="26" viewBox="0 0 26 26" fill="none" xmlns="http://www.w3.org/2000/svg">
<path d="M13.7961 13.838L13.7961 24.837C13.7998 24.944 13.782 25.0506 13.7437 25.1505C13.7054 25.2504 13.6473 25.3416 13.573 25.4186C13.4987 25.4956 13.4096 25.5568 13.3111 25.5987C13.2126 25.6405 13.1067 25.662 12.9997 25.662C12.8927 25.662 12.7868 25.6405 12.6882 25.5987C12.5897 25.5568 12.5007 25.4956 12.4264 25.4186C12.352 25.3416 12.294 25.2504 12.2557 25.1505C12.2173 25.0506 12.1995 24.944 12.2033 24.8371L12.2033 13.838L1.20426 13.838C0.997909 13.8307 0.802443 13.7436 0.65904 13.5951C0.515637 13.4465 0.435493 13.2481 0.435493 13.0416C0.435493 12.8351 0.515637 12.6367 0.65904 12.4882C0.802443 12.3396 0.997909 12.2525 1.20426 12.2452L12.2033 12.2452L12.2033 1.2462C12.1995 1.13925 12.2173 1.03264 12.2557 0.932728C12.294 0.832811 12.352 0.741635 12.4264 0.664642C12.5007 0.58765 12.5897 0.526416 12.6882 0.484593C12.7868 0.442771 12.8927 0.421215 12.9997 0.421215C13.1067 0.421216 13.2126 0.44277 13.3111 0.484592C13.4096 0.526415 13.4987 0.58765 13.573 0.664643C13.6473 0.741636 13.7054 0.83281 13.7437 0.932726C13.782 1.03264 13.7998 1.13926 13.7961 1.2462L13.7961 12.2452H24.7951C24.9021 12.2415 25.0087 12.2593 25.1086 12.2976C25.2085 12.3359 25.2997 12.394 25.3767 12.4683C25.4537 12.5426 25.5149 12.6317 25.5567 12.7302C25.5985 12.8287 25.6201 12.9346 25.6201 13.0416C25.6201 13.1486 25.5985 13.2546 25.5567 13.3531C25.5149 13.4516 25.4537 13.5406 25.3767 13.615C25.2997 13.6893 25.2085 13.7473 25.1086 13.7857C25.0087 13.824 24.9021 13.8418 24.7951 13.838H13.7961Z" fill="white"/>
</svg>
