<svg width="114" height="114" viewBox="0 0 114 114" fill="none" xmlns="http://www.w3.org/2000/svg">
<g clip-path="url(#clip0_955_1243)">
<path d="M90.0664 90.1997C108.299 71.9672 108.299 42.4064 90.0664 24.1738C71.8339 5.94128 42.2731 5.94128 24.0405 24.1738C5.80799 42.4064 5.80799 71.9672 24.0405 90.1997C42.2731 108.432 71.8339 108.432 90.0664 90.1997Z" fill="#FE646F"/>
<path fill-rule="evenodd" clip-rule="evenodd" d="M57.0659 71.2753C56.0298 71.2753 55.1431 70.3911 54.9633 69.1751L49.6635 33.4298C48.9972 28.9281 51.9055 24.8013 55.7435 24.8013H58.3858C62.2238 24.8013 65.1321 28.9281 64.4658 33.4298L59.1661 69.1751C58.9887 70.3911 58.102 71.2753 57.0659 71.2753Z" fill="white"/>
<path fill-rule="evenodd" clip-rule="evenodd" d="M61.9148 84.7221C61.9148 82.052 59.7361 79.8733 57.066 79.8733C54.3958 79.8733 52.2172 82.052 52.2172 84.7221C52.2172 87.3922 54.3958 89.5709 57.066 89.5709C59.7361 89.5709 61.9148 87.3948 61.9148 84.7221Z" fill="white"/>
</g>
<defs>
<clipPath id="clip0_955_1243">
<rect width="114" height="114" fill="white"/>
</clipPath>
</defs>
</svg>
