<svg width="60" height="60" viewBox="0 0 60 60" fill="none" xmlns="http://www.w3.org/2000/svg">
<g clip-path="url(#clip0_1_1688)">
<path d="M30 60C46.5685 60 60 46.5685 60 30C60 13.4315 46.5685 0 30 0C13.4315 0 0 13.4315 0 30C0 46.5685 13.4315 60 30 60Z" fill="#5C5560"/>
<path d="M30 60C46.5685 60 60 46.5685 60 30C60 13.4315 46.5685 0 30 0C13.4315 0 0 13.4315 0 30C0 46.5685 13.4315 60 30 60Z" fill="#EEEEEE"/>
<path d="M55.8965 25.0761H44.8786H30.5792V35.5031H44.673C43.4044 38.8889 40.996 41.7173 37.9143 43.5246C35.5929 44.8874 32.8877 45.668 29.9999 45.668C23.2818 45.668 17.5512 41.4391 15.3254 35.4987C14.6824 33.7883 14.332 31.9346 14.332 29.9999C14.332 28.2171 14.6302 26.5039 15.1777 24.9081C17.292 18.7547 23.1298 14.3319 29.9999 14.3319C33.0426 14.3319 35.8825 15.1993 38.2851 16.7012L46.8237 9.71074C42.2589 5.92089 36.3952 3.64288 29.9999 3.64288C19.8134 3.64288 10.9765 9.42117 6.58985 17.8787C4.70571 21.5078 3.64282 25.6293 3.64282 30C3.64282 34.5198 4.77966 38.7731 6.78403 42.4907C11.2358 50.7468 19.9626 56.3571 29.9999 56.3571C36.2459 56.3571 41.9838 54.1849 46.5006 50.5542C51.145 46.8207 54.4975 41.5451 55.7807 35.5031C56.1588 33.7276 56.357 31.8869 56.357 30C56.357 28.3172 56.1992 26.6706 55.8965 25.0761Z" fill="#FBBB00"/>
<path d="M46.4994 50.5528L46.5009 50.5543C41.9839 54.1849 36.2462 56.3571 30.0001 56.3571C19.9627 56.3571 11.2359 50.7469 6.78418 42.4907L15.3256 35.4988C17.5515 41.4392 23.282 45.6681 30.0002 45.6681C32.8879 45.6681 35.5932 44.8875 37.9146 43.5247L46.4994 50.5528Z" fill="#28B446"/>
<path d="M55.8965 25.0761C56.1992 26.6706 56.3571 28.3172 56.3571 30C56.3571 31.887 56.1587 33.7276 55.7807 35.5031C54.4977 41.545 51.145 46.8208 46.5007 50.5542L46.4991 50.5527L37.9142 43.5246C40.996 41.7172 43.4043 38.8889 44.6729 35.5031H30.5791V25.0761H44.8787H55.8965Z" fill="#518EF8"/>
<path d="M46.8236 9.71085L38.2851 16.7013C35.8825 15.1994 33.0427 14.332 29.9999 14.332C23.1297 14.332 17.292 18.7548 15.1777 24.9082L6.59137 17.8787H6.58984C10.9765 9.42117 19.8133 3.64288 29.9999 3.64288C36.3952 3.64288 42.2589 5.92089 46.8236 9.71085Z" fill="#FC3F1D"/>
</g>
<defs>
<clipPath id="clip0_1_1688">
<rect width="60" height="60" fill="white"/>
</clipPath>
</defs>
</svg>
