<svg width="40" height="40" viewBox="0 0 40 40" fill="none" xmlns="http://www.w3.org/2000/svg">
<path d="M14.5686 15.3064C15.8157 18.2242 19.6075 19.6679 22.4677 18.258C26.2914 16.7028 27.1633 11.0893 24.0643 8.44759C19.337 4.04108 11.881 9.39286 14.5686 15.3064Z" fill="#14D15D"/>
<path d="M26.5081 21.258C25.31 20.4966 23.8509 20.0869 22.371 20.0726C22.1951 20.0677 17.1895 20.0572 17.1936 20.0967C13.0932 20.2862 9.76517 23.75 9.76617 27.9355C9.83574 28.6285 9.65318 30.7342 9.87512 31.383C10.3105 33.2459 11.992 34.6491 14 34.6491H26.0001C28.3554 34.6591 30.257 32.6923 30.2339 30.4153V27.9354C30.2226 25.1372 28.7591 22.638 26.5081 21.258Z" fill="#14D15D"/>
<path d="M5.30235 31.383H8.03626C7.88016 30.7504 7.97706 28.4392 7.95157 27.754C8.04175 23.499 10.8752 19.8579 14.8589 18.6572C14.5001 18.3727 14.1851 17.9928 13.8911 17.6532C13.6129 17.6169 13.3589 17.6047 13.0807 17.6047H8.66531C4.57665 17.6047 1.25 20.9314 1.25 25.02V27.3306C1.25 29.5685 3.0645 31.383 5.30235 31.383Z" fill="#14D15D"/>
<path d="M10.879 16.6975C11.6411 16.6975 12.3548 16.5524 13.0201 16.2741C12.467 15.1619 12.1522 13.858 12.2217 12.5484C12.2851 10.4099 13.2759 8.3645 14.8588 6.98389C11.4601 3.47001 5.08625 6.07095 5.1936 11.0244C5.19352 14.1451 7.74594 16.6975 10.879 16.6975Z" fill="#14D15D"/>
<path d="M31.3347 17.6047H26.9193C26.0503 17.4194 25.7266 18.182 25.1411 18.6574C26.7621 19.1411 28.2017 20.0362 29.3387 21.2337C30.9717 22.9274 31.9999 25.2257 32.0484 27.754C32.0238 28.4477 32.1177 30.728 31.9637 31.3829C31.9637 31.383 34.6976 31.383 34.6976 31.383C36.9355 31.383 38.75 29.5685 38.75 27.3306V25.0201C38.75 20.9314 35.4233 17.6047 31.3347 17.6047Z" fill="#14D15D"/>
<path d="M27.2944 10.117C27.6213 10.9572 27.7798 11.8877 27.7903 12.8266C27.7903 14.0604 27.5 15.2338 26.9798 16.2741C27.6452 16.5524 28.3588 16.6975 29.1209 16.6975C36.6346 16.4531 36.632 5.5864 29.1208 5.3508C27.5725 5.3508 26.1693 5.97976 25.1411 6.98387C26.0967 7.81852 26.8468 8.89519 27.2944 10.117Z" fill="#14D15D"/>
</svg>
