<svg width="30" height="30" viewBox="0 0 30 30" fill="none" xmlns="http://www.w3.org/2000/svg">
<g clip-path="url(#clip0_1_1641)">
<path d="M22.5658 4.41673C21.7443 4.41673 20.9716 4.73671 20.3907 5.31761C19.1914 6.51695 19.1914 8.46863 20.3907 9.66797C20.9716 10.2489 21.7443 10.5691 22.5658 10.5691C23.3875 10.5691 24.1599 10.2489 24.7411 9.66797C25.9404 8.46863 25.9404 6.51695 24.7411 5.31761C24.1599 4.73671 23.3875 4.41673 22.5658 4.41673ZM23.498 8.42491C23.249 8.67393 22.918 8.81126 22.5658 8.81126C22.2138 8.81126 21.8828 8.67393 21.6338 8.42491C21.1197 7.91107 21.1197 7.07451 21.6338 6.56067C21.8828 6.31165 22.2138 6.17455 22.5658 6.17455C22.918 6.17455 23.249 6.31165 23.498 6.56067C24.0121 7.07451 24.0121 7.91107 23.498 8.42491Z" fill="#DCD6FF"/>
<path d="M27.2269 2.83173C25.4008 1.00571 22.9731 0 20.3906 0C17.8082 0 15.3804 1.00571 13.5544 2.83173C12.4608 3.92509 11.6663 5.22079 11.1932 6.68266C10.7879 7.93488 10.6425 9.27681 10.7671 10.591L8.52333 12.8348L9.76616 14.0776L0.0585938 23.7852V30H6.27342L15.981 20.2924L17.2238 21.5353L19.4675 19.2918C19.7745 19.3211 20.0835 19.3357 20.3909 19.3357C22.9731 19.3357 25.4011 18.33 27.2269 16.5042C30.9966 12.7348 30.9966 6.60118 27.2269 2.83173ZM5.54535 28.2422H3.05946L11.0092 20.2924L12.252 21.5353L5.54535 28.2422ZM13.4951 20.2924L11.0092 17.8065L1.81641 26.9991V24.5132L11.0092 15.3204L14.7379 19.0494L13.4951 20.2924ZM25.984 15.2614C24.4901 16.7553 22.5037 17.5779 20.3909 17.5779C20.0173 17.5779 19.6406 17.5513 19.2712 17.4987L18.8365 17.4369L17.2238 19.0494L11.0092 12.8348L12.6215 11.2221L12.5597 10.7874C12.2058 8.2972 13.0213 5.85045 14.7972 4.07455C16.2914 2.58064 18.2778 1.75781 20.3906 1.75781C22.5034 1.75781 24.4899 2.58064 25.984 4.07455C29.068 7.15874 29.068 12.1772 25.984 15.2614Z" fill="#DCD6FF"/>
</g>
<defs>
<clipPath id="clip0_1_1641">
<rect width="30" height="30" fill="white"/>
</clipPath>
</defs>
</svg>
