<svg width="22" height="22" viewBox="0 0 22 22" fill="none" xmlns="http://www.w3.org/2000/svg">
<g clip-path="url(#clip0_1_1713)">
<path d="M11 21.3125C11.3173 21.3123 11.6297 21.2338 11.9094 21.0838C12.1891 20.9339 12.4274 20.7173 12.6033 20.4531L13.0845 19.7313C13.1839 19.583 13.3183 19.4616 13.4758 19.3776C13.6333 19.2937 13.8091 19.2499 13.9875 19.25C14.2757 19.25 14.5521 19.3645 14.7558 19.5683L15.6991 20.5116C15.844 20.6565 16.0161 20.7715 16.2055 20.85C16.3949 20.9284 16.5978 20.9688 16.8028 20.9687C17.6342 20.9687 18.4315 20.6385 19.0194 20.0506C19.6072 19.4628 19.9375 18.6655 19.9375 17.8341C19.9375 17.318 19.8102 16.8099 19.5666 16.3548C19.3231 15.8998 18.971 15.512 18.5415 15.2257L16.7626 14.0398C16.1386 13.6235 15.6249 13.062 15.2656 12.4035L15.0669 12.0392C14.6684 11.3086 14.0804 10.6988 13.3647 10.274C12.6491 9.8492 11.8322 9.62501 11 9.625C10.1678 9.62501 9.35091 9.8492 8.63527 10.274C7.91963 10.6988 7.33164 11.3086 6.9331 12.0392L6.73441 12.4035C6.37513 13.062 5.86142 13.6235 5.23738 14.0398L3.45847 15.2257C3.02902 15.512 2.6769 15.8998 2.43338 16.3548C2.18985 16.8099 2.06245 17.318 2.0625 17.8341C2.0625 18.6655 2.39276 19.4628 2.98062 20.0506C3.56848 20.6385 4.3658 20.9687 5.19716 20.9687C5.40215 20.9688 5.60515 20.9284 5.79454 20.85C5.98393 20.7715 6.15601 20.6565 6.30094 20.5116L7.24419 19.5683C7.44794 19.3645 7.7243 19.25 8.01247 19.25C8.19128 19.25 8.36732 19.2942 8.52496 19.3785C8.68261 19.4629 8.817 19.5849 8.91619 19.7337L9.39744 20.4555C9.57349 20.7191 9.81184 20.9353 10.0914 21.0847C10.3709 21.2342 10.683 21.3125 11 21.3125Z" fill="#14D15D"/>
<path d="M12.0313 5.05037L12.0313 5.17928C12.0312 5.84699 12.1388 6.51034 12.3499 7.14381C12.4573 7.46595 12.6633 7.74614 12.9388 7.94467C13.2142 8.14321 13.5452 8.25003 13.8847 8.25C14.1591 8.24995 14.4289 8.18014 14.6688 8.04713C14.9088 7.91411 15.1109 7.72227 15.2563 7.48962L15.3491 7.34113C16.1013 6.1379 16.5 4.74749 16.5 3.32853C16.4999 2.72509 16.3358 2.13301 16.0253 1.61562C15.8555 1.33259 15.6154 1.09833 15.3282 0.935681C15.0411 0.77303 14.7167 0.687527 14.3866 0.6875C13.9976 0.687501 13.6179 0.806213 13.2982 1.02777C12.9785 1.24933 12.734 1.56319 12.5974 1.92741C12.223 2.92605 12.0313 3.98387 12.0313 5.05037Z" fill="#14D15D"/>
<path d="M9.96875 5.05037L9.96875 5.17928C9.96876 5.84699 9.86116 6.51034 9.65009 7.14381C9.54273 7.46595 9.33671 7.74614 9.06124 7.94467C8.78577 8.14321 8.45481 8.25003 8.11525 8.25C7.84092 8.24995 7.5711 8.18014 7.33117 8.04713C7.09124 7.91411 6.88907 7.72227 6.74369 7.48962L6.65087 7.34113C5.89875 6.1379 5.49996 4.74749 5.5 3.32853C5.50006 2.72509 5.66415 2.13301 5.97472 1.61562C6.14446 1.33259 6.3846 1.09833 6.67177 0.935681C6.95894 0.77303 7.28334 0.687527 7.61337 0.6875C8.00207 0.687851 8.38141 0.806725 8.70079 1.02826C9.02016 1.2498 9.26439 1.56347 9.40087 1.92741C9.77584 2.92594 9.9682 3.98376 9.96875 5.05037Z" fill="#14D15D"/>
<path d="M5.5 9.86287L5.5 9.99178C5.50001 10.6595 5.39241 11.3228 5.18134 11.9563C5.07398 12.2785 4.86796 12.5586 4.59249 12.7572C4.31702 12.9557 3.98606 13.0625 3.6465 13.0625C3.37217 13.0625 3.10235 12.9926 2.86242 12.8596C2.62249 12.7266 2.42032 12.5348 2.27494 12.3021L2.18212 12.1536C1.43 10.9504 1.03121 9.55999 1.03125 8.14103C1.03131 7.53759 1.1954 6.94551 1.50597 6.42812C1.67571 6.14509 1.91585 5.91083 2.20302 5.74818C2.49019 5.58553 2.81459 5.50003 3.14462 5.5C3.53332 5.50035 3.91266 5.61923 4.23204 5.84076C4.55141 6.0623 4.79564 6.37597 4.93212 6.73991C5.30709 7.73844 5.49945 8.79626 5.5 9.86287Z" fill="#14D15D"/>
<path d="M16.5 9.86287L16.5 9.99178C16.5 10.6595 16.6076 11.3228 16.8187 11.9563C16.926 12.2785 17.132 12.5586 17.4075 12.7572C17.683 12.9557 18.0139 13.0625 18.3535 13.0625C18.6278 13.0625 18.8977 12.9926 19.1376 12.8596C19.3775 12.7266 19.5797 12.5348 19.7251 12.3021L19.8179 12.1536C20.57 10.9504 20.9688 9.55999 20.9687 8.14103C20.9687 7.53759 20.8046 6.94551 20.494 6.42813C20.3243 6.14509 20.0841 5.91083 19.797 5.74818C19.5098 5.58553 19.1854 5.50003 18.8554 5.5C18.4664 5.5 18.0867 5.61871 17.767 5.84027C17.4472 6.06183 17.2027 6.37569 17.0662 6.73991C16.6918 7.73855 16.5 8.79636 16.5 9.86287Z" fill="#14D15D"/>
</g>
<defs>
<clipPath id="clip0_1_1713">
<rect width="22" height="22" fill="white" transform="matrix(-1 -8.74228e-08 -8.74228e-08 1 22 0)"/>
</clipPath>
</defs>
</svg>
