<svg width="30" height="30" viewBox="0 0 30 30" fill="none" xmlns="http://www.w3.org/2000/svg">
<path d="M15 29.0625C15.4327 29.0622 15.8587 28.9551 16.2401 28.7507C16.6215 28.5463 16.9465 28.2508 17.1862 27.8906L17.8425 26.9062C17.978 26.7041 18.1613 26.5385 18.3761 26.424C18.5909 26.3096 18.8305 26.2498 19.0739 26.25C19.4669 26.25 19.8437 26.4062 20.1216 26.6841L21.4078 27.9703C21.6054 28.168 21.8401 28.3248 22.0984 28.4318C22.3566 28.5388 22.6334 28.5938 22.913 28.5937C24.0466 28.5937 25.1339 28.1434 25.9355 27.3418C26.7371 26.5401 27.1875 25.4529 27.1875 24.3192C27.1876 23.6154 27.0138 22.9226 26.6818 22.3021C26.3497 21.6816 25.8695 21.1527 25.2839 20.7623L22.8581 19.1452C22.0072 18.5775 21.3066 17.8119 20.8167 16.9139L20.5458 16.417C20.0023 15.4208 19.2005 14.5893 18.2246 14.01C17.2488 13.4307 16.1349 13.125 15 13.125C13.8651 13.125 12.7512 13.4307 11.7754 14.01C10.7995 14.5893 9.99769 15.4208 9.45422 16.417L9.18328 16.9139C8.69336 17.8119 7.99285 18.5775 7.14188 19.1452L4.7161 20.7623C4.13048 21.1527 3.65032 21.6816 3.31824 22.3021C2.98616 22.9225 2.81244 23.6154 2.8125 24.3192C2.8125 25.4529 3.26285 26.5401 4.06448 27.3418C4.86611 28.1434 5.95336 28.5937 7.08703 28.5937C7.36657 28.5938 7.64338 28.5388 7.90165 28.4318C8.15991 28.3248 8.39456 28.168 8.59219 27.9703L9.87844 26.6841C10.1563 26.4062 10.5331 26.25 10.9261 26.25C11.1699 26.25 11.41 26.3102 11.6249 26.4253C11.8399 26.5403 12.0232 26.7067 12.1584 26.9095L12.8147 27.8939C13.0548 28.2534 13.3798 28.5481 13.761 28.7519C14.1422 28.9558 14.5677 29.0624 15 29.0625Z" fill="white"/>
<path d="M16.4063 6.88687L16.4063 7.06266C16.4062 7.97317 16.553 8.87774 16.8408 9.74156C16.9872 10.1808 17.2681 10.5629 17.6438 10.8336C18.0194 11.1044 18.4707 11.25 18.9338 11.25C19.3078 11.2499 19.6758 11.1547 20.003 10.9734C20.3301 10.792 20.6058 10.5304 20.8041 10.2131L20.9306 10.0106C21.9563 8.36986 22.5001 6.47385 22.5 4.53891C22.4999 3.71603 22.2762 2.90865 21.8527 2.20312C21.6212 1.81716 21.2937 1.49773 20.9021 1.27593C20.5105 1.05413 20.0682 0.937536 19.6181 0.9375C19.0877 0.937501 18.5699 1.09938 18.1339 1.40151C17.6979 1.70364 17.3645 2.13162 17.1783 2.62828C16.6678 3.99006 16.4063 5.43254 16.4063 6.88687Z" fill="white"/>
<path d="M13.5938 6.88688L13.5938 7.06266C13.5938 7.97317 13.447 8.87774 13.1592 9.74156C13.0128 10.1808 12.7319 10.5629 12.3562 10.8336C11.9806 11.1044 11.5293 11.25 11.0663 11.25C10.6922 11.2499 10.3242 11.1547 9.99705 10.9734C9.66987 10.792 9.39419 10.5304 9.19594 10.2131L9.06938 10.0106C8.04375 8.36986 7.49994 6.47385 7.5 4.53891C7.50009 3.71603 7.72384 2.90865 8.14735 2.20312C8.3788 1.81716 8.70628 1.49773 9.09787 1.27593C9.48947 1.05413 9.93183 0.937536 10.3819 0.9375C10.9119 0.937978 11.4292 1.10008 11.8647 1.40218C12.3002 1.70427 12.6333 2.132 12.8194 2.62828C13.3307 3.98992 13.593 5.4324 13.5938 6.88688Z" fill="white"/>
<path d="M7.5 13.4494L7.5 13.6252C7.50002 14.5357 7.35329 15.4402 7.06547 16.3041C6.91906 16.7433 6.63813 17.1254 6.26249 17.3961C5.88685 17.6669 5.43554 17.8125 4.9725 17.8125C4.59841 17.8124 4.23048 17.7172 3.9033 17.5359C3.57612 17.3545 3.30044 17.0929 3.10219 16.7756L2.97563 16.5731C1.95 14.9324 1.40619 13.0364 1.40625 11.1014C1.40634 10.2785 1.63009 9.47115 2.0536 8.76562C2.28505 8.37966 2.61253 8.06023 3.00412 7.83843C3.39572 7.61663 3.83808 7.50004 4.28813 7.5C4.81816 7.50048 5.33545 7.66258 5.77096 7.96468C6.20648 8.26677 6.53951 8.6945 6.72563 9.19078C7.23695 10.5524 7.49924 11.9949 7.5 13.4494Z" fill="white"/>
<path d="M22.5 13.4494L22.5 13.6252C22.5 14.5357 22.6467 15.4402 22.9345 16.3041C23.0809 16.7433 23.3619 17.1254 23.7375 17.3961C24.1132 17.6669 24.5645 17.8125 25.0275 17.8125C25.4016 17.8124 25.7695 17.7172 26.0967 17.5359C26.4239 17.3545 26.6996 17.0929 26.8978 16.7756L27.0244 16.5731C28.05 14.9324 28.5938 13.0364 28.5937 11.1014C28.5937 10.2785 28.3699 9.47115 27.9464 8.76563C27.7149 8.37966 27.3875 8.06023 26.9959 7.83843C26.6043 7.61663 26.1619 7.50004 25.7119 7.5C25.1814 7.5 24.6636 7.66188 24.2277 7.96401C23.7917 8.26614 23.4583 8.69412 23.272 9.19078C22.7615 10.5526 22.5 11.995 22.5 13.4494Z" fill="white"/>
<g clip-path="url(#clip0_202_36)">
<path d="M10.4925 19.8264L10 25.9825H12.891L12.2344 19.8264H10.4925Z" fill="#6D87F7"/>
<path d="M10.6099 18.3593L10.5394 19.2395H12.1718L12.0779 18.3593H10.6099Z" fill="#6D87F7"/>
<path d="M19.1966 20.1198L17.6252 22.0195V20.1198H16.8223L15.1658 22.111V20.1198H14.3621L13.0285 21.7387L13.2314 23.6407H14.1318V24.2275H13.294L13.4818 25.988H20V20.1198H19.1966ZM15.8922 24.2275H14.7186V23.6407H15.8922V24.2275ZM17.6527 24.2275H16.4791V23.6407H17.6527V24.2275ZM19.4132 24.2275H18.2395V23.6407H19.4132V24.2275Z" fill="#6D87F7"/>
<path d="M12.6054 17.7725L12.803 19.6245C13.1073 19.5973 13.3972 19.4813 13.6358 19.2927C13.9038 19.4488 14.211 19.5329 14.523 19.5329C15.0084 19.5329 15.4681 19.3324 15.7979 18.986C16.0089 19.0885 16.2401 19.1417 16.479 19.1417C16.8229 19.1417 17.1567 19.0271 17.4275 18.8211C17.6537 18.9661 17.9169 19.0439 18.1906 19.0439C18.9726 19.0439 19.6088 18.4077 19.6088 17.6258C19.6088 16.8438 18.9726 16.2076 18.1906 16.2076C17.9467 16.2076 17.708 16.2708 17.4976 16.3887C17.2161 16.1469 16.8569 16.012 16.479 16.012C16.136 16.012 15.8033 16.1258 15.5331 16.3307C15.2388 16.1237 14.8886 16.012 14.523 16.012C14.0167 16.012 13.5421 16.2277 13.2104 16.5993C13.0365 16.5346 12.8515 16.501 12.6647 16.501C11.9021 16.501 11.2656 17.0494 11.1278 17.7725H12.6054Z" fill="#6D87F7"/>
</g>
<defs>
<clipPath id="clip0_202_36">
<rect width="10" height="10" fill="white" transform="translate(10 16)"/>
</clipPath>
</defs>
</svg>
