<svg width="15" height="5" viewBox="0 0 15 5" fill="none" xmlns="http://www.w3.org/2000/svg">
<path d="M12.4219 0.859375C13.328 0.859375 14.0625 1.59391 14.0625 2.5C14.0625 3.40609 13.328 4.14062 12.4219 4.14062C11.5158 4.14062 10.7812 3.40609 10.7812 2.5C10.7812 1.59391 11.5158 0.859375 12.4219 0.859375Z" fill="white"/>
<path d="M7.5 0.859375C8.40609 0.859375 9.14062 1.59391 9.14062 2.5C9.14062 3.40609 8.40609 4.14062 7.5 4.14062C6.59391 4.14062 5.85938 3.40609 5.85938 2.5C5.85938 1.59391 6.59391 0.859375 7.5 0.859375Z" fill="white"/>
<path d="M2.57812 0.859375C3.48422 0.859375 4.21875 1.59391 4.21875 2.5C4.21875 3.40609 3.48422 4.14062 2.57812 4.14062C1.67203 4.14062 0.9375 3.40609 0.9375 2.5C0.9375 1.59391 1.67203 0.859375 2.57812 0.859375Z" fill="white"/>
</svg>
