<svg width="60" height="60" viewBox="0 0 60 60" fill="none" xmlns="http://www.w3.org/2000/svg">
<path d="M30 60C46.5685 60 60 46.5685 60 30C60 13.4315 46.5685 0 30 0C13.4315 0 0 13.4315 0 30C0 46.5685 13.4315 60 30 60Z" fill="#4169E1"/>
<path d="M47.291 41.7409C46.4183 41.8636 42.1501 41.7409 41.9285 41.7409C40.8252 41.755 39.7607 41.3337 38.966 40.5682C38.066 39.7023 37.2615 38.7477 36.3819 37.8409C36.1218 37.5656 35.8402 37.3114 35.5399 37.0807C34.8376 36.5386 34.1421 36.6614 33.8115 37.4898C33.5531 38.385 33.3729 39.3009 33.2728 40.2273C33.2149 41.0659 32.683 41.5909 31.7421 41.6489C31.1592 41.6795 30.5762 41.6898 30.0001 41.6761C27.9004 41.6627 25.8338 41.1522 23.9694 40.1864C21.9521 39.0623 20.1946 37.5254 18.8115 35.6761C16.5376 32.7716 14.7205 29.5807 13.0978 26.2909C13.0126 26.1273 11.349 22.5886 11.308 22.4216C11.158 21.8625 11.308 21.3273 11.7683 21.1432C12.0615 21.0307 17.5433 21.1432 17.6353 21.1432C18.0429 21.1396 18.4409 21.2659 18.7719 21.5037C19.1029 21.7415 19.3496 22.0785 19.4762 22.4659C20.4896 25.0606 21.877 27.4932 23.5944 29.6864C23.8348 29.9796 24.1161 30.2368 24.4296 30.45C24.8762 30.7534 25.299 30.6477 25.483 30.133C25.7012 29.4187 25.8295 28.6801 25.8649 27.9341C25.8955 26.4545 25.8649 25.4795 25.783 24.0034C25.7285 23.0557 25.3944 22.2239 23.9967 21.958C23.5671 21.883 23.5296 21.5284 23.8058 21.1739C24.3819 20.4375 25.1694 20.3216 26.0524 20.2773C27.3683 20.2023 28.6842 20.2534 30.0001 20.2773H30.2865C30.8592 20.2752 31.4305 20.3335 31.991 20.4511C32.3223 20.5181 32.6231 20.6904 32.8486 20.9423C33.0741 21.1942 33.2121 21.5122 33.2421 21.8489C33.3095 22.2222 33.338 22.6015 33.3274 22.9807C33.2933 24.5966 33.2149 26.2091 33.1978 27.825C33.1821 28.4648 33.2405 29.1043 33.3717 29.7307C33.5592 30.5898 34.149 30.8045 34.7353 30.1841C35.4946 29.382 36.1909 28.5226 36.8183 27.6136C37.9275 25.957 38.8426 24.1782 39.5455 22.3125C39.9274 21.3545 40.2274 21.1432 41.2501 21.1432H47.066C47.4118 21.1371 47.7566 21.1831 48.0887 21.2795C48.2063 21.3104 48.3162 21.3653 48.4116 21.4406C48.507 21.516 48.5858 21.6102 48.6431 21.7174C48.7004 21.8246 48.7349 21.9425 48.7445 22.0637C48.7541 22.1848 48.7386 22.3067 48.699 22.4216C48.4126 23.6966 47.724 24.7841 46.9944 25.8307C45.8115 27.508 44.5637 29.1409 43.3535 30.7909C43.2004 31.0097 43.0604 31.2374 42.9342 31.4727C42.4774 32.2943 42.5115 32.7545 43.1728 33.4398C44.2296 34.5239 45.358 35.5432 46.3774 36.6614C47.1258 37.4743 47.8011 38.3515 48.3955 39.283C49.1421 40.4386 48.6819 41.5432 47.291 41.7409Z" fill="white"/>
</svg>
