<svg width="60" height="60" viewBox="0 0 60 60" fill="none" xmlns="http://www.w3.org/2000/svg">
<g clip-path="url(#clip0_1_1695)">
<path d="M29.9999 59.9389C46.5347 59.9389 59.9388 46.5348 59.9388 30C59.9388 13.4652 46.5347 0.0610962 29.9999 0.0610962C13.4651 0.0610962 0.0610352 13.4652 0.0610352 30C0.0610352 46.5348 13.4651 59.9389 29.9999 59.9389Z" fill="#FC3F1D"/>
<path d="M40.8334 48.7945H34.2612V16.2889H31.3334C25.9667 16.2889 23.1556 18.9722 23.1556 22.9778C23.1556 27.5222 25.0945 29.6278 29.1056 32.3111L32.4112 34.5389L22.9111 48.7889H15.8445L24.3945 36.0667C19.4778 32.5556 16.7111 29.1278 16.7111 23.3445C16.7111 16.1167 21.75 11.2 31.2889 11.2H40.7889V48.7833H40.8334V48.7945Z" fill="white"/>
</g>
<defs>
<clipPath id="clip0_1_1695">
<rect width="60" height="60" fill="white"/>
</clipPath>
</defs>
</svg>
