<svg width="26" height="25" viewBox="0 0 26 25" fill="none" xmlns="http://www.w3.org/2000/svg">
<g clip-path="url(#clip0_2859_1282)">
<path d="M21.1166 10.5011H19.6425V6.81146C19.6425 3.05556 16.5867 0 12.831 0C9.07513 0 6.01957 3.05556 6.01957 6.81146V10.5011H4.54545C4.25993 10.5011 4.02821 10.7329 4.02821 11.0184V24.4828C4.02821 24.7683 4.25993 25 4.54545 25H21.1166C21.4021 25 21.6338 24.7683 21.6338 24.4828V11.0184C21.6338 10.7326 21.4026 10.5011 21.1166 10.5011ZM11.6993 19.1894C11.3626 18.8744 11.1769 18.4469 11.1769 17.9853C11.1769 17.0734 11.9189 16.3312 12.831 16.3312C13.7429 16.3312 14.4851 17.0731 14.4851 17.9853C14.4851 18.4469 14.2997 18.8744 13.9627 19.1894C13.8583 19.2871 13.7988 19.424 13.7988 19.5672V21.3212C13.7988 21.8547 13.3646 22.2889 12.8308 22.2889C12.297 22.2889 11.8628 21.8547 11.8628 21.3212V19.5672C11.863 19.424 11.8038 19.2871 11.6993 19.1894ZM12.831 3.67159C14.5622 3.67159 15.9706 5.08002 15.9706 6.81146V10.5011H9.69141V6.81146C9.69141 5.08027 11.0998 3.67159 12.831 3.67159Z" fill="#D0D0D0"/>
</g>
<defs>
<clipPath id="clip0_2859_1282">
<rect width="25" height="25" fill="white" transform="translate(0.331024)"/>
</clipPath>
</defs>
</svg>
