<svg width="33" height="33" viewBox="0 0 33 33" fill="none" xmlns="http://www.w3.org/2000/svg">
<g clip-path="url(#clip0_2859_1285)">
<path d="M24.7194 17.5667L23.3542 17.0106L24.7462 13.5935C26.1631 10.1151 24.4858 6.13252 21.0077 4.71569C17.5293 3.29875 13.5468 4.97581 12.1299 8.45418L10.7379 11.8712L9.37274 11.3151C9.10832 11.2074 8.8063 11.3346 8.69859 11.599L3.61907 24.0685C3.51136 24.3329 3.63854 24.6349 3.90296 24.7426L19.2497 30.9942C19.5141 31.1019 19.8161 30.9747 19.9238 30.7103L25.0033 18.2408C25.1111 17.9762 24.9843 17.6746 24.7194 17.5667ZM12.7203 22.0602C12.5273 21.6415 12.5166 21.1755 12.6908 20.748C13.0348 19.9035 14.0019 19.496 14.8467 19.8401C15.6912 20.1841 16.0987 21.1513 15.7545 21.996C15.5804 22.4236 15.2474 22.7495 14.8165 22.9141C14.6828 22.9652 14.5761 23.0695 14.5221 23.2022L13.8604 24.8265C13.6591 25.3206 13.0932 25.5589 12.5988 25.3576C12.1045 25.1562 11.8662 24.5902 12.0674 24.0961L12.7291 22.4718C12.7834 22.3392 12.7802 22.1902 12.7203 22.0602ZM19.6226 8.11598C21.2258 8.76908 21.9989 10.6048 21.3457 12.2083L19.9537 15.6253L14.1385 13.2565L15.5304 9.8394C16.1835 8.23614 18.0193 7.46288 19.6226 8.11598Z" fill="#424242"/>
</g>
<defs>
<clipPath id="clip0_2859_1285">
<rect width="25" height="25" fill="white" transform="translate(9.43134) rotate(22.1638)"/>
</clipPath>
</defs>
</svg>
