<svg width="25" height="25" viewBox="0 0 25 25" fill="none" xmlns="http://www.w3.org/2000/svg">
<g clip-path="url(#clip0_3621_6731)">
<path d="M24.846 5.20894C24.695 5.00199 24.454 4.87952 24.1979 4.87952H6.14982C6.11485 4.87952 6.07994 4.88165 6.04632 4.88618L5.30355 2.74505C5.22657 2.5236 5.05704 2.34709 4.83918 2.26132L1.09581 0.79078C0.683248 0.629258 0.217704 0.831902 0.0556781 1.24396C-0.106068 1.65624 0.0965202 2.12206 0.508857 2.28409L3.90871 3.61968L8.07018 15.6149C7.88651 15.6789 7.73086 15.8198 7.65997 16.017L6.45675 19.3593C6.38301 19.5642 6.41339 19.7919 6.53888 19.97C6.66421 20.1481 6.86803 20.2541 7.08566 20.2541H7.70355C7.32065 20.6802 7.08566 21.2414 7.08566 21.8584C7.08566 23.1854 8.16535 24.2649 9.4921 24.2649C10.8189 24.2649 11.8985 23.1854 11.8985 21.8584C11.8985 21.2414 11.6636 20.6802 11.2807 20.2541H16.5272C16.1442 20.6802 15.9091 21.2414 15.9091 21.8584C15.9091 23.1854 16.9886 24.2649 18.3156 24.2649C19.6426 24.2649 20.7221 23.1854 20.7221 21.8584C20.7221 21.2414 20.4871 20.6802 20.1042 20.2541H20.8558C21.225 20.2541 21.5242 19.9548 21.5242 19.5856C21.5242 19.2164 21.2249 18.9172 20.8558 18.9172H8.03678L8.78195 16.8474C8.87818 16.8879 8.98214 16.9118 9.09095 16.9118H20.8556C21.2044 16.9118 21.513 16.6865 21.6193 16.3546L24.9616 5.92664C25.04 5.68249 24.9969 5.41589 24.846 5.20894ZM9.4921 22.9279C8.90224 22.9279 8.4226 22.4483 8.4226 21.8584C8.4226 21.2686 8.90224 20.7889 9.4921 20.7889C10.082 20.7889 10.5616 21.2686 10.5616 21.8584C10.5616 22.4483 10.082 22.9279 9.4921 22.9279ZM18.3156 22.9279C17.7257 22.9279 17.246 22.4483 17.246 21.8584C17.246 21.2686 17.7257 20.7889 18.3156 20.7889C18.9054 20.7889 19.3851 21.2686 19.3851 21.8584C19.3851 22.4483 18.9054 22.9279 18.3156 22.9279ZM22.5202 8.28866H18.427V6.48383H23.0986L22.5202 8.28866ZM21.3416 11.9651H18.427V9.89291H22.0058L21.3416 11.9651ZM13.1238 11.9651V9.89291H16.8227V11.9651H13.1238ZM16.8227 13.5695V15.3075H13.1238V13.5695H16.8227ZM7.78323 9.89291H11.5197V11.9651H8.50221L7.78323 9.89291ZM13.1238 8.28866V6.48383H16.8227V8.28866H13.1238ZM11.5196 6.48383V8.28866H7.22649L6.60037 6.48383H11.5196ZM9.0589 13.5695H11.5196V15.3075H9.66179L9.0589 13.5695ZM18.427 15.3076V13.5696H20.8277L20.2707 15.3076H18.427Z" fill="white"/>
</g>
<defs>
<clipPath id="clip0_3621_6731">
<rect width="25" height="25" fill="white"/>
</clipPath>
</defs>
</svg>
