<svg width="17" height="17" viewBox="0 0 17 17" fill="none" xmlns="http://www.w3.org/2000/svg">
<g clip-path="url(#clip0_2859_515)">
<path d="M1.37118 9.72653L1.3462 9.72107H12.0527L8.68695 13.0942C8.52214 13.2589 8.43173 13.482 8.43173 13.7161C8.43173 13.9503 8.52214 14.1718 8.68695 14.3369L9.21066 14.8608C9.37534 15.0255 9.59479 15.1166 9.82881 15.1166C10.063 15.1166 10.2825 15.0262 10.4472 14.8615L16.2167 9.09251C16.382 8.92718 16.4724 8.70695 16.4718 8.47267C16.4724 8.2371 16.382 8.01674 16.2167 7.85167L10.4472 2.08217C10.2825 1.91762 10.0631 1.82708 9.82881 1.82708C9.59479 1.82708 9.37534 1.91775 9.21066 2.08217L8.68695 2.60614C8.52214 2.77056 8.43173 2.99014 8.43173 3.22429C8.43173 3.4583 8.52214 3.6663 8.68695 3.83085L12.0907 7.22285L1.35921 7.22285C0.877002 7.22285 0.471798 7.63846 0.471798 8.12041V8.86149C0.471798 9.34344 0.888969 9.72653 1.37118 9.72653Z" fill="white"/>
</g>
<defs>
<clipPath id="clip0_2859_515">
<rect width="16" height="16" fill="white" transform="matrix(-1 0 0 -1 16.4718 16.4718)"/>
</clipPath>
</defs>
</svg>
