<svg width="56" height="56" viewBox="0 0 56 56" fill="none" xmlns="http://www.w3.org/2000/svg">
<g clip-path="url(#clip0_1180_452)">
<path d="M0 28.0007C0 43.4658 12.535 56.0004 27.9996 56C43.465 56.0004 56 43.4658 56 28.0007C56.001 12.5355 43.465 0 27.9996 0C12.535 0 0 12.5359 0 28.0007Z" fill="#14D15D"/>
<path d="M55.6731 32.2891C55.6223 32.237 40.4034 17.0211 40.3447 16.9606C37.3074 13.7282 32.9874 11.7612 28.2975 11.7612C21.8733 11.7612 16.2148 15.3751 13.508 20.9546C13.4574 20.8847 10.9012 18.3283 10.8319 18.2794C10.6299 17.9974 10.2665 17.8686 9.92813 18.0025C9.53131 18.1607 9.33837 18.6108 9.49653 19.0071L11.9665 25.1934C12.0222 25.3326 12.1256 25.4389 12.2455 25.5244C12.2954 25.5948 29.2541 42.5663 29.2894 42.5999C28.7659 42.6543 28.2378 42.6922 27.7011 42.6922C26.4178 42.6922 25.1655 42.5289 23.9662 42.2218C23.938 42.1933 23.9084 42.1666 23.8764 42.1429C23.8274 42.0717 13.234 31.4826 13.1657 31.4323C12.9859 31.1708 12.6614 31.0317 12.3381 31.1187C11.925 31.2267 11.6781 31.6495 11.7865 32.0627C12.512 34.8246 13.9341 37.2603 15.8305 39.2176C15.8882 39.2791 32.195 55.5802 32.2536 55.6407C32.2643 55.652 32.2756 55.6625 32.2865 55.6735C44.3184 53.8255 53.8242 44.3203 55.6731 32.2891Z" fill="#00A941"/>
<path d="M12.3964 25.6243C12.4893 25.6616 12.587 25.6802 12.6849 25.6802C12.7945 25.6802 12.9036 25.6572 13.0051 25.6107L19.0409 22.8657C19.4294 22.689 19.6016 22.2306 19.4245 21.8418C19.2474 21.4529 18.788 21.2811 18.4005 21.4582L14.1694 23.3822C16.1998 17.3439 21.8251 13.3078 28.2975 13.3078C35.0794 13.3078 41.0092 17.8405 42.7174 24.3304C42.8088 24.6773 43.1221 24.9073 43.465 24.9073C43.53 24.9073 43.5964 24.899 43.6621 24.8816C44.0752 24.7729 44.3218 24.3496 44.2134 23.937C42.3263 16.7679 35.7814 11.7612 28.2975 11.7612C21.1591 11.7612 14.9533 16.2149 12.7078 22.8794L10.933 18.434C10.7748 18.0372 10.3265 17.8449 9.92825 18.0024C9.53144 18.1605 9.3385 18.6107 9.49665 19.0071L11.9667 25.1932C12.0453 25.3898 12.2005 25.5459 12.3964 25.6243Z" fill="#F4F6F9"/>
<path d="M46.5034 36.9933L44.0359 30.8071C43.9577 30.6107 43.8026 30.4543 43.6062 30.3759C43.4114 30.2982 43.1912 30.3026 42.9978 30.3896L36.9592 33.1323C36.5704 33.309 36.3986 33.7674 36.5748 34.1556C36.7511 34.5444 37.2087 34.7167 37.5988 34.54L41.8303 32.6182C39.794 38.6565 34.168 42.6926 27.701 42.6926C20.916 42.6926 14.9866 38.1602 13.2822 31.6705C13.1735 31.2574 12.7499 31.0082 12.3378 31.1192C11.9247 31.2273 11.6779 31.65 11.7863 32.0631C13.6693 39.2326 20.2138 44.2392 27.701 44.2392C34.8347 44.2392 41.042 39.7841 43.2924 33.1177L45.0667 37.5659C45.1875 37.8688 45.4778 38.053 45.7853 38.053C45.8804 38.053 45.9774 38.0356 46.0715 37.9977C46.4683 37.8399 46.6617 37.3897 46.5034 36.9933Z" fill="#F4F6F9"/>
</g>
<defs>
<clipPath id="clip0_1180_452">
<rect width="56" height="56" fill="white"/>
</clipPath>
</defs>
</svg>
