<svg width="32" height="12" viewBox="0 0 32 12" fill="none" xmlns="http://www.w3.org/2000/svg">
<path d="M31.2615 6.65232H0.738442C0.375365 6.65232 0.0820312 6.35899 0.0820312 5.99591C0.0820312 5.63284 0.375365 5.3395 0.738442 5.3395H29.6759L25.6923 1.35591C25.4359 1.0995 25.4359 0.683093 25.6923 0.426683C25.9487 0.170272 26.3651 0.170272 26.6215 0.426683L31.7272 5.53232C31.9159 5.72104 31.9713 6.00207 31.8687 6.24822C31.7661 6.49232 31.5261 6.65232 31.2615 6.65232Z" fill="black"/>
<path d="M26.15 11.764C25.9818 11.764 25.8136 11.7005 25.6864 11.5712C25.43 11.3148 25.43 10.8984 25.6864 10.642L30.7982 5.5302C31.0547 5.27379 31.4711 5.27379 31.7275 5.5302C31.9839 5.78661 31.9839 6.20302 31.7275 6.45943L26.6157 11.5712C26.4864 11.7005 26.3182 11.764 26.15 11.764Z" fill="black"/>
</svg>
