<svg width="32" height="32" viewBox="0 0 32 32" fill="none" xmlns="http://www.w3.org/2000/svg">
<g clip-path="url(#clip0_803_1011)">
<path d="M15.2451 25.5706L15.177 25.4532L15.0442 25.4812C14.6643 25.5621 14.277 25.6033 13.8886 25.6042C11.4373 25.6042 9.73956 23.8897 9.12769 23.1595L10.6731 23.2729L10.3929 22.9342C10.0754 22.5446 9.78901 22.1307 9.53638 21.6962C8.88175 20.5859 8.69025 19.6591 8.64487 19.0774C8.62229 18.8135 8.62816 18.5478 8.66238 18.2851L10.2113 18.9726L9.85538 18.4364C9.84788 18.4252 9.09912 17.2751 8.812 15.3609C8.59275 13.8991 8.86462 12.5229 9.00806 11.9457L10.4062 13.2009L10.3401 12.6981C10.3385 12.686 10.2065 11.6017 10.6047 10.0242C9.00719 9.5823 7.89106 9.63637 7.89106 9.63637L7.83144 11.3644C7.83144 11.3644 6.96138 10.5971 4.94581 10.7426C2.29869 10.9337 0.65 11.7843 0.65 11.7843C0.65 11.7843 0.267313 13.5999 0.785375 16.2031C1.17981 18.185 2.15056 18.8202 2.15056 18.8202L0.5 19.3361C0.5 19.3361 0.76375 20.5164 1.7 22.0236C2.65 23.5533 4.092 24.59 4.092 24.59L2.535 24.7769C2.535 24.7769 3.66319 26.2294 4.99306 27.0504C6.61 28.0487 7.90306 28.1809 7.90306 28.1809L6.68363 29.0251C6.68363 29.0251 8.11944 29.8904 9.89163 30.0394C11.6638 30.1884 12.8283 29.7599 12.8283 29.7599L12.1388 30.6647C12.1388 30.6647 13.3759 31.3786 15.5671 30.7027C16.0017 30.5717 16.4253 30.4066 16.8339 30.2089L16.4262 31.5001C16.4262 31.5001 18.7833 30.61 19.7068 28.3525C18.2838 28.1835 16.3979 27.5572 15.2451 25.5706Z" fill="#4BA55A"/>
<path d="M9.50133 23.5723C8.89546 23.7705 8.27346 23.9155 7.64239 24.0056C6.72883 24.1345 5.64564 24.1704 5.63483 24.1707C5.50222 24.1728 5.37586 24.2274 5.28356 24.3227C5.19126 24.4179 5.14057 24.5459 5.14264 24.6785C5.14471 24.8111 5.19938 24.9375 5.29461 25.0298C5.38984 25.1221 5.51784 25.1728 5.65045 25.1707C5.65589 25.1707 5.66126 25.1707 5.6667 25.1707C5.71308 25.1692 6.81376 25.1329 7.78208 24.9963C8.66329 24.8704 9.52812 24.6486 10.3612 24.335C10.0562 24.1023 9.76876 23.8474 9.50133 23.5723Z" fill="#2D873C"/>
<path d="M8.58836 18.4617L8.64061 18.5015C8.6463 18.4178 8.65417 18.3448 8.66261 18.2845L10.2115 18.972L9.85561 18.4358C9.7642 18.2888 9.68109 18.1367 9.60667 17.9804L9.19449 17.6663C9.20555 17.5121 9.21761 17.3021 9.22455 17.0522C9.03585 16.502 8.89778 15.9357 8.81205 15.3603C8.71245 14.6528 8.70302 13.9354 8.78399 13.2255C8.6993 12.8583 8.64649 12.6568 8.64286 12.6424C8.60909 12.5142 8.52581 12.4047 8.41133 12.3379C8.29684 12.2711 8.16053 12.2525 8.03233 12.2862C7.90414 12.3199 7.79456 12.4031 7.72768 12.5175C7.6608 12.6319 7.6421 12.7682 7.67567 12.8965C7.67717 12.9022 7.82905 13.4835 8.03605 14.4958C8.21336 15.3631 8.23911 16.2753 8.22574 16.9282L6.13661 15.3362C6.10455 14.9253 6.04795 14.5167 5.96711 14.1126C5.75392 13.0701 5.60067 12.484 5.59424 12.4595C5.56046 12.3313 5.47718 12.2218 5.3627 12.155C5.24822 12.0883 5.1119 12.0696 4.98371 12.1033C4.85552 12.137 4.74594 12.2202 4.67906 12.3346C4.61218 12.4491 4.59347 12.5854 4.62705 12.7136C4.62855 12.7193 4.78036 13.3006 4.98736 14.313C4.99899 14.3696 5.00992 14.4273 5.02049 14.4858L2.08149 12.2462C2.02926 12.2064 1.96971 12.1773 1.90622 12.1605C1.84274 12.1437 1.77657 12.1396 1.71149 12.1483C1.64642 12.1571 1.58371 12.1786 1.52695 12.2116C1.47018 12.2447 1.42048 12.2885 1.38067 12.3408C1.34087 12.393 1.31174 12.4525 1.29494 12.516C1.27815 12.5795 1.27403 12.6457 1.28281 12.7108C1.29159 12.7758 1.3131 12.8385 1.34612 12.8953C1.37914 12.9521 1.42301 13.0018 1.47524 13.0416L4.41274 15.28C4.35455 15.2852 4.29549 15.2914 4.23874 15.2952C3.20749 15.364 2.60705 15.372 2.60124 15.372C2.46863 15.3728 2.34175 15.4262 2.24852 15.5205C2.1553 15.6148 2.10335 15.7423 2.10411 15.8749C2.10487 16.0075 2.15828 16.1344 2.25259 16.2276C2.3469 16.3208 2.47438 16.3728 2.60699 16.372H2.61274C2.63805 16.372 3.24399 16.364 4.30549 16.293C4.71667 16.2637 5.12574 16.2099 5.53049 16.1317L7.61974 17.7237C6.9938 17.9099 6.10724 18.1271 5.22411 18.1862C4.19324 18.2553 3.59286 18.263 3.58661 18.2631C3.52095 18.2635 3.45601 18.2768 3.39549 18.3023C3.33497 18.3278 3.28006 18.3649 3.23389 18.4116C3.14066 18.5059 3.0887 18.6334 3.08945 18.766C3.08983 18.8316 3.10313 18.8966 3.1286 18.9571C3.15408 19.0176 3.19122 19.0725 3.23791 19.1187C3.33221 19.2119 3.45969 19.2639 3.5923 19.2631H3.59817C3.62317 19.2631 4.22942 19.2552 5.29092 19.1841C6.67861 19.091 8.02817 18.6601 8.58836 18.4617Z" fill="#2D873C"/>
<path d="M13.8887 25.6038C13.6463 25.6035 13.4042 25.5864 13.1642 25.5525C12.3839 26.0349 11.5602 26.4433 10.7038 26.7721C10.2031 26.9651 9.5255 27.0909 9.16631 27.149C9.0421 27.1688 8.92992 27.2347 8.85215 27.3336C8.77438 27.4325 8.73672 27.557 8.74669 27.6824C8.75666 27.8078 8.81352 27.9248 8.90593 28.0101C8.99835 28.0954 9.11953 28.1428 9.24531 28.1428C9.27216 28.1428 9.29897 28.1407 9.3255 28.1365C9.81143 28.0581 10.5074 27.9198 11.0635 27.7053C12.48 27.1684 13.8076 26.4214 15.0016 25.4893C14.6354 25.5645 14.2626 25.6029 13.8887 25.6038Z" fill="#2D873C"/>
<path d="M9.37315 21.403C9.21488 21.1082 9.07787 20.8026 8.96315 20.4883C8.37047 20.7309 7.75412 20.911 7.12409 21.0258C5.44765 21.3133 4.49209 21.2877 4.46922 21.2868C4.33669 21.2821 4.20769 21.3301 4.1106 21.4204C4.01351 21.5108 3.95628 21.636 3.9515 21.7685C3.94672 21.901 3.99477 22.03 4.0851 22.1271C4.17543 22.2242 4.30063 22.2814 4.43315 22.2862C4.44115 22.2862 4.48384 22.2878 4.56003 22.2878C4.88703 22.2878 5.83078 22.262 7.29303 22.0114C8.00587 21.8823 8.7031 21.6783 9.37315 21.403Z" fill="#2D873C"/>
<path d="M16.4986 27.0571C16.2711 27.2482 16.0236 27.4419 15.7467 27.6423C15.1771 28.0548 14.4592 28.359 14.0818 28.5037C14.0204 28.5272 13.9644 28.5626 13.9167 28.6077C13.8691 28.6529 13.8308 28.707 13.8041 28.767C13.7501 28.8881 13.7464 29.0257 13.7939 29.1496C13.8414 29.2734 13.9361 29.3733 14.0572 29.4273C14.1783 29.4813 14.3159 29.4849 14.4398 29.4374C14.8628 29.2749 15.671 28.9316 16.3332 28.4523C16.7223 28.1706 17.0588 27.9014 17.3614 27.6352C17.0559 27.4707 16.7669 27.2771 16.4986 27.0571Z" fill="#2D873C"/>
<path d="M27.0595 23.5709C28.7369 22.4634 29.6914 20.8293 29.6914 20.8293L28.0227 20.6543C28.0227 20.6543 29.2338 19.823 30.2959 17.9591C31.1694 16.4263 31.4998 14.3779 31.4998 14.3779L29.8538 15.0363C29.8538 15.0363 30.7216 13.2291 30.8331 11.2009C30.9429 9.20231 30.5634 7.8915 30.5634 7.8915L28.6461 8.275C28.6461 8.275 29.2641 7.12044 28.5789 4.94556C27.6789 2.08925 26.3131 0.5 26.3131 0.5C26.3131 0.5 24.215 0.551625 21.4846 1.79663C19.4058 2.7445 18.9594 3.975 18.9594 3.975L17.9616 2.29756C17.9616 2.29756 16.7313 2.89375 15.3158 4.31281C13.8794 5.75288 13.114 7.6055 13.114 7.6055L12.5028 5.94513C12.5028 5.94513 11.1979 7.561 10.6406 9.23425C9.96301 11.2687 10.1543 12.7226 10.1543 12.7226L8.90745 11.6031C8.90745 11.6031 8.32901 13.4043 8.62664 15.3884C8.92426 17.3726 9.69914 18.5398 9.69914 18.5398L8.52357 18.0179C8.52357 18.0179 8.06014 19.5617 9.37482 21.7913C9.6323 22.2345 9.92444 22.6567 10.2485 23.0538L8.72107 22.9417C8.72107 22.9417 11.1273 26.5 15.083 25.6647C17.108 29.1549 21.3696 28.5564 21.3696 28.5564L20.2637 27.4996C20.7764 27.4739 21.2863 27.4078 21.7887 27.302C24.3298 26.7838 25.1695 25.4073 25.1695 25.4073L23.9939 24.8854C23.9939 24.8854 25.3822 24.6784 27.0595 23.5709Z" fill="#87E196"/>
<path d="M28.7969 15.7353C28.7673 15.6767 28.7264 15.6245 28.6766 15.5817C28.6268 15.5388 28.5691 15.5062 28.5067 15.4857C28.4443 15.4652 28.3785 15.4572 28.313 15.4621C28.2475 15.4671 28.1836 15.4849 28.125 15.5145C28.114 15.5201 27.0168 16.0729 26.0369 16.4417C23.2462 17.4917 20.5913 17.2925 19.44 17.1276L20.4905 14.7736C20.6443 14.7799 20.8418 14.7853 21.0745 14.7853C22.0728 14.7853 23.7117 14.6878 25.2555 14.1584C27.2058 13.4897 28.189 12.9111 28.2298 12.8868C28.3429 12.8186 28.4245 12.7085 28.4567 12.5805C28.4889 12.4525 28.4692 12.3169 28.4018 12.2033C28.3345 12.0898 28.2249 12.0075 28.0971 11.9744C27.9693 11.9413 27.8336 11.9601 27.7196 12.0268C27.7103 12.0323 26.7718 12.5813 24.9311 13.2125C23.4552 13.7188 21.8373 13.7903 20.9328 13.7826L22.0181 11.3507C22.6556 11.2496 24.2525 10.9478 25.6997 10.2787C26.7901 9.77457 27.3935 9.45488 27.4188 9.44119C27.5338 9.37783 27.6192 9.27183 27.6566 9.14606C27.6941 9.02029 27.6806 8.88484 27.6191 8.76892C27.5576 8.65301 27.4529 8.56593 27.3278 8.52647C27.2026 8.48701 27.067 8.49833 26.9501 8.558C26.9438 8.56113 26.3427 8.8795 25.2803 9.3705C24.3125 9.81863 23.2457 10.091 22.513 10.2422L23.7838 7.39432C24.2348 7.25121 24.6767 7.08083 25.107 6.88413C26.1974 6.38007 26.8008 6.06032 26.8262 6.04694C26.9411 5.98358 27.0265 5.87758 27.064 5.75181C27.1015 5.62604 27.088 5.49059 27.0265 5.37467C26.9649 5.25876 26.8603 5.17168 26.7352 5.13222C26.61 5.09276 26.4743 5.10408 26.3575 5.16375C26.3515 5.16688 25.75 5.48532 24.6877 5.97625C24.5793 6.02625 24.4672 6.07529 24.3512 6.12338L26.2544 1.85869C26.2816 1.79866 26.2967 1.73385 26.2987 1.66799C26.3008 1.60212 26.2898 1.53649 26.2664 1.47488C26.243 1.41327 26.2077 1.35689 26.1624 1.30899C26.1172 1.26108 26.0629 1.2226 26.0027 1.19574C25.9425 1.16889 25.8776 1.15419 25.8118 1.15251C25.7459 1.15082 25.6803 1.16217 25.6189 1.18591C25.5574 1.20965 25.5012 1.24531 25.4536 1.29084C25.4059 1.33636 25.3677 1.39086 25.3412 1.45119L23.4363 5.71925C23.3947 5.60113 23.356 5.4849 23.3204 5.37057C22.9753 4.25469 22.8099 3.59594 22.8083 3.58932C22.7762 3.46065 22.6943 3.35002 22.5806 3.28175C22.4669 3.21348 22.3308 3.19317 22.2021 3.22528C22.0735 3.2574 21.9628 3.33931 21.8946 3.453C21.8263 3.56669 21.806 3.70284 21.8381 3.8315C21.845 3.85907 22.0108 4.52044 22.3651 5.66594C22.5065 6.11627 22.6752 6.55757 22.8703 6.98738L21.5985 9.83738C21.2207 9.19363 20.7094 8.21994 20.3949 7.20319C20.0498 6.08732 19.8844 5.42857 19.8828 5.42194C19.8669 5.35823 19.8386 5.29828 19.7995 5.24551C19.7604 5.19274 19.7113 5.14818 19.655 5.11439C19.5987 5.08059 19.5363 5.05822 19.4714 5.04855C19.4064 5.03887 19.3402 5.04208 19.2765 5.058C19.2128 5.07392 19.1528 5.10223 19.1 5.14132C19.0473 5.18041 19.0027 5.22951 18.9689 5.28582C18.9351 5.34212 18.9127 5.40454 18.9031 5.46949C18.8934 5.53444 18.8966 5.60067 18.9125 5.66438C18.9194 5.69194 19.0852 6.35332 19.4395 7.49882C19.9095 9.01819 20.7528 10.4031 21.1047 10.9439L20.0188 13.3775C19.408 12.7129 18.3779 11.466 17.7667 10.0328C17.0062 8.24925 16.7865 7.187 16.7838 7.17344C16.7579 7.04339 16.6813 6.92899 16.571 6.85539C16.4607 6.7818 16.3256 6.75504 16.1956 6.781C16.0655 6.80697 15.9511 6.88353 15.8775 6.99385C15.8039 7.10417 15.7772 7.23921 15.8032 7.36925C15.8125 7.41582 16.0395 8.53175 16.8469 10.425C17.6347 12.2724 19.0073 13.7866 19.5772 14.3672L18.5262 16.7223C17.6332 15.9802 15.7069 14.1463 14.621 11.3748C14.2398 10.402 13.9174 9.219 13.9142 9.20719C13.8975 9.14332 13.8683 9.0834 13.8282 9.03088C13.7882 8.97836 13.7382 8.93429 13.6811 8.90121C13.6239 8.86813 13.5608 8.84669 13.4953 8.83814C13.4298 8.82959 13.3633 8.83408 13.2996 8.85138C13.2359 8.86867 13.1762 8.89841 13.124 8.93888C13.0719 8.97936 13.0282 9.02977 12.9957 9.08719C12.9631 9.14462 12.9422 9.20794 12.9342 9.27348C12.9262 9.33902 12.9313 9.4055 12.9492 9.46907C12.9628 9.51944 13.2886 10.7152 13.69 11.7395C14.9616 14.9852 17.2417 16.9952 18.1033 17.6696L17.0777 19.9679C16.6434 19.7179 16.226 19.4396 15.8283 19.1348C14.9403 18.4598 13.6211 17.2758 12.3797 15.4668C12.0338 14.9626 11.7164 14.2468 11.5581 13.8651C11.5329 13.8044 11.4961 13.7493 11.4496 13.7029C11.4032 13.6565 11.348 13.6197 11.2874 13.5946C11.2267 13.5695 11.1617 13.5566 11.096 13.5566C11.0303 13.5566 10.9653 13.5696 10.9047 13.5948C10.844 13.6199 10.7889 13.6568 10.7425 13.7032C10.6961 13.7497 10.6593 13.8048 10.6342 13.8655C10.6091 13.9262 10.5962 13.9912 10.5962 14.0569C10.5962 14.1225 10.6092 14.1875 10.6343 14.2482C10.8461 14.7586 11.1777 15.4824 11.5552 16.0326C13.5716 18.9711 15.7765 20.3941 16.668 20.8862L15.653 23.1606C14.6013 22.6563 13.6235 22.0105 12.7469 21.2411C11.902 20.5143 11.2089 19.4059 11.1957 19.3849C11.1252 19.2737 11.0138 19.1948 10.8855 19.1653C10.7572 19.1358 10.6225 19.1581 10.5105 19.2273C10.3986 19.2965 10.3184 19.4071 10.2875 19.535C10.2565 19.6629 10.2772 19.7979 10.3452 19.9106C10.3764 19.9616 11.1264 21.1664 12.0952 21.9993C13.0445 22.8328 14.1045 23.5311 15.2452 24.0743L14.8327 24.9993C14.7786 25.1204 14.7749 25.258 14.8223 25.3819C14.8697 25.5057 14.9644 25.6057 15.0855 25.6597C15.2066 25.7138 15.3442 25.7175 15.4681 25.6701C15.5919 25.6227 15.6919 25.528 15.7459 25.4069L16.1595 24.4801C17.3287 24.9624 18.559 25.2808 19.8153 25.4264C20.1199 25.4632 20.4265 25.481 20.7333 25.4797C21.3391 25.4772 21.9438 25.4254 22.5413 25.3249C22.6712 25.3005 22.7861 25.2257 22.8611 25.1169C22.936 25.008 22.9647 24.8739 22.9411 24.7439C22.9174 24.6139 22.8432 24.4985 22.7347 24.423C22.6262 24.3475 22.4923 24.3181 22.3622 24.3411C22.3492 24.3434 21.0525 24.5744 19.9402 24.4341C18.7815 24.2998 17.6465 24.0078 16.5668 23.5663L17.5818 21.292C18.3095 21.5424 19.939 21.9943 22.2242 21.9943C23.0257 21.9935 23.8262 21.9396 24.6206 21.8327C25.2831 21.7443 26.0438 21.5056 26.5656 21.3209C26.6275 21.299 26.6845 21.2651 26.7333 21.2212C26.7821 21.1773 26.8218 21.1242 26.85 21.0649C26.8783 21.0056 26.8946 20.9414 26.8981 20.8758C26.9015 20.8102 26.892 20.7446 26.8701 20.6827C26.8482 20.6208 26.8143 20.5638 26.7704 20.515C26.7265 20.4662 26.6733 20.4266 26.6141 20.3983C26.5548 20.37 26.4906 20.3537 26.425 20.3502C26.3594 20.3468 26.2938 20.3563 26.2319 20.3782C25.8414 20.5164 25.0957 20.7604 24.4882 20.8415C21.2702 21.2711 18.9135 20.6734 17.9921 20.3728L19.0171 18.0761C19.7936 18.2059 20.5798 18.2699 21.3671 18.2673C23.0809 18.2738 24.7819 17.9726 26.3892 17.3779C27.4204 16.9898 28.5294 16.4309 28.5761 16.4074C28.6347 16.3778 28.687 16.3369 28.7298 16.2871C28.7727 16.2373 28.8053 16.1795 28.8258 16.1171C28.8463 16.0547 28.8543 15.9888 28.8493 15.9233C28.8444 15.8578 28.8266 15.7939 28.7969 15.7353Z" fill="#69C378"/>
</g>
<defs>
<clipPath id="clip0_803_1011">
<rect width="32" height="32" fill="white"/>
</clipPath>
</defs>
</svg>
