<svg width="90" height="90" viewBox="0 0 90 90" fill="none" xmlns="http://www.w3.org/2000/svg">
<path d="M90 45C90 51.9926 88.4039 58.6143 85.5563 64.5188C84.2184 67.2954 78.1564 66.8438 76.2996 69.2678C73.9459 72.3407 75.651 78.1713 72.5959 80.5465C67.7426 84.3187 62.0947 87.1207 55.9477 88.6588C52.657 89.4814 49.2332 81.9369 45.6998 81.9896C45.4713 81.9933 45.241 81.9949 45.0107 81.9949C41.9346 81.9949 38.9322 81.6855 36.0301 81.0984C34.6572 80.8207 33.2965 88.4848 31.9729 88.084C13.4736 82.4977 0 65.3221 0 45C0 20.148 20.148 0 45 0C69.852 0 90 20.148 90 45Z" fill="#E4F6FF"/>
<path d="M82.8786 24.909V56.0253C82.8786 58.469 80.8972 60.4504 78.4535 60.4504H21.4742C19.0305 60.4504 17.0491 58.469 17.0491 56.0253V24.909C17.0491 22.4653 19.0305 20.4839 21.4742 20.4839H78.4535C80.8972 20.4839 82.8786 22.4653 82.8786 24.909Z" fill="#66B394"/>
<path d="M77.9294 19.9598V51.0761C77.9294 53.5198 75.948 55.5012 73.5043 55.5012H16.525C14.0813 55.5012 12.0999 53.5198 12.0999 51.0761V19.9598C12.0999 17.5161 14.0813 15.5347 16.525 15.5347H73.5043C75.948 15.5347 77.9294 17.5161 77.9294 19.9598Z" fill="#66B394"/>
<path d="M72.9804 15.0106V46.1268C72.9804 48.5705 70.9989 50.5519 68.5552 50.5519H11.5758C9.13204 50.5519 7.15063 48.5705 7.15063 46.1268V15.0106C7.15063 12.5669 9.13204 10.5854 11.5758 10.5854H68.5551C70.999 10.5854 72.9804 12.5669 72.9804 15.0106Z" fill="#66B394"/>
<path d="M68.0311 10.0613V41.1776C68.0311 43.6213 66.0497 45.6027 63.606 45.6027H6.62653C4.18282 45.6027 2.20142 43.6213 2.20142 41.1776V10.0613C2.20142 7.61764 4.18282 5.63623 6.62653 5.63623H63.6059C66.0497 5.63623 68.0311 7.61764 68.0311 10.0613Z" fill="#78C2A4"/>
<path d="M35.1162 39.608C42.8418 39.608 49.1046 33.3452 49.1046 25.6197C49.1046 17.8941 42.8418 11.6313 35.1162 11.6313C27.3907 11.6313 21.1279 17.8941 21.1279 25.6197C21.1279 33.3452 27.3907 39.608 35.1162 39.608Z" fill="#78C2A4"/>
<path d="M36.8349 24.2685C35.7013 23.8679 34.4489 23.3847 33.7524 22.8384C33.5579 22.6858 33.4759 22.3244 33.5485 21.9391C33.5853 21.7433 33.7574 21.0885 34.4213 20.8886C35.711 20.5005 36.5546 21.1595 36.6463 21.236C37.2227 21.7155 38.0793 21.6371 38.5588 21.06C39.0384 20.4833 38.9598 19.627 38.3829 19.1473C38.1846 18.9823 37.4748 18.4446 36.3969 18.1877V17.7541C36.3969 17.004 35.7889 16.396 35.0388 16.396C34.2886 16.396 33.6807 17.004 33.6807 17.7541V18.2758C33.6663 18.28 33.6524 18.2834 33.638 18.2878C32.2219 18.7144 31.1649 19.9208 30.8793 21.4362C30.616 22.8338 31.0746 24.19 32.0764 24.9757C32.8869 25.6115 34.0035 26.1485 35.9298 26.8295C37.1361 27.2559 37.1102 28.2292 37.0432 28.6279C36.9056 29.4465 36.2171 30.3312 35.03 30.3391C33.8138 30.3476 33.4689 30.2922 32.5487 29.6902C31.921 29.2795 31.0792 29.4555 30.6685 30.0832C30.2579 30.7109 30.4339 31.5526 31.0614 31.9634C32.056 32.6139 32.7969 32.8894 33.6807 32.9959V33.4849C33.6807 34.235 34.2887 34.843 35.0388 34.843C35.789 34.843 36.3969 34.235 36.3969 33.4849V32.859C38.2598 32.3081 39.4521 30.6824 39.7216 29.0784C40.0814 26.939 38.9213 25.0061 36.8349 24.2685Z" fill="#66B394"/>
<path d="M68.0311 32.9463V41.1772C68.0311 43.621 66.0497 45.6024 63.606 45.6024H55.375C55.3748 38.6117 61.042 32.9463 68.0311 32.9463Z" fill="#66B394"/>
<path d="M68.0311 10.0613V18.2923C61.042 18.2923 55.375 12.6253 55.375 5.63623H63.606C66.0497 5.63623 68.0311 7.61764 68.0311 10.0613Z" fill="#66B394"/>
<path d="M14.8575 45.6025H6.62653C4.18282 45.6025 2.20142 43.6211 2.20142 41.1774V32.9463C9.19224 32.9463 14.8575 38.6117 14.8575 45.6025Z" fill="#66B394"/>
<path d="M14.8575 5.63623C14.8575 12.6253 9.19206 18.2923 2.20142 18.2923V10.0613C2.20142 7.61764 4.18282 5.63623 6.62653 5.63623H14.8575Z" fill="#66B394"/>
<path d="M35.1162 40.9658C26.6541 40.9658 19.7698 34.0815 19.7698 25.6194C19.7698 17.1572 26.6541 10.2729 35.1162 10.2729C43.5783 10.2729 50.4626 17.1572 50.4626 25.6194C50.4626 34.0815 43.5783 40.9658 35.1162 40.9658ZM35.1162 12.9893C28.1519 12.9893 22.4861 18.6551 22.4861 25.6194C22.4861 32.5836 28.1519 38.2494 35.1162 38.2494C42.0805 38.2494 47.7462 32.5836 47.7462 25.6194C47.7462 18.6551 42.0803 12.9893 35.1162 12.9893Z" fill="#66B394"/>
<path d="M20.882 72.6293C11.7483 72.6293 4.34399 65.225 4.34399 56.0912C4.34399 46.9575 11.7483 39.5532 20.882 39.5532H23.6536V72.6293H20.882Z" fill="#FFC250"/>
<path d="M23.6535 72.6293C32.7872 72.6293 40.1915 65.2249 40.1915 56.0912C40.1915 46.9575 32.7872 39.5532 23.6535 39.5532C14.5198 39.5532 7.11548 46.9575 7.11548 56.0912C7.11548 65.2249 14.5198 72.6293 23.6535 72.6293Z" fill="#FFE07D"/>
<path d="M23.6536 69.0426C30.8064 69.0426 36.6048 63.2441 36.6048 56.0913C36.6048 48.9386 30.8064 43.1401 23.6536 43.1401C16.5008 43.1401 10.7024 48.9386 10.7024 56.0913C10.7024 63.2441 16.5008 69.0426 23.6536 69.0426Z" fill="#FFC250"/>
<path d="M23.6535 65.8485C29.0423 65.8485 33.4108 61.48 33.4108 56.0912C33.4108 50.7025 29.0423 46.334 23.6535 46.334C18.2647 46.334 13.8962 50.7025 13.8962 56.0912C13.8962 61.48 18.2647 65.8485 23.6535 65.8485Z" fill="#FFE07D"/>
<path d="M25.2812 57.5507C25.48 56.3651 25.7397 55.0478 26.1573 54.2675C26.274 54.0495 26.6158 53.9062 27.0078 53.9113C27.2071 53.9138 27.8816 53.97 28.1932 54.5895C28.7983 55.7927 28.2948 56.7376 28.2354 56.8411C27.8628 57.4917 28.0879 58.3219 28.739 58.6945C29.3899 59.0674 30.2198 58.8418 30.5925 58.1907C30.7208 57.967 31.1279 57.1749 31.1947 56.0689L31.6218 55.994C32.3606 55.8644 32.8546 55.1606 32.725 54.4216C32.5955 53.6828 31.8915 53.1889 31.1527 53.3184L30.6387 53.4086C30.632 53.3952 30.6264 53.3819 30.6195 53.3685C29.9547 52.0474 28.584 51.2147 27.0419 51.1952C25.6198 51.1772 24.3631 51.8631 23.7623 52.9857C23.2761 53.8938 22.94 55.0864 22.602 57.1014C22.3903 58.3632 21.4272 58.5059 21.0229 58.5087C20.1929 58.5147 19.2025 57.9891 18.9897 56.8214C18.7712 55.625 18.7662 55.2756 19.2003 54.2654C19.4963 53.5761 19.1776 52.7774 18.4883 52.4814C17.7991 52.1853 17.0005 52.504 16.7043 53.1931C16.2354 54.285 16.0921 55.0625 16.1399 55.9515L15.6583 56.036C14.9195 56.1656 14.4255 56.8694 14.5551 57.6084C14.6846 58.3472 15.3886 58.8411 16.1274 58.7116L16.7441 58.6035C17.6086 60.3432 19.4158 61.2368 21.0421 61.2252C23.2118 61.2096 24.9151 59.7329 25.2812 57.5507Z" fill="#FFC250"/>
<path d="M45.689 59.1504V89.9947C45.4605 89.9984 45.2302 90 44.9999 90C41.9237 90 38.9214 89.6906 36.0192 89.1035C34.6464 88.8258 33.2964 88.4848 31.9728 88.084C28.5433 85.057 26.3794 80.6256 26.3794 75.6879C26.3794 66.5543 33.7833 59.1504 42.9169 59.1504H45.689Z" fill="#FFC250"/>
<path d="M62.2264 75.6879C62.2264 80.9455 59.7725 85.6301 55.9475 88.6588C52.4424 89.5342 48.7756 90 44.9998 90C41.9236 90 38.9213 89.6906 36.0191 89.1035C31.8584 86.1012 29.1514 81.2109 29.1514 75.6879C29.1514 66.5543 36.5553 59.1504 45.6889 59.1504C54.8225 59.1504 62.2264 66.5543 62.2264 75.6879Z" fill="#FFE07D"/>
<path d="M45.6888 88.6392C52.8415 88.6392 58.64 82.8408 58.64 75.688C58.64 68.5353 52.8415 62.7368 45.6888 62.7368C38.536 62.7368 32.7375 68.5353 32.7375 75.688C32.7375 82.8408 38.536 88.6392 45.6888 88.6392Z" fill="#FFC250"/>
<path d="M45.6889 85.4452C51.0777 85.4452 55.4462 81.0767 55.4462 75.6879C55.4462 70.2991 51.0777 65.9307 45.6889 65.9307C40.3001 65.9307 35.9316 70.2991 35.9316 75.6879C35.9316 81.0767 40.3001 85.4452 45.6889 85.4452Z" fill="#FFE07D"/>
<path d="M45.9487 73.5174C44.8638 74.0356 43.6365 74.5796 42.7577 74.6858C42.5123 74.7155 42.1988 74.5179 41.9776 74.1941C41.8651 74.0296 41.5239 73.4451 41.8519 72.8341C42.4895 71.6476 43.5519 71.5172 43.6709 71.5064C44.4175 71.4381 44.9678 70.7768 44.8989 70.0297C44.8302 69.2828 44.1691 68.733 43.422 68.8017C43.1652 68.8253 42.283 68.9469 41.3392 69.5273L41.0324 69.2206C40.5021 68.6903 39.6422 68.6901 39.1117 69.2206C38.5812 69.7511 38.5814 70.6108 39.1117 71.1413L39.4806 71.5103C39.4734 71.5235 39.4659 71.5358 39.4589 71.549C38.7592 72.8521 38.8647 74.4524 39.7345 75.7259C40.5366 76.9005 41.8198 77.5352 43.0836 77.3823C44.1063 77.2587 45.2756 76.849 47.1192 75.9683C48.2736 75.4169 48.9437 76.1233 49.1783 76.4528C49.66 77.1288 49.7985 78.2415 48.9647 79.0863C48.1108 79.9522 47.8276 80.157 46.7513 80.382C46.0171 80.5356 45.5462 81.2553 45.6998 81.9893C45.8532 82.7236 46.5729 83.1943 47.3071 83.0409C48.4705 82.7976 49.189 82.4685 49.8894 81.9187L50.2351 82.2644C50.7655 82.7948 51.6254 82.7949 52.1559 82.2644C52.6864 81.7339 52.6862 80.8742 52.1559 80.3437L51.7133 79.9011C52.641 78.1942 52.3345 76.2016 51.3911 74.8769C50.1325 73.1099 47.9454 72.5636 45.9487 73.5174Z" fill="#FFC250"/>
<path d="M66.2492 80.934C57.1154 80.934 49.7112 73.5297 49.7112 64.3959C49.7112 55.2622 57.1154 47.8579 66.2492 47.8579H69.0208V80.934H66.2492Z" fill="#FFC250"/>
<path d="M85.5579 64.3954C85.5579 64.4358 85.5579 64.478 85.5562 64.5185C82.5222 70.8149 78.0608 76.2976 72.5958 80.5462C71.4444 80.8011 70.2474 80.9347 69.0204 80.9347C59.8868 80.9347 52.4829 73.529 52.4829 64.3954C52.4829 55.2618 59.8868 47.8579 69.0204 47.8579C78.154 47.8579 85.5579 55.2618 85.5579 64.3954Z" fill="#FFE07D"/>
<path d="M69.0208 77.3472C76.1735 77.3472 81.972 71.5488 81.972 64.396C81.972 57.2433 76.1735 51.4448 69.0208 51.4448C61.868 51.4448 56.0696 57.2433 56.0696 64.396C56.0696 71.5488 61.868 77.3472 69.0208 77.3472Z" fill="#FFC250"/>
<path d="M69.0207 74.1532C74.4095 74.1532 78.778 69.7847 78.778 64.3959C78.778 59.0071 74.4095 54.6387 69.0207 54.6387C63.6319 54.6387 59.2634 59.0071 59.2634 64.3959C59.2634 69.7847 63.6319 74.1532 69.0207 74.1532Z" fill="#FFE07D"/>
<path d="M70.7392 63.0452C69.6056 62.6446 68.3532 62.1614 67.6567 61.6151C67.4621 61.4625 67.3802 61.1011 67.4528 60.7158C67.4896 60.5199 67.6617 59.8652 68.3256 59.6653C69.6153 59.2772 70.4589 59.9362 70.5506 60.0126C71.127 60.4922 71.9836 60.4138 72.4631 59.8369C72.9427 59.2601 72.8641 58.4039 72.2872 57.9242C72.0889 57.7591 71.3791 57.2212 70.3012 56.9646V56.5309C70.3012 55.7809 69.6932 55.1729 68.9431 55.1729C68.193 55.1729 67.585 55.7809 67.585 56.5309V57.0527C67.5706 57.0569 67.5567 57.0602 67.5423 57.0646C66.1262 57.4912 65.0692 58.6976 64.7836 60.213C64.5203 61.6107 64.9789 62.967 65.9807 63.7526C66.7912 64.3884 67.9078 64.9254 69.8341 65.6063C71.0404 66.0328 71.0145 67.0061 70.9475 67.4048C70.8099 68.2234 70.1214 69.1081 68.9343 69.116C67.7181 69.1244 67.3732 69.0691 66.453 68.467C65.8253 68.0564 64.9835 68.2323 64.5728 68.8601C64.1622 69.4878 64.3382 70.3294 64.9657 70.7402C65.9603 71.3908 66.7012 71.6662 67.585 71.7728V72.2618C67.585 73.0118 68.193 73.6199 68.9431 73.6199C69.6932 73.6199 70.3012 73.0118 70.3012 72.2618V71.6358C72.1641 71.0849 73.3564 69.4593 73.6259 67.8553C73.9856 65.7155 72.8254 63.7826 70.7392 63.0452Z" fill="#FFC250"/>
<path d="M80.0821 46.8833H77.9295V44.7306C77.9295 43.5728 76.9908 42.6343 75.8331 42.6343C74.6753 42.6343 73.7368 43.5728 73.7368 44.7306V46.8833H71.5842C70.4263 46.8833 69.4878 47.8219 69.4878 48.9796C69.4878 50.1375 70.4263 51.076 71.5842 51.076H73.7368V53.2286C73.7368 54.3865 74.6754 55.325 75.8331 55.325C76.991 55.325 77.9295 54.3863 77.9295 53.2286V51.076H80.0821C81.24 51.076 82.1785 50.1373 82.1785 48.9796C82.1785 47.8218 81.24 46.8833 80.0821 46.8833Z" fill="white"/>
<path d="M34.8902 71.4951H32.7376V69.3425C32.7376 68.1846 31.7989 67.2461 30.6412 67.2461C29.4834 67.2461 28.5449 68.1846 28.5449 69.3425V71.4951H26.3923C25.2344 71.4951 24.2959 72.4338 24.2959 73.5914C24.2959 74.7493 25.2344 75.6878 26.3923 75.6878H28.5449V77.8404C28.5449 78.9983 29.4836 79.9368 30.6412 79.9368C31.7991 79.9368 32.7376 78.9981 32.7376 77.8404V75.688H34.8902C36.0481 75.688 36.9866 74.7493 36.9866 73.5916C36.9868 72.4337 36.0481 71.4951 34.8902 71.4951Z" fill="white"/>
<path d="M74.4685 31.063C83.0463 31.063 90 24.1093 90 15.5315C90 6.95369 83.0463 0 74.4685 0C65.8907 0 58.937 6.95369 58.937 15.5315C58.937 24.1093 65.8907 31.063 74.4685 31.063Z" fill="#FE646F"/>
<path d="M74.4685 28.6021C81.6872 28.6021 87.5391 22.7502 87.5391 15.5315C87.5391 8.31283 81.6872 2.46094 74.4685 2.46094C67.2498 2.46094 61.3979 8.31283 61.3979 15.5315C61.3979 22.7502 67.2498 28.6021 74.4685 28.6021Z" fill="#F9F6F6"/>
<path d="M74.4685 28.6021C81.6872 28.6021 87.5391 22.7502 87.5391 15.5315C87.5391 8.31283 81.6872 2.46094 74.4685 2.46094C67.2498 2.46094 61.3979 8.31283 61.3979 15.5315C61.3979 22.7502 67.2498 28.6021 74.4685 28.6021Z" fill="#F9F6F6"/>
<path d="M77.1864 28.3179C76.3092 28.5042 75.4004 28.6026 74.4688 28.6026C67.2618 28.6026 61.3977 22.7386 61.3977 15.5315C61.3977 8.32451 67.2618 2.46045 74.4688 2.46045C75.4004 2.46045 76.3092 2.55889 77.1864 2.74521C71.2801 3.99854 66.8346 9.25615 66.8346 15.5315C66.8346 21.8069 71.2801 27.0646 77.1864 28.3179Z" fill="#DDDAEC"/>
<path d="M67.5766 22.4234C66.7026 21.5494 66.7026 20.1323 67.5766 19.2583L78.195 8.63986C79.069 7.76588 80.4862 7.76588 81.3602 8.63986C82.2341 9.51385 82.2341 10.931 81.3602 11.805L70.7417 22.4234C69.8678 23.2974 68.4506 23.2974 67.5766 22.4234Z" fill="#FE646F"/>
<path d="M67.5766 8.63986C68.4506 7.76588 69.8678 7.76588 70.7417 8.63986L81.3602 19.2583C82.2341 20.1323 82.2341 21.5494 81.3602 22.4234C80.4862 23.2974 79.069 23.2974 78.195 22.4234L67.5766 11.805C66.7026 10.931 66.7026 9.51385 67.5766 8.63986Z" fill="#FE646F"/>
</svg>
