<svg width="30" height="30" viewBox="0 0 30 30" fill="none" xmlns="http://www.w3.org/2000/svg">
<path d="M15.2784 23.8029H3.6777C2.8548 23.8029 2.1849 23.1333 2.1849 22.3104V4.6497C2.1849 3.8268 2.8545 3.1572 3.6777 3.1572H22.428C23.2509 3.1572 23.9205 3.8265 23.9205 4.6497V14.3667C23.9205 14.5737 23.7525 14.7417 23.5455 14.7417C23.3385 14.7417 23.1705 14.5737 23.1705 14.3667V4.6497C23.1705 4.2405 22.8375 3.9072 22.428 3.9072H3.6777C3.2682 3.9072 2.9349 4.2402 2.9349 4.6497V22.3104C2.9349 22.7199 3.2679 23.0529 3.6777 23.0529H15.2784C15.4854 23.0529 15.6534 23.2209 15.6534 23.4279C15.6534 23.6349 15.4854 23.8029 15.2784 23.8029Z" fill="black"/>
<path d="M23.5452 8.24939H2.5599C2.3529 8.24939 2.1849 8.08139 2.1849 7.87439C2.1849 7.66739 2.3529 7.49939 2.5599 7.49939H23.5452C23.7522 7.49939 23.9202 7.66739 23.9202 7.87439C23.9202 8.08139 23.7525 8.24939 23.5452 8.24939Z" fill="black"/>
<path d="M7.158 6.96449C6.4893 6.96449 5.9451 6.42029 5.9451 5.75159C5.9451 5.08259 6.489 4.53839 7.158 4.53839C7.827 4.53839 8.3715 5.08259 8.3715 5.75159C8.3715 6.42029 7.8273 6.96449 7.158 6.96449ZM7.158 5.28839C6.9027 5.28839 6.6951 5.49599 6.6951 5.75159C6.6951 6.00689 6.9027 6.21449 7.158 6.21449C7.4136 6.21449 7.6215 6.00689 7.6215 5.75159C7.6215 5.49599 7.4136 5.28839 7.158 5.28839Z" fill="black"/>
<path d="M18.9459 6.96449C18.2772 6.96449 17.7327 6.42029 17.7327 5.75159C17.7327 5.08259 18.2769 4.53839 18.9459 4.53839C19.6149 4.53839 20.1588 5.08259 20.1588 5.75159C20.1588 6.42029 19.6149 6.96449 18.9459 6.96449ZM18.9459 5.28839C18.6903 5.28839 18.4827 5.49599 18.4827 5.75159C18.4827 6.00689 18.6903 6.21449 18.9459 6.21449C19.2012 6.21449 19.4088 6.00689 19.4088 5.75159C19.4088 5.49599 19.2012 5.28839 18.9459 5.28839Z" fill="black"/>
<path d="M13.0527 6.96449C12.384 6.96449 11.8398 6.42029 11.8398 5.75159C11.8398 5.08259 12.3837 4.53839 13.0527 4.53839C13.7217 4.53839 14.2656 5.08259 14.2656 5.75159C14.2656 6.42029 13.7214 6.96449 13.0527 6.96449ZM13.0527 5.28839C12.7974 5.28839 12.5898 5.49599 12.5898 5.75159C12.5898 6.00689 12.7974 6.21449 13.0527 6.21449C13.308 6.21449 13.5156 6.00689 13.5156 5.75159C13.5156 5.49599 13.3077 5.28839 13.0527 5.28839Z" fill="black"/>
<path d="M8.7411 14.5377H5.5755C5.3685 14.5377 5.2005 14.3697 5.2005 14.1627V10.9971C5.2005 10.7901 5.3685 10.6221 5.5755 10.6221H8.7411C8.9481 10.6221 9.1161 10.7901 9.1161 10.9971V14.163C9.1161 14.37 8.9481 14.5377 8.7411 14.5377ZM5.9505 13.7877H8.3661V11.3718H5.9505V13.7877Z" fill="black"/>
<path d="M8.7411 20.8695H5.5755C5.3685 20.8695 5.2005 20.7015 5.2005 20.4945V17.3289C5.2005 17.1219 5.3685 16.9539 5.5755 16.9539H8.7411C8.9481 16.9539 9.1161 17.1219 9.1161 17.3289V20.4945C9.1161 20.7015 8.9481 20.8695 8.7411 20.8695ZM5.9505 20.1195H8.3661V17.7039H5.9505V20.1195Z" fill="black"/>
<path d="M14.6355 14.5377H11.4696C11.2626 14.5377 11.0946 14.3697 11.0946 14.1627V10.9971C11.0946 10.7901 11.2626 10.6221 11.4696 10.6221H14.6355C14.8425 10.6221 15.0105 10.7901 15.0105 10.9971V14.163C15.0105 14.37 14.8428 14.5377 14.6355 14.5377ZM11.8446 13.7877H14.2605V11.3718H11.8446V13.7877Z" fill="black"/>
<path d="M13.6422 20.8695H11.4699C11.2629 20.8695 11.0949 20.7015 11.0949 20.4945V17.3289C11.0949 17.1219 11.2629 16.9539 11.4699 16.9539H14.2296C14.4366 16.9539 14.6046 17.1219 14.6046 17.3289C14.6046 17.5359 14.4366 17.7039 14.2296 17.7039H11.8449V20.1195H13.6422C13.8492 20.1195 14.0172 20.2875 14.0172 20.4945C14.0172 20.7015 13.8492 20.8695 13.6422 20.8695Z" fill="black"/>
<path d="M17.3643 14.0286C17.1573 14.0286 16.9893 13.8606 16.9893 13.6536V10.9971C16.9893 10.7901 17.1573 10.6221 17.3643 10.6221H20.5296C20.7366 10.6221 20.9046 10.7901 20.9046 10.9971V12.6885C20.9046 12.8955 20.7366 13.0635 20.5296 13.0635C20.3226 13.0635 20.1546 12.8955 20.1546 12.6885V11.3721H17.7393V13.6536C17.7393 13.8606 17.5713 14.0286 17.3643 14.0286Z" fill="black"/>
<path d="M20.994 26.8428C17.3085 26.8428 14.3103 23.8443 14.3103 20.1591C14.3103 16.4739 17.3085 13.4754 20.994 13.4754C24.6795 13.4754 27.678 16.4736 27.678 20.1588C27.678 23.844 24.6798 26.8428 20.994 26.8428ZM20.994 14.2251C17.7222 14.2251 15.0603 16.887 15.0603 20.1588C15.0603 23.4306 17.7222 26.0925 20.994 26.0925C24.2658 26.0925 26.928 23.4309 26.928 20.1588C26.928 16.8867 24.2661 14.2251 20.994 14.2251Z" fill="black"/>
<path d="M23.886 20.5338H20.994C20.787 20.5338 20.619 20.3658 20.619 20.1588V16.5543C20.619 16.3473 20.787 16.1793 20.994 16.1793C21.201 16.1793 21.369 16.3473 21.369 16.5543V19.7841H23.886C24.093 19.7841 24.261 19.9521 24.261 20.1591C24.261 20.3661 24.0933 20.5338 23.886 20.5338Z" fill="black"/>
</svg>
