<svg width="54" height="55" viewBox="0 0 54 55" fill="none" xmlns="http://www.w3.org/2000/svg">
<path d="M27 53.04C27.7789 53.0396 28.5456 52.8468 29.2321 52.4788C29.9186 52.1108 30.5036 51.579 30.9352 50.9307L32.1165 49.1588C32.3605 48.795 32.6904 48.4968 33.077 48.2908C33.4636 48.0848 33.895 47.9772 34.333 47.9775C35.0404 47.9776 35.7187 48.2587 36.2188 48.7588L38.5341 51.0741C38.8898 51.43 39.3122 51.7122 39.777 51.9048C40.2419 52.0973 40.7402 52.1964 41.2433 52.1963C43.284 52.1963 45.241 51.3857 46.6839 49.9427C48.1269 48.4998 48.9375 46.5428 48.9375 44.5021C48.9376 43.2353 48.6249 41.9881 48.0272 40.8712C47.4294 39.7543 46.5651 38.8023 45.511 38.0998L41.1446 35.1888C39.6129 34.1671 38.352 32.7889 37.4701 31.1726L36.9824 30.2782C36.0042 28.4849 34.5609 26.9883 32.8043 25.9456C31.0478 24.9028 29.0427 24.3526 27 24.3525C24.9573 24.3526 22.9522 24.9028 21.1957 25.9456C19.4391 26.9883 17.9958 28.4849 17.0176 30.2782L16.5299 31.1726C15.648 32.7889 14.3871 34.1671 12.8554 35.1888L8.48897 38.0998C7.43487 38.8023 6.57057 39.7543 5.97283 40.8712C5.37508 41.9881 5.06238 43.2353 5.06251 44.5021C5.06251 46.5427 5.87314 48.4998 7.31607 49.9427C8.759 51.3857 10.716 52.1963 12.7567 52.1963C13.2598 52.1964 13.7581 52.0973 14.223 51.9048C14.6878 51.7122 15.1102 51.43 15.4659 51.0741L17.7812 48.7588C18.2813 48.2587 18.9596 47.9776 19.667 47.9775C20.1059 47.9776 20.538 48.0859 20.9249 48.293C21.3119 48.5001 21.6417 48.7995 21.8852 49.1647L23.0664 50.9366C23.4986 51.5836 24.0836 52.1141 24.7697 52.481C25.4559 52.8479 26.2219 53.0399 27 53.04Z" fill="#383838"/>
<path d="M29.5313 13.1239L29.5313 13.4403C29.5312 15.0792 29.7953 16.7075 30.3134 18.2624C30.5769 19.0531 31.0826 19.7408 31.7588 20.2281C32.4349 20.7154 33.2473 20.9776 34.0807 20.9775C34.7541 20.9774 35.4164 20.8061 36.0053 20.4796C36.5942 20.1531 37.0905 19.6822 37.4473 19.1112L37.6751 18.7467C39.5213 15.7933 40.5001 12.3805 40.5 8.89757C40.4998 7.41639 40.0971 5.96312 39.3348 4.69316C38.9182 3.99843 38.3287 3.42344 37.6238 3.02421C36.919 2.62498 36.1227 2.4151 35.3126 2.41504C34.3578 2.41504 33.4258 2.70643 32.641 3.25026C31.8563 3.79409 31.2562 4.56446 30.9209 5.45844C30.002 7.90965 29.5313 10.5061 29.5313 13.1239Z" fill="#383838"/>
<path d="M24.4687 13.1239L24.4687 13.4403C24.4688 15.0792 24.2047 16.7075 23.6866 18.2624C23.4231 19.0531 22.9174 19.7408 22.2412 20.2281C21.5651 20.7154 20.7527 20.9776 19.9193 20.9775C19.2459 20.9774 18.5836 20.8061 17.9947 20.4796C17.4058 20.1531 16.9095 19.6822 16.5527 19.1112L16.3249 18.7467C14.4787 15.7933 13.4999 12.3805 13.5 8.89757C13.5002 7.41639 13.9029 5.96311 14.6652 4.69316C15.0818 3.99843 15.6713 3.42344 16.3762 3.02421C17.081 2.62498 17.8773 2.4151 18.6874 2.41504C19.6414 2.4159 20.5725 2.70768 21.3565 3.25146C22.1404 3.79523 22.7399 4.56514 23.0749 5.45845C23.9952 7.90939 24.4674 10.5059 24.4687 13.1239Z" fill="#383838"/>
<path d="M13.5 24.9364L13.5 25.2528C13.5 26.8917 13.2359 28.52 12.7178 30.0749C12.4543 30.8656 11.9486 31.5533 11.2725 32.0406C10.5963 32.5279 9.78397 32.7901 8.9505 32.79C8.27713 32.7899 7.61486 32.6186 7.02593 32.2921C6.43701 31.9656 5.9408 31.4947 5.58394 30.9237L5.35612 30.5592C3.50999 27.6058 2.53115 24.193 2.53125 20.7101C2.5314 19.2289 2.93417 17.7756 3.69647 16.5057C4.1131 15.8109 4.70255 15.2359 5.40742 14.8367C6.11229 14.4375 6.90854 14.2276 7.71862 14.2275C8.67269 14.2284 9.6038 14.5202 10.3877 15.064C11.1717 15.6077 11.7711 16.3776 12.1061 17.2709C13.0265 19.7219 13.4986 22.3184 13.5 24.9364Z" fill="#383838"/>
<path d="M40.5 24.9364L40.5 25.2528C40.5 26.8917 40.7641 28.52 41.2822 30.0749C41.5457 30.8656 42.0514 31.5533 42.7275 32.0406C43.4037 32.5279 44.216 32.7901 45.0495 32.79C45.7229 32.7899 46.3851 32.6186 46.9741 32.2921C47.563 31.9656 48.0592 31.4947 48.4161 30.9237L48.6439 30.5592C50.49 27.6058 51.4689 24.193 51.4687 20.7101C51.4686 19.2289 51.0658 17.7756 50.3035 16.5057C49.8869 15.8109 49.2975 15.2359 48.5926 14.8367C47.8877 14.4375 47.0915 14.2276 46.2814 14.2275C45.3266 14.2275 44.3946 14.5189 43.6098 15.0628C42.825 15.6066 42.2249 16.377 41.8897 17.2709C40.9707 19.7222 40.5 22.3186 40.5 24.9364Z" fill="#383838"/>
<path d="M19.749 37.0614C19.4384 37.0622 19.1343 37.151 18.872 37.3175C18.6097 37.484 18.3999 37.7213 18.2669 38.002C18.1339 38.2828 18.083 38.5954 18.1203 38.9038C18.1575 39.2123 18.2813 39.5038 18.4774 39.7448L22.6565 44.8642C22.8055 45.0492 22.9965 45.196 23.2136 45.2924C23.4307 45.3888 23.6677 45.432 23.9049 45.4184C24.4122 45.3911 24.8701 45.1198 25.1621 44.6736L33.8432 30.6928C33.8446 30.6904 33.8461 30.6881 33.8476 30.6858C33.9291 30.5608 33.9027 30.3129 33.7345 30.1572C33.6884 30.1145 33.6339 30.0816 33.5745 30.0607C33.5152 30.0398 33.4522 30.0312 33.3894 30.0356C33.3266 30.0399 33.2654 30.0571 33.2095 30.086C33.1535 30.1149 33.1042 30.155 33.0643 30.2037C33.0612 30.2075 33.058 30.2113 33.0547 30.215L24.2997 40.1069C24.2664 40.1445 24.2259 40.1752 24.1807 40.197C24.1354 40.2189 24.0863 40.2316 24.0361 40.2343C23.9859 40.237 23.9356 40.2297 23.8883 40.2128C23.8409 40.196 23.7974 40.1699 23.7602 40.136L20.8546 37.4919C20.5528 37.2153 20.1584 37.0617 19.749 37.0614Z" fill="white"/>
</svg>
