<svg width="85" height="85" viewBox="0 0 85 85" fill="none" xmlns="http://www.w3.org/2000/svg">
<g clip-path="url(#clip0_4072_16182)">
<path d="M42.6459 83.9168C19.6362 84.1695 0.710927 65.6554 0.458249 42.6459C0.205571 19.6363 18.7197 0.710935 41.7294 0.458255C64.7391 0.205575 83.6641 18.7197 83.9168 41.7294C84.1695 64.7391 65.6554 83.6642 42.6459 83.9168Z" fill="#FEC037"/>
<path d="M41.7294 0.458252L42.6459 83.9168C65.6554 83.6641 84.1695 64.7389 83.9168 41.7292C83.6641 18.7195 64.7389 0.205574 41.7294 0.458252Z" fill="#FEC037"/>
<path d="M42.5385 74.1366C24.9217 74.3301 10.432 60.1551 10.2385 42.5383C10.0451 24.9215 24.2201 10.432 41.8368 10.2385C59.4536 10.0451 73.9434 24.22 74.1368 41.8368C74.3303 59.4536 60.1551 73.9432 42.5385 74.1366Z" fill="#FDCD63"/>
<path d="M41.8368 10.2385L42.5385 74.1366C60.1553 73.9432 74.3302 59.4534 74.1368 41.8366C73.9433 24.2199 59.4534 10.0451 41.8368 10.2385Z" fill="#FFB81D"/>
<path d="M54.2641 54.5217L30.336 54.7844C29.2424 54.7964 28.2737 54.0806 27.964 53.0315L23.2711 37.1337C23.0214 36.2874 23.2469 35.3723 23.8612 34.7389C24.4756 34.1057 25.3834 33.8523 26.2369 34.0762L33.6548 36.0225L40.0925 27.5095C40.549 26.9058 41.2593 26.5475 42.0159 26.5392C42.7726 26.5309 43.4906 26.8735 43.9603 27.467L50.5833 35.8366L57.9564 33.7279C58.806 33.4849 59.7204 33.7191 60.3485 34.3407C60.9766 34.9621 61.2206 35.8741 60.9867 36.7262L56.5953 52.7238C56.3064 53.7761 55.3553 54.5097 54.2641 54.5217Z" fill="#DF9A00"/>
<path d="M60.3483 34.3408C59.72 33.7194 58.8056 33.485 57.9562 33.728L50.5832 35.8367L43.9601 27.4671C43.4904 26.8736 42.7724 26.531 42.0157 26.5393L42.3245 54.6527L54.2642 54.5216C55.3554 54.5096 56.3066 53.776 56.5953 52.7238L60.9867 36.7262C61.2204 35.8743 60.9764 34.9622 60.3483 34.3408Z" fill="#DF9A00"/>
</g>
<defs>
<clipPath id="clip0_4072_16182">
<rect width="83.4636" height="83.4636" fill="white" transform="translate(0 0.916504) rotate(-0.629165)"/>
</clipPath>
</defs>
</svg>
