<svg width="27" height="55" viewBox="0 0 27 55" fill="none" xmlns="http://www.w3.org/2000/svg">
<path d="M19.5496 20.1027C19.5496 20.1027 17.6425 17.3657 18.8759 13.5645C20.1136 9.76573 22.9959 8.32291 22.9959 8.32291C22.9959 8.32291 25.1527 11.5848 23.9473 15.2877C22.744 18.993 19.5496 20.1027 19.5496 20.1027Z" fill="white"/>
<path d="M14.2566 22.0464C14.2566 22.0464 10.9223 21.7492 9.01297 18.4298C7.10367 15.1128 8.56309 11.4027 8.56309 11.4027C8.56309 11.4027 11.6584 12.1025 13.6194 15.5082C15.5782 18.9115 14.2566 22.0464 14.2566 22.0464Z" fill="white"/>
<path d="M13.9186 26.4324C15.462 30.0922 13.7852 33.0113 13.7852 33.0113C13.7852 33.0113 10.5112 32.23 9.00868 28.6661C7.50836 25.0974 9.38968 21.6318 9.38968 21.6318C9.38968 21.6318 12.3753 22.7726 13.9186 26.4324Z" fill="white"/>
<path d="M6.38259 29.3803C6.38259 29.3803 9.26053 30.8327 10.4875 34.6339C11.7144 38.4423 9.80082 41.1697 9.80082 41.1697C9.80082 41.1697 6.61075 40.0505 5.41394 36.3428C4.21928 32.6351 6.38259 29.3803 6.38259 29.3803Z" fill="white"/>
<path d="M3.98465 49.3976C3.98465 49.3976 1.21649 47.3005 1.02922 43.3675C0.844099 39.4321 3.76079 37.0114 3.76079 37.0114C3.76079 37.0114 6.14149 39.3243 6.33307 43.3603C6.52249 47.394 3.98465 49.3976 3.98465 49.3976Z" fill="white"/>
<path d="M15.2984 12.7784C15.2984 12.7784 12.3473 11.6807 11.4819 7.75729C10.6145 3.83389 12.2913 0.852394 12.2913 0.852394C12.2913 0.852394 15.7095 2.23289 16.5555 6.06043C17.3993 9.88556 15.2984 12.7784 15.2984 12.7784Z" fill="white"/>
<path d="M19.5518 28.4456C19.5518 28.4456 18.4562 25.2029 20.641 21.9793C22.8301 18.7534 25.9642 18.3196 25.9642 18.3196C25.9642 18.3196 27.161 22.1447 25.03 25.2892C22.899 28.436 19.5518 28.4456 19.5518 28.4456Z" fill="white"/>
<path d="M17.1065 37.0019C17.1065 37.0019 16.6868 33.5698 19.4592 30.967C22.236 28.3617 25.3787 28.7165 25.3787 28.7165C25.3787 28.7165 25.7834 32.7429 23.0798 35.281C20.3719 37.8167 17.1065 37.0019 17.1065 37.0019Z" fill="white"/>
<path d="M13.3826 44.0769C13.3826 44.0769 13.91 40.664 17.2637 39.1205C20.6195 37.5723 23.5168 38.9695 23.5168 38.9695C23.5168 38.9695 22.8064 42.9433 19.5389 44.4532C16.2713 45.9559 13.3826 44.0769 13.3826 44.0769Z" fill="white"/>
<path d="M11.7553 47.0153C15.2511 45.9272 17.9805 47.6983 17.9805 47.6983C17.9805 47.6983 16.8504 51.5474 13.4451 52.6092C10.0355 53.6709 7.37061 51.4204 7.37061 51.4204C7.37061 51.4204 8.25961 48.101 11.7553 47.0153Z" fill="white"/>
<path d="M14.9346 15.1176L16.4887 14.2667C16.5705 14.4561 24.5651 33.3637 2.10117 54.7446L0.977547 53.2803C22.3652 32.9203 15.2489 15.8342 14.9346 15.1176Z" fill="white"/>
</svg>
