<svg width="26" height="55" viewBox="0 0 26 55" fill="none" xmlns="http://www.w3.org/2000/svg">
<path d="M7.16626 19.5323C7.16626 19.5323 9.07341 16.7953 7.84001 12.9941C6.6023 9.19532 3.72005 7.7525 3.72005 7.7525C3.72005 7.7525 1.56321 11.0144 2.76863 14.7173C3.9719 18.4226 7.16626 19.5323 7.16626 19.5323Z" fill="white"/>
<path d="M12.4593 21.476C12.4593 21.476 15.7936 21.1788 17.7029 17.8594C19.6122 14.5424 18.1528 10.8323 18.1528 10.8323C18.1528 10.8323 15.0574 11.5321 13.0965 14.9378C11.1377 18.3411 12.4593 21.476 12.4593 21.476Z" fill="white"/>
<path d="M12.7973 25.862C11.254 29.5218 12.9308 32.4409 12.9308 32.4409C12.9308 32.4409 16.2048 31.6596 17.7073 28.0957C19.2076 24.527 17.3263 21.0614 17.3263 21.0614C17.3263 21.0614 14.3407 22.2022 12.7973 25.862Z" fill="white"/>
<path d="M20.3333 28.8099C20.3333 28.8099 17.4554 30.2623 16.2284 34.0635C15.0015 37.8719 16.9151 40.5993 16.9151 40.5993C16.9151 40.5993 20.1052 39.4801 21.302 35.7724C22.4966 32.0647 20.3333 28.8099 20.3333 28.8099Z" fill="white"/>
<path d="M22.7313 48.8272C22.7313 48.8272 25.4994 46.7301 25.6867 42.7971C25.8718 38.8617 22.9551 36.441 22.9551 36.441C22.9551 36.441 20.5744 38.7539 20.3828 42.7899C20.1934 46.8235 22.7313 48.8272 22.7313 48.8272Z" fill="white"/>
<path d="M11.4175 12.208C11.4175 12.208 14.3687 11.1103 15.234 7.18688C16.1014 3.26348 14.4246 0.281982 14.4246 0.281982C14.4246 0.281982 11.0064 1.66248 10.1604 5.49002C9.31665 9.31515 11.4175 12.208 11.4175 12.208Z" fill="white"/>
<path d="M7.1641 27.8752C7.1641 27.8752 8.25974 24.6325 6.07492 21.4089C3.88579 18.183 0.75169 17.7492 0.75169 17.7492C0.75169 17.7492 -0.445121 21.5743 1.68589 24.7188C3.8169 27.8656 7.1641 27.8752 7.1641 27.8752Z" fill="white"/>
<path d="M9.60936 36.4314C9.60936 36.4314 10.0291 32.9994 7.25663 30.3966C4.47986 27.7913 1.33715 28.146 1.33715 28.146C1.33715 28.146 0.932477 32.1725 3.63606 34.7106C6.34396 37.2463 9.60936 36.4314 9.60936 36.4314Z" fill="white"/>
<path d="M13.3332 43.5065C13.3332 43.5065 12.8059 40.0936 9.45222 38.5501C6.09641 37.0019 3.1991 38.3991 3.1991 38.3991C3.1991 38.3991 3.90943 42.3729 7.17699 43.8828C10.4445 45.3855 13.3332 43.5065 13.3332 43.5065Z" fill="white"/>
<path d="M14.9606 46.4449C11.4649 45.3568 8.73547 47.1279 8.73547 47.1279C8.73547 47.1279 9.86556 50.977 13.2709 52.0388C16.6805 53.1005 19.3453 50.85 19.3453 50.85C19.3453 50.85 18.4563 47.5306 14.9606 46.4449Z" fill="white"/>
<path d="M11.7813 14.5472L10.2271 13.6963C10.1453 13.8857 2.15082 32.7933 24.6147 54.1742L25.7383 52.7098C4.35072 32.3499 11.467 15.2638 11.7813 14.5472Z" fill="white"/>
</svg>
