<svg width="24" height="24" viewBox="0 0 24 24" fill="none" xmlns="http://www.w3.org/2000/svg">
<g clip-path="url(#clip0_1592_971)">
<path d="M19.2555 9.79381H17.8993V6.39929C17.8993 2.94387 15.088 0.132751 11.6328 0.132751C8.17734 0.132751 5.36622 2.94387 5.36622 6.39929V9.79381H4.01004C3.74736 9.79381 3.53418 10.007 3.53418 10.2697V22.6569C3.53418 22.9196 3.74736 23.1328 4.01004 23.1328H19.2555C19.5182 23.1328 19.7313 22.9196 19.7313 22.6569V10.2697C19.7313 10.0068 19.5186 9.79381 19.2555 9.79381ZM10.5916 17.787C10.2818 17.4972 10.111 17.1039 10.111 16.6792C10.111 15.8403 10.7936 15.1574 11.6328 15.1574C12.4717 15.1574 13.1545 15.84 13.1545 16.6792C13.1545 17.1039 12.984 17.4972 12.6739 17.787C12.5778 17.8769 12.5231 18.0028 12.5231 18.1346V19.7482C12.5231 20.2391 12.1236 20.6386 11.6325 20.6386C11.1414 20.6386 10.742 20.2391 10.742 19.7482V18.1346C10.7422 18.0028 10.6877 17.8769 10.5916 17.787ZM11.6328 3.51061C13.2255 3.51061 14.5212 4.80637 14.5212 6.39929V9.79381H8.74432V6.39929C8.74432 4.8066 10.0401 3.51061 11.6328 3.51061Z" fill="black"/>
</g>
<defs>
<clipPath id="clip0_1592_971">
<rect width="23" height="23" fill="white" transform="translate(0.132812 0.132751)"/>
</clipPath>
</defs>
</svg>
