<svg width="103" height="106" viewBox="0 0 103 106" fill="none" xmlns="http://www.w3.org/2000/svg">
<path d="M21.8084 66.4579C16.2677 63.9755 11.745 59.7428 8.96992 54.4426C6.19483 49.1424 5.32917 43.0838 6.51261 37.2443L11.2219 12.2332C26.7751 11.9609 36.5368 7.4233 42.4999 2.75049C48.461 7.4233 58.2266 11.9609 73.7798 12.2332L78.4891 37.2462C79.672 43.0855 78.8061 49.1436 76.0311 54.4434C73.256 59.7431 68.7336 63.9756 63.1933 66.4579L42.4999 75.1085L21.8084 66.4579Z" fill="#6D87F7"/>
<path d="M24.8777 59.4563C20.958 57.6602 17.7715 54.6279 15.8316 50.848C13.8917 47.068 13.3113 42.7604 14.1839 38.6191L17.7836 19.5071C26.4965 18.8743 34.9481 16.316 42.4999 12.0256C50.0518 16.3157 58.5033 18.874 67.2161 19.5071L70.8158 38.6286C71.6882 42.7689 71.1078 47.0755 69.1683 50.8544C67.2287 54.6334 64.0429 57.6647 60.124 59.4601L42.4999 66.8216L24.8777 59.4563Z" fill="#F6F8FF"/>
<path d="M39.6041 27.7769C39.1609 27.5169 38.6301 27.4394 38.1284 27.5615C37.6267 27.6837 37.1951 27.9954 36.9287 28.4281L32.7499 35.2278L28.571 28.4281C28.4417 28.209 28.2688 28.0172 28.0627 27.864C27.8566 27.7108 27.6212 27.5993 27.3705 27.5359C27.1197 27.4725 26.8585 27.4585 26.6021 27.4948C26.3458 27.531 26.0994 27.6168 25.8774 27.7471C25.6553 27.8774 25.4621 28.0496 25.309 28.2536C25.1558 28.4576 25.0459 28.6894 24.9855 28.9354C24.9251 29.1814 24.9155 29.4367 24.9573 29.6863C24.999 29.9359 25.0913 30.1749 25.2287 30.3894L30.4762 38.9295L25.2287 47.4697C25.0913 47.6841 24.999 47.9231 24.9573 48.1728C24.9155 48.4224 24.9251 48.6777 24.9855 48.9236C25.0459 49.1696 25.1558 49.4014 25.309 49.6054C25.4621 49.8094 25.6553 49.9816 25.8774 50.1119C26.0994 50.2422 26.3458 50.328 26.6021 50.3643C26.8585 50.4005 27.1197 50.3866 27.3705 50.3232C27.6212 50.2598 27.8566 50.1482 28.0627 49.995C28.2688 49.8419 28.4417 49.6501 28.571 49.431L32.7499 42.6312L36.9287 49.431C37.0581 49.6501 37.231 49.8419 37.4371 49.995C37.6432 50.1482 37.8786 50.2598 38.1293 50.3232C38.3801 50.3866 38.6413 50.4005 38.8977 50.3643C39.154 50.328 39.4004 50.2422 39.6224 50.1119C39.8445 49.9816 40.0377 49.8094 40.1908 49.6054C40.344 49.4014 40.4539 49.1696 40.5143 48.9236C40.5747 48.6777 40.5843 48.4224 40.5425 48.1728C40.5008 47.9231 40.4085 47.6841 40.271 47.4697L35.0236 38.9295L40.271 30.3894C40.5373 29.9565 40.6166 29.4382 40.4916 28.9483C40.3665 28.4584 40.0473 28.037 39.6041 27.7769Z" fill="#285680"/>
<path d="M52.2498 27.5046H46.3998C45.8827 27.5046 45.3867 27.7053 45.021 28.0624C44.6553 28.4195 44.4498 28.9038 44.4498 29.4088V48.4504C44.4498 48.9554 44.6553 49.4397 45.021 49.7968C45.3867 50.1539 45.8827 50.3545 46.3998 50.3545C46.917 50.3545 47.413 50.1539 47.7787 49.7968C48.1444 49.4397 48.3498 48.9554 48.3498 48.4504V42.7379H52.2498C54.3185 42.7379 56.3025 41.9354 57.7653 40.507C59.228 39.0787 60.0498 37.1413 60.0498 35.1213C60.0498 33.1012 59.228 31.1639 57.7653 29.7355C56.3025 28.3071 54.3185 27.5046 52.2498 27.5046ZM52.2498 38.9296H48.3498V31.313H52.2498C53.2842 31.313 54.2762 31.7142 55.0075 32.4284C55.7389 33.1426 56.1498 34.1112 56.1498 35.1213C56.1498 36.1313 55.7389 37.1 55.0075 37.8142C54.2762 38.5284 53.2842 38.9296 52.2498 38.9296Z" fill="#285680"/>
<path d="M63.7306 90.931L63.5711 90.6559L63.2598 90.7215C62.3695 90.9112 61.4618 91.0078 60.5515 91.0098C54.8062 91.0098 50.8271 86.9916 49.393 85.28L53.0151 85.5459L52.3584 84.7521C51.6143 83.839 50.943 82.8687 50.3509 81.8504C48.8166 79.2481 48.3678 77.076 48.2614 75.7127C48.2085 75.094 48.2222 74.4715 48.3024 73.8557L51.9328 75.4671L51.0985 74.2104C51.081 74.184 49.3261 71.4885 48.6531 67.0022C48.1393 63.5759 48.7765 60.3506 49.1126 58.9978L52.3896 61.9395L52.2347 60.7612C52.2309 60.7328 51.9215 58.1914 52.8549 54.4943C49.1106 53.4585 46.4947 53.5852 46.4947 53.5852L46.3549 57.6354C46.3549 57.6354 44.3157 55.8368 39.5917 56.1778C33.3875 56.6259 29.5234 58.6194 29.5234 58.6194C29.5234 58.6194 28.6265 62.8747 29.8407 68.9759C30.7652 73.6211 33.0404 75.1099 33.0404 75.1099L29.1719 76.319C29.1719 76.319 29.79 79.0852 31.9844 82.6178C34.2109 86.203 37.5906 88.6328 37.5906 88.6328L33.9414 89.0709C33.9414 89.0709 36.5856 92.4752 39.7025 94.3994C43.4922 96.7392 46.5228 97.049 46.5228 97.049L43.6647 99.0275C43.6647 99.0275 47.0299 101.056 51.1835 101.405C55.3371 101.754 58.0664 100.75 58.0664 100.75L56.4503 102.87C56.4503 102.87 59.3497 104.543 64.4853 102.959C65.5039 102.652 66.4967 102.266 67.4544 101.802L66.4989 104.828C66.4989 104.828 72.0234 102.742 74.1878 97.4511C70.8527 97.055 66.4325 95.5873 63.7306 90.931Z" fill="#4BA55A"/>
<path d="M50.2693 86.2478C48.8493 86.7124 47.3915 87.0523 45.9124 87.2635C43.7712 87.5656 41.2325 87.6497 41.2072 87.6504C40.8964 87.6552 40.6002 87.7834 40.3839 88.0066C40.1676 88.2298 40.0488 88.5298 40.0536 88.8406C40.0585 89.1514 40.1866 89.4475 40.4098 89.6639C40.633 89.8802 40.933 89.999 41.2438 89.9941C41.2565 89.9941 41.2691 89.9941 41.2819 89.9941C41.3906 89.9906 43.9703 89.9055 46.2398 89.5854C48.3051 89.2903 50.3321 88.7706 52.2846 88.0355C51.5697 87.4901 50.8961 86.8926 50.2693 86.2478Z" fill="#2D873C"/>
<path d="M48.1284 74.2703L48.2509 74.3636C48.2642 74.1674 48.2826 73.9962 48.3024 73.855L51.9327 75.4663L51.0985 74.2096C50.8843 73.865 50.6895 73.5086 50.5151 73.1422L49.549 72.4059C49.5749 72.0447 49.6032 71.5524 49.6195 70.9667C49.1772 69.6771 48.8536 68.3498 48.6527 67.0014C48.4192 65.3431 48.3971 63.6618 48.5869 61.9979C48.3884 61.1372 48.2646 60.6649 48.2561 60.6312C48.177 60.3308 47.9818 60.0742 47.7135 59.9176C47.4451 59.7611 47.1257 59.7175 46.8252 59.7964C46.5247 59.8753 46.2679 60.0703 46.1112 60.3385C45.9544 60.6067 45.9106 60.9262 45.9893 61.2267C45.9928 61.2402 46.3488 62.6025 46.8339 64.9751C47.2495 67.008 47.3098 69.1459 47.2785 70.6761L42.3821 66.9449C42.307 65.9818 42.1743 65.0242 41.9848 64.077C41.4852 61.6336 41.126 60.2599 41.1109 60.2026C41.0318 59.9022 40.8366 59.6456 40.5683 59.489C40.2999 59.3325 39.9804 59.2889 39.68 59.3678C39.3795 59.4467 39.1227 59.6417 38.966 59.9099C38.8092 60.1781 38.7654 60.4976 38.8441 60.7981C38.8476 60.8116 39.2034 62.1739 39.6885 64.5466C39.7158 64.6793 39.7414 64.8147 39.7662 64.9517L32.8779 59.7027C32.7555 59.6094 32.6159 59.5411 32.4671 59.5017C32.3183 59.4624 32.1633 59.4527 32.0107 59.4733C31.8582 59.4939 31.7112 59.5443 31.5782 59.6217C31.4452 59.6991 31.3287 59.8019 31.2354 59.9243C31.1421 60.0467 31.0738 60.1863 31.0344 60.3351C30.9951 60.4839 30.9854 60.6389 31.006 60.7915C31.0266 60.944 31.077 61.091 31.1544 61.224C31.2318 61.357 31.3346 61.4735 31.457 61.5668L38.3418 66.8132C38.2054 66.8253 38.067 66.8398 37.934 66.8488C35.517 67.0099 34.1097 67.0287 34.0961 67.0288C33.7853 67.0306 33.4879 67.1558 33.2694 67.3768C33.0509 67.5978 32.9291 67.8966 32.9309 68.2074C32.9327 68.5182 33.0579 68.8156 33.2789 69.0341C33.5 69.2526 33.7987 69.3743 34.1095 69.3726H34.123C34.1823 69.3726 35.6025 69.3538 38.0904 69.1872C39.0541 69.1187 40.0129 68.9925 40.9615 68.8093L45.8582 72.5406C44.3911 72.9769 42.3133 73.486 40.2434 73.6246C37.8273 73.7864 36.4202 73.8046 36.4055 73.8049C36.2516 73.8057 36.0994 73.8369 35.9576 73.8966C35.8157 73.9563 35.687 74.0434 35.5788 74.1528C35.3603 74.3738 35.2386 74.6726 35.2403 74.9834C35.2412 75.1373 35.2724 75.2895 35.3321 75.4314C35.3918 75.5732 35.4788 75.7019 35.5883 75.8101C35.8093 76.0286 36.1081 76.1504 36.4189 76.1486H36.4326C36.4912 76.1486 37.9121 76.13 40.4 75.9635C43.6524 75.7451 46.8155 74.7353 48.1284 74.2703Z" fill="#2D873C"/>
<path d="M60.5515 91.0098C59.9833 91.0093 59.4159 90.9691 58.8533 90.8897C57.0245 92.0204 55.0939 92.9774 53.0868 93.7482C51.9131 94.2004 50.3251 94.4953 49.4833 94.6315C49.1921 94.678 48.9292 94.8324 48.747 95.0641C48.5647 95.2958 48.4764 95.5877 48.4998 95.8816C48.5231 96.1755 48.6564 96.4497 48.873 96.6497C49.0896 96.8497 49.3736 96.9607 49.6684 96.9606C49.7314 96.9607 49.7942 96.9558 49.8564 96.9459C50.9953 96.7623 52.6264 96.4379 53.9298 95.9352C57.2497 94.677 60.3612 92.9261 63.1598 90.7415C62.3015 90.9178 61.4277 91.0077 60.5515 91.0098Z" fill="#2D873C"/>
<path d="M49.9677 81.1641C49.5967 80.4733 49.2756 79.7568 49.0067 79.0203C47.6176 79.5888 46.1731 80.011 44.6964 80.28C40.7673 80.9539 38.5277 80.8939 38.4741 80.8919C38.1634 80.8807 37.8611 80.9933 37.6336 81.205C37.406 81.4167 37.2719 81.7102 37.2607 82.0208C37.2494 82.3314 37.3621 82.6337 37.5738 82.8613C37.7855 83.0888 38.0789 83.223 38.3895 83.2342C38.4083 83.2342 38.5083 83.238 38.6869 83.238C39.4533 83.238 41.6652 83.1775 45.0924 82.5901C46.7631 82.2875 48.3972 81.8095 49.9677 81.1641Z" fill="#2D873C"/>
<path d="M66.6679 94.4153C66.1348 94.8631 65.5546 95.317 64.9057 95.7867C63.5706 96.7535 61.8881 97.4666 61.0035 97.8057C60.8598 97.8608 60.7283 97.9436 60.6167 98.0495C60.505 98.1554 60.4153 98.2822 60.3526 98.4228C60.2261 98.7067 60.2175 99.0292 60.3288 99.3194C60.44 99.6096 60.662 99.8438 60.9459 99.9703C61.2298 100.097 61.5523 100.105 61.8425 99.9941C62.8339 99.6133 64.7283 98.8085 66.2803 97.6851C67.1921 97.0249 67.9808 96.3941 68.6901 95.7701C67.974 95.3846 67.2968 94.9309 66.6679 94.4153Z" fill="#2D873C"/>
<path d="M91.4207 86.2442C95.352 83.6485 97.5893 79.8186 97.5893 79.8186L93.6782 79.4084C93.6782 79.4084 96.5167 77.4602 99.006 73.0917C101.053 69.499 101.828 64.6981 101.828 64.6981L97.9699 66.2414C97.9699 66.2414 100.004 62.0058 100.265 57.2521C100.522 52.5679 99.6331 49.4957 99.6331 49.4957L95.1392 50.3945C95.1392 50.3945 96.5876 47.6885 94.9817 42.5912C92.8724 35.8967 89.6712 32.1719 89.6712 32.1719C89.6712 32.1719 84.7539 32.2929 78.3546 35.2108C73.4824 37.4324 72.436 40.3164 72.436 40.3164L70.0976 36.3849C70.0976 36.3849 67.2139 37.7822 63.8964 41.1082C60.5299 44.4833 58.7359 48.8254 58.7359 48.8254L57.3035 44.9339C57.3035 44.9339 54.2452 48.7211 52.939 52.6428C51.3508 57.411 51.7992 60.8185 51.7992 60.8185L48.8768 58.1948C48.8768 58.1948 47.5211 62.4162 48.2186 67.0667C48.9162 71.7171 50.7323 74.4525 50.7323 74.4525L47.9771 73.2295C47.9771 73.2295 46.8909 76.8477 49.9722 82.0734C50.5757 83.1122 51.2604 84.1016 52.0199 85.0324L48.44 84.7696C48.44 84.7696 54.0796 93.1094 63.3508 91.1516C68.0969 99.3319 78.0849 97.929 78.0849 97.929L75.493 95.4521C76.6947 95.3919 77.8898 95.237 79.0672 94.9891C85.023 93.7744 86.991 90.5482 86.991 90.5482L84.2358 89.3252C84.2358 89.3252 87.4895 88.8399 91.4207 86.2442Z" fill="#87E196"/>
<path d="M95.4926 67.88C95.4232 67.7426 95.3274 67.6202 95.2107 67.5199C95.094 67.4195 94.9587 67.3431 94.8125 67.295C94.6662 67.247 94.512 67.2282 94.3585 67.2398C94.205 67.2513 94.0553 67.293 93.9179 67.3625C93.8921 67.3755 91.3205 68.6713 89.0239 69.5356C82.4831 71.9965 76.2608 71.5297 73.5624 71.1431L76.0246 65.6261C76.3849 65.6407 76.8478 65.6535 77.3933 65.6535C79.733 65.6535 83.5742 65.4248 87.1924 64.1842C91.7634 62.6168 94.0678 61.2607 94.1636 61.2037C94.4286 61.044 94.6198 60.786 94.6953 60.4859C94.7708 60.1858 94.7246 59.8681 94.5667 59.6019C94.4088 59.3358 94.1521 59.1429 93.8525 59.0654C93.5529 58.9879 93.2348 59.032 92.9677 59.1881C92.946 59.201 90.7464 60.4878 86.4321 61.9672C82.973 63.1537 79.1811 63.3213 77.0611 63.3034L79.6048 57.6035C81.0989 57.3667 84.8416 56.6592 88.2336 55.091C90.7892 53.9095 92.2033 53.1602 92.2628 53.1282C92.5321 52.9797 92.7323 52.7312 92.8201 52.4365C92.9079 52.1417 92.8763 51.8242 92.7321 51.5525C92.5879 51.2809 92.3427 51.0768 92.0494 50.9843C91.756 50.8918 91.4381 50.9183 91.1642 51.0582C91.1495 51.0655 89.7405 51.8117 87.2505 52.9625C84.9824 54.0128 82.4819 54.6512 80.7646 55.0055L83.7433 48.3308C84.8003 47.9954 85.8359 47.5961 86.8445 47.135C89.4 45.9536 90.8142 45.2042 90.8738 45.1729C91.1432 45.0244 91.3433 44.7759 91.4311 44.4812C91.5189 44.1864 91.4873 43.8689 91.3432 43.5973C91.199 43.3256 90.9537 43.1215 90.6604 43.029C90.3671 42.9365 90.0491 42.9631 89.7752 43.1029C89.7613 43.1102 88.3515 43.8566 85.8616 45.0072C85.6077 45.1244 85.3448 45.2393 85.073 45.352L89.5336 35.3567C89.5974 35.216 89.6327 35.0641 89.6375 34.9097C89.6423 34.7553 89.6166 34.6015 89.5618 34.4571C89.507 34.3127 89.4241 34.1806 89.3181 34.0683C89.212 33.956 89.0848 33.8658 88.9438 33.8029C88.8027 33.7399 88.6506 33.7055 88.4962 33.7016C88.3418 33.6976 88.1881 33.7242 88.0441 33.7798C87.9 33.8355 87.7683 33.9191 87.6566 34.0258C87.545 34.1325 87.4555 34.2602 87.3934 34.4016L82.9288 44.4049C82.8311 44.128 82.7406 43.8556 82.6571 43.5876C81.8482 40.9723 81.4606 39.4284 81.4569 39.4128C81.3817 39.1113 81.1897 38.852 80.9232 38.692C80.6568 38.532 80.3377 38.4844 80.0361 38.5596C79.7345 38.6349 79.4752 38.8269 79.3152 39.0933C79.1552 39.3598 79.1076 39.6789 79.1829 39.9805C79.199 40.0451 79.5876 41.5951 80.4181 44.2799C80.7495 45.3354 81.145 46.3697 81.6022 47.377L78.6213 54.0567C77.7359 52.5479 76.5375 50.2659 75.8004 47.8828C74.9915 45.2675 74.604 43.7236 74.6003 43.708C74.563 43.5587 74.4966 43.4182 74.405 43.2945C74.3134 43.1708 74.1983 43.0664 74.0664 42.9872C73.9344 42.908 73.7881 42.8556 73.6359 42.8329C73.4836 42.8102 73.3284 42.8178 73.1791 42.8551C73.0298 42.8924 72.8893 42.9587 72.7656 43.0503C72.6419 43.142 72.5375 43.257 72.4583 43.389C72.3791 43.521 72.3266 43.6672 72.304 43.8195C72.2813 43.9717 72.2888 44.1269 72.3261 44.2763C72.3422 44.3409 72.7309 45.8909 73.5613 48.5757C74.6627 52.1367 76.6394 55.3827 77.4639 56.6502L74.9189 62.3539C73.4874 60.7962 71.0731 57.8738 69.6406 54.5146C67.8581 50.3346 67.3433 47.8449 67.337 47.8131C67.2761 47.5083 67.0967 47.2402 66.8381 47.0677C66.5796 46.8952 66.2631 46.8325 65.9583 46.8933C65.6535 46.9542 65.3854 47.1336 65.2129 47.3922C65.0404 47.6508 64.9777 47.9673 65.0385 48.2721C65.0603 48.3812 65.5925 50.9967 67.4848 55.434C69.3312 59.7639 72.5483 63.3126 73.8838 64.6735L71.4206 70.1933C69.3277 68.4539 64.8129 64.1556 62.2679 57.6599C61.3744 55.3801 60.6188 52.6074 60.6113 52.5797C60.5721 52.43 60.5036 52.2896 60.4098 52.1665C60.316 52.0434 60.1988 51.9401 60.0649 51.8626C59.9309 51.785 59.783 51.7348 59.6295 51.7148C59.4761 51.6947 59.3202 51.7052 59.1708 51.7458C59.0215 51.7863 58.8816 51.856 58.7594 51.9509C58.6371 52.0457 58.5348 52.1639 58.4585 52.2985C58.3821 52.4331 58.3331 52.5815 58.3144 52.7351C58.2957 52.8887 58.3076 53.0445 58.3495 53.1935C58.3814 53.3116 59.145 56.1141 60.0857 58.5148C63.0661 66.1219 68.4102 70.8328 70.4296 72.4136L68.0258 77.8001C67.0079 77.2142 66.0297 76.5619 65.0974 75.8476C63.0162 74.2656 59.9243 71.4904 57.0148 67.2506C56.2041 66.069 55.4602 64.3913 55.0892 63.4966C55.0302 63.3545 54.9438 63.2253 54.8349 63.1165C54.7261 63.0078 54.5968 62.9215 54.4546 62.8627C54.3124 62.8038 54.16 62.7736 54.0061 62.7737C53.8522 62.7737 53.6998 62.8041 53.5577 62.8631C53.4155 62.922 53.2864 63.0084 53.1776 63.1173C53.0688 63.2262 52.9825 63.3554 52.9237 63.4976C52.8649 63.6398 52.8346 63.7922 52.8347 63.9461C52.8348 64.1 52.8652 64.2524 52.9241 64.3946C53.4204 65.5908 54.1975 67.2873 55.0823 68.5767C59.8083 75.4638 64.9761 78.799 67.0654 79.9524L64.6865 85.2829C62.2216 84.101 59.93 82.5874 57.8754 80.7843C55.8953 79.0808 54.2708 76.483 54.2398 76.4337C54.0747 76.1731 53.8134 75.9882 53.5128 75.9191C53.2121 75.85 52.8964 75.9022 52.634 76.0644C52.3716 76.2265 52.1837 76.4857 52.1111 76.7855C52.0386 77.0853 52.0871 77.4017 52.2463 77.6659C52.3196 77.7853 54.0774 80.6092 56.3479 82.5613C58.573 84.5148 61.0574 86.1514 63.7307 87.4245L62.7639 89.5925C62.6372 89.8764 62.6285 90.1989 62.7396 90.4892C62.8508 90.7794 63.0727 91.0137 63.3565 91.1403C63.6404 91.267 63.9629 91.2757 64.2532 91.1646C64.5434 91.0535 64.7777 90.8316 64.9043 90.5477L65.8736 88.3757C68.614 89.506 71.4974 90.2523 74.4421 90.5936C75.156 90.6797 75.8745 90.7214 76.5935 90.7184C78.0135 90.7126 79.4307 90.5912 80.831 90.3555C81.1354 90.2985 81.4049 90.1232 81.5805 89.868C81.7561 89.6129 81.8235 89.2986 81.768 88.9938C81.7125 88.6891 81.5386 88.4187 81.2844 88.2418C81.0301 88.0649 80.7162 87.9958 80.4112 88.0497C80.3807 88.0553 77.3417 88.5967 74.7346 88.2679C72.0189 87.9529 69.3589 87.2686 66.8284 86.2338L69.2072 80.9035C70.9127 81.4903 74.7318 82.5495 80.0877 82.5495C81.9663 82.5477 83.8426 82.4212 85.7044 82.1707C87.2571 81.9635 89.0401 81.404 90.263 80.9713C90.4081 80.92 90.5416 80.8405 90.656 80.7376C90.7704 80.6346 90.8634 80.5101 90.9297 80.3712C90.9959 80.2323 91.0342 80.0817 91.0423 79.928C91.0504 79.7744 91.0281 79.6206 90.9767 79.4755C90.9254 79.3304 90.846 79.1969 90.743 79.0825C90.64 78.9681 90.5155 78.8751 90.3766 78.8088C90.2377 78.7425 90.0871 78.7043 89.9335 78.6962C89.7798 78.6881 89.626 78.7104 89.4809 78.7618C88.5657 79.0858 86.8178 79.6575 85.394 79.8476C77.8518 80.8546 72.3285 79.4537 70.1688 78.749L72.5712 73.3663C74.3912 73.6705 76.2337 73.8204 78.079 73.8142C82.0956 73.8296 86.0824 73.1237 89.8495 71.7299C92.2665 70.8201 94.8657 69.5104 94.9751 69.4552C95.1125 69.3858 95.235 69.29 95.3354 69.1732C95.4358 69.0565 95.5122 68.9211 95.5603 68.7748C95.6083 68.6285 95.6271 68.4742 95.6155 68.3207C95.6039 68.1672 95.5621 68.0174 95.4926 67.88Z" fill="#69C378"/>
</svg>
