<svg width="39" height="60" viewBox="0 0 39 60" fill="none" xmlns="http://www.w3.org/2000/svg">
<path d="M27.256 23.7867C27.256 23.7867 26.078 20.6656 28.2056 17.2828C30.3368 13.9034 33.4848 13.2112 33.4848 13.2112C33.4848 13.2112 34.7762 16.9023 32.6998 20.1967C30.6249 23.494 27.256 23.7867 27.256 23.7867Z" fill="#FEC037"/>
<path d="M21.6477 24.3735C21.6477 24.3735 18.488 23.268 17.4507 19.5818C16.4128 15.8979 18.7372 12.6588 18.7372 12.6588C18.7372 12.6588 21.5666 14.0961 22.6328 17.8786C23.6975 21.6583 21.6477 24.3735 21.6477 24.3735Z" fill="#FEC037"/>
<path d="M20.2448 28.5428C20.8439 32.4692 18.5026 34.8883 18.5026 34.8883C18.5026 34.8883 15.52 33.3282 14.9371 29.5047C14.3574 25.6771 17.0309 22.7784 17.0309 22.7784C17.0309 22.7784 19.6457 24.6164 20.2448 28.5428Z" fill="#FEC037"/>
<path d="M12.216 29.5533C12.216 29.5533 14.6501 31.6669 14.9077 35.6529C15.1636 39.6458 12.6398 41.8209 12.6398 41.8209C12.6398 41.8209 9.82146 39.9538 9.57011 36.0658C9.32084 32.1784 12.216 29.5533 12.216 29.5533Z" fill="#FEC037"/>
<path d="M4.98413 48.3719C4.98413 48.3719 2.81454 45.6602 3.59715 41.8013C4.38243 37.9406 7.80355 36.3089 7.80355 36.3089C7.80355 36.3089 9.54462 39.1347 8.74092 43.0946C7.93572 47.0516 4.98413 48.3719 4.98413 48.3719Z" fill="#FEC037"/>
<path d="M24.93 15.6437C24.93 15.6437 22.338 13.856 22.4609 9.84021C22.5817 5.82387 24.9383 3.34443 24.9383 3.34443C24.9383 3.34443 27.9138 5.52078 27.7956 9.4389C27.6759 13.3542 24.93 15.6437 24.93 15.6437Z" fill="#FEC037"/>
<path d="M25.2125 31.8756C25.2125 31.8756 24.9452 28.4632 27.8536 25.8736C30.7668 23.2827 33.9116 23.6305 33.9116 23.6305C33.9116 23.6305 34.1342 27.6323 31.2973 30.1584C28.4599 32.6868 25.2125 31.8756 25.2125 31.8756Z" fill="#FEC037"/>
<path d="M20.7446 39.5712C20.7446 39.5712 21.179 36.141 24.5049 34.2973C27.8357 32.4523 30.7955 33.5666 30.7955 33.5666C30.7955 33.5666 30.2008 37.5694 26.9575 39.3673C23.7106 41.1618 20.7446 39.5712 20.7446 39.5712Z" fill="#FEC037"/>
<path d="M15.3998 45.5175C15.3998 45.5175 16.7478 42.338 20.3775 41.6638C24.0104 40.9855 26.4768 43.0504 26.4768 43.0504C26.4768 43.0504 24.814 46.7287 21.276 47.3915C17.7398 48.0474 15.3998 45.5175 15.3998 45.5175Z" fill="#FEC037"/>
<path d="M13.1018 47.9673C16.7576 47.7693 18.9695 50.1556 18.9695 50.1556C18.9695 50.1556 16.9303 53.6102 13.3686 53.8047C9.80277 53.9982 7.77095 51.1631 7.77095 51.1631C7.77095 51.1631 9.44658 48.1629 13.1018 47.9673Z" fill="#FEC037"/>
<path d="M24.0037 17.8223L25.7189 17.3784C25.7518 17.582 28.8672 37.8725 1.84732 53.0941L1.11697 51.3989C26.8432 36.9034 24.1327 18.5941 24.0037 17.8223Z" fill="#FEC037"/>
</svg>
