<svg width="38" height="60" viewBox="0 0 38 60" fill="none" xmlns="http://www.w3.org/2000/svg">
<path d="M11.4598 23.7867C11.4598 23.7867 12.6378 20.6656 10.5102 17.2828C8.37899 13.9034 5.23099 13.2112 5.23099 13.2112C5.23099 13.2112 3.93962 16.9023 6.01602 20.1967C8.09092 23.494 11.4598 23.7867 11.4598 23.7867Z" fill="#FEC037"/>
<path d="M17.0681 24.3735C17.0681 24.3735 20.2278 23.268 21.2651 19.5818C22.303 15.8979 19.9786 12.6588 19.9786 12.6588C19.9786 12.6588 17.1492 14.0961 16.083 17.8786C15.0183 21.6583 17.0681 24.3735 17.0681 24.3735Z" fill="#FEC037"/>
<path d="M18.471 28.5428C17.872 32.4692 20.2132 34.8883 20.2132 34.8883C20.2132 34.8883 23.1958 33.3282 23.7787 29.5047C24.3584 25.6771 21.6849 22.7784 21.6849 22.7784C21.6849 22.7784 19.0701 24.6164 18.471 28.5428Z" fill="#FEC037"/>
<path d="M26.4998 29.5533C26.4998 29.5533 24.0657 31.6669 23.8081 35.6529C23.5522 39.6458 26.076 41.8209 26.076 41.8209C26.076 41.8209 28.8944 39.9538 29.1457 36.0658C29.395 32.1784 26.4998 29.5533 26.4998 29.5533Z" fill="#FEC037"/>
<path d="M33.7317 48.3719C33.7317 48.3719 35.9013 45.6602 35.1187 41.8013C34.3334 37.9406 30.9123 36.3089 30.9123 36.3089C30.9123 36.3089 29.1712 39.1347 29.9749 43.0946C30.7801 47.0516 33.7317 48.3719 33.7317 48.3719Z" fill="#FEC037"/>
<path d="M13.7858 15.6437C13.7858 15.6437 16.3778 13.856 16.2549 9.84021C16.1341 5.82387 13.7775 3.34443 13.7775 3.34443C13.7775 3.34443 10.802 5.52078 10.9202 9.4389C11.0399 13.3542 13.7858 15.6437 13.7858 15.6437Z" fill="#FEC037"/>
<path d="M13.5033 31.8756C13.5033 31.8756 13.7706 28.4632 10.8622 25.8736C7.94902 23.2827 4.80421 23.6305 4.80421 23.6305C4.80421 23.6305 4.58165 27.6323 7.4185 30.1584C10.2559 32.6868 13.5033 31.8756 13.5033 31.8756Z" fill="#FEC037"/>
<path d="M17.9713 39.5712C17.9713 39.5712 17.5368 36.141 14.2109 34.2973C10.8802 32.4523 7.92032 33.5666 7.92032 33.5666C7.92032 33.5666 8.51507 37.5694 11.7584 39.3673C15.0053 41.1618 17.9713 39.5712 17.9713 39.5712Z" fill="#FEC037"/>
<path d="M23.316 45.5175C23.316 45.5175 21.968 42.338 18.3383 41.6638C14.7054 40.9855 12.239 43.0504 12.239 43.0504C12.239 43.0504 13.9018 46.7287 17.4398 47.3915C20.9761 48.0474 23.316 45.5175 23.316 45.5175Z" fill="#FEC037"/>
<path d="M25.614 47.9673C21.9582 47.7693 19.7463 50.1556 19.7463 50.1556C19.7463 50.1556 21.7855 53.6102 25.3472 53.8047C28.913 53.9982 30.9449 51.1631 30.9449 51.1631C30.9449 51.1631 29.2692 48.1629 25.614 47.9673Z" fill="#FEC037"/>
<path d="M14.7122 17.8223L12.9969 17.3784C12.964 17.582 9.84857 37.8725 36.8685 53.0941L37.5989 51.3989C11.8726 36.9034 14.5832 18.5941 14.7122 17.8223Z" fill="#FEC037"/>
</svg>
