<svg width="113" height="113" viewBox="0 0 113 113" fill="none" xmlns="http://www.w3.org/2000/svg">
<path d="M49.775 1.70335C51.1665 4.26503 55.1962 4.02589 56.2749 1.3176C57.3537 4.02589 61.3834 4.26503 62.7749 1.70335C63.5258 4.52021 67.4989 5.23427 69.1837 2.85515C69.5961 5.74106 73.4569 6.92002 75.4112 4.75685C75.4794 7.67128 79.1736 9.29859 81.3701 7.38177C81.0931 10.2838 84.569 12.3366 86.9767 10.693C86.3585 13.5419 89.5671 15.9914 92.1523 14.6441C91.2015 17.4 94.0979 20.2118 96.8243 19.1797C95.5542 21.8037 98.0977 24.9383 100.927 24.2359C99.3555 26.6913 101.51 30.1048 104.403 29.742C102.552 31.9942 104.288 35.6386 107.203 35.6205C105.099 37.638 106.392 41.4621 109.289 41.7889C106.961 43.5434 107.792 47.4936 110.63 48.1607C108.111 49.6275 108.469 53.6483 111.208 54.6464C108.533 55.805 108.413 59.8399 111.015 61.1549C108.222 61.989 107.626 65.9815 110.054 67.595C107.181 68.0928 106.117 71.9868 108.337 73.8761C105.426 74.0307 103.909 77.7715 105.89 79.9102C102.981 79.7194 101.032 83.2545 102.747 85.6125C99.8807 85.0789 97.5273 88.3587 98.9506 90.9029C96.1679 90.0342 93.4431 93.0126 94.5555 95.7072C91.895 94.5155 88.8372 97.1507 89.6231 99.958C87.1222 98.4599 83.7741 100.715 84.2225 103.596C81.9163 101.812 78.325 103.656 78.4295 106.569C76.3505 104.525 72.5664 105.931 72.3256 108.836C70.5029 106.561 66.5791 107.509 65.9964 110.366C64.4555 107.891 60.4471 108.368 59.5307 111.136C58.2933 108.496 54.2566 108.496 53.0192 111.136C52.1028 108.368 48.0944 107.891 46.5535 110.366C45.9708 107.509 42.047 106.561 40.2243 108.836C39.9835 105.931 36.1994 104.525 34.1204 106.569C34.2249 103.656 30.6336 101.812 28.3274 103.596C28.7758 100.715 25.4277 98.46 22.9268 99.958C23.7127 97.1507 20.6548 94.5155 17.9943 95.7072C19.1068 93.0126 16.382 90.0342 13.5993 90.9029C15.0226 88.3587 12.6692 85.0789 9.80324 85.6125C11.5175 83.2545 9.56856 79.7194 6.65958 79.9102C8.64066 77.7715 7.12354 74.0307 4.21241 73.8761C6.43253 71.9868 5.3685 68.0928 2.49608 67.595C4.92408 65.9815 4.32807 61.989 1.5347 61.1549C4.13649 59.8399 4.01686 55.8049 1.34174 54.6464C4.0808 53.6483 4.43925 49.6275 1.91993 48.1607C4.75781 47.4936 5.58929 43.5434 3.26114 41.7889C6.158 41.4621 7.45085 37.638 5.34655 35.6205C8.26172 35.6386 9.99779 31.9942 8.14688 29.742C11.0395 30.1048 13.1944 26.6913 11.6228 24.2359C14.4522 24.9383 16.9957 21.8037 15.7256 19.1797C18.452 20.2117 21.3484 17.4 20.3976 14.6441C22.9828 15.9914 26.1914 13.5419 25.5732 10.693C27.9809 12.3366 31.4567 10.2838 31.1798 7.38176C33.3763 9.29859 37.0705 7.67129 37.1387 4.75686C39.093 6.92001 42.9538 5.74106 43.3662 2.85515C45.051 5.23427 49.0241 4.52021 49.775 1.70335Z" fill="#FEC037" stroke="white" stroke-width="0.530829"/>
</svg>
