<svg width="88" height="88" viewBox="0 0 88 88" fill="none" xmlns="http://www.w3.org/2000/svg">
<path d="M19.0125 77.0903C12.4037 74.0986 7.00916 68.9976 3.6991 62.6102C0.38905 56.2228 -0.64348 48.9215 0.76809 41.8841L6.38515 11.7425C24.9366 11.4144 36.58 5.94597 43.6926 0.314636C50.8029 5.94597 62.4511 11.4144 81.0025 11.7425L86.6195 41.8864C88.0305 48.9234 86.9977 56.2243 83.6877 62.6112C80.3777 68.9981 74.9835 74.0987 68.3751 77.0903L43.6926 87.5154L19.0125 77.0903Z" fill="#6D87F7"/>
<path d="M22.6735 68.6525C17.9982 66.4879 14.1975 62.8336 11.8836 58.2783C9.56976 53.7229 8.87746 48.5318 9.91825 43.541L14.2119 20.5085C24.6043 19.7459 34.6852 16.6629 43.6927 11.4924C52.7004 16.6625 62.7812 19.7455 73.1735 20.5085L77.4671 43.5524C78.5077 48.542 77.8155 53.7319 75.502 58.2861C73.1885 62.8402 69.3886 66.4934 64.7142 68.6571L43.6927 77.5286L22.6735 68.6525Z" fill="#F6F8FF"/>
<path d="M40.2387 30.4746C39.71 30.1613 39.0769 30.068 38.4784 30.2151C37.88 30.3623 37.3653 30.7379 37.0476 31.2594L32.0632 39.454L27.0788 31.2594C26.9244 30.9954 26.7183 30.7643 26.4724 30.5796C26.2265 30.395 25.9459 30.2606 25.6467 30.1842C25.3476 30.1078 25.0361 30.091 24.7303 30.1347C24.4245 30.1784 24.1306 30.2818 23.8658 30.4388C23.6009 30.5958 23.3705 30.8033 23.1878 31.0492C23.0052 31.2951 22.874 31.5744 22.802 31.8708C22.73 32.1673 22.7185 32.4749 22.7683 32.7757C22.8182 33.0766 22.9282 33.3646 23.0922 33.623L29.3512 43.915L23.0922 54.207C22.9282 54.4654 22.8182 54.7534 22.7683 55.0543C22.7185 55.3551 22.73 55.6628 22.802 55.9592C22.874 56.2557 23.0052 56.535 23.1878 56.7808C23.3705 57.0267 23.6009 57.2342 23.8658 57.3912C24.1306 57.5482 24.4245 57.6516 24.7303 57.6953C25.0361 57.7391 25.3476 57.7222 25.6467 57.6458C25.9459 57.5694 26.2265 57.435 26.4724 57.2504C26.7183 57.0658 26.9244 56.8347 27.0788 56.5706L32.0632 48.376L37.0476 56.5706C37.2019 56.8347 37.408 57.0658 37.6539 57.2504C37.8998 57.435 38.1805 57.5694 38.4796 57.6458C38.7787 57.7222 39.0902 57.7391 39.396 57.6953C39.7018 57.6516 39.9957 57.5482 40.2605 57.3912C40.5254 57.2342 40.7558 57.0267 40.9385 56.7808C41.1211 56.535 41.2523 56.2557 41.3243 55.9592C41.3964 55.6628 41.4078 55.3551 41.358 55.0543C41.3082 54.7534 41.1981 54.4654 41.0342 54.207L34.7752 43.915L41.0342 33.623C41.3518 33.1014 41.4464 32.4767 41.2972 31.8863C41.148 31.2959 40.7673 30.7881 40.2387 30.4746Z" fill="#285680"/>
<path d="M55.3222 30.1465H48.3445C47.7276 30.1465 47.136 30.3882 46.6998 30.8186C46.2636 31.2489 46.0186 31.8326 46.0186 32.4412V55.3888C46.0186 55.9974 46.2636 56.5811 46.6998 57.0114C47.136 57.4418 47.7276 57.6835 48.3445 57.6835C48.9613 57.6835 49.5529 57.4418 49.9891 57.0114C50.4253 56.5811 50.6704 55.9974 50.6704 55.3888V48.5045H55.3222C57.7896 48.5045 60.1561 47.5374 61.9008 45.816C63.6456 44.0946 64.6258 41.7599 64.6258 39.3255C64.6258 36.891 63.6456 34.5563 61.9008 32.8349C60.1561 31.1135 57.7896 30.1465 55.3222 30.1465ZM55.3222 43.915H50.6704V34.736H55.3222C56.5559 34.736 57.7391 35.2195 58.6115 36.0802C59.4839 36.9409 59.974 38.1083 59.974 39.3255C59.974 40.5427 59.4839 41.7101 58.6115 42.5708C57.7391 43.4315 56.5559 43.915 55.3222 43.915Z" fill="#285680"/>
</svg>
