<svg width="44" height="44" viewBox="0 0 44 44" fill="none" xmlns="http://www.w3.org/2000/svg">
<g clip-path="url(#clip0_1796_2426)">
<path d="M0 22.0005C0 34.1517 9.84895 44.0003 21.9997 44C34.151 44.0003 44 34.1517 44 22.0005C44.0008 9.8493 34.151 0 21.9997 0C9.84895 0 0 9.84964 0 22.0005Z" fill="#14D15D"/>
<path d="M43.7432 25.37C43.7033 25.3291 31.7456 13.3737 31.6994 13.3262C29.313 10.7865 25.9188 9.24097 22.2338 9.24097C17.1862 9.24097 12.7402 12.0804 10.6135 16.4644C10.5738 16.4094 8.56532 14.4008 8.51083 14.3624C8.35211 14.1408 8.06662 14.0396 7.80073 14.1448C7.48895 14.2691 7.33736 14.6228 7.46162 14.9342L9.40235 19.7948C9.44609 19.9042 9.5273 19.9877 9.62149 20.0549C9.66076 20.1102 22.9855 33.4449 23.0131 33.4714C22.6018 33.5141 22.1869 33.5438 21.7652 33.5438C20.7569 33.5438 19.7729 33.4155 18.8306 33.1743C18.8085 33.1519 18.7853 33.1309 18.7601 33.1123C18.7216 33.0563 10.3982 24.7364 10.3446 24.6968C10.2033 24.4913 9.94831 24.382 9.69428 24.4504C9.36969 24.5353 9.17573 24.8675 9.2609 25.1921C9.83092 27.3622 10.9483 29.2759 12.4383 30.8139C12.4836 30.8622 25.2961 43.6702 25.3422 43.7177C25.3505 43.7266 25.3595 43.7348 25.368 43.7435C34.8216 42.2915 42.2905 34.8231 43.7432 25.37Z" fill="#00A941"/>
<path d="M9.74 20.1334C9.81296 20.1627 9.88979 20.1773 9.9667 20.1773C10.0528 20.1773 10.1385 20.1592 10.2182 20.1227L14.9607 17.9659C15.2659 17.8271 15.4012 17.4669 15.2621 17.1614C15.123 16.8559 14.7619 16.7209 14.4575 16.86L11.133 18.3717C12.7284 13.6274 17.1482 10.4561 22.2337 10.4561C27.5623 10.4561 32.2215 14.0175 33.5637 19.1167C33.6354 19.3893 33.8816 19.5701 34.1511 19.5701C34.2021 19.5701 34.2543 19.5635 34.3059 19.5499C34.6305 19.4644 34.8242 19.1319 34.739 18.8076C33.2564 13.1748 28.1139 9.24097 22.2337 9.24097C16.625 9.24097 11.749 12.7403 9.98466 17.9767L8.59015 14.4838C8.46589 14.1721 8.11363 14.021 7.80073 14.1447C7.48895 14.269 7.33736 14.6227 7.46162 14.9342L9.40235 19.7947C9.46414 19.9491 9.58608 20.0718 9.74 20.1334Z" fill="#F4F6F9"/>
<path d="M36.5383 29.0659L34.5995 24.2053C34.5381 24.0511 34.4162 23.9282 34.2619 23.8666C34.1088 23.8055 33.9359 23.809 33.7839 23.8773L29.0393 26.0323C28.7338 26.1711 28.5988 26.5313 28.7372 26.8363C28.8758 27.1418 29.2353 27.2772 29.5418 27.1384L32.8665 25.6284C31.2666 30.3727 26.8462 33.544 21.765 33.544C16.4339 33.544 11.7751 29.9828 10.4359 24.8837C10.3505 24.5591 10.0176 24.3634 9.69391 24.4506C9.36933 24.5355 9.17537 24.8676 9.26053 25.1922C10.74 30.8253 15.8822 34.7591 21.765 34.7591C27.3701 34.7591 32.2472 31.2587 34.0153 26.0208L35.4094 29.5158C35.5044 29.7538 35.7325 29.8985 35.974 29.8985C36.0488 29.8985 36.125 29.8848 36.1989 29.8551C36.5107 29.7311 36.6626 29.3774 36.5383 29.0659Z" fill="#F4F6F9"/>
</g>
<defs>
<clipPath id="clip0_1796_2426">
<rect width="44" height="44" fill="white"/>
</clipPath>
</defs>
</svg>
