<svg width="26" height="26" viewBox="0 0 26 26" fill="none" xmlns="http://www.w3.org/2000/svg">
<g clip-path="url(#clip0_314_101)">
<path d="M13.5715 25.2194C6.96367 25.5646 1.30702 20.4695 0.961879 13.8617C0.616735 7.25395 5.71179 1.59726 12.3196 1.25211C18.9275 0.906965 24.5841 6.00202 24.9292 12.6099C25.2744 19.2177 20.1793 24.8743 13.5715 25.2194Z" fill="#FEC037"/>
<path d="M12.3196 1.25214L13.5715 25.2195C20.1793 24.8743 25.2743 19.2177 24.9292 12.6098C24.584 6.002 18.9274 0.906993 12.3196 1.25214Z" fill="#FEC037"/>
<path d="M13.4248 22.4108C8.36565 22.675 4.03475 18.7741 3.77049 13.715C3.50624 8.65584 7.40717 4.32499 12.4663 4.06074C17.5254 3.79649 21.8563 7.69742 22.1206 12.7565C22.3848 17.8157 18.4838 22.1465 13.4248 22.4108Z" fill="#FDCD63"/>
<path d="M12.4663 4.06079L13.4248 22.4108C18.4839 22.1466 22.3848 17.8157 22.1206 12.7565C21.8563 7.69742 17.5254 3.79654 12.4663 4.06079Z" fill="#FFB81D"/>
<path d="M16.5614 16.6364L9.68982 16.9953C9.37576 17.0117 9.08896 16.8175 8.98756 16.5198L7.45096 12.0078C7.36918 11.7676 7.42313 11.502 7.59213 11.3128C7.76114 11.1236 8.01898 11.04 8.26683 11.0942L10.4211 11.5656L12.1698 9.04346C12.2938 8.86462 12.4937 8.75326 12.711 8.74191C12.9283 8.73056 13.1386 8.82049 13.2806 8.98544L15.2826 11.3116L17.3759 10.6185C17.6171 10.5386 17.8826 10.595 18.0704 10.7662C18.2583 10.9373 18.3392 11.1964 18.2821 11.444L17.2099 16.0922C17.1393 16.398 16.8748 16.62 16.5614 16.6364Z" fill="#DF9A00"/>
<path d="M18.0704 10.7662C17.8825 10.5951 17.6171 10.5386 17.3759 10.6185L15.2825 11.3117L13.2805 8.98547C13.1386 8.82053 12.9282 8.73059 12.7109 8.74194L13.1326 16.8155L16.5615 16.6364C16.8748 16.62 17.1394 16.3979 17.2099 16.0922L18.2821 11.444C18.3391 11.1965 18.2582 10.9373 18.0704 10.7662Z" fill="#DF9A00"/>
</g>
<defs>
<clipPath id="clip0_314_101">
<rect width="24" height="24" fill="white" transform="translate(0.335938 1.87805) rotate(-2.99)"/>
</clipPath>
</defs>
</svg>
