<svg width="15" height="15" viewBox="0 0 15 15" fill="none" xmlns="http://www.w3.org/2000/svg">
<g clip-path="url(#clip0_314_160)">
<path d="M7.50001 15C3.36449 15 0 11.6355 0 7.50001C0 3.36452 3.36449 0 7.50001 0C11.6355 0 15 3.36449 15 7.50001C15 11.6355 11.6355 15 7.50001 15Z" fill="white"/>
<path d="M7.5 0V15C11.6355 15 15 11.6355 15 7.49999C15 3.36446 11.6355 0 7.5 0Z" fill="white"/>
<path d="M7.50003 13.2422C4.33377 13.2422 1.75781 10.6663 1.75781 7.5C1.75781 4.33374 4.33377 1.75781 7.50003 1.75781C10.6663 1.75781 13.2422 4.33377 13.2422 7.50003C13.2422 10.6663 10.6663 13.2422 7.50003 13.2422Z" fill="#E6E6E6"/>
<path d="M7.5 1.75781V13.2422C10.6663 13.2422 13.2422 10.6663 13.2422 7.5C13.2422 4.33374 10.6662 1.75781 7.5 1.75781Z" fill="#DADADA"/>
<path d="M9.64601 9.74035H5.34542C5.14887 9.74035 4.97619 9.6098 4.92261 9.42066L4.11064 6.55443C4.06742 6.40185 4.10976 6.23785 4.22141 6.12523C4.33306 6.01264 4.49672 5.9689 4.64965 6.01082L5.97886 6.37522L7.15256 4.85807C7.23579 4.75049 7.36415 4.6875 7.50014 4.6875C7.63614 4.6875 7.76449 4.75049 7.84772 4.85807L9.02143 6.37522L10.3506 6.01082C10.5037 5.96884 10.6676 6.01273 10.7793 6.12567C10.8909 6.23858 10.9329 6.40297 10.8892 6.55563L10.0685 9.42186C10.0145 9.61039 9.84213 9.74035 9.64601 9.74035Z" fill="white"/>
<path d="M10.7791 6.12573C10.6674 6.01282 10.5036 5.9689 10.3504 6.01088L9.02128 6.37528L7.84758 4.85813C7.76435 4.75055 7.636 4.68756 7.5 4.68756V9.74038H9.64593C9.84204 9.74038 10.0144 9.61042 10.0684 9.42189L10.8891 6.55567C10.9328 6.40303 10.8908 6.23864 10.7791 6.12573Z" fill="white"/>
</g>
<defs>
<clipPath id="clip0_314_160">
<rect width="15" height="15" fill="white"/>
</clipPath>
</defs>
</svg>
