<svg width="184" height="298" viewBox="0 0 184 298" fill="none" xmlns="http://www.w3.org/2000/svg">
<mask id="mask0_398_1109" style="mask-type:luminance" maskUnits="userSpaceOnUse" x="0" y="0" width="319" height="298">
<path d="M319 0H0V298H319V0Z" fill="white"/>
</mask>
<g mask="url(#mask0_398_1109)">
<path d="M118.945 33.5549L119.378 34.389C119.656 34.9142 120.088 35.6866 120.613 36.706L122.435 40.3514C123.114 41.7416 123.917 43.4407 124.72 45.0781C125.523 46.7154 126.45 48.6926 127.376 50.7006C128.303 52.7087 129.26 54.8094 130.248 56.8792C131.236 58.9491 132.225 61.3588 133.336 63.6757L136.425 70.7194C137.413 73.0981 138.401 75.446 139.513 77.7939L141.705 84.6831C142.601 86.9074 143.404 89.0699 144.176 91.1397C144.948 93.2096 145.658 95.1558 146.307 96.9785C146.955 98.8012 147.542 100.439 148.036 101.921C148.53 103.404 148.963 104.702 149.333 105.752C149.704 106.803 149.92 107.668 150.105 108.224L150.383 109.12L150.044 108.316L148.808 105.968C148.314 104.98 147.666 103.744 146.986 102.354C146.307 100.964 145.504 99.2646 144.701 97.6273C143.898 95.99 142.972 93.9819 142.045 91.9739C141.119 89.9658 140.13 87.8651 139.173 85.7952C138.216 83.7254 137.197 81.3157 136.085 78.9987C134.973 76.6817 134.078 74.3339 132.997 71.9551C131.916 69.5763 131.051 67.2284 130.125 64.8806C129.198 62.5327 128.272 60.2466 127.407 57.9914C126.542 55.7362 125.708 53.6046 124.936 51.5347C124.164 49.4649 123.454 47.5186 122.806 45.6959C122.157 43.8732 121.57 42.2359 121.076 40.753C120.582 39.2702 120.15 38.0035 119.779 36.9223C119.409 35.841 119.192 35.0069 119.007 34.4508L118.945 33.5549Z" fill="#00B2EA"/>
<path d="M164.341 34.9761C164.341 34.9761 164.341 35.3468 164.341 36.0573V39.1467C164.341 41.8035 164.341 45.6342 164.341 50.2373C164.341 52.5234 164.341 54.9948 164.341 57.6207C164.341 60.2467 164.341 63.027 164.341 65.9001C164.341 68.7732 164.341 71.708 164.094 74.7355C163.847 77.7631 164.094 80.9142 163.847 84.0035C163.6 87.0928 163.322 89.9967 163.322 92.9934C163.322 95.99 163.075 98.9558 162.982 101.829C162.735 107.544 162.457 112.889 162.21 117.461C161.963 122.033 161.685 125.864 161.531 128.551C161.531 129.88 161.531 130.93 161.315 131.641C161.099 132.351 161.315 132.722 161.315 132.722V131.641C161.315 130.93 161.315 129.88 161.315 128.551C161.315 125.895 161.315 122.064 161.315 117.461C161.315 112.858 161.315 107.544 161.593 101.798C161.593 98.9557 161.593 95.99 161.809 92.9625C162.025 89.935 161.994 86.7839 162.087 83.6946C162.18 80.6052 162.303 77.5159 162.396 74.4266C162.488 71.3373 162.643 68.4642 162.766 65.5912C162.89 62.7181 163.013 59.9686 163.137 57.3427C163.26 54.7168 163.322 52.5234 163.322 50.2373C163.538 45.6651 163.816 41.8344 163.971 39.1467C163.971 37.8182 163.971 36.7988 164.187 36.0573C164.403 35.3159 164.341 34.9761 164.341 34.9761Z" fill="#CD4492"/>
<path d="M202.17 25.2139C202.17 25.2139 202.17 25.4301 202.17 25.8317C202.17 26.2333 201.892 26.8203 201.675 27.5309C201.243 29.0137 200.595 31.1145 199.761 33.7095C198.927 36.3045 197.877 39.0849 196.673 42.1433C196.086 43.6571 195.468 45.2326 194.82 46.8391C194.171 48.4455 193.492 49.9284 192.812 51.6584C192.133 53.3884 191.423 54.7477 190.712 56.4468C190.002 58.146 189.323 59.5361 188.612 61.0499C187.223 64.1392 185.864 66.7651 184.659 69.113C183.455 71.4609 182.374 73.4072 181.571 74.7356C181.201 75.4152 180.892 75.9404 180.676 76.2802L180.336 76.8363C180.336 76.8363 180.336 76.62 180.336 76.2184L180.83 74.5193C181.262 73.0364 181.911 70.9357 182.745 68.3407C183.579 65.7457 184.629 62.9653 185.833 59.9069C186.42 58.3931 187.037 56.8175 187.686 55.2111C188.334 53.6047 189.014 52.1218 189.693 50.3918C190.373 48.6618 191.083 47.3025 191.793 45.6033C192.503 43.9042 193.183 42.514 193.893 41.0003C195.283 37.9109 196.642 35.285 197.877 32.9372C199.112 30.5893 200.131 28.6739 200.965 27.3146C201.336 26.635 201.675 26.1098 201.861 25.7699L202.17 25.2139Z" fill="#566BB1"/>
<path d="M210.57 57.3118L210.2 58.0841L209.119 60.1848C208.162 62.0075 206.772 64.5717 205.073 67.661C203.375 70.7503 201.275 74.2721 198.897 78.0102C197.785 79.8947 196.581 81.8409 195.376 83.7872C194.172 85.7335 192.906 87.7415 191.64 89.7187C190.373 91.6958 189.138 93.673 187.841 95.5884C186.544 97.5037 185.34 99.4191 184.104 101.242C181.634 104.887 179.287 108.255 177.218 111.128C175.149 114.001 173.512 116.349 172.246 117.986C171.628 118.82 171.103 119.438 170.763 119.87L170.238 120.55C170.238 120.55 170.238 120.272 170.609 119.809L171.69 117.677C172.647 115.854 174.037 113.259 175.735 110.201C177.434 107.142 179.534 103.59 181.912 99.8516L185.432 94.0746C186.637 92.0974 187.903 90.1203 189.169 88.1431C190.435 86.166 191.701 84.1888 192.968 82.2734C194.234 80.358 195.5 78.4427 196.735 76.62C199.206 72.9746 201.553 69.6072 203.591 66.7342C205.629 63.8611 207.451 61.5132 208.687 59.8759C209.304 59.0418 209.829 58.4239 210.169 57.9914L210.57 57.3118Z" fill="#00B2EA"/>
<path d="M235.431 75.6006L234.752 76.3111L232.899 78.3192C231.293 80.0183 229.008 82.4897 226.198 85.3937L221.658 90.0586L216.593 95.3413C214.802 97.1022 212.98 98.9867 211.096 100.871L205.414 106.463L199.67 112.116C197.817 113.97 195.933 115.793 194.111 117.553C190.498 121.075 187.07 124.319 184.136 127.099C181.202 129.88 178.763 132.166 177.002 133.772C176.138 134.606 175.427 135.193 174.964 135.626L174.254 136.306L174.902 135.502C175.335 135.039 175.952 134.328 176.755 133.494L183.457 126.42C186.267 123.33 189.633 120.241 193.092 116.534L198.558 111.004L204.24 105.32L209.985 99.6972C211.868 97.8128 213.752 96.021 215.543 94.26L220.793 89.1627L225.549 84.6523C228.452 81.8719 230.953 79.5858 232.683 77.9793L234.69 76.1258L235.431 75.6006Z" fill="#CD4492"/>
<path d="M179.039 149.497H180.182H183.27L194.758 150.115L202.386 150.578L210.94 151.134L220.205 151.783L229.47 152.493L238.734 153.266C241.822 153.482 244.911 153.76 247.999 154.007L264.15 155.521L275.546 156.695L278.634 157.066H279.746H278.603H275.515L264.027 156.448L247.844 155.428L238.58 154.78L229.315 154.069L219.896 153.297L210.786 152.524L202.262 151.752L194.635 151.041L183.239 149.868L180.151 149.497H179.039Z" fill="#CD4492"/>
<path d="M171.566 160.402L172.431 161.174L174.84 163.399L178.515 166.859L183.24 171.369C184.938 173.037 186.822 174.86 188.768 176.806C190.713 178.753 192.752 180.761 194.944 182.985C197.137 185.209 199.237 187.31 201.399 189.596L207.976 196.424L214.493 203.344C216.654 205.63 218.723 207.947 220.669 210.14C222.615 212.333 224.591 214.465 226.413 216.504C228.235 218.543 229.964 220.489 231.539 222.281L235.801 227.193C237.067 228.645 238.148 229.973 239.044 231.024L241.113 233.526L241.823 234.391L240.989 233.65L238.581 231.425C237.561 230.468 236.295 229.325 234.906 227.965C233.516 226.606 231.817 225.123 230.181 223.455C228.544 221.787 226.598 219.964 224.653 218.018C222.707 216.072 220.638 214.063 218.476 211.839C216.315 209.615 214.184 207.514 212.022 205.259L205.413 198.401C203.251 196.053 201.059 193.736 198.897 191.45C196.735 189.164 194.697 186.878 192.721 184.684C190.744 182.491 188.768 180.359 186.946 178.32L181.85 172.574C180.244 170.782 178.762 169.114 177.558 167.662L174.469 163.831L172.431 161.329C171.813 160.742 171.566 160.402 171.566 160.402Z" fill="#00B2EA"/>
<path d="M168.109 168.929L168.603 169.825C168.912 170.412 169.406 171.246 169.962 172.358L172.062 176.312L174.687 181.502C175.645 183.387 176.664 185.457 177.775 187.681C178.887 189.905 179.968 192.191 181.08 194.601C182.192 197.011 183.396 199.451 184.539 202.015C185.681 204.579 186.824 207.113 187.997 209.677L191.394 217.431C192.506 219.964 193.525 222.497 194.483 224.938C195.44 227.379 196.49 229.757 197.386 232.012C198.281 234.268 199.146 236.368 199.918 238.191C200.69 240.014 201.369 241.991 201.987 243.597C202.605 245.204 203.099 246.687 203.531 247.799C203.964 248.911 204.241 249.869 204.489 250.487C204.736 251.104 204.797 251.444 204.797 251.444C204.797 251.444 204.643 251.135 204.303 250.579L202.914 248.015L200.844 244.061C200.041 242.516 199.146 240.786 198.219 238.871C197.293 236.955 196.243 234.916 195.131 232.692C194.019 230.468 192.939 228.213 191.827 225.803C190.715 223.393 189.511 220.922 188.368 218.389C187.225 215.855 186.052 213.26 184.909 210.696C183.767 208.132 182.655 205.506 181.512 202.973C180.37 200.44 179.381 197.876 178.424 195.435C177.467 192.994 176.448 190.616 175.521 188.391C174.595 186.167 173.761 184.005 172.989 182.027C172.217 180.05 171.537 178.228 170.92 176.621C170.302 175.015 169.808 173.748 169.499 172.574L168.573 169.856C168.402 169.555 168.248 169.245 168.109 168.929Z" fill="#00B2EA"/>
<path d="M171.566 201.305L171.813 202.17C171.999 202.726 172.246 203.56 172.524 204.641C173.111 206.742 174.006 209.769 174.963 213.415C175.458 215.237 175.952 217.215 176.508 219.284C177.063 221.354 177.619 223.579 178.206 225.865C178.793 228.151 179.41 230.53 179.997 232.908L181.758 240.199C182.344 242.64 182.931 245.08 183.487 247.49C184.043 249.9 184.599 252.278 185.124 254.564C186.174 259.168 187.131 263.431 187.903 267.138C188.675 270.845 189.293 273.904 189.756 276.035C189.972 277.116 190.127 277.981 190.25 278.538C190.374 279.094 190.25 279.433 190.25 279.433L190.003 278.568C190.003 277.981 189.571 277.178 189.293 276.097C188.706 273.996 187.841 270.969 186.853 267.323C185.865 263.678 184.753 259.446 183.61 254.966C183.024 252.68 182.406 250.301 181.85 247.922C181.294 245.544 180.646 243.072 180.059 240.632C179.472 238.191 178.885 235.751 178.33 233.341C177.774 230.931 177.218 228.552 176.693 226.266C176.168 223.98 175.674 221.756 175.21 219.655L173.913 213.693C173.111 210.017 172.524 206.927 172.091 204.796C171.844 203.714 171.69 202.849 171.597 202.293L171.566 201.305Z" fill="#CD4492"/>
<path d="M160.604 157.375C160.604 157.375 160.604 157.776 160.604 158.549C160.604 159.321 160.604 160.464 160.882 161.916C161.16 163.368 161.129 165.005 161.222 167.168C161.314 169.33 161.5 171.462 161.623 173.933C161.747 176.405 161.901 179.124 161.994 181.966C162.086 184.808 162.241 187.835 162.333 190.925C162.426 194.014 162.55 197.103 162.58 200.532L162.766 210.418C162.766 213.755 162.766 217.06 162.766 220.335C162.766 223.61 162.766 226.792 162.766 229.912C162.766 233.032 162.766 236.09 162.766 238.871C162.766 241.651 162.766 244.432 162.766 246.934C162.766 249.436 162.766 251.691 162.55 253.7C162.333 255.708 162.55 257.499 162.303 258.951C162.055 260.403 162.303 261.546 162.117 262.319C161.932 263.091 162.117 263.524 162.117 263.524C162.117 263.524 162.117 263.091 162.117 262.319C162.117 261.546 162.117 260.403 161.87 258.951C161.623 257.499 161.623 255.862 161.5 253.73C161.376 251.599 161.222 249.436 161.098 246.934C160.975 244.432 160.851 241.775 160.728 238.902C160.604 236.029 160.233 233.063 160.233 229.943C160.233 226.823 160.048 223.764 159.986 220.366C159.925 216.968 159.986 213.786 159.801 210.449C159.616 207.113 159.801 203.838 159.801 200.563C159.801 197.289 159.801 194.076 159.801 190.986C159.801 187.897 159.801 184.808 159.801 181.997C159.801 179.185 159.801 176.467 159.986 173.964C160.172 171.462 159.986 169.207 160.203 167.168C160.419 165.129 160.233 163.306 160.233 161.947C160.233 160.588 160.233 159.352 160.419 158.549C160.604 157.745 160.604 157.375 160.604 157.375Z" fill="#7F5BA2"/>
<path d="M154.213 177.424V177.888C154.213 178.166 154.213 178.598 154.213 179.154C154.213 180.236 154.213 181.78 154.213 183.634C154.213 185.487 153.966 187.65 153.719 189.812C153.719 190.986 153.472 192.16 153.317 193.365C153.163 194.57 152.977 195.775 152.792 197.011C152.607 198.246 152.391 199.451 152.174 200.625C151.958 201.799 151.711 203.004 151.464 204.116C151.001 206.402 150.507 208.503 150.013 210.295C149.519 212.086 149.055 213.569 148.716 214.62L148.283 215.824L148.129 216.257C148.129 216.257 148.129 216.103 148.129 215.794C148.129 215.485 148.129 215.083 148.129 214.527C148.129 213.446 148.129 211.901 148.129 210.017C148.129 208.132 148.376 206.031 148.623 203.838C148.623 202.695 148.901 201.521 149.055 200.316C149.21 199.111 149.395 197.906 149.58 196.671C149.766 195.435 149.982 194.23 150.198 193.056C150.414 191.882 150.661 190.677 150.877 189.565C151.372 187.279 151.897 185.178 152.36 183.387C152.823 181.595 153.317 180.112 153.657 179.062L154.058 177.857L154.213 177.424Z" fill="#CD4492"/>
<path d="M152.882 222.559C152.882 222.93 152.882 223.486 152.882 224.166C152.882 225.556 153.098 227.533 153.191 229.881C153.283 232.229 153.191 235.009 153.191 237.975C153.191 239.458 153.191 240.972 153.191 242.516C153.191 244.061 153.191 245.606 153.191 247.212L152.913 251.877C152.913 253.421 152.666 254.966 152.573 256.418C152.295 259.507 151.986 262.102 151.678 264.45C151.369 266.798 151.029 268.775 150.782 270.135C150.782 270.814 150.566 271.34 150.504 271.71V272.266C150.504 272.266 150.504 272.081 150.504 271.71C150.504 271.34 150.504 270.783 150.35 270.104C150.35 268.714 150.103 266.736 150.01 264.389C149.917 262.041 150.01 259.26 150.01 256.295C150.01 254.843 150.01 253.205 150.01 251.753L150.195 247.058C150.195 245.482 150.35 243.968 150.473 242.393C150.597 240.817 150.689 239.303 150.813 237.851C151.091 234.762 151.369 232.167 151.708 229.819C152.048 227.471 152.326 225.494 152.573 224.135C152.573 223.455 152.82 222.93 152.882 222.559Z" fill="#CF0662"/>
<path d="M148.067 177.424C148.067 177.424 148.067 177.764 147.696 178.351C147.325 178.938 147.14 179.865 146.677 180.977C145.75 183.232 144.484 186.476 142.909 190.245L140.315 196.424L137.381 203.467L134.293 210.882C133.181 213.384 132.07 215.948 130.958 218.481C129.846 221.015 128.703 223.579 127.623 226.081C126.542 228.583 125.368 231.024 124.318 233.403C122.156 238.16 120.118 242.671 118.358 246.378C116.598 250.085 115.054 253.298 114.004 255.646L112.768 258.21L112.336 259.106C112.336 259.106 112.336 258.766 112.707 258.179C113.077 257.592 113.262 256.665 113.726 255.553C114.652 253.298 115.887 250.054 117.493 246.285C119.099 242.516 120.952 237.944 122.99 233.156C124.04 230.746 125.059 228.274 126.078 225.741C127.098 223.208 128.302 220.706 129.383 218.141C130.464 215.577 131.637 213.044 132.749 210.542L136.053 203.22L139.142 196.362C140.161 194.199 141.118 192.129 141.983 190.183C143.743 186.383 145.287 183.263 146.306 180.915C146.831 179.803 147.294 178.938 147.572 178.351L148.067 177.424Z" fill="#566BB1"/>
<path d="M140.037 220.335C140.037 220.335 140.037 220.613 140.037 221.076C140.037 221.54 139.852 222.25 139.667 223.115C139.327 224.876 138.802 227.409 138.092 230.375C137.381 233.341 136.548 236.863 135.529 240.57C135.034 242.424 134.509 244.339 133.954 246.254C133.398 248.17 132.811 250.178 132.224 252.124C131.637 254.07 131.02 256.047 130.402 257.963C129.784 259.878 129.198 261.794 128.58 263.585C127.345 267.231 126.14 270.629 125.059 273.502C123.979 276.375 123.021 278.785 122.311 280.453C122.002 281.287 121.693 281.936 121.508 282.399L121.199 283.079V282.337C121.199 281.874 121.415 281.164 121.601 280.299C121.94 278.538 122.465 276.035 123.145 273.039C123.824 270.042 124.72 266.551 125.708 262.844C126.233 260.99 126.758 259.075 127.314 257.16C127.87 255.244 128.457 253.267 129.043 251.29C129.63 249.313 130.217 247.366 130.834 245.451C131.452 243.536 132.07 241.651 132.687 239.829C133.923 236.183 135.127 232.785 136.208 229.912C137.289 227.039 138.246 224.629 138.926 222.961C139.265 222.127 139.574 221.478 139.759 221.015L140.037 220.335Z" fill="#566BB1"/>
<path d="M143.249 164.48L142.508 165.376C141.983 165.932 141.273 166.797 140.346 167.848C139.42 168.898 138.277 170.195 136.949 171.647C135.621 173.099 134.139 174.737 132.471 176.559C130.804 178.382 129.074 180.298 127.129 182.306C125.183 184.314 123.176 186.476 121.107 188.67C119.038 190.863 116.845 193.118 114.621 195.373L107.827 202.293L100.972 209.121C98.6863 211.376 96.4319 213.539 94.2393 215.67C92.0467 217.802 89.9158 219.81 87.9085 221.849C85.9011 223.888 83.9555 225.587 82.1644 227.224C80.3732 228.862 78.7365 230.314 77.2541 231.735C75.7718 233.156 74.5056 234.237 73.4247 235.164L70.9542 237.357L70.0586 238.129L70.7998 237.234L72.9615 234.762C73.9189 233.681 75.0306 232.383 76.3585 230.931C77.6865 229.479 79.1688 227.842 80.8365 226.019L86.1173 220.15C88.0011 218.142 90.0084 215.979 92.1393 213.817C94.2702 211.654 96.401 209.337 98.6554 207.082L105.419 200.193L112.305 193.365C114.56 191.11 116.845 188.948 119.007 186.816C121.168 184.684 123.33 182.676 125.338 180.637L131.082 175.231L135.992 170.752C137.443 169.392 138.771 168.249 139.821 167.322C140.871 166.396 141.736 165.623 142.323 165.129L143.249 164.48Z" fill="#00B2EA"/>
<path d="M128.579 157.375L127.714 157.807L125.336 158.981L121.599 160.773C120.148 161.484 118.511 162.256 116.72 163.059C114.929 163.862 113.014 164.758 110.945 165.654C108.876 166.55 106.714 167.539 104.429 168.496C102.143 169.454 99.8273 170.473 97.4494 171.431L90.1921 174.52C87.7524 175.478 85.3127 176.467 82.873 177.393L75.7701 180.081L69.0996 182.522L63.1084 184.653L57.982 186.383L54.0291 187.681L51.4659 188.453L50.5703 188.731L51.4041 188.299L53.7821 187.094L57.5188 185.302L62.3673 183.047L68.1731 180.421L74.6892 177.61L81.6686 174.52L88.9259 171.586L96.245 168.713C98.6229 167.755 101.032 166.89 103.348 166.025C105.664 165.16 107.888 164.357 110.018 163.553C112.149 162.75 114.157 162.101 116.01 161.453L121.136 159.723L125.089 158.425L127.652 157.653L128.579 157.375Z" fill="#7F5BA2"/>
<path d="M56.1602 208.41C56.1602 208.41 59.619 206.093 64.8998 202.788L69.1615 200.162L73.9791 197.072L79.1365 193.983L84.4791 190.894L89.8217 187.804L95.0716 184.715L104.336 179.525C109.802 176.436 113.601 174.675 113.601 174.675C113.601 174.675 110.142 176.992 104.861 180.297C102.236 181.935 99.1172 183.85 95.7819 185.858L90.6555 188.947L85.3129 192.037L79.9394 195.126L74.6894 198.215L69.8101 200.965L65.363 203.405C59.8969 206.557 56.1602 208.41 56.1602 208.41Z" fill="#CD4492"/>
<path d="M40.1328 149.497H41.3372H44.7034C47.6063 149.497 51.7754 149.497 56.7474 149.497H73.7634H83.3678H93.2809L103.194 149.682C106.468 149.682 109.679 149.682 112.798 149.868L129.814 150.331L141.858 150.794L145.256 150.949H141.889H129.845C124.842 150.949 119.037 150.949 112.798 150.949C109.71 150.949 106.468 150.949 103.194 150.949H93.2809H83.3678L73.7634 150.64L64.7767 150.424L56.7474 150.176C51.7754 150.176 47.4828 149.806 44.7034 149.713H41.3372L40.1328 149.497Z" fill="#0064B0"/>
<path d="M40.1328 120.55H41.0593L43.6534 120.983L47.668 121.724L52.8562 122.774C54.74 123.145 56.8092 123.578 59.0327 124.072C61.2562 124.566 63.4797 125.03 65.8576 125.617C68.2355 126.203 70.6443 126.698 73.084 127.347L80.5575 129.2L88.0001 131.177L95.1647 133.154C97.5118 133.803 99.7353 134.452 101.866 135.101L107.826 136.892L112.86 138.499L116.72 139.796L119.191 140.631L120.087 140.97H119.16L116.566 140.538L112.551 139.766C111.007 139.488 109.247 139.148 107.363 138.746C105.479 138.344 103.41 137.943 101.187 137.449L94.3618 135.904C92.0148 135.348 89.5751 134.792 87.1354 134.174C84.6957 133.556 82.1634 132.938 79.6619 132.289L72.2193 130.343C69.7488 129.694 67.3708 128.984 65.0238 128.335C62.6768 127.686 60.4841 127.038 58.3533 126.42L52.3621 124.597L47.3592 123.145L43.499 121.848L40.9975 120.983L40.1328 120.55Z" fill="#CD4492"/>
<path d="M50.5703 97.6892L51.5277 98.1217L54.3379 99.3883C56.7467 100.5 60.2055 102.045 64.282 103.961L70.8907 107.05L78.2716 110.572L86.1156 114.402L94.2067 118.357L102.267 122.342L110.049 126.234C115.083 128.768 119.777 131.177 123.792 133.278C127.806 135.379 131.142 137.14 133.458 138.375C134.631 138.962 135.527 139.488 136.145 139.797L137.102 140.322L136.114 139.889L133.334 138.623C130.926 137.51 127.467 135.966 123.39 134.05C119.314 132.135 114.496 129.88 109.401 127.408C106.838 126.173 104.213 124.937 101.557 123.609L93.4656 119.654L85.4053 115.669L77.623 111.746L70.3657 108.069L63.8496 104.609L54.2144 99.5428L51.4968 98.0908L50.5703 97.6892Z" fill="#566BB1"/>
<path d="M67.5859 76.8054L68.0492 77.1143C68.3271 77.2997 68.7595 77.5777 69.2845 77.9794C70.3653 78.7517 71.8785 79.8638 73.6388 81.254C75.3991 82.6442 77.3756 84.3434 79.5064 86.1043C80.5564 87.0002 81.6064 87.9578 82.5946 88.9464L85.8682 92.0357L88.9564 95.125L92.0446 98.2144C93.9901 100.192 95.7504 102.076 97.2328 103.744C98.7151 105.412 99.8886 106.834 100.692 107.822C101.124 108.316 101.402 108.718 101.649 108.996L101.958 109.429L101.494 109.12L100.259 108.255C99.1783 107.482 97.6651 106.37 95.9357 104.98C94.2063 103.59 92.1681 101.891 90.0681 100.13C89.0181 99.2338 87.9373 98.2761 86.9799 97.2876C86.0226 96.299 84.7873 95.3104 83.7373 94.1982C82.6873 93.0861 81.5755 92.1902 80.6491 91.1089C79.7226 90.0277 78.58 89.07 77.5609 88.0196C75.6153 86.0425 73.855 84.158 72.3727 82.4897C70.8903 80.8215 69.7168 79.4004 68.9139 78.4119C68.4815 77.9176 68.2036 77.516 67.9565 77.2379L67.5859 76.8054Z" fill="#00B2EA"/>
<path d="M98.4688 83.849L99.1173 84.4051L100.939 85.9806C102.483 87.3399 104.707 89.3171 107.301 91.7576C109.895 94.1982 112.86 97.0404 116.01 100.13L120.797 104.949L125.707 109.985C127.313 111.715 128.795 113.414 130.524 115.082L135.033 120.056C138.121 123.33 140.715 126.234 143.001 129.077C145.286 131.919 147.17 134.019 148.467 135.626L149.949 137.479L150.474 138.159L149.826 137.603C149.393 137.232 148.776 136.738 148.004 136.028C146.429 134.699 144.236 132.722 141.704 130.281C139.171 127.841 136.145 125.03 132.995 121.909L128.116 116.966L123.174 112.054C121.569 110.355 120.086 108.656 118.357 106.957L113.91 101.952C110.822 98.6777 108.227 95.7738 105.911 92.9316C103.595 90.0894 101.773 87.9887 100.476 86.3822C99.8276 85.6099 99.3334 84.9612 98.9937 84.5287L98.4688 83.849Z" fill="#CD4492"/>
<path d="M89.543 48.4146L90.2841 49.3104L92.2915 51.751C94.0209 53.9135 96.5223 56.941 99.4561 60.6173L104.15 66.5797L109.4 73.2217C111.191 75.5696 113.075 77.9484 114.959 80.389L120.672 87.8033C122.556 90.3056 124.44 92.808 126.262 95.3412L131.697 102.57C135.218 107.266 138.491 111.838 141.271 115.484C144.05 119.129 146.304 122.434 147.91 124.751L149.763 127.347L150.412 128.273L149.67 127.408L147.879 124.751C146.15 122.62 143.648 119.561 140.746 115.885C137.843 112.209 134.384 107.915 130.771 103.281C128.979 100.933 127.096 98.5541 125.212 96.1136L119.529 88.6992L113.847 81.254L108.412 74.025L103.347 67.2285L98.8694 61.0498C96.09 57.2809 93.8047 54.0989 92.1988 51.7819L90.3459 49.1869L89.543 48.4146Z" fill="#566BB1"/>
<path d="M114.683 56.8175L114.93 57.1264L115.671 57.9606C116.32 58.702 117.154 59.7833 118.142 61.0499C119.13 62.3165 120.18 63.9229 121.23 65.6221C121.786 66.4871 122.342 67.383 122.867 68.2789L124.504 71.0592L126.048 73.8705C126.542 74.7973 127.005 75.7241 127.468 76.6509C128.364 78.4427 129.105 80.1727 129.754 81.6556C130.402 83.1385 130.835 84.4051 131.113 85.3319C131.255 85.6719 131.369 86.0232 131.452 86.3822C131.458 86.5057 131.458 86.6295 131.452 86.753L131.174 86.4749C131.02 86.2587 130.742 85.9806 130.433 85.6099C130.124 85.2392 128.951 83.8181 127.993 82.5206C127.036 81.2231 125.924 79.6475 124.905 77.9484L123.268 75.2916C122.713 74.3957 122.188 73.4689 121.663 72.5421C121.138 71.6153 120.705 70.6267 120.088 69.6999C119.47 68.7732 119.099 67.8464 118.667 66.9505C117.771 65.1278 116.999 63.4286 116.382 61.9149C115.764 60.4011 115.301 59.1654 114.992 58.2386C114.838 57.8061 114.745 57.4354 114.652 57.1882L114.683 56.8175Z" fill="#7F5BA2"/>
<path d="M128.579 194.199C128.489 194.36 128.406 194.525 128.332 194.694C128.332 195.033 127.992 195.528 127.684 196.115C127.128 197.35 126.294 199.204 125.213 201.15C124.132 203.096 122.866 205.537 121.415 208.039C120.673 209.275 119.932 210.573 119.129 211.87C118.326 213.168 117.523 214.465 116.721 215.763C115.918 217.06 115.053 218.358 114.188 219.624C113.323 220.891 112.521 222.127 111.687 223.301C110.05 225.679 108.599 227.873 107.054 229.726C105.51 231.58 104.399 233.063 103.534 234.113L102.484 235.318L102.113 235.75L102.329 235.256C102.484 234.916 102.669 234.422 102.978 233.804C103.534 232.568 104.399 230.715 105.449 228.8C106.499 226.884 107.826 224.382 109.278 221.91C109.988 220.644 110.76 219.377 111.532 218.08C112.304 216.782 113.138 215.485 113.972 214.187L116.473 210.325C117.307 209.059 118.141 207.823 118.975 206.649C120.643 204.27 122.063 202.077 123.638 200.223C125.213 198.37 126.263 196.856 127.159 195.806L128.178 194.601L128.579 194.199Z" fill="#7F5BA2"/>
<path d="M72.3418 155.274L74.5653 158.209L78.3947 158.116L76.1403 161.082L77.4065 164.511L73.7624 163.368L70.7359 165.592V161.947L67.5859 159.877L71.23 158.765L72.3418 155.274Z" fill="#CBEF6B"/>
<path d="M72.3418 155.274L74.2565 158.579L78.3947 158.116L75.3682 161.02L77.4065 164.511L73.7006 162.781L70.7359 165.592L71.23 161.638L67.5859 159.877L71.7241 159.043L72.3418 155.274Z" fill="#ACD500"/>
<path d="M72.3737 156.17L72.0649 159.259L68.3281 159.97L72.3737 159.506V156.17Z" fill="#CBEF6B"/>
<path d="M72.9922 163.244L73.7334 162.565L76.5745 163.862L73.7951 162.287L72.9922 163.244Z" fill="#CBEF6B"/>
<path d="M133.459 263.523L137.721 269.115L145.009 268.961L140.716 274.552L143.125 281.071L136.207 278.939L130.402 283.141L130.433 276.19L124.441 272.266L131.359 270.135L133.459 263.523Z" fill="#CBEF6B"/>
<path d="M133.459 263.523L137.134 269.795L145.009 268.961L139.203 274.491L143.125 281.071L136.084 277.796L130.402 283.141L131.359 275.634L124.441 272.266L132.285 270.691L133.459 263.523Z" fill="#ACD500"/>
<path d="M133.553 265.253L132.935 271.092L125.832 272.452L133.553 271.587V265.253Z" fill="#CBEF6B"/>
<path d="M134.727 278.661L136.116 277.395L141.521 279.866L136.209 276.869L134.727 278.661Z" fill="#CBEF6B"/>
<path d="M136.455 38.0962L138.709 41.0619L142.539 40.9693L140.284 43.9041L141.551 47.3332L137.907 46.2211L134.849 48.4145V44.7691L131.699 42.6993L135.343 41.5871L136.455 38.0962Z" fill="#CBEF6B"/>
<path d="M136.455 38.0962L138.401 41.4018L142.539 40.9693L139.482 43.8732L141.551 47.3332L137.845 45.6341L134.849 48.4145L135.374 44.4911L131.699 42.6993L135.868 41.8651L136.455 38.0962Z" fill="#ACD500"/>
<path d="M136.518 39.0231L136.178 42.0815L132.441 42.792L136.518 42.3595V39.0231Z" fill="#CBEF6B"/>
<path d="M137.133 46.0667L137.874 45.387L140.684 46.7154L137.905 45.1399L137.133 46.0667Z" fill="#CBEF6B"/>
<path d="M65.1179 213.137L66.9709 219.47L73.487 221.663L67.712 225.278L67.5576 231.858L62.1532 227.749L55.5136 229.634L57.9842 223.486L54.0312 218.08L60.9488 218.358L65.1179 213.137Z" fill="#60BCFF"/>
<path d="M65.1179 213.137L66.1988 219.902L73.487 221.663L66.3841 224.722L67.5576 231.858L62.4312 226.699L55.5136 229.634L59.0033 223.27L54.0312 218.08L61.5974 219.13L65.1179 213.137Z" fill="#0092DE"/>
<path d="M64.5913 214.712L61.9972 219.717L55.2031 218.667L62.3678 220.366L64.5913 214.712Z" fill="#60BCFF"/>
<path d="M60.918 227.039L62.6165 226.328L66.5694 230.252L62.8635 225.927L60.918 227.039Z" fill="#60BCFF"/>
<path d="M177.495 79.5857L178.916 84.4977L183.98 86.1968L179.471 89.0081L179.379 94.1055L175.179 90.9235L170.022 92.3754L171.936 87.587L168.879 83.4164L174.222 83.6327L177.495 79.5857Z" fill="#FF7B8C"/>
<path d="M177.495 79.5857L178.298 84.8375L183.98 86.1968L178.452 88.5756L179.379 94.1055L175.395 90.0893L170.022 92.3754L172.739 87.4325L168.879 83.4164L174.747 84.2505L177.495 79.5857Z" fill="#FF1042"/>
<path d="M177.066 80.7905L175.059 84.683L169.809 83.8798L175.367 85.1773L177.066 80.7905Z" fill="#FF7B8C"/>
<path d="M174.223 90.3674L175.551 89.8114L178.608 92.8698L175.736 89.5024L174.223 90.3674Z" fill="#FF7B8C"/>
<path d="M102.606 137.603L103.162 140.013L105.571 140.909L103.347 142.175L103.193 144.616L101.247 142.978L98.7456 143.596L99.7647 141.341L98.375 139.271L100.938 139.488L102.606 137.603Z" fill="#FF7B8C"/>
<path d="M102.606 137.603L102.884 140.136L105.571 140.909L102.853 141.928L103.193 144.616L101.371 142.608L98.7456 143.596L100.166 141.279L98.375 139.271L101.185 139.796L102.606 137.603Z" fill="#FF1042"/>
<path d="M102.36 138.19L101.31 140.013L98.8086 139.518L101.434 140.26L102.36 138.19Z" fill="#FF7B8C"/>
<path d="M100.785 142.701L101.434 142.484L102.823 143.998L101.557 142.33L100.785 142.701Z" fill="#FF7B8C"/>
<path d="M153.438 162.04L154.612 166.117L158.842 167.539L155.106 169.856L155.013 174.088L151.523 171.431L147.262 172.667L148.837 168.712L146.273 165.222L150.751 165.407L153.438 162.04Z" fill="#60BCFF"/>
<path d="M153.438 162.04L154.117 166.395L158.842 167.539L154.272 169.516L155.013 174.088L151.709 170.782L147.262 172.667L149.516 168.558L146.273 165.222L151.153 165.901L153.438 162.04Z" fill="#0092DE"/>
<path d="M153.1 163.059L151.432 166.272L147.047 165.623L151.679 166.704L153.1 163.059Z" fill="#60BCFF"/>
<path d="M150.754 170.999L151.835 170.535L154.367 173.068L151.989 170.288L150.754 170.999Z" fill="#60BCFF"/>
<path d="M107.085 114.866L107.64 116.812L109.648 117.492L107.887 118.604L107.826 120.612L106.158 119.345L104.12 119.932L104.892 118.048L103.688 116.379L105.787 116.472L107.085 114.866Z" fill="#60BCFF"/>
<path d="M107.085 114.866L107.393 116.936L109.648 117.492L107.486 118.449L107.826 120.612L106.251 119.036L104.12 119.932L105.201 117.986L103.688 116.379L106.004 116.719L107.085 114.866Z" fill="#0092DE"/>
<path d="M106.93 115.36L106.127 116.905L104.027 116.565L106.251 117.09L106.93 115.36Z" fill="#60BCFF"/>
<path d="M105.789 119.129L106.314 118.913L107.518 120.148L106.407 118.789L105.789 119.129Z" fill="#60BCFF"/>
<path d="M107.085 114.866L107.64 116.812L109.648 117.492L107.887 118.604L107.826 120.612L106.158 119.345L104.12 119.932L104.892 118.048L103.688 116.379L105.787 116.472L107.085 114.866Z" fill="#60BCFF"/>
<path d="M107.085 114.866L107.393 116.936L109.648 117.492L107.486 118.449L107.826 120.612L106.251 119.036L104.12 119.932L105.201 117.986L103.688 116.379L106.004 116.719L107.085 114.866Z" fill="#0092DE"/>
<path d="M106.93 115.36L106.127 116.905L104.027 116.565L106.251 117.09L106.93 115.36Z" fill="#60BCFF"/>
<path d="M105.789 119.129L106.314 118.913L107.518 120.148L106.407 118.789L105.789 119.129Z" fill="#60BCFF"/>
<path d="M117.493 66.8887L118.357 69.8544L121.445 70.8739L118.697 72.573L118.635 75.6623L116.103 73.747L112.984 74.6428L114.126 71.7389L112.273 69.2057L115.516 69.3292L117.493 66.8887Z" fill="#60BCFF"/>
<path d="M117.493 66.8887L117.987 70.0707L121.445 70.8739L118.079 72.3258L118.635 75.6623L116.226 73.2527L112.984 74.6428L114.62 71.6462L112.273 69.2057L115.825 69.6999L117.493 66.8887Z" fill="#0092DE"/>
<path d="M117.244 67.6301L116.04 69.978L112.828 69.4837L116.194 70.256L117.244 67.6301Z" fill="#60BCFF"/>
<path d="M115.516 73.407L116.319 73.0672L118.171 74.9208L116.442 72.8818L115.516 73.407Z" fill="#60BCFF"/>
<path d="M173.76 264.265C173.756 264.57 173.691 264.872 173.568 265.152C173.446 265.432 173.269 265.685 173.047 265.895C172.825 266.105 172.564 266.269 172.278 266.376C171.992 266.484 171.687 266.532 171.382 266.52C171.078 266.528 170.775 266.476 170.491 266.368C170.206 266.259 169.947 266.095 169.726 265.885C169.505 265.676 169.327 265.425 169.204 265.147C169.08 264.869 169.012 264.569 169.004 264.265C169.028 263.653 169.29 263.075 169.734 262.653C170.179 262.232 170.77 262.001 171.382 262.01C171.686 262.001 171.989 262.053 172.273 262.162C172.557 262.271 172.817 262.435 173.038 262.644C173.259 262.854 173.436 263.105 173.56 263.383C173.684 263.661 173.752 263.961 173.76 264.265Z" fill="#CD4492"/>
<path d="M174.098 250.61C174.098 250.794 174.061 250.976 173.989 251.145C173.917 251.314 173.811 251.467 173.678 251.594C173.546 251.721 173.388 251.82 173.216 251.884C173.044 251.949 172.861 251.978 172.677 251.969H172.585C172.402 251.973 172.221 251.942 172.05 251.875C171.88 251.809 171.725 251.71 171.593 251.584C171.461 251.458 171.355 251.307 171.282 251.14C171.208 250.973 171.168 250.793 171.164 250.61C171.18 250.247 171.338 249.904 171.603 249.656C171.869 249.408 172.221 249.273 172.585 249.282C172.766 249.273 172.946 249.301 173.116 249.364C173.287 249.427 173.442 249.523 173.575 249.647C173.707 249.77 173.813 249.919 173.887 250.085C173.961 250.25 174.001 250.429 174.005 250.61H174.098Z" fill="#0064B0"/>
<path d="M88.8331 263.431C89.1191 263.524 89.3833 263.674 89.6096 263.873C89.8359 264.071 90.0195 264.314 90.1494 264.585C90.2794 264.857 90.3529 265.152 90.3655 265.452C90.3781 265.753 90.3295 266.053 90.2228 266.335C89.9764 266.91 89.5186 267.369 88.9439 267.616C88.3691 267.863 87.7214 267.88 87.1345 267.663C86.851 267.566 86.5896 267.414 86.3657 267.214C86.1417 267.015 85.9598 266.773 85.8304 266.503C85.701 266.233 85.6268 265.939 85.6121 265.64C85.5974 265.34 85.6425 265.041 85.7448 264.759C85.985 264.179 86.4422 263.715 87.019 263.467C87.5959 263.219 88.2468 263.206 88.8331 263.431Z" fill="#CD4492"/>
<path d="M75.4922 258.364C75.6655 258.416 75.8262 258.503 75.9639 258.62C76.1016 258.737 76.2133 258.882 76.2918 259.045C76.3703 259.208 76.4139 259.385 76.4198 259.566C76.4257 259.747 76.3938 259.927 76.326 260.094C76.1824 260.435 75.9117 260.706 75.5716 260.85C75.2314 260.994 74.8485 261 74.504 260.867C74.331 260.807 74.1728 260.71 74.0396 260.585C73.9064 260.459 73.8014 260.306 73.7314 260.137C73.6614 259.968 73.628 259.786 73.6334 259.603C73.6388 259.42 73.6829 259.24 73.7628 259.075C73.9065 258.734 74.1772 258.463 74.5173 258.319C74.8575 258.175 75.2404 258.169 75.5849 258.303L75.4922 258.364Z" fill="#0064B0"/>
<path d="M113.91 253.669C114.081 253.724 114.239 253.813 114.374 253.931C114.509 254.049 114.619 254.194 114.697 254.355C114.775 254.517 114.819 254.693 114.827 254.872C114.836 255.052 114.807 255.231 114.744 255.399C114.6 255.74 114.331 256.013 113.993 256.162C113.654 256.311 113.271 256.326 112.922 256.202C112.752 256.147 112.594 256.057 112.459 255.939C112.323 255.821 112.214 255.677 112.136 255.515C112.058 255.354 112.013 255.178 112.005 254.998C111.997 254.819 112.025 254.64 112.088 254.472C112.233 254.131 112.501 253.858 112.84 253.709C113.179 253.559 113.562 253.545 113.91 253.669Z" fill="#0064B0"/>
<path d="M103.165 237.913C103.471 238.009 103.754 238.167 103.996 238.378C104.238 238.589 104.433 238.848 104.569 239.139C104.706 239.429 104.78 239.745 104.789 240.066C104.797 240.386 104.738 240.705 104.616 241.002C104.364 241.575 103.909 242.033 103.339 242.29C102.769 242.547 102.124 242.583 101.528 242.393C101.222 242.296 100.939 242.138 100.696 241.927C100.454 241.717 100.257 241.459 100.118 241.169C99.9789 240.88 99.9008 240.565 99.8885 240.244C99.8761 239.923 99.9297 239.603 100.046 239.303C100.298 238.731 100.753 238.273 101.324 238.016C101.894 237.759 102.539 237.723 103.134 237.913H103.165Z" fill="#00B2EA"/>
<path d="M83.2733 248.479C83.409 248.52 83.5349 248.589 83.6432 248.681C83.7516 248.773 83.8402 248.886 83.9037 249.013C83.9673 249.14 84.0043 249.279 84.0127 249.42C84.0212 249.562 84.0007 249.704 83.9527 249.838C83.8981 249.978 83.8164 250.106 83.7123 250.214C83.6082 250.323 83.4838 250.41 83.3461 250.47C83.2084 250.53 83.0601 250.563 82.9099 250.566C82.7596 250.568 82.6102 250.542 82.4703 250.487C82.3337 250.442 82.2076 250.37 82.0999 250.274C81.9923 250.179 81.9054 250.063 81.8446 249.932C81.7838 249.802 81.7504 249.661 81.7465 249.517C81.7426 249.373 81.7682 249.23 81.8218 249.096C81.938 248.827 82.1536 248.612 82.4239 248.497C82.6941 248.382 82.9983 248.375 83.2733 248.479Z" fill="#FF7B8C"/>
<path d="M51.7748 274.676C52.0101 274.668 52.2446 274.706 52.4651 274.788C52.6856 274.871 52.8876 274.996 53.0597 275.157C53.2318 275.317 53.3706 275.51 53.468 275.725C53.5655 275.939 53.6198 276.171 53.6277 276.406C53.6278 276.644 53.5804 276.879 53.4885 277.099C53.3966 277.318 53.2618 277.517 53.0922 277.684C52.9226 277.851 52.7215 277.982 52.5006 278.07C52.2797 278.159 52.0435 278.202 51.8057 278.198C51.5664 278.206 51.3278 278.167 51.1036 278.083C50.8793 277.999 50.6739 277.871 50.4989 277.708C50.324 277.544 50.1829 277.348 50.0839 277.13C49.9849 276.912 49.9298 276.676 49.9219 276.437C49.9258 276.199 49.9771 275.964 50.0728 275.746C50.1685 275.528 50.3066 275.332 50.4791 275.168C50.6516 275.004 50.855 274.876 51.0775 274.791C51.3 274.707 51.537 274.668 51.7748 274.676Z" fill="#CD4492"/>
<path d="M40.5336 274.521C40.6756 274.517 40.817 274.541 40.9497 274.592C41.0824 274.642 41.2038 274.719 41.3071 274.816C41.4103 274.914 41.4934 275.031 41.5514 275.16C41.6095 275.29 41.6414 275.43 41.6454 275.572C41.6376 275.856 41.5212 276.127 41.3202 276.328C41.1191 276.529 40.8487 276.645 40.5645 276.653C40.2748 276.662 39.9931 276.557 39.7797 276.36C39.5663 276.164 39.4379 275.892 39.4219 275.603C39.4299 275.313 39.5506 275.038 39.7582 274.836C39.9659 274.634 40.2441 274.521 40.5336 274.521Z" fill="#0064B0"/>
<path d="M67.1547 260.898C67.2967 260.894 67.4381 260.917 67.5708 260.968C67.7035 261.019 67.8249 261.095 67.9282 261.192C68.0314 261.29 68.1145 261.407 68.1725 261.537C68.2306 261.666 68.2625 261.806 68.2665 261.948C68.2708 262.091 68.2457 262.234 68.1929 262.367C68.1401 262.5 68.0606 262.621 67.9594 262.722C67.8582 262.823 67.7373 262.903 67.6042 262.956C67.4712 263.009 67.3287 263.034 67.1856 263.029C66.8959 263.038 66.6142 262.933 66.4008 262.737C66.1873 262.54 66.0589 262.268 66.043 261.979C66.051 261.689 66.1717 261.414 66.3793 261.212C66.5869 261.01 66.8651 260.898 67.1547 260.898Z" fill="#0064B0"/>
<path d="M54.7077 252.217C54.9591 252.208 55.2098 252.25 55.4452 252.338C55.6807 252.427 55.8964 252.561 56.0799 252.734C56.2635 252.906 56.4113 253.112 56.515 253.342C56.6187 253.571 56.6761 253.819 56.6841 254.07C56.668 254.573 56.4549 255.049 56.0909 255.396C55.7269 255.742 55.2412 255.932 54.7385 255.924C54.4911 255.932 54.2445 255.891 54.0128 255.804C53.7811 255.717 53.5688 255.585 53.3881 255.416C53.2074 255.247 53.0619 255.043 52.9597 254.818C52.8576 254.592 52.8009 254.349 52.793 254.101C52.8088 253.601 53.0165 253.126 53.3731 252.775C53.7296 252.424 54.2076 252.224 54.7077 252.217Z" fill="#00B2EA"/>
<path d="M43.3136 265.254C43.4271 265.249 43.5404 265.268 43.6469 265.307C43.7534 265.347 43.851 265.407 43.9342 265.485C44.0174 265.562 44.0845 265.655 44.1316 265.759C44.1788 265.862 44.2052 265.974 44.2091 266.088C44.1939 266.317 44.0938 266.533 43.9282 266.693C43.7627 266.853 43.5436 266.945 43.3136 266.953C43.2 266.957 43.0867 266.938 42.9802 266.899C42.8737 266.859 42.7761 266.799 42.6929 266.721C42.6097 266.644 42.5427 266.551 42.4955 266.447C42.4483 266.344 42.422 266.232 42.418 266.119C42.4179 266.002 42.4412 265.887 42.4866 265.78C42.532 265.673 42.5985 265.576 42.6821 265.496C42.7656 265.415 42.8647 265.352 42.9732 265.31C43.0817 265.269 43.1974 265.249 43.3136 265.254Z" fill="#FF7B8C"/>
<path d="M44.3963 205.506C44.6315 205.498 44.8661 205.536 45.0866 205.619C45.307 205.701 45.5091 205.826 45.6812 205.987C45.8533 206.148 45.992 206.341 46.0895 206.555C46.1869 206.769 46.2412 207.001 46.2492 207.236C46.2492 207.474 46.2019 207.71 46.11 207.929C46.018 208.149 45.8833 208.347 45.7137 208.514C45.5441 208.681 45.343 208.812 45.1221 208.901C44.9012 208.989 44.6649 209.032 44.4271 209.028C44.1894 209.036 43.9523 208.997 43.7298 208.913C43.5074 208.828 43.304 208.7 43.1315 208.536C42.959 208.372 42.8208 208.176 42.7252 207.958C42.6295 207.74 42.5782 207.505 42.5742 207.267C42.5741 207.031 42.6216 206.796 42.7139 206.579C42.8062 206.361 42.9414 206.164 43.1114 206C43.2815 205.835 43.4829 205.707 43.7036 205.622C43.9244 205.537 44.16 205.498 44.3963 205.506Z" fill="#CD4492"/>
<path d="M33.1551 205.321C33.4448 205.312 33.7265 205.417 33.9399 205.614C34.1534 205.81 34.2818 206.082 34.2977 206.371C34.2897 206.661 34.169 206.936 33.9614 207.138C33.7538 207.34 33.4756 207.453 33.186 207.452C33.044 207.457 32.9026 207.433 32.7699 207.382C32.6372 207.331 32.5158 207.255 32.4125 207.158C32.3093 207.06 32.2262 206.943 32.1682 206.814C32.1101 206.684 32.0782 206.544 32.0742 206.402C32.082 206.118 32.1984 205.847 32.3994 205.646C32.6005 205.445 32.8709 205.329 33.1551 205.321Z" fill="#0064B0"/>
<path d="M59.8032 191.759C59.9436 191.75 60.0843 191.77 60.2168 191.817C60.3494 191.865 60.4711 191.938 60.5748 192.033C60.6785 192.128 60.7621 192.243 60.8205 192.371C60.8789 192.499 60.911 192.637 60.9149 192.778C60.9069 193.068 60.7862 193.343 60.5786 193.545C60.3709 193.747 60.0927 193.86 59.8032 193.859C59.6612 193.864 59.5198 193.84 59.3871 193.789C59.2544 193.738 59.1329 193.662 59.0297 193.565C58.9264 193.467 58.8434 193.35 58.7854 193.221C58.7273 193.091 58.6954 192.951 58.6914 192.809C58.6954 192.667 58.7273 192.527 58.7854 192.398C58.8434 192.268 58.9264 192.151 59.0297 192.053C59.1329 191.956 59.2544 191.88 59.3871 191.829C59.5198 191.778 59.6612 191.755 59.8032 191.759Z" fill="#0064B0"/>
<path d="M47.36 183.078C47.6074 183.069 47.854 183.11 48.0858 183.197C48.3175 183.284 48.5297 183.416 48.7104 183.586C48.8911 183.755 49.0367 183.958 49.1388 184.184C49.2409 184.409 49.2976 184.653 49.3056 184.9C49.3057 185.149 49.2558 185.395 49.1589 185.624C49.0619 185.853 48.9199 186.06 48.7412 186.233C48.5626 186.406 48.3509 186.542 48.1189 186.631C47.887 186.72 47.6394 186.762 47.3909 186.754C47.1435 186.762 46.8968 186.722 46.6651 186.634C46.4334 186.547 46.2211 186.415 46.0405 186.246C45.8598 186.077 45.7142 185.874 45.6121 185.648C45.51 185.422 45.4533 185.179 45.4453 184.931C45.4452 184.683 45.4951 184.436 45.592 184.207C45.689 183.978 45.831 183.771 46.0097 183.598C46.1883 183.425 46.3999 183.29 46.6319 183.201C46.8639 183.111 47.1115 183.069 47.36 183.078Z" fill="#00B2EA"/>
<path d="M35.9317 196.053C36.0453 196.049 36.1585 196.067 36.265 196.107C36.3715 196.146 36.4692 196.207 36.5523 196.284C36.6355 196.362 36.7026 196.455 36.7498 196.558C36.797 196.662 36.8233 196.773 36.8273 196.887C36.8273 197.116 36.7362 197.336 36.574 197.499C36.4118 197.661 36.1919 197.752 35.9626 197.752C35.849 197.756 35.7357 197.738 35.6292 197.698C35.5227 197.658 35.4251 197.598 35.3419 197.521C35.2588 197.443 35.1917 197.35 35.1445 197.247C35.0973 197.143 35.071 197.031 35.067 196.918C35.0627 196.803 35.0821 196.689 35.124 196.582C35.1659 196.475 35.2294 196.378 35.3106 196.297C35.3918 196.215 35.4889 196.152 35.5957 196.11C35.7026 196.068 35.817 196.049 35.9317 196.053Z" fill="#FF7B8C"/>
<path d="M40.9029 135.502C41.0565 135.677 41.1724 135.882 41.2434 136.104C41.3145 136.326 41.3392 136.56 41.316 136.792C41.2929 137.023 41.2223 137.248 41.1087 137.451C40.9952 137.655 40.841 137.833 40.6559 137.974C40.2709 138.274 39.7874 138.418 39.3013 138.378C38.8151 138.338 38.3617 138.116 38.0309 137.758C37.8774 137.582 37.7615 137.378 37.6904 137.156C37.6193 136.934 37.5946 136.7 37.6178 136.468C37.641 136.236 37.7115 136.012 37.8251 135.808C37.9387 135.605 38.0928 135.427 38.278 135.286C38.6601 134.979 39.1452 134.831 39.6335 134.871C40.1218 134.911 40.5761 135.137 40.9029 135.502Z" fill="#CD4492"/>
<path d="M33.8946 127.099C33.9956 127.195 34.076 127.31 34.131 127.437C34.1859 127.565 34.2143 127.702 34.2143 127.841C34.2143 127.98 34.1859 128.117 34.131 128.245C34.076 128.372 33.9956 128.487 33.8946 128.582C33.6822 128.784 33.4003 128.897 33.1071 128.897C32.814 128.897 32.5321 128.784 32.3197 128.582C32.2187 128.487 32.1383 128.372 32.0833 128.245C32.0284 128.117 32 127.98 32 127.841C32 127.702 32.0284 127.565 32.0833 127.437C32.1383 127.31 32.2187 127.195 32.3197 127.099C32.5354 126.904 32.8161 126.796 33.1071 126.796C33.3982 126.796 33.6789 126.904 33.8946 127.099Z" fill="#0064B0"/>
<path d="M61.8424 138.036C61.9387 138.139 62.0117 138.262 62.0566 138.396C62.1015 138.53 62.1171 138.672 62.1025 138.812C62.0879 138.953 62.0433 139.088 61.9718 139.21C61.9003 139.332 61.8035 139.437 61.688 139.518C61.4807 139.718 61.2039 139.83 60.9159 139.83C60.6279 139.83 60.3511 139.718 60.1439 139.518C60.0429 139.423 59.9625 139.308 59.9075 139.181C59.8526 139.053 59.8242 138.916 59.8242 138.777C59.8242 138.638 59.8526 138.501 59.9075 138.373C59.9625 138.246 60.0429 138.131 60.1439 138.036C60.3596 137.84 60.6403 137.732 60.9314 137.732C61.2224 137.732 61.5031 137.84 61.7189 138.036H61.8424Z" fill="#0064B0"/>
<path d="M61.0097 123.392C61.1749 123.574 61.3003 123.788 61.3779 124.021C61.4555 124.254 61.4835 124.5 61.4603 124.745C61.437 124.989 61.3629 125.226 61.2428 125.44C61.1227 125.654 60.9591 125.84 60.7627 125.987C60.3657 126.3 59.8653 126.452 59.3616 126.412C58.8578 126.371 58.3877 126.143 58.0451 125.771C57.8763 125.587 57.7486 125.369 57.6705 125.132C57.5923 124.895 57.5655 124.644 57.5918 124.395C57.6181 124.147 57.6969 123.907 57.823 123.692C57.949 123.476 58.1195 123.29 58.323 123.145C58.7171 122.825 59.2191 122.669 59.7251 122.71C60.231 122.75 60.702 122.983 61.0406 123.361L61.0097 123.392Z" fill="#00B2EA"/>
<path d="M43.2225 123.145C43.3029 123.22 43.367 123.311 43.4109 123.412C43.4547 123.513 43.4773 123.622 43.4773 123.732C43.4773 123.842 43.4547 123.951 43.4109 124.052C43.367 124.153 43.3029 124.244 43.2225 124.319C43.0476 124.473 42.8225 124.558 42.5894 124.558C42.3563 124.558 42.1312 124.473 41.9563 124.319C41.875 124.241 41.8104 124.148 41.7662 124.044C41.722 123.941 41.6992 123.829 41.6992 123.717C41.6992 123.604 41.722 123.493 41.7662 123.389C41.8104 123.286 41.875 123.192 41.9563 123.114C42.128 122.953 42.3543 122.864 42.5894 122.864C42.8245 122.864 43.0508 122.953 43.2225 123.114V123.145Z" fill="#FF7B8C"/>
<path d="M44.4266 74.2721C44.5801 74.4472 44.696 74.6521 44.7671 74.8739C44.8381 75.0957 44.8629 75.3297 44.8397 75.5615C44.8165 75.7933 44.746 76.0178 44.6324 76.2212C44.5188 76.4245 44.3647 76.6023 44.1795 76.7436C43.7995 77.0413 43.3211 77.1844 42.8401 77.1443C42.3591 77.1042 41.911 76.8838 41.5854 76.5273C41.4258 76.3563 41.304 76.1536 41.2277 75.9324C41.1515 75.7112 41.1227 75.4765 41.1431 75.2434C41.1635 75.0103 41.2326 74.7841 41.3461 74.5796C41.4595 74.375 41.6147 74.1965 41.8016 74.0559C42.1837 73.7491 42.6689 73.6005 43.1572 73.6407C43.6455 73.681 44.0998 73.9069 44.4266 74.2721Z" fill="#CD4492"/>
<path d="M37.4458 65.9C37.6246 66.1218 37.7087 66.4052 37.6798 66.6887C37.6509 66.9722 37.5113 67.2327 37.2914 67.4138C37.0597 67.5964 36.7664 67.6823 36.4728 67.6535C36.1793 67.6247 35.9082 67.4835 35.7164 67.2593C35.5203 67.0625 35.4102 66.7958 35.4102 66.5179C35.4102 66.2399 35.5203 65.9733 35.7164 65.7765C35.9322 65.5811 36.2129 65.4729 36.5039 65.4729C36.7949 65.4729 37.0756 65.5811 37.2914 65.7765L37.4458 65.9Z" fill="#0064B0"/>
<path d="M65.3628 76.8053C65.4638 76.9006 65.5442 77.0155 65.5991 77.143C65.6541 77.2705 65.6825 77.4079 65.6825 77.5467C65.6825 77.6856 65.6541 77.8229 65.5991 77.9504C65.5442 78.0779 65.4638 78.1929 65.3628 78.2882C65.2595 78.3918 65.1368 78.4741 65.0017 78.5302C64.8665 78.5864 64.7216 78.6153 64.5753 78.6153C64.429 78.6153 64.2841 78.5864 64.149 78.5302C64.0138 78.4741 63.8911 78.3918 63.7878 78.2882C63.7001 78.1809 63.6346 78.0572 63.5948 77.9245C63.5551 77.7917 63.5421 77.6524 63.5564 77.5146C63.5708 77.3767 63.6123 77.2431 63.6785 77.1213C63.7447 76.9996 63.8343 76.8922 63.9422 76.8053C64.153 76.6121 64.4284 76.5049 64.7143 76.5049C65.0001 76.5049 65.2756 76.6121 65.4863 76.8053H65.3628Z" fill="#0064B0"/>
<path d="M64.4973 62.1929C64.6625 62.3744 64.7879 62.5885 64.8655 62.8214C64.9431 63.0542 64.9711 63.3007 64.9479 63.5451C64.9246 63.7894 64.8505 64.0262 64.7304 64.2403C64.6103 64.4543 64.4467 64.6408 64.2503 64.7879C63.8533 65.1007 63.3529 65.2522 62.8491 65.2121C62.3454 65.172 61.8753 64.9433 61.5327 64.5717C61.3675 64.3901 61.2421 64.1761 61.1645 63.9432C61.0869 63.7103 61.0589 63.4638 61.0821 63.2195C61.1054 62.9751 61.1795 62.7383 61.2996 62.5243C61.4197 62.3103 61.5833 62.1237 61.7797 61.9766C62.1767 61.6639 62.6771 61.5124 63.1809 61.5525C63.6846 61.5926 64.1548 61.8213 64.4973 62.1929Z" fill="#00B2EA"/>
<path d="M46.7415 62.0693C46.8219 62.1444 46.886 62.2353 46.9299 62.3363C46.9737 62.4372 46.9963 62.5461 46.9963 62.6562C46.9963 62.7663 46.9737 62.8752 46.9299 62.9762C46.886 63.0772 46.8219 63.1681 46.7415 63.2432C46.575 63.4019 46.3538 63.4903 46.1239 63.4903C45.8939 63.4903 45.6727 63.4019 45.5062 63.2432C45.4208 63.1678 45.3524 63.0751 45.3055 62.9713C45.2586 62.8674 45.2344 62.7547 45.2344 62.6408C45.2344 62.5268 45.2586 62.4142 45.3055 62.3103C45.3524 62.2064 45.4208 62.1138 45.5062 62.0384C45.6811 61.8842 45.9062 61.7991 46.1393 61.7991C46.3724 61.7991 46.5975 61.8842 46.7724 62.0384L46.7415 62.0693Z" fill="#FF7B8C"/>
<path d="M69.501 39.7335C69.4123 40.0495 69.2616 40.3447 69.0576 40.6018C68.8536 40.8588 68.6005 41.0727 68.313 41.2309C68.0255 41.3891 67.7095 41.4884 67.3832 41.523C67.0569 41.5576 66.727 41.5269 66.4128 41.4327C66.1059 41.3748 65.8141 41.2546 65.5555 41.0796C65.2968 40.9045 65.0768 40.6783 64.9089 40.4148C64.7411 40.1514 64.629 39.8563 64.5796 39.5479C64.5302 39.2394 64.5445 38.9241 64.6216 38.6214C64.7103 38.3054 64.861 38.0102 65.065 37.7532C65.269 37.4961 65.5221 37.2822 65.8096 37.124C66.097 36.9659 66.4131 36.8666 66.7394 36.8319C67.0657 36.7973 67.3956 36.828 67.7098 36.9223C68.0167 36.9801 68.3085 37.1003 68.5671 37.2753C68.8258 37.4504 69.0458 37.6766 69.2137 37.9401C69.3815 38.2035 69.4936 38.4986 69.543 38.807C69.5924 39.1155 69.5781 39.4308 69.501 39.7335Z" fill="#CD4492"/>
<path d="M73.4538 26.1715C73.3524 26.5383 73.1112 26.8506 72.782 27.0412C72.4528 27.2319 72.0619 27.2857 71.6935 27.1909C71.5108 27.1507 71.3378 27.0748 71.1845 26.9676C71.0313 26.8603 70.9006 26.7239 70.8002 26.566C70.6998 26.4081 70.6315 26.232 70.5993 26.0476C70.5671 25.8633 70.5716 25.6744 70.6126 25.4918C70.7272 25.127 70.9756 24.8191 71.3079 24.6299C71.6402 24.4408 72.0317 24.3845 72.4038 24.4724C72.5857 24.5122 72.7578 24.5883 72.9099 24.696C73.0619 24.8037 73.1907 24.9409 73.2886 25.0994C73.3866 25.2579 73.4517 25.4345 73.48 25.6186C73.5084 25.8028 73.4995 25.9908 73.4538 26.1715Z" fill="#0064B0"/>
<path d="M83.0282 63.0888C82.9201 63.458 82.6729 63.7706 82.3387 63.9609C82.0044 64.1511 81.6094 64.2039 81.237 64.1083C81.055 64.0684 80.8829 63.9924 80.7309 63.8847C80.5789 63.777 80.4501 63.6398 80.3522 63.4813C80.2542 63.3228 80.1891 63.1462 80.1607 62.962C80.1324 62.7778 80.1413 62.5898 80.187 62.4092C80.2884 62.0424 80.5296 61.7301 80.8588 61.5394C81.188 61.3487 81.5789 61.295 81.9473 61.3897C82.13 61.4299 82.3029 61.5058 82.4562 61.6131C82.6095 61.7203 82.7401 61.8568 82.8406 62.0147C82.941 62.1725 83.0093 62.3487 83.0415 62.533C83.0737 62.7174 83.0691 62.9062 83.0282 63.0888Z" fill="#0064B0"/>
<path d="M98.7166 50.8242C98.5427 51.4703 98.1204 52.0214 97.5418 52.3571C96.9632 52.6928 96.2753 52.7858 95.6284 52.616C95.2936 52.5523 94.9758 52.4191 94.6956 52.2251C94.4154 52.031 94.1789 51.7804 94.0015 51.4893C93.824 51.1983 93.7094 50.8733 93.6652 50.5352C93.6209 50.1972 93.648 49.8536 93.7446 49.5266C93.9385 48.895 94.3659 48.3611 94.9398 48.0339C95.5137 47.7067 96.1907 47.6108 96.8328 47.7657C97.1696 47.824 97.4899 47.9542 97.7718 48.1475C98.0538 48.3408 98.2907 48.5927 98.4666 48.8859C98.6424 49.179 98.753 49.5067 98.7909 49.8465C98.8287 50.1864 98.7928 50.5304 98.6857 50.8551L98.7166 50.8242Z" fill="#00B2EA"/>
<path d="M85.0343 32.6283C84.9477 32.9218 84.7527 33.1713 84.4889 33.3262C84.225 33.4811 83.9122 33.5298 83.6138 33.4624C83.3194 33.3959 83.0633 33.2157 82.9013 32.961C82.7393 32.7064 82.6846 32.3979 82.7491 32.1031C82.8357 31.8029 83.0355 31.5482 83.3063 31.3925C83.5771 31.2369 83.8977 31.1926 84.2005 31.2689C84.3455 31.3015 84.4826 31.3629 84.6035 31.4494C84.7244 31.5358 84.8267 31.6457 84.9045 31.7724C84.9822 31.8991 85.0338 32.0402 85.0561 32.1872C85.0784 32.3342 85.071 32.4842 85.0343 32.6283Z" fill="#FF7B8C"/>
<path d="M150.507 43.6571C150.422 43.9754 150.274 44.2732 150.071 44.5326C149.868 44.792 149.614 45.0075 149.326 45.1663C149.037 45.325 148.72 45.4237 148.392 45.4564C148.064 45.489 147.733 45.455 147.419 45.3562C147.116 45.2904 146.83 45.1653 146.575 44.9881C146.321 44.8109 146.105 44.5852 145.938 44.3238C145.772 44.0625 145.658 43.7707 145.605 43.4654C145.552 43.1601 145.56 42.8473 145.628 42.545C145.717 42.229 145.867 41.9338 146.071 41.6767C146.275 41.4197 146.528 41.2058 146.816 41.0476C147.103 40.8895 147.419 40.7901 147.746 40.7555C148.072 40.7209 148.402 40.7516 148.716 40.8458C149.018 40.9113 149.304 41.0366 149.557 41.2142C149.81 41.3919 150.025 41.6184 150.189 41.8804C150.353 42.1423 150.463 42.4345 150.512 42.7396C150.561 43.0448 150.549 43.3567 150.476 43.6571H150.507Z" fill="#CD4492"/>
<path d="M154.489 30.0642C154.381 30.4333 154.134 30.746 153.8 30.9362C153.465 31.1264 153.07 31.1793 152.698 31.0836C152.516 31.0438 152.344 30.9677 152.192 30.86C152.04 30.7523 151.911 30.6151 151.813 30.4566C151.715 30.2981 151.65 30.1215 151.622 29.9373C151.593 29.7532 151.602 29.5652 151.648 29.3845C151.749 29.0177 151.991 28.7054 152.32 28.5147C152.649 28.3241 153.04 28.2703 153.408 28.365C153.591 28.4052 153.764 28.4811 153.917 28.5884C154.07 28.6956 154.201 28.8321 154.301 28.99C154.402 29.1479 154.47 29.324 154.502 29.5084C154.535 29.6927 154.53 29.8816 154.489 30.0642Z" fill="#0064B0"/>
<path d="M163.907 66.9813C163.806 67.3481 163.564 67.6604 163.235 67.8511C162.906 68.0417 162.515 68.0955 162.147 68.0008C161.964 67.9606 161.791 67.8847 161.638 67.7774C161.484 67.6702 161.354 67.5337 161.253 67.3758C161.153 67.2179 161.085 67.0418 161.052 66.8574C161.02 66.6731 161.025 66.4842 161.066 66.3016C161.174 65.9325 161.421 65.6198 161.755 65.4296C162.089 65.2394 162.484 65.1865 162.857 65.2822C163.039 65.322 163.211 65.3981 163.363 65.5058C163.515 65.6135 163.644 65.7507 163.742 65.9092C163.84 66.0677 163.905 66.2443 163.933 66.4285C163.962 66.6126 163.953 66.8006 163.907 66.9813Z" fill="#0064B0"/>
<path d="M179.751 54.7477C179.563 55.3837 179.137 55.9223 178.561 56.2506C177.986 56.579 177.305 56.6714 176.663 56.5086C176.328 56.4456 176.011 56.3125 175.732 56.1181C175.452 55.9236 175.218 55.6721 175.042 55.3802C174.867 55.0884 174.756 54.7627 174.716 54.4247C174.676 54.0867 174.708 53.744 174.81 53.4193C174.997 52.7833 175.423 52.2446 175.999 51.9163C176.575 51.588 177.255 51.4955 177.898 51.6584C178.23 51.7257 178.544 51.8616 178.821 52.0572C179.098 52.2528 179.331 52.5039 179.505 52.7946C179.679 53.0852 179.791 53.4089 179.833 53.7452C179.876 54.0815 179.848 54.4229 179.751 54.7477Z" fill="#00B2EA"/>
<path d="M166.07 36.6442C165.983 36.9444 165.783 37.1992 165.512 37.3548C165.242 37.5104 164.921 37.5547 164.618 37.4784C164.473 37.4458 164.336 37.3844 164.215 37.298C164.094 37.2115 163.992 37.1016 163.914 36.9749C163.836 36.8482 163.785 36.7072 163.763 36.5602C163.74 36.4131 163.748 36.2632 163.784 36.1191C163.864 35.8213 164.058 35.5669 164.324 35.4108C164.59 35.2547 164.906 35.2095 165.205 35.285C165.499 35.3514 165.755 35.5316 165.917 35.7863C166.079 36.0409 166.134 36.3494 166.07 36.6442Z" fill="#FF7B8C"/>
</g>
</svg>
