<svg width="184" height="194" viewBox="0 0 184 194" fill="none" xmlns="http://www.w3.org/2000/svg">
<mask id="mask0_398_1275" style="mask-type:luminance" maskUnits="userSpaceOnUse" x="0" y="0" width="208" height="194">
<path d="M207.671 0H0V194H207.671V0Z" fill="white"/>
</mask>
<g mask="url(#mask0_398_1275)">
<path d="M77.4338 21.8445L77.7153 22.3875C77.8962 22.7294 78.1777 23.2322 78.5195 23.8959L79.7056 26.269C80.1479 27.1741 80.6707 28.2802 81.1934 29.3461C81.7161 30.412 82.3192 31.6992 82.9224 33.0064C83.5255 34.3137 84.1487 35.6813 84.7921 37.0288C85.4354 38.3762 86.0788 39.945 86.8025 41.4533L88.813 46.0388C89.4563 47.5874 90.0997 49.1159 90.8234 50.6444L92.2508 55.1293C92.8339 56.5773 93.3566 57.9851 93.8592 59.3326C94.3618 60.6801 94.8242 61.9471 95.2464 63.1337C95.6686 64.3203 96.0506 65.3862 96.3722 66.3515C96.6939 67.3169 96.9754 68.1616 97.2166 68.8454C97.4579 69.5292 97.5986 70.0923 97.7192 70.4543L97.9002 71.0376L97.679 70.5146L96.8749 68.9862C96.5532 68.3426 96.131 67.5381 95.6887 66.6331C95.2464 65.7281 94.7237 64.6219 94.201 63.556C93.6782 62.4901 93.0751 61.1829 92.472 59.8756C91.8688 58.5683 91.2255 57.2008 90.6023 55.8533C89.979 54.5058 89.3156 52.9371 88.5918 51.4287C87.8681 49.9203 87.285 48.3918 86.5814 46.8433C85.8777 45.2947 85.3148 43.7662 84.7117 42.2377C84.1085 40.7092 83.5054 39.2209 82.9425 37.7528C82.3795 36.2846 81.8367 34.8969 81.3341 33.5495C80.8315 32.202 80.3691 30.9349 79.9469 29.7484C79.5247 28.5618 79.1427 27.4959 78.821 26.5305C78.4994 25.5651 78.2179 24.7406 77.9767 24.0367C77.7354 23.3327 77.5947 22.7897 77.474 22.4277L77.4338 21.8445Z" fill="#00B2EA"/>
<path d="M106.987 22.7697C106.987 22.7697 106.987 23.011 106.987 23.4736V25.4847C106.987 27.2143 106.987 29.7082 106.987 32.7048C106.987 34.1931 106.987 35.802 106.987 37.5115C106.987 39.221 106.987 41.031 106.987 42.9014C106.987 44.7718 106.987 46.6824 106.826 48.6533C106.665 50.6243 106.826 52.6757 106.665 54.6868C106.504 56.698 106.323 58.5885 106.323 60.5393C106.323 62.4901 106.163 64.4209 106.102 66.2912C105.941 70.0119 105.761 73.4912 105.6 76.4677C105.439 79.4443 105.258 81.9381 105.157 83.6878C105.157 84.5526 105.157 85.2364 105.017 85.699C104.876 86.1615 105.017 86.4029 105.017 86.4029V85.699C105.017 85.2364 105.017 84.5526 105.017 83.6878C105.017 81.9582 105.017 79.4644 105.017 76.4677C105.017 73.4711 105.017 70.0119 105.198 66.2711C105.198 64.4209 105.198 62.4902 105.338 60.5192C105.479 58.5483 105.459 56.4969 105.519 54.4857C105.58 52.4746 105.66 50.4634 105.72 48.4522C105.781 46.4411 105.881 44.5707 105.962 42.7003C106.042 40.8299 106.122 39.04 106.203 37.3305C106.283 35.621 106.323 34.1931 106.323 32.7048C106.464 29.7283 106.645 27.2344 106.746 25.4847C106.746 24.6199 106.746 23.9563 106.886 23.4736C107.027 22.9909 106.987 22.7697 106.987 22.7697Z" fill="#CD4492"/>
<path d="M131.614 16.4144C131.614 16.4144 131.614 16.5552 131.614 16.8166C131.614 17.0781 131.433 17.4602 131.292 17.9228C131.01 18.8881 130.588 20.2557 130.045 21.9451C129.503 23.6345 128.819 25.4445 128.035 27.4356C127.653 28.421 127.251 29.4467 126.829 30.4925C126.406 31.5383 125.964 32.5037 125.522 33.63C125.08 34.7562 124.617 35.6411 124.155 36.7473C123.692 37.8534 123.25 38.7584 122.788 39.7439C121.883 41.7551 120.998 43.4645 120.214 44.993C119.43 46.5215 118.727 47.7886 118.204 48.6534C117.963 49.0958 117.762 49.4377 117.621 49.6589L117.4 50.021C117.4 50.021 117.4 49.8802 117.4 49.6187L117.721 48.5126C118.003 47.5472 118.425 46.1796 118.968 44.4902C119.511 42.8009 120.194 40.9908 120.978 38.9998C121.36 38.0143 121.762 36.9886 122.185 35.9428C122.607 34.897 123.049 33.9316 123.491 32.8054C123.934 31.6791 124.396 30.7942 124.858 29.6881C125.321 28.5819 125.763 27.6769 126.226 26.6914C127.13 24.6803 128.015 22.9708 128.819 21.4423C129.623 19.9138 130.287 18.6669 130.829 17.782C131.071 17.3395 131.292 16.9976 131.412 16.7764L131.614 16.4144Z" fill="#566BB1"/>
<path d="M137.082 37.3103L136.841 37.8131L136.137 39.1807C135.514 40.3673 134.61 42.0366 133.504 44.0478C132.398 46.0589 131.031 48.3516 129.483 50.7851C128.759 52.012 127.975 53.279 127.191 54.546C126.407 55.8131 125.583 57.1203 124.758 58.4075C123.934 59.6946 123.13 60.9818 122.285 62.2287C121.441 63.4756 120.657 64.7225 119.853 65.9091C118.244 68.2823 116.717 70.4744 115.37 72.3448C114.023 74.2152 112.957 75.7437 112.133 76.8096C111.731 77.3526 111.389 77.7549 111.168 78.0364L110.826 78.4789C110.826 78.4789 110.826 78.2979 111.067 77.9962L111.771 76.6085C112.394 75.4219 113.299 73.7325 114.405 71.7415C115.51 69.7504 116.877 67.4376 118.425 65.0041L120.717 61.2432C121.501 59.956 122.326 58.6689 123.15 57.3818C123.974 56.0946 124.799 54.8075 125.623 53.5605C126.447 52.3136 127.271 51.0667 128.076 49.8801C129.684 47.507 131.212 45.3148 132.539 43.4444C133.866 41.574 135.052 40.0455 135.856 38.9796C136.258 38.4366 136.6 38.0344 136.821 37.7528L137.082 37.3103Z" fill="#00B2EA"/>
<path d="M160.222 29.8892L159.901 30.3115C159.7 30.573 159.418 30.9752 159.016 31.478C158.252 32.4635 157.126 33.8713 155.739 35.5003C154.352 37.1294 152.744 39.0802 150.954 41.1115C150.05 42.1171 149.125 43.1226 148.16 44.2087L145.265 47.3863L142.309 50.5237L139.394 53.5204C137.484 55.5315 135.675 57.2209 134.107 58.7092C132.539 60.1974 131.192 61.4242 130.247 62.289L129.141 63.2544L128.739 63.5963L129.04 63.1739C129.261 62.9125 129.543 62.5103 129.945 62.0075C130.709 61.022 131.835 59.6142 133.202 57.9851C134.569 56.3561 136.218 54.4053 138.007 52.3941C138.892 51.3684 139.836 50.3829 140.781 49.2768C141.726 48.1707 142.792 47.1651 143.696 46.1193L146.652 42.9818L149.567 39.945C151.477 37.9338 153.266 36.2445 154.854 34.7361C156.443 33.2277 157.75 32.021 158.715 31.1763L159.82 30.1909L160.222 29.8892Z" fill="#CD4492"/>
<path d="M153.267 49.2165L152.825 49.679L151.619 50.9863C150.573 52.0924 149.085 53.7014 147.256 55.5919L144.301 58.6287L141.003 62.0678C139.837 63.2142 138.651 64.441 137.425 65.6678L133.726 69.308L129.986 72.9884C128.78 74.1951 127.554 75.3817 126.367 76.5281C124.015 78.8208 121.784 80.9325 119.874 82.7426C117.964 84.5526 116.375 86.0409 115.229 87.0867C114.667 87.6297 114.204 88.0118 113.903 88.2934L113.44 88.7359L113.862 88.213C114.144 87.9113 114.546 87.4487 115.069 86.9057L119.431 82.3001C121.261 80.289 123.452 78.2778 125.704 75.8644L129.262 72.2644L132.962 68.5639L136.701 64.9036C137.927 63.6768 139.154 62.5103 140.32 61.3639L143.738 58.0455L146.834 55.1092C148.724 53.2992 150.352 51.8109 151.478 50.7651L152.785 49.5584L153.267 49.2165Z" fill="#CD4492"/>
<path d="M184.047 51.3684L183.545 51.6902L182.077 52.6153C181.434 53.0176 180.69 53.5003 179.785 54.0232C178.88 54.5461 177.915 55.1695 176.81 55.8131L173.251 57.8243L169.25 60.0566C167.843 60.8209 166.416 61.6253 164.928 62.4097L160.465 64.8834L155.961 67.2164L151.558 69.4287L147.417 71.4398C146.11 72.0834 144.844 72.6666 143.677 73.2097C142.511 73.7527 141.466 74.2354 140.501 74.6577L138.028 75.7437L136.44 76.4275L135.877 76.6487L136.38 76.327C136.721 76.1057 137.204 75.7839 137.847 75.4018C138.491 75.0197 139.234 74.5169 140.119 73.994L143.115 72.1236C144.2 71.4801 145.386 70.7761 146.673 70.1125C147.96 69.4488 149.267 68.6041 150.694 67.8399L154.996 65.4868C156.464 64.6823 157.972 63.898 159.48 63.0935L163.983 60.7807C165.471 59.9963 166.958 59.2723 168.386 58.5684C169.813 57.8645 171.2 57.1807 172.527 56.5572C173.854 55.9338 175.081 55.3304 176.247 54.8075L179.423 53.3394L181.896 52.2533L183.504 51.5695L184.047 51.3684Z" fill="#00B2EA"/>
<path d="M121.784 91.8733L122.447 91.5515L124.297 90.6465L127.212 89.299L131.012 87.5694C132.399 86.946 133.907 86.2823 135.515 85.5583C137.123 84.8342 138.812 84.1907 140.501 83.4264C142.19 82.6622 144.08 81.9181 145.929 81.1739L151.558 78.8812L157.208 76.6689C159.077 75.9248 160.927 75.241 162.716 74.5572C164.506 73.8734 166.235 73.2499 167.883 72.6466L172.668 70.9773C174.096 70.4544 175.422 70.012 176.689 69.6097L179.745 68.584L181.755 67.9405L182.459 67.7393L181.816 68.0611L179.946 68.946L177.031 70.3136C175.905 70.8365 174.638 71.4198 173.231 72.0231C171.824 72.6265 170.336 73.3304 168.728 74.0343C167.119 74.7382 165.43 75.4622 163.661 76.1862L158.233 78.4589L152.604 80.7315L146.954 82.9639L141.446 84.975C139.657 85.6588 137.928 86.2823 136.279 86.9862L131.635 88.6555C130.187 89.1784 128.86 89.6208 127.614 90.0231C126.368 90.4253 125.402 90.7672 124.558 91.0487L122.548 91.6923L121.784 91.8733Z" fill="#7F5BA2"/>
<path d="M116.555 97.3234H117.299H119.309L126.788 97.7257L131.754 98.0273L137.323 98.3894L143.354 98.8117L149.386 99.2743L155.417 99.7771C157.428 99.9178 159.438 100.099 161.448 100.26L171.963 101.245L179.382 102.009L181.392 102.251H182.116H181.372H179.362L171.883 101.849L161.348 101.185L155.317 100.763L149.285 100.3L143.153 99.7972L137.223 99.2944L131.674 98.7916L126.708 98.329L119.289 97.5648L117.279 97.3234H116.555Z" fill="#CD4492"/>
<path d="M145.787 91.8733H146.189L147.335 91.6118C148.32 91.3906 149.728 91.109 151.356 90.8073C152.985 90.5057 155.035 90.1839 157.186 89.9023L160.604 89.3593L164.002 88.9772L167.42 88.6554L170.656 88.3939C172.787 88.2532 174.798 88.1325 176.527 88.0923C178.256 88.0521 179.703 88.0923 180.709 88.0923H182.297H181.895L180.749 88.3537L176.728 89.1582C175.019 89.4599 173.049 89.7615 170.898 90.0632C169.852 90.204 168.746 90.3649 167.621 90.4856L164.223 90.8677C163.077 90.9883 161.931 91.109 160.805 91.1895L157.488 91.4509C155.357 91.6118 153.346 91.7124 151.617 91.7526C149.888 91.7928 148.441 91.7526 147.436 91.7526H145.847L145.787 91.8733Z" fill="#00B2EA"/>
<path d="M121.784 104.423H122.347L123.955 104.644C125.342 104.825 127.312 105.127 129.665 105.529C132.017 105.931 134.751 106.434 137.706 106.997L142.21 107.922L146.854 108.928L151.458 109.994C152.986 110.336 154.474 110.718 155.921 111.06C158.796 111.784 161.49 112.488 163.782 113.071C166.074 113.654 167.984 114.278 169.311 114.7L170.839 115.183L171.381 115.364H170.818L169.21 115.142C167.823 114.961 165.853 114.66 163.5 114.257C161.148 113.855 158.414 113.352 155.459 112.769L150.955 111.945L146.331 110.939L141.707 109.873L137.244 108.787C134.369 108.063 131.695 107.359 129.383 106.776C127.071 106.193 125.201 105.569 123.875 105.167L122.407 104.604L121.784 104.423Z" fill="#566BB1"/>
<path d="M141.446 113.855L141.989 113.976L143.456 114.338C144.743 114.64 146.553 115.122 148.724 115.726C150.895 116.329 153.388 117.073 156.062 117.918C157.409 118.32 158.776 118.763 160.083 119.225L164.325 120.633L168.527 122.101C169.914 122.584 171.261 123.087 172.548 123.569C175.181 124.555 177.614 125.58 179.685 126.324C181.756 127.069 183.464 127.913 184.671 128.336L186.058 128.959L186.54 129.18L186.018 129.06C185.656 129.06 185.153 128.879 184.53 128.698C183.243 128.396 181.434 127.913 179.263 127.31C177.091 126.707 174.598 125.962 171.924 125.138L167.904 123.811C166.496 123.368 165.089 122.885 163.682 122.403C162.274 121.92 160.847 121.437 159.46 120.935C158.072 120.432 156.725 119.949 155.439 119.466C152.825 118.481 150.393 117.455 148.302 116.711C146.211 115.967 144.522 115.122 143.316 114.7L141.949 114.077L141.446 113.855Z" fill="#CD4492"/>
<path d="M125.603 110.879L126.166 111.201C126.528 111.422 127.071 111.723 127.734 112.146C129.081 112.95 131.031 114.157 133.323 115.504L137.043 117.777L141.064 120.351C142.491 121.256 143.959 122.161 145.446 123.127L149.97 126.003L154.574 128.919L158.916 131.755C161.731 133.605 164.345 135.355 166.576 136.863C168.808 138.371 170.597 139.658 171.944 140.543L173.432 141.589L173.955 141.951L173.392 141.629L171.823 140.704C170.476 139.88 168.526 138.693 166.234 137.346C163.942 135.998 161.248 134.289 158.394 132.479L154.011 129.723L149.487 126.827L144.984 123.911L140.641 121.075L136.621 118.4L133.002 115.967C130.77 114.459 128.981 113.171 127.634 112.287C126.99 111.844 126.488 111.482 126.126 111.261L125.603 110.879Z" fill="#0064B0"/>
<path d="M111.69 104.423L112.253 104.926L113.822 106.374L116.214 108.626L119.29 111.562C120.396 112.649 121.622 113.835 122.889 115.102C124.155 116.369 125.482 117.676 126.91 119.124C128.337 120.573 129.704 121.94 131.111 123.428L135.394 127.873L139.636 132.378C141.043 133.866 142.39 135.375 143.657 136.803C144.923 138.231 146.21 139.618 147.396 140.946C148.582 142.273 149.708 143.54 150.733 144.706L153.508 147.904C154.332 148.849 155.036 149.714 155.619 150.398L156.966 152.027L157.428 152.59L156.885 152.108L155.317 150.66C154.654 150.036 153.829 149.292 152.925 148.407C152.02 147.522 150.914 146.557 149.849 145.471C148.783 144.385 147.517 143.198 146.25 141.931C144.983 140.664 143.636 139.357 142.229 137.909C140.822 136.461 139.435 135.093 138.027 133.625L133.725 129.16C132.318 127.632 130.89 126.123 129.483 124.635C128.076 123.147 126.749 121.659 125.462 120.231C124.175 118.803 122.889 117.415 121.702 116.088L118.385 112.347C117.34 111.18 116.375 110.094 115.591 109.149L113.58 106.655L112.253 105.026C111.851 104.644 111.69 104.423 111.69 104.423Z" fill="#00B2EA"/>
<path d="M109.44 109.974L109.762 110.557C109.963 110.939 110.284 111.482 110.646 112.206L112.013 114.78L113.722 118.159C114.345 119.386 115.009 120.733 115.733 122.181C116.456 123.63 117.16 125.118 117.884 126.686C118.608 128.255 119.392 129.844 120.136 131.513C120.879 133.183 121.623 134.832 122.387 136.501L124.599 141.549C125.322 143.198 125.986 144.847 126.609 146.436C127.232 148.025 127.916 149.574 128.499 151.042C129.082 152.51 129.645 153.877 130.148 155.064C130.65 156.251 131.092 157.538 131.495 158.584C131.897 159.629 132.218 160.595 132.5 161.319C132.781 162.043 132.962 162.666 133.123 163.068C133.284 163.471 133.324 163.692 133.324 163.692C133.324 163.692 133.224 163.491 133.002 163.129L132.098 161.46L130.751 158.885C130.228 157.88 129.645 156.753 129.042 155.506C128.439 154.26 127.755 152.932 127.031 151.484C126.308 150.036 125.604 148.568 124.88 146.999C124.156 145.431 123.372 143.822 122.628 142.172C121.885 140.523 121.121 138.834 120.377 137.165C119.633 135.495 118.909 133.786 118.165 132.137C117.421 130.488 116.778 128.818 116.155 127.23C115.532 125.641 114.868 124.092 114.265 122.644C113.662 121.196 113.119 119.788 112.616 118.501C112.114 117.214 111.672 116.027 111.269 114.982C110.867 113.936 110.546 113.111 110.345 112.347L109.742 110.577C109.631 110.381 109.53 110.18 109.44 109.974Z" fill="#00B2EA"/>
<path d="M129.082 133.866L129.484 134.329C129.766 134.624 130.148 135.066 130.63 135.656L132.359 137.667C133.023 138.492 133.766 139.397 134.55 140.423C135.335 141.448 136.219 142.434 137.104 143.681C137.988 144.928 138.973 146.094 139.918 147.381C140.863 148.668 141.929 149.976 142.874 151.404L145.869 155.547L148.805 159.71C149.77 161.097 150.694 162.465 151.599 163.732C152.504 164.999 153.368 166.347 154.172 167.553C154.977 168.76 155.741 169.947 156.444 171.033L158.314 173.989C158.857 174.854 159.339 175.638 159.721 176.282L160.606 177.77L160.928 178.313L160.606 177.911L159.48 176.583C158.997 176 158.394 175.296 157.751 174.572L155.54 171.837L152.986 168.559C152.102 167.392 151.137 166.166 150.192 164.858C149.247 163.551 148.181 162.264 147.236 160.836C146.291 159.408 145.226 158.081 144.241 156.693L141.205 152.57C140.22 151.203 139.315 149.815 138.39 148.548C137.466 147.281 136.641 145.933 135.817 144.706L133.565 141.227C132.862 140.161 132.259 139.216 131.696 138.291C131.133 137.366 130.67 136.622 130.288 135.978C129.906 135.334 129.605 134.832 129.404 134.49L129.082 133.866Z" fill="#CD4492"/>
<path d="M111.69 131.051L111.851 131.614C111.972 131.976 112.133 132.519 112.314 133.223C112.696 134.59 113.279 136.561 113.902 138.934C114.224 140.121 114.545 141.408 114.907 142.756C115.269 144.103 115.631 145.551 116.013 147.039C116.395 148.528 116.797 150.076 117.179 151.625L118.325 156.371C118.707 157.96 119.089 159.549 119.451 161.118C119.813 162.686 120.175 164.235 120.516 165.723C121.2 168.72 121.823 171.495 122.326 173.909C122.828 176.322 123.23 178.313 123.532 179.701C123.673 180.405 123.773 180.968 123.854 181.33C123.934 181.692 123.854 181.913 123.854 181.913L123.693 181.35C123.693 180.968 123.411 180.445 123.23 179.741C122.848 178.373 122.285 176.402 121.642 174.029C120.999 171.656 120.275 168.901 119.531 165.985C119.149 164.496 118.747 162.948 118.385 161.399C118.023 159.851 117.601 158.242 117.219 156.653C116.837 155.064 116.455 153.475 116.093 151.906C115.731 150.338 115.37 148.789 115.028 147.301C114.686 145.813 114.364 144.365 114.063 142.997L113.218 139.115C112.696 136.722 112.314 134.711 112.032 133.323C111.871 132.619 111.771 132.056 111.711 131.694L111.69 131.051Z" fill="#CD4492"/>
<path d="M104.554 102.452C104.554 102.452 104.554 102.713 104.554 103.216C104.554 103.719 104.554 104.463 104.735 105.408C104.916 106.354 104.896 107.42 104.956 108.827C105.016 110.235 105.137 111.623 105.217 113.232C105.298 114.841 105.398 116.611 105.459 118.461C105.519 120.311 105.619 122.282 105.68 124.293C105.74 126.304 105.82 128.316 105.841 130.548L105.961 136.984C105.961 139.156 105.961 141.308 105.961 143.44C105.961 145.571 105.961 147.643 105.961 149.674C105.961 151.705 105.961 153.696 105.961 155.507C105.961 157.317 105.961 159.127 105.961 160.756C105.961 162.385 105.961 163.853 105.82 165.16C105.68 166.467 105.82 167.634 105.66 168.579C105.499 169.524 105.66 170.268 105.539 170.771C105.418 171.274 105.539 171.556 105.539 171.556C105.539 171.556 105.539 171.274 105.539 170.771C105.539 170.268 105.539 169.524 105.378 168.579C105.217 167.634 105.217 166.568 105.137 165.18C105.056 163.793 104.956 162.385 104.876 160.756C104.795 159.127 104.715 157.397 104.634 155.527C104.554 153.656 104.313 151.726 104.313 149.694C104.313 147.663 104.192 145.672 104.152 143.46C104.112 141.247 104.152 139.176 104.031 137.004C103.911 134.832 104.031 132.7 104.031 130.568C104.031 128.436 104.031 126.345 104.031 124.333C104.031 122.322 104.031 120.311 104.031 118.481C104.031 116.651 104.031 114.881 104.152 113.252C104.272 111.623 104.152 110.155 104.293 108.827C104.433 107.5 104.313 106.313 104.313 105.429C104.313 104.544 104.313 103.739 104.433 103.216C104.554 102.693 104.554 102.452 104.554 102.452Z" fill="#7F5BA2"/>
<path d="M100.393 115.504V115.806C100.393 115.987 100.393 116.269 100.393 116.631C100.393 117.335 100.393 118.34 100.393 119.547C100.393 120.754 100.232 122.161 100.072 123.569C100.072 124.333 99.9107 125.098 99.8102 125.882C99.7096 126.666 99.589 127.451 99.4684 128.255C99.3478 129.06 99.207 129.844 99.0663 130.608C98.9256 131.373 98.7647 132.157 98.6039 132.881C98.3023 134.369 97.9807 135.737 97.659 136.903C97.3373 138.07 97.0358 139.035 96.8146 139.719L96.5331 140.503L96.4326 140.785C96.4326 140.785 96.4326 140.684 96.4326 140.483C96.4326 140.282 96.4326 140.021 96.4326 139.658C96.4326 138.955 96.4326 137.949 96.4326 136.722C96.4326 135.495 96.5935 134.128 96.7543 132.7C96.7543 131.956 96.9352 131.192 97.0358 130.407C97.1363 129.623 97.2569 128.838 97.3775 128.034C97.4982 127.23 97.6389 126.445 97.7796 125.681C97.9203 124.917 98.0812 124.132 98.2219 123.408C98.5436 121.92 98.8854 120.552 99.1869 119.386C99.4885 118.219 99.8102 117.254 100.031 116.57L100.293 115.786L100.393 115.504Z" fill="#CD4492"/>
<path d="M99.5269 144.888C99.5269 145.129 99.5269 145.491 99.5269 145.933C99.5269 146.838 99.6676 148.126 99.7279 149.654C99.7883 151.183 99.7279 152.993 99.7279 154.923C99.7279 155.889 99.7279 156.874 99.7279 157.88C99.7279 158.885 99.7279 159.891 99.7279 160.937L99.547 163.974C99.547 164.979 99.3862 165.985 99.3258 166.93C99.1449 168.941 98.9439 170.63 98.7428 172.159C98.5418 173.687 98.3206 174.975 98.1598 175.859C98.1598 176.302 98.0191 176.644 97.9788 176.885V177.247C97.9788 177.247 97.9788 177.127 97.9788 176.885C97.9788 176.644 97.9788 176.282 97.8783 175.839C97.8783 174.934 97.7175 173.647 97.6572 172.119C97.5969 170.59 97.6572 168.78 97.6572 166.849C97.6572 165.904 97.6572 164.838 97.6572 163.893L97.7778 160.836C97.7778 159.81 97.8783 158.825 97.9587 157.799C98.0392 156.774 98.0995 155.788 98.1799 154.843C98.3608 152.832 98.5418 151.142 98.7629 149.614C98.9841 148.085 99.165 146.798 99.3258 145.913C99.3258 145.471 99.4867 145.129 99.5269 144.888Z" fill="#CF0662"/>
<path d="M96.392 115.504C96.392 115.504 96.392 115.726 96.1507 116.108C95.9095 116.49 95.7888 117.093 95.4873 117.817C94.8841 119.285 94.0599 121.397 93.0345 123.851L91.3458 127.873L89.4358 132.459L87.4254 137.285C86.7016 138.914 85.9779 140.584 85.2541 142.233C84.5303 143.882 83.7865 145.551 83.0828 147.18C82.3792 148.809 81.6152 150.398 80.9316 151.947C79.5243 155.044 78.1974 157.98 77.0515 160.394C75.9055 162.807 74.9003 164.899 74.2167 166.427L73.4126 168.096L73.1311 168.68C73.1311 168.68 73.1311 168.458 73.3724 168.076C73.6136 167.694 73.7342 167.091 74.0358 166.367C74.6389 164.899 75.4431 162.787 76.4885 160.333C77.534 157.88 78.7403 154.903 80.0671 151.786C80.7507 150.217 81.4141 148.608 82.0776 146.959C82.741 145.31 83.5251 143.681 84.2288 142.012C84.9324 140.342 85.6964 138.693 86.4202 137.064L88.5713 132.298L90.5818 127.833C91.2452 126.425 91.8685 125.078 92.4314 123.811C93.5773 121.337 94.5826 119.306 95.246 117.777C95.5878 117.053 95.8894 116.49 96.0703 116.108L96.392 115.504Z" fill="#566BB1"/>
<path d="M91.1648 143.44C91.1648 143.44 91.1648 143.621 91.1648 143.922C91.1648 144.224 91.0442 144.686 90.9236 145.25C90.7024 146.396 90.3607 148.045 89.8983 149.976C89.4359 151.907 88.893 154.199 88.2296 156.613C87.9079 157.819 87.5661 159.066 87.2043 160.313C86.8424 161.56 86.4604 162.867 86.0784 164.134C85.6964 165.401 85.2943 166.689 84.8923 167.936C84.4902 169.182 84.1082 170.429 83.7061 171.596C82.9019 173.969 82.1178 176.181 81.4142 178.052C80.7105 179.922 80.0873 181.491 79.6249 182.577C79.4238 183.12 79.2228 183.542 79.1022 183.844L78.9011 184.286V183.804C78.9011 183.502 79.0419 183.039 79.1625 182.476C79.3836 181.33 79.7254 179.701 80.1677 177.75C80.61 175.799 81.193 173.527 81.8364 171.113C82.1782 169.906 82.5199 168.66 82.8818 167.413C83.2437 166.166 83.6257 164.879 84.0077 163.591C84.3896 162.304 84.7716 161.037 85.1737 159.79C85.5758 158.543 85.9779 157.317 86.38 156.13C87.1842 153.757 87.9682 151.545 88.6719 149.674C89.3755 147.804 89.9988 146.235 90.4411 145.149C90.6622 144.606 90.8633 144.184 90.9839 143.882L91.1648 143.44Z" fill="#566BB1"/>
<path d="M93.2557 107.078L92.7732 107.661C92.4315 108.023 91.9691 108.586 91.3659 109.27C90.7628 109.954 90.0189 110.798 89.1544 111.744C88.2899 112.689 87.3249 113.755 86.2393 114.941C85.1536 116.128 84.0278 117.375 82.7612 118.682C81.4946 119.989 80.1878 121.397 78.8408 122.825C77.4938 124.253 76.0664 125.721 74.6189 127.189L70.1959 131.694L65.7327 136.139C64.245 137.607 62.7774 139.015 61.35 140.403C59.9225 141.79 58.5353 143.098 57.2285 144.425C55.9217 145.752 54.6552 146.859 53.4891 147.924C52.323 148.99 51.2575 149.936 50.2925 150.861C49.3275 151.786 48.5032 152.49 47.7995 153.093L46.1912 154.521L45.6082 155.024L46.0907 154.441L47.498 152.832C48.1212 152.128 48.845 151.283 49.7095 150.338C50.574 149.393 51.539 148.327 52.6246 147.14L56.0625 143.319C57.2888 142.012 58.5956 140.604 59.9829 139.196C61.3701 137.788 62.7573 136.28 64.2249 134.812L68.6278 130.327L73.1111 125.882C74.5787 124.414 76.0664 123.006 77.4737 121.618C78.881 120.231 80.2884 118.923 81.5951 117.596L85.3346 114.077L88.5312 111.16C89.4761 110.275 90.3406 109.531 91.0241 108.928C91.7077 108.325 92.2706 107.822 92.6526 107.5L93.2557 107.078Z" fill="#00B2EA"/>
<path d="M83.705 102.452L83.1421 102.734L81.5941 103.498L79.1614 104.664C78.2165 105.127 77.151 105.63 75.9849 106.153C74.8188 106.675 73.5724 107.259 72.2254 107.842C70.8784 108.425 69.4711 109.069 67.9833 109.692C66.4956 110.316 64.9878 110.979 63.4397 111.603L58.7152 113.614C57.1269 114.237 55.5387 114.881 53.9504 115.484L49.3264 117.234L44.9838 118.823L41.0836 120.211L37.7462 121.337L35.1728 122.182L33.5042 122.684L32.9211 122.865L33.464 122.584L35.012 121.799L37.4446 120.633L40.601 119.165L44.3807 117.455L48.6227 115.625L53.1663 113.614L57.8909 111.703L62.6556 109.833C64.2037 109.21 65.7718 108.646 67.2797 108.083C68.7875 107.52 70.235 106.997 71.6222 106.474C73.0094 105.951 74.3162 105.529 75.5225 105.107L78.8598 103.98L81.4332 103.136L83.1019 102.633L83.705 102.452Z" fill="#7F5BA2"/>
<path d="M36.5603 135.676C36.5603 135.676 38.812 134.168 42.2499 132.016L45.0243 130.307L48.1606 128.295L51.518 126.284L54.9961 124.273L58.4742 122.262L61.8919 120.251L67.9233 116.872C71.4818 114.861 73.9546 113.714 73.9546 113.714C73.9546 113.714 71.7029 115.223 68.265 117.375C66.5562 118.441 64.5256 119.688 62.3543 120.995L59.017 123.006L55.5389 125.017L52.0407 127.028L48.623 129.04L45.4465 130.829L42.5514 132.418C38.9929 134.47 36.5603 135.676 36.5603 135.676Z" fill="#CD4492"/>
<path d="M26.1265 97.3234H26.9105H29.1019C30.9917 97.3234 33.7058 97.3234 36.9427 97.3234H48.0202H54.2727H60.7262L67.1798 97.4441C69.3109 97.4441 71.4017 97.4441 73.4323 97.5648L84.5098 97.8665L92.3506 98.1681L94.5621 98.2687H92.3707H84.5299C81.273 98.2687 77.4934 98.2687 73.4323 98.2687C71.4218 98.2687 69.3109 98.2687 67.1798 98.2687H60.7262H54.2727L48.0202 98.0676L42.1698 97.9268L36.9427 97.7659C33.7058 97.7659 30.9113 97.5246 29.1019 97.4642H26.9105L26.1265 97.3234Z" fill="#0064B0"/>
<path d="M26.1265 78.4789H26.7296L28.4184 78.7605L31.032 79.2431L34.4095 79.9269C35.6359 80.1683 36.9829 80.4498 38.4304 80.7716C39.8779 81.0934 41.3254 81.3951 42.8735 81.7772C44.4215 82.1593 45.9897 82.4811 47.5779 82.9034L52.4432 84.1101L57.2884 85.3973L61.9526 86.6844C63.4806 87.1068 64.9281 87.5291 66.3153 87.9515L70.1954 89.1179L73.4725 90.1637L75.9855 91.0084L77.5939 91.5515L78.1769 91.7727H77.5738L75.885 91.4911L73.2714 90.9883C72.2662 90.8073 71.1203 90.5861 69.8939 90.3246C68.6675 90.0632 67.3205 89.8017 65.873 89.4799L61.4299 88.4744C59.902 88.1124 58.3137 87.7503 56.7255 87.3481C55.1372 86.9459 53.4886 86.5436 51.8602 86.1213L47.015 84.8543C45.4066 84.4319 43.8586 83.9694 42.3307 83.547C40.8027 83.1247 39.3753 82.7023 37.9881 82.3001L34.0878 81.1135L30.8309 80.1683L28.3179 79.3236L26.6894 78.7605L26.1265 78.4789Z" fill="#CD4492"/>
<path d="M32.9211 63.5963L33.5444 63.8779L35.3739 64.7025C36.942 65.4265 39.1937 66.4321 41.8475 67.679L46.1499 69.6902L50.9548 71.9829L56.0614 74.4767L61.3288 77.051L66.576 79.6454L71.6423 82.1795C74.9194 83.8286 77.9752 85.3973 80.5888 86.7649C83.2024 88.1325 85.3737 89.2789 86.8815 90.0834C87.6455 90.4655 88.2285 90.8074 88.6306 91.0085L89.2539 91.3504L88.6105 91.0688L86.8011 90.2443C85.233 89.5202 82.9813 88.5146 80.3275 87.2677C77.6737 86.0208 74.5374 84.5526 71.2201 82.9437C69.5515 82.1393 67.8426 81.3348 66.1136 80.47L60.8462 77.8957L55.599 75.3013L50.5327 72.7471L45.8081 70.3538L41.5661 68.1013L35.2935 64.803L33.5243 63.8578L32.9211 63.5963Z" fill="#566BB1"/>
<path d="M43.9985 50.0008L44.3001 50.202C44.481 50.3226 44.7625 50.5036 45.1043 50.7651C45.8079 51.2679 46.7931 51.9919 47.939 52.8969C49.085 53.8019 50.3717 54.9081 51.7589 56.0545C52.4424 56.6377 53.126 57.2611 53.7693 57.9047L55.9004 59.9159L57.9108 61.927L59.9213 63.9382C61.1879 65.2254 62.3338 66.4522 63.2988 67.5382C64.2638 68.6242 65.0278 69.5494 65.5505 70.1929C65.832 70.5147 66.0129 70.7762 66.1738 70.9572L66.3748 71.2387L66.0732 71.0376L65.2691 70.4745C64.5654 69.9717 63.5803 69.2477 62.4544 68.3427C61.3286 67.4376 60.0017 66.3315 58.6346 65.1851C57.951 64.6019 57.2474 63.9784 56.6241 63.3349C56.0009 62.6913 55.1967 62.0477 54.5132 61.3237C53.8296 60.5997 53.1059 60.0164 52.5027 59.3125C51.8996 58.6086 51.1557 57.9852 50.4923 57.3014C49.2257 56.0142 48.0797 54.7874 47.1147 53.7014C46.1497 52.6153 45.3857 51.6902 44.863 51.0466C44.5816 50.7249 44.4006 50.4634 44.2398 50.2824L43.9985 50.0008Z" fill="#00B2EA"/>
<path d="M64.1035 54.5863L64.5257 54.9483L65.7119 55.974C66.7171 56.8589 68.1646 58.146 69.8534 59.7348C71.5422 61.3237 73.4722 63.1739 75.5229 65.1851L78.639 68.3225L81.8357 71.6007C82.8811 72.727 83.8461 73.8331 84.972 74.9191L87.9072 78.1571C89.9177 80.2889 91.6064 82.1794 93.0942 84.0297C94.5819 85.88 95.8083 87.2476 96.6526 88.2934L97.6177 89.5001L97.9594 89.9425L97.5372 89.5805C97.2558 89.3392 96.8537 89.0174 96.3511 88.5548C95.3258 87.69 93.8983 86.4029 92.2498 84.8141C90.6012 83.2252 88.631 81.3951 86.5803 79.3638L83.4038 76.1459L80.1871 72.9482C79.1417 71.8421 78.1766 70.7359 77.0508 69.6298L74.1557 66.3717C72.1453 64.2399 70.4565 62.3494 68.9487 60.4991C67.4409 58.6488 66.2547 57.2812 65.4103 56.2354C64.9881 55.7326 64.6664 55.3103 64.4453 55.0287L64.1035 54.5863Z" fill="#CD4492"/>
<path d="M58.2927 31.5182L58.7752 32.1014L60.082 33.6902C61.2079 35.0981 62.8363 37.069 64.7463 39.4623L67.8021 43.3438L71.2199 47.6678C72.386 49.1963 73.6123 50.7449 74.8387 52.3337L78.558 57.1605C79.7844 58.7896 81.0108 60.4186 82.1969 62.0678L85.7353 66.7739C88.0272 69.8309 90.1583 72.8074 91.9677 75.1806C93.7771 77.5537 95.2447 79.7057 96.2902 81.214L97.4964 82.9034L97.9186 83.5068L97.4361 82.9436L96.2701 81.214C95.1442 79.8263 93.5157 77.8353 91.6259 75.442C89.7361 73.0487 87.4844 70.2532 85.1322 67.2365C83.9661 65.708 82.7398 64.1594 81.5134 62.5706L77.8142 57.7438L74.1149 52.8969L70.5766 48.1907L67.2794 43.7662L64.3643 39.7439C62.5549 37.2902 61.0671 35.2187 60.0217 33.7104L58.8154 32.021L58.2927 31.5182Z" fill="#566BB1"/>
<path d="M74.6593 36.9886L74.8201 37.1897L75.3026 37.7327C75.7248 38.2154 76.2676 38.9193 76.911 39.7439C77.5543 40.5685 78.2379 41.6143 78.9214 42.7204C79.2833 43.2835 79.6452 43.8668 79.9869 44.45L81.0525 46.26L82.0577 48.0902C82.3794 48.6936 82.6809 49.2969 82.9825 49.9002C83.5655 51.0667 84.0481 52.193 84.4702 53.1583C84.8924 54.1237 85.1739 54.9483 85.3548 55.5516C85.4476 55.773 85.5216 56.0017 85.576 56.2354C85.5798 56.3158 85.5798 56.3964 85.576 56.4768L85.3951 56.2957C85.2945 56.155 85.1136 55.974 84.9125 55.7326C84.7115 55.4913 83.9475 54.5661 83.3243 53.7215C82.7011 52.8768 81.9773 51.8511 81.3138 50.7449L80.2483 49.0153C79.8864 48.4321 79.5447 47.8288 79.2029 47.2254C78.8611 46.6221 78.5796 45.9785 78.1775 45.3751C77.7755 44.7718 77.5342 44.1684 77.2527 43.5852C76.6697 42.3986 76.1671 41.2925 75.765 40.307C75.3629 39.3215 75.0614 38.5171 74.8603 37.9137C74.7598 37.6322 74.6995 37.3908 74.6392 37.2299L74.6593 36.9886Z" fill="#7F5BA2"/>
<path d="M83.7056 126.425C83.6466 126.529 83.593 126.637 83.5448 126.747C83.5448 126.968 83.3236 127.29 83.1226 127.672C82.7607 128.476 82.2179 129.683 81.5142 130.95C80.8106 132.217 79.9863 133.806 79.0414 135.435C78.5589 136.239 78.0763 137.084 77.5536 137.929C77.0309 138.774 76.5082 139.618 75.9855 140.463C75.4628 141.308 74.8998 142.152 74.3369 142.977C73.774 143.801 73.2513 144.606 72.7085 145.37C71.6429 146.919 70.698 148.347 69.6928 149.553C68.6876 150.76 67.9638 151.725 67.4009 152.409L66.7173 153.194L66.4761 153.475L66.6168 153.153C66.7173 152.932 66.838 152.61 67.039 152.208C67.4009 151.404 67.9638 150.197 68.6474 148.95C69.3309 147.703 70.1954 146.074 71.1403 144.465C71.6027 143.641 72.1053 142.816 72.6079 141.971C73.1105 141.127 73.6534 140.282 74.1962 139.437L75.8246 136.923C76.3675 136.099 76.9103 135.294 77.4531 134.53C78.5388 132.981 79.4636 131.553 80.4889 130.347C81.5142 129.14 82.1978 128.155 82.7808 127.471L83.4442 126.686L83.7056 126.425Z" fill="#7F5BA2"/>
<path d="M173.392 37.4109L176.066 40.9305L180.63 40.8299L177.936 44.3294L179.464 48.4321L175.101 47.0846L171.462 49.7193L171.482 45.3752L167.723 42.9014L172.065 41.5741L173.392 37.4109Z" fill="#6BC4EF"/>
<path d="M173.392 37.4109L175.684 41.3528L180.63 40.8299L176.991 44.2891L179.464 48.4321L175.041 46.3807L171.462 49.7193L172.086 45.0131L167.723 42.9014L172.669 41.8959L173.392 37.4109Z" fill="#00A1D5"/>
<path d="M173.453 38.497L173.071 42.1573L168.608 43.0221L173.453 42.4791V38.497Z" fill="#6BC4EF"/>
<path d="M174.174 46.9237L175.059 46.1192L178.457 47.6678L175.119 45.7974L174.174 46.9237Z" fill="#6BC4EF"/>
<path d="M47.0946 101.084L48.5421 102.995L51.0351 102.935L49.5675 104.865L50.3918 107.098L48.0194 106.354L46.0492 107.802V105.428L43.9985 104.081L46.3709 103.357L47.0946 101.084Z" fill="#CBEF6B"/>
<path d="M47.0946 101.084L48.3411 103.236L51.0351 102.935L49.0649 104.825L50.3918 107.098L47.9792 105.971L46.0492 107.802L46.3709 105.227L43.9985 104.081L46.6925 103.538L47.0946 101.084Z" fill="#ACD500"/>
<path d="M47.1154 101.668L46.9143 103.679L44.4817 104.141L47.1154 103.84V101.668Z" fill="#CBEF6B"/>
<path d="M47.5181 106.273L48.0006 105.831L49.8502 106.675L48.0408 105.65L47.5181 106.273Z" fill="#CBEF6B"/>
<path d="M172.426 78.4789L173.874 80.3895L176.367 80.3292L174.899 82.2599L175.723 84.4923L173.351 83.7481L171.381 85.1962V82.823L169.33 81.4755L171.702 80.7515L172.426 78.4789Z" fill="#CBEF6B"/>
<path d="M172.426 78.4789L173.673 80.6308L176.367 80.3292L174.396 82.2398L175.723 84.4923L173.311 83.366L171.381 85.1962L171.702 82.6219L169.33 81.4755L172.024 80.9325L172.426 78.4789Z" fill="#ACD500"/>
<path d="M172.447 79.0622L172.246 81.0734L169.813 81.5359L172.447 81.2342V79.0622Z" fill="#CBEF6B"/>
<path d="M172.85 83.6677L173.332 83.2252L175.182 84.0699L173.372 83.0442L172.85 83.6677Z" fill="#CBEF6B"/>
<path d="M86.8822 171.556L89.6566 175.196L94.4013 175.095L91.6068 178.735L93.1749 182.979L88.6715 181.591L84.8919 184.326L84.912 179.801L81.0117 177.247L85.5151 175.859L86.8822 171.556Z" fill="#CBEF6B"/>
<path d="M86.8822 171.556L89.2747 175.638L94.4013 175.095L90.6217 178.695L93.1749 182.979L88.5911 180.847L84.8919 184.326L85.5151 179.439L81.0117 177.247L86.1183 176.221L86.8822 171.556Z" fill="#ACD500"/>
<path d="M86.9434 172.682L86.5413 176.483L81.9172 177.368L86.9434 176.805V172.682Z" fill="#CBEF6B"/>
<path d="M87.7075 181.41L88.6122 180.586L92.1305 182.195L88.6725 180.244L87.7075 181.41Z" fill="#CBEF6B"/>
<path d="M88.8329 24.8009L90.3005 26.7316L92.7935 26.6713L91.3259 28.5819L92.1501 30.8142L89.7778 30.0902L87.7875 31.5182V29.145L85.7368 27.7975L88.1091 27.0735L88.8329 24.8009Z" fill="#CBEF6B"/>
<path d="M88.8329 24.8009L90.0995 26.9528L92.7935 26.6713L90.8031 28.5617L92.1501 30.8142L89.7376 29.7081L87.7875 31.5182L88.1293 28.964L85.7368 27.7975L88.4509 27.2545L88.8329 24.8009Z" fill="#ACD500"/>
<path d="M88.8738 25.4043L88.6526 27.3953L86.22 27.8579L88.8738 27.5763V25.4043Z" fill="#CBEF6B"/>
<path d="M89.2739 29.9897L89.7564 29.5473L91.5859 30.4121L89.7765 29.3864L89.2739 29.9897Z" fill="#CBEF6B"/>
<path d="M42.3918 138.753L43.5981 142.876L47.8401 144.304L44.0806 146.657L43.9801 150.941L40.4618 148.266L36.1393 149.493L37.7477 145.491L35.1743 141.971L39.6777 142.152L42.3918 138.753Z" fill="#60BCFF"/>
<path d="M42.3918 138.753L43.0955 143.158L47.8401 144.304L43.2161 146.295L43.9801 150.941L40.6427 147.582L36.1393 149.493L38.4111 145.35L35.1743 141.971L40.0999 142.655L42.3918 138.753Z" fill="#0092DE"/>
<path d="M42.049 139.779L40.3602 143.037L35.9373 142.354L40.6015 143.46L42.049 139.779Z" fill="#60BCFF"/>
<path d="M39.6577 147.804L40.7635 147.341L43.3368 149.895L40.9243 147.08L39.6577 147.804Z" fill="#60BCFF"/>
<path d="M115.55 51.8108L116.475 55.0086L119.772 56.1147L116.837 57.9449L116.776 61.2633L114.042 59.1918L110.685 60.137L111.931 57.0197L109.941 54.3047L113.419 54.4454L115.55 51.8108Z" fill="#FF7B8C"/>
<path d="M115.55 51.8108L116.073 55.2298L119.772 56.1147L116.173 57.6633L116.776 61.2633L114.183 58.6488L110.685 60.137L112.454 56.9192L109.941 54.3047L113.761 54.8477L115.55 51.8108Z" fill="#FF1042"/>
<path d="M115.271 52.5952L113.964 55.1292L110.546 54.6063L114.165 55.451L115.271 52.5952Z" fill="#FF7B8C"/>
<path d="M113.42 58.8298L114.284 58.4678L116.275 60.4589L114.405 58.2667L113.42 58.8298Z" fill="#FF7B8C"/>
<path d="M143.557 163.551L144.221 165.844L146.573 166.608L144.482 167.915L144.422 170.289L142.492 168.8L140.099 169.484L140.984 167.272L139.557 165.321L142.05 165.442L143.557 163.551Z" fill="#FF7B8C"/>
<path d="M143.557 163.551L143.939 165.985L146.573 166.608L144.02 167.734L144.422 170.289L142.592 168.418L140.099 169.484L141.366 167.191L139.557 165.321L142.291 165.723L143.557 163.551Z" fill="#FF1042"/>
<path d="M143.376 164.114L142.432 165.924L139.979 165.542L142.572 166.146L143.376 164.114Z" fill="#FF7B8C"/>
<path d="M142.049 168.559L142.652 168.297L144.079 169.725L142.752 168.157L142.049 168.559Z" fill="#FF7B8C"/>
<path d="M66.7968 89.5805L67.1587 91.1492L68.7268 91.7324L67.2793 92.557L67.1788 94.1458L65.9122 93.0799L64.2837 93.4821L64.9472 92.014L64.0425 90.6665L65.7112 90.8073L66.7968 89.5805Z" fill="#FF7B8C"/>
<path d="M66.7968 89.5805L66.9777 91.2297L68.7268 91.7324L66.9576 92.3961L67.1788 94.1458L65.9926 92.8386L64.2837 93.4821L65.2085 91.9738L64.0425 90.6665L65.872 91.0084L66.7968 89.5805Z" fill="#FF1042"/>
<path d="M66.6367 89.9626L65.9532 91.1492L64.3247 90.8274L66.0336 91.3101L66.6367 89.9626Z" fill="#FF7B8C"/>
<path d="M65.6113 92.899L66.0335 92.7582L66.9382 93.7437L66.1139 92.6577L65.6113 92.899Z" fill="#FF7B8C"/>
<path d="M99.8888 105.489L100.653 108.144L103.407 109.069L100.974 110.577L100.914 113.332L98.6424 111.603L95.868 112.407L96.8933 109.833L95.2246 107.56L98.1398 107.681L99.8888 105.489Z" fill="#60BCFF"/>
<path d="M99.8888 105.489L100.331 108.325L103.407 109.069L100.432 110.356L100.914 113.332L98.763 111.18L95.868 112.407L97.3356 109.732L95.2246 107.56L98.4011 108.003L99.8888 105.489Z" fill="#0092DE"/>
<path d="M99.6685 106.153L98.5829 108.244L95.728 107.822L98.7437 108.526L99.6685 106.153Z" fill="#60BCFF"/>
<path d="M98.1414 111.321L98.845 111.02L100.494 112.669L98.9455 110.859L98.1414 111.321Z" fill="#60BCFF"/>
<path d="M131.494 92.0744L131.856 93.3414L133.163 93.7839L132.017 94.5079L131.977 95.8151L130.911 94.9906L129.564 95.3727L130.067 94.1459L129.263 93.0598L130.65 93.1202L131.494 92.0744Z" fill="#FF7B8C"/>
<path d="M131.494 92.0744L131.715 93.4219L133.163 93.7839L131.756 94.3872L131.977 95.8151L130.951 94.7894L129.564 95.3727L130.268 94.1057L129.263 93.0598L130.791 93.2811L131.494 92.0744Z" fill="#FF1042"/>
<path d="M131.394 92.3962L130.871 93.4018L129.504 93.1806L130.952 93.5225L131.394 92.3962Z" fill="#FF7B8C"/>
<path d="M130.648 94.8497L130.99 94.709L131.774 95.5134L131.051 94.6285L130.648 94.8497Z" fill="#FF7B8C"/>
<path d="M69.7125 74.7784L70.0743 76.0454L71.3811 76.4878L70.2352 77.2119L70.195 78.5191L69.1093 77.6945L67.7824 78.0767L68.2851 76.8499L67.501 75.7638L68.8681 75.8242L69.7125 74.7784Z" fill="#60BCFF"/>
<path d="M69.7125 74.7784L69.9135 76.1258L71.3811 76.4878L69.9738 77.1113L70.195 78.5191L69.1696 77.4934L67.7824 78.0767L68.4861 76.8096L67.501 75.7638L69.0088 75.9851L69.7125 74.7784Z" fill="#0092DE"/>
<path d="M69.612 75.1002L69.0893 76.1058L67.7222 75.8846L69.1697 76.2265L69.612 75.1002Z" fill="#60BCFF"/>
<path d="M68.8691 77.5537L69.2109 77.4129L69.995 78.2174L69.2712 77.3325L68.8691 77.5537Z" fill="#60BCFF"/>
<path d="M69.7125 74.7784L70.0743 76.0454L71.3811 76.4878L70.2352 77.2119L70.195 78.5191L69.1093 77.6945L67.7824 78.0767L68.2851 76.8499L67.501 75.7638L68.8681 75.8242L69.7125 74.7784Z" fill="#60BCFF"/>
<path d="M69.7125 74.7784L69.9135 76.1258L71.3811 76.4878L69.9738 77.1113L70.195 78.5191L69.1696 77.4934L67.7824 78.0767L68.4861 76.8096L67.501 75.7638L69.0088 75.9851L69.7125 74.7784Z" fill="#0092DE"/>
<path d="M69.612 75.1002L69.0893 76.1058L67.7222 75.8846L69.1697 76.2265L69.612 75.1002Z" fill="#60BCFF"/>
<path d="M68.8691 77.5537L69.2109 77.4129L69.995 78.2174L69.2712 77.3325L68.8691 77.5537Z" fill="#60BCFF"/>
<path d="M165.511 127.411L166.053 129.361L168.064 130.025L166.295 131.131L166.234 133.142L164.586 131.875L162.555 132.459L163.319 130.568L162.093 128.919L164.224 129.019L165.511 127.411Z" fill="#60BCFF"/>
<path d="M165.511 127.411L165.832 129.482L168.064 130.025L165.893 130.95L166.234 133.142L164.686 131.554L162.555 132.459L163.621 130.508L162.093 128.919L164.425 129.261L165.511 127.411Z" fill="#0092DE"/>
<path d="M165.349 127.893L164.545 129.422L162.474 129.1L164.666 129.623L165.349 127.893Z" fill="#60BCFF"/>
<path d="M164.203 131.654L164.726 131.453L165.932 132.66L164.806 131.332L164.203 131.654Z" fill="#60BCFF"/>
<path d="M76.488 43.545L77.0509 45.4757L79.0614 46.1394L77.2721 47.2455L77.2319 49.2567L75.5833 48.0098L73.5527 48.593L74.2966 46.7025L73.0903 45.0533L75.2013 45.1338L76.488 43.545Z" fill="#60BCFF"/>
<path d="M76.488 43.545L76.8097 45.6165L79.0614 46.1394L76.87 47.0846L77.2319 49.2567L75.6637 47.688L73.5527 48.593L74.6183 46.6422L73.0903 45.0533L75.4023 45.3751L76.488 43.545Z" fill="#0092DE"/>
<path d="M76.3264 44.0277L75.5423 45.5562L73.4514 45.2344L75.6428 45.7372L76.3264 44.0277Z" fill="#60BCFF"/>
<path d="M75.2012 47.7885L75.7239 47.5672L76.9302 48.7739L75.8043 47.4466L75.2012 47.7885Z" fill="#60BCFF"/>
<path d="M170.799 162.787C170.796 162.986 170.754 163.182 170.674 163.365C170.594 163.547 170.479 163.711 170.335 163.848C170.19 163.985 170.02 164.091 169.834 164.161C169.648 164.231 169.449 164.263 169.251 164.255C169.053 164.26 168.856 164.227 168.671 164.156C168.486 164.085 168.316 163.978 168.173 163.842C168.029 163.706 167.913 163.542 167.833 163.361C167.752 163.18 167.708 162.985 167.703 162.787C167.718 162.389 167.889 162.012 168.178 161.738C168.467 161.464 168.852 161.313 169.251 161.319C169.449 161.313 169.646 161.347 169.831 161.418C170.016 161.489 170.185 161.596 170.329 161.732C170.473 161.868 170.588 162.032 170.669 162.213C170.749 162.394 170.794 162.589 170.799 162.787Z" fill="#CD4492"/>
<path d="M171.02 153.898C171.02 154.017 170.996 154.136 170.949 154.246C170.902 154.356 170.833 154.455 170.746 154.538C170.66 154.621 170.558 154.685 170.446 154.727C170.334 154.769 170.214 154.788 170.095 154.783C169.976 154.785 169.858 154.764 169.747 154.721C169.636 154.678 169.535 154.614 169.449 154.532C169.363 154.45 169.294 154.351 169.246 154.242C169.199 154.134 169.173 154.016 169.17 153.898C169.18 153.661 169.283 153.438 169.456 153.276C169.629 153.115 169.858 153.027 170.095 153.033C170.213 153.027 170.33 153.046 170.441 153.086C170.552 153.127 170.653 153.19 170.739 153.27C170.825 153.351 170.895 153.448 170.943 153.556C170.991 153.663 171.017 153.78 171.02 153.898Z" fill="#0064B0"/>
<path d="M182.72 175.075C182.717 175.194 182.691 175.311 182.643 175.42C182.595 175.529 182.526 175.627 182.441 175.709C182.355 175.791 182.253 175.856 182.143 175.899C182.032 175.942 181.914 175.963 181.795 175.96C181.676 175.963 181.558 175.942 181.447 175.899C181.336 175.856 181.235 175.791 181.149 175.709C181.063 175.627 180.995 175.529 180.947 175.42C180.899 175.311 180.873 175.194 180.87 175.075C180.873 174.956 180.899 174.839 180.947 174.73C180.995 174.621 181.063 174.523 181.149 174.441C181.235 174.359 181.336 174.294 181.447 174.251C181.558 174.208 181.676 174.187 181.795 174.19C181.914 174.187 182.032 174.208 182.143 174.251C182.253 174.294 182.355 174.359 182.441 174.441C182.526 174.523 182.595 174.621 182.643 174.73C182.691 174.839 182.717 174.956 182.72 175.075Z" fill="#0064B0"/>
<path d="M179.141 156.17C179.131 156.361 179.048 156.54 178.909 156.671C178.771 156.802 178.588 156.874 178.397 156.874C178.207 156.874 178.023 156.802 177.885 156.671C177.747 156.54 177.664 156.361 177.653 156.17C177.664 155.98 177.747 155.801 177.885 155.67C178.023 155.539 178.207 155.466 178.397 155.466C178.588 155.466 178.771 155.539 178.909 155.67C179.048 155.801 179.131 155.98 179.141 156.17Z" fill="#FF7B8C"/>
<path d="M113.118 172.038C113.116 172.237 113.073 172.434 112.994 172.616C112.914 172.798 112.799 172.962 112.654 173.099C112.51 173.236 112.34 173.343 112.153 173.413C111.967 173.483 111.769 173.514 111.57 173.506C111.372 173.512 111.175 173.478 110.99 173.407C110.805 173.336 110.636 173.229 110.492 173.093C110.348 172.957 110.233 172.793 110.152 172.612C110.072 172.431 110.027 172.236 110.022 172.038C110.038 171.64 110.209 171.263 110.498 170.989C110.787 170.715 111.172 170.564 111.57 170.57C111.768 170.565 111.965 170.598 112.15 170.669C112.335 170.74 112.505 170.847 112.648 170.983C112.792 171.12 112.908 171.283 112.988 171.464C113.069 171.645 113.113 171.84 113.118 172.038Z" fill="#CD4492"/>
<path d="M113.339 163.149C113.339 163.269 113.315 163.387 113.268 163.497C113.221 163.607 113.152 163.707 113.065 163.789C112.979 163.872 112.877 163.936 112.765 163.978C112.653 164.02 112.533 164.039 112.414 164.034H112.354C112.235 164.036 112.117 164.016 112.006 163.973C111.895 163.93 111.794 163.865 111.708 163.783C111.622 163.701 111.553 163.602 111.505 163.494C111.457 163.385 111.431 163.268 111.429 163.149C111.439 162.912 111.542 162.689 111.715 162.528C111.888 162.366 112.117 162.279 112.354 162.284C112.471 162.279 112.589 162.297 112.7 162.338C112.81 162.378 112.912 162.441 112.998 162.522C113.084 162.602 113.153 162.699 113.202 162.807C113.25 162.915 113.276 163.031 113.278 163.149H113.339Z" fill="#0064B0"/>
<path d="M125.06 184.326C125.057 184.445 125.031 184.562 124.983 184.671C124.935 184.78 124.867 184.878 124.781 184.961C124.695 185.043 124.594 185.107 124.483 185.15C124.372 185.193 124.254 185.214 124.135 185.211C124.016 185.214 123.898 185.193 123.787 185.15C123.676 185.107 123.575 185.043 123.489 184.961C123.403 184.878 123.335 184.78 123.287 184.671C123.239 184.562 123.213 184.445 123.21 184.326C123.213 184.208 123.239 184.092 123.287 183.984C123.335 183.877 123.404 183.78 123.491 183.699C123.577 183.619 123.678 183.556 123.789 183.515C123.899 183.474 124.017 183.456 124.135 183.462C124.372 183.456 124.601 183.544 124.774 183.705C124.947 183.867 125.049 184.09 125.06 184.326Z" fill="#0064B0"/>
<path d="M132.761 174.552C132.756 174.76 132.71 174.965 132.625 175.154C132.54 175.344 132.418 175.515 132.267 175.657C132.115 175.799 131.937 175.91 131.742 175.983C131.548 176.055 131.34 176.089 131.133 176.081C130.927 176.086 130.722 176.051 130.53 175.977C130.337 175.903 130.161 175.792 130.012 175.65C129.863 175.508 129.743 175.338 129.659 175.15C129.575 174.961 129.53 174.758 129.524 174.552C129.527 174.345 129.571 174.139 129.653 173.949C129.736 173.758 129.855 173.586 130.005 173.442C130.155 173.298 130.331 173.185 130.525 173.109C130.719 173.034 130.925 172.998 131.133 173.004C131.341 172.998 131.549 173.034 131.744 173.109C131.938 173.184 132.117 173.297 132.268 173.44C132.419 173.584 132.54 173.756 132.625 173.947C132.71 174.138 132.756 174.344 132.761 174.552Z" fill="#00B2EA"/>
<path d="M121.461 165.421C121.451 165.612 121.368 165.791 121.229 165.922C121.091 166.053 120.908 166.126 120.717 166.125C120.622 166.128 120.527 166.112 120.438 166.078C120.35 166.044 120.268 165.993 120.199 165.928C120.13 165.862 120.075 165.784 120.036 165.697C119.997 165.61 119.976 165.517 119.973 165.421C119.976 165.326 119.997 165.233 120.036 165.146C120.075 165.059 120.13 164.981 120.199 164.915C120.268 164.85 120.35 164.799 120.438 164.765C120.527 164.731 120.622 164.715 120.717 164.718C120.908 164.717 121.091 164.79 121.229 164.921C121.368 165.052 121.451 165.231 121.461 165.421Z" fill="#FF7B8C"/>
<path d="M57.8306 171.495C58.0168 171.556 58.1888 171.654 58.3361 171.783C58.4834 171.912 58.603 172.07 58.6875 172.247C58.7721 172.423 58.82 172.615 58.8282 172.811C58.8364 173.007 58.8048 173.202 58.7353 173.386C58.5749 173.76 58.2769 174.059 57.9027 174.22C57.5285 174.381 57.1069 174.392 56.7248 174.25C56.5402 174.187 56.3701 174.088 56.2243 173.958C56.0785 173.829 55.96 173.671 55.8758 173.495C55.7916 173.319 55.7433 173.128 55.7337 172.933C55.7241 172.738 55.7535 172.543 55.8201 172.36C55.9764 171.982 56.2741 171.68 56.6496 171.519C57.0252 171.357 57.4489 171.349 57.8306 171.495Z" fill="#CD4492"/>
<path d="M49.1456 168.197C49.2584 168.23 49.363 168.287 49.4526 168.363C49.5423 168.44 49.615 168.534 49.6661 168.64C49.7172 168.746 49.7456 168.862 49.7494 168.979C49.7532 169.097 49.7325 169.214 49.6884 169.323C49.5948 169.545 49.4186 169.721 49.1972 169.815C48.9758 169.909 48.7265 169.913 48.5022 169.826C48.3896 169.787 48.2866 169.724 48.1999 169.642C48.1132 169.561 48.0448 169.461 47.9992 169.351C47.9536 169.241 47.9319 169.122 47.9354 169.003C47.939 168.884 47.9677 168.767 48.0197 168.659C48.1132 168.438 48.2894 168.261 48.5109 168.168C48.7323 168.074 48.9816 168.07 49.2059 168.157L49.1456 168.197Z" fill="#0064B0"/>
<path d="M74.1562 165.14C74.2673 165.176 74.37 165.234 74.458 165.311C74.546 165.388 74.6176 165.482 74.6683 165.587C74.719 165.692 74.7479 165.807 74.7532 165.924C74.7585 166.04 74.7401 166.157 74.6991 166.266C74.6053 166.488 74.4302 166.666 74.2097 166.763C73.9892 166.86 73.74 166.87 73.5129 166.789C73.4018 166.753 73.2991 166.695 73.2111 166.618C73.1231 166.541 73.0516 166.447 73.0008 166.342C72.9501 166.237 72.9212 166.122 72.9159 166.006C72.9106 165.889 72.9291 165.772 72.9701 165.663C73.0639 165.441 73.2389 165.263 73.4594 165.166C73.6799 165.069 73.9291 165.059 74.1562 165.14Z" fill="#0064B0"/>
<path d="M67.1608 154.883C67.3601 154.945 67.5443 155.049 67.7017 155.186C67.859 155.323 67.9862 155.492 68.075 155.681C68.1638 155.87 68.2124 156.075 68.2177 156.284C68.223 156.493 68.1849 156.701 68.1057 156.894C67.9414 157.267 67.6451 157.565 67.274 157.732C66.9028 157.899 66.483 157.923 66.0953 157.799C65.8959 157.736 65.7116 157.633 65.5536 157.496C65.3957 157.359 65.2675 157.191 65.1771 157.003C65.0866 156.814 65.0358 156.609 65.0277 156.4C65.0197 156.191 65.0546 155.983 65.1303 155.788C65.2946 155.416 65.5908 155.117 65.962 154.95C66.3332 154.783 66.753 154.759 67.1407 154.883H67.1608Z" fill="#00B2EA"/>
<path d="M54.211 161.761C54.2994 161.788 54.3813 161.833 54.4519 161.893C54.5224 161.953 54.5801 162.026 54.6214 162.109C54.6628 162.192 54.6869 162.282 54.6924 162.374C54.6979 162.467 54.6846 162.559 54.6533 162.646C54.6178 162.737 54.5646 162.821 54.4968 162.891C54.4291 162.962 54.348 163.018 54.2584 163.058C54.1687 163.097 54.0722 163.118 53.9744 163.12C53.8766 163.122 53.7794 163.104 53.6883 163.068C53.5993 163.039 53.5172 162.992 53.4472 162.93C53.3771 162.868 53.3205 162.792 53.2809 162.708C53.2413 162.623 53.2196 162.531 53.2171 162.437C53.2145 162.343 53.2312 162.25 53.2661 162.163C53.3417 161.988 53.4821 161.848 53.658 161.773C53.834 161.698 54.032 161.694 54.211 161.761Z" fill="#FF7B8C"/>
<path d="M33.7053 178.816C33.8584 178.81 34.0111 178.835 34.1547 178.889C34.2982 178.943 34.4298 179.024 34.5418 179.129C34.6538 179.233 34.7441 179.359 34.8076 179.499C34.871 179.638 34.9064 179.789 34.9116 179.942C34.9116 180.097 34.8808 180.25 34.8209 180.393C34.7611 180.536 34.6734 180.666 34.563 180.774C34.4525 180.883 34.3216 180.968 34.1778 181.026C34.034 181.083 33.8802 181.111 33.7254 181.109C33.5696 181.114 33.4143 181.089 33.2683 181.034C33.1223 180.979 32.9886 180.896 32.8747 180.79C32.7608 180.683 32.669 180.555 32.6045 180.413C32.5401 180.271 32.5042 180.118 32.499 179.962C32.5016 179.807 32.535 179.654 32.5973 179.513C32.6596 179.371 32.7495 179.243 32.8618 179.136C32.9741 179.029 33.1065 178.946 33.2513 178.891C33.3962 178.836 33.5505 178.81 33.7053 178.816Z" fill="#CD4492"/>
<path d="M26.3873 178.715C26.4798 178.713 26.5718 178.728 26.6582 178.761C26.7446 178.794 26.8236 178.844 26.8909 178.907C26.9581 178.971 27.0121 179.047 27.0499 179.131C27.0877 179.216 27.1085 179.307 27.1111 179.399C27.106 179.584 27.0303 179.76 26.8994 179.891C26.7685 180.022 26.5925 180.098 26.4074 180.103C26.2188 180.109 26.0355 180.04 25.8965 179.912C25.7576 179.785 25.674 179.608 25.6636 179.419C25.6688 179.231 25.7474 179.052 25.8825 178.92C26.0177 178.789 26.1988 178.715 26.3873 178.715Z" fill="#0064B0"/>
<path d="M43.7179 169.846C43.8103 169.843 43.9024 169.859 43.9888 169.892C44.0752 169.925 44.1542 169.975 44.2214 170.038C44.2886 170.102 44.3427 170.178 44.3805 170.262C44.4183 170.346 44.4391 170.437 44.4417 170.53C44.4444 170.623 44.4281 170.716 44.3938 170.803C44.3594 170.889 44.3077 170.968 44.2418 171.034C44.1759 171.1 44.0972 171.152 44.0105 171.186C43.9239 171.22 43.8312 171.237 43.738 171.234C43.5494 171.239 43.366 171.171 43.2271 171.043C43.0881 170.916 43.0045 170.739 42.9941 170.55C42.9994 170.362 43.0779 170.182 43.2131 170.051C43.3483 169.92 43.5294 169.846 43.7179 169.846Z" fill="#0064B0"/>
<path d="M35.6146 164.195C35.7784 164.189 35.9415 164.216 36.0948 164.274C36.2481 164.332 36.3885 164.419 36.508 164.531C36.6275 164.643 36.7237 164.778 36.7912 164.927C36.8587 165.076 36.8961 165.238 36.9013 165.401C36.8908 165.729 36.7521 166.039 36.5151 166.264C36.2782 166.49 35.9619 166.614 35.6347 166.608C35.4737 166.613 35.3131 166.587 35.1623 166.53C35.0114 166.474 34.8732 166.388 34.7556 166.277C34.638 166.167 34.5432 166.035 34.4767 165.888C34.4103 165.741 34.3734 165.583 34.3682 165.422C34.3785 165.096 34.5137 164.787 34.7458 164.558C34.9779 164.33 35.2891 164.2 35.6146 164.195Z" fill="#00B2EA"/>
<path d="M28.197 172.682C28.271 172.679 28.3447 172.691 28.4141 172.717C28.4834 172.743 28.5469 172.782 28.6011 172.832C28.6552 172.883 28.6989 172.943 28.7296 173.011C28.7603 173.078 28.7775 173.151 28.7801 173.225C28.7702 173.374 28.705 173.515 28.5972 173.619C28.4894 173.723 28.3468 173.783 28.197 173.788C28.1231 173.791 28.0494 173.779 27.98 173.753C27.9107 173.727 27.8472 173.688 27.793 173.637C27.7389 173.587 27.6952 173.526 27.6645 173.459C27.6338 173.392 27.6166 173.319 27.614 173.245C27.614 173.169 27.6292 173.094 27.6587 173.025C27.6882 172.955 27.7315 172.892 27.7859 172.839C27.8404 172.787 27.9048 172.746 27.9754 172.719C28.0461 172.692 28.1214 172.679 28.197 172.682Z" fill="#FF7B8C"/>
<path d="M28.902 133.786C29.0551 133.781 29.2078 133.805 29.3514 133.859C29.4949 133.913 29.6265 133.994 29.7385 134.099C29.8505 134.204 29.9408 134.329 30.0043 134.469C30.0677 134.608 30.1031 134.759 30.1082 134.912C30.1083 135.067 30.0775 135.22 30.0176 135.363C29.9578 135.506 29.8701 135.636 29.7596 135.744C29.6492 135.853 29.5183 135.938 29.3745 135.996C29.2307 136.053 29.0769 136.081 28.9221 136.079C28.7673 136.084 28.613 136.058 28.4681 136.004C28.3233 135.949 28.1909 135.865 28.0786 135.759C27.9663 135.652 27.8764 135.524 27.8141 135.382C27.7518 135.24 27.7184 135.087 27.7158 134.932C27.7157 134.778 27.7466 134.626 27.8067 134.484C27.8668 134.342 27.9548 134.214 28.0655 134.107C28.1763 134 28.3074 133.917 28.4511 133.861C28.5948 133.806 28.7481 133.781 28.902 133.786Z" fill="#CD4492"/>
<path d="M21.5838 133.665C21.7724 133.66 21.9558 133.728 22.0947 133.856C22.2337 133.984 22.3172 134.161 22.3277 134.349C22.3224 134.538 22.2439 134.717 22.1087 134.848C21.9735 134.979 21.7924 135.053 21.6039 135.053C21.5115 135.056 21.4194 135.04 21.333 135.007C21.2466 134.974 21.1676 134.925 21.1004 134.861C21.0331 134.798 20.9791 134.721 20.9413 134.637C20.9035 134.553 20.8827 134.462 20.8801 134.369C20.8852 134.184 20.961 134.008 21.0918 133.877C21.2227 133.746 21.3988 133.67 21.5838 133.665Z" fill="#0064B0"/>
<path d="M38.932 124.836C39.0234 124.831 39.115 124.844 39.2013 124.874C39.2876 124.905 39.3669 124.953 39.4344 125.015C39.5019 125.077 39.5563 125.151 39.5943 125.235C39.6323 125.318 39.6532 125.408 39.6558 125.5C39.6505 125.688 39.572 125.867 39.4368 125.999C39.3016 126.13 39.1205 126.204 38.932 126.204C38.8396 126.206 38.7476 126.191 38.6612 126.158C38.5748 126.125 38.4957 126.075 38.4285 126.012C38.3613 125.948 38.3072 125.872 38.2694 125.788C38.2316 125.703 38.2109 125.612 38.2083 125.52C38.2109 125.428 38.2316 125.337 38.2694 125.252C38.3072 125.168 38.3613 125.092 38.4285 125.028C38.4957 124.965 38.5748 124.915 38.6612 124.882C38.7476 124.849 38.8396 124.834 38.932 124.836Z" fill="#0064B0"/>
<path d="M30.8312 119.185C30.9923 119.179 31.1528 119.206 31.3037 119.263C31.4545 119.319 31.5927 119.405 31.7103 119.515C31.828 119.626 31.9227 119.758 31.9892 119.905C32.0557 120.052 32.0926 120.21 32.0978 120.371C32.0979 120.533 32.0654 120.694 32.0023 120.843C31.9391 120.992 31.8467 121.127 31.7304 121.239C31.6141 121.352 31.4763 121.44 31.3253 121.498C31.1742 121.556 31.0131 121.583 30.8513 121.578C30.6902 121.583 30.5297 121.557 30.3788 121.5C30.228 121.444 30.0898 121.358 29.9722 121.247C29.8545 121.137 29.7598 121.005 29.6933 120.858C29.6268 120.711 29.5899 120.553 29.5847 120.392C29.5846 120.23 29.6171 120.069 29.6802 119.92C29.7433 119.771 29.8358 119.636 29.9521 119.524C30.0684 119.411 30.2062 119.323 30.3572 119.265C30.5082 119.207 30.6694 119.179 30.8312 119.185Z" fill="#00B2EA"/>
<path d="M23.3914 127.632C23.4654 127.629 23.5391 127.641 23.6084 127.667C23.6778 127.693 23.7413 127.732 23.7955 127.782C23.8496 127.833 23.8933 127.893 23.924 127.961C23.9547 128.028 23.9719 128.101 23.9745 128.175C23.9745 128.324 23.9152 128.467 23.8096 128.573C23.704 128.679 23.5608 128.738 23.4115 128.738C23.3376 128.741 23.2639 128.729 23.1945 128.703C23.1252 128.677 23.0617 128.638 23.0075 128.587C22.9534 128.537 22.9097 128.476 22.879 128.409C22.8482 128.342 22.8311 128.269 22.8285 128.195C22.8257 128.12 22.8383 128.046 22.8656 127.976C22.8929 127.906 22.9343 127.843 22.9871 127.79C23.04 127.738 23.1031 127.696 23.1727 127.669C23.2423 127.642 23.3168 127.629 23.3914 127.632Z" fill="#FF7B8C"/>
<path d="M26.6278 88.2129C26.7277 88.3269 26.8032 88.4603 26.8494 88.6047C26.8957 88.7491 26.9118 88.9014 26.8967 89.0523C26.8816 89.2032 26.8357 89.3494 26.7618 89.4818C26.6878 89.6142 26.5875 89.7299 26.4669 89.8219C26.2163 90.017 25.9016 90.1108 25.5851 90.0847C25.2686 90.0586 24.9734 89.9146 24.7581 89.6811C24.6581 89.5671 24.5827 89.4337 24.5364 89.2893C24.4901 89.1449 24.474 88.9925 24.4891 88.8417C24.5042 88.6908 24.5501 88.5446 24.6241 88.4122C24.698 88.2799 24.7984 88.1641 24.9189 88.0721C25.1677 87.8724 25.4835 87.7757 25.8014 87.8019C26.1193 87.8281 26.415 87.9752 26.6278 88.2129Z" fill="#CD4492"/>
<path d="M22.0652 82.7426C22.1309 82.8047 22.1833 82.8795 22.2191 82.9625C22.2548 83.0455 22.2733 83.1349 22.2733 83.2253C22.2733 83.3157 22.2548 83.4051 22.2191 83.4881C22.1833 83.5711 22.1309 83.6459 22.0652 83.708C21.9269 83.8396 21.7434 83.9129 21.5525 83.9129C21.3617 83.9129 21.1782 83.8396 21.0399 83.708C20.9742 83.6459 20.9218 83.5711 20.886 83.4881C20.8502 83.4051 20.8318 83.3157 20.8318 83.2253C20.8318 83.1349 20.8502 83.0455 20.886 82.9625C20.9218 82.8795 20.9742 82.8047 21.0399 82.7426C21.1804 82.6154 21.3631 82.545 21.5525 82.545C21.742 82.545 21.9247 82.6154 22.0652 82.7426Z" fill="#0064B0"/>
<path d="M40.2594 89.862C40.3221 89.9293 40.3696 90.0092 40.3989 90.0965C40.4281 90.1837 40.4383 90.2761 40.4287 90.3676C40.4192 90.4591 40.3902 90.5475 40.3436 90.6268C40.2971 90.7061 40.2341 90.7745 40.1589 90.8274C40.024 90.9577 39.8438 91.0305 39.6563 91.0305C39.4688 91.0305 39.2886 90.9577 39.1536 90.8274C39.0879 90.7654 39.0356 90.6905 38.9998 90.6075C38.964 90.5245 38.9456 90.4351 38.9456 90.3447C38.9456 90.2543 38.964 90.1649 38.9998 90.0819C39.0356 89.9989 39.0879 89.9241 39.1536 89.862C39.2941 89.7349 39.4768 89.6644 39.6663 89.6644C39.8558 89.6644 40.0385 89.7349 40.179 89.862H40.2594Z" fill="#0064B0"/>
<path d="M39.7173 80.3293C39.8248 80.4474 39.9065 80.5868 39.957 80.7384C40.0075 80.89 40.0257 81.0505 40.0106 81.2095C39.9955 81.3686 39.9472 81.5228 39.869 81.6621C39.7908 81.8014 39.6844 81.9229 39.5565 82.0186C39.298 82.2222 38.9723 82.3209 38.6443 82.2948C38.3164 82.2687 38.0103 82.1198 37.7873 81.8778C37.6774 81.758 37.5943 81.6162 37.5434 81.4618C37.4926 81.3074 37.4751 81.1439 37.4922 80.9823C37.5093 80.8206 37.5606 80.6644 37.6427 80.5241C37.7247 80.3838 37.8357 80.2625 37.9682 80.1684C38.2248 79.9601 38.5516 79.8586 38.881 79.8848C39.2103 79.911 39.517 80.0629 39.7374 80.3091L39.7173 80.3293Z" fill="#00B2EA"/>
<path d="M28.1377 80.1682C28.19 80.2172 28.2317 80.2763 28.2603 80.3421C28.2888 80.4078 28.3035 80.4787 28.3035 80.5504C28.3035 80.622 28.2888 80.6929 28.2603 80.7587C28.2317 80.8244 28.19 80.8836 28.1377 80.9325C28.0238 81.0329 27.8773 81.0883 27.7255 81.0883C27.5737 81.0883 27.4272 81.0329 27.3134 80.9325C27.2605 80.8818 27.2184 80.8209 27.1896 80.7535C27.1608 80.6861 27.146 80.6136 27.146 80.5403C27.146 80.467 27.1608 80.3945 27.1896 80.3271C27.2184 80.2597 27.2605 80.1988 27.3134 80.1481C27.4251 80.0435 27.5724 79.9853 27.7255 79.9853C27.8786 79.9853 28.0259 80.0435 28.1377 80.1481V80.1682Z" fill="#FF7B8C"/>
<path d="M28.9218 48.3516C29.0217 48.4656 29.0972 48.599 29.1434 48.7434C29.1897 48.8878 29.2058 49.0402 29.1907 49.1911C29.1756 49.3419 29.1297 49.4881 29.0557 49.6205C28.9818 49.7529 28.8815 49.8686 28.7609 49.9606C28.5135 50.1544 28.2021 50.2475 27.8889 50.2214C27.5758 50.1953 27.2841 50.0519 27.0721 49.8198C26.9682 49.7085 26.8889 49.5765 26.8393 49.4325C26.7897 49.2885 26.7709 49.1357 26.7842 48.984C26.7974 48.8322 26.8425 48.685 26.9163 48.5518C26.9902 48.4186 27.0912 48.3024 27.2129 48.2109C27.4616 48.0111 27.7775 47.9144 28.0954 47.9406C28.4132 47.9668 28.709 48.1139 28.9218 48.3516Z" fill="#CD4492"/>
<path d="M24.3772 42.9014C24.4936 43.0457 24.5484 43.2303 24.5296 43.4148C24.5108 43.5993 24.4199 43.769 24.2767 43.8868C24.1259 44.0057 23.9349 44.0616 23.7438 44.0429C23.5527 44.0241 23.3763 43.9322 23.2514 43.7863C23.1237 43.6581 23.052 43.4845 23.052 43.3036C23.052 43.1227 23.1237 42.9491 23.2514 42.8209C23.3918 42.6937 23.5746 42.6233 23.764 42.6233C23.9535 42.6233 24.1362 42.6937 24.2767 42.8209L24.3772 42.9014Z" fill="#0064B0"/>
<path d="M42.5512 50.0007C42.6169 50.0628 42.6693 50.1376 42.7051 50.2206C42.7409 50.3036 42.7593 50.393 42.7593 50.4834C42.7593 50.5738 42.7409 50.6633 42.7051 50.7463C42.6693 50.8293 42.6169 50.9041 42.5512 50.9661C42.484 51.0336 42.4041 51.0872 42.3161 51.1237C42.2281 51.1602 42.1338 51.1791 42.0386 51.1791C41.9433 51.1791 41.849 51.1602 41.761 51.1237C41.673 51.0872 41.5931 51.0336 41.5259 50.9661C41.4688 50.8963 41.4261 50.8158 41.4003 50.7294C41.3744 50.6429 41.3659 50.5522 41.3753 50.4625C41.3846 50.3728 41.4116 50.2858 41.4547 50.2065C41.4978 50.1273 41.5562 50.0573 41.6264 50.0007C41.7636 49.875 41.9429 49.8052 42.129 49.8052C42.3151 49.8052 42.4945 49.875 42.6316 50.0007H42.5512Z" fill="#0064B0"/>
<path d="M41.9878 40.488C42.0953 40.6062 42.1769 40.7455 42.2274 40.8971C42.2779 41.0487 42.2962 41.2092 42.281 41.3683C42.2659 41.5274 42.2177 41.6815 42.1395 41.8208C42.0613 41.9602 41.9548 42.0816 41.8269 42.1774C41.5685 42.381 41.2427 42.4796 40.9148 42.4535C40.5868 42.4274 40.2808 42.2785 40.0577 42.0366C39.9502 41.9184 39.8686 41.779 39.8181 41.6275C39.7676 41.4759 39.7493 41.3154 39.7644 41.1563C39.7796 40.9972 39.8278 40.8431 39.906 40.7037C39.9842 40.5644 40.0907 40.443 40.2186 40.3472C40.477 40.1436 40.8028 40.045 41.1307 40.0711C41.4587 40.0972 41.7647 40.2461 41.9878 40.488Z" fill="#00B2EA"/>
<path d="M30.4287 40.4075C30.481 40.4564 30.5228 40.5156 30.5513 40.5813C30.5798 40.6471 30.5946 40.718 30.5946 40.7896C30.5946 40.8613 30.5798 40.9322 30.5513 40.9979C30.5228 41.0637 30.481 41.1228 30.4287 41.1718C30.3202 41.275 30.1763 41.3326 30.0266 41.3326C29.8769 41.3326 29.7329 41.275 29.6245 41.1718C29.5689 41.1227 29.5243 41.0623 29.4938 40.9947C29.4633 40.9271 29.4475 40.8538 29.4475 40.7796C29.4475 40.7054 29.4633 40.632 29.4938 40.5644C29.5243 40.4968 29.5689 40.4365 29.6245 40.3874C29.7383 40.287 29.8849 40.2316 30.0366 40.2316C30.1884 40.2316 30.3349 40.287 30.4488 40.3874L30.4287 40.4075Z" fill="#FF7B8C"/>
<path d="M45.2453 25.8668C45.1876 26.0725 45.0894 26.2647 44.9567 26.432C44.8239 26.5994 44.6591 26.7386 44.472 26.8416C44.2848 26.9446 44.079 27.0092 43.8666 27.0318C43.6542 27.0543 43.4395 27.0343 43.2349 26.9729C43.0351 26.9353 42.8451 26.857 42.6768 26.7431C42.5084 26.6291 42.3651 26.4818 42.2559 26.3103C42.1466 26.1388 42.0736 25.9467 42.0414 25.7459C42.0093 25.5451 42.0186 25.3399 42.0688 25.1428C42.1266 24.9371 42.2247 24.7449 42.3575 24.5776C42.4903 24.4102 42.655 24.271 42.8422 24.168C43.0293 24.065 43.2351 24.0004 43.4475 23.9778C43.6599 23.9553 43.8747 23.9753 44.0793 24.0366C44.279 24.0743 44.469 24.1525 44.6374 24.2665C44.8058 24.3805 44.949 24.5277 45.0583 24.6992C45.1675 24.8707 45.2405 25.0628 45.2727 25.2636C45.3049 25.4645 45.2955 25.6697 45.2453 25.8668Z" fill="#CD4492"/>
<path d="M47.8186 17.0378C47.7526 17.2766 47.5956 17.4799 47.3813 17.604C47.167 17.7281 46.9125 17.7631 46.6726 17.7015C46.5537 17.6753 46.4411 17.6259 46.3413 17.5561C46.2415 17.4863 46.1565 17.3974 46.0911 17.2946C46.0257 17.1919 45.9813 17.0772 45.9603 16.9572C45.9394 16.8372 45.9423 16.7142 45.969 16.5953C46.0436 16.3578 46.2053 16.1574 46.4216 16.0343C46.6379 15.9111 46.8928 15.8745 47.135 15.9317C47.2535 15.9576 47.3655 16.0071 47.4645 16.0772C47.5635 16.1474 47.6473 16.2367 47.7111 16.3399C47.7749 16.443 47.8172 16.558 47.8357 16.6779C47.8542 16.7978 47.8483 16.9202 47.8186 17.0378Z" fill="#0064B0"/>
<path d="M54.0516 41.0712C53.9812 41.3116 53.8203 41.5151 53.6027 41.6389C53.3851 41.7628 53.128 41.7972 52.8855 41.7349C52.7671 41.709 52.655 41.6595 52.5561 41.5893C52.4571 41.5192 52.3733 41.4299 52.3095 41.3267C52.2457 41.2235 52.2033 41.1086 52.1849 40.9887C52.1664 40.8688 52.1722 40.7464 52.202 40.6288C52.2679 40.39 52.425 40.1867 52.6393 40.0626C52.8536 39.9384 53.1081 39.9034 53.3479 39.9651C53.4669 39.9913 53.5795 40.0407 53.6792 40.1105C53.779 40.1803 53.8641 40.2692 53.9295 40.372C53.9948 40.4747 54.0393 40.5894 54.0602 40.7094C54.0812 40.8294 54.0783 40.9524 54.0516 41.0712Z" fill="#0064B0"/>
<path d="M64.2648 33.0869C64.1517 33.5075 63.8767 33.8663 63.5001 34.0848C63.1234 34.3033 62.6756 34.3639 62.2544 34.2533C62.0364 34.2119 61.8296 34.1252 61.6472 33.9989C61.4647 33.8725 61.3108 33.7094 61.1952 33.5199C61.0797 33.3304 61.0051 33.1188 60.9763 32.8988C60.9475 32.6787 60.9651 32.455 61.028 32.2422C61.1542 31.831 61.4325 31.4834 61.8061 31.2704C62.1797 31.0574 62.6204 30.9949 63.0385 31.0958C63.2577 31.1338 63.4662 31.2185 63.6498 31.3444C63.8333 31.4702 63.9876 31.6341 64.1021 31.825C64.2166 32.0159 64.2886 32.2292 64.3132 32.4504C64.3378 32.6717 64.3145 32.8956 64.2447 33.107L64.2648 33.0869Z" fill="#00B2EA"/>
<path d="M55.3575 21.2412C55.3011 21.4323 55.1741 21.5948 55.0024 21.6956C54.8306 21.7965 54.6269 21.8281 54.4327 21.7842C54.241 21.741 54.0743 21.6236 53.9688 21.4579C53.8634 21.2921 53.8277 21.0913 53.8697 20.8993C53.9261 20.7039 54.0562 20.5381 54.2325 20.4368C54.4088 20.3355 54.6175 20.3066 54.8146 20.3563C54.909 20.3775 54.9982 20.4174 55.077 20.4737C55.1557 20.53 55.2223 20.6016 55.2729 20.6841C55.3235 20.7666 55.3571 20.8584 55.3716 20.9541C55.3861 21.0498 55.3813 21.1474 55.3575 21.2412Z" fill="#FF7B8C"/>
<path d="M97.9808 28.4211C97.9256 28.6283 97.8289 28.8222 97.6967 28.991C97.5645 29.1599 97.3996 29.3002 97.2117 29.4036C97.0239 29.5069 96.817 29.5711 96.6037 29.5924C96.3904 29.6137 96.1749 29.5915 95.9704 29.5272C95.7733 29.4844 95.5866 29.4029 95.4212 29.2876C95.2557 29.1722 95.1147 29.0252 95.0063 28.8551C94.8979 28.685 94.8242 28.495 94.7896 28.2963C94.7549 28.0975 94.7599 27.8939 94.8043 27.6971C94.8621 27.4913 94.9602 27.2992 95.093 27.1318C95.2258 26.9645 95.3905 26.8252 95.5777 26.7223C95.7649 26.6193 95.9706 26.5547 96.183 26.5321C96.3954 26.5096 96.6102 26.5295 96.8148 26.5909C97.0114 26.6335 97.1975 26.7151 97.3621 26.8307C97.5267 26.9464 97.6666 27.0938 97.7734 27.2644C97.8801 27.4349 97.9517 27.6251 97.9839 27.8238C98.0161 28.0224 98.0082 28.2255 97.9607 28.4211H97.9808Z" fill="#CD4492"/>
<path d="M100.573 19.572C100.503 19.8123 100.342 20.0158 100.124 20.1397C99.9066 20.2635 99.6495 20.2979 99.407 20.2357C99.2885 20.2097 99.1765 20.1602 99.0775 20.0901C98.9786 20.02 98.8947 19.9306 98.831 19.8275C98.7672 19.7243 98.7248 19.6093 98.7064 19.4894C98.6879 19.3695 98.6937 19.2471 98.7235 19.1295C98.7894 18.8907 98.9465 18.6874 99.1608 18.5633C99.3751 18.4392 99.6296 18.4042 99.8694 18.4658C99.9883 18.492 100.101 18.5414 100.201 18.6112C100.301 18.6811 100.386 18.7699 100.451 18.8727C100.516 18.9755 100.561 19.0901 100.582 19.2101C100.603 19.3301 100.6 19.4531 100.573 19.572Z" fill="#0064B0"/>
<path d="M106.704 43.6053C106.638 43.844 106.481 44.0474 106.267 44.1715C106.052 44.2956 105.798 44.3306 105.558 44.269C105.439 44.2428 105.327 44.1934 105.227 44.1236C105.127 44.0537 105.042 43.9649 104.977 43.8621C104.911 43.7593 104.867 43.6447 104.846 43.5246C104.825 43.4046 104.828 43.2817 104.854 43.1628C104.925 42.9225 105.086 42.7189 105.303 42.5951C105.521 42.4713 105.778 42.4369 106.021 42.4991C106.139 42.5251 106.251 42.5746 106.35 42.6447C106.449 42.7148 106.533 42.8041 106.597 42.9073C106.66 43.0105 106.703 43.1255 106.721 43.2454C106.74 43.3653 106.734 43.4877 106.704 43.6053Z" fill="#0064B0"/>
<path d="M117.019 35.6411C116.897 36.0551 116.619 36.4058 116.244 36.6195C115.869 36.8333 115.426 36.8935 115.008 36.7875C114.79 36.7465 114.584 36.6598 114.402 36.5332C114.22 36.4066 114.067 36.2429 113.953 36.0529C113.839 35.8629 113.767 35.6509 113.741 35.4309C113.715 35.2108 113.736 34.9877 113.802 34.7763C113.924 34.3623 114.201 34.0116 114.576 33.7979C114.951 33.5841 115.394 33.5239 115.812 33.6299C116.028 33.6738 116.233 33.7622 116.413 33.8896C116.593 34.0169 116.745 34.1804 116.858 34.3696C116.972 34.5588 117.045 34.7696 117.072 34.9885C117.1 35.2074 117.082 35.4297 117.019 35.6411Z" fill="#00B2EA"/>
<path d="M108.112 23.8557C108.056 24.0511 107.926 24.2169 107.749 24.3182C107.573 24.4195 107.364 24.4484 107.167 24.3987C107.073 24.3775 106.984 24.3375 106.905 24.2812C106.826 24.2249 106.76 24.1534 106.709 24.0709C106.658 23.9884 106.625 23.8966 106.61 23.8009C106.596 23.7052 106.601 23.6076 106.624 23.5138C106.676 23.3199 106.803 23.1543 106.976 23.0527C107.149 22.9511 107.355 22.9216 107.549 22.9707C107.741 23.014 107.908 23.1313 108.013 23.2971C108.118 23.4629 108.154 23.6637 108.112 23.8557Z" fill="#FF7B8C"/>
<path d="M155.397 38.6177C155.805 38.5537 156.221 38.6529 156.556 38.8938C156.891 39.1347 157.118 39.498 157.187 39.9048C157.215 40.1062 157.202 40.3112 157.149 40.5074C157.096 40.7037 157.003 40.8872 156.877 41.0468C156.752 41.2065 156.595 41.3391 156.417 41.4366C156.238 41.5341 156.042 41.5946 155.84 41.6143C155.433 41.6792 155.016 41.5834 154.679 41.3469C154.341 41.1105 154.109 40.7521 154.03 40.3473C154.005 40.1437 154.021 39.9371 154.076 39.7396C154.131 39.542 154.225 39.3574 154.352 39.1965C154.479 39.0356 154.637 38.9016 154.817 38.8022C154.996 38.7028 155.194 38.6401 155.397 38.6177Z" fill="#CD4492"/>
<path d="M145.789 39.7037C146.036 39.6685 146.287 39.7306 146.49 39.8768C146.692 40.0231 146.83 40.2422 146.874 40.4881C146.903 40.7306 146.834 40.9745 146.684 41.1667C146.533 41.3588 146.313 41.4836 146.07 41.5138C145.826 41.5495 145.577 41.4902 145.375 41.348C145.173 41.2059 145.033 40.9917 144.985 40.7495C144.968 40.6279 144.975 40.5041 145.007 40.3854C145.038 40.2666 145.093 40.1553 145.168 40.058C145.242 39.9607 145.336 39.8792 145.443 39.8184C145.549 39.7575 145.667 39.7186 145.789 39.7037Z" fill="#0064B0"/>
<path d="M166.837 25.183C167.081 25.1473 167.33 25.2066 167.532 25.3488C167.734 25.4909 167.874 25.7051 167.923 25.9473C167.94 26.0678 167.932 26.1905 167.9 26.308C167.869 26.4255 167.814 26.5354 167.739 26.6311C167.664 26.7269 167.57 26.8065 167.463 26.8653C167.357 26.924 167.24 26.9606 167.119 26.973C166.873 27.014 166.622 26.9567 166.419 26.8137C166.216 26.6707 166.077 26.4533 166.033 26.2087C166.004 25.9662 166.073 25.7223 166.224 25.5301C166.374 25.338 166.595 25.2132 166.837 25.183Z" fill="#0064B0"/>
<path d="M155.178 19.1496C155.606 19.085 156.043 19.1895 156.395 19.4409C156.748 19.6924 156.989 20.0711 157.068 20.4971C157.093 20.7071 157.076 20.92 157.019 21.1237C156.962 21.3273 156.866 21.5177 156.735 21.684C156.604 21.8502 156.442 21.9891 156.258 22.0925C156.073 22.196 155.87 22.2621 155.66 22.287C155.231 22.3633 154.789 22.2664 154.431 22.0177C154.074 21.7689 153.829 21.3885 153.75 20.9597C153.725 20.747 153.742 20.5315 153.8 20.3254C153.858 20.1193 153.956 19.9267 154.089 19.7586C154.222 19.5905 154.386 19.4502 154.573 19.3457C154.76 19.2412 154.965 19.1746 155.178 19.1496Z" fill="#00B2EA"/>
<path d="M147.015 31.4981C147.212 31.4678 147.412 31.5132 147.576 31.6253C147.741 31.7373 147.856 31.9075 147.9 32.1015C147.911 32.1993 147.902 32.2984 147.875 32.3929C147.848 32.4875 147.802 32.5757 147.74 32.6524C147.678 32.7291 147.602 32.7927 147.516 32.8397C147.429 32.8867 147.334 32.916 147.236 32.9261C147.042 32.9558 146.844 32.9097 146.683 32.7974C146.522 32.6851 146.411 32.5151 146.372 32.3227C146.349 32.1282 146.404 31.9326 146.524 31.7783C146.645 31.6239 146.821 31.5233 147.015 31.4981Z" fill="#FF7B8C"/>
<path d="M178.698 33.5294C178.892 33.4996 179.09 33.5457 179.251 33.658C179.412 33.7704 179.524 33.9404 179.563 34.1327C179.577 34.2295 179.571 34.328 179.546 34.4225C179.521 34.517 179.477 34.6054 179.417 34.6825C179.357 34.7595 179.282 34.8236 179.197 34.8708C179.111 34.9181 179.017 34.9475 178.92 34.9573C178.726 34.9871 178.528 34.941 178.367 34.8287C178.206 34.7164 178.094 34.5464 178.055 34.354C178.032 34.1595 178.087 33.9639 178.208 33.8095C178.328 33.6552 178.504 33.5545 178.698 33.5294Z" fill="#0064B0"/>
<path d="M179.685 27.0333C179.762 27.0189 179.84 27.02 179.917 27.0367C179.993 27.0533 180.065 27.085 180.129 27.13C180.192 27.175 180.246 27.2324 180.288 27.2987C180.329 27.365 180.356 27.4389 180.368 27.516C180.377 27.5926 180.37 27.6702 180.348 27.7442C180.326 27.8181 180.29 27.887 180.241 27.9469C180.193 28.0067 180.133 28.0564 180.065 28.0929C179.997 28.1294 179.922 28.152 179.846 28.1596C179.769 28.174 179.69 28.1728 179.614 28.1562C179.538 28.1396 179.466 28.1078 179.402 28.0628C179.338 28.0178 179.284 27.9605 179.243 27.8942C179.202 27.8279 179.174 27.754 179.162 27.6769C179.154 27.6002 179.161 27.5227 179.183 27.4487C179.204 27.3747 179.241 27.3058 179.289 27.246C179.338 27.1861 179.398 27.1365 179.466 27.1C179.534 27.0635 179.608 27.0408 179.685 27.0333Z" fill="#FF7B8C"/>
<path d="M179.202 67.0756C179.297 67.0584 179.395 67.0604 179.489 67.0816C179.584 67.1028 179.673 67.1426 179.751 67.1989C179.83 67.2551 179.897 67.3266 179.947 67.409C179.998 67.4915 180.032 67.5833 180.046 67.6789C180.06 67.773 180.055 67.869 180.031 67.961C180.007 68.0531 179.965 68.1393 179.907 68.2145C179.848 68.2896 179.775 68.3522 179.692 68.3985C179.609 68.4447 179.518 68.4736 179.423 68.4834C179.229 68.5132 179.031 68.4671 178.87 68.3548C178.709 68.2424 178.598 68.0725 178.559 67.8801C178.544 67.7844 178.55 67.6869 178.575 67.5937C178.601 67.5004 178.645 67.4133 178.705 67.3378C178.766 67.2623 178.841 67.2001 178.926 67.155C179.012 67.1099 179.106 67.0828 179.202 67.0756Z" fill="#0064B0"/>
<path d="M180.166 60.5595C180.323 60.5353 180.483 60.5718 180.613 60.6615C180.744 60.7512 180.836 60.8873 180.87 61.0422C180.887 61.1992 180.842 61.3567 180.744 61.4808C180.646 61.6049 180.504 61.6857 180.347 61.7058C180.193 61.7294 180.035 61.6923 179.908 61.6023C179.781 61.5123 179.693 61.3764 179.663 61.2232C179.652 61.1465 179.656 61.0683 179.675 60.9932C179.695 60.9181 179.729 60.8476 179.776 60.7858C179.822 60.724 179.881 60.6722 179.948 60.6333C180.015 60.5944 180.089 60.5693 180.166 60.5595Z" fill="#FF7B8C"/>
<path d="M184.368 103.84C184.691 103.787 185.021 103.863 185.287 104.051C185.554 104.239 185.737 104.524 185.796 104.845C185.834 105.013 185.835 105.186 185.801 105.355C185.766 105.523 185.696 105.682 185.595 105.821C185.495 105.96 185.365 106.076 185.216 106.161C185.067 106.246 184.901 106.298 184.73 106.313C184.405 106.366 184.073 106.287 183.805 106.095C183.538 105.903 183.357 105.613 183.303 105.288C183.283 105.129 183.295 104.968 183.338 104.814C183.382 104.66 183.455 104.517 183.554 104.391C183.653 104.266 183.776 104.161 183.916 104.084C184.056 104.007 184.21 103.958 184.368 103.94V103.84Z" fill="#CD4492"/>
<path d="M176.788 104.704C176.884 104.687 176.981 104.689 177.076 104.71C177.17 104.732 177.259 104.771 177.338 104.828C177.417 104.884 177.483 104.955 177.534 105.038C177.585 105.12 177.618 105.212 177.633 105.308C177.647 105.403 177.641 105.501 177.616 105.594C177.591 105.688 177.546 105.775 177.486 105.85C177.426 105.926 177.351 105.988 177.265 106.033C177.18 106.078 177.086 106.105 176.989 106.112C176.894 106.13 176.797 106.127 176.702 106.106C176.608 106.085 176.519 106.045 176.44 105.989C176.361 105.933 176.295 105.861 176.244 105.779C176.193 105.696 176.16 105.605 176.145 105.509C176.134 105.414 176.142 105.317 176.168 105.225C176.194 105.133 176.239 105.047 176.299 104.972C176.359 104.897 176.433 104.835 176.517 104.789C176.601 104.743 176.693 104.714 176.788 104.704Z" fill="#0064B0"/>
<path d="M184.207 88.4342C184.545 88.3816 184.89 88.4638 185.168 88.6631C185.447 88.8624 185.635 89.1629 185.695 89.5001C185.734 89.8387 185.638 90.1793 185.427 90.447C185.216 90.7147 184.907 90.8877 184.569 90.928C184.231 90.9805 183.885 90.8983 183.607 90.699C183.329 90.4997 183.14 90.1992 183.081 89.8621C183.041 89.5234 183.138 89.1829 183.349 88.9152C183.56 88.6474 183.868 88.4745 184.207 88.4342Z" fill="#00B2EA"/>
<path d="M177.753 98.2687C177.91 98.2456 178.07 98.2854 178.198 98.3795C178.326 98.4737 178.412 98.6145 178.437 98.7715C178.448 98.8471 178.444 98.9241 178.424 98.998C178.405 99.0719 178.371 99.141 178.324 99.2012C178.277 99.2614 178.218 99.3115 178.151 99.3482C178.084 99.385 178.01 99.4077 177.934 99.4151C177.858 99.4295 177.779 99.4283 177.703 99.4117C177.626 99.3951 177.554 99.3634 177.49 99.3183C177.427 99.2733 177.373 99.216 177.331 99.1497C177.29 99.0834 177.263 99.0095 177.251 98.9324C177.236 98.8553 177.238 98.7761 177.256 98.6999C177.274 98.6236 177.308 98.5519 177.355 98.4895C177.403 98.427 177.463 98.3751 177.531 98.3371C177.6 98.2991 177.675 98.2758 177.753 98.2687Z" fill="#FF7B8C"/>
<path d="M177.874 134.952C177.976 135.12 178.042 135.306 178.069 135.5C178.096 135.694 178.082 135.892 178.03 136.08C177.977 136.269 177.886 136.445 177.762 136.597C177.639 136.749 177.485 136.874 177.311 136.964C176.96 137.166 176.544 137.225 176.15 137.128C175.757 137.03 175.416 136.784 175.2 136.441C175.095 136.274 175.026 136.088 174.998 135.893C174.969 135.698 174.982 135.5 175.035 135.31C175.088 135.121 175.18 134.944 175.306 134.793C175.431 134.641 175.587 134.517 175.763 134.429C176.118 134.234 176.534 134.181 176.926 134.282C177.319 134.383 177.658 134.63 177.874 134.972V134.952Z" fill="#CD4492"/>
<path d="M173.391 127.149C173.455 127.246 173.497 127.356 173.515 127.471C173.533 127.585 173.526 127.702 173.496 127.814C173.466 127.926 173.412 128.031 173.339 128.121C173.265 128.21 173.174 128.284 173.07 128.336C172.857 128.451 172.608 128.481 172.374 128.422C172.139 128.362 171.936 128.217 171.803 128.014C171.743 127.913 171.705 127.801 171.69 127.685C171.674 127.568 171.683 127.45 171.715 127.337C171.747 127.224 171.802 127.119 171.876 127.028C171.949 126.937 172.041 126.862 172.145 126.807C172.356 126.69 172.605 126.66 172.838 126.724C173.071 126.788 173.269 126.941 173.391 127.149Z" fill="#0064B0"/>
<path d="M181.614 125.259C181.66 125.337 181.69 125.425 181.702 125.516C181.714 125.606 181.707 125.698 181.683 125.786C181.659 125.875 181.617 125.957 181.56 126.029C181.503 126.1 181.433 126.16 181.353 126.204C181.182 126.298 180.983 126.326 180.793 126.281C180.604 126.236 180.438 126.123 180.327 125.962C180.279 125.882 180.247 125.791 180.235 125.698C180.223 125.604 180.23 125.509 180.257 125.418C180.283 125.327 180.328 125.243 180.389 125.171C180.449 125.098 180.524 125.039 180.609 124.997C180.777 124.901 180.977 124.874 181.165 124.923C181.352 124.972 181.514 125.092 181.614 125.259Z" fill="#FF7B8C"/>
</g>
</svg>
