<svg width="201" height="309" viewBox="0 0 201 309" fill="none" xmlns="http://www.w3.org/2000/svg">
<mask id="mask0_398_990" style="mask-type:luminance" maskUnits="userSpaceOnUse" x="-90" y="0" width="291" height="309">
<path d="M201 0H-90V309H201V0Z" fill="white"/>
</mask>
<g mask="url(#mask0_398_990)">
<path d="M131.528 236.305C131.572 236.735 131.443 237.164 131.171 237.5C130.9 237.835 130.506 238.05 130.077 238.096C129.866 238.118 129.653 238.097 129.45 238.035C129.247 237.974 129.058 237.873 128.894 237.738C128.73 237.603 128.595 237.436 128.496 237.249C128.397 237.061 128.336 236.856 128.317 236.645C128.291 236.433 128.307 236.219 128.365 236.014C128.422 235.81 128.52 235.618 128.652 235.452C128.785 235.285 128.948 235.146 129.135 235.043C129.321 234.94 129.526 234.876 129.737 234.853C130.167 234.809 130.596 234.938 130.932 235.21C131.267 235.482 131.482 235.875 131.528 236.305Z" fill="#EB027E"/>
<path d="M130.847 226.481C130.873 226.738 130.797 226.996 130.635 227.198C130.473 227.4 130.239 227.531 129.982 227.562C129.724 227.588 129.467 227.512 129.265 227.35C129.063 227.189 128.932 226.954 128.901 226.697C128.883 226.441 128.961 226.187 129.122 225.987C129.282 225.786 129.512 225.654 129.766 225.616C130.023 225.59 130.281 225.665 130.483 225.827C130.685 225.989 130.816 226.224 130.847 226.481Z" fill="#EB027E"/>
<path d="M139.465 228.056C139.483 228.158 139.479 228.263 139.453 228.364C139.428 228.464 139.382 228.558 139.318 228.64C139.254 228.721 139.173 228.788 139.082 228.837C138.99 228.885 138.889 228.914 138.786 228.921C138.582 228.939 138.38 228.879 138.219 228.753C138.058 228.626 137.952 228.444 137.921 228.242C137.903 228.038 137.963 227.835 138.09 227.675C138.216 227.514 138.399 227.407 138.601 227.377C138.703 227.359 138.807 227.363 138.908 227.389C139.008 227.414 139.102 227.46 139.184 227.524C139.265 227.588 139.332 227.669 139.381 227.76C139.429 227.852 139.458 227.953 139.465 228.056Z" fill="#EB027E"/>
<path d="M72.1728 252.956C72.216 253.386 72.0878 253.815 71.8159 254.151C71.544 254.487 71.1506 254.701 70.7213 254.748C70.2916 254.791 69.8623 254.663 69.5268 254.391C69.1913 254.119 68.9768 253.725 68.9301 253.296C68.8868 252.866 69.0151 252.437 69.287 252.101C69.5588 251.765 69.9523 251.551 70.3816 251.504C70.8112 251.461 71.2406 251.589 71.5761 251.861C71.9116 252.133 72.126 252.527 72.1728 252.956Z" fill="#EB027E"/>
<path d="M71.4934 243.163C71.5112 243.416 71.4314 243.665 71.2705 243.861C71.1096 244.056 70.8799 244.182 70.6287 244.213C70.5005 244.231 70.3702 244.222 70.2455 244.187C70.1208 244.152 70.0045 244.093 69.9035 244.012C69.8025 243.931 69.7189 243.831 69.6577 243.717C69.5966 243.603 69.5592 243.477 69.5479 243.348C69.5351 243.223 69.5474 243.095 69.584 242.974C69.6207 242.853 69.6809 242.741 69.7613 242.643C69.8417 242.545 69.9407 242.464 70.0524 242.405C70.1642 242.346 70.2866 242.31 70.4126 242.298C70.5408 242.281 70.6712 242.29 70.7958 242.324C70.9205 242.359 71.0368 242.419 71.1379 242.499C71.2389 242.58 71.3225 242.681 71.3836 242.795C71.4447 242.909 71.4821 243.034 71.4934 243.163Z" fill="#EB027E"/>
<path d="M86.2243 265.159C86.2371 265.285 86.2248 265.412 86.1882 265.533C86.1515 265.654 86.0912 265.767 86.0108 265.864C85.9304 265.962 85.8315 266.043 85.7197 266.102C85.6079 266.161 85.4855 266.198 85.3596 266.209C85.233 266.227 85.1043 266.217 84.9814 266.183C84.8585 266.148 84.7442 266.088 84.6456 266.006C84.547 265.925 84.4662 265.824 84.4084 265.711C84.3506 265.597 84.3169 265.472 84.3096 265.344C84.2968 265.218 84.3091 265.091 84.3458 264.97C84.3824 264.849 84.4426 264.736 84.523 264.639C84.6034 264.541 84.7024 264.46 84.8142 264.401C84.9259 264.342 85.0484 264.306 85.1743 264.294C85.3001 264.281 85.4272 264.293 85.5483 264.33C85.6693 264.367 85.7819 264.427 85.8796 264.507C85.9772 264.588 86.0579 264.687 86.1171 264.799C86.1763 264.911 86.2127 265.033 86.2243 265.159Z" fill="#EB027E"/>
<path d="M93.1086 253.512C93.1609 253.959 93.0343 254.407 92.7565 254.761C92.4786 255.114 92.0723 255.343 91.6263 255.397C91.1769 255.44 90.7283 255.306 90.3763 255.023C90.0243 254.741 89.7968 254.331 89.7425 253.883C89.6989 253.433 89.8327 252.985 90.1155 252.632C90.3982 252.28 90.8074 252.053 91.2557 251.998C91.7017 251.955 92.1467 252.09 92.4937 252.374C92.8408 252.657 93.0618 253.066 93.1086 253.512Z" fill="#EB027E"/>
<path d="M80.2339 244.646C80.2519 244.85 80.1916 245.052 80.0654 245.213C79.9392 245.374 79.7565 245.48 79.5545 245.511C79.3463 245.528 79.1395 245.464 78.978 245.331C78.8166 245.199 78.7132 245.008 78.6898 244.8C78.6769 244.699 78.6842 244.596 78.7115 244.497C78.7388 244.398 78.7854 244.306 78.8486 244.226C78.9118 244.145 78.9904 244.078 79.0798 244.028C79.1691 243.978 79.2675 243.947 79.3692 243.935C79.5774 243.918 79.7842 243.982 79.9456 244.115C80.1071 244.248 80.2105 244.438 80.2339 244.646Z" fill="#EB027E"/>
<path d="M14.3916 258.579C14.8077 258.688 15.1641 258.956 15.3837 259.326C15.6033 259.696 15.6685 260.138 15.5651 260.556C15.456 260.972 15.1874 261.329 14.8176 261.548C14.4477 261.768 14.0062 261.833 13.5887 261.73C13.1726 261.621 12.8162 261.352 12.5966 260.982C12.377 260.612 12.3118 260.17 12.4151 259.753C12.4615 259.542 12.5506 259.343 12.6768 259.169C12.8031 258.994 12.9638 258.847 13.1491 258.737C13.3343 258.627 13.5402 258.556 13.7539 258.529C13.9676 258.502 14.1847 258.519 14.3916 258.579Z" fill="#EB027E"/>
<path d="M4.91138 255.891C5.16104 255.963 5.37361 256.128 5.50564 256.352C5.63768 256.576 5.67918 256.842 5.62166 257.096C5.59327 257.22 5.53964 257.337 5.46413 257.439C5.38862 257.542 5.29286 257.627 5.18276 257.691C5.07267 257.755 4.95059 257.795 4.82421 257.81C4.69782 257.824 4.56985 257.813 4.44817 257.775C4.32362 257.747 4.2061 257.693 4.10258 257.618C3.99905 257.543 3.91159 257.448 3.84538 257.338C3.77918 257.229 3.73554 257.107 3.71707 256.981C3.6986 256.854 3.70567 256.725 3.73785 256.601C3.76673 256.477 3.8203 256.359 3.89533 256.256C3.97037 256.152 4.06538 256.065 4.17477 255.998C4.28415 255.932 4.40567 255.889 4.53219 255.87C4.65871 255.852 4.78764 255.859 4.91138 255.891Z" fill="#EB027E"/>
<path d="M30.6653 249.743C30.791 249.776 30.9092 249.832 31.0129 249.911C31.1167 249.989 31.2041 250.086 31.27 250.198C31.336 250.31 31.3792 250.434 31.3974 250.563C31.4155 250.691 31.408 250.822 31.3755 250.948C31.3433 251.07 31.2873 251.184 31.2108 251.284C31.1343 251.384 31.0388 251.468 30.9298 251.532C30.8208 251.595 30.7004 251.636 30.5755 251.652C30.4506 251.669 30.3237 251.66 30.202 251.628C30.0775 251.599 29.96 251.545 29.8564 251.47C29.7529 251.395 29.6655 251.3 29.5993 251.191C29.533 251.081 29.4895 250.96 29.471 250.833C29.4525 250.707 29.4595 250.578 29.4917 250.454C29.5206 250.329 29.5742 250.212 29.6492 250.108C29.7242 250.005 29.8193 249.917 29.9286 249.851C30.038 249.785 30.1595 249.741 30.2861 249.722C30.4126 249.704 30.5415 249.711 30.6653 249.743Z" fill="#EB027E"/>
<path d="M22.1743 239.239C22.3916 239.294 22.5961 239.39 22.776 239.524C22.9559 239.657 23.1076 239.825 23.2224 240.017C23.3372 240.21 23.4128 240.423 23.445 240.645C23.4771 240.866 23.4651 241.092 23.4096 241.309C23.2936 241.743 23.0109 242.113 22.6233 242.338C22.2357 242.564 21.7745 242.627 21.3404 242.514C20.9058 242.398 20.5337 242.116 20.3031 241.73C20.0724 241.343 20.0015 240.882 20.1052 240.444C20.2212 240.011 20.5038 239.641 20.8915 239.415C21.2791 239.19 21.7402 239.126 22.1743 239.239Z" fill="#EB027E"/>
<path d="M9.44873 248.26C9.54766 248.282 9.64113 248.323 9.72341 248.382C9.80568 248.441 9.87499 248.517 9.92707 248.603C9.97915 248.69 10.0129 248.787 10.0263 248.887C10.0396 248.988 10.0322 249.09 10.0046 249.187C9.98269 249.287 9.94129 249.381 9.88277 249.465C9.82425 249.548 9.74979 249.619 9.66366 249.674C9.57752 249.728 9.48142 249.765 9.38092 249.783C9.28043 249.8 9.17754 249.797 9.07816 249.774C8.8787 249.716 8.70797 249.586 8.59944 249.409C8.49092 249.232 8.45241 249.02 8.49139 248.816C8.51646 248.716 8.56133 248.622 8.62338 248.54C8.68543 248.457 8.76338 248.388 8.85263 248.336C8.94188 248.284 9.04062 248.251 9.143 248.238C9.24538 248.225 9.34935 248.232 9.44873 248.26Z" fill="#EB027E"/>
<path d="M-0.555813 258.362C-0.458363 258.349 -0.359297 258.356 -0.264408 258.382C-0.169518 258.407 -0.0807127 258.452 -0.00311422 258.512C0.0744842 258.573 0.139329 258.648 0.18759 258.733C0.235851 258.819 0.266587 258.914 0.278018 259.011C0.290882 259.111 0.283277 259.212 0.255682 259.309C0.228086 259.406 0.181089 259.496 0.117519 259.574C0.0539495 259.652 -0.0248764 259.717 -0.114087 259.763C-0.203299 259.81 -0.30104 259.838 -0.401393 259.845C-0.498842 259.858 -0.597908 259.852 -0.692797 259.826C-0.787687 259.8 -0.876492 259.756 -0.954091 259.696C-1.03169 259.635 -1.09653 259.56 -1.1448 259.474C-1.19306 259.389 -1.22379 259.294 -1.23522 259.197C-1.25302 259.096 -1.24893 258.993 -1.22325 258.894C-1.19758 258.795 -1.15093 258.703 -1.08646 258.624C-1.02198 258.545 -0.941189 258.48 -0.84962 258.435C-0.758051 258.39 -0.657844 258.365 -0.555813 258.362Z" fill="#EB027E"/>
<path d="M4.7561 105.627C4.69464 106.09 4.45191 106.509 4.08126 106.793C3.71061 107.077 3.2424 107.202 2.77965 107.141C2.55156 107.11 2.33179 107.035 2.13322 106.919C1.93465 106.802 1.76126 106.648 1.62322 106.463C1.48517 106.279 1.38523 106.07 1.32927 105.846C1.2733 105.623 1.26246 105.391 1.29732 105.163C1.35878 104.7 1.60151 104.281 1.97216 103.997C2.34281 103.713 2.81102 103.588 3.27377 103.65C3.50186 103.68 3.72162 103.755 3.9202 103.871C4.11877 103.988 4.29215 104.142 4.4302 104.327C4.56825 104.511 4.66819 104.721 4.72415 104.944C4.78011 105.167 4.79096 105.399 4.7561 105.627Z" fill="#EB027E"/>
<path d="M39.4967 96.5443C39.4278 96.9873 39.1897 97.3863 38.8325 97.6572C38.4754 97.928 38.027 98.0496 37.582 97.9962C37.362 97.9661 37.1502 97.8923 36.959 97.7792C36.7679 97.666 36.6013 97.5159 36.469 97.3374C36.3366 97.159 36.2413 96.956 36.1885 96.7402C36.1357 96.5244 36.1264 96.3003 36.1614 96.0809C36.2302 95.646 36.465 95.2548 36.8164 94.9897C37.1678 94.7246 37.6083 94.6063 38.0452 94.6598C38.4856 94.7213 38.8843 94.9532 39.1556 95.3055C39.427 95.6579 39.5495 96.1026 39.4967 96.5443Z" fill="#EB027E"/>
<path d="M41.2904 86.5039C41.2751 86.6341 41.2341 86.76 41.1698 86.8742C41.1054 86.9885 41.019 87.0888 40.9156 87.1693C40.8121 87.2498 40.6937 87.3089 40.5671 87.3431C40.4406 87.3774 40.3085 87.3862 40.1786 87.3689C40.0454 87.3539 39.9167 87.312 39.8002 87.2456C39.6837 87.1793 39.5819 87.09 39.501 86.983C39.4201 86.8761 39.3618 86.7538 39.3297 86.6237C39.2975 86.4935 39.2921 86.3581 39.3139 86.2258C39.3327 86.0953 39.3773 85.9699 39.4453 85.8569C39.5132 85.7439 39.6031 85.6457 39.7096 85.5679C39.816 85.4902 39.9369 85.4346 40.0652 85.4043C40.1935 85.3741 40.3266 85.3698 40.4565 85.3917C40.7139 85.43 40.9458 85.5682 41.1019 85.7764C41.258 85.9846 41.3257 86.246 41.2904 86.5039Z" fill="#EB027E"/>
<path d="M50.5527 112.269C50.5378 112.402 50.4959 112.531 50.4296 112.647C50.3633 112.764 50.2739 112.866 50.167 112.947C50.0602 113.028 49.9379 113.086 49.8078 113.118C49.6777 113.15 49.5424 113.156 49.4101 113.134C49.2797 113.115 49.1542 113.07 49.0413 113.002C48.9284 112.934 48.8301 112.845 48.7524 112.738C48.6747 112.632 48.6191 112.511 48.5889 112.382C48.5586 112.254 48.5544 112.121 48.5763 111.991C48.5912 111.862 48.6323 111.737 48.6971 111.624C48.7618 111.511 48.8489 111.413 48.9529 111.335C49.0569 111.257 49.1758 111.201 49.3022 111.17C49.4286 111.139 49.5599 111.135 49.688 111.157C49.8199 111.168 49.9481 111.206 50.0645 111.269C50.1809 111.332 50.2829 111.419 50.3642 111.523C50.4454 111.628 50.5041 111.748 50.5366 111.876C50.569 112.005 50.5745 112.138 50.5527 112.269Z" fill="#EB027E"/>
<path d="M60.2511 102.352C60.1823 102.809 59.9364 103.221 59.5666 103.499C59.1968 103.776 58.7327 103.897 58.2746 103.835C57.8119 103.773 57.3925 103.531 57.1087 103.16C56.8249 102.789 56.7 102.321 56.7614 101.858C56.7916 101.63 56.867 101.41 56.9832 101.211C57.0995 101.013 57.2541 100.839 57.4382 100.701C57.6223 100.563 57.832 100.463 58.0552 100.407C58.2783 100.351 58.5104 100.34 58.7378 100.375C59.2006 100.436 59.62 100.679 59.9037 101.05C60.1875 101.421 60.3125 101.889 60.2511 102.352Z" fill="#EB027E"/>
<path d="M49.5033 90.1803C49.4921 90.285 49.4597 90.3863 49.4079 90.478C49.3561 90.5698 49.2861 90.6499 49.2022 90.7136C49.1184 90.7772 49.0223 90.8231 48.9201 90.8482C48.8178 90.8734 48.7115 90.8774 48.6077 90.8599C48.3998 90.8293 48.2122 90.7183 48.0852 90.5507C47.9581 90.3832 47.9018 90.1726 47.9283 89.964C47.959 89.7537 48.0688 89.5631 48.2352 89.4311C48.4017 89.299 48.6122 89.2355 48.8239 89.2535C49.0343 89.2914 49.2222 89.4087 49.3486 89.5811C49.475 89.7536 49.5304 89.9681 49.5033 90.1803Z" fill="#EB027E"/>
<path d="M100.739 101.332C100.952 101.277 101.174 101.264 101.392 101.294C101.61 101.325 101.819 101.398 102.009 101.51C102.198 101.622 102.364 101.771 102.496 101.947C102.628 102.123 102.723 102.324 102.777 102.537C102.833 102.75 102.846 102.972 102.815 103.19C102.785 103.408 102.711 103.618 102.599 103.808C102.488 103.997 102.339 104.163 102.163 104.295C101.987 104.427 101.786 104.522 101.573 104.576C101.36 104.632 101.138 104.645 100.92 104.614C100.702 104.584 100.492 104.51 100.303 104.398C100.113 104.286 99.948 104.138 99.8161 103.962C99.6843 103.786 99.5886 103.585 99.5346 103.371C99.479 103.158 99.4661 102.937 99.4966 102.718C99.5271 102.5 99.6004 102.291 99.7124 102.101C99.8243 101.912 99.9727 101.746 100.149 101.614C100.325 101.482 100.526 101.386 100.739 101.332Z" fill="#EB027E"/>
<path d="M90.7027 103.619C90.9606 103.552 91.2342 103.589 91.4651 103.722C91.6959 103.855 91.8657 104.073 91.938 104.329C91.9952 104.591 91.9504 104.865 91.8127 105.094C91.6749 105.324 91.4546 105.492 91.1968 105.565C91.069 105.597 90.9361 105.603 90.8058 105.583C90.6756 105.563 90.5507 105.517 90.4385 105.448C90.3263 105.379 90.229 105.288 90.1524 105.181C90.0758 105.074 90.0214 104.952 89.9924 104.824C89.9599 104.698 89.9525 104.567 89.9706 104.438C89.9887 104.31 90.032 104.186 90.0979 104.074C90.1639 103.962 90.2512 103.864 90.355 103.786C90.4588 103.708 90.5769 103.651 90.7027 103.619Z" fill="#EB027E"/>
<path d="M111.146 85.2372C111.274 85.2051 111.407 85.199 111.537 85.2191C111.668 85.2391 111.793 85.2851 111.905 85.3542C112.017 85.4232 112.114 85.5141 112.191 85.6213C112.267 85.7286 112.322 85.8501 112.351 85.9786C112.383 86.1044 112.391 86.2354 112.373 86.364C112.355 86.4926 112.311 86.6164 112.245 86.7283C112.179 86.8402 112.092 86.938 111.988 87.0161C111.884 87.0942 111.766 87.1511 111.641 87.1835C111.513 87.2207 111.379 87.2317 111.247 87.2159C111.115 87.2 110.987 87.1577 110.872 87.0913C110.756 87.025 110.656 86.936 110.575 86.8297C110.495 86.7235 110.437 86.6021 110.405 86.4729C110.34 86.2107 110.381 85.9333 110.52 85.7016C110.659 85.4699 110.884 85.3029 111.146 85.2372Z" fill="#EB027E"/>
<path d="M98.2054 79.9236C98.4286 79.859 98.6626 79.8409 98.8931 79.8704C99.1235 79.8999 99.3455 79.9764 99.5452 80.0951C99.7449 80.2138 99.9182 80.3723 100.054 80.5606C100.19 80.749 100.286 80.9633 100.336 81.1903C100.396 81.4135 100.411 81.6464 100.38 81.8754C100.348 82.1044 100.271 82.3247 100.153 82.5234C100.035 82.7221 99.8783 82.8952 99.6923 83.0323C99.5064 83.1694 99.2948 83.2679 99.0701 83.3219C98.847 83.3819 98.6141 83.3967 98.3852 83.3652C98.1563 83.3337 97.9361 83.2566 97.7374 83.1385C97.5388 83.0205 97.3658 82.8638 97.2287 82.6777C97.0917 82.4917 96.9932 82.28 96.9393 82.0553C96.8267 81.6047 96.8966 81.128 97.1337 80.7287C97.3708 80.3295 97.756 80.0401 98.2054 79.9236Z" fill="#EB027E"/>
<path d="M91.135 94.4126C91.2385 94.3849 91.3464 94.3782 91.4525 94.3928C91.5586 94.4074 91.6607 94.4431 91.7528 94.4978C91.8449 94.5525 91.9251 94.6251 91.9887 94.7113C92.0523 94.7974 92.0981 94.8955 92.1233 94.9996C92.151 95.1031 92.1577 95.2111 92.1431 95.3172C92.1285 95.4233 92.0928 95.5254 92.0381 95.6176C91.9834 95.7097 91.9109 95.7899 91.8247 95.8536C91.7386 95.9172 91.6406 95.963 91.5365 95.9882C91.328 96.0358 91.1091 96.0015 90.9252 95.8922C90.7412 95.783 90.6063 95.6072 90.5483 95.4012C90.5006 95.1926 90.535 94.9736 90.6442 94.7896C90.7534 94.6056 90.9291 94.4706 91.135 94.4126Z" fill="#EB027E"/>
<path d="M132.36 91.2924C132.704 91.2071 133.067 91.2595 133.373 91.4384C133.678 91.6173 133.902 91.9085 133.997 92.2501C134.081 92.59 134.028 92.9495 133.848 93.2504C133.669 93.5512 133.378 93.7691 133.039 93.8565C132.695 93.9417 132.332 93.8893 132.026 93.7105C131.72 93.5316 131.497 93.2404 131.402 92.8988C131.318 92.5589 131.371 92.1994 131.551 91.8985C131.73 91.5976 132.021 91.3798 132.36 91.2924Z" fill="#EB027E"/>
<path d="M124.67 93.2694C124.875 93.2124 125.094 93.2389 125.279 93.3431C125.465 93.4474 125.601 93.6208 125.659 93.8255C125.705 94.0302 125.67 94.245 125.56 94.424C125.451 94.603 125.275 94.7319 125.072 94.7832C124.973 94.8111 124.869 94.8187 124.766 94.8057C124.664 94.7927 124.565 94.7593 124.476 94.7074C124.387 94.6556 124.309 94.5864 124.247 94.5039C124.185 94.4214 124.14 94.3273 124.115 94.2271C124.087 94.1277 124.079 94.0237 124.092 93.9213C124.105 93.8189 124.139 93.7201 124.19 93.6308C124.242 93.5415 124.311 93.4635 124.394 93.4015C124.476 93.3394 124.57 93.2945 124.67 93.2694Z" fill="#EB027E"/>
<path d="M130.355 74.3629C130.711 74.2687 131.09 74.32 131.409 74.5054C131.727 74.6907 131.959 74.9951 132.053 75.3515C132.147 75.7079 132.096 76.0871 131.911 76.4058C131.725 76.7244 131.421 76.9563 131.065 77.0506C130.709 77.1448 130.33 77.0935 130.011 76.9082C129.693 76.7228 129.461 76.4184 129.366 76.062C129.272 75.7056 129.324 75.3264 129.509 75.0078C129.694 74.6891 129.998 74.4572 130.355 74.3629Z" fill="#EB027E"/>
<path d="M124.673 85.8243C124.756 85.801 124.843 85.7946 124.928 85.8054C125.014 85.8162 125.097 85.8439 125.172 85.8871C125.246 85.9303 125.312 85.9879 125.364 86.0567C125.416 86.1255 125.454 86.204 125.476 86.2877C125.513 86.4514 125.486 86.6233 125.4 86.7674C125.313 86.9114 125.174 87.0163 125.012 87.06C124.849 87.0978 124.677 87.0706 124.533 86.9842C124.389 86.8978 124.284 86.7588 124.24 86.5966C124.217 86.5175 124.21 86.4345 124.219 86.3525C124.228 86.2705 124.253 86.1912 124.294 86.1192C124.334 86.0472 124.388 85.9841 124.453 85.9334C124.518 85.8827 124.593 85.8456 124.673 85.8243Z" fill="#EB027E"/>
<path d="M136.839 128.148C137.183 128.063 137.546 128.115 137.852 128.294C138.158 128.473 138.381 128.764 138.476 129.106C138.561 129.449 138.509 129.813 138.33 130.119C138.151 130.425 137.86 130.649 137.518 130.743C137.175 130.82 136.815 130.764 136.511 130.587C136.208 130.409 135.983 130.122 135.882 129.785C135.804 129.442 135.86 129.082 136.038 128.778C136.215 128.474 136.502 128.249 136.839 128.148Z" fill="#EB027E"/>
<path d="M129.028 129.971C129.127 129.943 129.231 129.935 129.333 129.948C129.436 129.961 129.534 129.994 129.624 130.046C129.713 130.098 129.791 130.167 129.853 130.25C129.915 130.332 129.96 130.426 129.985 130.527C130.033 130.735 129.998 130.954 129.889 131.138C129.78 131.322 129.604 131.457 129.398 131.515C129.194 131.562 128.979 131.527 128.8 131.417C128.621 131.307 128.492 131.132 128.441 130.928C128.413 130.827 128.407 130.721 128.422 130.617C128.437 130.512 128.473 130.413 128.528 130.323C128.583 130.233 128.655 130.156 128.741 130.095C128.827 130.035 128.925 129.992 129.028 129.971Z" fill="#EB027E"/>
<path d="M134.864 111.219C135.216 111.134 135.587 111.189 135.899 111.374C136.21 111.559 136.437 111.857 136.532 112.207C136.583 112.384 136.597 112.569 136.575 112.751C136.552 112.933 136.493 113.109 136.401 113.268C136.308 113.427 136.185 113.565 136.037 113.675C135.89 113.785 135.722 113.863 135.544 113.906C135.367 113.957 135.182 113.972 135 113.949C134.818 113.927 134.642 113.868 134.483 113.775C134.324 113.683 134.186 113.559 134.076 113.412C133.966 113.264 133.888 113.096 133.845 112.918C133.799 112.739 133.789 112.553 133.815 112.371C133.842 112.188 133.904 112.013 133.999 111.855C134.094 111.696 134.219 111.559 134.368 111.45C134.516 111.34 134.685 111.262 134.864 111.219Z" fill="#EB027E"/>
<path d="M129.272 122.711C129.351 122.687 129.434 122.68 129.516 122.689C129.598 122.698 129.677 122.724 129.749 122.764C129.821 122.804 129.884 122.859 129.935 122.924C129.986 122.989 130.023 123.064 130.044 123.143C130.082 123.307 130.055 123.479 129.968 123.623C129.882 123.767 129.743 123.872 129.581 123.916C129.5 123.939 129.415 123.945 129.331 123.934C129.247 123.923 129.167 123.894 129.095 123.851C129.022 123.808 128.96 123.75 128.911 123.681C128.861 123.613 128.827 123.535 128.809 123.452C128.791 123.373 128.788 123.291 128.801 123.211C128.815 123.131 128.844 123.054 128.887 122.985C128.93 122.917 128.986 122.857 129.052 122.81C129.118 122.763 129.193 122.729 129.272 122.711Z" fill="#EB027E"/>
<path d="M138.755 169.854C139.099 169.768 139.462 169.821 139.768 170C140.074 170.179 140.298 170.47 140.392 170.811C140.438 170.98 140.45 171.156 140.426 171.329C140.403 171.502 140.344 171.668 140.255 171.818C140.166 171.968 140.047 172.099 139.906 172.202C139.765 172.305 139.605 172.378 139.434 172.418C139.266 172.465 139.09 172.478 138.917 172.457C138.743 172.436 138.576 172.38 138.424 172.294C138.272 172.208 138.138 172.093 138.031 171.955C137.923 171.817 137.844 171.659 137.798 171.491C137.713 171.147 137.765 170.783 137.944 170.478C138.123 170.172 138.414 169.948 138.755 169.854Z" fill="#EB027E"/>
<path d="M130.849 171.676C130.948 171.644 131.054 171.633 131.158 171.643C131.261 171.654 131.362 171.687 131.452 171.74C131.543 171.792 131.621 171.863 131.682 171.948C131.743 172.033 131.786 172.13 131.806 172.232C131.834 172.336 131.841 172.444 131.826 172.55C131.812 172.656 131.776 172.758 131.721 172.85C131.667 172.943 131.594 173.023 131.508 173.086C131.422 173.15 131.324 173.196 131.22 173.221C131.016 173.26 130.805 173.221 130.627 173.113C130.45 173.004 130.32 172.834 130.262 172.634C130.216 172.429 130.251 172.215 130.361 172.036C130.47 171.857 130.646 171.728 130.849 171.676Z" fill="#EB027E"/>
<path d="M136.776 152.924C137.132 152.838 137.507 152.893 137.823 153.077C138.14 153.261 138.373 153.561 138.474 153.913C138.52 154.091 138.53 154.277 138.504 154.46C138.478 154.642 138.415 154.818 138.32 154.976C138.225 155.134 138.1 155.272 137.952 155.381C137.803 155.49 137.634 155.569 137.455 155.612C137.279 155.663 137.094 155.678 136.911 155.655C136.729 155.633 136.553 155.573 136.394 155.481C136.236 155.389 136.097 155.265 135.988 155.118C135.878 154.97 135.799 154.802 135.757 154.623C135.672 154.263 135.731 153.884 135.921 153.567C136.112 153.249 136.418 153.019 136.776 152.924Z" fill="#EB027E"/>
<path d="M131.187 164.324C131.35 164.286 131.522 164.313 131.666 164.4C131.81 164.486 131.915 164.625 131.959 164.787C131.982 164.868 131.988 164.953 131.977 165.037C131.966 165.121 131.938 165.201 131.894 165.274C131.851 165.346 131.793 165.409 131.725 165.458C131.656 165.507 131.578 165.542 131.496 165.559C131.332 165.597 131.16 165.57 131.016 165.484C130.872 165.397 130.767 165.258 130.724 165.096C130.686 164.932 130.713 164.76 130.799 164.616C130.886 164.472 131.025 164.367 131.187 164.324Z" fill="#EB027E"/>
<path d="M135.635 204.855C135.761 205.026 135.853 205.219 135.904 205.425C135.956 205.63 135.966 205.844 135.935 206.054C135.903 206.263 135.83 206.465 135.72 206.646C135.611 206.828 135.466 206.985 135.295 207.111C135.121 207.236 134.923 207.327 134.714 207.376C134.505 207.426 134.288 207.433 134.076 207.399C133.864 207.364 133.66 207.289 133.477 207.175C133.294 207.062 133.136 206.914 133.01 206.74C132.885 206.568 132.795 206.373 132.746 206.166C132.697 205.959 132.69 205.745 132.724 205.535C132.759 205.325 132.835 205.124 132.947 204.944C133.06 204.764 133.207 204.608 133.381 204.485C133.552 204.36 133.747 204.27 133.954 204.221C134.161 204.172 134.375 204.165 134.585 204.199C134.795 204.233 134.996 204.309 135.176 204.422C135.356 204.535 135.512 204.682 135.635 204.855Z" fill="#EB027E"/>
<path d="M130.044 196.762C130.191 196.972 130.251 197.231 130.211 197.485C130.17 197.739 130.033 197.967 129.827 198.121C129.617 198.269 129.358 198.329 129.104 198.288C128.851 198.248 128.623 198.11 128.469 197.905C128.321 197.694 128.261 197.435 128.301 197.181C128.342 196.927 128.479 196.699 128.685 196.545C128.787 196.468 128.905 196.413 129.029 196.382C129.154 196.351 129.283 196.345 129.41 196.365C129.537 196.386 129.658 196.431 129.767 196.499C129.876 196.567 129.97 196.656 130.044 196.762Z" fill="#EB027E"/>
<path d="M138.416 193.734C138.559 193.883 138.639 194.083 138.639 194.29C138.639 194.497 138.559 194.696 138.416 194.846C138.241 194.96 138.03 195.004 137.824 194.97C137.618 194.935 137.432 194.825 137.304 194.661C137.245 194.578 137.202 194.484 137.18 194.384C137.157 194.285 137.154 194.182 137.171 194.081C137.188 193.981 137.225 193.885 137.28 193.799C137.335 193.712 137.406 193.638 137.489 193.579C137.633 193.438 137.828 193.359 138.03 193.359C138.232 193.359 138.426 193.438 138.57 193.579L138.416 193.734Z" fill="#EB027E"/>
<path d="M90.4847 81.6846L89.8979 82.2406C89.5274 82.5805 88.9406 83.1057 88.2612 83.7853C87.5818 84.465 86.7479 85.2991 85.8523 86.2568C84.9568 87.2144 83.9068 88.2957 82.7641 89.5314C81.6215 90.7672 80.5406 92.0338 79.3671 93.4549C78.1936 94.8759 76.9892 96.3897 75.7848 97.9653C74.5804 99.5408 73.3451 101.055 72.1716 102.908C70.9981 104.762 69.7937 106.337 68.651 108.067C67.5084 109.797 66.3966 111.558 65.3466 113.319C64.2966 115.08 63.3084 116.81 62.2584 118.509C61.2084 120.208 60.4364 121.846 59.6335 123.421C58.8305 124.997 58.0893 126.51 57.4408 127.87C56.7923 129.229 56.2055 130.527 55.7114 131.67C55.2173 132.813 54.8159 133.801 54.4761 134.605C54.1364 135.408 53.8894 136.087 53.735 136.52L53.457 137.2L53.8894 136.582C54.1673 136.149 54.5997 135.562 55.0938 134.759C55.5879 133.956 56.2673 133.06 56.9467 131.979C57.6261 130.897 58.4908 129.693 59.3246 128.364L62.2893 124.163L65.3775 119.436C66.4275 117.799 67.601 116.1 68.7128 114.4L72.1716 109.118C73.3142 107.388 74.4568 105.658 75.6304 103.959C76.8039 102.259 77.8848 100.622 78.9966 99.0156C80.1083 97.4092 81.1274 95.9263 82.0848 94.3817C83.0421 92.837 83.9994 91.5395 84.8641 90.242C85.7288 88.9445 86.5009 87.8014 87.1803 86.751C87.8597 85.7007 88.4464 84.8048 88.9406 84.0633C89.4347 83.3219 89.7744 82.704 90.0523 82.3024L90.4847 81.6846Z" fill="#02DBF3"/>
<path d="M38.0156 85.2063C38.0156 85.2063 38.0156 85.4843 38.0156 86.0404C38.0156 86.5965 38.0156 87.3997 38.2318 88.4192C38.448 90.4581 38.7259 93.3621 39.1582 96.853C39.3435 98.583 39.5906 100.498 39.8068 102.476C40.023 104.453 40.3626 106.584 40.6406 108.654C40.9185 110.724 41.2274 113.072 41.5362 115.358C41.845 117.644 42.1847 119.961 42.5244 122.278L43.5435 129.198C43.8523 131.484 44.2229 133.709 44.5626 135.871C45.2111 140.227 45.8597 144.274 46.4464 147.765C47.0332 151.256 47.5582 153.944 47.8979 156.137C48.0523 157.156 48.2067 157.929 48.3302 158.485C48.4538 159.041 48.3302 159.319 48.3302 159.319C48.3302 159.319 48.3302 159.01 48.3302 158.454C48.3302 157.898 48.3302 157.126 48.145 156.106C47.9597 154.067 47.7126 151.132 47.342 147.641C46.9715 144.15 46.5391 140.073 46.0141 135.717C45.7361 133.554 45.4891 131.299 45.1803 129.013C44.8714 126.727 44.5626 124.379 44.2538 122.062L43.2347 115.142C42.9053 112.856 42.5656 110.631 42.2156 108.469C41.845 106.275 41.5053 104.175 41.1656 102.29C40.8259 100.406 40.4862 98.4286 40.1774 96.6985C39.5597 93.2385 38.9421 90.5199 38.5715 88.3265C38.3553 87.3379 38.17 86.5347 38.0774 86.0095L38.0156 85.2063Z" fill="#EB027E"/>
<path d="M-10.2227 87.4617L-9.91386 87.8633L-9.01826 88.9445C-8.2462 89.8713 -7.10358 91.1997 -5.65212 92.7444C-4.20066 94.2891 -2.56391 96.05 -0.587451 97.9653L2.34634 100.869L5.43455 103.959L8.52276 107.048L11.611 109.921C13.6183 111.775 15.5639 113.505 17.2315 114.957C18.8992 116.409 20.3197 117.644 21.4006 118.509C21.8947 118.942 22.3271 119.251 22.605 119.467L23.0373 119.838L22.7903 119.405C22.7903 119.127 22.3889 118.695 22.0491 118.2C21.3697 117.181 20.3815 115.76 18.9609 114.061C17.5404 112.362 16.1506 110.446 14.3595 108.438C13.4948 107.45 12.5683 106.43 11.5801 105.349C10.5919 104.268 9.57277 103.279 8.4919 102.259C7.41103 101.24 6.39192 100.251 5.40369 99.1702C4.41546 98.0889 3.24194 97.2548 2.31548 96.3898C0.18461 94.598 -1.91537 92.9915 -3.86095 91.6631C-5.80652 90.3347 -7.35066 89.3153 -8.52418 88.5738L-9.91386 87.7397L-10.2227 87.4617Z" fill="#2471BA"/>
<path d="M-14.2969 114.524L-13.741 114.926L-12.0734 116.069L-6.11313 119.992L2.37945 125.615L7.1971 128.704L12.1382 132.071L17.0485 135.5L21.8043 138.868C24.8925 141.061 27.7337 143.162 30.2043 145.046L36.1645 149.402C36.8748 149.958 37.4616 150.36 37.863 150.638L38.4498 151.071L37.9865 150.545C37.7086 150.206 37.2762 149.711 36.6895 149.093C35.5468 147.858 33.8484 146.004 31.7484 144.058C29.6484 142.112 27.0852 139.733 24.2131 137.354C22.7926 136.18 21.1249 134.975 19.7043 133.77C18.2837 132.566 16.6161 131.392 14.8867 130.218C13.1573 129.044 11.5515 127.932 9.88383 126.85C8.21619 125.769 6.51766 124.719 4.85003 123.761C1.54564 121.815 -1.6661 120.116 -4.41461 118.725C-7.16312 117.335 -9.69546 116.285 -11.4249 115.636L-13.463 114.833L-14.2969 114.524Z" fill="#2E60A2"/>
<path d="M-57.1016 125.213H-56.4222L-54.3839 125.584L-47.1575 126.881C-44.0693 127.406 -40.6414 128.055 -36.8738 128.797C-34.99 129.167 -33.0444 129.538 -31.0679 129.971L-25.0768 131.268L-19.1165 132.658L-13.3416 134.11L-3.11963 136.891L4.13768 138.96L6.20678 139.547L6.91705 139.764L6.33029 139.424L4.60089 138.528C3.08767 137.756 0.895054 136.674 -1.85345 135.439C-4.60196 134.203 -7.81369 133.029 -11.396 131.855C-13.1872 131.268 -15.071 130.681 -16.9857 130.125L-22.915 128.58C-24.9224 128.117 -26.9606 127.684 -29.0915 127.314C-31.2223 126.943 -33.1371 126.572 -35.1135 126.294C-39.0355 125.707 -42.8031 125.337 -46.0766 125.12C-49.3501 124.904 -52.2531 124.904 -54.106 124.904H-56.4222L-57.1016 125.213Z" fill="#02DBF3"/>
<path d="M24.09 169.668H23.0709C22.3915 169.668 21.4032 169.421 20.137 169.297C18.8709 169.174 17.3268 168.958 15.5356 168.834C13.7445 168.711 11.7372 168.556 9.51364 168.494C7.29013 168.432 4.88132 168.494 2.3181 168.494C-0.245117 168.494 -2.96278 168.494 -5.77305 168.803C-8.58332 169.112 -11.5171 169.236 -14.5127 169.637C-17.5083 170.039 -20.6891 170.471 -23.592 170.997C-26.4949 171.522 -29.7684 172.232 -32.8566 172.943C-35.9448 173.653 -38.8478 174.488 -41.7198 175.353C-44.5919 176.218 -47.3713 177.175 -50.0271 178.102C-52.683 179.029 -55.1535 180.048 -57.4697 181.006C-59.7858 181.964 -61.8549 182.921 -63.6461 183.786C-65.4373 184.651 -67.1049 185.455 -68.4637 186.134L-71.5519 187.772L-72.6328 188.359L-71.5519 187.926L-68.4637 186.69L-63.7079 184.837L-57.5315 182.551L-50.1198 179.77C-47.4948 178.936 -44.7463 178.164 -41.9051 177.361C-39.064 176.557 -36.1302 175.847 -33.1346 175.136C-30.139 174.426 -27.1126 173.808 -24.0861 173.252C-21.0597 172.696 -17.9097 172.171 -15.0377 171.769C-12.1656 171.367 -9.13919 170.966 -6.29803 170.688C-3.45688 170.41 -0.739243 170.162 1.82397 170.008L9.11216 169.637C11.3666 169.637 13.4357 169.637 15.2886 169.637H24.1209L24.09 169.668Z" fill="#02DBF3"/>
<path d="M32.737 174.457L31.6562 174.673C30.9767 174.828 29.9576 175.044 28.5679 175.384C26.0047 176.032 22.3915 176.959 17.9753 178.473C15.8136 179.183 13.4666 179.987 11.0269 180.883C8.58719 181.778 5.96224 182.798 3.33726 183.972C0.712276 185.146 -2.03626 186.32 -4.75389 187.648C-7.47152 188.977 -10.22 190.398 -12.9376 191.911C-15.6553 193.425 -18.342 195.001 -20.967 196.607C-23.592 198.214 -26.1243 199.913 -28.564 201.612C-33.4433 204.979 -37.8286 208.377 -41.5654 211.467C-45.3021 214.556 -48.2668 217.306 -50.3667 219.252C-51.4167 220.21 -52.2197 221.013 -52.7756 221.538C-53.3315 222.063 -53.6094 222.372 -53.6094 222.372L-52.7447 221.6L-50.2432 219.437C-48.1124 217.553 -44.9933 214.958 -41.2257 212.023C-37.458 209.088 -32.9802 205.844 -28.0699 202.477C-25.6302 200.809 -23.0979 199.202 -20.4729 197.596C-17.8479 195.989 -15.1612 194.506 -12.4744 192.931C-9.78767 191.355 -7.03917 189.996 -4.32154 188.668C-1.60392 187.339 1.08287 186.042 3.67696 184.899C6.27106 183.756 8.86512 182.674 11.3048 181.809C13.7445 180.944 16.0298 179.987 18.1916 179.245C22.4842 177.731 26.0973 176.588 28.6297 175.847L31.7179 174.982L32.737 174.457Z" fill="#02DBF3"/>
<path d="M26.6839 184.188L25.8809 184.435L23.7192 185.238C21.8354 185.918 19.1795 186.968 16.0604 188.328C12.9413 189.687 9.35897 191.417 5.62224 193.58C3.73843 194.63 1.82377 195.742 -0.0909233 196.947C-2.00562 198.152 -3.92031 199.387 -5.835 200.654C-7.74969 201.921 -9.60263 203.311 -11.3938 204.67C-13.185 206.029 -14.9761 207.42 -16.6747 208.779C-20.0099 211.528 -23.0363 214.278 -25.5687 216.688C-28.101 219.097 -30.0775 221.26 -31.4672 222.866C-32.1775 223.608 -32.7025 224.225 -33.0731 224.627L-33.6289 225.276L-32.9804 224.72L-31.1892 223.175C-29.6143 221.847 -27.4216 220.086 -24.704 217.769C-21.9864 215.452 -18.8673 213.042 -15.4393 210.447C-13.7099 209.15 -11.9497 207.821 -10.0967 206.524C-8.24382 205.226 -6.42177 203.898 -4.53796 202.631C-2.65415 201.365 -0.739468 200.098 1.14434 198.862C3.02815 197.627 4.88109 196.514 6.70313 195.402C10.3163 193.209 13.7442 191.232 16.7089 189.594C19.6736 187.957 22.1751 186.505 23.9354 185.702L25.9735 184.62L26.6839 184.188Z" fill="#0288C9"/>
<path d="M2.74837 203.125L2.13074 203.558C1.69839 203.805 1.08074 204.207 0.339569 204.732C-1.20454 205.782 -3.3354 207.296 -5.83685 209.242C-8.33831 211.189 -11.1795 213.567 -14.1133 216.255C-15.5647 217.583 -17.2015 219.005 -18.5603 220.487C-19.9191 221.97 -21.6485 223.577 -22.9456 225.029C-24.2426 226.481 -25.8176 228.118 -27.1764 229.786C-28.5352 231.455 -29.8631 232.876 -31.1293 234.544C-33.5999 237.633 -35.7925 240.722 -37.6146 243.41C-39.4366 246.098 -40.8572 248.353 -41.8145 249.99C-42.3087 250.794 -42.6484 251.442 -42.9263 251.875L-43.2969 252.555L-42.8027 251.937L-41.4439 250.207L-36.5955 244.028C-34.5572 241.557 -32.1793 238.653 -29.5852 235.656C-28.2882 234.142 -26.9294 232.567 -25.5397 231.053C-24.15 229.539 -22.7294 227.964 -21.2779 226.388C-19.8265 224.812 -18.4059 223.299 -16.9544 221.847L-12.6927 217.522C-9.88242 214.772 -7.22657 212.239 -4.94129 210.107C-2.65602 207.976 -0.679569 206.215 0.648361 204.979L2.22338 203.558L2.74837 203.125Z" fill="#2E60A2"/>
<path d="M22.759 192.9L22.0796 193.456L20.1649 195.093C18.5899 196.545 16.3046 198.584 13.6796 201.272C12.3826 202.539 10.9929 203.96 9.54144 205.473L5.12527 210.355C3.61205 212.085 2.03709 213.876 0.616512 215.73C-0.804066 217.584 -2.47171 219.499 -3.83052 221.445C-5.18933 223.391 -6.67168 225.338 -8.03049 227.315C-9.3893 229.292 -10.6246 231.207 -11.8599 233.123C-14.2687 236.923 -16.3687 240.568 -18.0363 243.75C-19.7039 246.932 -21.1245 249.589 -21.9892 251.442L-23.0392 253.636C-23.2554 254.161 -23.3789 254.408 -23.3789 254.408C-23.3789 254.408 -23.3789 254.161 -22.9774 253.667L-21.8039 251.535C-20.7848 249.681 -19.3025 247.086 -17.4804 243.997C-15.6584 240.908 -13.404 237.324 -10.9334 233.555C-9.69813 231.671 -8.37019 229.755 -7.01137 227.809C-5.65256 225.863 -4.232 223.917 -2.78054 222.001C-1.32908 220.086 0.122374 218.17 1.60472 216.317C3.08706 214.463 4.69295 212.641 6.02088 210.911C7.34881 209.181 8.9238 207.512 10.3135 205.968C11.7032 204.423 13.0311 202.878 14.2973 201.643C16.7678 198.986 18.8678 196.823 20.4737 195.464L22.2031 193.703L22.759 192.9Z" fill="#EB027E"/>
<path d="M40.7936 181.624L40.0833 182.303L38.1069 184.311C37.273 185.176 36.2848 186.258 35.1731 187.401C34.0613 188.544 32.826 190.058 31.4981 191.633C30.1702 193.209 28.8113 194.908 27.4216 196.761C26.0319 198.615 24.5496 200.561 23.0981 202.631C21.6467 204.701 20.1952 206.863 18.8055 209.088C17.4158 211.312 16.0261 213.598 14.6982 215.915C13.3703 218.232 12.135 220.549 10.9306 222.866C9.72618 225.183 8.64533 227.469 7.62622 229.694C6.60711 231.918 5.64973 234.111 4.78503 236.181C3.92033 238.251 3.17919 240.228 2.49978 242.051C1.82038 243.873 1.23359 245.542 0.739479 247.055C0.245365 248.569 -0.156084 249.836 -0.495787 250.917C-0.83549 251.998 -1.05165 252.863 -1.20606 253.45L-1.45312 254.315L-1.08255 253.481C-0.86638 252.925 -0.495789 252.091 -0.0634392 251.041C0.36891 249.99 0.924785 248.724 1.57331 247.272C2.22183 245.82 2.93211 244.182 3.73505 242.421L6.42182 236.675C7.41005 234.667 8.46004 232.536 9.51004 230.497C10.56 228.458 11.8262 226.079 13.0615 223.793C14.2967 221.507 15.5629 219.221 16.9217 216.935C18.2805 214.649 19.5776 212.362 20.9673 210.138C22.357 207.914 23.6849 205.751 25.0746 203.681C26.4643 201.612 27.7614 199.604 29.0893 197.719C30.4172 195.835 31.6216 194.043 32.7951 192.436L35.8833 187.988L38.4157 184.62L40.0215 182.458L40.7936 181.624Z" fill="#02DBF3"/>
<path d="M45.552 182.211L45.1814 182.921C44.9343 183.416 44.5946 184.126 44.1932 185.022C43.7917 185.918 43.2667 187.03 42.7108 188.297C42.155 189.564 41.5682 190.985 40.9505 192.56C40.3329 194.136 39.6535 195.835 39.005 197.658C38.3564 199.48 37.6771 201.396 37.0594 203.373C36.4418 205.35 35.7624 207.42 35.1756 209.551C34.5888 211.683 33.9712 213.815 33.4153 215.977C32.8594 218.14 32.3653 220.271 31.9021 222.403C31.4389 224.535 31.0374 226.604 30.6668 228.582C30.2962 230.559 29.9565 232.567 29.6477 234.42C29.3389 236.274 29.1227 238.066 28.9065 239.672C28.6904 241.279 28.5359 242.761 28.4124 244.121C28.2889 245.48 28.1653 246.592 28.1036 247.55C28.0418 248.508 28.1036 249.28 27.9183 249.774C27.733 250.269 27.9183 250.547 27.9183 250.547C27.9183 250.547 27.9183 250.299 28.0727 249.774C28.2271 249.249 28.3506 248.538 28.5359 247.612C28.7212 246.685 28.9992 245.542 29.2771 244.244C29.555 242.947 29.8947 241.464 30.2344 239.858C30.5742 238.251 30.9756 236.49 31.408 234.637C31.8403 232.783 32.3036 230.868 32.7668 228.86C33.23 226.852 33.755 224.782 34.28 222.681C34.805 220.58 35.3609 218.449 35.9167 216.317C36.4726 214.185 37.0285 212.023 37.6153 209.922C38.202 207.821 38.7579 205.782 39.3447 203.743C39.9314 201.705 40.4564 199.82 40.9814 197.966C41.5064 196.113 42.0314 194.414 42.4947 192.838C42.9579 191.263 43.3902 189.749 43.7608 188.451C44.1314 187.154 44.4711 186.042 44.749 185.115C45.027 184.188 45.2123 183.447 45.3667 182.952C45.4151 182.702 45.4769 182.455 45.552 182.211Z" fill="#EB027E"/>
<path d="M23.9033 220.488L23.5328 221.136C23.2857 221.6 22.946 222.248 22.5445 223.083C22.1431 223.917 21.5872 224.936 21.0313 226.172C20.4754 227.408 19.8887 228.643 19.2402 230.126C18.5916 231.609 17.9431 233.216 17.2946 234.822C16.646 236.428 15.9358 238.313 15.2872 240.166C14.6387 242.02 13.9902 243.905 13.3726 245.882C12.7549 247.859 12.199 249.836 11.6431 251.844C11.0873 253.852 10.5932 255.829 10.1299 257.806C9.66671 259.784 9.26523 261.73 8.86376 263.614C8.46229 265.499 8.18433 267.322 7.87551 269.052C7.56669 270.782 7.31966 272.45 7.31966 273.871C7.31966 275.292 6.97997 276.775 6.85644 278.011C6.73291 279.246 6.64023 280.328 6.57847 281.1C6.5167 281.872 6.57851 282.675 6.4241 283.17C6.26969 283.664 6.4241 283.88 6.4241 283.88C6.40998 283.644 6.40998 283.406 6.4241 283.17C6.4241 282.706 6.67112 282.027 6.82553 281.162C6.97994 280.297 7.25788 279.246 7.50494 278.072C7.752 276.898 8.06082 275.508 8.36964 274.025C8.67846 272.542 9.07994 270.936 9.45053 269.206C9.82112 267.476 10.3152 265.715 10.7476 263.831C11.1799 261.946 11.7358 260.062 12.2299 258.115C12.724 256.169 13.2799 254.161 13.8358 252.153C14.3917 250.145 14.9476 248.199 15.5343 246.252C16.1211 244.306 16.7078 242.36 17.2946 240.506C17.8813 238.653 18.4372 236.83 18.9931 235.131C19.549 233.432 20.1049 231.825 20.599 230.342L21.9578 226.265C22.3593 225.06 22.7298 224.009 23.0386 223.175L23.6872 221.167L23.9033 220.488Z" fill="#0288C9"/>
<path d="M45.4596 221.167C45.4596 221.167 45.4595 221.538 45.2742 222.156C45.0889 222.773 44.9654 223.731 44.7801 224.936C44.4096 227.346 43.8536 230.744 43.2978 234.853C43.0507 236.922 42.7419 239.147 42.464 241.526C42.186 243.904 41.939 246.345 41.661 248.94C41.3831 251.535 41.1669 254.161 40.9507 256.879C40.7346 259.598 40.5493 262.317 40.364 265.066C40.1787 267.816 40.0552 270.565 39.9316 273.253C39.8081 275.941 39.7155 278.628 39.6228 281.192C39.4684 286.352 39.4375 291.171 39.4375 295.28C39.4375 299.388 39.4375 302.818 39.4375 305.196C39.4375 306.401 39.4375 307.359 39.4375 308.008C39.4375 308.656 39.4375 308.965 39.4375 308.965C39.4375 308.965 39.4375 308.625 39.4375 307.977C39.4375 307.328 39.4375 306.401 39.4375 305.227C39.4375 302.818 39.7154 299.388 39.8698 295.28C40.0243 291.171 40.3022 286.382 40.5802 281.254C40.5802 278.69 40.889 276.033 41.0434 273.315C41.1978 270.596 41.3831 267.877 41.5993 265.128C41.8155 262.378 41.9698 259.629 42.186 256.941C42.4022 254.254 42.5566 251.566 42.7728 249.002C42.9889 246.438 43.1742 243.935 43.3595 241.587C43.5448 239.239 43.7302 236.984 43.9154 234.914C44.286 230.806 44.5331 227.376 44.7492 224.967C44.7492 223.762 44.9037 222.804 44.9654 222.156C45.0272 221.507 45.4596 221.167 45.4596 221.167Z" fill="#0288C9"/>
<path d="M50.5547 178.195C50.5547 178.195 50.5547 178.504 50.5547 179.091C50.5547 179.678 50.5547 180.574 50.5547 181.686C50.5547 182.798 50.5547 184.157 50.5547 185.702C50.5547 187.247 50.5547 189.007 50.5547 190.923C50.5547 192.838 50.5547 194.877 50.8018 197.101C51.0488 199.326 50.987 201.581 51.1415 203.96C51.2959 206.338 51.3885 208.81 51.6047 211.312C51.8208 213.815 51.9753 216.317 52.1606 218.85L52.8091 226.419C53.0252 228.89 53.2723 231.362 53.4885 233.71C53.7047 236.058 53.9826 238.375 54.1988 240.568C54.4149 242.761 54.6929 244.77 54.9091 246.747C55.1253 248.724 55.3414 250.392 55.5267 251.937C55.712 253.481 55.8973 254.81 56.0517 255.922L56.4223 258.486C56.4223 259.073 56.4223 259.382 56.4223 259.382V258.455C56.4223 257.868 56.4223 257.003 56.4223 255.891C56.4223 254.779 56.4223 253.42 56.4223 251.875C56.4223 250.33 56.4223 248.569 56.237 246.685C56.0517 244.8 56.237 242.7 55.9899 240.506C55.7429 238.313 55.8046 236.027 55.6502 233.648C55.4958 231.269 55.4032 228.829 55.2488 226.326C55.0944 223.824 54.9091 221.291 54.7547 218.758L54.1988 211.189C54.0135 208.717 53.7664 206.277 53.5503 203.867C53.3341 201.457 53.1488 199.202 52.9326 197.04C52.7164 194.877 52.4694 192.807 52.2532 190.861C52.037 188.915 51.8209 187.216 51.6356 185.702C51.4503 184.188 51.2341 182.798 51.0797 181.717C50.9253 180.635 50.7708 179.739 50.6782 179.153C50.5855 178.566 50.5547 178.195 50.5547 178.195Z" fill="#02DBF3"/>
<path d="M57.625 193.147V193.487C57.625 193.703 57.625 194.043 57.625 194.444C57.625 194.846 57.625 196.483 57.9338 197.874C58.2427 199.264 58.3353 200.963 58.6441 202.693C58.7985 203.558 58.9838 204.454 59.1691 205.381C59.3544 206.307 59.5706 207.203 59.7868 208.13C60.003 209.057 60.1882 209.984 60.4353 210.88C60.6823 211.776 60.8985 212.671 61.1456 213.536C61.6088 215.266 62.1029 216.873 62.5662 218.232C63.0294 219.591 63.4309 220.735 63.7397 221.507C64.0485 222.279 64.0485 222.217 64.1103 222.434V222.743V222.403C64.1103 222.187 64.1103 221.847 64.1103 221.445C64.1103 221.043 64.1103 219.406 63.8941 218.016C63.6779 216.626 63.5544 214.927 63.2764 213.197C63.2764 212.301 62.9985 211.405 62.8132 210.478C62.6279 209.551 62.4426 208.655 62.2573 207.729L61.6088 204.948C61.3926 204.052 61.1456 203.156 60.8985 202.291C60.4044 200.561 59.8485 198.986 59.3853 197.626C58.9221 196.267 58.3971 195.124 58.0573 194.352L57.625 193.456V193.147Z" fill="#2E60A2"/>
<path d="M67.4141 244.275C67.4141 244.275 67.4141 244.43 67.4141 244.708C67.4141 244.986 67.4141 245.387 67.4141 245.943C67.4141 246.994 67.4141 248.508 67.4141 250.299C67.4141 252.091 67.5684 254.223 67.7229 256.478C67.7229 257.621 67.8773 258.764 68.0008 259.969C68.1243 261.174 68.217 262.348 68.3405 263.552C68.464 264.757 68.5876 265.931 68.742 267.105C68.8964 268.279 69.0199 269.453 69.1743 270.565C69.4831 272.82 69.792 274.89 70.1008 276.744C70.4096 278.597 70.6875 280.019 70.9037 281.069C70.9037 281.594 71.1199 281.996 71.1816 282.274C71.2434 282.552 71.1816 282.706 71.1816 282.706C71.1944 282.562 71.1944 282.418 71.1816 282.274C71.1816 281.996 71.1816 281.563 71.1816 281.038C71.1816 279.988 71.1816 278.474 71.1816 276.651C71.1816 274.828 71.1817 272.759 70.9655 270.473C70.9655 269.36 70.9655 268.186 70.7493 267.012C70.5331 265.839 70.5331 264.634 70.4405 263.429L70.0699 259.845C70.0699 258.671 69.7919 257.497 69.6375 256.385C69.3287 254.13 68.989 252.06 68.6802 250.207C68.3714 248.353 68.0008 246.932 67.7538 245.882C67.7538 245.356 67.5376 244.955 67.4758 244.677L67.4141 244.275Z" fill="#2E60A2"/>
<path d="M65.7188 200.345L66.0585 201.056C66.2746 201.519 66.6143 202.199 67.0467 203.033C67.9114 204.763 69.0849 207.234 70.5055 210.2C71.2158 211.683 71.9878 213.289 72.7907 215.019C73.5937 216.749 74.3966 218.51 75.2613 220.395C76.126 222.279 76.9599 224.195 77.7937 226.172C78.6275 228.149 79.523 230.157 80.326 232.165C81.1289 234.173 81.9936 236.181 82.7966 238.344C83.5995 240.506 84.3407 242.298 85.0509 244.183C86.5024 247.982 87.7994 251.535 88.8494 254.594C89.8994 257.652 90.795 260.216 91.3818 261.977C91.6597 262.904 91.9068 263.583 92.0612 264.078L92.3083 264.788L92.123 264.047C92.123 263.553 91.8141 262.842 91.5671 261.946C91.073 260.123 90.4245 257.528 89.4671 254.439C88.5098 251.35 87.398 247.735 86.0392 243.905C85.3598 241.989 84.6495 240.012 83.8774 238.004C83.1054 235.996 82.3333 233.988 81.4995 231.825C80.6657 229.663 79.801 227.809 78.9363 225.832C78.0716 223.855 77.176 221.94 76.3113 220.086C75.4466 218.232 74.551 216.441 73.6863 214.741C72.8216 213.042 71.9878 211.467 71.2158 209.984C69.6717 207.08 68.1275 204.67 67.2937 203.002C66.7996 202.137 66.3981 201.488 66.1202 201.056C66.0007 200.811 65.8667 200.574 65.7188 200.345Z" fill="#EB027E"/>
<path d="M77.207 243.07C77.207 243.07 77.207 243.256 77.207 243.626C77.207 243.997 77.3614 244.522 77.5158 245.202C77.7938 246.561 78.2261 248.477 78.7511 250.794C79.2761 253.111 79.9247 255.767 80.6349 258.64C81.0055 260.092 81.3761 261.73 81.7776 263.058C82.179 264.387 82.5187 266.147 82.9202 267.63C83.3217 269.113 83.6923 270.72 84.0629 272.172C84.4335 273.624 84.8349 275.261 85.2055 276.589C85.9467 279.432 86.6261 282.088 87.2437 284.374C87.8614 286.661 88.3555 288.545 88.726 289.843C88.726 290.522 89.0349 291.047 89.1275 291.387C89.1962 291.567 89.2479 291.753 89.2819 291.943C89.2819 291.943 89.2819 291.727 89.2819 291.356C89.2819 290.986 89.2819 290.46 89.2819 289.781C89.1275 288.421 88.9113 286.475 88.5716 284.127C88.2319 281.779 87.7687 279.092 87.2128 276.188C86.9246 274.746 86.6158 273.263 86.2864 271.739C85.9467 270.225 85.6069 268.65 85.2364 267.167C84.8658 265.684 84.4643 264.078 84.0629 262.595C83.6614 261.112 83.229 259.505 82.7967 258.208C81.932 255.366 81.0673 252.74 80.2643 250.485C79.4614 248.229 78.6894 246.376 78.1644 245.078L77.5158 243.596L77.207 243.07Z" fill="#0288C9"/>
<path d="M67.0156 183.076L67.7259 183.756L69.7333 185.702L72.8215 188.791L76.8053 192.776L81.4376 197.503C83.0434 199.202 84.7111 201.025 86.4405 202.94C88.1699 204.856 89.8684 206.833 91.6287 208.841C93.389 210.849 95.0875 212.98 96.786 215.019C98.4845 217.058 100.152 219.252 101.758 221.383C103.364 223.515 104.846 225.585 106.39 227.562C107.934 229.539 109.262 231.609 110.559 233.524C111.856 235.44 113.061 237.232 114.142 238.9L117.076 243.503C117.94 244.893 118.712 246.098 119.299 247.087C119.886 248.075 120.411 248.847 120.72 249.403L121.214 250.207L120.843 249.342C120.596 248.786 120.226 247.952 119.701 246.901C119.176 245.851 118.62 244.615 117.878 243.163C117.137 241.711 116.273 240.074 115.315 238.375C114.358 236.676 113.277 234.729 112.073 232.783C110.868 230.837 109.602 228.736 108.181 226.604C106.761 224.473 105.34 222.341 103.765 220.179C102.19 218.016 100.677 215.854 98.8551 213.722C97.033 211.59 95.3963 209.49 93.636 207.543C91.8757 205.597 90.0228 203.527 88.2625 201.643C86.5023 199.758 84.6802 197.997 82.9817 196.329C81.2832 194.661 79.5846 193.24 78.0097 191.757C76.4347 190.274 74.9214 189.131 73.6553 188.05L70.1656 185.269L67.8803 183.539L67.0156 183.076Z" fill="#02DBF3"/>
<path d="M80.6328 178.349L81.4049 178.751L83.5975 179.894L87.0254 181.686L91.4416 184.033L96.5989 186.907L102.312 190.243C104.288 191.417 106.265 192.684 108.488 193.981C110.712 195.279 112.565 196.607 114.665 197.997C116.765 199.387 118.71 200.778 120.687 202.168C122.663 203.558 124.609 204.979 126.462 206.4L131.774 210.478L136.468 214.216L140.112 217.491C141.254 218.479 142.304 219.313 143.2 220.055L145.115 221.692L145.794 222.279L145.207 221.63C144.837 221.167 144.25 220.549 143.509 219.746L140.791 216.904C139.71 215.853 138.506 214.618 137.147 213.351C135.788 212.084 134.306 210.694 132.7 209.273C131.094 207.852 129.396 206.4 127.574 204.948C125.752 203.496 123.899 201.859 121.922 200.53C119.946 199.202 117.938 197.657 115.746 196.236C113.553 194.815 111.608 193.518 109.569 192.251C107.531 190.984 105.4 189.749 103.393 188.606C101.386 187.463 99.3782 186.443 97.4636 185.516C95.5489 184.59 93.7268 183.694 92.0592 182.921C90.3916 182.149 88.7857 181.5 87.396 180.913C86.0063 180.326 84.7401 179.863 83.721 179.492L81.3431 178.627L80.6328 178.349Z" fill="#2E60A2"/>
<path d="M137.025 233.926C137.025 233.926 134.864 230.837 131.281 226.666L128.348 223.268C127.267 222.094 126.155 220.827 124.95 219.561C123.746 218.294 122.511 216.996 121.183 215.73C119.855 214.463 118.558 213.135 117.199 211.868C115.84 210.602 114.451 209.335 113.061 208.13C111.671 206.925 110.281 205.751 108.954 204.639C106.236 202.384 103.642 200.407 101.357 198.739C96.8169 195.433 93.5742 193.487 93.5742 193.487C93.5742 193.487 96.6624 195.711 100.862 199.202C103.024 200.963 105.557 203.033 108.181 205.381C109.509 206.493 110.868 207.698 112.227 208.902C113.586 210.107 114.976 211.374 116.334 212.641C117.693 213.907 119.052 215.174 120.349 216.471C121.646 217.769 122.943 219.005 124.148 220.24L127.668 223.824C128.78 224.998 129.83 226.079 130.756 227.099C134.647 231.115 137.025 233.926 137.025 233.926Z" fill="#EB027E"/>
<path d="M163.983 200.283L162.902 199.635C162.192 199.202 161.173 198.553 159.814 197.781C157.158 196.267 153.39 194.105 148.758 191.788C146.473 190.645 143.971 189.44 141.315 188.266C138.659 187.092 135.818 185.887 132.885 184.744C129.951 183.601 126.924 182.489 123.836 181.47C120.748 180.45 117.66 179.492 114.417 178.627C111.174 177.762 108.086 177.021 104.967 176.341C101.848 175.662 98.7906 175.136 95.7024 174.642C89.7422 173.715 84.1525 173.159 79.3967 172.881C74.6408 172.603 70.6879 172.634 67.9085 172.634C70.6879 172.634 74.6408 172.912 79.3967 173.314C84.1525 173.715 89.7113 174.395 95.6407 175.414C98.7289 175.909 101.817 176.557 104.905 177.206C107.994 177.855 111.082 178.658 114.17 179.523C117.258 180.388 120.346 181.315 123.435 182.304C126.523 183.292 129.611 184.373 132.483 185.393C135.355 186.412 138.227 187.617 140.883 188.729C143.539 189.842 146.071 190.985 148.387 192.097C153.02 194.259 156.849 196.206 159.536 197.658L162.624 199.326L163.983 200.283Z" fill="#2E60A2"/>
<path d="M171.15 180.419C170.833 180.294 170.524 180.149 170.224 179.987L167.537 178.813C166.395 178.318 165.036 177.7 163.43 177.083C161.824 176.465 160.064 175.754 158.087 175.075C156.111 174.395 154.011 173.653 151.911 172.943C149.811 172.232 147.309 171.553 144.87 170.935C142.43 170.317 139.929 169.668 137.365 169.143C134.802 168.618 132.239 168.154 129.645 167.722C127.051 167.289 124.519 166.95 121.986 166.702C119.454 166.455 117.014 166.239 114.636 166.085C112.258 165.93 109.973 165.868 107.811 165.837C105.649 165.807 103.611 165.837 101.635 165.837C99.6584 165.837 98.0525 165.837 96.5702 166.116C95.0878 166.394 93.7599 166.332 92.679 166.455L90.2084 166.733H89.3438H92.8334H96.7864L101.975 166.95C103.858 166.95 105.927 167.135 108.151 167.289C110.374 167.444 112.66 167.66 115.007 167.876C117.354 168.093 119.855 168.402 122.388 168.711L130.015 169.823C132.548 170.224 135.111 170.688 137.643 171.213C140.176 171.738 142.646 172.201 145.086 172.758L152.034 174.457L158.211 176.156L163.492 177.7L167.568 178.967L170.224 179.801L171.15 180.419Z" fill="#02DBF3"/>
<path d="M165.928 158.578L164.817 158.33L161.728 157.713C158.98 157.187 155.027 156.508 150.395 155.952C148.048 155.674 145.546 155.427 142.921 155.21C140.296 154.994 137.517 154.87 134.676 154.778C131.835 154.685 128.901 154.778 125.967 154.778C123.033 154.778 120.068 154.994 117.135 155.179C114.201 155.365 111.298 155.705 108.457 156.075C105.616 156.446 102.836 156.848 100.211 157.311C94.8996 158.269 90.0511 159.412 85.9746 160.4C81.8982 161.389 78.5938 162.625 76.2776 163.49C75.1041 163.86 74.2394 164.2 73.6218 164.416L72.6953 164.787L73.6527 164.478L76.4012 163.675C78.7791 162.995 82.207 162.099 86.3761 161.111C90.5452 160.122 95.4245 159.134 100.767 158.3C103.423 157.867 106.233 157.496 109.074 157.157C111.916 156.817 114.819 156.539 117.752 156.353C120.686 156.168 123.62 155.983 126.554 155.921C129.488 155.859 132.36 155.921 135.17 155.921C137.98 155.921 140.698 155.921 143.323 156.199C145.948 156.477 148.387 156.508 150.704 156.724C155.274 157.157 159.103 157.62 161.821 157.991L164.909 158.454L165.928 158.578Z" fill="#EB027E"/>
<path d="M151.601 134.728H149.377C148.049 134.728 146.289 134.728 144.004 135.13C141.719 135.531 139.341 135.717 136.747 136.211L132.794 137.045C131.455 137.354 130.127 137.694 128.81 138.064C127.513 138.435 126.216 138.806 124.95 139.238C123.683 139.671 122.479 140.073 121.306 140.505C118.989 141.37 116.889 142.266 115.129 143.069C113.369 143.872 112.041 144.676 111.022 145.201L109.941 145.85L109.57 146.097H110.064C110.534 146.01 110.998 145.897 111.454 145.757C112.689 145.479 114.388 145.046 116.395 144.521L123.251 142.668C124.486 142.359 125.783 142.019 127.05 141.648L130.972 140.598L134.894 139.547L138.661 138.528L145.239 136.736L149.81 135.377L151.076 134.975L151.601 134.728Z" fill="#0288C9"/>
<path d="M116.087 128.179L115.345 128.395L113.245 128.982C111.454 129.507 108.953 130.31 106.019 131.392C103.085 132.473 99.8425 133.801 96.3529 135.377C94.6441 136.159 92.9146 136.994 91.1646 137.879C89.4352 138.744 87.7059 139.671 86.0073 140.629C84.3088 141.586 82.6103 142.575 81.0044 143.718C79.3986 144.861 77.9162 145.726 76.3721 146.807C73.2839 148.784 70.7825 150.731 68.5898 152.461C66.3972 154.191 64.6987 155.55 63.5252 156.724C62.9075 157.249 62.4752 157.682 62.1663 157.991L61.7031 158.423L62.2899 158.052L63.9575 157.002L69.9178 153.233C72.3883 151.688 75.2913 149.927 78.4104 148.074L83.2588 145.232C84.9265 144.305 86.5941 143.347 88.3235 142.42C90.0529 141.494 91.7206 140.567 93.4191 139.671L98.422 137.076C101.665 135.408 104.598 133.987 107.347 132.627L113.709 129.538L115.469 128.673L116.087 128.179Z" fill="#02DBF3"/>
<path d="M130.262 104.638L129.305 105.04L126.557 106.152C124.24 107.141 120.936 108.562 117.107 110.446C115.192 111.404 113.154 112.454 110.93 113.535C108.707 114.617 106.607 115.945 104.352 117.273C102.098 118.602 99.8126 120.054 97.5274 121.537C95.2421 123.02 92.9877 124.626 90.7333 126.232C88.4789 127.839 86.3171 129.322 84.2171 131.144C82.1172 132.967 80.0789 134.481 78.0407 136.118C74.1804 139.424 70.7525 142.637 67.9114 145.386C65.0702 148.136 62.8159 150.669 61.2409 152.368L59.4497 154.407L58.832 155.118L59.5424 154.438C59.9747 153.975 60.685 153.326 61.5188 152.492C63.1864 150.854 65.6879 148.537 68.6834 145.788C71.679 143.038 75.3231 139.949 79.276 136.736C81.2525 135.13 83.3525 133.647 85.4524 131.855C87.5524 130.063 89.7759 128.58 92.0303 127.005C94.2847 125.429 96.5082 123.916 98.7626 122.34C101.017 120.764 103.271 119.251 105.464 118.046C107.657 116.841 109.818 115.389 111.888 114.184C113.957 112.979 115.902 111.867 117.755 110.879C121.399 108.871 124.487 107.264 126.68 106.183L129.182 104.916L130.262 104.638Z" fill="#EB027E"/>
<path d="M99.2237 103.835H98.884C98.6678 103.835 98.3282 104.113 97.9576 104.36C96.8943 104.942 95.8634 105.582 94.8694 106.276C93.5109 107.184 92.2017 108.163 90.9473 109.21L88.9091 111.002L86.9018 112.887C86.2841 113.535 85.6356 114.184 85.0488 114.833C84.4621 115.482 83.8753 116.13 83.3503 116.779C82.3909 117.924 81.494 119.121 80.6636 120.363C80.0716 121.23 79.5253 122.127 79.0268 123.05C78.8896 123.301 78.7659 123.559 78.6562 123.823V124.101L78.996 123.885C79.2847 123.705 79.563 123.509 79.8297 123.298C80.54 122.803 81.5283 122.062 82.64 121.166C83.7518 120.27 85.0488 119.22 86.3459 118.077L88.3223 116.285L90.2988 114.4L92.2135 112.516L93.9738 110.631C95.1164 109.396 96.1046 108.253 97.062 107.202C98.0193 106.152 98.5134 105.318 98.9149 104.7C99.3164 104.082 99.2546 104.144 99.3781 103.959L99.2237 103.835Z" fill="#0288C9"/>
<path d="M79.9219 206.431L80.1072 206.833C80.1072 207.111 80.3851 207.512 80.6322 207.976C81.0645 208.964 81.7131 210.355 82.5469 212.023C83.3807 213.691 84.338 215.576 85.4189 217.645C85.9748 218.665 86.4998 219.715 87.0865 220.735L88.8159 223.824C89.4027 224.905 89.9586 225.987 90.5453 226.913L92.2439 230.003L95.3321 235.533C96.2276 237.139 96.9997 238.467 97.5556 239.394C98.1115 240.321 98.0497 240.228 98.2041 240.475L98.4511 240.877C98.4589 240.733 98.4589 240.589 98.4511 240.444C98.4511 240.166 98.2659 239.765 98.1114 239.271C97.8026 238.251 97.3394 236.799 96.6909 235.1C96.0424 233.401 95.2703 231.393 94.313 229.292C93.8806 228.242 93.3556 227.16 92.8306 226.203C92.3056 225.245 91.7497 224.009 91.163 222.897L89.4027 219.808C88.7851 218.758 88.1674 217.707 87.5498 216.719C86.3145 214.711 85.1101 212.888 83.9983 211.343C82.8866 209.799 81.9292 208.532 81.2189 207.667C80.5086 206.802 80.5704 206.895 80.3542 206.678L79.9219 206.431Z" fill="#0288C9"/>
<path d="M10.4062 80.0781C10.4062 80.0781 36.5016 110.724 41.0104 147.703C40.8869 147.703 40.084 101.796 10.4062 80.0781Z" fill="#02DBF3"/>
<path d="M97.1564 48.598C84.3149 58.3767 73.7195 70.7971 66.0853 85.0211C58.4511 99.2451 53.9556 114.942 52.9023 131.052C52.9023 131.052 52.9641 71.6443 97.1564 48.598Z" fill="#0288C9"/>
<path d="M107.16 211.806C107.16 211.806 135.757 236.305 140.451 269.237C140.451 269.36 125.195 226.481 107.16 211.806Z" fill="#0288C9"/>
<path d="M133.719 198.306C133.719 198.306 167.689 214.834 174.854 252.215C174.854 252.276 163.736 217.614 133.719 198.306Z" fill="#02DBF3"/>
<path d="M-12.23 82.7967L-12.7859 76.9888L-13.7123 82.9511L-16.3373 77.8229L-14.7932 84.2178C-14.7932 84.2178 -19.7035 81.4992 -20.1358 81.1284C-20.5682 80.7577 -15.4726 87.0908 -15.4726 87.0908L-23.9961 85.5153L-16.0903 89.2224L-23.4093 91.5085L-15.7814 90.798L-18.8697 95.5246L-15.0712 92.4353L-18.3138 101.333L-12.7859 93.7946L-12.4153 97.5945L-11.2109 93.2694L-7.31977 103.063L-9.1418 93.2694L-5.71389 96.6677L-9.17267 91.4776L0.431671 95.8336L-9.38887 90.4582L3.6743 90.7362L-8.67854 89.2842L-1.39041 86.8128L-7.35064 87.9558L-5.80653 84.2487L-9.60502 87.1217L-6.14623 75.7839L-11.2109 85.6697L-10.8403 81.3138L-12.23 82.7967Z" fill="#2471BA"/>
<path d="M-0.893692 248.477L-1.41868 242.638L-2.37602 248.6L-5.00102 243.596L-3.45691 249.99C-3.45691 249.99 -8.36717 247.303 -8.76864 246.901C-9.17011 246.5 -4.13632 252.555 -4.13632 252.555L-12.6289 250.979L-4.75396 254.686L-12.0421 256.972L-4.44512 256.262L-7.53333 261.019L-3.70398 257.93L-6.97747 266.858L-1.41868 259.32L-1.07898 263.089L0.0327806 258.949L3.89305 268.712L2.13279 258.98L5.56066 262.348L2.07101 257.189L11.7062 261.514L1.85481 256.138L14.918 256.447L2.56514 254.995L9.85332 252.493L3.86218 253.667L5.43715 249.929L1.63866 252.802L5.09745 241.495L0.0636463 251.288L0.434263 246.932L-0.893692 248.477Z" fill="#7DE8F2"/>
<path d="M128.811 100.066L128.44 96.3589L127.823 100.282L126.093 96.9768L127.112 101.178C127.112 101.178 124.024 99.4173 123.623 99.1702C123.221 98.923 126.711 102.908 126.711 102.908L121.121 101.858L126.278 104.298L121.584 105.627L126.587 105.133L124.611 108.222L127.112 106.214L124.981 112.083L128.625 107.11L128.872 109.612L129.583 106.863L132.146 113.288L130.849 106.986L133.103 109.21L130.818 105.812L136.994 108.654L130.54 105.133L139.125 105.318L131.034 104.36L135.821 102.723L131.899 103.495L132.918 101.055L130.417 102.939L132.702 95.4939L129.367 101.92L129.614 99.0775L128.811 100.066Z" fill="#E96AB0"/>
<path d="M91.999 262.657L91.6902 259.382L91.1652 262.718L89.7137 259.938L90.5785 263.491C90.5785 263.491 87.83 262.008 87.4902 261.792C87.1505 261.575 90.0843 264.881 90.0843 264.881L85.3594 263.985L89.7446 266.055L85.6682 267.352L89.9299 266.92L88.2623 269.577L90.3931 267.878L88.5711 272.851L91.6593 268.65L91.8446 270.751L92.4623 268.434L94.6549 273.902L93.6667 268.434L95.5813 270.349L93.6358 267.445L99.0093 269.886L93.5123 266.796L100.8 266.982L93.9137 266.148L97.9901 264.757L94.624 265.406L95.5196 263.336L93.3887 264.943L95.3343 258.61L92.524 264.078L92.7093 261.637L91.999 262.657Z" fill="#E96AB0"/>
<path d="M46.9405 172.881C46.9405 172.881 44.192 153.82 9.48047 145.448C17.9327 144.981 26.2853 147.46 33.1157 152.462C39.9461 157.464 44.8317 164.68 46.9405 172.881Z" fill="#02DBF3"/>
<path d="M47.8662 115.204C47.8662 115.204 49.2867 74.6409 60.219 64.6006C60.219 64.6006 42.0912 76.2473 47.8662 115.204Z" fill="#02DBF3"/>
<path d="M34.8041 167.011C34.8041 167.011 3.18081 137.601 -32.7969 142.297C-32.8277 142.359 0.339661 141.71 34.8041 167.011Z" fill="#EB027E"/>
<path d="M63.2773 168.371C63.2773 168.371 75.6302 154.469 101.17 148.939C101.17 148.877 75.8772 148.445 63.2773 168.371Z" fill="#02DBF3"/>
<path d="M67.2287 138.095C59.6962 145.115 55.2538 154.836 54.8758 165.127C54.8758 165.127 53.8876 141.216 67.2287 138.095Z" fill="#02DBF3"/>
<path d="M94.8682 43.1917L94.2814 36.7041L93.2314 43.3462L90.3285 37.7854L92.027 44.8599C92.027 44.8599 86.5918 41.7706 86.0976 41.4617C85.6035 41.1528 91.2859 47.6403 91.2859 47.6403L81.8359 45.8794L90.6991 50.0191L82.5771 52.5523L91.0697 51.7491L87.6109 57.1554L91.8417 53.7263L88.2285 63.643L94.4049 55.2709L94.8064 59.4724L96.0108 54.8384L100.334 65.7128L98.3578 54.8693L102.156 58.6383L98.2961 52.8922L108.981 57.7115L98.0799 51.7182L112.564 52.058L98.8828 50.4516L106.974 47.7021L100.334 48.9996L102.064 44.829L97.8329 47.9184L101.693 35.3448L96.1035 46.2501L96.5049 41.4308L94.8682 43.1917Z" fill="#2471BA"/>
<path d="M40.9502 11.4954L41.1355 12.2059C41.3002 12.6796 41.4856 13.3592 41.6914 14.2448C42.1547 16.0058 42.8341 18.5081 43.5135 21.5356C43.8532 23.0494 44.2238 24.6249 44.5944 26.4476C44.9649 28.2703 45.3664 30.0004 45.737 31.9157C46.1076 33.8311 46.4781 35.7774 46.8178 37.7854C47.1575 39.7935 47.5281 41.8015 47.8369 43.9641C48.1458 46.1266 48.4855 48.0419 48.7634 50.1427C49.0414 52.2434 49.2884 54.1279 49.5355 56.0433C50.0296 59.874 50.4002 63.4576 50.6781 66.516C50.956 69.5745 51.1414 72.1695 51.2958 73.9613C51.2958 74.8572 51.2958 75.5677 51.2958 76.0311C51.2958 76.4945 51.2958 76.7726 51.2958 76.7726C51.2826 76.5256 51.2826 76.2781 51.2958 76.0311L51.0178 73.9613C50.8016 72.2004 50.4311 69.6671 49.9987 66.6087C49.5664 63.5503 49.0414 59.9976 48.4546 56.1668C48.1767 54.2824 47.8678 52.3052 47.559 50.2971C47.2502 48.2891 46.9105 46.2501 46.5708 44.1185C46.2311 41.9869 45.9223 40.0406 45.5517 37.9399C45.1811 35.8392 44.9032 33.9856 44.5635 32.0702C44.2237 30.1548 43.8841 28.3321 43.5752 26.5712C43.2664 24.8103 42.9885 23.173 42.7106 21.6592C42.1547 18.5699 41.7223 16.0676 41.3826 14.2757C41.1973 13.3798 41.1047 12.7002 41.012 12.2059C40.9194 11.7116 40.9502 11.4954 40.9502 11.4954Z" fill="#74A32D"/>
<path d="M18.8068 30.0621C18.7949 30.1957 18.7949 30.3301 18.8068 30.4637C18.8068 30.7418 18.8068 31.1743 18.8068 31.6686C18.8068 32.7189 18.498 34.1709 18.2818 35.9318C18.0657 37.6927 17.7568 39.7317 17.4171 41.9251C17.2627 43.0373 17.0774 44.1803 16.8921 45.3233C16.7069 46.4664 16.5524 47.6403 16.3671 48.7834L15.8113 52.2743C15.8113 53.4173 15.4716 54.5295 15.2863 55.6416C14.9466 57.8042 14.6069 59.8431 14.3289 61.5731C14.051 63.3032 13.8039 64.6624 13.6186 65.7746C13.6186 66.2998 13.4642 66.6705 13.4025 66.9485C13.3407 67.2266 13.4025 67.381 13.4025 67.381C13.3897 67.2372 13.3897 67.0924 13.4025 66.9485C13.4025 66.6705 13.4025 66.2689 13.4025 65.7437C13.4025 64.7242 13.4025 63.2414 13.4025 61.4804C13.4025 59.7195 13.6186 57.6806 13.8348 55.3018C13.8348 54.2206 14.0818 53.0775 14.2054 51.9345L14.6686 48.4436L15.2245 44.9526C15.4407 43.8096 15.626 42.6665 15.873 41.5853C16.3054 39.4228 16.7686 37.3838 17.2009 35.6538C17.6333 33.9238 18.0657 32.5645 18.3745 31.4832C18.3745 30.958 18.6833 30.5873 18.745 30.3093C18.7626 30.2262 18.7832 30.1437 18.8068 30.0621Z" fill="#74A32D"/>
<path d="M102.065 54.8076V52.0272L102.775 54.8076L103.795 52.3053L103.331 55.3946C103.331 55.3946 105.555 53.8808 105.74 53.6954C105.925 53.5101 103.795 56.5994 103.795 56.5994L107.747 55.4563L104.165 57.588L107.747 58.3294H104.103L105.74 60.461L103.795 59.1635L105.74 63.2723L102.652 59.9359V61.7586L101.942 59.8123L100.521 64.6316L100.923 59.9359L99.4402 61.6968L100.861 59.0709L96.5064 61.5732L100.923 58.4839L94.7461 59.2253L100.552 57.9587L96.9696 57.1246L99.8725 57.4026L98.9769 55.7035L100.892 56.8774L98.7299 51.6565L101.571 56.0742L101.2 54.0353L102.065 54.8076Z" fill="#69C6EA"/>
</g>
</svg>
