<svg width="28" height="28" viewBox="0 0 28 28" fill="none" xmlns="http://www.w3.org/2000/svg">
<g clip-path="url(#clip0_1180_1283)">
<path fill-rule="evenodd" clip-rule="evenodd" d="M19.748 6.1434C22.089 6.68661 22.9844 8.05544 24.1071 9.93945H19.748V6.1434ZM6.0676 10.0977C6.52593 10.0977 6.85861 10.3189 6.85861 10.8359C6.85861 11.272 6.50574 11.6257 6.06986 11.627H1.29102C0.854103 11.627 0.5 11.9813 0.5 12.418C0.5 12.8549 0.854103 13.209 1.29102 13.209H8.41016C8.85119 13.209 9.20426 13.5629 9.20426 14C9.20426 14.4369 8.85016 14.791 8.41325 14.791H1.29102C0.854103 14.791 0.5 15.1451 0.5 15.582C0.5 16.0189 0.854103 16.373 1.29102 16.373H3.03125V18.7461C3.03125 19.183 3.38535 19.5371 3.82227 19.5371H5.41233C5.69578 20.9333 6.92947 21.9629 8.38379 21.9629C9.8381 21.9629 11.0718 20.9333 11.3552 19.5371H19.3869C19.6704 20.9333 20.9041 21.9629 22.3584 21.9629C23.8127 21.9629 25.0464 20.9333 25.3299 19.5371H26.709C27.1459 19.5371 27.5 19.183 27.5 18.7461V14C27.5 11.6791 25.052 11.525 25.0497 11.5215H18.957C18.5201 11.5215 18.166 11.1674 18.166 10.7305V5.98438H3.82227C3.38535 5.98438 3.03125 6.33848 3.03125 6.77539V8.51562H2.08203C1.64512 8.51562 1.29102 8.86973 1.29102 9.30664C1.29102 9.74355 1.64512 10.0977 2.08203 10.0977H6.0676ZM23.3838 17.9052C23.9501 18.4715 23.9501 19.39 23.3838 19.9563C22.4729 20.8672 20.9082 20.2192 20.9082 18.9307C20.9082 17.6424 22.4729 16.9943 23.3838 17.9052ZM9.40923 17.9052C9.9755 18.4715 9.9755 19.39 9.40923 19.9563C8.49832 20.8672 6.93359 20.2192 6.93359 18.9307C6.93359 17.6424 8.49832 16.9943 9.40923 17.9052Z" fill="white"/>
</g>
<defs>
<clipPath id="clip0_1180_1283">
<rect width="27" height="27" fill="white" transform="translate(0.5 0.5)"/>
</clipPath>
</defs>
</svg>
