<svg width="61" height="61" viewBox="0 0 61 61" fill="none" xmlns="http://www.w3.org/2000/svg">
<g clip-path="url(#clip0_1180_884)">
<path fill-rule="evenodd" clip-rule="evenodd" d="M43.4863 12.7499C48.7751 13.9771 50.7981 17.0697 53.3345 21.3262H43.4863V12.7499ZM12.5786 21.6836C13.6141 21.6836 14.3658 22.1834 14.3658 23.3516C14.3658 24.3368 13.5685 25.1359 12.5838 25.1387H1.78711C0.800011 25.1387 0 25.9391 0 26.9258C0 27.9129 0.800011 28.7129 1.78711 28.7129H17.8711C18.8675 28.7129 19.6652 29.5124 19.6652 30.5C19.6652 31.4871 18.8652 32.2871 17.8781 32.2871H1.78711C0.800011 32.2871 0 33.0871 0 34.0742C0 35.0613 0.800011 35.8613 1.78711 35.8613H5.71875V41.2227C5.71875 42.2098 6.51876 43.0098 7.50586 43.0098H11.0982C11.7386 46.1642 14.5258 48.4902 17.8115 48.4902C21.0972 48.4902 23.8844 46.1642 24.5248 43.0098H42.6705C43.3109 46.1642 46.0981 48.4902 49.3838 48.4902C52.6695 48.4902 55.4567 46.1642 56.0971 43.0098H59.2129C60.2 43.0098 61 42.2098 61 41.2227V30.5C61 25.2564 55.4693 24.9083 55.4641 24.9004H41.6992C40.7121 24.9004 39.9121 24.1004 39.9121 23.1133V12.3906H7.50586C6.51876 12.3906 5.71875 13.1906 5.71875 14.1777V18.1094H3.57422C2.58712 18.1094 1.78711 18.9094 1.78711 19.8965C1.78711 20.8836 2.58712 21.6836 3.57422 21.6836H12.5786ZM51.7005 39.3229C52.9799 40.6023 52.9799 42.6775 51.7005 43.9568C49.6425 46.0148 46.1074 44.5507 46.1074 41.6396C46.1074 38.7291 49.6425 37.265 51.7005 39.3229ZM20.1283 39.3229C21.4076 40.6023 21.4076 42.6775 20.1283 43.9568C18.0703 46.0148 14.5352 44.5507 14.5352 41.6396C14.5352 38.7291 18.0703 37.265 20.1283 39.3229Z" fill="#14D15D"/>
</g>
<defs>
<clipPath id="clip0_1180_884">
<rect width="61" height="61" fill="white"/>
</clipPath>
</defs>
</svg>
