<svg width="288" height="281" viewBox="0 0 288 281" fill="none" xmlns="http://www.w3.org/2000/svg">
<g opacity="0.8" clip-path="url(#clip0_398_1489)">
<path d="M19.6251 172.222C19.174 170.548 17.9268 168.898 17.1449 167.081C16.3629 165.265 16.1816 162.97 15.8655 160.986C15.6097 159.767 13.6872 159.67 13.9431 160.889C13.915 164.57 13.798 171.166 17.6281 173.201C18.8151 174.085 19.881 173.441 19.6251 172.222Z" fill="#D5ADE1"/>
<path d="M38.9941 197.258C37.5512 195.154 35.3731 193.838 33.33 192.212C31.0915 190.131 28.853 188.05 27.5454 185.635C27.0193 185.038 26.0884 185.372 26.149 186.136C27.9684 190.989 31.9658 197.158 37.1179 199.767C38.5749 200.03 39.7151 198.311 38.9941 197.258Z" fill="#D5ADE1"/>
<path d="M65.0162 193.427C62.6887 194.262 60.5571 195.551 58.0344 195.932C55.5115 196.313 53.3939 195.762 50.946 195.067C49.489 194.803 49.6098 196.333 50.4659 197.075C55.8137 200.137 62.181 199.95 66.5192 196.296C67.5245 194.887 66.5473 192.615 65.0162 193.427Z" fill="#D5ADE1"/>
<path d="M78.209 176.633C78.0133 176.179 77.3524 175.892 76.5567 175.915C74.6947 176.583 74.3503 178.279 73.8101 179.522C72.8653 181.696 71.7248 183.417 69.9234 184.849C69.0527 185.949 70.4351 187.288 71.501 186.643C73.3024 185.21 74.7733 183.634 75.9138 181.913C77.5802 180.791 79.3209 178.594 78.209 176.633Z" fill="#D5ADE1"/>
<path d="M74.9146 165.23C73.3369 163.437 72.3598 161.165 71.2476 159.205C70.2706 156.933 69.6239 154.805 68.181 152.702C67.1295 151.506 65.2673 152.175 65.3883 153.704C65.9001 156.142 67.2077 158.557 68.5151 160.972C69.6275 162.932 71.0701 165.037 72.648 166.83C74.0296 168.169 76.1618 166.88 74.9146 165.23Z" fill="#D5ADE1"/>
<path d="M56.4344 145.38C54.1213 144.375 52.0039 143.824 49.6162 143.894C47.5589 144.107 44.4358 144.966 43.6253 146.831C43.2203 147.763 44.137 149.269 45.3986 149.078C47.1254 148.721 48.657 147.908 50.0533 147.407C51.7801 147.05 53.7021 147.147 55.0239 147.722C57.0065 148.584 58.2817 146.552 56.4344 145.38Z" fill="#D5ADE1"/>
<path d="M46.7137 167.746C46.202 165.307 47.2821 162.822 48.753 161.246C49.4885 160.458 48.1065 159.118 47.371 159.906C45.2996 161.96 43.6937 163.847 43.2745 166.62C42.9906 169.081 43.2925 172.906 45.3354 174.533C46.1919 175.274 47.5883 174.773 47.6628 173.697C48.1422 171.69 47.0302 169.729 46.7137 167.746Z" fill="#D5ADE1"/>
<path d="M64.5193 189.148C63.4674 187.953 61.6801 187.545 60.2982 186.206C58.5853 184.723 57.4733 182.762 56.3609 180.802C55.7746 179.439 53.913 180.107 54.4994 181.469C55.7324 184.96 58.7987 191.463 63.3038 191.945C64.8953 191.897 65.7053 190.034 64.5193 189.148Z" fill="#D5ADE1"/>
<path d="M98.4155 196.125C93.0396 196.743 87.6636 197.361 82.3626 196.903C80.7706 196.951 80.2912 198.957 82.0782 199.365C87.9055 200.42 94.2585 202.074 99.5881 198.85C100.985 198.35 100.008 196.079 98.4155 196.125Z" fill="#D5ADE1"/>
<path d="M119.613 181.703C119.823 180.317 118.171 179.599 117.24 179.933C115.048 180.457 113.172 182.965 111.04 184.254C108.908 185.544 106.446 186.689 103.984 187.835C102.587 188.336 103.564 190.607 104.961 190.107C108.084 189.248 110.876 188.246 113.669 187.244C116.131 186.099 119.194 184.475 119.613 181.703Z" fill="#D5ADE1"/>
<path d="M133.793 157.214C133.537 155.994 131.42 155.443 131.21 156.829C129.38 161.943 129.338 167.464 127.313 172.123C126.908 173.055 128.229 173.63 128.634 172.698C131.125 167.872 134.876 162.854 133.793 157.214Z" fill="#D5ADE1"/>
<path d="M133.366 143.733C133.185 141.438 133.004 139.143 132.026 136.872C131.184 134.291 130.612 131.088 128.569 129.461C127.712 128.719 125.986 129.077 126.242 130.296C126.092 132.447 127.535 134.551 128.317 136.368C129.294 138.639 130.467 141.364 130.978 143.803C131.43 145.477 133.487 145.263 133.366 143.733Z" fill="#D5ADE1"/>
<path d="M119.057 116.094C117.884 113.368 115.976 111.431 113.738 109.35C111.034 107.436 107.339 105.091 104.29 104.874C102.368 104.778 101.558 106.641 102.94 107.981C107.086 111.999 113.784 111.955 116.925 117.383C117.646 118.435 119.313 117.313 119.057 116.094Z" fill="#D5ADE1"/>
<path d="M95.7337 113.712C89.4874 115.429 77.9115 120.369 80.6333 128.569C81.2196 129.932 83.142 130.028 83.8775 129.24C85.6184 127.042 86.0378 124.27 87.6435 122.383C89.9852 119.707 93.5131 117.917 96.5758 116.294C98.242 115.172 97.1303 113.212 95.7337 113.712Z" fill="#D5ADE1"/>
<path d="M90.4192 149.441C89.1118 147.026 87.669 144.922 86.3614 142.507C85.1888 139.782 84.8118 137.034 84.4353 134.284C84.5099 133.209 82.5874 133.112 82.5129 134.188C81.6747 139.732 81.7388 148.624 88.4828 151.185C89.4744 151.615 91.1405 150.494 90.4192 149.441Z" fill="#D5ADE1"/>
<path d="M108.523 166.543C104.963 163.887 100.397 162.641 98.1733 158.719C97.7822 157.811 96.3859 158.312 96.7765 159.221C98.5963 164.073 103.012 167.471 108.044 168.55C108.705 168.837 109.38 167.284 108.523 166.543Z" fill="#D5ADE1"/>
<path d="M135.908 183.984C132.692 179.632 125.482 177.237 120.256 175.704C118.935 175.129 118.125 176.993 119.311 177.879C121.82 179.338 124.794 180.63 127.167 182.401C129.345 183.717 131.254 185.654 133.567 186.659C135.684 187.211 136.959 185.179 135.908 183.984Z" fill="#D5ADE1"/>
<path d="M167.008 183.837C163.959 183.62 161.632 184.455 158.644 185.002C155.521 185.862 152.668 186.099 149.484 186.191C147.892 186.239 147.939 188.843 149.396 189.107C152.309 189.634 154.832 189.254 157.685 189.017C161.004 188.613 164.323 188.209 167.58 187.04C168.976 186.539 168.93 183.933 167.008 183.837Z" fill="#D5ADE1"/>
<path d="M190.877 166.882C191.087 165.496 189.104 164.634 188.233 165.734C185.757 168.719 183.416 171.395 179.888 173.185C178.822 173.829 179.408 175.192 180.67 175.001C185.189 173.642 189.512 171.829 190.877 166.882Z" fill="#D5ADE1"/>
<path d="M201.887 140.646C201.436 138.973 199.048 139.043 198.838 140.429C198.404 145.041 196.845 149.534 195.421 153.716C194.881 154.958 197.194 155.963 197.734 154.721C200.285 150.66 203.106 145.977 201.887 140.646Z" fill="#D5ADE1"/>
<path d="M202.849 110.412C202.398 108.738 200.071 109.573 200.192 111.103C200.284 116.314 201.503 121.644 201.926 126.999C201.851 128.074 203.774 128.171 203.848 127.095C204.687 121.551 204.863 115.719 202.849 110.412Z" fill="#D5ADE1"/>
<path d="M190.693 95.8958C188.934 91.8075 185.072 85.3281 179.771 84.8705C178.314 84.6067 177.504 86.4705 178.691 87.3556C180.404 88.8385 182.521 89.3896 184.234 90.8726C185.946 92.3556 187.389 94.4598 188.366 96.731C189.088 97.7832 190.95 97.1146 190.693 95.8958Z" fill="#D5ADE1"/>
<path d="M168.238 84.2889C165.264 82.9964 162.35 82.4687 159.423 83.7813C156.96 84.927 152.562 87.8162 153.134 91.0193C153.255 92.5491 155.042 92.9565 156.438 92.4555C157.504 91.8109 157.774 91.1896 158.179 90.2577C158.584 89.3259 159.455 88.227 160.521 87.5823C162.322 86.1494 165.25 84.8367 167.698 85.5315C168.688 85.9626 169.229 84.7196 168.238 84.2889Z" fill="#D5ADE1"/>
<path d="M160.941 119.156C160.234 116.264 158.265 113.562 157.422 110.98C156.385 107.944 156.144 104.884 155.902 101.825C155.781 100.295 153.393 100.365 153.184 101.751C152.345 107.296 153.07 116.474 158.013 120.469C159.2 121.354 161.196 120.375 160.941 119.156Z" fill="#D5ADE1"/>
<path d="M181.631 144.768C179.528 142.376 177.019 140.917 174.45 138.692C170.889 136.037 168.395 132.737 166.501 128.959C165.72 127.143 162.927 128.144 163.708 129.961C166.31 136.631 172.815 144.26 179.755 147.276C181.077 147.85 182.683 145.964 181.631 144.768Z" fill="#D5ADE1"/>
<path d="M217.773 135.733C215.445 136.568 214.17 138.598 212.699 140.175C210.627 142.229 208.091 144.45 205.493 145.906C203.632 146.575 204.804 149.3 206.666 148.632C209.459 147.63 212.055 146.173 214.323 144.574C216.59 142.974 219.457 140.896 220.207 138.268C220.417 136.882 219.169 135.231 217.773 135.733Z" fill="#D5ADE1"/>
<path d="M236.085 117.102C230.304 118.651 225.877 125.221 224.048 130.335C223.373 131.888 225.686 132.894 226.691 131.484C227.966 129.453 229.708 127.256 231.314 125.368C233.385 123.314 236.313 122.002 238.054 119.804C238.729 118.251 237.481 116.6 236.085 117.102Z" fill="#D5ADE1"/>
<path d="M256.458 106.383C254.611 105.211 252.283 106.046 250.556 106.403C248.364 106.927 246.562 108.36 245.226 109.626C243.891 110.892 245.664 113.14 246.999 111.874C248.531 111.062 249.732 110.107 251.594 109.439C253.32 109.082 255.438 109.633 256.774 108.367C257.239 108.2 257.315 107.125 256.458 106.383Z" fill="#D5ADE1"/>
<path d="M278.068 107.281C278.757 103.888 279.251 100.04 279.279 96.3592C279.354 95.2837 278.767 93.9209 277.776 93.4901C271.032 90.9283 264.274 90.2069 257.171 91.1823C254.649 91.5631 255.086 95.077 257.804 95.1503C263.51 94.6759 268.677 95.4443 273.633 97.5984C273.349 100.06 273.065 102.522 272.781 104.983C272.362 107.756 270.951 110.097 271.793 112.679C272.244 114.352 274.167 114.449 275.233 113.804C277.695 112.659 277.919 109.432 278.068 107.281Z" fill="#D5ADE1"/>
</g>
<defs>
<clipPath id="clip0_398_1489">
<rect width="222.019" height="208.706" fill="white" transform="translate(83.3999 0.662109) rotate(23.4911)"/>
</clipPath>
</defs>
</svg>
