<svg width="10" height="10" viewBox="0 0 10 10" fill="none" xmlns="http://www.w3.org/2000/svg">
<g clip-path="url(#clip0_1486_2098)">
<path d="M5.00012 7.49719C4.3291 7.49719 3.7832 8.04309 3.7832 8.71411C3.84438 10.3263 6.15612 10.3259 6.21704 8.71409C6.21704 8.04309 5.67112 7.49719 5.00012 7.49719Z" fill="#FF6100"/>
<path d="M6.21657 0.63886C5.61269 -0.110238 4.38813 -0.110604 3.784 0.638898C3.48149 0.999044 3.35448 1.47122 3.43556 1.93434C3.67735 3.31579 4.01857 5.26553 4.1717 6.14118C4.34328 7.06288 5.65736 7.06259 5.82873 6.14121L6.56503 1.93434C6.64611 1.47124 6.5191 0.999044 6.21657 0.63886Z" fill="#FF6100"/>
</g>
<defs>
<clipPath id="clip0_1486_2098">
<rect width="9.84615" height="9.84615" fill="white" transform="translate(0.0771484 0.0769043)"/>
</clipPath>
</defs>
</svg>
