<svg width="32" height="32" viewBox="0 0 32 32" fill="none" xmlns="http://www.w3.org/2000/svg">
<g clip-path="url(#clip0_1635_619)">
<path d="M22.625 32H9.375C4.19733 32 0 27.8027 0 22.625V9.375C0 4.19733 4.19733 0 9.375 0H22.625C27.8027 0 32 4.19733 32 9.375V22.625C32 27.8027 27.8027 32 22.625 32Z" fill="#6D87F7"/>
<path d="M23.5 13.5C24.8807 13.5 26 14.6193 26 16C26 17.3807 24.8807 18.5 23.5 18.5C22.1193 18.5 21 17.3807 21 16C21 14.6193 22.1193 13.5 23.5 13.5Z" fill="white"/>
<path d="M16 13.5C17.3807 13.5 18.5 14.6193 18.5 16C18.5 17.3807 17.3807 18.5 16 18.5C14.6193 18.5 13.5 17.3807 13.5 16C13.5 14.6193 14.6193 13.5 16 13.5Z" fill="white"/>
<path d="M8.5 13.5C9.88071 13.5 11 14.6193 11 16C11 17.3807 9.88071 18.5 8.5 18.5C7.11929 18.5 6 17.3807 6 16C6 14.6193 7.11929 13.5 8.5 13.5Z" fill="white"/>
</g>
<defs>
<clipPath id="clip0_1635_619">
<rect width="32" height="32" fill="white" transform="matrix(1 0 0 -1 0 32)"/>
</clipPath>
</defs>
</svg>
