<svg width="22" height="22" viewBox="0 0 22 22" fill="none" xmlns="http://www.w3.org/2000/svg">
<path d="M20.3198 6.8273C19.5589 4.71576 17.2017 3.61072 15.0553 4.35918C14.5956 4.5196 14.1863 4.75518 13.8293 5.04164H8.17117C7.81367 4.75472 7.40484 4.51914 6.94513 4.35918C4.7983 3.61072 2.44155 4.71576 1.68071 6.8273C-0.108161 11.7906 0.0733388 17.0513 2.18121 17.7861C3.65155 18.2985 5.70763 16.5426 7.42409 13.75H14.5759C16.2924 16.5431 18.3485 18.2989 19.8188 17.7861C21.9267 17.0513 22.1082 11.7906 20.3198 6.8273Z" fill="#DEE7F6"/>
<path d="M20.3196 6.82735C20.1468 6.34794 19.8888 5.92398 19.5725 5.55823C20.5281 9.43114 20.1981 17.4919 17.1699 16.907C18.1246 17.6995 19.0514 18.0538 19.8182 17.7866C21.926 17.0519 22.108 11.7906 20.3196 6.82735Z" fill="#B6CEE6"/>
<path d="M2.42741 5.5582C2.11116 5.92395 1.85312 6.34791 1.68033 6.82732C-0.108087 11.7906 0.0734126 17.0514 2.18129 17.7861C2.94854 18.0533 3.87529 17.699 4.82954 16.9065C1.80133 17.4914 1.47133 9.43066 2.42695 5.55774L2.42741 5.5582Z" fill="#B6CEE6"/>
<path d="M5.72917 12.8333C5.09713 12.8333 4.58333 12.3191 4.58333 11.6875V11H3.89583C3.26379 11 2.75 10.4858 2.75 9.85417C2.75 9.22258 3.26379 8.70833 3.89583 8.70833H4.58333V8.02083C4.58333 7.38925 5.09713 6.875 5.72917 6.875C6.36121 6.875 6.875 7.38925 6.875 8.02083V8.70833H7.5625C8.19454 8.70833 8.70833 9.22258 8.70833 9.85417C8.70833 10.4858 8.19454 11 7.5625 11H6.875V11.6875C6.875 12.3191 6.36121 12.8333 5.72917 12.8333Z" fill="#B6CEE6"/>
<path d="M16.2708 9.16667C16.9037 9.16667 17.4167 8.65366 17.4167 8.02083C17.4167 7.38801 16.9037 6.875 16.2708 6.875C15.638 6.875 15.125 7.38801 15.125 8.02083C15.125 8.65366 15.638 9.16667 16.2708 9.16667Z" fill="#B6CEE6"/>
<path d="M16.2708 12.8333C16.9037 12.8333 17.4167 12.3203 17.4167 11.6875C17.4167 11.0546 16.9037 10.5416 16.2708 10.5416C15.638 10.5416 15.125 11.0546 15.125 11.6875C15.125 12.3203 15.638 12.8333 16.2708 12.8333Z" fill="#B6CEE6"/>
<path d="M14.4373 11C15.0702 11 15.5832 10.487 15.5832 9.85415C15.5832 9.22132 15.0702 8.70831 14.4373 8.70831C13.8045 8.70831 13.2915 9.22132 13.2915 9.85415C13.2915 10.487 13.8045 11 14.4373 11Z" fill="#B6CEE6"/>
<path d="M18.1043 11C18.7372 11 19.2502 10.487 19.2502 9.85415C19.2502 9.22132 18.7372 8.70831 18.1043 8.70831C17.4715 8.70831 16.9585 9.22132 16.9585 9.85415C16.9585 10.487 17.4715 11 18.1043 11Z" fill="#B6CEE6"/>
<path d="M16.271 8.02081C16.6507 8.02081 16.9585 7.71301 16.9585 7.33331C16.9585 6.95362 16.6507 6.64581 16.271 6.64581C15.8913 6.64581 15.5835 6.95362 15.5835 7.33331C15.5835 7.71301 15.8913 8.02081 16.271 8.02081Z" fill="#FFC75D"/>
<path d="M16.271 11.6875C16.6507 11.6875 16.9585 11.3797 16.9585 11C16.9585 10.6203 16.6507 10.3125 16.271 10.3125C15.8913 10.3125 15.5835 10.6203 15.5835 11C15.5835 11.3797 15.8913 11.6875 16.271 11.6875Z" fill="#58ACDD"/>
<path d="M14.4375 9.85419C14.8172 9.85419 15.125 9.54638 15.125 9.16669C15.125 8.78699 14.8172 8.47919 14.4375 8.47919C14.0578 8.47919 13.75 8.78699 13.75 9.16669C13.75 9.54638 14.0578 9.85419 14.4375 9.85419Z" fill="#D65363"/>
<path d="M18.104 9.85419C18.4837 9.85419 18.7915 9.54638 18.7915 9.16669C18.7915 8.78699 18.4837 8.47919 18.104 8.47919C17.7243 8.47919 17.4165 8.78699 17.4165 9.16669C17.4165 9.54638 17.7243 9.85419 18.104 9.85419Z" fill="#51CE93"/>
<path d="M7.56266 8.47915H6.41683V7.33331C6.41683 6.95381 6.10883 6.64581 5.72933 6.64581C5.34983 6.64581 5.04183 6.95381 5.04183 7.33331V8.47915H3.896C3.5165 8.47915 3.2085 8.78715 3.2085 9.16665C3.2085 9.54615 3.5165 9.85415 3.896 9.85415H5.04183V11C5.04183 11.3795 5.34983 11.6875 5.72933 11.6875C6.10883 11.6875 6.41683 11.3795 6.41683 11V9.85415H7.56266C7.94216 9.85415 8.25016 9.54615 8.25016 9.16665C8.25016 8.78715 7.94216 8.47915 7.56266 8.47915Z" fill="#14D15D"/>
<path d="M16.2708 8.47917C15.6388 8.47917 15.125 7.96492 15.125 7.33333C15.125 6.70175 15.6388 6.1875 16.2708 6.1875C16.9029 6.1875 17.4167 6.70175 17.4167 7.33333C17.4167 7.96492 16.9029 8.47917 16.2708 8.47917ZM16.2708 7.10417C16.1448 7.10417 16.0417 7.20683 16.0417 7.33333C16.0417 7.45983 16.1448 7.5625 16.2708 7.5625C16.3969 7.5625 16.5 7.45983 16.5 7.33333C16.5 7.20683 16.3969 7.10417 16.2708 7.10417Z" fill="#09105A"/>
<path d="M16.2708 12.1459C15.6388 12.1459 15.125 11.6316 15.125 11C15.125 10.3684 15.6388 9.85419 16.2708 9.85419C16.9029 9.85419 17.4167 10.3684 17.4167 11C17.4167 11.6316 16.9029 12.1459 16.2708 12.1459ZM16.2708 10.7709C16.1448 10.7709 16.0417 10.8735 16.0417 11C16.0417 11.1265 16.1448 11.2292 16.2708 11.2292C16.3969 11.2292 16.5 11.1265 16.5 11C16.5 10.8735 16.3969 10.7709 16.2708 10.7709Z" fill="#09105A"/>
<path d="M14.4373 10.3125C13.8053 10.3125 13.2915 9.79823 13.2915 9.16665C13.2915 8.53506 13.8053 8.02081 14.4373 8.02081C15.0694 8.02081 15.5832 8.53506 15.5832 9.16665C15.5832 9.79823 15.0694 10.3125 14.4373 10.3125ZM14.4373 8.93748C14.3113 8.93748 14.2082 9.04015 14.2082 9.16665C14.2082 9.29315 14.3113 9.39581 14.4373 9.39581C14.5634 9.39581 14.6665 9.29315 14.6665 9.16665C14.6665 9.04015 14.5634 8.93748 14.4373 8.93748Z" fill="#09105A"/>
<path d="M18.1043 10.3125C17.4723 10.3125 16.9585 9.79823 16.9585 9.16665C16.9585 8.53506 17.4723 8.02081 18.1043 8.02081C18.7364 8.02081 19.2502 8.53506 19.2502 9.16665C19.2502 9.79823 18.7364 10.3125 18.1043 10.3125ZM18.1043 8.93748C17.9783 8.93748 17.8752 9.04015 17.8752 9.16665C17.8752 9.29315 17.9783 9.39581 18.1043 9.39581C18.2304 9.39581 18.3335 9.29315 18.3335 9.16665C18.3335 9.04015 18.2304 8.93748 18.1043 8.93748Z" fill="#09105A"/>
<path d="M5.72917 12.1458C5.09713 12.1458 4.58333 11.6316 4.58333 11V10.3125H3.89583C3.26379 10.3125 2.75 9.79825 2.75 9.16667C2.75 8.53508 3.26379 8.02083 3.89583 8.02083H4.58333V7.33333C4.58333 6.70175 5.09713 6.1875 5.72917 6.1875C6.36121 6.1875 6.875 6.70175 6.875 7.33333V8.02083H7.5625C8.19454 8.02083 8.70833 8.53508 8.70833 9.16667C8.70833 9.79825 8.19454 10.3125 7.5625 10.3125H6.875V11C6.875 11.6316 6.36121 12.1458 5.72917 12.1458ZM3.89583 8.9375C3.76979 8.9375 3.66667 9.04017 3.66667 9.16667C3.66667 9.29317 3.76979 9.39583 3.89583 9.39583H5.04167C5.29513 9.39583 5.5 9.60117 5.5 9.85417V11C5.5 11.1265 5.60313 11.2292 5.72917 11.2292C5.85521 11.2292 5.95833 11.1265 5.95833 11V9.85417C5.95833 9.60117 6.16321 9.39583 6.41667 9.39583H7.5625C7.68854 9.39583 7.79167 9.29317 7.79167 9.16667C7.79167 9.04017 7.68854 8.9375 7.5625 8.9375H6.41667C6.16321 8.9375 5.95833 8.73217 5.95833 8.47917V7.33333C5.95833 7.20683 5.85521 7.10417 5.72917 7.10417C5.60313 7.10417 5.5 7.20683 5.5 7.33333V8.47917C5.5 8.73217 5.29513 8.9375 5.04167 8.9375H3.89583Z" fill="#09105A"/>
<path d="M19.2768 18.3343C17.7863 18.3343 15.9947 16.8566 14.3213 14.2084H7.67822C5.73626 17.2819 3.63388 18.7793 2.03017 18.2188C1.43892 18.0125 0.96455 17.5414 0.619883 16.8181C-0.395325 14.6887 -0.136825 10.5165 1.24917 6.67198C2.09342 4.32852 4.71601 3.09606 7.09567 3.9261C7.53476 4.07919 7.94818 4.29965 8.32768 4.58335H13.6728C14.0518 4.3001 14.4652 4.07919 14.9048 3.9261C17.2831 3.0956 19.907 4.32806 20.7513 6.67198C22.1368 10.5165 22.3958 14.6887 21.3806 16.8181C21.0359 17.5418 20.5615 18.0125 19.9703 18.2188C19.7484 18.2962 19.5165 18.3343 19.2768 18.3343ZM7.4243 13.2917H14.5761C14.7356 13.2917 14.8832 13.3742 14.9666 13.5103C16.6258 16.2099 18.5118 17.7572 19.6687 17.3534C20.0202 17.2311 20.3177 16.9185 20.5533 16.4239C21.4571 14.5283 21.1775 10.5577 19.8896 6.98273C19.2149 5.10998 17.1148 4.12777 15.2068 4.7919C14.8154 4.92802 14.4492 5.13244 14.1169 5.39919C14.0353 5.46473 13.9345 5.50002 13.83 5.50002H8.17138C8.06688 5.50002 7.96605 5.46427 7.88447 5.39919C7.55217 5.13244 7.18597 4.92848 6.79455 4.7919C4.88834 4.12731 2.78734 5.10998 2.11176 6.98273C0.823383 10.5577 0.544258 14.5283 1.44809 16.4239C1.68367 16.9185 1.98113 17.2311 2.33268 17.3534C3.48905 17.7568 5.37509 16.2104 7.03472 13.5103C7.11813 13.3746 7.2648 13.2917 7.4243 13.2917Z" fill="#09105A"/>
<path d="M11.9167 11.9167H10.0833C9.82988 11.9167 9.625 11.7113 9.625 11.4583C9.625 11.2053 9.82988 11 10.0833 11H11.9167C12.1701 11 12.375 11.2053 12.375 11.4583C12.375 11.7113 12.1701 11.9167 11.9167 11.9167Z" fill="#09105A"/>
</svg>
