<svg width="188" height="61" viewBox="0 0 188 61" fill="none" xmlns="http://www.w3.org/2000/svg">
<mask id="path-1-inside-1_1_200" fill="white">
<path fill-rule="evenodd" clip-rule="evenodd" d="M6.92893 2.92893C4 5.85786 4 10.5719 4 20V40C4 46.7671 4 51.1056 5.08305 54.0986L0 60.9055L10.4697 59.1049C13.4377 60 17.6495 60 24 60H168C177.428 60 182.142 60 185.071 57.0711C188 54.1421 188 49.4281 188 40V20C188 10.5719 188 5.85786 185.071 2.92893C182.142 0 177.428 0 168 0H24C14.5719 0 9.85786 0 6.92893 2.92893Z"/>
</mask>
<path fill-rule="evenodd" clip-rule="evenodd" d="M6.92893 2.92893C4 5.85786 4 10.5719 4 20V40C4 46.7671 4 51.1056 5.08305 54.0986L0 60.9055L10.4697 59.1049C13.4377 60 17.6495 60 24 60H168C177.428 60 182.142 60 185.071 57.0711C188 54.1421 188 49.4281 188 40V20C188 10.5719 188 5.85786 185.071 2.92893C182.142 0 177.428 0 168 0H24C14.5719 0 9.85786 0 6.92893 2.92893Z" fill="white"/>
<path d="M5.08305 54.0986L5.8843 54.697L6.20676 54.2651L6.02338 53.7584L5.08305 54.0986ZM0 60.9055L-0.801247 60.3072L-2.30133 62.316L0.169493 61.891L0 60.9055ZM10.4697 59.1049L10.7584 58.1475L10.5326 58.0794L10.3002 58.1194L10.4697 59.1049ZM185.071 57.0711L185.778 57.7782L185.071 57.0711ZM185.071 2.92893L185.778 2.22183V2.22182L185.071 2.92893ZM5 20C5 15.2577 5.00212 11.8015 5.3572 9.16053C5.70841 6.54828 6.38834 4.88374 7.63604 3.63604L6.22183 2.22183C4.54059 3.90306 3.75606 6.06001 3.37503 8.89403C2.99788 11.6993 3 15.3142 3 20H5ZM5 40V20H3V40H5ZM6.02338 53.7584C5.53084 52.3972 5.26711 50.6777 5.13366 48.406C5.00038 46.1371 5 43.3939 5 40H3C3 43.3732 2.99962 46.1828 3.1371 48.5233C3.27442 50.8608 3.55221 52.807 4.14272 54.4389L6.02338 53.7584ZM0.801247 61.5038L5.8843 54.697L4.2818 53.5003L-0.801247 60.3072L0.801247 61.5038ZM10.3002 58.1194L-0.169493 59.92L0.169493 61.891L10.6392 60.0904L10.3002 58.1194ZM24 59C17.5759 59 13.5494 58.9892 10.7584 58.1475L10.1809 60.0623C13.3261 61.0108 17.723 61 24 61V59ZM168 59H24V61H168V59ZM184.364 56.364C183.116 57.6117 181.452 58.2916 178.839 58.6428C176.198 58.9979 172.742 59 168 59V61C172.686 61 176.301 61.0021 179.106 60.625C181.94 60.2439 184.097 59.4594 185.778 57.7782L184.364 56.364ZM187 40C187 44.7423 186.998 48.1985 186.643 50.8395C186.292 53.4517 185.612 55.1163 184.364 56.364L185.778 57.7782C187.459 56.0969 188.244 53.94 188.625 51.106C189.002 48.3007 189 44.6858 189 40H187ZM187 20V40H189V20H187ZM184.364 3.63604C185.612 4.88374 186.292 6.54828 186.643 9.16053C186.998 11.8015 187 15.2577 187 20H189C189 15.3142 189.002 11.6993 188.625 8.89403C188.244 6.06001 187.459 3.90306 185.778 2.22183L184.364 3.63604ZM168 1C172.742 1 176.198 1.00212 178.839 1.3572C181.452 1.70841 183.116 2.38834 184.364 3.63604L185.778 2.22182C184.097 0.54059 181.94 -0.243941 179.106 -0.624966C176.301 -1.00212 172.686 -1 168 -1V1ZM24 1H168V-1H24V1ZM7.63604 3.63604C8.88374 2.38834 10.5483 1.70841 13.1605 1.3572C15.8015 1.00212 19.2577 1 24 1V-1C19.3142 -1 15.6993 -1.00212 12.894 -0.624966C10.06 -0.243941 7.90306 0.54059 6.22183 2.22183L7.63604 3.63604Z" fill="#0075FF" mask="url(#path-1-inside-1_1_200)"/>
</svg>
