<svg width="21" height="21" viewBox="0 0 21 21" fill="none" xmlns="http://www.w3.org/2000/svg">
<rect width="21" height="21" rx="10" fill="white"/>
<g clip-path="url(#clip0_843_920)">
<path d="M14.2336 11.7978L13.9814 12.1856V14.3784C13.9814 14.5012 14.1201 14.5727 14.2202 14.5016L15.0475 13.9139C15.0999 13.8767 15.1702 13.8767 15.2226 13.9139L16.0499 14.5016C16.15 14.5728 16.2886 14.5012 16.2886 14.3784V10.4962L15.8422 10.4541C15.391 11.1569 14.4725 11.7005 14.2336 11.7978Z" fill="#BA602B"/>
<path d="M13.9814 11.6375V12.1856C14.2237 12.0875 14.4566 11.9691 14.6789 11.8296C15.2978 11.4413 15.9152 10.9903 16.2886 10.4962V9.63684L13.9814 11.6375Z" fill="#6F3716"/>
<path d="M17.3303 5.23421C17.1289 4.99702 16.8348 4.86099 16.5236 4.86099H15.2925L14.8898 5.12088L14.8017 5.49609L15.0739 5.76826H16.5235C16.5845 5.76826 16.6219 5.80166 16.6388 5.82158C16.6557 5.84147 16.6826 5.88386 16.6727 5.94398C16.5565 6.65247 16.2534 8.00997 15.5286 9.14138C15.0754 9.84899 14.5246 10.3646 13.8817 10.6855L13.2191 11.3094L13.1499 11.8876C13.6972 11.7775 14.2057 11.5763 14.6695 11.2853C15.2945 10.8931 15.8406 10.3364 16.2926 9.63073C17.0645 8.42566 17.4122 7.04059 17.568 6.09082C17.6185 5.78364 17.5318 5.47142 17.3303 5.23421Z" fill="#A8B1EC"/>
<path d="M14.5296 5.76826H15.074L15.2925 4.86099H14.7481L14.3667 5.31463L14.5296 5.76826Z" fill="#C4CAF3"/>
<path d="M13.2467 10.9307L12.6613 11.3697L12.5161 11.9732C12.7327 11.9576 12.9439 11.9285 13.1498 11.8871C13.4797 11.5573 13.7344 11.1486 13.8816 10.6853C13.679 10.7864 13.4674 10.8684 13.2467 10.9307Z" fill="#C4CAF3"/>
<path d="M15.1495 3.81653H5.85997C5.55932 3.81653 5.34218 3.35206 5.38858 3.27193C5.48274 3.10937 5.65858 3 5.85997 3H15.1495C15.3508 3 15.5267 3.10937 15.6208 3.27193C15.6672 3.35206 15.4501 3.81653 15.1495 3.81653Z" fill="#C4CAF3"/>
<path d="M15.1493 3.54435H5.85979C5.65841 3.54435 5.48301 3.43473 5.38885 3.27219C5.34244 3.35231 5.31543 3.4451 5.31543 3.54435C5.31543 3.845 5.55915 4.08872 5.85979 4.08872H15.1493C15.4499 4.08872 15.6936 3.845 15.6936 3.54435C15.6936 3.4451 15.6666 3.35231 15.6202 3.27219C15.526 3.43473 15.3506 3.54435 15.1493 3.54435Z" fill="#A8B1EC"/>
<path d="M6.76648 11.7978L7.01861 12.1856V14.3784C7.01861 14.5012 6.87995 14.5727 6.77984 14.5016L5.95259 13.9139C5.90015 13.8767 5.82989 13.8767 5.77745 13.9139L4.9502 14.5016C4.85009 14.5728 4.71143 14.5012 4.71143 14.3784V10.4962L5.15785 10.4541C5.60908 11.1569 6.5276 11.7005 6.76648 11.7978Z" fill="#BA602B"/>
<path d="M7.01861 11.6375V12.1856C6.77636 12.0875 6.54351 11.9691 6.32117 11.8296C5.70225 11.4413 5.08484 10.9903 4.71143 10.4962V9.63684L7.01861 11.6375Z" fill="#6F3716"/>
<path d="M3.66975 5.23421C3.87122 4.99702 4.16528 4.86099 4.47653 4.86099H5.70758L6.11024 5.12088L6.1983 5.49606L5.92614 5.76823H4.47653C4.41559 5.76823 4.37812 5.80163 4.36121 5.82155C4.34428 5.84144 4.31742 5.88383 4.32729 5.94395C4.44351 6.65244 4.74664 8.00994 5.47139 9.14135C5.92464 9.84896 6.47542 10.3646 7.11834 10.6855L7.78095 11.3094L7.85012 11.8876C7.3028 11.7774 6.79429 11.5762 6.33052 11.2852C5.70553 10.8931 5.15944 10.3364 4.70745 9.6307C3.9355 8.42563 3.58778 7.04056 3.43201 6.09079C3.38162 5.78364 3.46828 5.47142 3.66975 5.23421Z" fill="#A8B1EC"/>
<path d="M6.47044 5.76826H5.92607L5.70752 4.86099H6.25188L6.63333 5.31463L6.47044 5.76826Z" fill="#C4CAF3"/>
<path d="M7.75349 10.9307L8.33893 11.3697L8.48409 11.9732C8.2675 11.9576 8.05633 11.9285 7.8504 11.8871C7.52049 11.5573 7.26578 11.1486 7.11865 10.6853C7.32118 10.7864 7.53279 10.8684 7.75349 10.9307Z" fill="#C4CAF3"/>
<path d="M11.9153 16.7999L12.6579 16.9315C13.0268 16.9969 13.3591 17.1767 13.6129 17.4374C13.6189 17.4435 13.6251 17.4496 13.6296 17.4557L13.4315 17.7278H7.57238L7.3802 17.4555C7.63531 17.1868 7.97278 17.001 8.34846 16.934L9.09526 16.8006C9.5358 16.722 9.8566 16.3389 9.8566 15.8914V12.6897C8.76266 12.4479 7.87414 11.6015 7.60467 10.4761L6.20557 4.63307L10.5047 4.3609L14.8031 4.63307L13.3945 10.4801C13.1246 11.6004 12.2411 12.4432 11.1528 12.6875V15.8904C11.1528 16.3383 11.4743 16.7217 11.9153 16.7999Z" fill="#E0E4F8"/>
<path d="M14.803 4.63308L14.9342 4.08871H6.0752L6.20554 4.63308H14.803Z" fill="#C4CAF3"/>
<path d="M13.6294 17.4556H7.3801C7.23215 17.6115 7.11177 17.7952 7.02783 18H13.9812L13.9756 17.9866C13.8922 17.7871 13.7738 17.6082 13.6294 17.4556Z" fill="#C4CAF3"/>
<path d="M10.7929 6.22012L11.0913 6.82478C11.1389 6.9212 11.2308 6.98802 11.3372 7.00346L12.0045 7.10043C12.2724 7.13937 12.3794 7.46864 12.1855 7.6576L11.7027 8.12826C11.6257 8.20331 11.5906 8.31142 11.6088 8.41739L11.7227 9.08196C11.7685 9.34879 11.4884 9.55229 11.2488 9.42631L10.6519 9.11254C10.5568 9.0625 10.4431 9.0625 10.3479 9.11254L9.7511 9.42631C9.51145 9.55229 9.23137 9.34882 9.27713 9.08196L9.39112 8.41739C9.40929 8.31142 9.37416 8.20331 9.29717 8.12826L8.81433 7.6576C8.62047 7.46861 8.72743 7.13937 8.99535 7.10043L9.66265 7.00346C9.76905 6.98799 9.86102 6.9212 9.9086 6.82478L10.207 6.22012C10.3268 5.97737 10.673 5.97737 10.7929 6.22012Z" fill="#C4CAF3"/>
<path d="M10.6521 8.5682C10.557 8.51816 10.4433 8.51816 10.3481 8.5682L9.27251 9.13369C9.26829 9.37413 9.52739 9.54402 9.75128 9.42633L10.3481 9.11256C10.4433 9.06253 10.557 9.06253 10.6521 9.11256L11.249 9.42633C11.4729 9.54405 11.732 9.37413 11.7277 9.13369L10.6521 8.5682Z" fill="#A8B1EC"/>
</g>
<defs>
<clipPath id="clip0_843_920">
<rect width="15" height="15" fill="white" transform="translate(3 3)"/>
</clipPath>
</defs>
</svg>
