<svg width="21" height="21" viewBox="0 0 21 21" fill="none" xmlns="http://www.w3.org/2000/svg">
<rect width="21" height="21" rx="10" fill="white"/>
<g clip-path="url(#clip0_843_995)">
<path d="M14.2336 12.7978L13.9814 13.1856V15.3784C13.9814 15.5012 14.1201 15.5727 14.2202 15.5016L15.0475 14.9139C15.0999 14.8767 15.1702 14.8767 15.2226 14.9139L16.0499 15.5016C16.15 15.5728 16.2886 15.5012 16.2886 15.3784V11.4962L15.8422 11.4541C15.391 12.1569 14.4725 12.7005 14.2336 12.7978Z" fill="#FF5876"/>
<path d="M13.9814 12.6375V13.1856C14.2237 13.0875 14.4566 12.9691 14.6789 12.8296C15.2978 12.4413 15.9152 11.9903 16.2886 11.4962V10.6368L13.9814 12.6375Z" fill="#E6485D"/>
<path d="M17.3303 6.23421C17.1289 5.99702 16.8348 5.86099 16.5236 5.86099H15.2925L14.8898 6.12088L14.8017 6.49609L15.0739 6.76826H16.5235C16.5845 6.76826 16.6219 6.80166 16.6388 6.82158C16.6557 6.84147 16.6826 6.88386 16.6727 6.94398C16.5565 7.65247 16.2534 9.00997 15.5286 10.1414C15.0754 10.849 14.5246 11.3646 13.8817 11.6855L13.2191 12.3094L13.1499 12.8876C13.6972 12.7775 14.2057 12.5763 14.6695 12.2853C15.2945 11.8931 15.8406 11.3364 16.2926 10.6307C17.0645 9.42566 17.4122 8.04059 17.568 7.09082C17.6185 6.78364 17.5318 6.47142 17.3303 6.23421Z" fill="#FF9517"/>
<path d="M14.5296 6.76826H15.074L15.2925 5.86099H14.7481L14.3667 6.31463L14.5296 6.76826Z" fill="#EF7F0F"/>
<path d="M13.2467 11.9307L12.6613 12.3697L12.5161 12.9732C12.7327 12.9576 12.9439 12.9285 13.1498 12.8871C13.4797 12.5573 13.7344 12.1486 13.8816 11.6853C13.679 11.7864 13.4674 11.8684 13.2467 11.9307Z" fill="#EF7F0F"/>
<path d="M15.1495 4.81653H5.85997C5.55932 4.81653 5.34218 4.35206 5.38858 4.27193C5.48274 4.10937 5.65858 4 5.85997 4H15.1495C15.3508 4 15.5267 4.10937 15.6208 4.27193C15.6672 4.35206 15.4501 4.81653 15.1495 4.81653Z" fill="#FF9517"/>
<path d="M15.1493 4.54435H5.85979C5.65841 4.54435 5.48301 4.43473 5.38885 4.27219C5.34244 4.35231 5.31543 4.4451 5.31543 4.54435C5.31543 4.845 5.55915 5.08872 5.85979 5.08872H15.1493C15.4499 5.08872 15.6936 4.845 15.6936 4.54435C15.6936 4.4451 15.6666 4.35231 15.6202 4.27219C15.526 4.43473 15.3506 4.54435 15.1493 4.54435Z" fill="#EF7F0F"/>
<path d="M6.76648 12.7978L7.01861 13.1856V15.3784C7.01861 15.5012 6.87995 15.5727 6.77984 15.5016L5.95259 14.9139C5.90015 14.8767 5.82989 14.8767 5.77745 14.9139L4.9502 15.5016C4.85009 15.5728 4.71143 15.5012 4.71143 15.3784V11.4962L5.15785 11.4541C5.60908 12.1569 6.5276 12.7005 6.76648 12.7978Z" fill="#FF5876"/>
<path d="M7.01861 12.6375V13.1856C6.77636 13.0875 6.54351 12.9691 6.32117 12.8296C5.70225 12.4413 5.08484 11.9903 4.71143 11.4962V10.6368L7.01861 12.6375Z" fill="#E6485D"/>
<path d="M3.66975 6.23421C3.87122 5.99702 4.16528 5.86099 4.47653 5.86099H5.70758L6.11024 6.12088L6.1983 6.49606L5.92614 6.76823H4.47653C4.41559 6.76823 4.37812 6.80163 4.36121 6.82155C4.34428 6.84144 4.31742 6.88383 4.32729 6.94395C4.44351 7.65244 4.74664 9.00994 5.47139 10.1414C5.92464 10.849 6.47542 11.3646 7.11834 11.6855L7.78095 12.3094L7.85012 12.8876C7.3028 12.7774 6.79429 12.5762 6.33052 12.2852C5.70553 11.8931 5.15944 11.3364 4.70745 10.6307C3.9355 9.42563 3.58778 8.04056 3.43201 7.09079C3.38162 6.78364 3.46828 6.47142 3.66975 6.23421Z" fill="#FF9517"/>
<path d="M6.47044 6.76826H5.92607L5.70752 5.86099H6.25188L6.63333 6.31463L6.47044 6.76826Z" fill="#EF7F0F"/>
<path d="M7.75349 11.9307L8.33893 12.3697L8.48409 12.9732C8.2675 12.9576 8.05633 12.9285 7.8504 12.8871C7.52049 12.5573 7.26578 12.1486 7.11865 11.6853C7.32118 11.7864 7.53279 11.8684 7.75349 11.9307Z" fill="#EF7F0F"/>
<path d="M11.9153 17.7999L12.6579 17.9315C13.0268 17.9969 13.3591 18.1767 13.6129 18.4374C13.6189 18.4435 13.6251 18.4496 13.6296 18.4557L13.4315 18.7278H7.57238L7.3802 18.4555C7.63531 18.1868 7.97278 18.001 8.34846 17.934L9.09526 17.8006C9.5358 17.722 9.8566 17.3389 9.8566 16.8914V13.6897C8.76266 13.4479 7.87414 12.6015 7.60467 11.4761L6.20557 5.63307L10.5047 5.3609L14.8031 5.63307L13.3945 11.4801C13.1246 12.6004 12.2411 13.4432 11.1528 13.6875V16.8904C11.1528 17.3383 11.4743 17.7217 11.9153 17.7999Z" fill="#FFCF4D"/>
<path d="M14.803 5.63308L14.9342 5.08871H6.0752L6.20554 5.63308H14.803Z" fill="#FFB629"/>
<path d="M13.6294 18.4556H7.3801C7.23215 18.6115 7.11177 18.7952 7.02783 19H13.9812L13.9756 18.9866C13.8922 18.7871 13.7738 18.6082 13.6294 18.4556Z" fill="#FFB629"/>
<path d="M10.7929 7.22012L11.0913 7.82478C11.1389 7.9212 11.2308 7.98802 11.3372 8.00346L12.0045 8.10043C12.2724 8.13937 12.3794 8.46864 12.1855 8.6576L11.7027 9.12826C11.6257 9.20331 11.5906 9.31142 11.6088 9.41739L11.7227 10.082C11.7685 10.3488 11.4884 10.5523 11.2488 10.4263L10.6519 10.1125C10.5568 10.0625 10.4431 10.0625 10.3479 10.1125L9.7511 10.4263C9.51145 10.5523 9.23137 10.3488 9.27713 10.082L9.39112 9.41739C9.40929 9.31142 9.37416 9.20331 9.29717 9.12826L8.81433 8.6576C8.62047 8.46861 8.72743 8.13937 8.99535 8.10043L9.66265 8.00346C9.76905 7.98799 9.86102 7.9212 9.9086 7.82478L10.207 7.22012C10.3268 6.97737 10.673 6.97737 10.7929 7.22012Z" fill="#FF9517"/>
<path d="M10.6521 9.5682C10.557 9.51816 10.4433 9.51816 10.3481 9.5682L9.27251 10.1337C9.26829 10.3741 9.52739 10.544 9.75128 10.4263L10.3481 10.1126C10.4433 10.0625 10.557 10.0625 10.6521 10.1126L11.249 10.4263C11.4729 10.544 11.732 10.3741 11.7277 10.1337L10.6521 9.5682Z" fill="#EF7F0F"/>
</g>
<defs>
<clipPath id="clip0_843_995">
<rect width="15" height="15" fill="white" transform="translate(3 4)"/>
</clipPath>
</defs>
</svg>
