<svg width="15" height="15" viewBox="0 0 15 15" fill="none" xmlns="http://www.w3.org/2000/svg">
<g clip-path="url(#clip0_1486_2018)">
<path d="M11.2336 8.7978L10.9814 9.18561V11.3783C10.9814 11.5011 11.1201 11.5727 11.2202 11.5016L12.0475 10.9139C12.0999 10.8767 12.1702 10.8767 12.2226 10.9139L13.0499 11.5016C13.15 11.5727 13.2886 11.5011 13.2886 11.3783V7.49617L12.8422 7.4541C12.391 8.15685 11.4725 8.70045 11.2336 8.7978Z" fill="#FFE793"/>
<path d="M10.9814 8.63747V9.18561C11.2237 9.08752 11.4566 8.96914 11.6789 8.82962C12.2978 8.44127 12.9152 7.99027 13.2886 7.49621V6.63684L10.9814 8.63747Z" fill="#FFD234"/>
<path d="M14.3303 2.23417C14.1289 1.99699 13.8348 1.86096 13.5236 1.86096H12.2925L11.8898 2.12085L11.8017 2.49606L12.0739 2.76823H13.5235C13.5845 2.76823 13.6219 2.80163 13.6388 2.82155C13.6557 2.84144 13.6826 2.88383 13.6727 2.94395C13.5565 3.65244 13.2534 5.00994 12.5286 6.14135C12.0754 6.84896 11.5246 7.36458 10.8817 7.68547L10.2191 8.30941L10.1499 8.88758C10.6972 8.77743 11.2057 8.57624 11.6695 8.28524C12.2945 7.89307 12.8406 7.3364 13.2926 6.6307C14.0645 5.42563 14.4122 4.04056 14.568 3.09079C14.6185 2.78361 14.5318 2.47139 14.3303 2.23417Z" fill="#AD4920"/>
<path d="M11.5296 2.76823H12.074L12.2925 1.86096H11.7481L11.3667 2.31459L11.5296 2.76823Z" fill="#C06F49"/>
<path d="M10.2467 7.9306L9.66128 8.36964L9.51611 8.9731C9.73268 8.95749 9.94388 8.92845 10.1498 8.887C10.4797 8.55723 10.7344 8.14848 10.8816 7.68518C10.679 7.78628 10.4674 7.86829 10.2467 7.9306Z" fill="#C06F49"/>
<path d="M12.1495 0.816533H2.85997C2.55932 0.816533 2.34218 0.352061 2.38858 0.271934C2.48274 0.109365 2.65858 0 2.85997 0H12.1495C12.3508 0 12.5267 0.109365 12.6208 0.271934C12.6672 0.352061 12.4501 0.816533 12.1495 0.816533Z" fill="#C06F49"/>
<path d="M12.1493 0.544385H2.85979C2.65841 0.544385 2.48301 0.434756 2.38885 0.272217C2.34244 0.352344 2.31543 0.445127 2.31543 0.544385C2.31543 0.845029 2.55915 1.08875 2.85979 1.08875H12.1493C12.4499 1.08875 12.6936 0.845029 12.6936 0.544385C12.6936 0.445127 12.6666 0.352344 12.6202 0.272217C12.526 0.434756 12.3506 0.544385 12.1493 0.544385Z" fill="#AD4920"/>
<path d="M3.76648 8.7978L4.01861 9.18561V11.3783C4.01861 11.5011 3.87995 11.5727 3.77984 11.5016L2.95259 10.9139C2.90015 10.8767 2.82989 10.8767 2.77745 10.9139L1.9502 11.5016C1.85009 11.5727 1.71143 11.5011 1.71143 11.3783V7.49617L2.15785 7.4541C2.60908 8.15685 3.5276 8.70045 3.76648 8.7978Z" fill="#FFE793"/>
<path d="M4.01861 8.63747V9.18561C3.77636 9.08752 3.54351 8.96914 3.32117 8.82962C2.70225 8.44127 2.08484 7.99027 1.71143 7.49621V6.63684L4.01861 8.63747Z" fill="#FFD234"/>
<path d="M0.66975 2.23417C0.871225 1.99699 1.16528 1.86096 1.47653 1.86096H2.70758L3.11024 2.12085L3.1983 2.49603L2.92614 2.7682H1.47653C1.41559 2.7682 1.37812 2.8016 1.36121 2.82152C1.34428 2.84141 1.31742 2.8838 1.32729 2.94392C1.44351 3.65241 1.74664 5.00991 2.47139 6.14132C2.92464 6.84893 3.47542 7.36456 4.11834 7.68544L4.78095 8.30938L4.85012 8.88755C4.3028 8.7774 3.79429 8.57622 3.33052 8.28521C2.70553 7.89304 2.15944 7.33637 1.70745 6.63067C0.935502 5.4256 0.587777 4.04053 0.432006 3.09076C0.381615 2.78361 0.468275 2.47139 0.66975 2.23417Z" fill="#AD4920"/>
<path d="M3.47044 2.76823H2.92607L2.70752 1.86096H3.25188L3.63333 2.31459L3.47044 2.76823Z" fill="#C06F49"/>
<path d="M4.75349 7.9306L5.33893 8.36964L5.48409 8.9731C5.2675 8.95749 5.05633 8.92845 4.8504 8.887C4.52049 8.55723 4.26578 8.14848 4.11865 7.68518C4.32118 7.78628 4.53279 7.86829 4.75349 7.9306Z" fill="#C06F49"/>
<path d="M8.91532 13.7998L9.65791 13.9314C10.0268 13.9968 10.3591 14.1766 10.6129 14.4373C10.6189 14.4434 10.6251 14.4496 10.6296 14.4556L10.4315 14.7278H4.57238L4.3802 14.4555C4.63531 14.1867 4.97278 14.001 5.34846 13.9339L6.09526 13.8006C6.5358 13.722 6.8566 13.3388 6.8566 12.8913V9.68968C5.76266 9.44783 4.87414 8.60145 4.60467 7.47606L3.20557 1.63301L7.50471 1.36084L11.8031 1.63301L10.3945 7.48005C10.1246 8.60033 9.2411 9.44317 8.15284 9.68745V12.8903C8.15284 13.3383 8.47426 13.7216 8.91532 13.7998Z" fill="#E09F81"/>
<path d="M11.803 1.63311L11.9342 1.08875H3.0752L3.20554 1.63311H11.803Z" fill="#C06F49"/>
<path d="M10.6294 14.4557H4.3801C4.23215 14.6116 4.11177 14.7953 4.02783 15.0001H10.9812L10.9756 14.9867C10.8922 14.7872 10.7738 14.6083 10.6294 14.4557Z" fill="#C06F49"/>
<path d="M7.79286 3.22015L8.09128 3.82481C8.13886 3.92123 8.23082 3.98805 8.33723 4.00349L9.00452 4.10046C9.27244 4.1394 9.37944 4.46867 9.18555 4.65763L8.70271 5.12829C8.62571 5.20334 8.59059 5.31145 8.60875 5.41742L8.72275 6.08199C8.76851 6.34882 8.48843 6.55232 8.24878 6.42634L7.65194 6.11257C7.55679 6.06253 7.44309 6.06253 7.34793 6.11257L6.7511 6.42634C6.51145 6.55232 6.23137 6.34885 6.27713 6.08199L6.39112 5.41742C6.40929 5.31145 6.37416 5.20334 6.29717 5.12829L5.81433 4.65763C5.62047 4.46864 5.72743 4.1394 5.99535 4.10046L6.66265 4.00349C6.76905 3.98802 6.86102 3.92123 6.9086 3.82481L7.20701 3.22015C7.32684 2.9774 7.67304 2.9774 7.79286 3.22015Z" fill="#B95C31"/>
<path d="M7.65213 5.56817C7.55697 5.51813 7.44327 5.51813 7.34812 5.56817L6.27251 6.13366C6.26829 6.3741 6.52739 6.54399 6.75128 6.4263L7.34812 6.11253C7.44327 6.06249 7.55697 6.06249 7.65213 6.11253L8.24897 6.4263C8.47285 6.54402 8.73196 6.3741 8.72774 6.13366L7.65213 5.56817Z" fill="#B43900"/>
</g>
<defs>
<clipPath id="clip0_1486_2018">
<rect width="15" height="15" fill="white"/>
</clipPath>
</defs>
</svg>
