<svg width="155" height="155" viewBox="0 0 155 155" fill="none" xmlns="http://www.w3.org/2000/svg">
<path d="M79.0555 2.57823C80.4695 6.3095 85.9788 6.72958 87.9422 3.25582C88.905 7.12815 94.326 8.19688 96.6864 4.97971C97.1844 8.93873 102.441 10.6411 105.165 7.72571C105.192 11.7158 110.21 14.028 113.26 11.4553C112.814 15.4205 117.524 18.3099 120.857 16.116C119.945 20.0007 124.28 23.4268 127.849 21.6425C126.484 25.3921 130.383 29.3069 134.138 27.9572C132.34 31.5191 135.748 35.8676 139.637 34.9715C137.429 38.2956 140.3 43.0168 144.267 42.5869C141.682 45.6266 143.974 50.6541 147.964 50.6964C145.038 53.4091 146.719 58.6724 150.676 59.1863C147.449 61.5338 148.496 66.959 152.365 67.9373C148.883 69.8867 149.281 75.3977 153.007 76.8267C149.319 78.3506 149.062 83.8699 152.593 85.7295C148.751 86.8066 147.843 92.2569 151.129 94.521C147.186 95.1361 145.64 100.441 148.635 103.078C144.648 103.222 142.485 108.307 145.147 111.279C141.17 110.951 138.422 115.744 140.713 119.011C136.803 118.214 133.507 122.649 135.397 126.163C131.608 124.91 127.811 128.924 129.271 132.637C125.657 130.945 121.412 134.481 122.423 138.341C119.035 136.233 114.401 139.242 114.948 143.195C111.833 140.701 106.876 143.141 106.952 147.131C104.153 144.286 98.9422 146.123 98.5458 150.093C96.1037 146.937 90.7119 148.145 89.8487 152.04C87.7969 148.618 82.3002 149.179 80.9822 152.946C79.3496 149.305 73.8251 149.212 72.071 152.796C70.8805 148.987 65.4058 148.241 63.24 151.593C62.5083 147.67 57.1602 146.282 54.6133 149.354C54.3507 145.372 49.2043 143.361 46.312 146.11C46.5221 142.126 41.6496 139.52 38.4525 141.908C39.1324 137.976 34.6023 134.813 31.1452 136.805C32.2854 132.981 28.1612 129.304 24.4928 130.874C26.0772 127.212 22.4169 123.073 18.5885 124.198C20.5949 120.749 17.4498 116.206 13.5152 116.87C15.9155 113.683 13.3298 108.8 9.34427 108.994C12.1047 106.113 10.1146 100.958 6.13413 100.68C9.216 98.1452 7.84949 92.7915 3.9299 92.0441C7.28991 89.8918 6.56617 84.4141 2.76248 83.2084C6.35346 81.4686 6.28268 75.9438 2.6483 74.2966C6.41984 72.9938 7.00298 67.4994 3.58893 65.4339C7.48809 64.5863 8.71699 59.1994 5.57119 56.7446C9.54323 56.3641 11.4006 51.1604 8.56723 48.3508C12.5564 48.4428 15.0162 43.4952 12.535 40.3703C16.4853 40.9334 19.513 36.3115 17.4188 32.915C21.2748 33.9414 24.8279 29.71 23.1501 26.0897C26.8576 27.5649 30.8863 23.7835 29.6485 19.9901C33.1555 21.8935 37.603 18.6151 36.8226 14.702C40.0798 17.0068 44.884 14.2775 44.5718 10.2995C47.5336 12.9733 52.6268 10.8314 52.7873 6.84436C55.4121 9.84977 60.7229 8.32521 61.3538 4.38519C63.6047 7.67994 69.0585 6.7942 70.1511 2.95646C71.9965 6.4943 77.5168 6.25982 79.0555 2.57823Z" fill="#FF6100" stroke="white" stroke-width="0.726573"/>
</svg>
