<svg width="209" height="165" viewBox="0 0 209 165" fill="none" xmlns="http://www.w3.org/2000/svg">
<g opacity="0.8">
<g clip-path="url(#clip0_928_509)">
<path d="M31.5028 0.060463C26.4523 0.082354 21.6164 2.10675 18.0555 5.68958C7.64476 6.13887 -0.43094 14.9422 0.0173046 25.3529C0.223706 30.1325 2.23664 34.6545 5.65059 38.0049V49.7843C5.6631 50.0543 5.82364 50.2941 6.06756 50.4098H6.27605C6.52832 50.4432 6.77642 50.3191 6.90151 50.0971L12.7391 42.2788C14.7051 43.0211 16.7879 43.4088 18.8894 43.4255C23.9494 43.4505 28.8029 41.4188 32.3368 37.7964C34.1798 37.7474 36.0051 37.4316 37.7574 36.8582L43.595 44.5722C43.6836 44.7776 43.8932 44.9037 44.1162 44.8849H44.3247C44.626 44.764 44.8293 44.4794 44.8459 44.1552V32.3758C48.4788 28.8492 50.5115 23.9915 50.4751 18.9284C50.4177 8.49163 41.9407 0.060463 31.5028 0.060463ZM12.7391 40.9237C12.4441 40.834 12.123 40.9133 11.9052 41.1322L7.00575 47.6995V37.6922C6.99845 37.4993 6.92444 37.3158 6.79727 37.1709C-0.17346 30.5494 -0.457001 19.531 6.16347 12.5592C8.97803 9.59661 12.7443 7.71815 16.8046 7.25322C14.1172 10.5515 12.6453 14.6732 12.6349 18.9284C12.6161 28.917 20.3864 37.1897 30.3562 37.7964C27.1976 40.5953 23.1102 42.1194 18.8894 42.0704C16.7879 42.0537 14.7051 41.6659 12.7391 40.9237ZM43.6993 31.5418C43.5512 31.6732 43.4741 31.866 43.4908 32.063V42.0704L38.5914 35.6073C38.4308 35.4259 38.2067 35.3144 37.9659 35.2946H37.7574C35.7664 36.0764 33.6419 36.4663 31.5028 36.4412C21.8885 36.3923 14.1349 28.5584 14.1839 18.9441C14.2329 9.32974 22.0668 1.57511 31.6811 1.62515C41.2954 1.67414 49.049 9.508 49 19.1223C48.976 23.807 47.0653 28.2842 43.6993 31.5418Z" fill="url(#paint0_linear_928_509)"/>
<path d="M29.9382 28.8075C29.786 28.6856 29.5692 28.6856 29.417 28.8075H29.2085C29.0813 28.9524 29.0073 29.1359 29 29.3287C29 29.5372 29.1042 29.6415 29.2085 29.85H29.7297L30.2509 29.6415V29.3287C30.3114 29.2756 30.3489 29.2005 30.3552 29.1203C30.3479 28.9274 30.2738 28.7439 30.1467 28.599L29.9382 28.8075Z" fill="url(#paint1_linear_928_509)"/>
<path d="M30.9819 6.29111C27.3334 6.39535 23.4764 8.6887 23.5807 13.5881C23.5807 13.9915 23.907 14.3178 24.3104 14.3178C24.7138 14.3178 25.0401 13.9915 25.0401 13.5881C24.9358 9.62688 28.0631 7.75051 31.0862 7.64627C34.1092 7.54202 37.5492 9.4184 37.6535 13.5881C37.6232 15.2977 36.6642 16.8561 35.1516 17.6536L33.3795 18.4875C30.7901 19.7437 29.1639 22.3862 29.2098 25.2633C29.2098 25.6667 29.5371 25.993 29.9395 25.993C30.3419 25.993 30.6682 25.6667 30.6692 25.2633C30.6233 22.9324 31.9212 20.783 34.005 19.7384L35.7771 18.9045C37.7702 17.8829 39.0191 15.8273 39.0086 13.5881C39.0284 9.55808 35.7781 6.27443 31.7481 6.25462C31.4927 6.25358 31.2363 6.26609 30.9819 6.29111Z" fill="url(#paint2_linear_928_509)"/>
</g>
<path d="M172.055 81.1288C164.437 74.8151 158.997 63.5797 158.827 53.8047C158.62 41.9556 166.668 36.1478 172.576 36.7927C178.145 37.4045 182.216 42.9551 182.256 43.0111C182.786 43.7452 183.81 43.9127 184.545 43.3836C185.278 42.8551 185.446 41.8333 184.919 41.0983C179.267 33.2123 169.837 30.4775 161.835 37.5912C157.602 41.3531 155.429 46.9795 155.548 53.8617C155.737 64.6927 161.529 76.666 169.964 83.6544C183.159 94.5879 200.543 120.842 197.455 139.712C194.998 154.724 176.495 157.769 169.563 158.383C175.74 101.473 159.88 67.4901 121.082 54.5524C117.834 53.4691 115.555 50.5392 115.278 47.0922C114.54 37.6278 110.677 30.0198 103.853 24.4167C104.6 20.9966 104.516 17.6661 103.559 14.4751C102.965 12.5013 101.314 11.1009 99.2513 10.8198C97.1456 10.5306 95.1229 11.466 93.9906 13.2587L93.9897 13.2599C93.3643 10.66 92.3286 8.17503 88.9909 7.78832C86.9363 7.55301 84.9922 8.48743 83.8872 10.2337L75.2308 23.938L66.9733 28.3244C64.0363 29.8873 62.3931 33.0228 62.7857 36.3011L63.0659 38.7873C63.2548 40.3766 62.5904 41.942 61.2386 43.0839C58.0678 45.7775 57.4656 50.376 59.8407 53.7852C64.1388 59.9268 72.1235 62.1935 78.9441 59.4119L72.5112 72.1304C69.0376 79.0429 69.2202 87.0277 73.0028 93.4885C82.2861 109.345 85.2136 128.333 81.7034 149.928C81.5065 151.164 80.6544 152.234 79.4949 152.715C77.6564 153.457 76.4681 155.18 76.4681 157.106C76.4681 159.702 78.5787 161.813 81.1746 161.813H88.4884C92.327 161.813 95.6019 159.197 96.4505 155.45L103.954 122.129C105.239 129.827 108.942 138.79 118.27 145.598C118.298 145.618 118.33 145.625 118.359 145.643C118.367 146.875 118.4 148.132 118.457 149.415H112.382C107.321 149.415 102.683 151.962 99.9802 156.221C98.4469 158.61 100.096 161.813 103.001 161.813H167.727C167.76 161.813 167.788 161.796 167.82 161.795C172.804 161.604 197.512 159.677 200.694 140.241C203.976 120.176 185.844 92.5525 172.055 81.1288ZM86.6595 11.9877C87.6019 10.4969 89.7854 10.8155 90.3492 12.4505C90.9158 14.0835 91.2174 15.8056 91.2722 17.5633L90.6495 18.5494C85.0888 18.3215 81.3613 20.7257 81.0706 20.8362L86.6595 11.9877ZM102.746 157.985C104.847 154.673 108.45 152.696 112.381 152.696H120.186C121.128 152.696 121.88 151.902 121.823 150.955C120.582 130.66 125.513 117.123 136.476 110.722C138.347 109.629 136.702 106.797 134.823 107.889C124.59 113.863 119.103 125.175 118.434 141.566C103.452 129.124 106.576 110.637 107.323 107.168C107.36 107.004 109.174 98.9489 109.062 99.4499C109.538 97.3302 106.34 96.6147 105.862 98.7275L93.2509 154.727C92.7432 156.968 90.7848 158.533 88.4884 158.533H81.1746C79.6398 158.533 79.1286 156.4 80.7374 155.751C82.9571 154.829 84.568 152.795 84.9411 150.449C88.5763 128.086 85.5126 108.364 75.8337 91.8305C72.6149 86.3335 72.4678 79.5194 75.4398 73.607L84.1308 56.4213C84.8504 54.9983 83.3069 53.4874 81.9031 54.2304L78.8202 55.8544C73.1818 58.8211 66.1819 57.1235 62.5291 51.9067C61.1277 49.8955 61.4866 47.177 63.3585 45.5859C65.5302 43.7499 66.6383 41.0642 66.3244 38.4108C66.4027 37.3346 64.7602 33.216 68.5118 31.2205L82.9598 23.5457C84.7052 22.6193 86.5975 22.0893 88.5286 21.906L85.439 26.7976C84.9553 27.5639 85.1845 28.5761 85.9498 29.0603C86.7186 29.544 87.7289 29.3148 88.2125 28.5495L96.7642 15.0102C97.6816 13.554 99.9316 13.7992 100.417 15.4195C101.562 19.2309 101.224 23.3281 99.4161 27.5974C98.9572 28.6845 99.7616 29.8777 100.926 29.8777C102.221 29.8762 102.491 28.7436 102.83 27.8448C108.346 32.799 111.372 39.1932 112.008 47.351C112.391 52.116 115.545 56.1637 120.044 57.6641C157.27 70.0767 172.396 103.075 166.259 158.533H103C102.73 158.533 102.581 158.24 102.746 157.985ZM76.7018 34.7517C74.1475 34.7517 72.0706 36.8296 72.0706 39.383C72.0706 41.9203 74.1475 43.9845 76.7018 43.9845C79.2385 43.9845 81.3028 41.9203 81.3028 39.383C81.3028 36.8296 79.2385 34.7517 76.7018 34.7517ZM76.7018 40.7051C75.9572 40.7051 75.3504 40.1118 75.3504 39.383C75.3504 38.6374 75.9572 38.0315 76.7018 38.0315C77.4304 38.0315 78.023 38.6377 78.023 39.383C78.023 40.1245 77.4434 40.7051 76.7018 40.7051ZM151.598 84.86C152.101 85.6136 151.898 86.631 151.144 87.1342C150.398 87.6333 149.375 87.4379 148.87 86.6794C145.96 82.3162 142.464 78.4296 138.48 75.1275C137.781 74.5494 137.685 73.5156 138.264 72.8184C138.84 72.1217 139.873 72.0233 140.571 72.6022C144.802 76.1074 148.511 80.2322 151.598 84.86ZM135.498 68.8212C136.246 69.333 136.438 70.3529 135.926 71.1009C135.417 71.8462 134.398 72.0409 133.647 71.5294C132.483 70.7334 131.214 69.9615 129.768 69.1698C128.974 68.7351 128.682 67.7381 129.118 66.944C129.552 66.1498 130.55 65.8575 131.344 66.2938C132.885 67.1372 134.244 67.9645 135.498 68.8212Z" fill="url(#paint3_linear_928_509)"/>
</g>
<defs>
<linearGradient id="paint0_linear_928_509" x1="-0.000488281" y1="25.2378" x2="50.4755" y2="25.2378" gradientUnits="userSpaceOnUse">
<stop stop-color="#29323C"/>
<stop offset="1" stop-color="#485563"/>
</linearGradient>
<linearGradient id="paint1_linear_928_509" x1="29" y1="29.2245" x2="30.3552" y2="29.2245" gradientUnits="userSpaceOnUse">
<stop stop-color="#29323C"/>
<stop offset="1" stop-color="#485563"/>
</linearGradient>
<linearGradient id="paint2_linear_928_509" x1="23.5786" y1="16.1238" x2="39.0087" y2="16.1238" gradientUnits="userSpaceOnUse">
<stop stop-color="#29323C"/>
<stop offset="1" stop-color="#485563"/>
</linearGradient>
<linearGradient id="paint3_linear_928_509" x1="58.3926" y1="84.7827" x2="201.084" y2="84.7827" gradientUnits="userSpaceOnUse">
<stop stop-color="#29323C"/>
<stop offset="1" stop-color="#485563"/>
</linearGradient>
<clipPath id="clip0_928_509">
<rect width="50.4755" height="50.4755" fill="white" transform="matrix(-1 0 0 1 50.4756 0)"/>
</clipPath>
</defs>
</svg>
