<svg width="265" height="208" viewBox="0 0 265 208" fill="none" xmlns="http://www.w3.org/2000/svg">
<path d="M223.869 36.5263C223.676 36.3717 223.401 36.3717 223.208 36.5263H222.943C222.782 36.7101 222.688 36.9427 222.679 37.1872C222.679 37.4516 222.811 37.5837 222.943 37.8481H223.604L224.265 37.5837V37.1872C224.342 37.1198 224.389 37.0246 224.397 36.9229C224.388 36.6783 224.294 36.4457 224.133 36.262L223.869 36.5263Z" fill="url(#paint0_linear_702_3)"/>
<path d="M224.926 7.97676C220.3 8.10893 215.41 11.0168 215.542 17.2289C215.542 17.7405 215.955 18.1542 216.467 18.1542C216.978 18.1542 217.392 17.7405 217.392 17.2289C217.26 12.2063 221.225 9.82719 225.058 9.69502C228.891 9.56285 233.253 11.942 233.385 17.2289C233.347 19.3966 232.131 21.3726 230.213 22.3837L227.966 23.4411C224.683 25.0338 222.621 28.3844 222.679 32.0324C222.679 32.5439 223.094 32.9577 223.604 32.9577C224.115 32.9577 224.528 32.5439 224.53 32.0324C224.471 29.077 226.117 26.3516 228.759 25.0272L231.006 23.9698C233.533 22.6745 235.117 20.068 235.104 17.2289C235.129 12.1191 231.007 7.95561 225.898 7.9305C225.574 7.92917 225.249 7.94504 224.926 7.97676Z" fill="url(#paint1_linear_702_3)"/>
<path d="M225.056 0.0766602C231.46 0.104417 237.592 2.67124 242.107 7.21406C255.307 7.78373 265.546 18.9458 264.978 32.146C264.716 38.2062 262.164 43.9399 257.835 48.188V63.1237C257.82 63.466 257.616 63.77 257.307 63.9167H257.042C256.722 63.959 256.408 63.8017 256.249 63.5202L248.848 53.6072C246.355 54.5482 243.714 55.0399 241.049 55.0611C234.634 55.0928 228.48 52.5167 223.999 47.9237C221.662 47.8615 219.348 47.4611 217.126 46.7341L209.724 56.515C209.612 56.7754 209.346 56.9353 209.063 56.9115H208.799C208.417 56.7582 208.159 56.3974 208.138 55.9863V41.0506C203.532 36.5792 200.954 30.4199 201.001 24.0002C201.073 10.7669 211.822 0.0766602 225.056 0.0766602ZM248.848 51.8889C249.222 51.7752 249.629 51.8757 249.905 52.1532L256.117 60.4802V47.7915C256.126 47.547 256.22 47.3143 256.381 47.1306C265.22 38.7349 265.579 24.7641 257.185 15.9243C253.616 12.1679 248.841 9.78617 243.693 9.19667C247.1 13.3787 248.966 18.6048 248.98 24.0002C249.003 36.6651 239.151 47.1544 226.51 47.9237C230.515 51.4725 235.698 53.4049 241.049 53.3428C243.714 53.3217 246.355 52.83 248.848 51.8889ZM209.592 39.9932C209.78 40.1598 209.877 40.4043 209.856 40.6541V53.3428L216.068 45.148C216.272 44.918 216.556 44.7766 216.861 44.7515H217.126C219.65 45.7428 222.344 46.2371 225.056 46.2054C237.247 46.1433 247.078 36.2104 247.016 24.02C246.953 11.8296 237.021 1.99715 224.83 2.06059C212.64 2.12271 202.809 12.0556 202.871 24.246C202.901 30.1859 205.324 35.8628 209.592 39.9932Z" fill="url(#paint2_linear_702_3)"/>
<path d="M46.844 102.867C56.503 94.8613 63.4006 80.6155 63.6161 68.2214C63.8795 53.1974 53.6749 45.8334 46.1841 46.6512C39.122 47.4269 33.9604 54.4646 33.9097 54.5357C33.2376 55.4665 31.9402 55.6789 31.0082 55.008C30.0782 54.3378 29.865 53.0423 30.5332 52.1104C37.7001 42.1114 49.6564 38.6437 59.803 47.6636C65.1695 52.4334 67.925 59.5674 67.7747 68.2936C67.5352 82.0268 60.1909 97.2082 49.4962 106.069C32.765 119.932 10.7237 153.22 14.6384 177.147C17.754 196.181 41.2152 200.042 50.0042 200.821C42.1719 128.662 62.2813 85.5737 111.476 69.1694C115.593 67.7958 118.483 64.0808 118.834 59.7103C119.77 47.7099 124.669 38.0635 133.321 30.959C132.373 26.6226 132.479 22.3996 133.693 18.3537C134.447 15.8511 136.54 14.0754 139.155 13.719C141.825 13.3523 144.39 14.5383 145.825 16.8113L145.827 16.8129C146.62 13.5164 147.933 10.3656 152.165 9.87523C154.77 9.57687 157.235 10.7617 158.636 12.9758L169.612 30.3521L180.082 35.9138C183.806 37.8955 185.889 41.8711 185.391 46.0278L185.036 49.1802C184.797 51.1953 185.639 53.1801 187.353 54.628C191.374 58.0434 192.137 63.874 189.126 68.1966C183.676 75.9838 173.552 78.8579 164.904 75.331L173.06 91.4573C177.465 100.222 177.233 110.346 172.437 118.538C160.666 138.643 156.954 162.719 161.405 190.1C161.655 191.667 162.735 193.024 164.205 193.634C166.536 194.575 168.043 196.759 168.043 199.202C168.043 202.493 165.367 205.17 162.075 205.17H152.802C147.935 205.17 143.783 201.853 142.706 197.101L133.192 154.852C131.563 164.613 126.868 175.978 115.041 184.609C115.005 184.635 114.964 184.644 114.928 184.667C114.917 186.229 114.876 187.823 114.803 189.45H122.507C128.923 189.45 134.803 192.679 138.231 198.079C140.175 201.109 138.084 205.169 134.401 205.169H52.3322C52.2906 205.169 52.2549 205.149 52.2137 205.146C45.8951 204.905 14.5662 202.461 10.5321 177.818C6.36998 152.377 29.3613 117.351 46.844 102.867ZM155.121 15.1998C153.926 13.3095 151.157 13.7135 150.443 15.7867C149.724 17.8571 149.342 20.0406 149.272 22.2693L150.062 23.5197C157.113 23.2307 161.839 26.2791 162.207 26.4193L155.121 15.1998ZM134.725 200.316C132.061 196.117 127.492 193.609 122.507 193.609H112.611C111.417 193.609 110.463 192.603 110.535 191.403C112.109 165.669 105.857 148.506 91.9563 140.389C89.584 139.004 91.6697 135.413 94.0519 136.797C107.027 144.372 113.984 158.715 114.833 179.497C133.829 163.722 129.868 140.281 128.92 135.883C128.874 135.675 126.573 125.462 126.716 126.097C126.112 123.409 130.167 122.502 130.773 125.181L146.763 196.185C147.407 199.026 149.89 201.011 152.802 201.011H162.075C164.021 201.011 164.67 198.306 162.63 197.483C159.815 196.314 157.773 193.736 157.3 190.761C152.691 162.406 156.575 137.399 168.847 116.436C172.929 109.466 173.115 100.826 169.347 93.3295L158.327 71.539C157.415 69.7348 159.372 67.819 161.152 68.7612L165.061 70.8202C172.21 74.5819 181.085 72.4294 185.717 65.8149C187.494 63.2647 187.039 59.8178 184.665 57.8004C181.912 55.4724 180.507 52.0672 180.905 48.7028C180.805 47.3382 182.888 42.1161 178.131 39.5859L159.812 29.8547C157.599 28.6801 155.199 28.008 152.751 27.7756L156.669 33.978C157.282 34.9496 156.991 36.2329 156.021 36.8469C155.046 37.4601 153.765 37.1696 153.152 36.1992L142.309 19.0321C141.146 17.1858 138.293 17.4967 137.677 19.5511C136.225 24.3837 136.654 29.5787 138.946 34.992C139.528 36.3703 138.508 37.8833 137.032 37.8833C135.39 37.8814 135.047 36.4453 134.618 35.3057C127.624 41.5873 123.787 49.6948 122.981 60.0385C122.495 66.0802 118.495 71.2124 112.792 73.1149C65.5904 88.8533 46.4122 130.694 54.1931 201.011H134.402C134.745 201.011 134.933 200.639 134.725 200.316ZM167.747 44.0633C170.985 44.0633 173.619 46.6979 173.619 49.9355C173.619 53.1526 170.985 55.77 167.747 55.77C164.53 55.77 161.913 53.1526 161.913 49.9355C161.913 46.6979 164.53 44.0633 167.747 44.0633ZM167.747 51.6118C168.691 51.6118 169.46 50.8596 169.46 49.9355C169.46 48.9901 168.691 48.2219 167.747 48.2219C166.823 48.2219 166.072 48.9905 166.072 49.9355C166.072 50.8757 166.806 51.6118 167.747 51.6118ZM72.782 107.598C72.1445 108.553 72.4024 109.843 73.3587 110.481C74.3037 111.114 75.6019 110.866 76.2422 109.905C79.9317 104.372 84.3643 99.4443 89.4159 95.2574C90.3012 94.5245 90.4229 93.2137 89.69 92.3296C88.959 91.4463 87.6493 91.3214 86.7641 92.0556C81.3995 96.4999 76.6968 101.73 72.782 107.598ZM93.1965 87.2614C92.2484 87.9103 92.0046 89.2035 92.6543 90.152C93.2997 91.0969 94.5909 91.3438 95.5437 90.6953C97.0198 89.686 98.6282 88.7073 100.462 87.7035C101.468 87.1523 101.838 85.8882 101.286 84.8812C100.736 83.8742 99.4707 83.5036 98.4637 84.0568C96.5102 85.1262 94.7864 86.1751 93.1965 87.2614Z" fill="url(#paint3_linear_702_3)"/>
<defs>
<linearGradient id="paint0_linear_702_3" x1="222.679" y1="37.055" x2="224.397" y2="37.055" gradientUnits="userSpaceOnUse">
<stop stop-color="#84FAB0"/>
<stop offset="1" stop-color="#8FD3F4"/>
</linearGradient>
<linearGradient id="paint1_linear_702_3" x1="215.539" y1="20.444" x2="235.104" y2="20.444" gradientUnits="userSpaceOnUse">
<stop stop-color="#84FAB0"/>
<stop offset="1" stop-color="#8FD3F4"/>
</linearGradient>
<linearGradient id="paint2_linear_702_3" x1="265.001" y1="32.0001" x2="201" y2="32.0001" gradientUnits="userSpaceOnUse">
<stop stop-color="#8FD3F4"/>
<stop offset="1" stop-color="#84FAB0"/>
</linearGradient>
<linearGradient id="paint3_linear_702_3" x1="190.962" y1="107.5" x2="10.0378" y2="107.5" gradientUnits="userSpaceOnUse">
<stop stop-color="#84FAB0"/>
<stop offset="1" stop-color="#8FD3F4"/>
</linearGradient>
</defs>
</svg>
