<svg width="80" height="80" viewBox="0 0 80 80" fill="none" xmlns="http://www.w3.org/2000/svg">
<path d="M17.8282 20.9306C18.0294 21.3617 18.3495 21.7264 18.7508 21.9819C19.1522 22.2373 19.618 22.373 20.0938 22.3729H32.25V26.6669C32.25 27.3299 32.5134 27.9658 32.9823 28.4346C33.4511 28.9035 34.087 29.1669 34.75 29.1669C35.4131 29.1669 36.049 28.9035 36.5178 28.4346C36.9866 27.9658 37.25 27.3299 37.25 26.6669V22.3729H38.4016C39.0646 22.3729 39.7005 22.1096 40.1694 21.6407C40.6382 21.1719 40.9016 20.536 40.9016 19.8729C40.9016 19.2099 40.6382 18.574 40.1694 18.1052C39.7005 17.6363 39.0646 17.3729 38.4016 17.3729H37.25V2.37061C37.2499 1.85746 37.0919 1.35678 36.7974 0.936537C36.5029 0.516297 36.0863 0.196854 35.604 0.0215773C35.1217 -0.1537 34.5971 -0.176321 34.1016 -0.0432144C33.606 0.089892 33.1633 0.372277 32.8338 0.765606L18.1766 18.268C17.8712 18.6326 17.6762 19.0769 17.6145 19.5485C17.5528 20.0202 17.6269 20.4996 17.8282 20.9306ZM32.25 9.24998V17.3733H25.4477L32.25 9.24998ZM44.9016 62.3542L57.9988 41.9062H48.3553C47.6923 41.9062 47.0564 41.6428 46.5876 41.174C46.1187 40.7052 45.8553 40.0693 45.8553 39.4062C45.8553 38.7432 46.1187 38.1073 46.5876 37.6385C47.0564 37.1696 47.6923 36.9062 48.3553 36.9062H62.5689C63.0176 36.9062 63.4579 37.0269 63.8438 37.2557C64.2297 37.4845 64.5469 37.8129 64.7622 38.2065C64.9775 38.6 65.0829 39.0443 65.0674 39.4926C65.0519 39.941 64.9161 40.3769 64.6741 40.7547L49.1116 65.0515C48.9349 65.3288 48.7052 65.5685 48.4358 65.7569C48.1663 65.9453 47.8623 66.0787 47.5412 66.1494C47.2201 66.2202 46.8882 66.2269 46.5646 66.1692C46.2409 66.1115 45.9317 65.9905 45.6549 65.8131C45.378 65.6358 45.1389 65.4056 44.9511 65.1357C44.7633 64.8658 44.6306 64.5615 44.5606 64.2402C44.4906 63.919 44.4847 63.5871 44.5431 63.2635C44.6016 62.94 44.7236 62.6307 44.9016 62.3542ZM57.9891 16.4156C58.4579 16.8844 58.7213 17.5203 58.7213 18.1833C58.7213 18.8464 58.4579 19.4822 57.9891 19.9511L21.1363 56.804C20.6665 57.2682 20.0321 57.5276 19.3717 57.5256C18.7113 57.5236 18.0785 57.2603 17.6115 56.7933C17.1445 56.3264 16.8813 55.6936 16.8793 55.0332C16.8773 54.3728 17.1367 53.7384 17.6008 53.2686L54.4532 16.4156C54.6853 16.1834 54.9609 15.9992 55.2643 15.8735C55.5676 15.7479 55.8928 15.6832 56.2211 15.6832C56.5495 15.6832 56.8746 15.7479 57.178 15.8735C57.4813 15.9992 57.7569 16.1834 57.9891 16.4156ZM14.1407 11.1778C14.7735 8.86061 14.3724 7.11529 12.9486 5.98795C11.3549 4.72701 8.70128 4.50357 6.90738 5.48076C5.54457 6.22295 4.94066 7.50529 5.11253 9.29326C5.17592 9.9533 4.9745 10.6115 4.55261 11.123C4.13071 11.6346 3.52288 11.9575 2.86285 12.0209C2.20281 12.0843 1.54463 11.8829 1.03309 11.461C0.521558 11.0391 0.198573 10.4313 0.13519 9.77123C-0.230591 5.96873 1.36613 2.80482 4.51566 1.08967C8.05082 -0.835332 12.9019 -0.424395 16.0507 2.06686C19.0613 4.44889 20.1228 8.24982 18.9635 12.495C18.181 15.3603 15.5025 17.4503 12.401 19.8708C10.7266 21.1773 8.92066 22.5865 7.40644 24.1676H17.7625C18.4256 24.1676 19.0615 24.431 19.5303 24.8999C19.9991 25.3687 20.2625 26.0046 20.2625 26.6676C20.2625 27.3307 19.9991 27.9666 19.5303 28.4354C19.0615 28.9042 18.4256 29.1676 17.7625 29.1676H2.55238C2.12868 29.1678 1.7119 29.0602 1.34117 28.8551C0.970446 28.65 0.657937 28.354 0.432992 27.9949C0.208047 27.6359 0.078047 27.2255 0.0551997 26.8024C0.0323524 26.3794 0.117407 25.9574 0.302378 25.5762C2.33753 21.3819 6.04941 18.4853 9.32425 15.9297C11.5228 14.2139 13.7953 12.4404 14.1407 11.1778ZM80 40.1294C80.0001 48.0406 77.6541 55.7743 73.2589 62.3523C68.8636 68.9303 62.6165 74.0572 55.3074 77.0847C47.9983 80.1123 39.9556 80.9044 32.1964 79.361C24.4371 77.8175 17.3098 74.0079 11.7157 68.4137C7.98969 64.708 5.03573 60.3001 3.02474 55.445C1.01375 50.59 -0.0143202 45.3844 3.38184e-05 40.1294C3.38184e-05 39.4663 0.263426 38.8304 0.732267 38.3616C1.20111 37.8928 1.83699 37.6294 2.50003 37.6294C3.16307 37.6294 3.79896 37.8928 4.2678 38.3616C4.73664 38.8304 5.00003 39.4663 5.00003 40.1294C5.00003 59.4284 20.701 75.1294 40 75.1294C59.2991 75.1294 75 59.4284 75 40.1294C75 22.6081 61.9197 7.6892 44.5741 5.42623C44.2451 5.38791 43.927 5.28459 43.6383 5.1223C43.3496 4.96 43.096 4.74195 42.8923 4.48082C42.6886 4.21969 42.5387 3.92068 42.4516 3.60116C42.3644 3.28164 42.3415 2.94797 42.3844 2.61955C42.4272 2.29114 42.5349 1.9745 42.7012 1.68806C42.8674 1.40161 43.089 1.15105 43.3529 0.950935C43.6168 0.750823 43.9178 0.605147 44.2385 0.522367C44.5592 0.439588 44.8932 0.421356 45.221 0.46873C54.8422 1.73671 63.6746 6.45867 70.073 13.7551C76.4713 21.0515 79.9994 30.4249 80 40.1294Z" fill="url(#paint0_linear_248_3164)"/>
<defs>
<linearGradient id="paint0_linear_248_3164" x1="-0.000114441" y1="40.0004" x2="80" y2="40.0004" gradientUnits="userSpaceOnUse">
<stop stop-color="#84FAB0"/>
<stop offset="1" stop-color="#8FD3F4"/>
</linearGradient>
</defs>
</svg>
