<svg width="66" height="66" viewBox="0 0 66 66" fill="none" xmlns="http://www.w3.org/2000/svg">
<circle cx="33" cy="33" r="33" fill="url(#paint0_linear_928_341)"/>
<path d="M32.9315 54.074C33.5821 54.0736 34.2225 53.9126 34.7959 53.6052C35.3693 53.2979 35.8579 52.8537 36.2184 52.3121L37.2051 50.8322C37.4088 50.5283 37.6844 50.2793 38.0073 50.1072C38.3302 49.9351 38.6905 49.8452 39.0564 49.8455C39.6472 49.8456 40.2138 50.0803 40.6315 50.4981L42.5654 52.4319C42.8625 52.7292 43.2153 52.9649 43.6036 53.1258C43.9919 53.2866 44.408 53.3693 44.8283 53.3693C46.5327 53.3693 48.1674 52.6922 49.3726 51.487C50.5778 50.2817 51.2549 48.6471 51.2549 46.9427C51.255 45.8846 50.9938 44.8428 50.4945 43.9099C49.9953 42.9771 49.2734 42.1819 48.3929 41.595L44.7458 39.1637C43.4664 38.3103 42.4133 37.1591 41.6767 35.8091L41.2693 35.062C40.4522 33.5642 39.2468 32.3141 37.7796 31.4432C36.3124 30.5723 34.6377 30.1126 32.9315 30.1126C31.2253 30.1126 29.5506 30.5723 28.0834 31.4432C26.6162 32.3141 25.4107 33.5642 24.5936 35.062L24.1863 35.8091C23.4497 37.1591 22.3965 38.3103 21.1171 39.1637L17.47 41.5951C16.5896 42.1819 15.8677 42.9771 15.3684 43.9099C14.8691 44.8428 14.608 45.8846 14.6081 46.9427C14.6081 48.6471 15.2852 50.2817 16.4904 51.487C17.6956 52.6922 19.3302 53.3693 21.0346 53.3693C21.4549 53.3693 21.8711 53.2866 22.2594 53.1258C22.6477 52.9649 23.0005 52.7292 23.2976 52.4319L25.2314 50.4981C25.6491 50.0803 26.2157 49.8456 26.8065 49.8455C27.1731 49.8455 27.534 49.9361 27.8572 50.109C28.1804 50.282 28.4559 50.5321 28.6593 50.8371L29.6459 52.3171C30.0069 52.8575 30.4955 53.3006 31.0686 53.6071C31.6417 53.9135 32.2816 54.0739 32.9315 54.074Z" fill="white"/>
<path d="M35.0463 20.7338L35.0463 20.9981C35.0463 22.367 35.2669 23.727 35.6996 25.0257C35.9197 25.6862 36.3421 26.2606 36.9068 26.6676C37.4716 27.0747 38.1501 27.2937 38.8463 27.2936C39.4087 27.2935 39.9619 27.1504 40.4538 26.8777C40.9457 26.605 41.3602 26.2117 41.6582 25.7347L41.8485 25.4303C43.3905 22.9634 44.2081 20.1129 44.208 17.2038C44.2079 15.9666 43.8715 14.7527 43.2348 13.692C42.8868 13.1117 42.3944 12.6315 41.8057 12.298C41.2169 11.9645 40.5518 11.7892 39.8752 11.7892C39.0777 11.7892 38.2992 12.0326 37.6438 12.4868C36.9883 12.941 36.4871 13.5845 36.207 14.3312C35.4395 16.3786 35.0463 18.5473 35.0463 20.7338Z" fill="white"/>
<path d="M30.8179 20.7338L30.8179 20.9981C30.8179 22.367 30.5973 23.727 30.1646 25.0257C29.9445 25.6862 29.5221 26.2606 28.9573 26.6677C28.3926 27.0747 27.714 27.2937 27.0179 27.2936C26.4554 27.2935 25.9023 27.1504 25.4104 26.8777C24.9185 26.605 24.504 26.2117 24.2059 25.7347L24.0157 25.4303C22.4737 22.9634 21.6561 20.1129 21.6562 17.2038C21.6563 15.9666 21.9927 14.7527 22.6294 13.692C22.9774 13.1117 23.4698 12.6315 24.0585 12.298C24.6472 11.9645 25.3123 11.7892 25.9889 11.7892C26.7858 11.7899 27.5635 12.0336 28.2183 12.4878C28.8731 12.942 29.3738 13.5851 29.6536 14.3312C30.4224 16.3784 30.8167 18.5471 30.8179 20.7338Z" fill="white"/>
<path d="M21.6558 30.6003L21.6558 30.8646C21.6558 32.2335 21.4352 33.5935 21.0025 34.8922C20.7823 35.5526 20.36 36.1271 19.7952 36.5341C19.2305 36.9411 18.5519 37.1601 17.8558 37.1601C17.2933 37.16 16.7402 37.0169 16.2483 36.7442C15.7564 36.4714 15.3419 36.0781 15.0438 35.6012L14.8535 35.2967C13.3116 32.8299 12.494 29.9793 12.4941 27.0702C12.4942 25.8331 12.8306 24.6192 13.4673 23.5585C13.8153 22.9782 14.3076 22.4979 14.8964 22.1645C15.4851 21.831 16.1502 21.6557 16.8268 21.6556C17.6237 21.6564 18.4014 21.9001 19.0562 22.3543C19.711 22.8085 20.2117 23.4515 20.4915 24.1977C21.2603 26.2448 21.6546 28.4135 21.6558 30.6003Z" fill="white"/>
<path d="M44.2079 30.6003L44.2079 30.8646C44.2079 32.2335 44.4285 33.5935 44.8612 34.8922C45.0813 35.5526 45.5037 36.1271 46.0685 36.5341C46.6332 36.9411 47.3118 37.1601 48.0079 37.1601C48.5704 37.16 49.1235 37.0169 49.6154 36.7442C50.1073 36.4714 50.5218 36.0781 50.8199 35.6012L51.0101 35.2967C52.5521 32.8299 53.3697 29.9793 53.3696 27.0702C53.3695 25.8331 53.0331 24.6192 52.3964 23.5585C52.0484 22.9782 51.556 22.4979 50.9673 22.1645C50.3785 21.831 49.7135 21.6557 49.0368 21.6556C48.2394 21.6556 47.4609 21.899 46.8054 22.3533C46.1499 22.8075 45.6487 23.451 45.3686 24.1977C44.6011 26.2451 44.2079 28.4138 44.2079 30.6003Z" fill="white"/>
<defs>
<linearGradient id="paint0_linear_928_341" x1="0" y1="33" x2="66" y2="33" gradientUnits="userSpaceOnUse">
<stop stop-color="#84FAB0"/>
<stop offset="1" stop-color="#8FD3F4"/>
</linearGradient>
</defs>
</svg>
