<svg width="90" height="90" viewBox="0 0 90 90" fill="none" xmlns="http://www.w3.org/2000/svg">
<g clip-path="url(#clip0_2126_249)">
<path d="M45 90C69.8528 90 90 69.8528 90 45C90 20.1472 69.8528 0 45 0C20.1472 0 0 20.1472 0 45C0 69.8528 20.1472 90 45 90Z" fill="#B8D7FD"/>
<path d="M47.2736 89.943C69.1526 88.8543 86.9179 72.1401 89.6388 50.7299L58.2478 19.3389L55.1713 29.2456L22.8071 42.1838L35.2554 54.6321L25.1791 67.8488L47.2736 89.943Z" fill="#99C6FC"/>
<path d="M25.6367 29.1811L27.9878 34.6475H34.8292L31.9075 28.3263L25.6367 29.1811Z" fill="#FFAE38"/>
<path d="M64.3639 29.1811L62.0128 34.6475H55.1714L58.093 28.3263L64.3639 29.1811Z" fill="#FFAE38"/>
<path d="M40.74 28.3263L31.7527 19.3389L25.6367 29.1811L40.74 35.1998L45.0003 32.3682L40.74 28.3263Z" fill="#FFE26F"/>
<path d="M49.2602 28.3263L58.2476 19.3389L64.3635 29.1811L49.2602 34.6475L45 32.3682L49.2602 28.3263Z" fill="#FFD428"/>
<path d="M45.0003 67.8486H25.1792V38.5558H45.0003L51.8529 53.2023L45.0003 67.8486Z" fill="#DF2562"/>
<path d="M45.0005 38.5558H64.8216V67.8486H45.0005V38.5558Z" fill="#B61C4C"/>
<path d="M45 32.6993H40.7397V28.3263H45L46.4728 30.5128L45 32.6993Z" fill="#FFD428"/>
<path d="M45 28.3263H49.2602V32.6993H45V28.3263Z" fill="#FFAE38"/>
<path d="M22.8071 42.1838H40.5087L52.5077 37.8554L40.74 32.3654H22.8071V42.1838Z" fill="#FF3D4F"/>
<path d="M45 42.1838H67.1931V32.3654H49.2602L45 42.1838Z" fill="#DF2562"/>
<path d="M45 55.4868L40.7397 59.2121V32.3682H45L48.7893 48.8848L45 55.4868Z" fill="#FFE26F"/>
<path d="M49.2602 59.2121L45 55.4868V32.3682H49.2602V59.2121Z" fill="#FFD428"/>
</g>
<defs>
<clipPath id="clip0_2126_249">
<rect width="90" height="90" fill="white"/>
</clipPath>
</defs>
</svg>
