<svg width="90" height="90" viewBox="0 0 90 90" fill="none" xmlns="http://www.w3.org/2000/svg">
<g clip-path="url(#clip0_2126_237)">
<path d="M90 45C90 69.8531 69.8531 90 45 90C20.1469 90 0 69.8531 0 45C0 20.1469 20.1469 0 45 0C69.8531 0 90 20.1469 90 45Z" fill="#FFD460"/>
<path d="M88.4619 56.695C75.761 43.9941 53.7533 21.985 53.7107 21.9438C51.497 19.6848 36.465 39.1896 36.465 39.1896L47.0118 49.7365L47.0139 49.7392L22.9277 71.7188C22.9277 71.7188 31.5019 80.2812 41.0545 89.8256C42.355 89.9389 43.6699 90 45 90C65.8074 90 83.3127 75.8771 88.4619 56.695Z" fill="#FFBE11"/>
<path d="M22.9277 71.7188H45L47.3236 60.683L45 49.6465C32.8099 49.6465 22.9277 59.5287 22.9277 71.7188Z" fill="#8BC0FF"/>
<path d="M45 49.6465V71.7188H67.0722C67.0722 59.5287 57.19 49.6465 45 49.6465Z" fill="#3897FF"/>
<path d="M32.8022 30.4788C32.8022 37.2155 38.2631 42.6764 44.9998 42.6764L47.3234 30.4788L44.9998 18.2812C38.2631 18.2812 32.8022 23.7421 32.8022 30.4788Z" fill="#8BC0FF"/>
<path d="M45 18.2812V42.6764C51.7367 42.6764 57.1976 37.2155 57.1976 30.4788C57.1976 23.7421 51.7367 18.2812 45 18.2812Z" fill="#3897FF"/>
</g>
<defs>
<clipPath id="clip0_2126_237">
<rect width="90" height="90" fill="white"/>
</clipPath>
</defs>
</svg>
