<svg width="90" height="90" viewBox="0 0 90 90" fill="none" xmlns="http://www.w3.org/2000/svg">
<g clip-path="url(#clip0_2126_199)">
<path d="M45 90C69.8528 90 90 69.8528 90 45C90 20.1472 69.8528 0 45 0C20.1472 0 0 20.1472 0 45C0 69.8528 20.1472 90 45 90Z" fill="#FE8205"/>
<path d="M89.9997 44.9999C89.9997 44.6561 89.9958 44.3131 89.9881 43.9711L70.5702 24.5532L14.3916 62.2488L42.0474 89.9046C43.0234 89.9678 44.0078 89.9999 44.9997 89.9999C55.1911 89.9999 64.5912 86.6121 72.1352 80.901L73.1196 79.9166L73.2402 80.0372C83.4617 71.7881 89.9997 59.1575 89.9997 44.9999Z" fill="#EF530F"/>
<path d="M77.3667 56.902L74.3011 31.802C73.4308 25.675 68.1853 21.1219 61.997 21.1219H28.003C21.8144 21.1219 16.5689 25.675 15.6988 31.802L12.6332 56.902C12.0895 60.73 15.0606 64.1528 18.9269 64.1528C20.9476 64.1528 22.848 63.192 24.046 61.5648L32.7739 49.7101H57.2259L65.9538 61.5648C67.1519 63.192 69.0521 64.1528 71.0729 64.1528C74.9394 64.1528 77.9104 60.73 77.3667 56.902Z" fill="white"/>
<path d="M77.3668 56.902L74.3012 31.802C73.4309 25.675 68.1854 21.1219 61.997 21.1219H45V49.7099H57.2259L65.9538 61.5646C67.152 63.1918 69.0523 64.1526 71.0729 64.1526C74.9394 64.1528 77.9105 60.73 77.3668 56.902Z" fill="#E9EDF5"/>
<path d="M56.4921 54.6184C59.361 54.6184 61.6867 52.2927 61.6867 49.4237C61.6867 46.5548 59.361 44.229 56.4921 44.229C53.6231 44.229 51.2974 46.5548 51.2974 49.4237C51.2974 52.2927 53.6231 54.6184 56.4921 54.6184Z" fill="#414952"/>
<path d="M33.5079 54.6184C36.3769 54.6184 38.7026 52.2927 38.7026 49.4237C38.7026 46.5548 36.3769 44.229 33.5079 44.229C30.639 44.229 28.3132 46.5548 28.3132 49.4237C28.3132 52.2927 30.639 54.6184 33.5079 54.6184Z" fill="#636978"/>
<path d="M63.4556 30.9949C64.7762 30.0147 65.0522 28.1495 64.072 26.8288C63.0918 25.5082 61.2266 25.2322 59.9059 26.2124C58.5853 27.1926 58.3093 29.0578 59.2895 30.3785C60.2697 31.6992 62.1349 31.9751 63.4556 30.9949Z" fill="#7584F2"/>
<path d="M63.4597 41.3292C64.7804 40.3489 65.0564 38.4837 64.0762 37.1631C63.0959 35.8424 61.2307 35.5664 59.9101 36.5466C58.5894 37.5269 58.3134 39.3921 59.2936 40.7127C60.2738 42.0334 62.1391 42.3094 63.4597 41.3292Z" fill="#7584F2"/>
<path d="M66.9947 36.7572C68.6361 36.6651 69.892 35.2599 69.7999 33.6185C69.7078 31.9772 68.3025 30.7212 66.6612 30.8133C65.0198 30.9054 63.7639 32.3107 63.856 33.9521C63.9481 35.5934 65.3533 36.8493 66.9947 36.7572Z" fill="#7584F2"/>
<path d="M56.5182 36.7819C54.8736 36.7819 53.5403 35.4486 53.5403 33.804C53.5403 32.1592 54.8736 30.826 56.5182 30.826C58.1628 30.826 59.4961 32.1594 59.4961 33.804C59.4961 35.4486 58.1628 36.7819 56.5182 36.7819Z" fill="#7584F2"/>
<path d="M36.2397 31.6134H31.2716V26.6453L25.8598 26.6454V31.6134H20.8918V37.0251H25.8598V41.9933L31.2716 41.9931V37.0251H36.2397V31.6134Z" fill="#BEC3D2"/>
</g>
<defs>
<clipPath id="clip0_2126_199">
<rect width="90" height="90" fill="white"/>
</clipPath>
</defs>
</svg>
