<svg width="40" height="40" viewBox="0 0 40 40" fill="none" xmlns="http://www.w3.org/2000/svg">
<path d="M19.9999 39.1667C19.9152 39.1669 19.8309 39.1542 19.7499 39.1292C8.85659 35.7242 3.33325 25.3633 3.33325 8.33333C3.33322 8.13817 3.40169 7.94918 3.52672 7.79933C3.65175 7.64948 3.82541 7.54826 4.01742 7.51333C4.10742 7.49999 13.0749 5.81833 19.4999 0.999995C19.6442 0.89181 19.8196 0.833328 19.9999 0.833328C20.1802 0.833328 20.3557 0.89181 20.4999 0.999995C26.9249 5.81833 35.8924 7.49999 35.9824 7.51333C36.1744 7.54826 36.3481 7.64948 36.4731 7.79933C36.5981 7.94918 36.6666 8.13817 36.6666 8.33333C36.6666 25.3633 31.1432 35.7242 20.2499 39.1292C20.169 39.1542 20.0847 39.1669 19.9999 39.1667Z" fill="#F39C12"/>
<path d="M19.4999 0.999995C13.0749 5.81833 4.10742 7.49999 4.01742 7.51333C3.82541 7.54826 3.65175 7.64948 3.52672 7.79933C3.40169 7.94918 3.33322 8.13817 3.33325 8.33333C3.33325 25.3633 8.85659 35.7242 19.7499 39.1292C19.8309 39.1542 19.9152 39.1669 19.9999 39.1667V0.833328C19.8196 0.833328 19.6442 0.89181 19.4999 0.999995Z" fill="#E67E22"/>
<path d="M20 34.75C19.8944 34.7498 19.7898 34.7297 19.6916 34.6908C12.1175 31.6775 8.15414 24.1342 7.57414 11.6317C7.5654 11.4436 7.62062 11.2581 7.73078 11.1054C7.84094 10.9527 7.99957 10.8418 8.18081 10.7908C12.1727 9.69944 16.0014 8.08104 19.5658 5.97833C19.6966 5.89852 19.8468 5.85629 20 5.85629C20.1532 5.85629 20.3034 5.89852 20.4341 5.97833C23.9986 8.08104 27.8272 9.69944 31.8191 10.7908C32.0004 10.8418 32.159 10.9527 32.2692 11.1054C32.3793 11.2581 32.4345 11.4436 32.4258 11.6317C31.8425 24.1317 27.8825 31.6775 20.3083 34.6908C20.2102 34.7297 20.1056 34.7498 20 34.75Z" fill="#F1C40F"/>
<path d="M19.5658 5.97833C16.0014 8.08104 12.1727 9.69945 8.18081 10.7908C7.99957 10.8418 7.84094 10.9527 7.73078 11.1054C7.62062 11.2581 7.5654 11.4436 7.57414 11.6317C8.15747 24.1317 12.1175 31.6775 19.6916 34.6908C19.7898 34.7297 19.8944 34.7498 20 34.75V5.85583C19.8467 5.85597 19.6965 5.89836 19.5658 5.97833Z" fill="#F39C12"/>
</svg>
