<svg width="48" height="48" viewBox="0 0 48 48" fill="none" xmlns="http://www.w3.org/2000/svg">
<g clip-path="url(#clip0_2451_3253)">
<path d="M48 23.0209L34.7877 19.506L41.4887 7.72548L29.0795 13.419L26.544 0.141388L20.7443 12.3793L10.1588 3.81723L13.6824 16.8733L0 17.0332L11.1981 24.7982L0.820875 33.6052L14.4537 32.4459L12.2373 45.7792L21.9261 36.2379L28.9075 47.8586L30.1187 34.4L43.0313 38.8707L35.1981 27.792L48 23.0209Z" fill="#EB874B"/>
<path d="M39.4838 23.3683L30.9598 21.1006L35.283 13.5003L27.2771 17.1736L25.6412 8.60727L21.8995 16.5027L15.0702 10.9789L17.3434 19.4021L8.51611 19.5052L15.7407 24.515L9.04571 30.1969L17.8411 29.4489L16.4111 38.0511L22.662 31.8954L27.1661 39.3927L27.9475 30.7097L36.2782 33.594L31.2245 26.4465L39.4838 23.3683Z" fill="#FFC850"/>
<path d="M33.4838 23.6131L28.2629 22.2242L30.9108 17.5689L26.0071 19.8188L25.0052 14.5719L22.7134 19.4079L18.5305 16.0246L19.9229 21.1838L14.5161 21.2469L18.9411 24.3154L14.8405 27.7956L20.2276 27.3375L19.3518 32.6062L23.1804 28.836L25.9392 33.4281L26.4178 28.1096L31.5204 29.8763L28.425 25.4985L33.4838 23.6131Z" fill="#FFDC64"/>
<path d="M27.7742 23.8461L25.6964 23.2933L26.7503 21.4407L24.7988 22.336L24.4 20.248L23.488 22.1725L21.8234 20.8261L22.3775 22.8793L20.2258 22.9045L21.9868 24.1255L20.3549 25.5105L22.4988 25.3282L22.1502 27.425L23.6739 25.9245L24.7718 27.752L24.9623 25.6355L26.9928 26.3385L25.761 24.5964L27.7742 23.8461Z" fill="#FFF082"/>
</g>
<defs>
<clipPath id="clip0_2451_3253">
<rect width="48" height="48" fill="white"/>
</clipPath>
</defs>
</svg>
