<svg width="28" height="28" viewBox="0 0 28 28" fill="none" xmlns="http://www.w3.org/2000/svg">
<g clip-path="url(#clip0_2451_27361)">
<path d="M13.9999 6.23591C12.0207 6.23591 10.086 6.82279 8.44045 7.92234C6.79486 9.0219 5.51227 10.5847 4.75488 12.4132C3.9975 14.2417 3.79933 16.2537 4.18545 18.1948C4.57156 20.136 5.5246 21.919 6.92407 23.3184C8.32353 24.7179 10.1066 25.671 12.0477 26.0571C13.9888 26.4432 16.0008 26.245 17.8293 25.4876C19.6578 24.7302 21.2206 23.4477 22.3202 21.8021C23.4197 20.1565 24.0066 18.2218 24.0066 16.2426C24.0034 13.5897 22.9481 11.0463 21.0722 9.17032C19.1963 7.29439 16.6529 6.23909 13.9999 6.23591ZM13.9999 25.4837C12.1722 25.4837 10.3855 24.9417 8.86581 23.9263C7.34612 22.9109 6.16167 21.4676 5.46223 19.779C4.76279 18.0905 4.57979 16.2324 4.93636 14.4398C5.29293 12.6472 6.17306 11.0006 7.46545 9.70819C8.75784 8.4158 10.4044 7.53567 12.197 7.1791C13.9896 6.82253 15.8477 7.00553 17.5363 7.70497C19.2249 8.4044 20.6682 9.58886 21.6836 11.1085C22.699 12.6282 23.241 14.4149 23.241 16.2426C23.2384 18.6928 22.2639 21.0418 20.5315 22.7744C18.799 24.507 16.45 25.4816 13.9999 25.4844L13.9999 25.4837Z" fill="white"/>
<path d="M26.3422 5.96837L23.9827 3.15678C23.7454 2.88886 23.4132 2.72375 23.0564 2.6964C22.6995 2.66905 22.346 2.78159 22.0707 3.01022C21.7953 3.23885 21.6197 3.56563 21.581 3.92143C21.5423 4.27723 21.6435 4.63413 21.8633 4.91662L20.2355 6.28272C18.8999 5.44188 17.4076 4.8805 15.849 4.63247L15.849 2.75406C16.2047 2.73821 16.5405 2.58529 16.7859 2.32735C17.0314 2.06941 17.1675 1.72648 17.1657 1.37041C17.1639 1.01434 17.0244 0.672781 16.7764 0.417311C16.5283 0.161841 16.191 0.0122906 15.8352 -1.25721e-07L12.1646 -9.18225e-08C11.8071 0.0099963 11.4674 0.158578 11.2175 0.414352C10.9675 0.670126 10.8268 1.01306 10.825 1.37069C10.8232 1.72833 10.9605 2.07265 11.2079 2.33091C11.4553 2.58917 11.7934 2.74115 12.1508 2.75472L12.1508 4.63313C9.5865 5.03871 7.22833 6.2809 5.44354 8.16624C3.65875 10.0516 2.54753 12.4742 2.28296 15.0569C2.01839 17.6395 2.61531 20.2371 3.98076 22.4452C5.34621 24.6532 7.40353 26.3478 9.83231 27.2649C12.2611 28.1819 14.925 28.2701 17.4091 27.5156C19.8931 26.7611 22.058 25.2063 23.5664 23.0933C25.0749 20.9804 25.8422 18.4279 25.749 15.8334C25.6557 13.2389 24.7071 10.7481 23.0509 8.74891L24.2409 7.75031C24.481 8.0152 24.8147 8.17637 25.1715 8.1998C25.5283 8.22323 25.8802 8.10708 26.153 7.87588C26.4257 7.64468 26.5979 7.31652 26.6332 6.96072C26.6685 6.60492 26.5642 6.24932 26.3422 5.96903L26.3422 5.96837ZM22.3561 5.50353L23.7489 7.16363L22.5458 8.17228C22.0431 7.63988 21.4921 7.15538 20.8997 6.72503L22.3561 5.50353ZM11.5525 1.37812C11.5525 1.21568 11.617 1.05989 11.7319 0.945022C11.8468 0.830156 12.0025 0.765625 12.165 0.765625L15.8352 0.765625C15.9976 0.765625 16.1534 0.830156 16.2683 0.945022C16.3831 1.05989 16.4477 1.21568 16.4477 1.37812C16.4477 1.54057 16.3831 1.69636 16.2683 1.81123C16.1534 1.92609 15.9976 1.99063 15.8352 1.99063L12.1646 1.99063C12.0022 1.99051 11.8465 1.92593 11.7317 1.81107C11.617 1.69622 11.5525 1.54049 11.5525 1.37812ZM12.9164 2.75625L15.0833 2.75625L15.0833 4.53928C14.3626 4.47081 13.6371 4.47081 12.9164 4.53928L12.9164 2.75625ZM13.9999 27.2344C11.2064 27.2357 8.51729 26.1732 6.47915 24.2629C4.44101 22.3526 3.20683 19.7378 3.02751 16.9501C2.84818 14.1624 3.73717 11.411 5.51375 9.2553C7.29034 7.09958 9.82117 5.7013 12.5918 5.34472C15.2393 5.00236 17.9208 5.63614 20.1349 7.12753C20.8713 7.62945 21.5467 8.21541 22.1474 8.87359C23.5756 10.45 24.5154 12.4071 24.8527 14.5073C25.19 16.6076 24.9102 18.7606 24.0475 20.7049C23.1847 22.6492 21.776 24.3012 19.9924 25.4602C18.2088 26.6193 16.127 27.2357 13.9999 27.2344ZM25.6798 7.32353C25.5554 7.4277 25.3948 7.47825 25.2331 7.4641C25.0715 7.44996 24.9221 7.37226 24.8177 7.24806L22.4585 4.43559C22.3543 4.31119 22.3037 4.1505 22.3178 3.98882C22.332 3.82714 22.4097 3.67769 22.534 3.57328C22.5952 3.52108 22.6663 3.48171 22.743 3.45751C22.8197 3.43331 22.9005 3.42478 22.9806 3.43241C23.0608 3.43915 23.1389 3.46176 23.2102 3.49894C23.2816 3.53612 23.3448 3.58712 23.3963 3.64897L25.7555 6.46056C25.8597 6.58499 25.9103 6.7457 25.8961 6.90738C25.8819 7.06906 25.8041 7.2185 25.6798 7.32288L25.6798 7.32353Z" fill="white"/>
<path d="M14 9.55675C14.1015 9.55675 14.1989 9.51642 14.2707 9.44463C14.3425 9.37284 14.3828 9.27547 14.3828 9.17394L14.3828 8.18956C14.3828 8.08803 14.3425 7.99066 14.2707 7.91887C14.1989 7.84708 14.1015 7.80675 14 7.80675C13.8985 7.80675 13.8011 7.84708 13.7293 7.91887C13.6575 7.99066 13.6172 8.08803 13.6172 8.18956L13.6172 9.17394C13.6172 9.27547 13.6575 9.37284 13.7293 9.44463C13.8011 9.51642 13.8985 9.55675 14 9.55675Z" fill="white"/>
<path d="M10.305 9.07813C10.28 9.03424 10.2466 8.99572 10.2067 8.96479C10.1668 8.93386 10.1212 8.91112 10.0725 8.89789C10.0237 8.88467 9.97289 8.88121 9.92283 8.88771C9.87276 8.89422 9.82448 8.91057 9.78076 8.93581C9.73704 8.96105 9.69874 8.99469 9.66807 9.0348C9.63741 9.0749 9.61498 9.12068 9.60207 9.16948C9.58917 9.21829 9.58605 9.26917 9.59288 9.31919C9.59972 9.36921 9.61639 9.41738 9.64192 9.46094L10.1341 10.3141C10.1852 10.4013 10.2688 10.4647 10.3665 10.4906C10.4642 10.5164 10.5682 10.5025 10.6558 10.452C10.7433 10.4014 10.8073 10.3183 10.8338 10.2208C10.8603 10.1232 10.8471 10.0191 10.7971 9.93125L10.305 9.07813Z" fill="white"/>
<path d="M8.06968 12.3767L7.21655 11.8845C7.12867 11.8345 7.0246 11.8213 6.92704 11.8478C6.82949 11.8743 6.74637 11.9383 6.69582 12.0258C6.64528 12.1134 6.63141 12.2174 6.65725 12.3151C6.68309 12.4128 6.74653 12.4964 6.83374 12.5475L7.68686 13.0397C7.74484 13.0734 7.81075 13.0912 7.87783 13.0911C7.96217 13.0912 8.0442 13.0635 8.11116 13.0122C8.17813 12.961 8.22629 12.889 8.24816 12.8076C8.27003 12.7261 8.26439 12.6397 8.23212 12.5618C8.19984 12.4839 8.14274 12.4188 8.06968 12.3767Z" fill="white"/>
<path d="M7.31397 16.2426C7.31399 16.1923 7.30411 16.1426 7.28488 16.0961C7.26566 16.0496 7.23746 16.0074 7.20191 15.9719C7.16635 15.9363 7.12414 15.9081 7.07768 15.8889C7.03122 15.8697 6.98143 15.8598 6.93115 15.8598L5.94678 15.8598C5.84525 15.8598 5.74788 15.9001 5.67609 15.9719C5.6043 16.0437 5.56396 16.1411 5.56396 16.2426C5.56396 16.3442 5.6043 16.4415 5.67609 16.5133C5.74788 16.5851 5.84525 16.6254 5.94678 16.6254L6.93115 16.6254C6.98143 16.6255 7.03122 16.6156 7.07768 16.5964C7.12414 16.5771 7.16635 16.5489 7.20191 16.5134C7.23746 16.4778 7.26566 16.4356 7.28488 16.3892C7.30411 16.3427 7.31399 16.2929 7.31397 16.2426Z" fill="white"/>
<path d="M7.68686 19.4456L6.83374 19.9377C6.74653 19.9889 6.68309 20.0724 6.65725 20.1701C6.63141 20.2679 6.64528 20.3719 6.69582 20.4594C6.74637 20.547 6.82949 20.6109 6.92704 20.6374C7.0246 20.6639 7.12867 20.6507 7.21655 20.6008L8.06968 20.1086C8.15688 20.0575 8.22033 19.9739 8.24617 19.8762C8.27201 19.7785 8.25814 19.6745 8.20759 19.5869C8.15705 19.4994 8.07393 19.4354 7.97637 19.4089C7.87882 19.3824 7.77474 19.3956 7.68686 19.4456Z" fill="white"/>
<path d="M10.6568 22.0329C10.5688 21.9822 10.4643 21.9684 10.3663 21.9947C10.2682 22.0209 10.1846 22.0851 10.1337 22.1729L9.64154 23.0261C9.59083 23.114 9.57711 23.2185 9.6034 23.3165C9.6297 23.4145 9.69385 23.4981 9.78176 23.5489C9.83974 23.5826 9.90564 23.6004 9.97273 23.6003C10.04 23.6004 10.1061 23.5827 10.1643 23.5491C10.2226 23.5155 10.271 23.4671 10.3046 23.4089L10.7968 22.5558C10.8219 22.5122 10.8383 22.4642 10.8449 22.4144C10.8515 22.3645 10.8482 22.3139 10.8352 22.2653C10.8222 22.2168 10.7997 22.1712 10.7691 22.1314C10.7385 22.0915 10.7003 22.058 10.6568 22.0329Z" fill="white"/>
<path d="M14 22.9285C13.8985 22.9285 13.8011 22.9688 13.7293 23.0406C13.6575 23.1124 13.6172 23.2098 13.6172 23.3113L13.6172 24.2957C13.6172 24.3972 13.6575 24.4946 13.7293 24.5664C13.8011 24.6382 13.8985 24.6785 14 24.6785C14.1015 24.6785 14.1989 24.6382 14.2707 24.5664C14.3425 24.4946 14.3828 24.3972 14.3828 24.2957L14.3828 23.3113C14.3828 23.2098 14.3425 23.1124 14.2707 23.0406C14.1989 22.9688 14.1015 22.9285 14 22.9285Z" fill="white"/>
<path d="M17.8659 22.1729C17.8148 22.0857 17.7312 22.0223 17.6335 21.9964C17.5358 21.9706 17.4318 21.9845 17.3442 22.035C17.2567 22.0856 17.1927 22.1687 17.1662 22.2662C17.1397 22.3638 17.1529 22.4679 17.2029 22.5557L17.695 23.4089C17.7287 23.4671 17.777 23.5155 17.8353 23.5491C17.8935 23.5827 17.9596 23.6004 18.0269 23.6003C18.094 23.6004 18.1599 23.5826 18.2179 23.5489C18.3058 23.4981 18.3699 23.4145 18.3962 23.3165C18.4225 23.2185 18.4088 23.114 18.3581 23.0261L17.8659 22.1729Z" fill="white"/>
<path d="M21.1659 19.9377L20.3127 19.4456C20.2249 19.3956 20.1208 19.3824 20.0232 19.4089C19.9257 19.4354 19.8426 19.4994 19.792 19.5869C19.7415 19.6745 19.7276 19.7785 19.7534 19.8762C19.7793 19.9739 19.8427 20.0575 19.9299 20.1086L20.7831 20.6008C20.8709 20.6507 20.975 20.6639 21.0726 20.6374C21.1701 20.6109 21.2532 20.547 21.3038 20.4594C21.3543 20.3719 21.3682 20.2679 21.3424 20.1701C21.3165 20.0724 21.2531 19.9889 21.1659 19.9377Z" fill="white"/>
<path d="M20.6855 16.2426C20.6857 16.3441 20.726 16.4413 20.7978 16.513C20.8696 16.5847 20.9669 16.625 21.0684 16.625L22.0527 16.625C22.1543 16.625 22.2516 16.5847 22.3234 16.5129C22.3952 16.4411 22.4355 16.3437 22.4355 16.2422C22.4355 16.1407 22.3952 16.0433 22.3234 15.9715C22.2516 15.8997 22.1543 15.8594 22.0527 15.8594L21.0684 15.8594C21.0181 15.8594 20.9682 15.8693 20.9218 15.8886C20.8753 15.9078 20.8331 15.9361 20.7975 15.9717C20.762 16.0072 20.7338 16.0495 20.7146 16.096C20.6953 16.1425 20.6855 16.1923 20.6855 16.2426Z" fill="white"/>
<path d="M19.7901 12.8997C19.8237 12.9579 19.8721 13.0063 19.9304 13.0399C19.9886 13.0735 20.0547 13.0912 20.122 13.0911C20.1891 13.0912 20.255 13.0734 20.3129 13.0397L21.1661 12.5475C21.2533 12.4964 21.3167 12.4128 21.3426 12.3151C21.3684 12.2174 21.3545 12.1134 21.304 12.0258C21.2534 11.9383 21.1703 11.8743 21.0728 11.8478C20.9752 11.8213 20.8711 11.8345 20.7833 11.8845L19.9301 12.3767C19.8866 12.4018 19.8484 12.4353 19.8178 12.4752C19.7872 12.5151 19.7648 12.5606 19.7518 12.6092C19.7388 12.6577 19.7355 12.7084 19.7421 12.7582C19.7486 12.8081 19.765 12.8562 19.7901 12.8997Z" fill="white"/>
<path d="M17.3427 10.4523C17.3862 10.4775 17.4343 10.4939 17.4842 10.5004C17.534 10.507 17.5847 10.5037 17.6333 10.4907C17.6818 10.4777 17.7274 10.4553 17.7673 10.4247C17.8072 10.3941 17.8406 10.3559 17.8657 10.3123L18.3579 9.45919C18.3835 9.41563 18.4001 9.36746 18.407 9.31744C18.4138 9.26742 18.4107 9.21654 18.3978 9.16773C18.3849 9.11893 18.3624 9.07315 18.3318 9.03305C18.3011 8.99294 18.2628 8.9593 18.2191 8.93406C18.1754 8.90882 18.1271 8.89247 18.077 8.88596C18.027 8.87945 17.9761 8.88291 17.9274 8.89614C17.8787 8.90937 17.833 8.9321 17.7931 8.96304C17.7532 8.99397 17.7199 9.03249 17.6949 9.07637L17.2027 9.9295C17.1776 9.97302 17.1612 10.0211 17.1547 10.0709C17.1481 10.1207 17.1514 10.1714 17.1644 10.2199C17.1774 10.2685 17.1998 10.314 17.2304 10.3539C17.261 10.3937 17.2992 10.4272 17.3427 10.4523Z" fill="white"/>
<path d="M18.1969 15.8594L15.706 15.8594C15.6329 15.5361 15.4698 15.2402 15.2354 15.0059C15.0011 14.7715 14.7052 14.6084 14.3819 14.5353L14.3819 11.4297C14.3819 11.3282 14.3416 11.2308 14.2698 11.159C14.198 11.0872 14.1006 11.0469 13.9991 11.0469C13.8976 11.0469 13.8002 11.0872 13.7284 11.159C13.6566 11.2308 13.6163 11.3282 13.6163 11.4297L13.6163 14.5359C13.3104 14.6043 13.0285 14.7536 12.8 14.9681C12.5716 15.1827 12.4049 15.4547 12.3175 15.7557C12.2301 16.0567 12.2251 16.3756 12.3031 16.6792C12.3811 16.9828 12.5391 17.2598 12.7608 17.4814C12.9825 17.703 13.2596 17.861 13.5632 17.9389C13.8668 18.0168 14.1857 18.0117 14.4867 17.9242C14.7876 17.8367 15.0596 17.6699 15.2741 17.4414C15.4886 17.2129 15.6377 16.9309 15.706 16.625L18.1969 16.625C18.2985 16.625 18.3958 16.5847 18.4676 16.5129C18.5394 16.4411 18.5797 16.3437 18.5797 16.2422C18.5797 16.1407 18.5394 16.0433 18.4676 15.9715C18.3958 15.8997 18.2985 15.8594 18.1969 15.8594ZM13.9998 17.2274C13.8051 17.2274 13.6148 17.1697 13.4529 17.0615C13.291 16.9534 13.1648 16.7996 13.0903 16.6198C13.0158 16.4399 12.9963 16.242 13.0343 16.051C13.0723 15.8601 13.166 15.6847 13.3037 15.547C13.4414 15.4093 13.6168 15.3156 13.8077 15.2776C13.9987 15.2396 14.1966 15.2591 14.3765 15.3336C14.5563 15.4081 14.7101 15.5343 14.8183 15.6962C14.9264 15.8581 14.9841 16.0484 14.9841 16.2431C14.9837 16.504 14.8798 16.7541 14.6953 16.9386C14.5108 17.1231 14.2607 17.227 13.9998 17.2274Z" fill="white"/>
</g>
<defs>
<clipPath id="clip0_2451_27361">
<rect width="28" height="28" fill="white"/>
</clipPath>
</defs>
</svg>
