<svg width="20" height="20" viewBox="0 0 20 20" fill="none" xmlns="http://www.w3.org/2000/svg">
<path d="M7.28428 7.65321C7.90787 9.1121 9.80374 9.83396 11.2339 9.129C13.1457 8.35138 13.5817 5.54463 12.0322 4.22379C9.6685 2.02054 5.94048 4.69643 7.28428 7.65321Z" fill="#14D15D"/>
<path d="M13.254 10.629C12.6549 10.2483 11.9254 10.0435 11.1854 10.0363C11.0975 10.0339 8.59468 10.0286 8.59674 10.0484C6.54653 10.1431 4.88252 11.875 4.88302 13.9678C4.91781 14.3143 4.82653 15.3672 4.9375 15.6915C5.15517 16.623 5.99592 17.3246 6.99992 17.3246H13C14.1777 17.3296 15.1284 16.3462 15.1169 15.2077V13.9677C15.1113 12.5686 14.3795 11.319 13.254 10.629Z" fill="#14D15D"/>
<path d="M2.65118 15.6915H4.01813C3.94008 15.3752 3.98853 14.2196 3.97579 13.877C4.02087 11.7495 5.43758 9.92896 7.42943 9.32861C7.25006 9.18636 7.09255 8.99642 6.94557 8.82659C6.80644 8.80844 6.67946 8.80237 6.54033 8.80237H4.33266C2.28832 8.80237 0.625 10.4657 0.625 12.51V13.6653C0.625 14.7842 1.53225 15.6915 2.65118 15.6915Z" fill="#14D15D"/>
<path d="M5.43957 8.34874C5.82062 8.34874 6.17745 8.27618 6.51013 8.13706C6.23357 7.58096 6.07617 6.92899 6.11092 6.27419C6.14262 5.20497 6.63804 4.18225 7.42947 3.49194C5.73014 1.73501 2.54319 3.03547 2.59686 5.51221C2.59682 7.07257 3.87303 8.34874 5.43957 8.34874Z" fill="#14D15D"/>
<path d="M15.6673 8.80237H13.4597C13.0252 8.70972 12.8633 9.09099 12.5706 9.32869C13.3811 9.57054 14.1008 10.0181 14.6693 10.6169C15.4859 11.4637 16 12.6129 16.0242 13.877C16.0119 14.2239 16.0588 15.364 15.9819 15.6915C15.9819 15.6915 17.3488 15.6915 17.3488 15.6915C18.4677 15.6915 19.375 14.7842 19.375 13.6653V12.51C19.375 10.4657 17.7117 8.80237 15.6673 8.80237Z" fill="#14D15D"/>
<path d="M13.6472 5.0585C13.8106 5.47861 13.8899 5.94389 13.8951 6.41332C13.8951 7.03023 13.75 7.61693 13.4899 8.13707C13.8226 8.2762 14.1794 8.34875 14.5605 8.34875C18.3173 8.22656 18.316 2.79322 14.5604 2.67542C13.7863 2.67542 13.0847 2.9899 12.5706 3.49195C13.0484 3.90928 13.4234 4.44761 13.6472 5.0585Z" fill="#14D15D"/>
</svg>
