<svg width="15" height="15" viewBox="0 0 15 15" fill="none" xmlns="http://www.w3.org/2000/svg">
<g clip-path="url(#clip0_1847_312)">
<path d="M14.5505 9.14376L13.1718 8.06563C13.1892 7.89937 13.2043 7.70502 13.2043 7.49938C13.2043 7.29375 13.1899 7.09939 13.1718 6.93314L14.5518 5.85439C14.808 5.65189 14.878 5.29251 14.7149 4.99315L13.2811 2.5125C13.128 2.23251 12.7924 2.08875 12.4518 2.21438L10.8249 2.86749C10.513 2.64249 10.1861 2.4525 9.848 2.30063L9.6005 0.57501C9.55986 0.2475 9.27487 0 8.93801 0H6.06302C5.72613 0 5.44178 0.2475 5.40176 0.57L5.15364 2.30188C4.82613 2.44939 4.50428 2.63689 4.17864 2.86875L2.54739 2.21376C2.24174 2.09563 1.87612 2.22812 1.72424 2.50688L0.288635 4.99063C0.119269 5.27689 0.18926 5.64876 0.451144 5.85627L1.82988 6.93439C1.808 7.14501 1.79739 7.32814 1.79739 7.50003C1.79739 7.67191 1.80803 7.85502 1.82988 8.06628L0.449885 9.14502C0.193625 9.34813 0.12425 9.70752 0.287375 10.0063L1.72113 12.4869C1.87427 12.7663 2.20676 12.9113 2.5505 12.785L4.17738 12.1319C4.48863 12.3563 4.8155 12.5463 5.15364 12.6988L5.40114 14.4238C5.44175 14.7525 5.72613 15 6.06363 15H8.93863C9.27551 15 9.56051 14.7525 9.6005 14.43L9.84862 12.6988C10.1761 12.5506 10.4974 12.3637 10.8236 12.1312L12.4549 12.7862C12.5336 12.8169 12.6155 12.8325 12.6999 12.8325C12.9424 12.8325 13.1655 12.7 13.278 12.4937L14.718 9.99999C14.878 9.70749 14.808 9.34813 14.5505 9.14376ZM7.5005 9.99999C6.12176 9.99999 5.00051 8.87874 5.00051 7.5C5.00051 6.12126 6.12176 5.00001 7.5005 5.00001C8.87924 5.00001 10.0005 6.12126 10.0005 7.5C10.0005 8.87874 8.87924 9.99999 7.5005 9.99999Z" fill="#474747"/>
</g>
<defs>
<clipPath id="clip0_1847_312">
<rect width="15" height="15" fill="white"/>
</clipPath>
</defs>
</svg>
