<svg width="22" height="22" viewBox="0 0 22 22" fill="none" xmlns="http://www.w3.org/2000/svg">
<path d="M0.00427246 14.6824C0.0515385 12.6414 0.674585 9.91718 1.67146 7.39492C2.12693 6.23906 2.62107 5.24648 3.09802 4.5289C3.73396 3.5664 4.30544 3.11952 4.90701 3.11952C5.24646 3.11952 5.55154 3.10663 5.84373 3.09374C6.58279 3.06366 7.22302 3.03788 7.77732 3.26562C8.3488 3.50195 8.67966 3.94452 8.88162 4.3871H13.1183C13.3203 3.94452 13.6511 3.50195 14.2226 3.26562C14.7812 3.03788 15.4172 3.06366 16.1562 3.09374C16.4527 3.10663 16.7578 3.11952 17.0929 3.11952C17.6945 3.11952 18.266 3.5664 18.9019 4.5289C19.3789 5.25077 19.8687 6.24335 20.3285 7.39921C21.3254 9.91718 21.9484 12.6414 21.9957 14.6867C22.0773 18.2703 20.3886 18.8805 19.3746 18.9277H19.2844C18.2703 18.9277 17.1574 18.15 15.8898 16.5601C15.2926 15.8125 14.8113 15.0648 14.5492 14.6437H7.45076C7.19294 15.0648 6.7074 15.8082 6.11013 16.5601C4.79959 18.1973 3.66091 18.975 2.62537 18.9277C1.6113 18.8805 -0.0773678 18.266 0.00427246 14.6824ZM9.43591 5.7621C9.86131 6.44531 10.4801 6.70312 11 6.70312C11.5199 6.70312 12.1386 6.44101 12.564 5.7621H9.43591ZM1.43943 15.9285C1.67146 17.5055 2.41052 17.5398 2.68552 17.5527C2.87888 17.5613 3.63083 17.4539 5.02302 15.7137C5.84373 14.6867 6.45388 13.6254 6.46248 13.6168C6.58709 13.4019 6.81052 13.2687 7.05974 13.2687H14.9402C15.1851 13.2687 15.4129 13.4019 15.5375 13.6125C15.5418 13.6211 16.1519 14.6824 16.9769 15.7094C18.3691 17.4496 19.1211 17.557 19.3144 17.5484C19.5937 17.5355 20.3285 17.5012 20.5605 15.9242C20.7969 14.3086 20.3629 11.6187 19.4261 8.90742C19.0094 7.70859 18.5238 6.5957 18.0554 5.7707C17.4711 4.74374 17.1316 4.5246 17.0629 4.49023C16.7105 4.49023 16.3883 4.47734 16.1047 4.46445C14.7426 4.40859 14.4976 4.39999 14.2183 5.37538C13.75 7.02109 12.4867 8.07812 11 8.07812C9.51326 8.07812 8.24998 7.01679 7.78162 5.37538C7.50232 4.39999 7.2574 4.40859 5.89529 4.46445C5.6117 4.47734 5.28943 4.49023 4.93709 4.49023C4.86834 4.5246 4.52459 4.74374 3.94451 5.7707C3.47615 6.5957 2.9906 7.70859 2.5738 8.90742C1.63708 11.6187 1.2031 14.3086 1.43943 15.9285ZM13.8445 9.8871C13.8445 10.2652 14.1539 10.5746 14.532 10.5746H15.4V11.4426C15.4 11.8207 15.7094 12.1301 16.0875 12.1301C16.4656 12.1301 16.775 11.8207 16.775 11.4426V10.5746H17.6429C18.0211 10.5746 18.3304 10.2652 18.3304 9.8871C18.3304 9.50898 18.0211 9.1996 17.6429 9.1996H16.775V8.33163C16.775 7.95351 16.4656 7.64413 16.0875 7.64413C15.7094 7.64413 15.4 7.95351 15.4 8.33163V9.1996H14.532C14.1496 9.1996 13.8445 9.50468 13.8445 9.8871ZM5.22498 8.32734V8.49921C5.22498 8.87734 5.53435 9.18671 5.91248 9.18671C6.2906 9.18671 6.59998 8.87734 6.59998 8.49921V8.32734C6.59998 7.94921 6.2906 7.63984 5.91248 7.63984C5.53435 7.63984 5.22498 7.94921 5.22498 8.32734ZM5.22498 11.275V11.4426C5.22498 11.8207 5.53435 12.1301 5.91248 12.1301C6.2906 12.1301 6.59998 11.8207 6.59998 11.4426V11.275C6.59998 10.8969 6.2906 10.5875 5.91248 10.5875C5.53435 10.5875 5.22498 10.8926 5.22498 11.275ZM3.66951 9.8871C3.66951 10.2652 3.97888 10.5746 4.35701 10.5746H4.52888C4.90701 10.5746 5.21638 10.2652 5.21638 9.8871C5.21638 9.50898 4.90701 9.1996 4.52888 9.1996H4.35701C3.97458 9.1996 3.66951 9.50468 3.66951 9.8871ZM6.61287 9.8871C6.61287 10.2652 6.92224 10.5746 7.30037 10.5746H7.46794C7.84607 10.5746 8.15544 10.2652 8.15544 9.8871C8.15544 9.50898 7.84607 9.1996 7.46794 9.1996H7.30037C6.92224 9.1996 6.61287 9.50468 6.61287 9.8871Z" fill="#6D87F7"/>
</svg>
