<svg width="23" height="23" viewBox="0 0 23 23" fill="none" xmlns="http://www.w3.org/2000/svg">
<g clip-path="url(#clip0_1847_106)">
<path d="M10.9574 18.3788L10.9085 18.2944L10.813 18.3146C10.54 18.3727 10.2616 18.4024 9.98245 18.403C8.22057 18.403 7.00031 17.1707 6.56053 16.6458L7.67131 16.7274L7.46992 16.4839C7.24171 16.2039 7.03585 15.9064 6.85427 15.5941C6.38376 14.7961 6.24612 14.13 6.2135 13.7119C6.19727 13.5221 6.20149 13.3312 6.22608 13.1424L7.33938 13.6365L7.08355 13.2511C7.07816 13.2431 6.54 12.4165 6.33363 11.0406C6.17604 9.98991 6.37145 9.00082 6.47455 8.58596L7.47949 9.48808L7.43196 9.12673C7.4308 9.11802 7.33592 8.33867 7.62216 7.20489C6.47392 6.88724 5.6717 6.9261 5.6717 6.9261L5.62885 8.16815C5.62885 8.16815 5.00349 7.61659 3.5548 7.72117C1.65218 7.85859 0.467187 8.46993 0.467187 8.46993C0.467187 8.46993 0.192131 9.77487 0.564488 11.6459C0.84799 13.0704 1.54572 13.527 1.54572 13.527L0.359375 13.8978C0.359375 13.8978 0.548945 14.7461 1.22188 15.8294C1.90469 16.9289 2.94112 17.674 2.94112 17.674L1.82203 17.8084C1.82203 17.8084 2.63292 18.8524 3.58876 19.4425C4.75094 20.16 5.68033 20.255 5.68033 20.255L4.80386 20.8617C4.80386 20.8617 5.83585 21.4837 7.10961 21.5908C8.38337 21.6979 9.22035 21.3899 9.22035 21.3899L8.72477 22.0402C8.72477 22.0402 9.61391 22.5533 11.1888 22.0675C11.5012 21.9734 11.8057 21.8547 12.0993 21.7126L11.8063 22.6406C11.8063 22.6406 13.5005 22.0009 14.1643 20.3783C13.1415 20.2568 11.786 19.8067 10.9574 18.3788Z" fill="#4BA55A"/>
<path d="M6.82938 16.9426C6.39392 17.0851 5.94685 17.1893 5.49327 17.2541C4.83665 17.3468 4.05811 17.3725 4.05034 17.3728C3.95502 17.3743 3.86421 17.4135 3.79786 17.482C3.73152 17.5504 3.69509 17.6424 3.69658 17.7378C3.69807 17.8331 3.73736 17.9239 3.80581 17.9902C3.87426 18.0566 3.96626 18.093 4.06157 18.0915C4.06548 18.0915 4.06934 18.0915 4.07325 18.0915C4.10658 18.0904 4.8977 18.0643 5.59367 17.9662C6.22704 17.8757 6.84864 17.7163 7.44742 17.4909C7.22818 17.3236 7.0216 17.1404 6.82938 16.9426Z" fill="#2D873C"/>
<path d="M6.17279 13.2695L6.21035 13.2981C6.21444 13.238 6.2201 13.1855 6.22616 13.1422L7.33946 13.6363L7.08363 13.2509C7.01793 13.1452 6.95819 13.0359 6.90471 12.9236L6.60845 12.6978C6.6164 12.587 6.62507 12.436 6.63005 12.2564C6.49443 11.861 6.39519 11.4539 6.33357 11.0404C6.26198 10.5318 6.2552 10.0163 6.3134 9.50601C6.25253 9.24204 6.21457 9.09722 6.21196 9.08688C6.18769 8.99476 6.12783 8.91605 6.04555 8.86805C5.96326 8.82004 5.86529 8.80667 5.77315 8.83087C5.68101 8.85507 5.60225 8.91487 5.55418 8.99712C5.50611 9.07937 5.49267 9.17734 5.5168 9.26949C5.51788 9.27363 5.62704 9.6914 5.77582 10.419C5.90326 11.0424 5.92177 11.6981 5.91216 12.1673L4.4106 11.0231C4.38756 10.7277 4.34687 10.4341 4.28877 10.1436C4.13554 9.39428 4.02539 8.97301 4.02077 8.95544C3.99649 8.86332 3.93663 8.78461 3.85435 8.7366C3.77207 8.6886 3.67409 8.67523 3.58195 8.69943C3.48981 8.72363 3.41105 8.78343 3.36298 8.86568C3.31491 8.94792 3.30147 9.04589 3.3256 9.13805C3.32668 9.14218 3.43579 9.55996 3.58457 10.2876C3.59293 10.3283 3.60079 10.3698 3.60838 10.4118L1.49598 8.80212C1.45844 8.77351 1.41563 8.75258 1.37001 8.74051C1.32438 8.72844 1.27682 8.72548 1.23005 8.73179C1.18327 8.7381 1.1382 8.75356 1.0974 8.77729C1.0566 8.80102 1.02088 8.83255 0.992267 8.87009C0.963656 8.90763 0.942718 8.95043 0.93065 8.99606C0.918581 9.04169 0.915618 9.08925 0.921929 9.13602C0.92824 9.1828 0.943703 9.22787 0.967433 9.26867C0.991163 9.30947 1.0227 9.34519 1.06023 9.3738L3.17156 10.9827C3.12974 10.9864 3.08729 10.9909 3.0465 10.9936C2.30529 11.043 1.87372 11.0488 1.86955 11.0488C1.77423 11.0494 1.68304 11.0877 1.61604 11.1555C1.54903 11.2233 1.51169 11.3149 1.51224 11.4102C1.51279 11.5056 1.55117 11.5967 1.61896 11.6638C1.68674 11.7308 1.77837 11.7681 1.87368 11.7676H1.87781C1.89601 11.7676 2.33152 11.7618 3.09448 11.7107C3.39002 11.6897 3.68403 11.651 3.97495 11.5948L5.47659 12.7391C5.0267 12.8729 4.38948 13.029 3.75474 13.0715C3.0138 13.1211 2.58228 13.1267 2.57778 13.1268C2.53059 13.1271 2.48391 13.1366 2.44041 13.1549C2.39691 13.1732 2.35745 13.1999 2.32427 13.2335C2.25725 13.3013 2.21991 13.3929 2.22045 13.4882C2.22072 13.5354 2.23028 13.5821 2.24859 13.6256C2.2669 13.6691 2.2936 13.7086 2.32716 13.7417C2.39494 13.8087 2.48656 13.8461 2.58187 13.8455H2.5861C2.60406 13.8455 3.03981 13.8398 3.80276 13.7888C4.80016 13.7218 5.77016 13.4121 6.17279 13.2695Z" fill="#2D873C"/>
<path d="M9.98263 18.403C9.80839 18.4028 9.63438 18.3905 9.46185 18.3661C8.90103 18.7129 8.30898 19.0064 7.69345 19.2427C7.33354 19.3814 6.84654 19.4718 6.58838 19.5136C6.4991 19.5279 6.41847 19.5752 6.36258 19.6463C6.30668 19.7173 6.27961 19.8068 6.28678 19.897C6.29394 19.9871 6.33481 20.0712 6.40123 20.1325C6.46765 20.1939 6.55475 20.2279 6.64516 20.2279C6.66446 20.2279 6.68373 20.2264 6.70279 20.2234C7.05206 20.167 7.55226 20.0676 7.95198 19.9134C8.97008 19.5276 9.92428 18.9906 10.7825 18.3207C10.5193 18.3748 10.2513 18.4023 9.98263 18.403Z" fill="#2D873C"/>
<path d="M6.73689 15.3836C6.62313 15.1718 6.52466 14.9521 6.44221 14.7262C6.01622 14.9005 5.57321 15.03 5.12038 15.1125C3.91544 15.3192 3.22863 15.3008 3.21219 15.3002C3.11694 15.2967 3.02422 15.3313 2.95443 15.3962C2.88465 15.4611 2.84351 15.5511 2.84008 15.6464C2.83664 15.7416 2.87118 15.8343 2.93611 15.9041C3.00103 15.9739 3.09102 16.015 3.18627 16.0185C3.19202 16.0185 3.2227 16.0196 3.27746 16.0196C3.51249 16.0196 4.19081 16.0011 5.2418 15.8209C5.75415 15.7281 6.25529 15.5816 6.73689 15.3836Z" fill="#2D873C"/>
<path d="M11.8582 19.4473C11.6947 19.5847 11.5168 19.7239 11.3178 19.8679C10.9084 20.1644 10.3924 20.3831 10.1211 20.4871C10.077 20.504 10.0367 20.5294 10.0025 20.5618C9.96824 20.5943 9.94072 20.6332 9.92151 20.6763C9.88271 20.7634 9.88008 20.8623 9.9142 20.9513C9.94832 21.0403 10.0164 21.1121 10.1035 21.1509C10.1905 21.1897 10.2894 21.1923 10.3784 21.1582C10.6825 21.0414 11.2634 20.7946 11.7393 20.4501C12.019 20.2476 12.2608 20.0542 12.4783 19.8628C12.2587 19.7446 12.0511 19.6055 11.8582 19.4473Z" fill="#2D873C"/>
<path d="M19.449 16.9416C20.6546 16.1456 21.3407 14.971 21.3407 14.971L20.1413 14.8452C20.1413 14.8452 21.0118 14.2478 21.7751 12.9081C22.403 11.8064 22.6404 10.3341 22.6404 10.3341L21.4574 10.8074C21.4574 10.8074 22.0811 9.50843 22.1612 8.05063C22.2402 6.61416 21.9674 5.67202 21.9674 5.67202L20.5893 5.94766C20.5893 5.94766 21.0335 5.11781 20.541 3.55462C19.8942 1.50165 18.9125 0.359375 18.9125 0.359375C18.9125 0.359375 17.4045 0.39648 15.4421 1.29132C13.9479 1.97261 13.627 2.85703 13.627 2.85703L12.9099 1.65137C12.9099 1.65137 12.0256 2.07988 11.0082 3.09983C9.97582 4.13488 9.42567 5.46645 9.42567 5.46645L8.98637 4.27306C8.98637 4.27306 8.0485 5.43447 7.64793 6.63712C7.16088 8.09937 7.29839 9.14434 7.29839 9.14434L6.4022 8.33975C6.4022 8.33975 5.98645 9.63431 6.20036 11.0604C6.41428 12.4866 6.97122 13.3254 6.97122 13.3254L6.12629 12.9504C6.12629 12.9504 5.79319 14.06 6.73812 15.6625C6.92318 15.9811 7.13316 16.2845 7.36609 16.5699L6.26824 16.4893C6.26824 16.4893 7.99773 19.0469 10.8409 18.4465C12.2964 20.9551 15.3594 20.5249 15.3594 20.5249L14.5645 19.7653C14.933 19.7468 15.2995 19.6994 15.6606 19.6233C17.487 19.2508 18.0906 18.2615 18.0906 18.2615L17.2456 17.8864C17.2456 17.8864 18.2434 17.7376 19.449 16.9416Z" fill="#87E196"/>
<path d="M20.6978 11.3099C20.6765 11.2677 20.6471 11.2302 20.6113 11.1994C20.5755 11.1686 20.534 11.1452 20.4892 11.1305C20.4444 11.1157 20.397 11.11 20.35 11.1135C20.3029 11.1171 20.257 11.1298 20.2149 11.1511C20.207 11.1551 19.4183 11.5525 18.714 11.8176C16.7082 12.5722 14.8 12.4291 13.9725 12.3105L14.7276 10.6186C14.8381 10.6231 14.98 10.627 15.1473 10.627C15.8648 10.627 17.0428 10.5569 18.1524 10.1765C19.5542 9.69581 20.2608 9.27992 20.2902 9.26245C20.3715 9.21348 20.4301 9.13435 20.4533 9.04232C20.4764 8.9503 20.4622 8.85285 20.4138 8.77124C20.3654 8.68963 20.2867 8.63048 20.1948 8.6067C20.1029 8.58292 20.0054 8.59645 19.9235 8.64432C19.9168 8.64827 19.2423 9.04291 17.9192 9.49658C16.8584 9.86045 15.6956 9.91184 15.0454 9.90636L15.8255 8.1584C16.2837 8.08576 17.4315 7.86879 18.4717 7.3879C19.2554 7.02556 19.6891 6.79579 19.7073 6.78595C19.7899 6.74041 19.8513 6.66422 19.8782 6.57382C19.9051 6.48343 19.8954 6.38607 19.8512 6.30276C19.807 6.21944 19.7318 6.15685 19.6418 6.12849C19.5519 6.10013 19.4544 6.10827 19.3704 6.15116C19.3659 6.1534 18.9338 6.38223 18.1702 6.73514C17.4746 7.05723 16.7078 7.253 16.1812 7.36167L17.0946 5.31476C17.4188 5.2119 17.7364 5.08944 18.0457 4.94806C18.8294 4.58576 19.2631 4.35594 19.2813 4.34633C19.3639 4.30079 19.4253 4.2246 19.4523 4.13421C19.4792 4.04381 19.4695 3.94645 19.4253 3.86314C19.3811 3.77982 19.3059 3.71723 19.2159 3.68887C19.1259 3.66051 19.0284 3.66865 18.9444 3.71154C18.9402 3.71379 18.5078 3.94266 17.7443 4.29552C17.6664 4.33146 17.5858 4.36671 17.5024 4.40127L18.8704 1.33603C18.8899 1.29288 18.9007 1.2463 18.9022 1.19896C18.9037 1.15161 18.8958 1.10444 18.879 1.06016C18.8622 1.01588 18.8368 0.975359 18.8043 0.940927C18.7717 0.906496 18.7327 0.878833 18.6895 0.859532C18.6462 0.84023 18.5996 0.829669 18.5522 0.828456C18.5049 0.827244 18.4577 0.835404 18.4136 0.852466C18.3694 0.869529 18.329 0.895158 18.2947 0.92788C18.2605 0.960602 18.2331 0.999771 18.214 1.04313L16.8449 4.11081C16.8149 4.0259 16.7871 3.94236 16.7615 3.86019C16.5135 3.05815 16.3946 2.58467 16.3935 2.57991C16.3704 2.48744 16.3115 2.40792 16.2298 2.35885C16.1481 2.30978 16.0503 2.29518 15.9578 2.31826C15.8653 2.34135 15.7858 2.40022 15.7367 2.48194C15.6876 2.56365 15.673 2.66151 15.6961 2.75398C15.7011 2.7738 15.8202 3.24916 16.0749 4.07249C16.1766 4.39616 16.2978 4.71335 16.4381 5.02227L15.5239 7.07071C15.2524 6.60801 14.8849 5.90817 14.6588 5.17738C14.4108 4.37535 14.2919 3.90187 14.2908 3.89711C14.2794 3.85132 14.259 3.80823 14.2309 3.7703C14.2028 3.73237 14.1675 3.70035 14.1271 3.67606C14.0866 3.65177 14.0417 3.63569 13.995 3.62873C13.9484 3.62178 13.9008 3.62409 13.855 3.63553C13.8092 3.64697 13.7661 3.66732 13.7281 3.69542C13.6902 3.72351 13.6582 3.7588 13.6339 3.79927C13.6096 3.83974 13.5935 3.8846 13.5866 3.93129C13.5796 3.97797 13.5819 4.02557 13.5934 4.07136C13.5983 4.09117 13.7175 4.56654 13.9722 5.38987C14.3099 6.48192 14.9161 7.47734 15.169 7.86605L14.3885 9.61517C13.9495 9.13747 13.2091 8.24128 12.7698 7.21113C12.2232 5.92924 12.0653 5.16575 12.0634 5.156C12.0447 5.06253 11.9897 4.9803 11.9104 4.9274C11.8311 4.87451 11.7341 4.85527 11.6406 4.87394C11.5471 4.8926 11.4649 4.94763 11.412 5.02692C11.3591 5.10621 11.3399 5.20327 11.3585 5.29674C11.3652 5.33021 11.5284 6.13229 12.1087 7.49306C12.675 8.82091 13.6615 9.90919 14.0711 10.3265L13.3157 12.0193C12.6739 11.4859 11.2893 10.1677 10.5089 8.1757C10.2348 7.47653 10.0031 6.62625 10.0008 6.61776C9.98882 6.57185 9.96781 6.52878 9.93905 6.49104C9.91029 6.45329 9.87433 6.42161 9.83326 6.39784C9.79219 6.37406 9.74681 6.35865 9.69976 6.3525C9.6527 6.34636 9.60489 6.34959 9.55909 6.36202C9.51329 6.37445 9.4704 6.39582 9.43291 6.42491C9.39541 6.45401 9.36405 6.49023 9.34063 6.53151C9.31721 6.57279 9.3022 6.61829 9.29647 6.6654C9.29073 6.71251 9.29438 6.76029 9.30721 6.80598C9.317 6.84219 9.55118 7.70164 9.83966 8.43786C10.7536 10.7707 12.3925 12.2154 13.0118 12.7001L12.2746 14.352C11.9625 14.1723 11.6625 13.9723 11.3766 13.7532C10.7383 13.2681 9.79016 12.417 8.89792 11.1168C8.64928 10.7545 8.42117 10.24 8.30738 9.96561C8.2893 9.92201 8.26281 9.88241 8.22942 9.84905C8.19603 9.81569 8.1564 9.78924 8.11279 9.7712C8.06918 9.75315 8.02244 9.74388 7.97524 9.7439C7.92805 9.74392 7.88132 9.75324 7.83772 9.77132C7.79413 9.7894 7.75452 9.81589 7.72116 9.84928C7.6878 9.88267 7.66135 9.9223 7.64331 9.96591C7.62527 10.0095 7.61599 10.0563 7.61601 10.1035C7.61604 10.1507 7.62535 10.1974 7.64343 10.241C7.79563 10.6078 8.03394 11.1281 8.30527 11.5235C9.75458 13.6355 11.3394 14.6583 11.9801 15.012L11.2506 16.6467C10.4947 16.2843 9.79192 15.8201 9.16184 15.2672C8.55458 14.7448 8.0564 13.9481 8.04692 13.933C7.99627 13.8531 7.91615 13.7964 7.82396 13.7752C7.73176 13.754 7.63493 13.77 7.55446 13.8197C7.47399 13.8695 7.41637 13.9489 7.39412 14.0409C7.37187 14.1328 7.38676 14.2298 7.43558 14.3109C7.45804 14.3475 7.9971 15.2135 8.69339 15.8121C9.37574 16.4112 10.1376 16.9131 10.9575 17.3035L10.661 17.9684C10.6221 18.0554 10.6194 18.1543 10.6535 18.2433C10.6876 18.3323 10.7557 18.4042 10.8427 18.443C10.9297 18.4819 11.0287 18.4845 11.1177 18.4505C11.2067 18.4164 11.2785 18.3483 11.3174 18.2613L11.6146 17.5952C12.455 17.9418 13.3393 18.1707 14.2423 18.2753C14.4612 18.3018 14.6815 18.3145 14.902 18.3136C15.3375 18.3118 15.7721 18.2746 16.2015 18.2023C16.2949 18.1848 16.3775 18.1311 16.4314 18.0528C16.4852 17.9746 16.5059 17.8782 16.4889 17.7848C16.4719 17.6913 16.4186 17.6084 16.3406 17.5541C16.2626 17.4999 16.1663 17.4787 16.0728 17.4952C16.0635 17.4969 15.1315 17.663 14.332 17.5621C13.4992 17.4655 12.6834 17.2557 11.9074 16.9383L12.6369 15.3037C13.1599 15.4837 14.3311 15.8085 15.9736 15.8085C16.5497 15.808 17.1251 15.7691 17.6961 15.6923C18.1722 15.6288 18.719 15.4572 19.094 15.3245C19.1385 15.3088 19.1795 15.2844 19.2145 15.2528C19.2496 15.2213 19.2781 15.1831 19.2985 15.1405C19.3188 15.0979 19.3305 15.0517 19.333 15.0046C19.3355 14.9574 19.3287 14.9103 19.3129 14.8658C19.2972 14.8213 19.2728 14.7804 19.2412 14.7453C19.2096 14.7102 19.1715 14.6817 19.1289 14.6614C19.0863 14.641 19.0401 14.6293 18.993 14.6268C18.9458 14.6243 18.8987 14.6312 18.8542 14.6469C18.5735 14.7463 18.0375 14.9216 17.6009 14.9799C15.2879 15.2887 13.5941 14.8591 12.9318 14.643L13.6685 12.9923C14.2267 13.0856 14.7917 13.1316 15.3576 13.1297C16.5894 13.1344 17.812 12.9179 18.9672 12.4905C19.7084 12.2115 20.5055 11.8098 20.5391 11.7929C20.5812 11.7716 20.6188 11.7422 20.6496 11.7064C20.6803 11.6706 20.7038 11.6291 20.7185 11.5843C20.7333 11.5394 20.739 11.4921 20.7355 11.445C20.7319 11.3979 20.7191 11.352 20.6978 11.3099Z" fill="#69C378"/>
</g>
<defs>
<clipPath id="clip0_1847_106">
<rect width="23" height="23" fill="white"/>
</clipPath>
</defs>
</svg>
