<svg width="22" height="22" viewBox="0 0 22 22" fill="none" xmlns="http://www.w3.org/2000/svg">
<path d="M12.4832 21.3555C16.564 21.3555 19.8721 18.0473 19.8721 13.9665C19.8721 9.88572 16.564 6.57758 12.4832 6.57758C8.40238 6.57758 5.09424 9.88572 5.09424 13.9665C5.09424 18.0473 8.40238 21.3555 12.4832 21.3555Z" stroke="#6D87F7" stroke-width="1.28906" stroke-miterlimit="10"/>
<path d="M7.67236 13.9665C7.67236 11.8627 9.02279 10.0743 10.9041 9.42087" stroke="#6D87F7" stroke-width="1.28906" stroke-miterlimit="10"/>
<path d="M10.1191 7.06119V3.99945H14.8475V7.06119" stroke="#6D87F7" stroke-width="1.28906" stroke-miterlimit="10"/>
<path d="M12.4832 3.99945V3.11566C12.4832 1.75089 11.3768 0.644531 10.012 0.644531C8.64727 0.644531 7.54091 1.75089 7.54091 3.11566V3.85576C7.54091 4.56771 6.9638 5.14482 6.25185 5.14482H5.46118" stroke="#6D87F7" stroke-width="1.28906" stroke-miterlimit="10"/>
<path d="M4.54915 7.07535L2.71997 8.68178" stroke="#6D87F7" stroke-width="1.28906" stroke-miterlimit="10"/>
<path d="M1.4834 5.14484H4.1723" stroke="#6D87F7" stroke-width="1.28906" stroke-miterlimit="10"/>
<path d="M4.54915 3.2144L2.71997 1.60797" stroke="#6D87F7" stroke-width="1.28906" stroke-miterlimit="10"/>
</svg>
