<svg width="26" height="26" viewBox="0 0 26 26" fill="none" xmlns="http://www.w3.org/2000/svg">
<path d="M15.3716 20.2097C14.8973 20.2097 14.437 19.8408 13.9943 19.4859C13.643 19.2119 13.2565 18.8992 13 18.8992C12.7435 18.8992 12.3535 19.2119 12.0057 19.4859C11.4892 19.9005 10.9516 20.3292 10.3965 20.1886C9.84135 20.0481 9.56027 19.3805 9.31432 18.7481C9.15973 18.3511 8.96297 17.8978 8.77675 17.7819C8.59054 17.6659 8.07405 17.7327 7.64892 17.7819C6.98837 17.8803 6.29973 17.9857 5.89216 17.5676C5.48459 17.1494 5.57594 16.4643 5.67783 15.8108C5.74108 15.3822 5.81486 14.8938 5.67783 14.6865C5.54081 14.4792 5.10864 14.3035 4.7081 14.1489C4.07567 13.8994 3.42567 13.6465 3.27108 13.0667C3.11648 12.487 3.54864 11.974 3.97378 11.454C4.25135 11.1027 4.56405 10.7162 4.56405 10.4632C4.56405 10.2103 4.25135 9.81674 3.97378 9.46891C3.5627 8.95242 3.13405 8.41485 3.27108 7.8562C3.4081 7.29756 4.07567 7.0235 4.7081 6.77756C5.10864 6.61945 5.56189 6.44377 5.67783 6.23999C5.79378 6.0362 5.72702 5.53729 5.67783 5.11215C5.57594 4.4481 5.47405 3.76296 5.89216 3.35539C6.31027 2.94783 6.9954 3.04269 7.64892 3.14107C8.08108 3.20783 8.56594 3.2781 8.77675 3.14107C8.98756 3.00404 9.15621 2.56837 9.31432 2.17134C9.56027 1.53891 9.81675 0.888907 10.3965 0.730799C10.9762 0.572691 11.4892 1.01188 12.0057 1.4335C12.357 1.70756 12.7435 2.02026 13 2.02026C13.2565 2.02026 13.6465 1.70756 13.9943 1.4335C14.5108 1.01891 15.0484 0.593772 15.6035 0.730799C16.1586 0.867826 16.4397 1.53891 16.6857 2.17134C16.8403 2.56837 17.0195 3.02161 17.2232 3.14107C17.427 3.26053 17.9259 3.19026 18.3511 3.14107C19.0116 3.04269 19.7003 2.9408 20.1078 3.35539C20.5154 3.76999 20.4241 4.45864 20.3222 5.11215C20.2589 5.5408 20.1851 6.02918 20.3222 6.23999C20.4592 6.4508 20.8913 6.61945 21.2919 6.77756C21.9243 7.0235 22.5743 7.27999 22.7289 7.8562C22.8835 8.43242 22.4513 8.95242 22.0262 9.46891C21.7486 9.82026 21.4359 10.2067 21.4359 10.4632C21.4359 10.7197 21.7486 11.1097 22.0262 11.454C22.4373 11.974 22.8659 12.5081 22.7289 13.0667C22.5919 13.6254 21.9243 13.8994 21.2919 14.1489C20.8913 14.3035 20.4381 14.5003 20.3222 14.683C20.2062 14.8657 20.273 15.3857 20.3222 15.8108C20.4241 16.4749 20.5259 17.16 20.1078 17.5676C19.6897 17.9751 19.0081 17.8803 18.3511 17.7819C17.9224 17.7186 17.4341 17.6449 17.2232 17.7819C17.0124 17.9189 16.8438 18.3511 16.6857 18.7516C16.4397 19.3805 16.1832 20.034 15.6035 20.1886C15.5275 20.2059 15.4495 20.213 15.3716 20.2097ZM13 18.1965C13.4989 18.1965 13.9732 18.5724 14.43 18.9378C14.7813 19.2119 15.21 19.5597 15.4243 19.5C15.6386 19.4403 15.867 18.9062 16.0322 18.4846C16.2395 17.9505 16.4538 17.4024 16.8719 17.16C17.29 16.9176 17.8838 17.0054 18.453 17.0897C18.8992 17.1565 19.4543 17.2408 19.6195 17.0897C19.7846 16.9386 19.7038 16.387 19.6195 15.9267C19.5351 15.3576 19.4473 14.7673 19.6932 14.3422C19.9392 13.917 20.4838 13.7132 21.0143 13.5024C21.4395 13.3373 21.9665 13.13 22.0297 12.8946C22.093 12.6592 21.7451 12.2481 21.4676 11.9038C21.1162 11.447 20.7262 10.9727 20.7262 10.4738C20.7262 9.97485 21.1057 9.50053 21.4676 9.04026C21.7451 8.68891 22.0859 8.26377 22.0297 8.04945C21.9735 7.83512 21.4395 7.60675 21.0143 7.44161C20.4838 7.23431 19.9322 7.01648 19.6932 6.60188C19.4543 6.18729 19.5351 5.58999 19.6195 5.01729C19.6862 4.57458 19.7705 4.01945 19.6195 3.85431C19.4684 3.68918 18.8992 3.76999 18.453 3.83675C17.8838 3.92107 17.2935 4.01242 16.8719 3.76647C16.4503 3.52053 16.2395 2.97593 16.0322 2.44539C15.8635 2.00269 15.6597 1.47566 15.4243 1.40539C15.1889 1.33512 14.7778 1.68999 14.43 1.96404C13.9732 2.31539 13.4989 2.70539 13 2.70539C12.5011 2.70539 12.0268 2.32945 11.57 1.96404C11.2186 1.68999 10.79 1.34566 10.5757 1.40539C10.3613 1.46512 10.133 2.00269 9.96783 2.42783C9.76054 2.95837 9.54621 3.5135 9.13513 3.74891C8.72405 3.98431 8.12324 3.90702 7.55405 3.81918C7.10783 3.75242 6.5527 3.67161 6.38756 3.83675C6.22243 4.00188 6.30324 4.55702 6.38756 4.99972C6.47189 5.57242 6.55973 6.16269 6.31378 6.58431C6.06783 7.00593 5.52324 7.21674 4.9927 7.42404C4.56756 7.58918 4.04054 7.79647 3.97729 8.03188C3.91405 8.26729 4.26189 8.67837 4.53946 9.02269C4.88027 9.48647 5.27027 9.95377 5.27027 10.4562C5.27027 10.9586 4.89081 11.4294 4.52891 11.8862C4.25135 12.2376 3.91054 12.6627 3.96675 12.877C4.02297 13.0913 4.55702 13.3197 4.98216 13.4849C5.5127 13.6957 6.06432 13.91 6.30324 14.3246C6.54216 14.7392 6.46135 15.34 6.37702 15.9092C6.31027 16.3554 6.22594 16.907 6.37702 17.0757C6.5281 17.2443 7.09729 17.1565 7.54351 17.0757C8.1127 16.9913 8.70297 16.9035 9.12459 17.1459C9.54621 17.3884 9.75702 17.9365 9.96432 18.4705C10.133 18.8922 10.3368 19.4227 10.5722 19.4859C10.8076 19.5492 11.2186 19.1978 11.5665 18.9238C12.0268 18.5724 12.5011 18.1965 13 18.1965Z" fill="#474747"/>
<path d="M13.0001 16.8262C11.7392 16.8269 10.5065 16.4536 9.45782 15.7535C8.40916 15.0535 7.59171 14.0581 7.10888 12.8933C6.62605 11.7286 6.49953 10.4468 6.74534 9.21013C6.99116 7.97346 7.59825 6.83749 8.48981 5.94592C9.38137 5.05436 10.5173 4.44727 11.754 4.20146C12.9907 3.95565 14.2725 4.08216 15.4372 4.56499C16.602 5.04782 17.5973 5.86528 18.2974 6.91394C18.9975 7.96259 19.3708 9.19533 19.3701 10.4562C19.3682 12.1451 18.6965 13.7642 17.5023 14.9584C16.3081 16.1526 14.6889 16.8243 13.0001 16.8262ZM13.0001 4.78538C11.8783 4.78469 10.7816 5.11668 9.84859 5.73938C8.91556 6.36207 8.18817 7.24749 7.75843 8.28363C7.32868 9.31977 7.21587 10.4601 7.43429 11.5604C7.6527 12.6606 8.19251 13.6714 8.98545 14.4648C9.77839 15.2582 10.7888 15.7987 11.8889 16.0178C12.9891 16.2369 14.1295 16.1248 15.1659 15.6957C16.2023 15.2666 17.0882 14.5397 17.7114 13.6071C18.3347 12.6745 18.6674 11.5779 18.6674 10.4562C18.6664 8.95309 18.0692 7.51177 17.0066 6.44859C15.9441 5.38541 14.5032 4.78724 13.0001 4.78538Z" fill="#474747"/>
<path d="M15.0028 13.534C14.9452 13.5337 14.8884 13.5193 14.8377 13.4919L13.0001 12.5257L11.1626 13.4919C11.1061 13.5208 11.0428 13.5339 10.9795 13.5298C10.9161 13.5257 10.8551 13.5045 10.8028 13.4684C10.7506 13.4324 10.7091 13.3829 10.6827 13.3251C10.6563 13.2674 10.6461 13.2036 10.6531 13.1405L11.0044 11.0921L9.51471 9.64106C9.46831 9.59509 9.43564 9.5371 9.42038 9.47359C9.40511 9.41008 9.40785 9.34357 9.42828 9.28154C9.44872 9.2195 9.48605 9.16438 9.53607 9.12238C9.58609 9.08038 9.64683 9.05316 9.71147 9.04377L11.7669 8.74512L12.6839 6.88295C12.7127 6.82355 12.7576 6.77345 12.8135 6.7384C12.8694 6.70335 12.9341 6.68475 13.0001 6.68475C13.0661 6.68475 13.1308 6.70335 13.1867 6.7384C13.2426 6.77345 13.2876 6.82355 13.3163 6.88295L14.2334 8.74512L16.2888 9.04377C16.3534 9.05316 16.4141 9.08038 16.4642 9.12238C16.5142 9.16438 16.5515 9.2195 16.572 9.28154C16.5924 9.34357 16.5951 9.41008 16.5799 9.47359C16.5646 9.5371 16.5319 9.59509 16.4855 9.64106L14.9958 11.0921L15.3471 13.1405C15.3601 13.2061 15.354 13.2739 15.3298 13.3361C15.3055 13.3984 15.264 13.4524 15.2101 13.4919C15.147 13.5269 15.0746 13.5416 15.0028 13.534ZM13.0001 11.7773C13.0567 11.7771 13.1124 11.7916 13.1617 11.8194L14.5355 12.5221L14.272 10.9938C14.2628 10.9378 14.2672 10.8805 14.285 10.8267C14.3027 10.7728 14.3332 10.7241 14.3739 10.6846L15.4842 9.60241L13.9523 9.37755C13.9005 9.36929 13.8512 9.34954 13.808 9.31975C13.7649 9.28996 13.7289 9.25088 13.7028 9.20539L13.0001 7.79998L12.2974 9.20539C12.2717 9.25632 12.2339 9.30022 12.1874 9.33327C12.1408 9.36633 12.087 9.38756 12.0304 9.39512L10.4985 9.61998L11.6088 10.7021C11.6494 10.7416 11.6799 10.7904 11.6977 10.8442C11.7154 10.8981 11.7199 10.9554 11.7107 11.0113L11.4471 12.5397L12.8209 11.837C12.8735 11.7999 12.9358 11.7791 13.0001 11.7773Z" fill="#474747"/>
<path d="M15.8812 25.2973C15.8122 25.2972 15.7448 25.2769 15.6873 25.2388C15.6298 25.2007 15.5848 25.1465 15.5579 25.083L12.842 18.7094C12.8057 18.6237 12.8049 18.5271 12.8399 18.4408C12.8748 18.3545 12.9425 18.2856 13.0282 18.2492C13.1139 18.2129 13.2106 18.2121 13.2968 18.2471C13.3831 18.282 13.4521 18.3497 13.4885 18.4354L15.8812 24.057L16.8649 21.7381C16.9 21.6562 16.9649 21.5907 17.0464 21.5548C17.128 21.519 17.2201 21.5154 17.3041 21.5449L19.7109 22.3811L17.6449 17.5149C17.6128 17.4299 17.6147 17.3358 17.6504 17.2523C17.6861 17.1688 17.7527 17.1023 17.8364 17.0669C17.92 17.0314 18.0141 17.0297 18.0989 17.0622C18.1838 17.0946 18.2528 17.1586 18.2914 17.2408L20.6666 22.8378C20.6927 22.9004 20.7001 22.9692 20.688 23.0359C20.6759 23.1026 20.6447 23.1643 20.5983 23.2137C20.5519 23.2631 20.4922 23.298 20.4264 23.3142C20.3605 23.3305 20.2914 23.3273 20.2274 23.3051L17.3814 22.3073L16.2044 25.083C16.1775 25.1465 16.1325 25.2007 16.075 25.2388C16.0176 25.2769 15.9501 25.2972 15.8812 25.2973Z" fill="#474747"/>
<path d="M10.1189 25.2973C10.0499 25.2972 9.98249 25.2769 9.92501 25.2388C9.86753 25.2007 9.82254 25.1465 9.79564 25.083L8.61862 22.3073L5.77267 23.3051C5.70861 23.3273 5.63951 23.3305 5.57369 23.3142C5.50787 23.298 5.44815 23.2631 5.40172 23.2137C5.3553 23.1643 5.32416 23.1026 5.31205 23.0359C5.29994 22.9692 5.30738 22.9004 5.33348 22.8378L7.70862 17.2408C7.74728 17.1586 7.81627 17.0946 7.90111 17.0622C7.98595 17.0297 8.08005 17.0314 8.16368 17.0669C8.2473 17.1023 8.31395 17.1688 8.34964 17.2523C8.38533 17.3358 8.38729 17.4299 8.3551 17.5149L6.28916 22.3811L8.69591 21.5343C8.77998 21.5048 8.8721 21.5084 8.95363 21.5443C9.03517 21.5802 9.10003 21.6457 9.1351 21.7276L10.1189 24.0465L12.5116 18.4249C12.548 18.3392 12.6169 18.2714 12.7032 18.2365C12.7895 18.2016 12.8861 18.2024 12.9719 18.2386C13.0575 18.275 13.1253 18.3439 13.1602 18.4302C13.1951 18.5165 13.1943 18.6132 13.1581 18.6989L10.4421 25.083C10.4152 25.1465 10.3702 25.2007 10.3128 25.2388C10.2553 25.2769 10.1879 25.2972 10.1189 25.2973Z" fill="#474747"/>
</svg>
