<svg width="21" height="21" viewBox="0 0 21 21" fill="none" xmlns="http://www.w3.org/2000/svg">
<g clip-path="url(#clip0_1847_270)">
<mask id="mask0_1847_270" style="mask-type:luminance" maskUnits="userSpaceOnUse" x="0" y="0" width="21" height="21">
<path d="M0 1.90735e-06H20.6667V20.6667H0V1.90735e-06Z" fill="white"/>
</mask>
<g mask="url(#mask0_1847_270)">
<path d="M18.0316 4.45176C19.2794 6.08257 20.0612 8.12147 20.0612 10.3335C20.0612 15.6838 15.6836 20.0614 10.3333 20.0614C4.98305 20.0614 0.605469 15.6838 0.605469 10.3335C0.605469 4.98328 4.98305 0.605655 10.3333 0.605655C12.5454 0.605655 14.5843 1.38744 16.2152 2.63535" stroke="#474747" stroke-width="1.21094" stroke-miterlimit="10"/>
<path d="M19.2054 3.06805H17.5989V1.46154L13.9661 5.09435V6.70087H15.5726L19.2054 3.06805Z" stroke="#474747" stroke-width="1.21094" stroke-miterlimit="10"/>
<path d="M13.9661 6.70082L10.3333 10.3337" stroke="#474747" stroke-width="1.21094" stroke-miterlimit="10"/>
<path d="M15.174 6.70086C15.9359 7.71348 16.388 8.97181 16.388 10.3337C16.388 13.672 13.6716 16.3884 10.3333 16.3884C6.9949 16.3884 4.27856 13.672 4.27856 10.3337C4.27856 6.99532 6.9949 4.27898 10.3333 4.27898C11.6951 4.27898 12.9534 4.73102 13.9661 5.49291" stroke="#474747" stroke-width="1.21094" stroke-miterlimit="10"/>
<path d="M12.7551 10.3337C12.7551 11.6712 11.6708 12.7556 10.3333 12.7556C8.99569 12.7556 7.91138 11.6712 7.91138 10.3337C7.91138 8.99611 8.99569 7.9118 10.3333 7.9118C11.6708 7.9118 12.7551 8.99611 12.7551 10.3337Z" stroke="#474747" stroke-width="1.21094" stroke-miterlimit="10"/>
</g>
</g>
<defs>
<clipPath id="clip0_1847_270">
<rect width="20.6667" height="20.6667" fill="white"/>
</clipPath>
</defs>
</svg>
