<svg width="23" height="23" viewBox="0 0 23 23" fill="none" xmlns="http://www.w3.org/2000/svg">
<g clip-path="url(#clip0_1847_179)">
<mask id="mask0_1847_179" style="mask-type:luminance" maskUnits="userSpaceOnUse" x="0" y="0" width="23" height="23">
<path d="M22.667 1.90735e-06H0.000307083V22.6667H22.667V1.90735e-06Z" fill="white"/>
</mask>
<g mask="url(#mask0_1847_179)">
<path d="M7.78522 11.3332C7.78522 13.2932 9.37406 14.882 11.334 14.882C13.294 14.882 14.8828 13.2932 14.8828 11.3332C14.8828 9.37326 13.294 7.78442 11.334 7.78442C9.37406 7.78442 7.78522 9.37326 7.78522 11.3332Z" stroke="#6D87F7" stroke-width="0.664063" stroke-miterlimit="10" stroke-linecap="round" stroke-linejoin="round"/>
<path d="M1.7522 11.3332C1.7522 16.6251 6.04209 20.915 11.334 20.915C16.6259 20.915 20.9158 16.6251 20.9158 11.3332C20.9158 6.04136 16.6259 1.75142 11.334 1.75142C6.04209 1.75142 1.7522 6.04136 1.7522 11.3332Z" stroke="#6D87F7" stroke-width="0.664063" stroke-miterlimit="10" stroke-linecap="round" stroke-linejoin="round"/>
<path d="M11.334 0.331917V6.01001" stroke="#6D87F7" stroke-width="0.664063" stroke-miterlimit="10" stroke-linecap="round" stroke-linejoin="round"/>
<path d="M11.334 16.6564V22.3345" stroke="#6D87F7" stroke-width="0.664063" stroke-miterlimit="10" stroke-linecap="round" stroke-linejoin="round"/>
<path d="M0.332649 11.3332H6.01074" stroke="#6D87F7" stroke-width="0.664063" stroke-miterlimit="10" stroke-linecap="round" stroke-linejoin="round"/>
<path d="M16.6574 11.3332H22.3354" stroke="#6D87F7" stroke-width="0.664063" stroke-miterlimit="10" stroke-linecap="round" stroke-linejoin="round"/>
<path d="M14.8828 11.3332H7.78522" stroke="#6D87F7" stroke-width="0.664063" stroke-miterlimit="10" stroke-linecap="round" stroke-linejoin="round"/>
<path d="M11.334 7.78443V9.91373" stroke="#6D87F7" stroke-width="0.664063" stroke-miterlimit="10" stroke-linecap="round" stroke-linejoin="round"/>
<path d="M11.334 12.7528V14.882" stroke="#6D87F7" stroke-width="0.664063" stroke-miterlimit="10" stroke-linecap="round" stroke-linejoin="round"/>
<path d="M16.5806 17.5836C13.3737 20.2814 8.58064 20.1231 5.56234 17.1048C2.54404 14.0865 2.38573 9.29347 5.0836 6.08662" stroke="#6D87F7" stroke-width="0.664063" stroke-miterlimit="10" stroke-linecap="round" stroke-linejoin="round"/>
<path d="M6.08755 5.08287C9.29444 2.38504 14.0874 2.54331 17.1058 5.56161C20.1241 8.57995 20.2824 13.373 17.5845 16.5798" stroke="#6D87F7" stroke-width="0.664063" stroke-miterlimit="10" stroke-linecap="round" stroke-linejoin="round"/>
<path d="M9.91462 11.3332C9.91462 12.1172 10.5501 12.7527 11.3341 12.7527C12.1181 12.7527 12.7537 12.1172 12.7537 11.3332C12.7537 10.5492 12.1181 9.91371 11.3341 9.91371C10.5501 9.91371 9.91462 10.5492 9.91462 11.3332Z" stroke="#6D87F7" stroke-width="0.664063" stroke-miterlimit="10" stroke-linecap="round" stroke-linejoin="round"/>
</g>
</g>
<defs>
<clipPath id="clip0_1847_179">
<rect width="22.6667" height="22.6667" fill="white" transform="matrix(-1 0 0 1 22.6667 0)"/>
</clipPath>
</defs>
</svg>
