<svg width="20" height="20" viewBox="0 0 20 20" fill="none" xmlns="http://www.w3.org/2000/svg">
<g clip-path="url(#clip0_1847_236)">
<path d="M14.0892 10.3529C14.0504 10.3224 14.0035 10.3071 13.9567 10.3071C13.9099 10.3071 13.863 10.3224 13.8242 10.3529L9.13555 14.0415C9.07618 14.0882 9.00188 14.1141 8.92643 14.1141C8.82162 14.1141 8.72453 14.067 8.65985 13.9848C8.60403 13.9137 8.57909 13.8251 8.58985 13.7351C8.60061 13.6453 8.64555 13.5649 8.71669 13.5091L13.9567 9.38684L19.1966 13.5091C19.2677 13.5651 19.3129 13.6453 19.3235 13.7352C19.3343 13.8249 19.3093 13.9137 19.2533 13.9847C19.1887 14.0668 19.0916 14.1139 18.9868 14.1139C18.9114 14.1139 18.8371 14.0882 18.7776 14.0414L14.0892 10.3529Z" fill="#474747"/>
<path d="M12.9167 16.1636H14.9961V19.7215H12.9167V16.1636Z" fill="#474747"/>
<path d="M13.9567 12.6133C14.2742 12.6133 14.5324 12.8716 14.5324 13.1892C14.5324 13.5066 14.2742 13.7649 13.9567 13.7649C13.6392 13.7649 13.3809 13.5066 13.3809 13.1892C13.3809 12.8716 13.6392 12.6133 13.9567 12.6133Z" fill="#474747"/>
<path d="M9.97827 13.9238L13.9566 10.7941L17.9349 13.9237V19.7215H15.425V15.9493C15.425 15.8309 15.329 15.735 15.2107 15.735H12.7024C12.5842 15.735 12.4881 15.8309 12.4881 15.9493V19.7215H9.97827V13.9238ZM14.9609 13.1891C14.9609 12.6352 14.5103 12.1846 13.9565 12.1846C13.4026 12.1846 12.9519 12.6352 12.9519 13.1891C12.9519 13.7429 13.4026 14.1936 13.9565 14.1936C14.5103 14.1936 14.9609 13.7429 14.9609 13.1891Z" fill="#474747"/>
<path d="M11.2834 9.03195C11.3546 9.08777 11.3995 9.16815 11.4103 9.2579C11.421 9.34777 11.3961 9.4365 11.3403 9.50764C11.2756 9.58979 11.1785 9.63688 11.0738 9.63688C10.9982 9.63688 10.9241 9.61119 10.8646 9.56423L6.17597 5.87574C6.1371 5.84524 6.0904 5.82979 6.04343 5.82979C5.99672 5.82979 5.94976 5.84524 5.9109 5.87574L1.22242 9.56423C1.16293 9.61106 1.08862 9.63688 1.01318 9.63688C0.90837 9.63688 0.811282 9.58967 0.746725 9.50764C0.690775 9.4365 0.665839 9.3479 0.676472 9.2579C0.687231 9.16815 0.732294 9.08777 0.803434 9.03195L6.04331 4.90967L11.2834 9.03195Z" fill="#474747"/>
<path d="M6.04347 8.13611C6.36094 8.13611 6.61917 8.39434 6.61917 8.7118C6.61917 9.02927 6.36094 9.28763 6.04347 9.28763C5.726 9.28763 5.46777 9.02927 5.46777 8.7118C5.46777 8.39434 5.726 8.13611 6.04347 8.13611Z" fill="#474747"/>
<path d="M5.00391 10.8535H7.08327V15.2443H5.00391V10.8535Z" fill="#474747"/>
<path d="M10.0216 9.44645V11.9371L8.45164 13.1721C8.2905 13.2989 8.18848 13.4808 8.16405 13.6843C8.13974 13.888 8.1962 14.0887 8.32291 14.2497C8.46949 14.4359 8.68936 14.5427 8.92632 14.5427C9.09734 14.5427 9.26594 14.4844 9.4005 14.3785L9.54962 14.2611V15.2443H7.51189V10.6391C7.51189 10.5208 7.41582 10.4248 7.29759 10.4248H4.78962C4.67126 10.4248 4.57531 10.5208 4.57531 10.6391V15.2443H2.06519V9.44658L6.04354 6.31683L10.0216 9.44645ZM7.04797 8.71177C7.04797 8.15797 6.59746 7.70734 6.04354 7.70734C5.48974 7.70734 5.03911 8.15797 5.03911 8.71177C5.03911 9.26569 5.48974 9.71633 6.04354 9.71633C6.59746 9.71633 7.04797 9.26569 7.04797 8.71177Z" fill="#474747"/>
<path d="M14.0891 1.24471C14.0502 1.2142 14.0034 1.19876 13.9566 1.19876C13.9097 1.19876 13.8629 1.2142 13.824 1.24471L9.63567 4.53977L9.13555 4.93319C9.07618 4.9799 9.00188 5.00585 8.92643 5.00585C8.82162 5.00585 8.72454 4.95876 8.65985 4.87648C8.60403 4.80547 8.57909 4.71686 8.58985 4.62699C8.60061 4.53724 8.64555 4.45686 8.71669 4.40104L13.9566 0.278503L19.1964 4.40066C19.2676 4.4566 19.3128 4.53698 19.3234 4.62673C19.3342 4.71661 19.3092 4.80534 19.2531 4.87623C19.1886 4.9585 19.0915 5.00559 18.9867 5.00559C18.9112 5.00559 18.8369 4.97977 18.7774 4.93293L14.0891 1.24471Z" fill="#474747"/>
<path d="M13.9567 3.50507C14.2742 3.50507 14.5324 3.76329 14.5324 4.08076C14.5324 4.39823 14.2742 4.65646 13.9567 4.65646C13.6392 4.65646 13.3809 4.39823 13.3809 4.08076C13.3809 3.76329 13.6392 3.50507 13.9567 3.50507Z" fill="#474747"/>
<path d="M14.9964 6.22229V9.65925L14.0891 8.94558C14.0114 8.88432 13.9019 8.88432 13.8242 8.94558L12.917 9.65925V6.22229H14.9964Z" fill="#474747"/>
<path d="M17.9349 4.81535V10.6133H16.2092L15.4251 9.99662V6.00801C15.4251 5.88966 15.329 5.79371 15.2108 5.79371H12.7026C12.5843 5.79371 12.4883 5.88966 12.4883 6.00801V9.99662L10.4503 11.5999V9.78371L10.5995 9.90105C10.7342 10.007 10.9027 10.0654 11.0738 10.0654C11.3108 10.0654 11.5308 9.95865 11.6771 9.77244C11.8038 9.61143 11.8603 9.41054 11.836 9.207C11.8116 9.00358 11.7095 8.82156 11.5484 8.69485L9.97827 7.45966V4.81535L13.9566 1.68561L17.9349 4.81535ZM14.9611 4.0808C14.9611 3.527 14.5104 3.07637 13.9566 3.07637C13.4027 3.07637 12.9521 3.527 12.9521 4.0808C12.9521 4.63472 13.4027 5.08523 13.9566 5.08523C14.5104 5.08523 14.9611 4.63472 14.9611 4.0808Z" fill="#474747"/>
</g>
<defs>
<clipPath id="clip0_1847_236">
<rect width="20" height="20" fill="white"/>
</clipPath>
</defs>
</svg>
