<svg width="23" height="23" viewBox="0 0 23 23" fill="none" xmlns="http://www.w3.org/2000/svg">
<path d="M11.7334 0.00278955C6.22347 -0.126225 1.65214 4.23593 1.52319 9.74596C1.52292 9.86746 1.56659 9.98492 1.6462 10.0767L11.1829 22.9481H11.2567L11.2949 22.9754L11.3359 23H11.4562H11.489H11.7049H11.7241H11.7487H11.7678L11.8115 22.9699L11.8799 22.9125C11.8968 22.8937 11.9124 22.8736 11.9263 22.8524L21.3537 10.0767C21.4333 9.98492 21.4769 9.86746 21.4767 9.74596C21.3519 4.4175 17.062 0.127499 11.7334 0.00278955ZM2.5536 9.59563C2.65658 8.68467 3.40654 7.98384 4.32235 7.9427C5.35084 7.89651 6.22203 8.69287 6.26823 9.72136C6.26823 9.72956 6.26823 9.74596 6.26823 9.74596C6.26823 9.81457 6.28217 9.88242 6.30923 9.9455L9.79698 19.4166L2.5536 9.59563ZM10.9997 9.74323C10.9984 9.76414 10.9984 9.78518 10.9997 9.8061V19.7528L7.27963 9.66669C7.35337 8.73325 8.10805 7.99935 9.04319 7.95172C10.0714 7.89938 10.9474 8.69041 10.9997 9.71863C10.9997 9.72683 10.9997 9.74323 10.9997 9.74323ZM11.5027 8.17975C11.3964 8.02504 11.2752 7.88106 11.141 7.74986C11.0227 7.63431 10.8945 7.52921 10.758 7.4358C9.45012 6.54029 7.66394 6.87464 6.7685 8.18248C5.8915 6.90368 4.15794 6.55163 2.8516 7.38708C3.68794 4.32545 6.07983 1.93356 9.14146 1.09722C13.9208 -0.208362 18.8536 2.60774 20.1592 7.38708C19.697 7.08989 19.1589 6.93238 18.6094 6.93334C17.6625 6.93368 16.7764 7.39979 16.2396 8.17975C16.0398 7.88865 15.788 7.63691 15.4969 7.4371C14.1888 6.53919 12.4005 6.8717 11.5027 8.17975ZM12.0083 9.75416C12.0326 8.7953 12.7806 8.01131 13.7372 7.94209C14.7641 7.86774 15.6568 8.63984 15.7312 9.66669L12.0083 19.7528V9.75416ZM13.2083 19.4166L16.7152 9.91816C16.7374 9.85694 16.7476 9.79195 16.7452 9.72683C16.7845 8.80999 17.4851 8.05812 18.3968 7.95432C19.4198 7.83788 20.3433 8.57274 20.4599 9.59563L13.2083 19.4166Z" fill="#6D87F7"/>
<path d="M11.1392 7.74789C11.1398 7.74851 11.1405 7.74926 11.1411 7.74988C11.1413 7.75015 11.1416 7.75035 11.1419 7.75063L11.1392 7.74789Z" fill="#6D87F7"/>
</svg>
