<svg width="19" height="19" viewBox="0 0 19 19" fill="none" xmlns="http://www.w3.org/2000/svg">
<g clip-path="url(#clip0_1847_263)">
<path d="M16.9348 3.71739H14.7427C14.9543 3.35254 15.0761 2.92953 15.0761 2.47828C15.0761 1.11176 13.9644 0 12.5978 0C11.3062 0 10.1666 0.662291 9.50003 1.66499C8.83351 0.662291 7.69384 0 6.40221 0C5.0357 0 3.92394 1.11176 3.92394 2.47828C3.92394 2.92953 4.04573 3.35257 4.25733 3.71739H2.06524C1.04035 3.71739 0.206543 4.55121 0.206543 5.57609V8.46739C0.206543 8.80954 0.483936 9.08697 0.826121 9.08697H1.4457V17.1413C1.4457 18.1662 2.27951 19 3.3044 19C3.82278 19 15.1249 19 15.6957 19C16.7206 19 17.5544 18.1662 17.5544 17.1413V9.08697H18.174C18.5161 9.08697 18.7936 8.80958 18.7936 8.46739V5.57609C18.7935 4.55121 17.9597 3.71739 16.9348 3.71739ZM6.40221 1.23912C7.76873 1.23912 8.88049 2.35088 8.88049 3.71739C8.60914 3.71739 6.71753 3.71739 6.40221 3.71739C5.71896 3.71739 5.16309 3.16153 5.16309 2.47828C5.16306 1.79502 5.71896 1.23912 6.40221 1.23912ZM7.64133 17.7609H3.3044C2.96277 17.7609 2.68482 17.4829 2.68482 17.1413V9.08697H7.64133V17.7609ZM7.64133 7.84782C7.38294 7.84782 1.70602 7.84782 1.4457 7.84782V5.57609C1.4457 5.23446 1.72365 4.95651 2.06528 4.95651C2.17724 4.95651 7.51909 4.95651 7.64137 4.95651V7.84782H7.64133ZM10.1196 17.7609H8.88049V9.08697H10.1196V17.7609ZM10.1196 7.84782H8.88049V4.95651C9.32888 4.95651 9.67122 4.95651 10.1196 4.95651V7.84782ZM12.5978 1.23912C13.2811 1.23912 13.837 1.79498 13.837 2.47824C13.837 3.1615 13.2811 3.71736 12.5978 3.71736C12.3131 3.71736 10.3867 3.71736 10.1196 3.71736C10.1196 2.35088 11.2313 1.23912 12.5978 1.23912ZM16.3152 17.1413C16.3152 17.4829 16.0373 17.7609 15.6957 17.7609H11.3587V9.08697H16.3152V17.1413H16.3152ZM17.5544 7.84782C17.2939 7.84782 11.6169 7.84782 11.3587 7.84782V4.95651C11.481 4.95651 16.8229 4.95651 16.9348 4.95651C17.2764 4.95651 17.5544 5.23446 17.5544 5.57609V7.84782H17.5544Z" fill="#474747"/>
</g>
<defs>
<clipPath id="clip0_1847_263">
<rect width="19" height="19" fill="white"/>
</clipPath>
</defs>
</svg>
