<svg width="23" height="23" viewBox="0 0 23 23" fill="none" xmlns="http://www.w3.org/2000/svg">
<path d="M5.42337 12.0845C5.23726 12.0845 5.08647 12.2353 5.08647 12.4214V14.1997C5.08647 14.3858 5.23726 14.5366 5.42337 14.5366C5.60947 14.5366 5.76027 14.3858 5.76027 14.1997V12.4214C5.76027 12.2353 5.60947 12.0845 5.42337 12.0845ZM13.816 14.5366C14.0021 14.5366 14.1529 14.3858 14.1529 14.1997V12.4214C14.1529 12.2353 14.0021 12.0845 13.816 12.0845C13.6299 12.0845 13.4791 12.2353 13.4791 12.4214V14.1997C13.4791 14.3858 13.6299 14.5366 13.816 14.5366ZM21.112 0.492814C21.1021 0.283891 20.9688 0.102728 20.7725 0.0313502C20.5763 -0.0401625 20.3578 0.0130228 20.2157 0.166874C18.5408 1.98353 17.0749 2.79173 15.8584 2.56816C15.2714 2.46036 14.7996 2.13078 14.3001 1.78179C13.6119 1.30097 12.8996 0.80384 11.8544 0.863853C11.1782 0.902754 10.5157 1.17129 9.88312 1.66231C9.79687 1.65094 9.70905 1.64447 9.61966 1.64447C8.52958 1.64447 7.64273 2.51961 7.64273 3.59535C7.64273 3.71978 7.65463 3.84259 7.67799 3.96307C7.21347 4.09333 6.76293 4.26969 6.33601 4.49074C6.17079 4.57631 6.10624 4.77962 6.19177 4.94484C6.27739 5.1101 6.48078 5.17456 6.64586 5.08908C7.4569 4.66903 8.36212 4.42615 9.28271 4.37822V9.31134L3.22839 10.9086V10.6532C3.22839 8.84834 4.01917 7.12858 5.39799 5.93483C5.53868 5.81305 5.55399 5.60031 5.43217 5.45962C5.3103 5.31893 5.09752 5.30361 4.95696 5.42544C3.43026 6.74725 2.55464 8.65272 2.55464 10.6532V11.0864C2.17017 11.1509 1.88088 11.4794 1.88088 11.8698V14.7513C1.87792 15.132 2.17147 15.4761 2.55464 15.5346V18.3879C2.55464 18.6739 2.70103 18.9342 2.94571 19.0838L9.07343 22.8451C9.41042 23.0517 9.82903 23.0516 10.1661 22.8449L16.2931 19.0841C16.5383 18.9342 16.6847 18.6739 16.6847 18.3879V15.5346C17.0608 15.4523 17.3612 15.1545 17.3584 14.7512V11.8697C17.3579 11.4716 17.0678 11.1576 16.6847 11.0864V10.6531C16.6847 9.25842 16.2655 7.95848 15.5453 6.86836C15.7085 6.85753 15.8715 6.84051 16.0335 6.8158C17.4863 6.5939 18.8077 5.82374 19.7542 4.64729C20.7017 3.46957 21.1839 1.99413 21.112 0.492814ZM8.33544 3.8111C8.32313 3.74022 8.31653 3.66821 8.31653 3.59531C8.31653 2.89114 8.90112 2.31823 9.61966 2.31823C10.3382 2.31823 10.9228 2.89114 10.9228 3.59531C10.9228 3.66803 10.9162 3.7399 10.904 3.81056C10.4873 3.73492 10.0582 3.69503 9.61966 3.69503C9.18829 3.69503 8.75805 3.73433 8.33544 3.8111ZM16.6846 11.8698V14.7513C16.6846 14.8022 16.6502 14.8469 16.601 14.8599L14.0669 15.5284C13.887 15.5759 13.7796 15.7602 13.8271 15.9401C13.8746 16.12 14.0589 16.2273 14.2388 16.1799L16.0109 15.7124V18.3879C16.0109 18.4374 15.985 18.4827 15.9411 18.5096L9.81371 22.2706C9.69584 22.343 9.54343 22.3429 9.42574 22.2708L3.2977 18.5093C3.25431 18.4827 3.22844 18.4374 3.22844 18.3879V15.7124L9.41927 17.3457C9.55044 17.3802 9.68902 17.3802 9.82018 17.3457L12.7142 16.5822C12.8941 16.5347 13.0015 16.3504 12.954 16.1705C12.9065 15.9906 12.7222 15.8831 12.5423 15.9307L9.64845 16.6941C9.62963 16.6991 9.60978 16.6991 9.59105 16.6942L2.63832 14.8599C2.58905 14.8469 2.55468 14.8022 2.55468 14.7513V11.8698C2.55468 11.8188 2.58909 11.7742 2.63832 11.7612C2.63832 11.7612 9.60928 9.92894 9.61966 9.92894C9.63004 9.92894 16.601 11.7612 16.601 11.7612C16.6503 11.7742 16.6846 11.8188 16.6846 11.8698ZM16.0109 10.6532V10.9086L9.95656 9.31134V4.37759C13.3247 4.5504 16.0109 7.2991 16.0109 10.6532ZM15.9318 6.14977C15.6393 6.19433 15.3432 6.21334 15.0495 6.20664C14.1529 5.14648 12.9432 4.35189 11.5614 3.96235C11.5846 3.8421 11.5965 3.71951 11.5965 3.59535C11.5965 2.89833 11.2239 2.28589 10.6652 1.94077C11.0703 1.69627 11.4815 1.56025 11.893 1.53653C12.7058 1.49058 13.2928 1.89998 13.9142 2.33413C14.4508 2.70899 15.0056 3.0966 15.7366 3.23091C16.4016 3.35301 17.1148 3.23936 17.8565 2.89312C18.6653 2.51556 19.5346 1.84801 20.4438 0.906887C20.3846 3.49855 18.4668 5.76256 15.9318 6.14977ZM9.28276 11.6045V15.3816C9.28276 15.5677 9.43356 15.7185 9.61966 15.7185C9.80576 15.7185 9.95656 15.5677 9.95656 15.3816V11.6045C9.95656 11.4184 9.80576 11.2676 9.61966 11.2676C9.43356 11.2676 9.28276 11.4184 9.28276 11.6045ZM11.7178 15.2828C11.9039 15.2828 12.0547 15.132 12.0547 14.9459V12.0085C12.0547 11.8224 11.9039 11.6716 11.7178 11.6716C11.5317 11.6716 11.3809 11.8224 11.3809 12.0085V14.9459C11.3809 15.132 11.5317 15.2828 11.7178 15.2828ZM7.52154 11.6716C7.33543 11.6716 7.18464 11.8224 7.18464 12.0085V14.946C7.18464 15.1321 7.33543 15.2829 7.52154 15.2829C7.70764 15.2829 7.85844 15.1321 7.85844 14.946V12.0085C7.85844 11.8224 7.70764 11.6716 7.52154 11.6716Z" fill="#6D87F7"/>
</svg>
