<svg width="22" height="22" viewBox="0 0 22 22" fill="none" xmlns="http://www.w3.org/2000/svg">
<g clip-path="url(#clip0_1847_138)">
<path d="M7.90625 6.875C7.56631 6.875 7.23401 6.9758 6.95136 7.16466C6.66872 7.35352 6.44842 7.62195 6.31833 7.93601C6.18824 8.25007 6.15421 8.59566 6.22053 8.92906C6.28684 9.26247 6.45054 9.56872 6.69091 9.80909C6.93128 10.0495 7.23753 10.2132 7.57094 10.2795C7.90434 10.3458 8.24993 10.3118 8.56399 10.1817C8.87805 10.0516 9.14648 9.83128 9.33534 9.54864C9.5242 9.26599 9.625 8.93369 9.625 8.59375C9.625 8.13791 9.44392 7.70074 9.12159 7.37841C8.79926 7.05608 8.36209 6.875 7.90625 6.875ZM7.90625 9.625C7.70229 9.625 7.50291 9.56452 7.33332 9.4512C7.16373 9.33789 7.03155 9.17683 6.9535 8.98839C6.87545 8.79996 6.85502 8.59261 6.89482 8.39256C6.93461 8.19252 7.03282 8.00877 7.17705 7.86455C7.32127 7.72032 7.50502 7.62211 7.70506 7.58232C7.90511 7.54252 8.11246 7.56295 8.30089 7.641C8.48933 7.71905 8.65039 7.85123 8.7637 8.02082C8.87702 8.19041 8.9375 8.38979 8.9375 8.59375C8.9375 8.86725 8.82885 9.12956 8.63545 9.32295C8.44206 9.51635 8.17976 9.625 7.90625 9.625Z" fill="#6D87F7"/>
<path d="M16.8438 11.6875H15.125C15.0338 11.6875 14.9464 11.7237 14.8819 11.7882C14.8175 11.8526 14.7812 11.9401 14.7812 12.0312V14.0938C14.7812 14.1849 14.8175 14.2724 14.8819 14.3368C14.9464 14.4013 15.0338 14.4375 15.125 14.4375H16.8438C16.9349 14.4375 17.0224 14.4013 17.0868 14.3368C17.1513 14.2724 17.1875 14.1849 17.1875 14.0938V12.0312C17.1875 11.9401 17.1513 11.8526 17.0868 11.7882C17.0224 11.7237 16.9349 11.6875 16.8438 11.6875ZM16.5 13.75H15.4688V12.375H16.5V13.75Z" fill="#6D87F7"/>
<path d="M19.9375 11.6875H18.2188C18.1276 11.6875 18.0401 11.7237 17.9757 11.7882C17.9112 11.8526 17.875 11.9401 17.875 12.0312V14.0938C17.875 14.1849 17.9112 14.2724 17.9757 14.3368C18.0401 14.4013 18.1276 14.4375 18.2188 14.4375H19.9375C20.0287 14.4375 20.1161 14.4013 20.1806 14.3368C20.245 14.2724 20.2812 14.1849 20.2812 14.0938V12.0312C20.2812 11.9401 20.245 11.8526 20.1806 11.7882C20.1161 11.7237 20.0287 11.6875 19.9375 11.6875ZM19.5938 13.75H18.5625V12.375H19.5938V13.75Z" fill="#6D87F7"/>
<path d="M21.6562 9.96875C21.6568 9.92406 21.6486 9.87969 21.6322 9.83813L19.9134 5.71313C19.8858 5.64114 19.8334 5.5814 19.7656 5.54469L14.4375 2.55063V0.6875C14.4375 0.596332 14.4013 0.508898 14.3368 0.444432C14.2723 0.379966 14.1849 0.34375 14.0937 0.34375H12.0312C11.9401 0.34375 11.8526 0.379966 11.7882 0.444432C11.7237 0.508898 11.6875 0.596332 11.6875 0.6875V2.40625H7.90622C7.84717 2.40643 7.78916 2.42182 7.73778 2.45094L2.23778 5.54469C2.17 5.5814 2.11757 5.64114 2.08997 5.71313L0.371221 9.83813C0.349961 9.8899 0.341666 9.94609 0.347057 10.0018C0.352449 10.0575 0.371364 10.1111 0.402159 10.1578C0.433299 10.2051 0.475636 10.244 0.52541 10.2709C0.575184 10.2979 0.630853 10.3122 0.687471 10.3125H1.71872V16.8438H0.687471C0.612917 16.8443 0.540548 16.869 0.481275 16.9142C0.422002 16.9594 0.379039 17.0227 0.358865 17.0945C0.33869 17.1663 0.342398 17.2426 0.369428 17.3121C0.396459 17.3816 0.445347 17.4404 0.508721 17.4797C1.37008 18.0048 2.04281 18.7895 2.43028 19.7209C2.63268 20.2276 2.74101 20.767 2.74997 21.3125H3.43747C3.42895 20.6821 3.30426 20.0586 3.06966 19.4734C2.77237 18.732 2.31042 18.0679 1.71872 17.5312H2.9906C3.81846 18.0516 4.46366 18.817 4.83653 19.7209C5.03893 20.2276 5.14726 20.767 5.15622 21.3125H5.84372C5.8352 20.6821 5.71051 20.0586 5.47591 19.4734C5.17851 18.7321 4.71658 18.068 4.12497 17.5312H5.39685C6.22471 18.0516 6.86991 18.817 7.24278 19.7209C7.44518 20.2276 7.55351 20.767 7.56247 21.3125H8.24997C8.24145 20.6821 8.11676 20.0586 7.88216 19.4734C7.58476 18.7321 7.12282 18.068 6.53122 17.5312H7.8031C8.63096 18.0516 9.27616 18.817 9.64903 19.7209C9.85143 20.2276 9.95976 20.767 9.96872 21.3125H10.6562C10.6477 20.6821 10.523 20.0586 10.2884 19.4734C9.99101 18.7321 9.52907 18.068 8.93747 17.5312H10.2093C11.0372 18.0516 11.6824 18.817 12.0553 19.7209C12.2577 20.2276 12.366 20.767 12.375 21.3125H13.0625C13.0578 21.0822 13.0372 20.8525 13.0006 20.625H21.3125V19.9375H12.8562C12.8218 19.8206 12.7806 19.7072 12.7393 19.5938H21.3125V18.9062H12.4265C12.3612 18.7859 12.2925 18.6725 12.2203 18.5625H21.3125V17.875H11.6875C11.574 17.7512 11.4572 17.6344 11.3437 17.5312H21.3125C21.4036 17.5312 21.4911 17.495 21.5555 17.4306C21.62 17.3661 21.6562 17.2787 21.6562 17.1875V9.96875ZM20.9687 12.375V12.7188H20.625V13.4062H20.9687V13.75H20.625V14.4375H20.9687V14.7812H14.0937V14.4375H14.4375V13.75H14.0937V13.4062H14.4375V12.7188H14.0937V12.375H14.4375V11.6875H14.0937V11.3438H20.9687V11.6875H20.625V12.375H20.9687ZM14.0937 15.4688H20.9687V15.8125H14.0937V15.4688ZM14.0937 10.6562V10.3125H20.9687V10.6562H14.0937ZM20.7968 9.625H15.3553L13.9218 6.1875H19.3634L20.7968 9.625ZM14.0043 3.09375L18.2806 5.5H13.4956L9.21935 3.09375H14.0043ZM12.375 1.03125H13.75V2.40625H12.375V1.03125ZM9.96872 16.8438H8.43216L9.96872 13.3306V16.8438ZM8.24997 15.5444V12.0312H9.78653L8.24997 15.5444ZM7.56247 15.5444L6.02591 12.0312H7.56247V15.5444ZM5.84372 13.3306L7.38028 16.8438H5.84372V13.3306ZM13.4062 16.8438H10.6562V11.6875C10.6562 11.5963 10.62 11.5089 10.5555 11.4444C10.4911 11.38 10.4036 11.3438 10.3125 11.3438H5.49997C5.4088 11.3438 5.32137 11.38 5.2569 11.4444C5.19244 11.5089 5.15622 11.5963 5.15622 11.6875V16.8438H2.40622V10.0341L3.70903 6.77531L7.90622 4.51688L12.1034 6.77531L13.4062 10.0341V16.8438ZM12.6947 6.40406C12.6643 6.32879 12.6083 6.26669 12.5365 6.22875L8.06778 3.8225C8.01805 3.79602 7.96257 3.78217 7.90622 3.78217C7.84987 3.78217 7.79439 3.79602 7.74466 3.8225L3.27591 6.22875C3.20416 6.26669 3.14814 6.32879 3.11778 6.40406L1.82872 9.625H1.2031L2.67778 6.08438L7.90622 3.14531L13.1347 6.08438L14.6093 9.625H13.9837L12.6947 6.40406ZM14.0937 16.8438V16.5H20.9687V16.8438H14.0937Z" fill="#6D87F7"/>
</g>
<defs>
<clipPath id="clip0_1847_138">
<rect width="22" height="22" fill="white"/>
</clipPath>
</defs>
</svg>
