<svg width="23" height="23" viewBox="0 0 23 23" fill="none" xmlns="http://www.w3.org/2000/svg">
<g clip-path="url(#clip0_1847_92)">
<path d="M11.5 23C5.15888 23 0 17.8411 0 11.5C0 5.15892 5.15888 0 11.5 0C17.8412 0 23 5.15888 23 11.5C23 17.8412 17.8411 23 11.5 23Z" fill="white"/>
<path d="M11.5 0V23C17.8411 23 23 17.8411 23 11.5C23 5.15883 17.8411 0 11.5 0Z" fill="white"/>
<path d="M11.5 20.3047C6.64511 20.3047 2.69531 16.3549 2.69531 11.5C2.69531 6.64505 6.64511 2.6953 11.5 2.6953C16.355 2.6953 20.3048 6.64509 20.3048 11.5C20.3048 16.355 16.3549 20.3047 11.5 20.3047Z" fill="#E6E6E6"/>
<path d="M11.5 2.6953V20.3047C16.3549 20.3047 20.3047 16.3549 20.3047 11.5C20.3047 6.64505 16.3549 2.6953 11.5 2.6953Z" fill="#DADADA"/>
<path d="M14.7904 14.9352H8.1962C7.89482 14.9352 7.63005 14.7351 7.54789 14.445L6.30286 10.0502C6.2366 9.8162 6.30152 9.56472 6.47271 9.39204C6.64391 9.2194 6.89485 9.15234 7.12934 9.21662L9.16747 9.77536L10.9671 7.44906C11.0948 7.28411 11.2916 7.18752 11.5001 7.18752C11.7086 7.18752 11.9054 7.28411 12.0331 7.44906L13.8327 9.77536L15.8708 9.21662C16.1056 9.15225 16.3569 9.21954 16.5281 9.39271C16.6993 9.56585 16.7637 9.8179 16.6967 10.052L15.4383 14.4469C15.3555 14.736 15.0911 14.9352 14.7904 14.9352Z" fill="white"/>
<path d="M16.528 9.39276C16.3567 9.21963 16.1055 9.15229 15.8707 9.21666L13.8326 9.77541L12.033 7.44911C11.9053 7.28415 11.7085 7.18757 11.5 7.18757V14.9352H14.7904C15.0911 14.9352 15.3555 14.736 15.4382 14.4469L16.6967 10.052C16.7636 9.81795 16.6992 9.56589 16.528 9.39276Z" fill="white"/>
</g>
<defs>
<clipPath id="clip0_1847_92">
<rect width="23" height="23" fill="white"/>
</clipPath>
</defs>
</svg>
