<svg width="13" height="13" viewBox="0 0 13 13" fill="none" xmlns="http://www.w3.org/2000/svg">
<path d="M7.57692 9.74976H5.13937C5.03115 9.74976 4.93631 9.79063 4.85506 9.87174C4.77374 9.95306 4.73315 10.0478 4.73315 10.1561V12.5938C4.73315 12.7021 4.77389 12.797 4.85506 12.8781C4.93631 12.9592 5.03105 13 5.13937 13H7.57692C7.68514 13 7.78023 12.9593 7.86116 12.8781C7.94262 12.797 7.98328 12.7021 7.98328 12.5938V10.1561C7.98328 10.0478 7.94273 9.95306 7.86116 9.87174C7.78023 9.79042 7.68514 9.74976 7.57692 9.74976Z" fill="#474747"/>
<path d="M10.7765 2.45282C10.4988 1.94134 10.1401 1.50991 9.69987 1.15773C9.25993 0.805701 8.76532 0.524565 8.21699 0.314753C7.66856 0.105013 7.12354 0 6.58175 0C4.52352 0 2.9527 0.90054 1.86928 2.70165C1.81517 2.78963 1.7965 2.88439 1.81339 2.98599C1.8304 3.08745 1.88287 3.17211 1.97088 3.23981L3.63656 4.50946C3.72457 4.56353 3.80924 4.5906 3.89052 4.5906C4.01243 4.5906 4.1173 4.53635 4.20542 4.42803C4.69284 3.81873 5.05516 3.42941 5.29211 3.26005C5.58332 3.06376 5.94883 2.96564 6.38895 2.96564C6.80195 2.96564 7.1658 3.074 7.48076 3.2905C7.79559 3.50721 7.95286 3.75776 7.95286 4.04213C7.95286 4.36023 7.86837 4.61764 7.69904 4.814C7.52982 5.01029 7.24534 5.19979 6.84578 5.38268C6.3178 5.61963 5.83347 5.987 5.39357 6.48467C4.95335 6.98237 4.7334 7.5122 4.7334 8.07416V8.53117C4.7334 8.65994 4.76876 8.78683 4.83998 8.91209C4.91112 9.03745 4.99739 9.10002 5.09902 9.10002H7.53654C7.6449 9.10002 7.7396 9.04766 7.82092 8.94236C7.90199 8.8377 7.94279 8.72764 7.94279 8.6127C7.94279 8.44348 8.03589 8.21641 8.22194 7.93218C8.40816 7.64781 8.63999 7.42754 8.91782 7.27176C9.18174 7.12285 9.38807 7.00283 9.53719 6.9113C9.68646 6.82002 9.88097 6.67242 10.1214 6.46944C10.3617 6.26625 10.548 6.0648 10.6798 5.86512C10.8119 5.66541 10.9305 5.40637 11.0354 5.08806C11.1406 4.76985 11.193 4.42789 11.193 4.0623C11.1929 3.50031 11.054 2.96376 10.7765 2.45282Z" fill="#474747"/>
</svg>
