<svg width="28" height="28" viewBox="0 0 28 28" fill="none" xmlns="http://www.w3.org/2000/svg">
<path d="M6.2229 0.000395378C5.89815 0.0100736 5.58993 0.145841 5.36353 0.378861L0.363528 5.37894C0.13069 5.61316 0 5.93003 0 6.2603C0 6.59056 0.13069 6.90743 0.363528 7.14165L5.36353 12.144C5.59872 12.3784 5.91728 12.5098 6.24928 12.5095C6.58128 12.5092 6.8996 12.3772 7.13436 12.1425C7.36912 11.9077 7.50114 11.5893 7.50145 11.2573C7.50175 10.9253 7.37031 10.6067 7.13598 10.3715L4.2771 7.51277H23.7546V11.3408C23.7391 11.5137 23.7598 11.688 23.8153 11.8525C23.8708 12.017 23.96 12.168 24.0771 12.2961C24.1942 12.4243 24.3368 12.5266 24.4956 12.5966C24.6545 12.6666 24.8262 12.7029 24.9998 12.7029C25.1734 12.7029 25.345 12.6666 25.5039 12.5966C25.6628 12.5266 25.8053 12.4243 25.9224 12.2961C26.0396 12.168 26.1287 12.017 26.1842 11.8525C26.2397 11.688 26.2604 11.5137 26.2449 11.3408V7.51277C26.2449 6.1494 25.118 5.01028 23.7546 5.01028H4.26489L7.13598 2.14158C7.31519 1.96541 7.43714 1.73943 7.48594 1.49292C7.53474 1.24641 7.50812 0.99093 7.40954 0.759778C7.31097 0.528627 7.14502 0.332482 6.93334 0.197054C6.72166 0.0616251 6.47409 -0.00698429 6.2229 0.000395378ZM21.2351 14.9956C20.9863 14.9961 20.7434 15.0709 20.5374 15.2103C20.3313 15.3496 20.1715 15.5473 20.0785 15.778C19.9854 16.0087 19.9633 16.2619 20.0149 16.5053C20.0666 16.7486 20.1896 16.971 20.3684 17.144L23.2371 20.0151H3.74975V16.2968C3.7517 16.1302 3.72032 15.9649 3.65746 15.8106C3.5946 15.6563 3.50152 15.5161 3.38369 15.3983C3.26587 15.2804 3.12568 15.1873 2.97136 15.1245C2.81705 15.0616 2.65172 15.0303 2.4851 15.0322C2.15358 15.0361 1.83718 15.1715 1.60551 15.4086C1.37384 15.6458 1.24587 15.9653 1.24975 16.2968V20.0151C1.24975 21.3785 2.38638 22.5054 3.74975 22.5054H23.2371L20.3684 25.3764C20.244 25.4902 20.144 25.628 20.0743 25.7815C20.0045 25.935 19.9666 26.1011 19.9627 26.2697C19.9588 26.4382 19.989 26.6058 20.0516 26.7623C20.1141 26.9189 20.2077 27.0613 20.3267 27.1807C20.4456 27.3002 20.5875 27.3944 20.7438 27.4576C20.9001 27.5208 21.0676 27.5516 21.2362 27.5484C21.4048 27.5452 21.5709 27.5081 21.7247 27.439C21.8785 27.3699 22.0168 27.2703 22.1311 27.1464L27.1311 22.1464C27.2479 22.0302 27.3405 21.8921 27.4037 21.7401C27.467 21.588 27.4995 21.4249 27.4995 21.2602C27.4995 21.0955 27.467 20.9325 27.4037 20.7804C27.3405 20.6283 27.2479 20.4901 27.1311 20.374L22.1311 15.374C22.0146 15.2543 21.8753 15.1591 21.7214 15.0941C21.5675 15.0291 21.4022 14.9956 21.2351 14.9956Z" fill="black"/>
</svg>
