<svg width="20" height="20" viewBox="0 0 20 20" fill="none" xmlns="http://www.w3.org/2000/svg">
<g clip-path="url(#clip0_1847_128)">
<path d="M10 19.375C9.71152 19.3748 9.42754 19.3034 9.17329 19.1671C8.91903 19.0308 8.70236 18.8339 8.5425 18.5938L8.105 17.9375C8.01463 17.8027 7.89246 17.6923 7.74927 17.616C7.60609 17.5397 7.44631 17.4999 7.28406 17.5C7.02209 17.5 6.77085 17.6041 6.58562 17.7894L5.72813 18.6469C5.59637 18.7787 5.43994 18.8832 5.26776 18.9545C5.09559 19.0258 4.91105 19.0625 4.72469 19.0625C3.9689 19.0625 3.24407 18.7623 2.70965 18.2278C2.17523 17.6934 1.875 16.9686 1.875 16.2128C1.87496 15.7436 1.99077 15.2817 2.21216 14.868C2.43354 14.4544 2.75365 14.1018 3.14406 13.8416L4.76125 12.7634C5.32856 12.385 5.79557 11.8746 6.12219 11.2759L6.30281 10.9447C6.66513 10.2805 7.19966 9.7262 7.85025 9.34001C8.50083 8.95382 9.24343 8.75001 10 8.75C10.7566 8.75001 11.4992 8.95382 12.1498 9.34001C12.8003 9.7262 13.3349 10.2805 13.6972 10.9447L13.8778 11.2759C14.2044 11.8746 14.6714 12.385 15.2388 12.7634L16.8559 13.8416C17.2463 14.1018 17.5665 14.4544 17.7878 14.868C18.0092 15.2817 18.125 15.7436 18.125 16.2128C18.125 16.9686 17.8248 17.6934 17.2903 18.2278C16.7559 18.7623 16.0311 19.0625 15.2753 19.0625C15.089 19.0625 14.9044 19.0258 14.7322 18.9545C14.5601 18.8832 14.4036 18.7787 14.2719 18.6469L13.4144 17.7894C13.2291 17.6041 12.9779 17.5 12.7159 17.5C12.5534 17.5 12.3934 17.5401 12.25 17.6168C12.1067 17.6935 11.9845 17.8044 11.8944 17.9397L11.4569 18.5959C11.2968 18.8356 11.0801 19.0321 10.826 19.168C10.5719 19.3038 10.2882 19.375 10 19.375Z" fill="black"/>
<path d="M9.0625 4.59125V4.70844C9.06251 5.31545 8.96469 5.91849 8.77281 6.49437C8.67521 6.78723 8.48792 7.04194 8.23749 7.22243C7.98707 7.40292 7.68619 7.50003 7.3775 7.5C7.1281 7.49996 6.88282 7.43649 6.6647 7.31557C6.44658 7.19465 6.26279 7.02024 6.13063 6.80875L6.04625 6.67375C5.3625 5.57991 4.99996 4.3159 5 3.02594C5.00006 2.47735 5.14923 1.9391 5.43156 1.46875C5.58587 1.21144 5.80419 0.998484 6.06525 0.850619C6.32631 0.702755 6.62122 0.625024 6.92125 0.625C7.27487 0.625001 7.62007 0.732921 7.91073 0.93434C8.20138 1.13576 8.42364 1.42108 8.54781 1.75219C8.88816 2.66004 9.0625 3.6217 9.0625 4.59125Z" fill="black"/>
<path d="M10.9375 4.59125V4.70844C10.9375 5.31545 11.0353 5.91849 11.2272 6.49437C11.3248 6.78723 11.5121 7.04194 11.7625 7.22243C12.0129 7.40292 12.3138 7.50003 12.6225 7.5C12.8719 7.49996 13.1172 7.43649 13.3353 7.31557C13.5534 7.19465 13.7372 7.02024 13.8694 6.80875L13.9538 6.67375C14.6375 5.57991 15 4.3159 15 3.02594C14.9999 2.47735 14.8508 1.9391 14.5684 1.46875C14.4141 1.21144 14.1958 0.998484 13.9348 0.850619C13.6737 0.702755 13.3788 0.625024 13.0788 0.625C12.7254 0.625319 12.3805 0.733387 12.0902 0.934785C11.7999 1.13618 11.5778 1.42133 11.4538 1.75219C11.1129 2.65994 10.938 3.6216 10.9375 4.59125Z" fill="black"/>
<path d="M15 8.96625V9.08344C15 9.69045 15.0978 10.2935 15.2897 10.8694C15.3873 11.1622 15.5746 11.4169 15.825 11.5974C16.0754 11.7779 16.3763 11.875 16.685 11.875C16.9344 11.875 17.1797 11.8115 17.3978 11.6906C17.6159 11.5696 17.7997 11.3952 17.9319 11.1837L18.0163 11.0487C18.7 9.95491 19.0625 8.6909 19.0625 7.40094C19.0624 6.85235 18.9133 6.3141 18.6309 5.84375C18.4766 5.58644 18.2583 5.37348 17.9973 5.22562C17.7362 5.07775 17.4413 5.00002 17.1413 5C16.7879 5.00032 16.443 5.10839 16.1527 5.30978C15.8624 5.51118 15.6403 5.79633 15.5163 6.12719C15.1754 7.03494 15.0005 7.9966 15 8.96625Z" fill="black"/>
<path d="M5 8.96625V9.08344C5.00001 9.69045 4.90219 10.2935 4.71031 10.8694C4.61271 11.1622 4.42542 11.4169 4.17499 11.5974C3.92457 11.7779 3.62369 11.875 3.315 11.875C3.0656 11.875 2.82032 11.8115 2.6022 11.6906C2.38408 11.5696 2.20029 11.3952 2.06813 11.1837L1.98375 11.0487C1.3 9.95491 0.937461 8.6909 0.9375 7.40094C0.937555 6.85235 1.08673 6.3141 1.36906 5.84375C1.52337 5.58644 1.74168 5.37348 2.00275 5.22562C2.26381 5.07775 2.55872 5.00002 2.85875 5C3.21237 5 3.55757 5.10792 3.84823 5.30934C4.13888 5.51076 4.36114 5.79608 4.48531 6.12719C4.82566 7.03504 5 7.9967 5 8.96625Z" fill="black"/>
</g>
<defs>
<clipPath id="clip0_1847_128">
<rect width="20" height="20" fill="white"/>
</clipPath>
</defs>
</svg>
