<svg width="20" height="20" viewBox="0 0 20 20" fill="none" xmlns="http://www.w3.org/2000/svg">
<path d="M10 1.25C7.69348 1.25 5.73124 2.29588 5 3.75H15C14.2688 2.29588 12.3065 1.25 10 1.25Z" fill="black"/>
<path d="M18.125 4.375H1.875C1.52985 4.375 1.25 4.65485 1.25 5V7.5C1.25 7.84515 1.52985 8.125 1.875 8.125H3.125V6.5625C3.125 6.38977 3.26477 6.25 3.4375 6.25C3.61023 6.25 3.75 6.38977 3.75 6.5625V8.125H5.625V6.5625C5.625 6.38977 5.76477 6.25 5.9375 6.25C6.11023 6.25 6.25 6.38977 6.25 6.5625V8.125H8.125V6.5625C8.125 6.38977 8.26477 6.25 8.4375 6.25C8.61023 6.25 8.75 6.38977 8.75 6.5625V8.125H11.25V6.5625C11.25 6.38977 11.3898 6.25 11.5625 6.25C11.7352 6.25 11.875 6.38977 11.875 6.5625V8.125H13.75V6.5625C13.75 6.38977 13.8898 6.25 14.0625 6.25C14.2352 6.25 14.375 6.38977 14.375 6.5625V8.125H16.25V6.5625C16.25 6.38977 16.3898 6.25 16.5625 6.25C16.7352 6.25 16.875 6.38977 16.875 6.5625V8.125H18.125C18.4702 8.125 18.75 7.84515 18.75 7.5V5C18.75 4.65485 18.4702 4.375 18.125 4.375Z" fill="black"/>
<path d="M12.4124 11.8749H14.0625C14.2352 11.8749 14.375 12.0147 14.375 12.1874C14.375 12.3602 14.2352 12.4999 14.0625 12.4999H13.7049L13.2277 15.5377C13.1074 16.3 12.3896 16.875 11.5577 16.875H8.4425C7.61028 16.875 6.89251 16.3 6.77258 15.5377L6.29528 12.4999H5.9375C5.76477 12.4999 5.625 12.3602 5.625 12.1874C5.625 12.0147 5.76477 11.8749 5.9375 11.8749H7.58762L8.62926 8.75H2.5V18.125C2.5 18.4702 2.77981 18.75 3.125 18.75H16.875C17.2202 18.75 17.5 18.4702 17.5 18.125V8.75H11.3707L12.4124 11.8749Z" fill="black"/>
<path d="M9.28773 8.75L8.24609 11.8749H11.7537L10.7121 8.75H9.28773Z" fill="black"/>
<path d="M7.81266 12.5005C7.8114 12.5005 7.8101 12.4999 7.80885 12.4999H6.92822L7.39037 15.4413C7.4627 15.9021 7.91497 16.25 8.44262 16.25H11.5579C12.0852 16.25 12.5375 15.9021 12.6101 15.4407L13.0722 12.4999H12.1914C12.1901 12.4999 12.1888 12.5005 12.1876 12.5005L12.1857 12.4999H7.81457L7.81266 12.5005Z" fill="black"/>
</svg>
