<svg width="16" height="16" viewBox="0 0 16 16" fill="none" xmlns="http://www.w3.org/2000/svg">
<g clip-path="url(#clip0_2859_2073)">
<path d="M1.91685 9.651C1.63403 9.0235 1.40528 8.37006 1.2356 7.69788" stroke="#14D15D" stroke-width="0.46875" stroke-miterlimit="10" stroke-linecap="round" stroke-linejoin="round"/>
<path d="M7.24048 0.234375H11.7461L11.8536 0.657188C11.9886 1.18906 12.1889 1.69625 12.4464 2.16938" stroke="#14D15D" stroke-width="0.46875" stroke-miterlimit="10" stroke-linecap="round" stroke-linejoin="round"/>
<path d="M1.01727 6.62594C0.924453 6.03156 0.876953 5.42625 0.876953 4.81437C2.50508 3.9525 3.69258 2.4425 4.14633 0.657188L4.25414 0.234375H6.14695" stroke="#14D15D" stroke-width="0.46875" stroke-miterlimit="10" stroke-linecap="round" stroke-linejoin="round"/>
<path d="M13.3917 3.48438C13.6383 3.75031 13.9076 3.99625 14.197 4.21875C14.4864 4.44156 14.7958 4.64125 15.1233 4.81437C15.1233 8.31969 13.5408 11.6497 10.8667 13.8716" stroke="#14D15D" stroke-width="0.46875" stroke-miterlimit="10" stroke-linecap="round" stroke-linejoin="round"/>
<path d="M2.93286 11.4594C3.85817 12.8119 5.06974 13.9772 6.51349 14.8584L8.00005 15.7656L9.48661 14.8584C9.6588 14.7531 9.82786 14.644 9.99349 14.5306" stroke="#14D15D" stroke-width="0.46875" stroke-miterlimit="10" stroke-linecap="round" stroke-linejoin="round"/>
<path d="M3.68335 10.5553C4.55179 11.91 5.72304 13.0578 7.0996 13.8981L7.99991 14.4475L8.90023 13.8981C10.4537 12.95 11.7459 11.6096 12.6365 10.0225C12.804 9.72401 12.9565 9.41839 13.0937 9.1062" stroke="#14D15D" stroke-width="0.46875" stroke-miterlimit="10" stroke-linecap="round" stroke-linejoin="round"/>
<path d="M12.6233 4.30811C13.0277 4.73529 13.4824 5.11717 13.9792 5.44373C13.9258 6.34186 13.758 7.22967 13.4827 8.08373" stroke="#14D15D" stroke-width="0.46875" stroke-miterlimit="10" stroke-linecap="round" stroke-linejoin="round"/>
<path d="M2.72119 8.65881C2.32366 7.63153 2.08638 6.54525 2.02075 5.44362C3.48641 4.48087 4.58397 3.03556 5.1155 1.35938H10.8846C11.0707 1.94612 11.3261 2.50453 11.6423 3.02387" stroke="#14D15D" stroke-width="0.46875" stroke-miterlimit="10" stroke-linecap="round" stroke-linejoin="round"/>
<path d="M6.69378 5.89203C7.0524 5.89203 7.34312 5.50439 7.34312 5.02621C7.34312 4.54804 7.0524 4.1604 6.69378 4.1604C6.33515 4.1604 6.04443 4.54804 6.04443 5.02621C6.04443 5.50439 6.33515 5.89203 6.69378 5.89203Z" stroke="#14D15D" stroke-width="0.46875" stroke-miterlimit="10" stroke-linecap="round" stroke-linejoin="round"/>
<path d="M9.30486 5.89203C9.66348 5.89203 9.95421 5.50439 9.95421 5.02621C9.95421 4.54804 9.66348 4.1604 9.30486 4.1604C8.94624 4.1604 8.65552 4.54804 8.65552 5.02621C8.65552 5.50439 8.94624 5.89203 9.30486 5.89203Z" stroke="#14D15D" stroke-width="0.46875" stroke-miterlimit="10" stroke-linecap="round" stroke-linejoin="round"/>
<path d="M4.53753 7.89373C4.89615 7.89373 5.18687 7.5061 5.18687 7.02792C5.18687 6.54975 4.89615 6.16211 4.53753 6.16211C4.1789 6.16211 3.88818 6.54975 3.88818 7.02792C3.88818 7.5061 4.1789 7.89373 4.53753 7.89373Z" stroke="#14D15D" stroke-width="0.46875" stroke-miterlimit="10" stroke-linecap="round" stroke-linejoin="round"/>
<path d="M11.4611 7.89373C11.8197 7.89373 12.1105 7.5061 12.1105 7.02792C12.1105 6.54975 11.8197 6.16211 11.4611 6.16211C11.1025 6.16211 10.8118 6.54975 10.8118 7.02792C10.8118 7.5061 11.1025 7.89373 11.4611 7.89373Z" stroke="#14D15D" stroke-width="0.46875" stroke-miterlimit="10" stroke-linecap="round" stroke-linejoin="round"/>
<path d="M8.10261 10.1563L8.26195 10.3156C8.7267 10.7804 9.48017 10.7804 9.94492 10.3156C10.4097 9.85089 10.4097 9.09743 9.94492 8.63268L8.10258 6.79033C8.04555 6.7333 7.95305 6.7333 7.89598 6.79033L6.05364 8.63268C5.58889 9.09743 5.58889 9.85089 6.05364 10.3156C6.51839 10.7804 7.27186 10.7804 7.73661 10.3156L7.89595 10.1563C7.95308 10.0993 8.04558 10.0993 8.10261 10.1563Z" stroke="#14D15D" stroke-width="0.46875" stroke-miterlimit="10" stroke-linecap="round" stroke-linejoin="round"/>
<path d="M4.22277 10.1669C3.39324 10.5407 3.09024 10.8436 2.71649 11.6732C2.34274 10.8437 2.03977 10.5407 1.21021 10.1669C2.03974 9.79318 2.34274 9.49021 2.71649 8.66064C3.09024 9.49021 3.39324 9.79318 4.22277 10.1669Z" stroke="#14D15D" stroke-width="0.46875" stroke-miterlimit="10" stroke-linecap="round" stroke-linejoin="round"/>
<path d="M13.6534 3.31018C12.99 3.59356 12.7477 3.82331 12.4488 4.45228C12.1499 3.82331 11.9075 3.59359 11.2441 3.31018C11.9006 3.02347 12.1499 2.79706 12.4488 2.16809C12.7477 2.79709 12.99 3.02681 13.6534 3.31018Z" stroke="#14D15D" stroke-width="0.46875" stroke-miterlimit="10" stroke-linecap="round" stroke-linejoin="round"/>
<path d="M15.1233 12.4053C14.6568 12.6154 14.4864 12.7858 14.2762 13.2523C14.0661 12.7858 13.8957 12.6154 13.4292 12.4053C13.8957 12.1951 14.066 12.0247 14.2762 11.5582C14.4864 12.0247 14.6568 12.1951 15.1233 12.4053Z" stroke="#14D15D" stroke-width="0.46875" stroke-miterlimit="10" stroke-linecap="round" stroke-linejoin="round"/>
</g>
<defs>
<clipPath id="clip0_2859_2073">
<rect width="16" height="16" fill="white"/>
</clipPath>
</defs>
</svg>
