<svg width="13" height="13" viewBox="0 0 13 13" fill="none" xmlns="http://www.w3.org/2000/svg">
<g opacity="0.8" clip-path="url(#clip0_2859_2424)">
<path d="M0.870823 7.13715L0.852092 7.13305L8.88195 7.13305L6.35765 9.66291C6.23404 9.78642 6.16624 9.95374 6.16624 10.1293C6.16624 10.305 6.23404 10.4711 6.35765 10.5949L6.75043 10.9879C6.87395 11.1114 7.03853 11.1797 7.21404 11.1797C7.38965 11.1797 7.55434 11.1119 7.67785 10.9884L12.005 6.66164C12.129 6.53764 12.1968 6.37247 12.1963 6.19676C12.1968 6.02008 12.129 5.85481 12.005 5.731L7.67785 1.40388C7.55434 1.28047 7.38975 1.21257 7.21404 1.21257C7.03853 1.21257 6.87395 1.28057 6.75043 1.40388L6.35765 1.79686C6.23404 1.92018 6.16624 2.08486 6.16624 2.26047C6.16624 2.43598 6.23404 2.59198 6.35765 2.7154L8.91043 5.25939L0.861847 5.25939C0.500189 5.25939 0.196286 5.5711 0.196286 5.93257L0.196286 6.48837C0.196286 6.84983 0.509165 7.13715 0.870823 7.13715Z" fill="#6D87F7"/>
</g>
<defs>
<clipPath id="clip0_2859_2424">
<rect width="12" height="12" fill="white" transform="matrix(-1 0 0 -1 12.1963 12.1962)"/>
</clipPath>
</defs>
</svg>
